<?xml version="1.0" encoding="UTF-8" standalone="no"?>
<!DOCTYPE svg PUBLIC "-//W3C//DTD SVG 1.1//EN"
 "http://www.w3.org/Graphics/SVG/1.1/DTD/svg11.dtd">
<!-- Generated by graphviz version 2.43.0 (0)
 -->
<!-- Title: nixstore Pages: 1 -->
<svg width="824pt" height="3490pt"
 viewBox="0.00 0.00 824.01 3490.00" xmlns="http://www.w3.org/2000/svg" xmlns:xlink="http://www.w3.org/1999/xlink">
<g id="graph0" class="graph" transform="scale(1 1) rotate(0) translate(4 3486)">
<title>nixstore</title>
<polygon fill="white" stroke="transparent" points="-4,4 -4,-3486 820.01,-3486 820.01,4 -4,4"/>
<!-- N61 -->
<g id="node1" class="node">
<title>N61</title>
<polygon fill="#fe5e00" stroke="#fe5e00" points="394.71,-18.54 394.71,-33.46 329.52,-44 237.32,-44 172.12,-33.46 172.12,-18.54 237.32,-8 329.52,-8 394.71,-18.54"/>
<polygon fill="none" stroke="#fe5e00" points="398.72,-15.14 398.72,-36.86 329.84,-48 237,-48 168.12,-36.86 168.12,-15.14 237,-4 329.84,-4 398.72,-15.14"/>
<polygon fill="none" stroke="#fe5e00" points="402.72,-11.74 402.72,-40.26 330.16,-52 236.67,-52 164.11,-40.26 164.11,-11.74 236.67,0 330.16,0 402.72,-11.74"/>
<text text-anchor="middle" x="283.42" y="-22.3" font-family="Roboto" font-size="14.00" fill="#000000">{filtered out} (2.05 GiB)</text>
</g>
<!-- N31 -->
<g id="node2" class="node">
<title>N31</title>
<polygon fill="#37f5a2" stroke="#37f5a2" points="453.9,-88.54 453.9,-103.46 354.03,-114 212.8,-114 112.94,-103.46 112.94,-88.54 212.8,-78 354.03,-78 453.9,-88.54"/>
<polygon fill="none" stroke="#37f5a2" points="457.9,-84.94 457.9,-107.06 354.24,-118 212.59,-118 108.93,-107.06 108.93,-84.94 212.59,-74 354.24,-74 457.9,-84.94"/>
<polygon fill="none" stroke="#37f5a2" points="461.91,-81.35 461.91,-110.65 354.46,-122 212.38,-122 104.93,-110.65 104.93,-81.35 212.38,-70 354.46,-70 461.91,-81.35"/>
<text text-anchor="middle" x="283.42" y="-92.3" font-family="Roboto" font-size="14.00" fill="#000000">skypeforlinux&#45;8.63.0.76 (490.67 MiB)</text>
</g>
<!-- N30 -->
<g id="node3" class="node">
<title>N30</title>
<polygon fill="#3ecde9" stroke="#3ecde9" points="428.26,-158.54 428.26,-173.46 343.41,-184 223.42,-184 138.57,-173.46 138.57,-158.54 223.42,-148 343.41,-148 428.26,-158.54"/>
<polygon fill="none" stroke="#3ecde9" points="432.26,-155.01 432.26,-176.99 343.66,-188 223.17,-188 134.58,-176.99 134.58,-155.01 223.17,-144 343.66,-144 432.26,-155.01"/>
<polygon fill="none" stroke="#3ecde9" points="436.26,-151.48 436.26,-180.52 343.91,-192 222.93,-192 130.58,-180.52 130.58,-151.48 222.93,-140 343.91,-140 436.26,-151.48"/>
<text text-anchor="middle" x="283.42" y="-162.3" font-family="Roboto" font-size="14.00" fill="#000000">prusa&#45;slicer&#45;2.2.0 (199.28 MiB)</text>
</g>
<!-- N29 -->
<g id="node4" class="node">
<title>N29</title>
<polygon fill="#c4fe2a" stroke="#c4fe2a" points="380.58,-438.54 380.58,-453.46 323.66,-464 243.17,-464 186.26,-453.46 186.26,-438.54 243.17,-428 323.66,-428 380.58,-438.54"/>
<polygon fill="none" stroke="#c4fe2a" points="384.58,-435.22 384.58,-456.78 324.03,-468 242.81,-468 182.26,-456.78 182.26,-435.22 242.81,-424 324.03,-424 384.58,-435.22"/>
<polygon fill="none" stroke="#c4fe2a" points="388.58,-431.89 388.58,-460.11 324.4,-472 242.44,-472 178.25,-460.11 178.25,-431.89 242.44,-420 324.4,-420 388.58,-431.89"/>
<text text-anchor="middle" x="283.42" y="-442.3" font-family="Roboto" font-size="14.00" fill="#000000">steam (858.90 MiB)</text>
</g>
<!-- N8 -->
<g id="node41" class="node">
<title>N8</title>
<polygon fill="#3dd1e9" stroke="#3dd1e9" points="430.48,-298.54 430.48,-313.46 344.33,-324 222.5,-324 136.36,-313.46 136.36,-298.54 222.5,-288 344.33,-288 430.48,-298.54"/>
<polygon fill="none" stroke="#3dd1e9" points="434.48,-295 434.48,-317 344.58,-328 222.26,-328 132.36,-317 132.36,-295 222.26,-284 344.58,-284 434.48,-295"/>
<polygon fill="none" stroke="#3dd1e9" points="438.48,-291.46 438.48,-320.54 344.82,-332 222.02,-332 128.36,-320.54 128.36,-291.46 222.02,-280 344.82,-280 438.48,-291.46"/>
<text text-anchor="middle" x="283.42" y="-302.3" font-family="Roboto" font-size="14.00" fill="#000000">glibc&#45;locales&#45;2.31 (209.56 MiB)</text>
</g>
<!-- N29&#45;&gt;N8 -->
<g id="edge1" class="edge">
<title>N29&#45;&gt;N8</title>
<path fill="none" stroke="black" d="M186.73,-461.71C125.13,-465.49 50.73,-456.87 16.82,-402 4.67,-382.34 4.67,-369.66 16.82,-350 21.53,-342.39 26.28,-343.66 34.82,-341 61.35,-332.74 90.07,-326.43 118.26,-321.6"/>
<polygon fill="black" stroke="black" points="118.91,-325.04 128.2,-319.96 117.77,-318.14 118.91,-325.04"/>
</g>
<!-- N34 -->
<g id="node51" class="node">
<title>N34</title>
<polygon fill="#3cede8" stroke="#3cede8" points="813.01,-472 571.01,-472 571.01,-436 813.01,-436 813.01,-472"/>
<text text-anchor="middle" x="692.01" y="-450.3" font-family="Roboto" font-size="14.00" fill="#000000">vulkan&#45;loader&#45;1.2.131.2 (300.52 MiB)</text>
</g>
<!-- N29&#45;&gt;N34 -->
<g id="edge2" class="edge">
<title>N29&#45;&gt;N34</title>
<path fill="none" stroke="black" d="M388.6,-448.05C440.98,-449.08 504.99,-450.34 560.61,-451.43"/>
<polygon fill="black" stroke="black" points="560.83,-454.94 570.9,-451.64 560.97,-447.94 560.83,-454.94"/>
</g>
<!-- N41 -->
<g id="node52" class="node">
<title>N41</title>
<polygon fill="#3af0d8" stroke="#3af0d8" points="789.51,-332 594.51,-332 594.51,-296 789.51,-296 789.51,-332"/>
<text text-anchor="middle" x="692.01" y="-310.3" font-family="Roboto" font-size="14.00" fill="#000000">mono&#45;5.20.1.27 (355.92 MiB)</text>
</g>
<!-- N29&#45;&gt;N41 -->
<g id="edge3" class="edge">
<title>N29&#45;&gt;N41</title>
<path fill="none" stroke="black" d="M388.77,-440.71C433.84,-436.04 486.55,-427.29 532.01,-411 580.15,-393.75 629.48,-360.8 660.17,-338.13"/>
<polygon fill="black" stroke="black" points="662.41,-340.82 668.32,-332.03 658.21,-335.22 662.41,-340.82"/>
</g>
<!-- N43 -->
<g id="node5" class="node">
<title>N43</title>
<polygon fill="#4086e2" stroke="#4086e2" points="457.85,-228.54 457.85,-243.46 355.67,-254 211.16,-254 108.98,-243.46 108.98,-228.54 211.16,-218 355.67,-218 457.85,-228.54"/>
<polygon fill="none" stroke="#4086e2" points="461.85,-224.94 461.85,-247.06 355.88,-258 210.96,-258 104.98,-247.06 104.98,-224.94 210.96,-214 355.88,-214 461.85,-224.94"/>
<polygon fill="none" stroke="#4086e2" points="465.85,-221.33 465.85,-250.67 356.08,-262 210.75,-262 100.99,-250.67 100.99,-221.33 210.75,-210 356.08,-210 465.85,-221.33"/>
<text text-anchor="middle" x="283.42" y="-232.3" font-family="Roboto" font-size="14.00" fill="#ffffff">openra&#45;release&#45;20190314 (44.60 MiB)</text>
</g>
<!-- N43&#45;&gt;N41 -->
<g id="edge4" class="edge">
<title>N43&#45;&gt;N41</title>
<path fill="none" stroke="black" d="M433.53,-254.03C466.12,-258.82 500.33,-264.5 532.01,-271 561.45,-277.04 593.52,-285.36 621.09,-293.08"/>
<polygon fill="black" stroke="black" points="620.46,-296.54 631.03,-295.9 622.36,-289.81 620.46,-296.54"/>
</g>
<!-- N44 -->
<g id="node6" class="node">
<title>N44</title>
<polygon fill="#4169e1" stroke="#4169e1" points="468.45,-788.54 468.45,-803.46 360.06,-814 206.77,-814 98.38,-803.46 98.38,-788.54 206.77,-778 360.06,-778 468.45,-788.54"/>
<polygon fill="none" stroke="#4169e1" points="472.45,-784.91 472.45,-807.09 360.26,-818 206.58,-818 94.38,-807.09 94.38,-784.91 206.58,-774 360.26,-774 472.45,-784.91"/>
<polygon fill="none" stroke="#4169e1" points="476.45,-781.28 476.45,-810.72 360.45,-822 206.39,-822 90.38,-810.72 90.38,-781.28 206.39,-770 360.45,-770 476.45,-781.28"/>
<text text-anchor="middle" x="283.42" y="-792.3" font-family="Roboto" font-size="14.00" fill="#ffffff">nvidia&#45;persistenced&#45;450.57 (115.81 KiB)</text>
</g>
<!-- N39 -->
<g id="node53" class="node">
<title>N39</title>
<polygon fill="#3beee2" stroke="#3beee2" points="816.01,-744 568.01,-744 568.01,-708 816.01,-708 816.01,-744"/>
<text text-anchor="middle" x="692.01" y="-722.3" font-family="Roboto" font-size="14.00" fill="#000000">nvidia&#45;x11&#45;450.57&#45;5.4.58 (322.13 MiB)</text>
</g>
<!-- N44&#45;&gt;N39 -->
<g id="edge5" class="edge">
<title>N44&#45;&gt;N39</title>
<path fill="none" stroke="black" d="M432.33,-776.97C465.22,-772.22 499.86,-766.8 532.01,-761 555.74,-756.72 581.31,-751.4 604.87,-746.22"/>
<polygon fill="black" stroke="black" points="605.82,-749.59 614.82,-744.01 604.3,-742.76 605.82,-749.59"/>
</g>
<!-- N45 -->
<g id="node7" class="node">
<title>N45</title>
<polygon fill="#406ce1" stroke="#406ce1" points="400.89,-1208.54 400.89,-1223.46 332.07,-1234 234.76,-1234 165.95,-1223.46 165.95,-1208.54 234.76,-1198 332.07,-1198 400.89,-1208.54"/>
<polygon fill="none" stroke="#406ce1" points="404.88,-1205.11 404.88,-1226.89 332.38,-1238 234.46,-1238 161.95,-1226.89 161.95,-1205.11 234.46,-1194 332.38,-1194 404.88,-1205.11"/>
<polygon fill="none" stroke="#406ce1" points="408.88,-1201.68 408.88,-1230.32 332.68,-1242 234.15,-1242 157.95,-1230.32 157.95,-1201.68 234.15,-1190 332.68,-1190 408.88,-1201.68"/>
<text text-anchor="middle" x="283.42" y="-1212.3" font-family="Roboto" font-size="14.00" fill="#ffffff">nethack&#45;3.6.6 (4.58 MiB)</text>
</g>
<!-- N40 -->
<g id="node54" class="node">
<title>N40</title>
<polygon fill="#3fb7e7" stroke="#3fb7e7" points="769.51,-1164 614.51,-1164 614.51,-1128 769.51,-1128 769.51,-1164"/>
<text text-anchor="middle" x="692.01" y="-1142.3" font-family="Roboto" font-size="14.00" fill="#000000">gcc&#45;9.3.0 (144.23 MiB)</text>
</g>
<!-- N45&#45;&gt;N40 -->
<g id="edge6" class="edge">
<title>N45&#45;&gt;N40</title>
<path fill="none" stroke="black" d="M404.35,-1200.92C444.99,-1195.32 490.57,-1188.48 532.01,-1181 555.74,-1176.72 581.31,-1171.4 604.87,-1166.22"/>
<polygon fill="black" stroke="black" points="605.82,-1169.59 614.82,-1164.01 604.3,-1162.76 605.82,-1169.59"/>
</g>
<!-- N28 -->
<g id="node8" class="node">
<title>N28</title>
<polygon fill="#3cedea" stroke="#3cedea" points="407.95,-1348.54 407.95,-1363.46 335,-1374 231.83,-1374 158.88,-1363.46 158.88,-1348.54 231.83,-1338 335,-1338 407.95,-1348.54"/>
<polygon fill="none" stroke="#3cedea" points="411.95,-1345.08 411.95,-1366.92 335.29,-1378 231.55,-1378 154.88,-1366.92 154.88,-1345.08 231.55,-1334 335.29,-1334 411.95,-1345.08"/>
<polygon fill="none" stroke="#3cedea" points="415.95,-1341.62 415.95,-1370.38 335.58,-1382 231.26,-1382 150.88,-1370.38 150.88,-1341.62 231.26,-1330 335.58,-1330 415.95,-1341.62"/>
<text text-anchor="middle" x="283.42" y="-1352.3" font-family="Roboto" font-size="14.00" fill="#000000">inkscape&#45;1.0 (293.12 MiB)</text>
</g>
<!-- N42 -->
<g id="node55" class="node">
<title>N42</title>
<polygon fill="#3fb7e7" stroke="#3fb7e7" points="760.51,-1514 623.51,-1514 623.51,-1478 760.51,-1478 760.51,-1514"/>
<text text-anchor="middle" x="692.01" y="-1492.3" font-family="Roboto" font-size="14.00" fill="#000000">blas&#45;3 (144.29 MiB)</text>
</g>
<!-- N28&#45;&gt;N42 -->
<g id="edge7" class="edge">
<title>N28&#45;&gt;N42</title>
<path fill="none" stroke="black" d="M415.95,-1363.65C454.25,-1368.77 495.58,-1377.2 532.01,-1391 581.78,-1409.85 631.79,-1446.47 662.08,-1471.09"/>
<polygon fill="black" stroke="black" points="660.14,-1474.03 670.09,-1477.69 664.6,-1468.63 660.14,-1474.03"/>
</g>
<!-- N27 -->
<g id="node9" class="node">
<title>N27</title>
<polygon fill="#3face6" stroke="#3face6" points="398.67,-578.54 398.67,-593.46 331.16,-604 235.68,-604 168.16,-593.46 168.16,-578.54 235.68,-568 331.16,-568 398.67,-578.54"/>
<polygon fill="none" stroke="#3face6" points="402.67,-575.12 402.67,-596.88 331.47,-608 235.37,-608 164.17,-596.88 164.17,-575.12 235.37,-564 331.47,-564 402.67,-575.12"/>
<polygon fill="none" stroke="#3face6" points="406.66,-571.7 406.66,-600.3 331.78,-612 235.06,-612 160.17,-600.3 160.17,-571.7 235.06,-560 331.78,-560 406.66,-571.7"/>
<text text-anchor="middle" x="283.42" y="-582.3" font-family="Roboto" font-size="14.00" fill="#ffffff">platformio (119.95 MiB)</text>
</g>
<!-- N27&#45;&gt;N8 -->
<g id="edge8" class="edge">
<title>N27&#45;&gt;N8</title>
<path fill="none" stroke="black" d="M173.11,-602.33C114.52,-603.99 48.27,-592.88 16.82,-542 -5.61,-505.71 -5.61,-386.29 16.82,-350 39.92,-312.62 81.81,-296.71 125.64,-291.55"/>
<polygon fill="black" stroke="black" points="126.01,-295.03 135.61,-290.56 125.31,-288.07 126.01,-295.03"/>
</g>
<!-- N35 -->
<g id="node56" class="node">
<title>N35</title>
<polygon fill="#3faae5" stroke="#3faae5" points="774.01,-569 610.01,-569 610.01,-533 774.01,-533 774.01,-569"/>
<text text-anchor="middle" x="692.01" y="-547.3" font-family="Roboto" font-size="14.00" fill="#ffffff">perl&#45;5.30.3 (114.66 MiB)</text>
</g>
<!-- N27&#45;&gt;N35 -->
<g id="edge9" class="edge">
<title>N27&#45;&gt;N35</title>
<path fill="none" stroke="black" d="M406.69,-575.48C468.68,-570.14 542.7,-563.77 599.67,-558.86"/>
<polygon fill="black" stroke="black" points="600.08,-562.34 609.74,-558 599.48,-555.37 600.08,-562.34"/>
</g>
<!-- N46 -->
<g id="node10" class="node">
<title>N46</title>
<polygon fill="#406ee1" stroke="#406ee1" points="399.57,-1908.54 399.57,-1923.46 331.53,-1934 235.31,-1934 167.27,-1923.46 167.27,-1908.54 235.31,-1898 331.53,-1898 399.57,-1908.54"/>
<polygon fill="none" stroke="#406ee1" points="403.57,-1905.12 403.57,-1926.88 331.84,-1938 235,-1938 163.27,-1926.88 163.27,-1905.12 235,-1894 331.84,-1894 403.57,-1905.12"/>
<polygon fill="none" stroke="#406ee1" points="407.57,-1901.69 407.57,-1930.31 332.14,-1942 234.69,-1942 159.27,-1930.31 159.27,-1901.69 234.69,-1890 332.14,-1890 407.57,-1901.69"/>
<text text-anchor="middle" x="283.42" y="-1912.3" font-family="Roboto" font-size="14.00" fill="#ffffff">arandr&#45;0.1.10 (7.76 MiB)</text>
</g>
<!-- N38 -->
<g id="node57" class="node">
<title>N38</title>
<polygon fill="#36f694" stroke="#36f694" points="787.51,-1794 596.51,-1794 596.51,-1758 787.51,-1758 787.51,-1794"/>
<text text-anchor="middle" x="692.01" y="-1772.3" font-family="Roboto" font-size="14.00" fill="#000000">libGL&#45;1.3.2&#45;dev (515.40 MiB)</text>
</g>
<!-- N46&#45;&gt;N38 -->
<g id="edge10" class="edge">
<title>N46&#45;&gt;N38</title>
<path fill="none" stroke="black" d="M407.68,-1909.41C448.24,-1904.42 492.94,-1895.8 532.01,-1881 581.78,-1862.15 631.79,-1825.53 662.08,-1800.91"/>
<polygon fill="black" stroke="black" points="664.6,-1803.37 670.09,-1794.31 660.14,-1797.97 664.6,-1803.37"/>
</g>
<!-- N26 -->
<g id="node11" class="node">
<title>N26</title>
<polygon fill="#35f876" stroke="#35f876" points="424.73,-1838.54 424.73,-1853.46 341.95,-1864 224.89,-1864 142.11,-1853.46 142.11,-1838.54 224.89,-1828 341.95,-1828 424.73,-1838.54"/>
<polygon fill="none" stroke="#35f876" points="428.72,-1835.02 428.72,-1856.98 342.2,-1868 224.63,-1868 138.11,-1856.98 138.11,-1835.02 224.63,-1824 342.2,-1824 428.72,-1835.02"/>
<polygon fill="none" stroke="#35f876" points="432.72,-1831.5 432.72,-1860.5 342.46,-1872 224.38,-1872 134.11,-1860.5 134.11,-1831.5 224.38,-1820 342.46,-1820 432.72,-1831.5"/>
<text text-anchor="middle" x="283.42" y="-1842.3" font-family="Roboto" font-size="14.00" fill="#000000">wesnoth&#45;1.14.13 (558.29 MiB)</text>
</g>
<!-- N26&#45;&gt;N38 -->
<g id="edge11" class="edge">
<title>N26&#45;&gt;N38</title>
<path fill="none" stroke="black" d="M415.78,-1829.33C453.41,-1824.04 494.42,-1817.78 532.01,-1811 555.74,-1806.72 581.31,-1801.4 604.87,-1796.22"/>
<polygon fill="black" stroke="black" points="605.82,-1799.59 614.82,-1794.01 604.3,-1792.76 605.82,-1799.59"/>
</g>
<!-- N47 -->
<g id="node12" class="node">
<title>N47</title>
<polygon fill="#406fe1" stroke="#406fe1" points="500.68,-2118.54 500.68,-2133.46 373.41,-2144 193.42,-2144 66.16,-2133.46 66.16,-2118.54 193.42,-2108 373.41,-2108 500.68,-2118.54"/>
<polygon fill="none" stroke="#406fe1" points="504.68,-2114.86 504.68,-2137.14 373.58,-2148 193.26,-2148 62.16,-2137.14 62.16,-2114.86 193.26,-2104 373.58,-2104 504.68,-2114.86"/>
<polygon fill="none" stroke="#406fe1" points="508.68,-2111.18 508.68,-2140.82 373.74,-2152 193.09,-2152 58.16,-2140.82 58.16,-2111.18 193.09,-2100 373.74,-2100 508.68,-2111.18"/>
<text text-anchor="middle" x="283.42" y="-2122.3" font-family="Roboto" font-size="14.00" fill="#ffffff">papirus&#45;maia&#45;icon&#45;theme&#45;2019&#45;07&#45;26 (8.96 MiB)</text>
</g>
<!-- N1 -->
<g id="node50" class="node">
<title>N1</title>
<polygon fill="#3dd8ea" stroke="#3dd8ea" points="481.69,-2048.54 481.69,-2063.46 365.55,-2074 201.29,-2074 85.14,-2063.46 85.14,-2048.54 201.29,-2038 365.55,-2038 481.69,-2048.54"/>
<polygon fill="none" stroke="#3dd8ea" points="485.69,-2044.89 485.69,-2067.11 365.73,-2078 201.11,-2078 81.15,-2067.11 81.15,-2044.89 201.11,-2034 365.73,-2034 485.69,-2044.89"/>
<polygon fill="none" stroke="#3dd8ea" points="489.69,-2041.24 489.69,-2070.76 365.91,-2082 200.93,-2082 77.15,-2070.76 77.15,-2041.24 200.93,-2030 365.91,-2030 489.69,-2041.24"/>
<text text-anchor="middle" x="283.42" y="-2052.3" font-family="Roboto" font-size="14.00" fill="#000000">papirus&#45;icon&#45;theme&#45;20200801 (227.16 MiB)</text>
</g>
<!-- N47&#45;&gt;N1 -->
<g id="edge12" class="edge">
<title>N47&#45;&gt;N1</title>
<path fill="none" stroke="black" d="M283.42,-2099.68C283.42,-2097.23 283.42,-2094.78 283.42,-2092.33"/>
<polygon fill="black" stroke="black" points="286.92,-2092.25 283.42,-2082.25 279.92,-2092.25 286.92,-2092.25"/>
</g>
<!-- N25 -->
<g id="node13" class="node">
<title>N25</title>
<polygon fill="#cbfe29" stroke="#cbfe29" points="426.05,-2188.54 426.05,-2203.46 342.5,-2214 224.34,-2214 140.79,-2203.46 140.79,-2188.54 224.34,-2178 342.5,-2178 426.05,-2188.54"/>
<polygon fill="none" stroke="#cbfe29" points="430.04,-2185.02 430.04,-2206.98 342.75,-2218 224.09,-2218 136.79,-2206.98 136.79,-2185.02 224.09,-2174 342.75,-2174 430.04,-2185.02"/>
<polygon fill="none" stroke="#cbfe29" points="434.04,-2181.49 434.04,-2210.51 343,-2222 223.84,-2222 132.8,-2210.51 132.8,-2181.49 223.84,-2170 343,-2170 434.04,-2181.49"/>
<text text-anchor="middle" x="283.42" y="-2192.3" font-family="Roboto" font-size="14.00" fill="#000000">xonotic&#45;sdl&#45;0.8.2 (895.35 MiB)</text>
</g>
<!-- N48 -->
<g id="node14" class="node">
<title>N48</title>
<polygon fill="#3f9ee4" stroke="#3f9ee4" points="444.61,-1488.54 444.61,-1503.46 350.19,-1514 216.65,-1514 122.22,-1503.46 122.22,-1488.54 216.65,-1478 350.19,-1478 444.61,-1488.54"/>
<polygon fill="none" stroke="#3f9ee4" points="448.62,-1484.97 448.62,-1507.03 350.41,-1518 216.43,-1518 118.22,-1507.03 118.22,-1484.97 216.43,-1474 350.41,-1474 448.62,-1484.97"/>
<polygon fill="none" stroke="#3f9ee4" points="452.62,-1481.39 452.62,-1510.61 350.63,-1522 216.2,-1522 114.22,-1510.61 114.22,-1481.39 216.2,-1470 350.63,-1470 452.62,-1481.39"/>
<text text-anchor="middle" x="283.42" y="-1492.3" font-family="Roboto" font-size="14.00" fill="#ffffff">dwarf&#45;fortress&#45;0.47.04 (90.49 MiB)</text>
</g>
<!-- N48&#45;&gt;N40 -->
<g id="edge14" class="edge">
<title>N48&#45;&gt;N40</title>
<path fill="none" stroke="black" d="M452.64,-1494.36C480.99,-1488.1 508.72,-1477.69 532.01,-1461 631.8,-1389.48 672.79,-1236.89 685.89,-1174"/>
<polygon fill="black" stroke="black" points="689.36,-1174.51 687.89,-1164.01 682.49,-1173.13 689.36,-1174.51"/>
</g>
<!-- N48&#45;&gt;N38 -->
<g id="edge13" class="edge">
<title>N48&#45;&gt;N38</title>
<path fill="none" stroke="black" d="M452.83,-1500.11C480.76,-1506.17 508.31,-1515.88 532.01,-1531 614.37,-1583.53 662.82,-1695.75 681.75,-1748.07"/>
<polygon fill="black" stroke="black" points="678.52,-1749.43 685.15,-1757.7 685.12,-1747.11 678.52,-1749.43"/>
</g>
<!-- N49 -->
<g id="node15" class="node">
<title>N49</title>
<polygon fill="#3fa0e5" stroke="#3fa0e5" points="430.48,-1138.54 430.48,-1153.46 344.33,-1164 222.5,-1164 136.36,-1153.46 136.36,-1138.54 222.5,-1128 344.33,-1128 430.48,-1138.54"/>
<polygon fill="none" stroke="#3fa0e5" points="434.48,-1135 434.48,-1157 344.58,-1168 222.26,-1168 132.36,-1157 132.36,-1135 222.26,-1124 344.58,-1124 434.48,-1135"/>
<polygon fill="none" stroke="#3fa0e5" points="438.48,-1131.46 438.48,-1160.54 344.82,-1172 222.02,-1172 128.36,-1160.54 128.36,-1131.46 222.02,-1120 344.82,-1120 438.48,-1131.46"/>
<text text-anchor="middle" x="283.42" y="-1142.3" font-family="Roboto" font-size="14.00" fill="#ffffff">stepmania&#45;5.1.0&#45;b2 (93.35 MiB)</text>
</g>
<!-- N49&#45;&gt;N40 -->
<g id="edge15" class="edge">
<title>N49&#45;&gt;N40</title>
<path fill="none" stroke="black" d="M438.71,-1146C494.82,-1146 556.22,-1146 604.4,-1146"/>
<polygon fill="black" stroke="black" points="604.47,-1149.5 614.47,-1146 604.47,-1142.5 604.47,-1149.5"/>
</g>
<!-- N24 -->
<g id="node16" class="node">
<title>N24</title>
<polygon fill="#3dd9ea" stroke="#3dd9ea" points="396.03,-1558.54 396.03,-1573.46 330.06,-1584 236.77,-1584 170.8,-1573.46 170.8,-1558.54 236.77,-1548 330.06,-1548 396.03,-1558.54"/>
<polygon fill="none" stroke="#3dd9ea" points="400.03,-1555.13 400.03,-1576.87 330.38,-1588 236.45,-1588 166.8,-1576.87 166.8,-1555.13 236.45,-1544 330.38,-1544 400.03,-1555.13"/>
<polygon fill="none" stroke="#3dd9ea" points="404.04,-1551.72 404.04,-1580.28 330.7,-1592 236.14,-1592 162.8,-1580.28 162.8,-1551.72 236.14,-1540 330.7,-1540 404.04,-1551.72"/>
<text text-anchor="middle" x="283.42" y="-1562.3" font-family="Roboto" font-size="14.00" fill="#000000">cura&#45;4.6.1 (228.57 MiB)</text>
</g>
<!-- N24&#45;&gt;N42 -->
<g id="edge16" class="edge">
<title>N24&#45;&gt;N42</title>
<path fill="none" stroke="black" d="M401.53,-1551.31C442.87,-1545.63 489.61,-1538.65 532.01,-1531 558.53,-1526.21 587.35,-1520.14 613.08,-1514.4"/>
<polygon fill="black" stroke="black" points="614.16,-1517.74 623.15,-1512.13 612.63,-1510.91 614.16,-1517.74"/>
</g>
<!-- N23 -->
<g id="node17" class="node">
<title>N23</title>
<polygon fill="#d9fe26" stroke="#d9fe26" points="431.37,-2258.54 431.37,-2273.46 344.7,-2284 222.13,-2284 135.46,-2273.46 135.46,-2258.54 222.13,-2248 344.7,-2248 431.37,-2258.54"/>
<polygon fill="none" stroke="#d9fe26" points="435.38,-2255 435.38,-2277 344.95,-2288 221.89,-2288 131.46,-2277 131.46,-2255 221.89,-2244 344.95,-2244 435.38,-2255"/>
<polygon fill="none" stroke="#d9fe26" points="439.39,-2251.46 439.39,-2280.54 345.19,-2292 221.65,-2292 127.45,-2280.54 127.45,-2251.46 221.65,-2240 345.19,-2240 439.39,-2251.46"/>
<text text-anchor="middle" x="283.42" y="-2262.3" font-family="Roboto" font-size="14.00" fill="#000000">clang&#45;tools&#45;10.0.1 (972.87 MiB)</text>
</g>
<!-- N22 -->
<g id="node18" class="node">
<title>N22</title>
<polygon fill="#3cede8" stroke="#3cede8" points="403.1,-2328.54 403.1,-2343.46 332.99,-2354 233.84,-2354 163.74,-2343.46 163.74,-2328.54 233.84,-2318 332.99,-2318 403.1,-2328.54"/>
<polygon fill="none" stroke="#3cede8" points="407.1,-2325.1 407.1,-2346.9 333.29,-2358 233.54,-2358 159.73,-2346.9 159.73,-2325.1 233.54,-2314 333.29,-2314 407.1,-2325.1"/>
<polygon fill="none" stroke="#3cede8" points="411.11,-2321.66 411.11,-2350.34 333.59,-2362 233.24,-2362 155.73,-2350.34 155.73,-2321.66 233.24,-2310 333.59,-2310 411.11,-2321.66"/>
<text text-anchor="middle" x="283.42" y="-2332.3" font-family="Roboto" font-size="14.00" fill="#000000">elixir&#45;1.10.4 (301.48 MiB)</text>
</g>
<!-- N50 -->
<g id="node19" class="node">
<title>N50</title>
<polygon fill="#4083e2" stroke="#4083e2" points="426.05,-1768.54 426.05,-1783.46 342.5,-1794 224.34,-1794 140.79,-1783.46 140.79,-1768.54 224.34,-1758 342.5,-1758 426.05,-1768.54"/>
<polygon fill="none" stroke="#4083e2" points="430.04,-1765.02 430.04,-1786.98 342.75,-1798 224.09,-1798 136.79,-1786.98 136.79,-1765.02 224.09,-1754 342.75,-1754 430.04,-1765.02"/>
<polygon fill="none" stroke="#4083e2" points="434.04,-1761.49 434.04,-1790.51 343,-1802 223.84,-1802 132.8,-1790.51 132.8,-1761.49 223.84,-1750 343,-1750 434.04,-1761.49"/>
<text text-anchor="middle" x="283.42" y="-1772.3" font-family="Roboto" font-size="14.00" fill="#ffffff">virt&#45;manager&#45;2.2.1 (39.53 MiB)</text>
</g>
<!-- N50&#45;&gt;N38 -->
<g id="edge17" class="edge">
<title>N50&#45;&gt;N38</title>
<path fill="none" stroke="black" d="M434.09,-1776C484.61,-1776 539.89,-1776 586.19,-1776"/>
<polygon fill="black" stroke="black" points="586.23,-1779.5 596.23,-1776 586.23,-1772.5 586.23,-1779.5"/>
</g>
<!-- N21 -->
<g id="node20" class="node">
<title>N21</title>
<polygon fill="#3ec0e8" stroke="#3ec0e8" points="524.1,-2398.54 524.1,-2413.46 383.11,-2424 183.72,-2424 42.73,-2413.46 42.73,-2398.54 183.72,-2388 383.11,-2388 524.1,-2398.54"/>
<polygon fill="none" stroke="#3ec0e8" points="528.11,-2394.83 528.11,-2417.17 383.26,-2428 183.57,-2428 38.73,-2417.17 38.73,-2394.83 183.57,-2384 383.26,-2384 528.11,-2394.83"/>
<polygon fill="none" stroke="#3ec0e8" points="532.11,-2391.12 532.11,-2420.88 383.41,-2432 183.42,-2432 34.73,-2420.88 34.73,-2391.12 183.42,-2380 383.41,-2380 532.11,-2391.12"/>
<text text-anchor="middle" x="283.42" y="-2402.3" font-family="Roboto" font-size="14.00" fill="#000000">google&#45;play&#45;music&#45;desktop&#45;player&#45;4.7.1 (165.68 MiB)</text>
</g>
<!-- N20 -->
<g id="node21" class="node">
<title>N20</title>
<polygon fill="#3ec8e8" stroke="#3ec8e8" points="451.68,-2468.54 451.68,-2483.46 353.11,-2494 213.72,-2494 115.15,-2483.46 115.15,-2468.54 213.72,-2458 353.11,-2458 451.68,-2468.54"/>
<polygon fill="none" stroke="#3ec8e8" points="455.68,-2464.95 455.68,-2487.05 353.33,-2498 213.51,-2498 111.15,-2487.05 111.15,-2464.95 213.51,-2454 353.33,-2454 455.68,-2464.95"/>
<polygon fill="none" stroke="#3ec8e8" points="459.69,-2461.35 459.69,-2490.65 353.54,-2502 213.29,-2502 107.15,-2490.65 107.15,-2461.35 213.29,-2450 353.54,-2450 459.69,-2461.35"/>
<text text-anchor="middle" x="283.42" y="-2472.3" font-family="Roboto" font-size="14.00" fill="#000000">firefox&#45;unwrapped&#45;79.0 (185.12 MiB)</text>
</g>
<!-- N19 -->
<g id="node22" class="node">
<title>N19</title>
<polygon fill="#3ce7ec" stroke="#3ce7ec" points="463.6,-2608.54 463.6,-2623.46 358.05,-2634 208.78,-2634 103.23,-2623.46 103.23,-2608.54 208.78,-2598 358.05,-2598 463.6,-2608.54"/>
<polygon fill="none" stroke="#3ce7ec" points="467.6,-2604.92 467.6,-2627.08 358.25,-2638 208.58,-2638 99.23,-2627.08 99.23,-2604.92 208.58,-2594 358.25,-2594 467.6,-2604.92"/>
<polygon fill="none" stroke="#3ce7ec" points="471.61,-2601.3 471.61,-2630.7 358.45,-2642 208.38,-2642 95.23,-2630.7 95.23,-2601.3 208.38,-2590 358.45,-2590 471.61,-2601.3"/>
<text text-anchor="middle" x="283.42" y="-2612.3" font-family="Roboto" font-size="14.00" fill="#000000">qemu&#45;host&#45;cpu&#45;only&#45;5.1.0 (267.69 MiB)</text>
</g>
<!-- N52 -->
<g id="node23" class="node">
<title>N52</title>
<polygon fill="#406ae1" stroke="#406ae1" points="438.86,-718.54 438.86,-733.46 347.81,-744 219.03,-744 127.97,-733.46 127.97,-718.54 219.03,-708 347.81,-708 438.86,-718.54"/>
<polygon fill="none" stroke="#406ae1" points="442.86,-714.98 442.86,-737.02 348.04,-748 218.8,-748 123.97,-737.02 123.97,-714.98 218.8,-704 348.04,-704 442.86,-714.98"/>
<polygon fill="none" stroke="#406ae1" points="446.86,-711.42 446.86,-740.58 348.27,-752 218.57,-752 119.97,-740.58 119.97,-711.42 218.57,-700 348.27,-700 446.86,-711.42"/>
<text text-anchor="middle" x="283.42" y="-722.3" font-family="Roboto" font-size="14.00" fill="#ffffff">nvidia&#45;settings&#45;450.57 (1.57 MiB)</text>
</g>
<!-- N51 -->
<g id="node24" class="node">
<title>N51</title>
<polygon fill="#4089e3" stroke="#4089e3" points="468.45,-648.54 468.45,-663.46 360.06,-674 206.77,-674 98.38,-663.46 98.38,-648.54 206.77,-638 360.06,-638 468.45,-648.54"/>
<polygon fill="none" stroke="#4089e3" points="472.45,-644.91 472.45,-667.09 360.26,-678 206.58,-678 94.38,-667.09 94.38,-644.91 206.58,-634 360.26,-634 472.45,-644.91"/>
<polygon fill="none" stroke="#4089e3" points="476.45,-641.28 476.45,-670.72 360.45,-682 206.39,-682 90.38,-670.72 90.38,-641.28 206.39,-630 360.45,-630 476.45,-641.28"/>
<text text-anchor="middle" x="283.42" y="-652.3" font-family="Roboto" font-size="14.00" fill="#ffffff">nvidia&#45;x11&#45;450.57&#45;5.4.58&#45;bin (50.73 MiB)</text>
</g>
<!-- N52&#45;&gt;N51 -->
<g id="edge18" class="edge">
<title>N52&#45;&gt;N51</title>
<path fill="none" stroke="black" d="M283.42,-699.68C283.42,-697.23 283.42,-694.78 283.42,-692.33"/>
<polygon fill="black" stroke="black" points="286.92,-692.25 283.42,-682.25 279.92,-692.25 286.92,-692.25"/>
</g>
<!-- N51&#45;&gt;N39 -->
<g id="edge19" class="edge">
<title>N51&#45;&gt;N39</title>
<path fill="none" stroke="black" d="M432.33,-675.03C465.22,-679.78 499.86,-685.2 532.01,-691 555.74,-695.28 581.31,-700.6 604.87,-705.78"/>
<polygon fill="black" stroke="black" points="604.3,-709.24 614.82,-707.99 605.82,-702.41 604.3,-709.24"/>
</g>
<!-- N18 -->
<g id="node25" class="node">
<title>N18</title>
<polygon fill="#3ec3e8" stroke="#3ec3e8" points="395.14,-2678.54 395.14,-2693.46 329.69,-2704 237.14,-2704 171.7,-2693.46 171.7,-2678.54 237.14,-2668 329.69,-2668 395.14,-2678.54"/>
<polygon fill="none" stroke="#3ec3e8" points="399.13,-2675.14 399.13,-2696.86 330.01,-2708 236.82,-2708 167.7,-2696.86 167.7,-2675.14 236.82,-2664 330.01,-2664 399.13,-2675.14"/>
<polygon fill="none" stroke="#3ec3e8" points="403.13,-2671.73 403.13,-2700.27 330.33,-2712 236.5,-2712 163.71,-2700.27 163.71,-2671.73 236.5,-2660 330.33,-2660 403.13,-2671.73"/>
<text text-anchor="middle" x="283.42" y="-2682.3" font-family="Roboto" font-size="14.00" fill="#000000">X11&#45;fonts (173.71 MiB)</text>
</g>
<!-- N53 -->
<g id="node26" class="node">
<title>N53</title>
<polygon fill="#4073e1" stroke="#4073e1" points="393.39,-1698.54 393.39,-1713.46 328.97,-1724 237.87,-1724 173.44,-1713.46 173.44,-1698.54 237.87,-1688 328.97,-1688 393.39,-1698.54"/>
<polygon fill="none" stroke="#4073e1" points="397.4,-1695.15 397.4,-1716.85 329.3,-1728 237.54,-1728 169.44,-1716.85 169.44,-1695.15 237.54,-1684 329.3,-1684 397.4,-1695.15"/>
<polygon fill="none" stroke="#4073e1" points="401.41,-1691.75 401.41,-1720.25 329.62,-1732 237.21,-1732 165.43,-1720.25 165.43,-1691.75 237.21,-1680 329.62,-1680 401.41,-1691.75"/>
<text text-anchor="middle" x="283.42" y="-1702.3" font-family="Roboto" font-size="14.00" fill="#ffffff">piper&#45;0.5.1 (14.15 MiB)</text>
</g>
<!-- N53&#45;&gt;N38 -->
<g id="edge20" class="edge">
<title>N53&#45;&gt;N38</title>
<path fill="none" stroke="black" d="M400.28,-1720.52C441.93,-1726.23 489.18,-1733.27 532.01,-1741 555.74,-1745.28 581.31,-1750.6 604.87,-1755.78"/>
<polygon fill="black" stroke="black" points="604.3,-1759.24 614.82,-1757.99 605.82,-1752.41 604.3,-1759.24"/>
</g>
<!-- N17 -->
<g id="node27" class="node">
<title>N17</title>
<polygon fill="#3ecae9" stroke="#3ecae9" points="409.27,-1628.54 409.27,-1643.46 335.55,-1654 231.29,-1654 157.56,-1643.46 157.56,-1628.54 231.29,-1618 335.55,-1618 409.27,-1628.54"/>
<polygon fill="none" stroke="#3ecae9" points="413.27,-1625.08 413.27,-1646.92 335.83,-1658 231,-1658 153.57,-1646.92 153.57,-1625.08 231,-1614 335.83,-1614 413.27,-1625.08"/>
<polygon fill="none" stroke="#3ecae9" points="417.27,-1621.61 417.27,-1650.39 336.12,-1662 230.72,-1662 149.57,-1650.39 149.57,-1621.61 230.72,-1610 336.12,-1610 417.27,-1621.61"/>
<text text-anchor="middle" x="283.42" y="-1632.3" font-family="Roboto" font-size="14.00" fill="#000000">gimp&#45;2.10.20 (190.48 MiB)</text>
</g>
<!-- N17&#45;&gt;N42 -->
<g id="edge22" class="edge">
<title>N17&#45;&gt;N42</title>
<path fill="none" stroke="black" d="M417.56,-1628.13C455.4,-1622.99 496.08,-1614.61 532.01,-1601 581.78,-1582.15 631.79,-1545.53 662.08,-1520.91"/>
<polygon fill="black" stroke="black" points="664.6,-1523.37 670.09,-1514.31 660.14,-1517.97 664.6,-1523.37"/>
</g>
<!-- N17&#45;&gt;N38 -->
<g id="edge21" class="edge">
<title>N17&#45;&gt;N38</title>
<path fill="none" stroke="black" d="M417.56,-1643.87C455.4,-1649.01 496.08,-1657.39 532.01,-1671 581.78,-1689.85 631.79,-1726.47 662.08,-1751.09"/>
<polygon fill="black" stroke="black" points="660.14,-1754.03 670.09,-1757.69 664.6,-1748.63 660.14,-1754.03"/>
</g>
<!-- N16 -->
<g id="node28" class="node">
<title>N16</title>
<polygon fill="#fe0000" stroke="#fe0000" points="465.82,-1068.54 465.82,-1083.46 358.97,-1094 207.86,-1094 101.02,-1083.46 101.02,-1068.54 207.86,-1058 358.97,-1058 465.82,-1068.54"/>
<polygon fill="none" stroke="#fe0000" points="469.82,-1064.92 469.82,-1087.08 359.17,-1098 207.67,-1098 97.01,-1087.08 97.01,-1064.92 207.67,-1054 359.17,-1054 469.82,-1064.92"/>
<polygon fill="none" stroke="#fe0000" points="473.83,-1061.3 473.83,-1090.7 359.37,-1102 207.47,-1102 93.01,-1090.7 93.01,-1061.3 207.47,-1050 359.37,-1050 473.83,-1061.3"/>
<text text-anchor="middle" x="283.42" y="-1072.3" font-family="Roboto" font-size="14.00" fill="#000000">xmonad&#45;with&#45;packages&#45;8.8.4 (2.17 GiB)</text>
</g>
<!-- N16&#45;&gt;N40 -->
<g id="edge23" class="edge">
<title>N16&#45;&gt;N40</title>
<path fill="none" stroke="black" d="M431.67,-1094.93C464.76,-1099.71 499.65,-1105.16 532.01,-1111 555.74,-1115.28 581.31,-1120.6 604.87,-1125.78"/>
<polygon fill="black" stroke="black" points="604.3,-1129.24 614.82,-1127.99 605.82,-1122.41 604.3,-1129.24"/>
</g>
<!-- N15 -->
<g id="node29" class="node">
<title>N15</title>
<polygon fill="#3ec1e8" stroke="#3ec1e8" points="426.94,-998.54 426.94,-1013.46 342.87,-1024 223.97,-1024 139.89,-1013.46 139.89,-998.54 223.97,-988 342.87,-988 426.94,-998.54"/>
<polygon fill="none" stroke="#3ec1e8" points="430.94,-995.01 430.94,-1016.99 343.12,-1028 223.72,-1028 135.89,-1016.99 135.89,-995.01 223.72,-984 343.12,-984 430.94,-995.01"/>
<polygon fill="none" stroke="#3ec1e8" points="434.94,-991.48 434.94,-1020.52 343.37,-1032 223.47,-1032 131.89,-1020.52 131.89,-991.48 223.47,-980 343.37,-980 434.94,-991.48"/>
<text text-anchor="middle" x="283.42" y="-1002.3" font-family="Roboto" font-size="14.00" fill="#000000">upwork&#45;5.3.3.862 (168.29 MiB)</text>
</g>
<!-- N15&#45;&gt;N40 -->
<g id="edge24" class="edge">
<title>N15&#45;&gt;N40</title>
<path fill="none" stroke="black" d="M435.05,-1016.45C467.7,-1021.69 501.56,-1029.47 532.01,-1041 581.78,-1059.85 631.79,-1096.47 662.08,-1121.09"/>
<polygon fill="black" stroke="black" points="660.14,-1124.03 670.09,-1127.69 664.6,-1118.63 660.14,-1124.03"/>
</g>
<!-- N14 -->
<g id="node30" class="node">
<title>N14</title>
<polygon fill="#3ce8ec" stroke="#3ce8ec" points="493.61,-2748.54 493.61,-2763.46 370.48,-2774 196.35,-2774 73.22,-2763.46 73.22,-2748.54 196.35,-2738 370.48,-2738 493.61,-2748.54"/>
<polygon fill="none" stroke="#3ce8ec" points="497.61,-2744.87 497.61,-2767.13 370.65,-2778 196.18,-2778 69.23,-2767.13 69.23,-2744.87 196.18,-2734 370.65,-2734 497.61,-2744.87"/>
<polygon fill="none" stroke="#3ce8ec" points="501.61,-2741.2 501.61,-2770.8 370.82,-2782 196.01,-2782 65.23,-2770.8 65.23,-2741.2 196.01,-2730 370.82,-2730 501.61,-2741.2"/>
<text text-anchor="middle" x="283.42" y="-2752.3" font-family="Roboto" font-size="14.00" fill="#000000">spotify&#45;1.1.26.501.gbe11e53b&#45;15 (272.57 MiB)</text>
</g>
<!-- N13 -->
<g id="node31" class="node">
<title>N13</title>
<polygon fill="#35f874" stroke="#35f874" points="415.45,-2818.54 415.45,-2833.46 338.11,-2844 228.73,-2844 151.39,-2833.46 151.39,-2818.54 228.73,-2808 338.11,-2808 415.45,-2818.54"/>
<polygon fill="none" stroke="#35f874" points="419.44,-2815.05 419.44,-2836.95 338.38,-2848 228.46,-2848 147.4,-2836.95 147.4,-2815.05 228.46,-2804 338.38,-2804 419.44,-2815.05"/>
<polygon fill="none" stroke="#35f874" points="423.43,-2811.56 423.43,-2840.44 338.65,-2852 228.19,-2852 143.4,-2840.44 143.4,-2811.56 228.19,-2800 338.65,-2800 423.43,-2811.56"/>
<text text-anchor="middle" x="283.42" y="-2822.3" font-family="Roboto" font-size="14.00" fill="#000000">arduino&#45;1.8.12 (559.84 MiB)</text>
</g>
<!-- N54 -->
<g id="node32" class="node">
<title>N54</title>
<polygon fill="#408ae3" stroke="#408ae3" points="403.53,-1278.54 403.53,-1293.46 333.17,-1304 233.67,-1304 163.31,-1293.46 163.31,-1278.54 233.67,-1268 333.17,-1268 403.53,-1278.54"/>
<polygon fill="none" stroke="#408ae3" points="407.52,-1275.1 407.52,-1296.9 333.47,-1308 233.37,-1308 159.32,-1296.9 159.32,-1275.1 233.37,-1264 333.47,-1264 407.52,-1275.1"/>
<polygon fill="none" stroke="#408ae3" points="411.51,-1271.65 411.51,-1300.35 333.76,-1312 233.07,-1312 155.32,-1300.35 155.32,-1271.65 233.07,-1260 333.76,-1260 411.51,-1271.65"/>
<text text-anchor="middle" x="283.42" y="-1282.3" font-family="Roboto" font-size="14.00" fill="#ffffff">neovim&#45;0.4.4 (51.80 MiB)</text>
</g>
<!-- N54&#45;&gt;N40 -->
<g id="edge25" class="edge">
<title>N54&#45;&gt;N40</title>
<path fill="none" stroke="black" d="M411.81,-1278.89C451.26,-1273.83 494.26,-1265.3 532.01,-1251 581.78,-1232.15 631.79,-1195.53 662.08,-1170.91"/>
<polygon fill="black" stroke="black" points="664.6,-1173.37 670.09,-1164.31 660.14,-1167.97 664.6,-1173.37"/>
</g>
<!-- N12 -->
<g id="node33" class="node">
<title>N12</title>
<polygon fill="#3ecae9" stroke="#3ecae9" points="412.38,-2958.54 412.38,-2973.46 336.84,-2984 230,-2984 154.45,-2973.46 154.45,-2958.54 230,-2948 336.84,-2948 412.38,-2958.54"/>
<polygon fill="none" stroke="#3ecae9" points="416.39,-2955.06 416.39,-2976.94 337.12,-2988 229.72,-2988 150.45,-2976.94 150.45,-2955.06 229.72,-2944 337.12,-2944 416.39,-2955.06"/>
<polygon fill="none" stroke="#3ecae9" points="420.4,-2951.58 420.4,-2980.42 337.39,-2992 229.44,-2992 146.44,-2980.42 146.44,-2951.58 229.44,-2940 337.39,-2940 420.4,-2951.58"/>
<text text-anchor="middle" x="283.42" y="-2962.3" font-family="Roboto" font-size="14.00" fill="#000000">fritzing&#45;0.9.3b (190.99 MiB)</text>
</g>
<!-- N37 -->
<g id="node58" class="node">
<title>N37</title>
<polygon fill="#3fb4e6" stroke="#3fb4e6" points="781.01,-2949 603.01,-2949 603.01,-2913 781.01,-2913 781.01,-2949"/>
<text text-anchor="middle" x="692.01" y="-2927.3" font-family="Roboto" font-size="14.00" fill="#ffffff">bash&#45;4.4&#45;p23 (136.98 MiB)</text>
</g>
<!-- N12&#45;&gt;N37 -->
<g id="edge26" class="edge">
<title>N12&#45;&gt;N37</title>
<path fill="none" stroke="black" d="M420.37,-2954.3C476.75,-2949.44 540.92,-2943.92 592.62,-2939.47"/>
<polygon fill="black" stroke="black" points="593.13,-2942.94 602.79,-2938.59 592.53,-2935.96 593.13,-2942.94"/>
</g>
<!-- N55 -->
<g id="node34" class="node">
<title>N55</title>
<polygon fill="#406be1" stroke="#406be1" points="390.28,-2538.54 390.28,-2553.46 327.68,-2564 239.15,-2564 176.55,-2553.46 176.55,-2538.54 239.15,-2528 327.68,-2528 390.28,-2538.54"/>
<polygon fill="none" stroke="#406be1" points="394.28,-2535.16 394.28,-2556.84 328.02,-2568 238.82,-2568 172.55,-2556.84 172.55,-2535.16 238.82,-2524 328.02,-2524 394.28,-2535.16"/>
<polygon fill="none" stroke="#406be1" points="398.28,-2531.78 398.28,-2560.22 328.35,-2572 238.48,-2572 168.56,-2560.22 168.56,-2531.78 238.48,-2520 328.35,-2520 398.28,-2531.78"/>
<text text-anchor="middle" x="283.42" y="-2542.3" font-family="Roboto" font-size="14.00" fill="#ffffff">firefox&#45;79.0 (3.60 MiB)</text>
</g>
<!-- N55&#45;&gt;N20 -->
<g id="edge27" class="edge">
<title>N55&#45;&gt;N20</title>
<path fill="none" stroke="black" d="M283.42,-2519.68C283.42,-2517.23 283.42,-2514.78 283.42,-2512.33"/>
<polygon fill="black" stroke="black" points="286.92,-2512.25 283.42,-2502.25 279.92,-2512.25 286.92,-2512.25"/>
</g>
<!-- N56 -->
<g id="node35" class="node">
<title>N56</title>
<polygon fill="#4074e1" stroke="#4074e1" points="411.49,-1978.54 411.49,-1993.46 336.47,-2004 230.37,-2004 155.35,-1993.46 155.35,-1978.54 230.37,-1968 336.47,-1968 411.49,-1978.54"/>
<polygon fill="none" stroke="#4074e1" points="415.49,-1975.07 415.49,-1996.93 336.75,-2008 230.09,-2008 151.35,-1996.93 151.35,-1975.07 230.09,-1964 336.75,-1964 415.49,-1975.07"/>
<polygon fill="none" stroke="#4074e1" points="419.49,-1971.59 419.49,-2000.41 337.03,-2012 229.81,-2012 147.35,-2000.41 147.35,-1971.59 229.81,-1960 337.03,-1960 419.49,-1971.59"/>
<text text-anchor="middle" x="283.42" y="-1982.3" font-family="Roboto" font-size="14.00" fill="#ffffff">tigervnc&#45;1.10.1 (16.79 MiB)</text>
</g>
<!-- N56&#45;&gt;N38 -->
<g id="edge28" class="edge">
<title>N56&#45;&gt;N38</title>
<path fill="none" stroke="black" d="M419.77,-1983.78C457.76,-1978.76 497.96,-1969.03 532.01,-1951 597.98,-1916.08 650.45,-1842.48 675.32,-1802.76"/>
<polygon fill="black" stroke="black" points="678.37,-1804.48 680.62,-1794.13 672.41,-1800.82 678.37,-1804.48"/>
</g>
<!-- N57 -->
<g id="node36" class="node">
<title>N57</title>
<polygon fill="#406ae1" stroke="#406ae1" points="394.71,-3098.54 394.71,-3113.46 329.52,-3124 237.32,-3124 172.12,-3113.46 172.12,-3098.54 237.32,-3088 329.52,-3088 394.71,-3098.54"/>
<polygon fill="none" stroke="#406ae1" points="398.72,-3095.14 398.72,-3116.86 329.84,-3128 237,-3128 168.12,-3116.86 168.12,-3095.14 237,-3084 329.84,-3084 398.72,-3095.14"/>
<polygon fill="none" stroke="#406ae1" points="402.72,-3091.74 402.72,-3120.26 330.16,-3132 236.67,-3132 164.11,-3120.26 164.11,-3091.74 236.67,-3080 330.16,-3080 402.72,-3091.74"/>
<text text-anchor="middle" x="283.42" y="-3102.3" font-family="Roboto" font-size="14.00" fill="#ffffff">zeal&#45;0.6.999 (1.70 MiB)</text>
</g>
<!-- N36 -->
<g id="node59" class="node">
<title>N36</title>
<polygon fill="#3ec3e8" stroke="#3ec3e8" points="805.51,-3089 578.51,-3089 578.51,-3053 805.51,-3053 805.51,-3089"/>
<text text-anchor="middle" x="692.01" y="-3067.3" font-family="Roboto" font-size="14.00" fill="#000000">qtlocation&#45;5.14.2&#45;bin (172.80 MiB)</text>
</g>
<!-- N57&#45;&gt;N36 -->
<g id="edge29" class="edge">
<title>N57&#45;&gt;N36</title>
<path fill="none" stroke="black" d="M402.84,-3095.81C454.82,-3091.33 515.82,-3086.08 568.28,-3081.57"/>
<polygon fill="black" stroke="black" points="568.64,-3085.05 578.31,-3080.7 568.04,-3078.07 568.64,-3085.05"/>
</g>
<!-- N58 -->
<g id="node37" class="node">
<title>N58</title>
<polygon fill="#3eb9e7" stroke="#3eb9e7" points="404.42,-3238.54 404.42,-3253.46 333.54,-3264 233.3,-3264 162.42,-3253.46 162.42,-3238.54 233.3,-3228 333.54,-3228 404.42,-3238.54"/>
<polygon fill="none" stroke="#3eb9e7" points="408.42,-3235.1 408.42,-3256.9 333.83,-3268 233,-3268 158.42,-3256.9 158.42,-3235.1 233,-3224 333.83,-3224 408.42,-3235.1"/>
<polygon fill="none" stroke="#3eb9e7" points="412.42,-3231.65 412.42,-3260.35 334.13,-3272 232.71,-3272 154.42,-3260.35 154.42,-3231.65 232.71,-3220 334.13,-3220 412.42,-3231.65"/>
<text text-anchor="middle" x="283.42" y="-3242.3" font-family="Roboto" font-size="14.00" fill="#000000">hunter&#45;1.3.5 (149.40 MiB)</text>
</g>
<!-- N33 -->
<g id="node60" class="node">
<title>N33</title>
<polygon fill="#3fa2e5" stroke="#3fa2e5" points="777.01,-3229 607.01,-3229 607.01,-3193 777.01,-3193 777.01,-3229"/>
<text text-anchor="middle" x="692.01" y="-3207.3" font-family="Roboto" font-size="14.00" fill="#ffffff">opencv&#45;4.3.0 (98.60 MiB)</text>
</g>
<!-- N58&#45;&gt;N33 -->
<g id="edge30" class="edge">
<title>N58&#45;&gt;N33</title>
<path fill="none" stroke="black" d="M412.51,-3234.97C472.22,-3229.83 542.02,-3223.83 596.8,-3219.11"/>
<polygon fill="black" stroke="black" points="597.18,-3222.59 606.84,-3218.25 596.58,-3215.62 597.18,-3222.59"/>
</g>
<!-- N11 -->
<g id="node38" class="node">
<title>N11</title>
<polygon fill="#7efc31" stroke="#7efc31" points="448.57,-2888.54 448.57,-2903.46 351.83,-2914 215.01,-2914 118.27,-2903.46 118.27,-2888.54 215.01,-2878 351.83,-2878 448.57,-2888.54"/>
<polygon fill="none" stroke="#7efc31" points="452.56,-2884.96 452.56,-2907.04 352.04,-2918 214.79,-2918 114.27,-2907.04 114.27,-2884.96 214.79,-2874 352.04,-2874 452.56,-2884.96"/>
<polygon fill="none" stroke="#7efc31" points="456.56,-2881.37 456.56,-2910.63 352.26,-2922 214.58,-2922 110.28,-2910.63 110.28,-2881.37 214.58,-2870 352.26,-2870 456.56,-2881.37"/>
<text text-anchor="middle" x="283.42" y="-2892.3" font-family="Roboto" font-size="14.00" fill="#000000">kodi&#45;with&#45;plugins&#45;18.5 (672.27 MiB)</text>
</g>
<!-- N11&#45;&gt;N37 -->
<g id="edge31" class="edge">
<title>N11&#45;&gt;N37</title>
<path fill="none" stroke="black" d="M455.67,-2910.74C502.49,-2914.77 551.63,-2919 592.83,-2922.55"/>
<polygon fill="black" stroke="black" points="592.59,-2926.04 602.85,-2923.41 593.19,-2919.07 592.59,-2926.04"/>
</g>
<!-- N10 -->
<g id="node39" class="node">
<title>N10</title>
<polygon fill="#3dddeb" stroke="#3dddeb" points="482.59,-3308.54 482.59,-3323.46 365.92,-3334 200.92,-3334 84.24,-3323.46 84.24,-3308.54 200.92,-3298 365.92,-3298 482.59,-3308.54"/>
<polygon fill="none" stroke="#3dddeb" points="486.59,-3304.89 486.59,-3327.11 366.1,-3338 200.74,-3338 80.24,-3327.11 80.24,-3304.89 200.74,-3294 366.1,-3294 486.59,-3304.89"/>
<polygon fill="none" stroke="#3dddeb" points="490.59,-3301.23 490.59,-3330.77 366.28,-3342 200.56,-3342 76.24,-3330.77 76.24,-3301.23 200.56,-3290 366.28,-3290 490.59,-3301.23"/>
<text text-anchor="middle" x="283.42" y="-3312.3" font-family="Roboto" font-size="14.00" fill="#000000">google&#45;chrome&#45;84.0.4147.125 (241.29 MiB)</text>
</g>
<!-- N9 -->
<g id="node40" class="node">
<title>N9</title>
<polygon fill="#3face6" stroke="#3face6" points="411.49,-3028.54 411.49,-3043.46 336.47,-3054 230.37,-3054 155.35,-3043.46 155.35,-3028.54 230.37,-3018 336.47,-3018 411.49,-3028.54"/>
<polygon fill="none" stroke="#3face6" points="415.49,-3025.07 415.49,-3046.93 336.75,-3058 230.09,-3058 151.35,-3046.93 151.35,-3025.07 230.09,-3014 336.75,-3014 415.49,-3025.07"/>
<polygon fill="none" stroke="#3face6" points="419.49,-3021.59 419.49,-3050.41 337.03,-3062 229.81,-3062 147.35,-3050.41 147.35,-3021.59 229.81,-3010 337.03,-3010 419.49,-3021.59"/>
<text text-anchor="middle" x="283.42" y="-3032.3" font-family="Roboto" font-size="14.00" fill="#ffffff">calibre&#45;4.22.0 (119.88 MiB)</text>
</g>
<!-- N9&#45;&gt;N36 -->
<g id="edge32" class="edge">
<title>N9&#45;&gt;N36</title>
<path fill="none" stroke="black" d="M419.53,-3047.63C467.54,-3051.76 521.28,-3056.39 568.21,-3060.43"/>
<polygon fill="black" stroke="black" points="568.16,-3063.94 578.42,-3061.31 568.76,-3056.96 568.16,-3063.94"/>
</g>
<!-- N7 -->
<g id="node42" class="node">
<title>N7</title>
<polygon fill="#e8fe21" stroke="#e8fe21" points="411.49,-928.54 411.49,-943.46 336.47,-954 230.37,-954 155.35,-943.46 155.35,-928.54 230.37,-918 336.47,-918 411.49,-928.54"/>
<polygon fill="none" stroke="#e8fe21" points="415.49,-925.07 415.49,-946.93 336.75,-958 230.09,-958 151.35,-946.93 151.35,-925.07 230.09,-914 336.75,-914 415.49,-925.07"/>
<polygon fill="none" stroke="#e8fe21" points="419.49,-921.59 419.49,-950.41 337.03,-962 229.81,-962 147.35,-950.41 147.35,-921.59 229.81,-910 337.03,-910 419.49,-921.59"/>
<text text-anchor="middle" x="283.42" y="-932.3" font-family="Roboto" font-size="14.00" fill="#000000">bookworm&#45;1.1.2 (1.04 GiB)</text>
</g>
<!-- N7&#45;&gt;N40 -->
<g id="edge34" class="edge">
<title>N7&#45;&gt;N40</title>
<path fill="none" stroke="black" d="M419.77,-938.22C457.76,-943.24 497.96,-952.97 532.01,-971 597.98,-1005.92 650.45,-1079.52 675.32,-1119.24"/>
<polygon fill="black" stroke="black" points="672.41,-1121.18 680.62,-1127.87 678.37,-1117.52 672.41,-1121.18"/>
</g>
<!-- N32 -->
<g id="node61" class="node">
<title>N32</title>
<polygon fill="#3fa4e5" stroke="#3fa4e5" points="792.01,-919 592.01,-919 592.01,-883 792.01,-883 792.01,-919"/>
<text text-anchor="middle" x="692.01" y="-897.3" font-family="Roboto" font-size="14.00" fill="#ffffff">webkitgtk&#45;2.28.4 (102.34 MiB)</text>
</g>
<!-- N7&#45;&gt;N32 -->
<g id="edge33" class="edge">
<title>N7&#45;&gt;N32</title>
<path fill="none" stroke="black" d="M419.53,-924.37C472.17,-919.84 531.71,-914.71 581.59,-910.42"/>
<polygon fill="black" stroke="black" points="582.1,-913.89 591.76,-909.54 581.5,-906.91 582.1,-913.89"/>
</g>
<!-- N6 -->
<g id="node43" class="node">
<title>N6</title>
<polygon fill="#fe9a00" stroke="#fe9a00" points="377.47,-508.54 377.47,-523.46 322.38,-534 244.46,-534 189.36,-523.46 189.36,-508.54 244.46,-498 322.38,-498 377.47,-508.54"/>
<polygon fill="none" stroke="#fe9a00" points="381.46,-505.24 381.46,-526.76 322.75,-538 244.08,-538 185.37,-526.76 185.37,-505.24 244.08,-494 322.75,-494 381.46,-505.24"/>
<polygon fill="none" stroke="#fe9a00" points="385.45,-501.93 385.45,-530.07 323.13,-542 243.7,-542 181.38,-530.07 181.38,-501.93 243.7,-490 323.13,-490 385.45,-501.93"/>
<text text-anchor="middle" x="283.42" y="-512.3" font-family="Roboto" font-size="14.00" fill="#000000">wine&#45;5.0 (1.82 GiB)</text>
</g>
<!-- N6&#45;&gt;N34 -->
<g id="edge35" class="edge">
<title>N6&#45;&gt;N34</title>
<path fill="none" stroke="black" d="M385.7,-502.33C430.57,-496.11 483.97,-488.47 532.01,-481 546.65,-478.72 562.03,-476.23 577.22,-473.72"/>
<polygon fill="black" stroke="black" points="577.87,-477.16 587.16,-472.06 576.72,-470.25 577.87,-477.16"/>
</g>
<!-- N6&#45;&gt;N35 -->
<g id="edge36" class="edge">
<title>N6&#45;&gt;N35</title>
<path fill="none" stroke="black" d="M385.71,-524.72C451.35,-530.37 536.13,-537.67 599.7,-543.14"/>
<polygon fill="black" stroke="black" points="599.44,-546.63 609.71,-544 600.05,-539.66 599.44,-546.63"/>
</g>
<!-- N5 -->
<g id="node44" class="node">
<title>N5</title>
<polygon fill="#3ecce9" stroke="#3ecce9" points="474.62,-368.54 474.62,-383.46 362.62,-394 204.22,-394 92.21,-383.46 92.21,-368.54 204.22,-358 362.62,-358 474.62,-368.54"/>
<polygon fill="none" stroke="#3ecce9" points="478.62,-364.9 478.62,-387.1 362.81,-398 204.03,-398 88.21,-387.1 88.21,-364.9 204.03,-354 362.81,-354 478.62,-364.9"/>
<polygon fill="none" stroke="#3ecce9" points="482.62,-361.26 482.62,-390.74 362.99,-402 203.84,-402 84.22,-390.74 84.22,-361.26 203.84,-350 362.99,-350 482.62,-361.26"/>
<text text-anchor="middle" x="283.42" y="-372.3" font-family="Roboto" font-size="14.00" fill="#000000">tor&#45;browser&#45;bundle&#45;bin&#45;9.5.3 (196.12 MiB)</text>
</g>
<!-- N5&#45;&gt;N8 -->
<g id="edge37" class="edge">
<title>N5&#45;&gt;N8</title>
<path fill="none" stroke="black" d="M283.42,-349.68C283.42,-347.23 283.42,-344.78 283.42,-342.33"/>
<polygon fill="black" stroke="black" points="286.92,-342.25 283.42,-332.25 279.92,-342.25 286.92,-342.25"/>
</g>
<!-- N4 -->
<g id="node45" class="node">
<title>N4</title>
<polygon fill="#3ec0e8" stroke="#3ec0e8" points="412.81,-3378.54 412.81,-3393.46 337.01,-3404 229.82,-3404 154.03,-3393.46 154.03,-3378.54 229.82,-3368 337.01,-3368 412.81,-3378.54"/>
<polygon fill="none" stroke="#3ec0e8" points="416.8,-3375.06 416.8,-3396.94 337.29,-3408 229.55,-3408 150.03,-3396.94 150.03,-3375.06 229.55,-3364 337.29,-3364 416.8,-3375.06"/>
<polygon fill="none" stroke="#3ec0e8" points="420.8,-3371.58 420.8,-3400.42 337.57,-3412 229.27,-3412 146.03,-3400.42 146.03,-3371.58 229.27,-3360 337.57,-3360 420.8,-3371.58"/>
<text text-anchor="middle" x="283.42" y="-3382.3" font-family="Roboto" font-size="14.00" fill="#000000">gzdoom&#45;4.4.2 (165.31 MiB)</text>
</g>
<!-- N3 -->
<g id="node46" class="node">
<title>N3</title>
<polygon fill="#3fb1e6" stroke="#3fb1e6" points="394.71,-3448.54 394.71,-3463.46 329.52,-3474 237.32,-3474 172.12,-3463.46 172.12,-3448.54 237.32,-3438 329.52,-3438 394.71,-3448.54"/>
<polygon fill="none" stroke="#3fb1e6" points="398.72,-3445.14 398.72,-3466.86 329.84,-3478 237,-3478 168.12,-3466.86 168.12,-3445.14 237,-3434 329.84,-3434 398.72,-3445.14"/>
<polygon fill="none" stroke="#3fb1e6" points="402.72,-3441.74 402.72,-3470.26 330.16,-3482 236.67,-3482 164.11,-3470.26 164.11,-3441.74 236.67,-3430 330.16,-3430 402.72,-3441.74"/>
<text text-anchor="middle" x="283.42" y="-3452.3" font-family="Roboto" font-size="14.00" fill="#ffffff">vlc&#45;3.0.11 (130.78 MiB)</text>
</g>
<!-- N2 -->
<g id="node47" class="node">
<title>N2</title>
<polygon fill="#3de2eb" stroke="#3de2eb" points="415.02,-1418.54 415.02,-1433.46 337.93,-1444 228.91,-1444 151.81,-1433.46 151.81,-1418.54 228.91,-1408 337.93,-1408 415.02,-1418.54"/>
<polygon fill="none" stroke="#3de2eb" points="419.02,-1415.05 419.02,-1436.95 338.2,-1448 228.63,-1448 147.81,-1436.95 147.81,-1415.05 228.63,-1404 338.2,-1404 419.02,-1415.05"/>
<polygon fill="none" stroke="#3de2eb" points="423.02,-1411.56 423.02,-1440.44 338.47,-1452 228.36,-1452 143.81,-1440.44 143.81,-1411.56 228.36,-1400 338.47,-1400 423.02,-1411.56"/>
<text text-anchor="middle" x="283.42" y="-1422.3" font-family="Roboto" font-size="14.00" fill="#000000">blender&#45;2.83.4 (255.53 MiB)</text>
</g>
<!-- N2&#45;&gt;N42 -->
<g id="edge38" class="edge">
<title>N2&#45;&gt;N42</title>
<path fill="none" stroke="black" d="M411.31,-1442.04C450.14,-1447.46 492.92,-1453.95 532.01,-1461 558.53,-1465.79 587.35,-1471.86 613.08,-1477.6"/>
<polygon fill="black" stroke="black" points="612.63,-1481.09 623.15,-1479.87 614.16,-1474.26 612.63,-1481.09"/>
</g>
<!-- N59 -->
<g id="node48" class="node">
<title>N59</title>
<polygon fill="#406fe1" stroke="#406fe1" points="422.51,-3168.54 422.51,-3183.46 341.03,-3194 225.8,-3194 144.32,-3183.46 144.32,-3168.54 225.8,-3158 341.03,-3158 422.51,-3168.54"/>
<polygon fill="none" stroke="#406fe1" points="426.51,-3165.03 426.51,-3186.97 341.29,-3198 225.55,-3198 140.33,-3186.97 140.33,-3165.03 225.55,-3154 341.29,-3154 426.51,-3165.03"/>
<polygon fill="none" stroke="#406fe1" points="430.5,-3161.51 430.5,-3190.49 341.55,-3202 225.29,-3202 136.33,-3190.49 136.33,-3161.51 225.29,-3150 341.55,-3150 430.5,-3161.51"/>
<text text-anchor="middle" x="283.42" y="-3172.3" font-family="Roboto" font-size="14.00" fill="#ffffff">nomacs&#45;3.17.2045 (8.77 MiB)</text>
</g>
<!-- N59&#45;&gt;N33 -->
<g id="edge39" class="edge">
<title>N59&#45;&gt;N33</title>
<path fill="none" stroke="black" d="M430.63,-3188.59C486.01,-3193.35 547.54,-3198.65 596.88,-3202.9"/>
<polygon fill="black" stroke="black" points="596.63,-3206.39 606.89,-3203.76 597.23,-3199.41 596.63,-3206.39"/>
</g>
<!-- N60 -->
<g id="node49" class="node">
<title>N60</title>
<polygon fill="#4084e2" stroke="#4084e2" points="399.99,-858.54 399.99,-873.46 331.7,-884 235.13,-884 166.84,-873.46 166.84,-858.54 235.13,-848 331.7,-848 399.99,-858.54"/>
<polygon fill="none" stroke="#4084e2" points="403.98,-855.11 403.98,-876.89 332.01,-888 234.83,-888 162.85,-876.89 162.85,-855.11 234.83,-844 332.01,-844 403.98,-855.11"/>
<polygon fill="none" stroke="#4084e2" points="407.98,-851.68 407.98,-880.32 332.32,-892 234.52,-892 158.86,-880.32 158.86,-851.68 234.52,-840 332.32,-840 407.98,-851.68"/>
<text text-anchor="middle" x="283.42" y="-862.3" font-family="Roboto" font-size="14.00" fill="#ffffff">astroid&#45;0.15 (41.11 MiB)</text>
</g>
<!-- N60&#45;&gt;N32 -->
<g id="edge40" class="edge">
<title>N60&#45;&gt;N32</title>
<path fill="none" stroke="black" d="M408.07,-876.64C463.38,-881.4 528.03,-886.97 581.57,-891.58"/>
<polygon fill="black" stroke="black" points="581.51,-895.09 591.77,-892.46 582.11,-888.11 581.51,-895.09"/>
</g>
</g>
</svg>
