<?xml version="1.0" encoding="UTF-8" standalone="no"?>
<!DOCTYPE svg PUBLIC "-//W3C//DTD SVG 1.1//EN"
 "http://www.w3.org/Graphics/SVG/1.1/DTD/svg11.dtd">
<!-- Generated by graphviz version 2.43.0 (0)
 -->
<!-- Title: nixstore Pages: 1 -->
<svg width="723pt" height="3280pt"
 viewBox="0.00 0.00 722.80 3280.00" xmlns="http://www.w3.org/2000/svg" xmlns:xlink="http://www.w3.org/1999/xlink">
<g id="graph0" class="graph" transform="scale(1 1) rotate(0) translate(4 3276)">
<title>nixstore</title>
<polygon fill="white" stroke="transparent" points="-4,4 -4,-3276 718.8,-3276 718.8,4 -4,4"/>
<!-- N54 -->
<g id="node1" class="node">
<title>N54</title>
<polygon fill="#fe0000" stroke="#fe0000" points="356.75,-18.54 356.75,-33.46 291.56,-44 199.36,-44 134.16,-33.46 134.16,-18.54 199.36,-8 291.56,-8 356.75,-18.54"/>
<polygon fill="none" stroke="#fe0000" points="360.76,-15.14 360.76,-36.86 291.88,-48 199.04,-48 130.16,-36.86 130.16,-15.14 199.04,-4 291.88,-4 360.76,-15.14"/>
<polygon fill="none" stroke="#fe0000" points="364.76,-11.74 364.76,-40.26 292.2,-52 198.71,-52 126.15,-40.26 126.15,-11.74 198.71,0 292.2,0 364.76,-11.74"/>
<text text-anchor="middle" x="245.46" y="-22.3" font-family="Times-Roman" font-size="14.00" fill="#000000">{filtered out} (2.26 GiB)</text>
</g>
<!-- N32 -->
<g id="node2" class="node">
<title>N32</title>
<polygon fill="#3dd3ea" stroke="#3dd3ea" points="436.66,-1768.54 436.66,-1783.46 324.66,-1794 166.26,-1794 54.25,-1783.46 54.25,-1768.54 166.26,-1758 324.66,-1758 436.66,-1768.54"/>
<polygon fill="none" stroke="#3dd3ea" points="440.66,-1764.9 440.66,-1787.1 324.84,-1798 166.07,-1798 50.25,-1787.1 50.25,-1764.9 166.07,-1754 324.84,-1754 440.66,-1764.9"/>
<polygon fill="none" stroke="#3dd3ea" points="444.66,-1761.26 444.66,-1790.74 325.03,-1802 165.88,-1802 46.26,-1790.74 46.26,-1761.26 165.88,-1750 325.03,-1750 444.66,-1761.26"/>
<text text-anchor="middle" x="245.46" y="-1772.3" font-family="Times-Roman" font-size="14.00" fill="#000000">tor&#45;browser&#45;bundle&#45;bin&#45;9.0.9 (223.43 MiB)</text>
</g>
<!-- N28 -->
<g id="node6" class="node">
<title>N28</title>
<polygon fill="#3ecee9" stroke="#3ecee9" points="392.52,-1628.54 392.52,-1643.46 306.37,-1654 184.54,-1654 98.4,-1643.46 98.4,-1628.54 184.54,-1618 306.37,-1618 392.52,-1628.54"/>
<polygon fill="none" stroke="#3ecee9" points="396.52,-1625 396.52,-1647 306.61,-1658 184.3,-1658 94.4,-1647 94.4,-1625 184.3,-1614 306.61,-1614 396.52,-1625"/>
<polygon fill="none" stroke="#3ecee9" points="400.52,-1621.46 400.52,-1650.54 306.86,-1662 184.06,-1662 90.4,-1650.54 90.4,-1621.46 184.06,-1610 306.86,-1610 400.52,-1621.46"/>
<text text-anchor="middle" x="245.46" y="-1632.3" font-family="Times-Roman" font-size="14.00" fill="#000000">glibc&#45;locales&#45;2.30 (209.50 MiB)</text>
</g>
<!-- N32&#45;&gt;N28 -->
<g id="edge1" class="edge">
<title>N32&#45;&gt;N28</title>
<path fill="none" stroke="black" d="M90.19,-1757.11C68.75,-1752.77 47.21,-1747.47 27.11,-1741 18.6,-1738.26 13.81,-1739.61 9.11,-1732 -3.04,-1712.34 -3.04,-1699.66 9.11,-1680 25.13,-1654.08 51.23,-1639.37 80.36,-1631.58"/>
<polygon fill="black" stroke="black" points="81.43,-1634.92 90.34,-1629.19 79.81,-1628.11 81.43,-1634.92"/>
</g>
<!-- N31 -->
<g id="node3" class="node">
<title>N31</title>
<polygon fill="#3af0d1" stroke="#3af0d1" points="355.43,-508.54 355.43,-523.46 291.01,-534 199.9,-534 135.48,-523.46 135.48,-508.54 199.9,-498 291.01,-498 355.43,-508.54"/>
<polygon fill="none" stroke="#3af0d1" points="359.44,-505.15 359.44,-526.85 291.34,-538 199.58,-538 131.48,-526.85 131.48,-505.15 199.58,-494 291.34,-494 359.44,-505.15"/>
<polygon fill="none" stroke="#3af0d1" points="363.45,-501.75 363.45,-530.25 291.66,-542 199.25,-542 127.47,-530.25 127.47,-501.75 199.25,-490 291.66,-490 363.45,-501.75"/>
<text text-anchor="middle" x="245.46" y="-512.3" font-family="Times-Roman" font-size="14.00" fill="#000000">go&#45;1.14.2 (392.12 MiB)</text>
</g>
<!-- N33 -->
<g id="node48" class="node">
<title>N33</title>
<polygon fill="#3fb5e6" stroke="#3fb5e6" points="684.8,-499 529.8,-499 529.8,-463 684.8,-463 684.8,-499"/>
<text text-anchor="middle" x="607.3" y="-477.3" font-family="Times-Roman" font-size="14.00" fill="#ffffff">gcc&#45;9.3.0 (144.20 MiB)</text>
</g>
<!-- N31&#45;&gt;N33 -->
<g id="edge2" class="edge">
<title>N31&#45;&gt;N33</title>
<path fill="none" stroke="black" d="M363.29,-504.64C414.14,-499.69 472.7,-493.99 519.59,-489.43"/>
<polygon fill="black" stroke="black" points="520.1,-492.9 529.72,-488.45 519.42,-485.93 520.1,-492.9"/>
</g>
<!-- N30 -->
<g id="node4" class="node">
<title>N30</title>
<polygon fill="#3beee2" stroke="#3beee2" points="365.14,-1838.54 365.14,-1853.46 295.03,-1864 195.88,-1864 125.78,-1853.46 125.78,-1838.54 195.88,-1828 295.03,-1828 365.14,-1838.54"/>
<polygon fill="none" stroke="#3beee2" points="369.14,-1835.1 369.14,-1856.9 295.33,-1868 195.58,-1868 121.77,-1856.9 121.77,-1835.1 195.58,-1824 295.33,-1824 369.14,-1835.1"/>
<polygon fill="none" stroke="#3beee2" points="373.14,-1831.66 373.14,-1860.34 295.63,-1872 195.28,-1872 117.77,-1860.34 117.77,-1831.66 195.28,-1820 295.63,-1820 373.14,-1831.66"/>
<text text-anchor="middle" x="245.46" y="-1842.3" font-family="Times-Roman" font-size="14.00" fill="#000000">elixir&#45;1.10.3 (338.41 MiB)</text>
</g>
<!-- N29 -->
<g id="node5" class="node">
<title>N29</title>
<polygon fill="#35f77e" stroke="#35f77e" points="386.77,-1418.54 386.77,-1433.46 303.99,-1444 186.92,-1444 104.15,-1433.46 104.15,-1418.54 186.92,-1408 303.99,-1408 386.77,-1418.54"/>
<polygon fill="none" stroke="#35f77e" points="390.76,-1415.02 390.76,-1436.98 304.24,-1448 186.67,-1448 100.15,-1436.98 100.15,-1415.02 186.67,-1404 304.24,-1404 390.76,-1415.02"/>
<polygon fill="none" stroke="#35f77e" points="394.76,-1411.5 394.76,-1440.5 304.5,-1452 186.42,-1452 96.15,-1440.5 96.15,-1411.5 186.42,-1400 304.5,-1400 394.76,-1411.5"/>
<text text-anchor="middle" x="245.46" y="-1422.3" font-family="Times-Roman" font-size="14.00" fill="#000000">wesnoth&#45;1.14.11 (570.10 MiB)</text>
</g>
<!-- N36 -->
<g id="node49" class="node">
<title>N36</title>
<polygon fill="#38f4af" stroke="#38f4af" points="702.8,-1269 511.8,-1269 511.8,-1233 702.8,-1233 702.8,-1269"/>
<text text-anchor="middle" x="607.3" y="-1247.3" font-family="Times-Roman" font-size="14.00" fill="#000000">libGL&#45;1.3.1&#45;dev (482.86 MiB)</text>
</g>
<!-- N29&#45;&gt;N36 -->
<g id="edge3" class="edge">
<title>N29&#45;&gt;N36</title>
<path fill="none" stroke="black" d="M395.01,-1414.65C418.81,-1409.32 442.57,-1401.73 463.8,-1391 517.22,-1363.99 563.37,-1309.78 587.78,-1277.31"/>
<polygon fill="black" stroke="black" points="590.67,-1279.28 593.8,-1269.16 585.04,-1275.13 590.67,-1279.28"/>
</g>
<!-- N40 -->
<g id="node7" class="node">
<title>N40</title>
<polygon fill="#4078e1" stroke="#4078e1" points="347.47,-1348.54 347.47,-1363.46 287.71,-1374 203.2,-1374 143.44,-1363.46 143.44,-1348.54 203.2,-1338 287.71,-1338 347.47,-1348.54"/>
<polygon fill="none" stroke="#4078e1" points="351.47,-1345.19 351.47,-1366.81 288.06,-1378 202.85,-1378 139.44,-1366.81 139.44,-1345.19 202.85,-1334 288.06,-1334 351.47,-1345.19"/>
<polygon fill="none" stroke="#4078e1" points="355.47,-1341.83 355.47,-1370.17 288.41,-1382 202.5,-1382 135.44,-1370.17 135.44,-1341.83 202.5,-1330 288.41,-1330 355.47,-1341.83"/>
<text text-anchor="middle" x="245.46" y="-1352.3" font-family="Times-Roman" font-size="14.00" fill="#ffffff">piper&#45;0.4 (22.46 MiB)</text>
</g>
<!-- N40&#45;&gt;N36 -->
<g id="edge4" class="edge">
<title>N40&#45;&gt;N36</title>
<path fill="none" stroke="black" d="M355.73,-1344.86C390.76,-1339.59 429.38,-1331.95 463.8,-1321 500.38,-1309.36 539.33,-1289.67 567.25,-1274.13"/>
<polygon fill="black" stroke="black" points="569.28,-1277 576.27,-1269.04 565.84,-1270.91 569.28,-1277"/>
</g>
<!-- N27 -->
<g id="node8" class="node">
<title>N27</title>
<polygon fill="#3fabe6" stroke="#3fabe6" points="394.73,-1908.54 394.73,-1923.46 307.29,-1934 183.63,-1934 96.18,-1923.46 96.18,-1908.54 183.63,-1898 307.29,-1898 394.73,-1908.54"/>
<polygon fill="none" stroke="#3fabe6" points="398.73,-1905 398.73,-1927 307.53,-1938 183.38,-1938 92.18,-1927 92.18,-1905 183.38,-1894 307.53,-1894 398.73,-1905"/>
<polygon fill="none" stroke="#3fabe6" points="402.74,-1901.45 402.74,-1930.55 307.77,-1942 183.14,-1942 88.18,-1930.55 88.18,-1901.45 183.14,-1890 307.77,-1890 402.74,-1901.45"/>
<text text-anchor="middle" x="245.46" y="-1912.3" font-family="Times-Roman" font-size="14.00" fill="#ffffff">wireshark&#45;cli&#45;3.2.4 (121.83 MiB)</text>
</g>
<!-- N26 -->
<g id="node9" class="node">
<title>N26</title>
<polygon fill="#3eb8e7" stroke="#3eb8e7" points="365.56,-1978.54 365.56,-1993.46 295.21,-2004 195.71,-2004 125.35,-1993.46 125.35,-1978.54 195.71,-1968 295.21,-1968 365.56,-1978.54"/>
<polygon fill="none" stroke="#3eb8e7" points="369.56,-1975.1 369.56,-1996.9 295.5,-2008 195.41,-2008 121.36,-1996.9 121.36,-1975.1 195.41,-1964 295.5,-1964 369.56,-1975.1"/>
<polygon fill="none" stroke="#3eb8e7" points="373.55,-1971.65 373.55,-2000.35 295.8,-2012 195.11,-2012 117.36,-2000.35 117.36,-1971.65 195.11,-1960 295.8,-1960 373.55,-1971.65"/>
<text text-anchor="middle" x="245.46" y="-1982.3" font-family="Times-Roman" font-size="14.00" fill="#000000">emacs&#45;26.3 (152.38 MiB)</text>
</g>
<!-- N25 -->
<g id="node10" class="node">
<title>N25</title>
<polygon fill="#fed100" stroke="#fed100" points="362.92,-1488.54 362.92,-1503.46 294.11,-1514 196.8,-1514 127.99,-1503.46 127.99,-1488.54 196.8,-1478 294.11,-1478 362.92,-1488.54"/>
<polygon fill="none" stroke="#fed100" points="366.92,-1485.11 366.92,-1506.89 294.42,-1518 196.5,-1518 123.99,-1506.89 123.99,-1485.11 196.5,-1474 294.42,-1474 366.92,-1485.11"/>
<polygon fill="none" stroke="#fed100" points="370.92,-1481.68 370.92,-1510.32 294.72,-1522 196.19,-1522 119.99,-1510.32 119.99,-1481.68 196.19,-1470 294.72,-1470 370.92,-1481.68"/>
<text text-anchor="middle" x="245.46" y="-1492.3" font-family="Times-Roman" font-size="14.00" fill="#000000">wine&#45;wow&#45;5.0 (1.55 GiB)</text>
</g>
<!-- N25&#45;&gt;N36 -->
<g id="edge5" class="edge">
<title>N25&#45;&gt;N36</title>
<path fill="none" stroke="black" d="M371.15,-1493.37C403.23,-1488.17 436.4,-1478.45 463.8,-1461 533.56,-1416.57 577.64,-1324.38 596.19,-1278.36"/>
<polygon fill="black" stroke="black" points="599.46,-1279.6 599.86,-1269.02 592.94,-1277.04 599.46,-1279.6"/>
</g>
<!-- N38 -->
<g id="node50" class="node">
<title>N38</title>
<polygon fill="#3fb1e6" stroke="#3fb1e6" points="711.8,-1522 502.8,-1522 502.8,-1486 711.8,-1486 711.8,-1522"/>
<text text-anchor="middle" x="607.3" y="-1500.3" font-family="Times-Roman" font-size="14.00" fill="#ffffff">systemd&#45;245.5&#45;lib (135.38 MiB)</text>
</g>
<!-- N25&#45;&gt;N38 -->
<g id="edge6" class="edge">
<title>N25&#45;&gt;N38</title>
<path fill="none" stroke="black" d="M371.05,-1498.77C410.48,-1499.65 453.83,-1500.61 492.46,-1501.47"/>
<polygon fill="black" stroke="black" points="492.62,-1504.97 502.7,-1501.7 492.78,-1497.98 492.62,-1504.97"/>
</g>
<!-- N41 -->
<g id="node11" class="node">
<title>N41</title>
<polygon fill="#408ce3" stroke="#408ce3" points="388.09,-1278.54 388.09,-1293.46 304.54,-1304 186.38,-1304 102.83,-1293.46 102.83,-1278.54 186.38,-1268 304.54,-1268 388.09,-1278.54"/>
<polygon fill="none" stroke="#408ce3" points="392.08,-1275.02 392.08,-1296.98 304.79,-1308 186.13,-1308 98.83,-1296.98 98.83,-1275.02 186.13,-1264 304.79,-1264 392.08,-1275.02"/>
<polygon fill="none" stroke="#408ce3" points="396.08,-1271.49 396.08,-1300.51 305.04,-1312 185.88,-1312 94.84,-1300.51 94.84,-1271.49 185.88,-1260 305.04,-1260 396.08,-1271.49"/>
<text text-anchor="middle" x="245.46" y="-1282.3" font-family="Times-Roman" font-size="14.00" fill="#ffffff">virt&#45;manager&#45;2.2.1 (57.28 MiB)</text>
</g>
<!-- N41&#45;&gt;N36 -->
<g id="edge7" class="edge">
<title>N41&#45;&gt;N36</title>
<path fill="none" stroke="black" d="M395.94,-1271.46C431.46,-1268.01 468.62,-1264.39 501.64,-1261.18"/>
<polygon fill="black" stroke="black" points="502.14,-1264.65 511.75,-1260.2 501.46,-1257.68 502.14,-1264.65"/>
</g>
<!-- N24 -->
<g id="node12" class="node">
<title>N24</title>
<polygon fill="#d5fe27" stroke="#d5fe27" points="362.92,-438.54 362.92,-453.46 294.11,-464 196.8,-464 127.99,-453.46 127.99,-438.54 196.8,-428 294.11,-428 362.92,-438.54"/>
<polygon fill="none" stroke="#d5fe27" points="366.92,-435.11 366.92,-456.89 294.42,-468 196.5,-468 123.99,-456.89 123.99,-435.11 196.5,-424 294.42,-424 366.92,-435.11"/>
<polygon fill="none" stroke="#d5fe27" points="370.92,-431.68 370.92,-460.32 294.72,-472 196.19,-472 119.99,-460.32 119.99,-431.68 196.19,-420 294.72,-420 370.92,-431.68"/>
<text text-anchor="middle" x="245.46" y="-442.3" font-family="Times-Roman" font-size="14.00" fill="#000000">unar&#45;1.10.7 (990.98 MiB)</text>
</g>
<!-- N24&#45;&gt;N33 -->
<g id="edge8" class="edge">
<title>N24&#45;&gt;N33</title>
<path fill="none" stroke="black" d="M371.05,-458.12C419.94,-462.87 474.87,-468.22 519.34,-472.54"/>
<polygon fill="black" stroke="black" points="519.25,-476.05 529.54,-473.53 519.92,-469.08 519.25,-476.05"/>
</g>
<!-- N42 -->
<g id="node13" class="node">
<title>N42</title>
<polygon fill="#406be1" stroke="#406be1" points="360.71,-368.54 360.71,-383.46 293.2,-394 197.72,-394 130.2,-383.46 130.2,-368.54 197.72,-358 293.2,-358 360.71,-368.54"/>
<polygon fill="none" stroke="#406be1" points="364.71,-365.12 364.71,-386.88 293.51,-398 197.41,-398 126.21,-386.88 126.21,-365.12 197.41,-354 293.51,-354 364.71,-365.12"/>
<polygon fill="none" stroke="#406be1" points="368.7,-361.7 368.7,-390.3 293.82,-402 197.1,-402 122.21,-390.3 122.21,-361.7 197.1,-350 293.82,-350 368.7,-361.7"/>
<text text-anchor="middle" x="245.46" y="-372.3" font-family="Times-Roman" font-size="14.00" fill="#ffffff">polybar&#45;3.4.3 (3.30 MiB)</text>
</g>
<!-- N42&#45;&gt;N33 -->
<g id="edge9" class="edge">
<title>N42&#45;&gt;N33</title>
<path fill="none" stroke="black" d="M368.95,-389.21C400.3,-394.36 433.66,-401.41 463.8,-411 500.38,-422.64 539.33,-442.33 567.25,-457.87"/>
<polygon fill="black" stroke="black" points="565.84,-461.09 576.27,-462.96 569.28,-455 565.84,-461.09"/>
</g>
<!-- N23 -->
<g id="node14" class="node">
<title>N23</title>
<polygon fill="#3ce9ec" stroke="#3ce9ec" points="371.31,-2048.54 371.31,-2063.46 297.59,-2074 193.33,-2074 119.6,-2063.46 119.6,-2048.54 193.33,-2038 297.59,-2038 371.31,-2048.54"/>
<polygon fill="none" stroke="#3ce9ec" points="375.31,-2045.08 375.31,-2066.92 297.87,-2078 193.04,-2078 115.6,-2066.92 115.6,-2045.08 193.04,-2034 297.87,-2034 375.31,-2045.08"/>
<polygon fill="none" stroke="#3ce9ec" points="379.31,-2041.61 379.31,-2070.39 298.16,-2082 192.76,-2082 111.61,-2070.39 111.61,-2041.61 192.76,-2030 298.16,-2030 379.31,-2041.61"/>
<text text-anchor="middle" x="245.46" y="-2052.3" font-family="Times-Roman" font-size="14.00" fill="#000000">etcher&#45;1.5.86 (285.13 MiB)</text>
</g>
<!-- N43 -->
<g id="node15" class="node">
<title>N43</title>
<polygon fill="#4087e2" stroke="#4087e2" points="419.89,-1698.54 419.89,-1713.46 317.71,-1724 173.2,-1724 71.02,-1713.46 71.02,-1698.54 173.2,-1688 317.71,-1688 419.89,-1698.54"/>
<polygon fill="none" stroke="#4087e2" points="423.89,-1694.94 423.89,-1717.06 317.92,-1728 173,-1728 67.02,-1717.06 67.02,-1694.94 173,-1684 317.92,-1684 423.89,-1694.94"/>
<polygon fill="none" stroke="#4087e2" points="427.89,-1691.33 427.89,-1720.67 318.12,-1732 172.79,-1732 63.02,-1720.67 63.02,-1691.33 172.79,-1680 318.12,-1680 427.89,-1691.33"/>
<text text-anchor="middle" x="245.46" y="-1702.3" font-family="Times-Roman" font-size="14.00" fill="#ffffff">openra&#45;release&#45;20190314 (47.51 MiB)</text>
</g>
<!-- N37 -->
<g id="node51" class="node">
<title>N37</title>
<polygon fill="#3befde" stroke="#3befde" points="704.8,-1654 509.8,-1654 509.8,-1618 704.8,-1618 704.8,-1654"/>
<text text-anchor="middle" x="607.3" y="-1632.3" font-family="Times-Roman" font-size="14.00" fill="#000000">mono&#45;5.20.1.27 (349.63 MiB)</text>
</g>
<!-- N43&#45;&gt;N37 -->
<g id="edge10" class="edge">
<title>N43&#45;&gt;N37</title>
<path fill="none" stroke="black" d="M379.52,-1686.33C407.44,-1681.71 436.65,-1676.51 463.8,-1671 484.71,-1666.76 507.18,-1661.54 527.97,-1656.45"/>
<polygon fill="black" stroke="black" points="528.83,-1659.84 537.7,-1654.04 527.15,-1653.05 528.83,-1659.84"/>
</g>
<!-- N22 -->
<g id="node16" class="node">
<title>N22</title>
<polygon fill="#3de1eb" stroke="#3de1eb" points="425.64,-2118.54 425.64,-2133.46 320.09,-2144 170.82,-2144 65.27,-2133.46 65.27,-2118.54 170.82,-2108 320.09,-2108 425.64,-2118.54"/>
<polygon fill="none" stroke="#3de1eb" points="429.64,-2114.92 429.64,-2137.08 320.29,-2148 170.62,-2148 61.27,-2137.08 61.27,-2114.92 170.62,-2104 320.29,-2104 429.64,-2114.92"/>
<polygon fill="none" stroke="#3de1eb" points="433.65,-2111.3 433.65,-2140.7 320.49,-2152 170.42,-2152 57.27,-2140.7 57.27,-2111.3 170.42,-2100 320.49,-2100 433.65,-2111.3"/>
<text text-anchor="middle" x="245.46" y="-2122.3" font-family="Times-Roman" font-size="14.00" fill="#000000">qemu&#45;host&#45;cpu&#45;only&#45;4.2.0 (263.29 MiB)</text>
</g>
<!-- N21 -->
<g id="node17" class="node">
<title>N21</title>
<polygon fill="#3ec3e8" stroke="#3ec3e8" points="422.11,-2188.54 422.11,-2203.46 318.63,-2214 172.29,-2214 68.81,-2203.46 68.81,-2188.54 172.29,-2178 318.63,-2178 422.11,-2188.54"/>
<polygon fill="none" stroke="#3ec3e8" points="426.11,-2184.93 426.11,-2207.07 318.83,-2218 172.08,-2218 64.81,-2207.07 64.81,-2184.93 172.08,-2174 318.83,-2174 426.11,-2184.93"/>
<polygon fill="none" stroke="#3ec3e8" points="430.11,-2181.32 430.11,-2210.68 319.03,-2222 171.88,-2222 60.8,-2210.68 60.8,-2181.32 171.88,-2170 319.03,-2170 430.11,-2181.32"/>
<text text-anchor="middle" x="245.46" y="-2192.3" font-family="Times-Roman" font-size="14.00" fill="#000000">firefox&#45;unwrapped&#45;76.0.1 (178.78 MiB)</text>
</g>
<!-- N44 -->
<g id="node18" class="node">
<title>N44</title>
<polygon fill="#4169e1" stroke="#4169e1" points="377.48,-2468.54 377.48,-2483.46 300.14,-2494 190.77,-2494 113.43,-2483.46 113.43,-2468.54 190.77,-2458 300.14,-2458 377.48,-2468.54"/>
<polygon fill="none" stroke="#4169e1" points="381.48,-2465.05 381.48,-2486.95 300.41,-2498 190.5,-2498 109.44,-2486.95 109.44,-2465.05 190.5,-2454 300.41,-2454 381.48,-2465.05"/>
<polygon fill="none" stroke="#4169e1" points="385.47,-2461.56 385.47,-2490.44 300.69,-2502 190.23,-2502 105.44,-2490.44 105.44,-2461.56 190.23,-2450 300.69,-2450 385.47,-2461.56"/>
<text text-anchor="middle" x="245.46" y="-2472.3" font-family="Times-Roman" font-size="14.00" fill="#ffffff">libreoffice&#45;6.4.3.2 (3.55 KiB)</text>
</g>
<!-- N16 -->
<g id="node24" class="node">
<title>N16</title>
<polygon fill="#37f697" stroke="#37f697" points="390.3,-2398.54 390.3,-2413.46 305.45,-2424 185.46,-2424 100.61,-2413.46 100.61,-2398.54 185.46,-2388 305.45,-2388 390.3,-2398.54"/>
<polygon fill="none" stroke="#37f697" points="394.3,-2395.01 394.3,-2416.99 305.7,-2428 185.21,-2428 96.62,-2416.99 96.62,-2395.01 185.21,-2384 305.7,-2384 394.3,-2395.01"/>
<polygon fill="none" stroke="#37f697" points="398.3,-2391.48 398.3,-2420.52 305.95,-2432 184.97,-2432 92.62,-2420.52 92.62,-2391.48 184.97,-2380 305.95,-2380 398.3,-2391.48"/>
<text text-anchor="middle" x="245.46" y="-2402.3" font-family="Times-Roman" font-size="14.00" fill="#000000">libreoffice&#45;6.4.3.2 (530.58 MiB)</text>
</g>
<!-- N44&#45;&gt;N16 -->
<g id="edge11" class="edge">
<title>N44&#45;&gt;N16</title>
<path fill="none" stroke="black" d="M245.46,-2449.68C245.46,-2447.23 245.46,-2444.78 245.46,-2442.33"/>
<polygon fill="black" stroke="black" points="248.96,-2442.25 245.46,-2432.25 241.96,-2442.25 248.96,-2442.25"/>
</g>
<!-- N20 -->
<g id="node19" class="node">
<title>N20</title>
<polygon fill="#3cede9" stroke="#3cede9" points="352.32,-2538.54 352.32,-2553.46 289.72,-2564 201.19,-2564 138.59,-2553.46 138.59,-2538.54 201.19,-2528 289.72,-2528 352.32,-2538.54"/>
<polygon fill="none" stroke="#3cede9" points="356.32,-2535.16 356.32,-2556.84 290.06,-2568 200.86,-2568 134.59,-2556.84 134.59,-2535.16 200.86,-2524 290.06,-2524 356.32,-2535.16"/>
<polygon fill="none" stroke="#3cede9" points="360.32,-2531.78 360.32,-2560.22 290.39,-2572 200.52,-2572 130.6,-2560.22 130.6,-2531.78 200.52,-2520 290.39,-2520 360.32,-2531.78"/>
<text text-anchor="middle" x="245.46" y="-2542.3" font-family="Times-Roman" font-size="14.00" fill="#000000">ino&#45;0.3.6 (310.79 MiB)</text>
</g>
<!-- N45 -->
<g id="node20" class="node">
<title>N45</title>
<polygon fill="#4073e1" stroke="#4073e1" points="373.53,-1208.54 373.53,-1223.46 298.5,-1234 192.41,-1234 117.39,-1223.46 117.39,-1208.54 192.41,-1198 298.5,-1198 373.53,-1208.54"/>
<polygon fill="none" stroke="#4073e1" points="377.53,-1205.07 377.53,-1226.93 298.78,-1238 192.13,-1238 113.39,-1226.93 113.39,-1205.07 192.13,-1194 298.78,-1194 377.53,-1205.07"/>
<polygon fill="none" stroke="#4073e1" points="381.53,-1201.59 381.53,-1230.41 299.06,-1242 191.85,-1242 109.39,-1230.41 109.39,-1201.59 191.85,-1190 299.06,-1190 381.53,-1201.59"/>
<text text-anchor="middle" x="245.46" y="-1212.3" font-family="Times-Roman" font-size="14.00" fill="#ffffff">tigervnc&#45;1.10.1 (15.64 MiB)</text>
</g>
<!-- N45&#45;&gt;N36 -->
<g id="edge12" class="edge">
<title>N45&#45;&gt;N36</title>
<path fill="none" stroke="black" d="M381.73,-1229.16C421.27,-1233 463.87,-1237.15 501.24,-1240.78"/>
<polygon fill="black" stroke="black" points="501.34,-1244.31 511.63,-1241.79 502.02,-1237.34 501.34,-1244.31"/>
</g>
<!-- N19 -->
<g id="node21" class="node">
<title>N19</title>
<polygon fill="#3de0eb" stroke="#3de0eb" points="358.07,-788.54 358.07,-803.46 292.1,-814 198.81,-814 132.84,-803.46 132.84,-788.54 198.81,-778 292.1,-778 358.07,-788.54"/>
<polygon fill="none" stroke="#3de0eb" points="362.07,-785.13 362.07,-806.87 292.42,-818 198.49,-818 128.84,-806.87 128.84,-785.13 198.49,-774 292.42,-774 362.07,-785.13"/>
<polygon fill="none" stroke="#3de0eb" points="366.07,-781.72 366.07,-810.28 292.74,-822 198.17,-822 124.84,-810.28 124.84,-781.72 198.17,-770 292.74,-770 366.07,-781.72"/>
<text text-anchor="middle" x="245.46" y="-792.3" font-family="Times-Roman" font-size="14.00" fill="#000000">cura&#45;4.6.1 (259.78 MiB)</text>
</g>
<!-- N39 -->
<g id="node52" class="node">
<title>N39</title>
<polygon fill="#3fb4e6" stroke="#3fb4e6" points="682.8,-919 531.8,-919 531.8,-883 682.8,-883 682.8,-919"/>
<text text-anchor="middle" x="607.3" y="-897.3" font-family="Times-Roman" font-size="14.00" fill="#ffffff">lapack&#45;3 (143.49 MiB)</text>
</g>
<!-- N19&#45;&gt;N39 -->
<g id="edge13" class="edge">
<title>N19&#45;&gt;N39</title>
<path fill="none" stroke="black" d="M366.11,-808.75C398.28,-813.94 432.75,-821.12 463.8,-831 500.38,-842.64 539.33,-862.33 567.25,-877.87"/>
<polygon fill="black" stroke="black" points="565.84,-881.09 576.27,-882.96 569.28,-875 565.84,-881.09"/>
</g>
<!-- N18 -->
<g id="node22" class="node">
<title>N18</title>
<polygon fill="#3ebee7" stroke="#3ebee7" points="388.98,-298.54 388.98,-313.46 304.91,-324 186.01,-324 101.93,-313.46 101.93,-298.54 186.01,-288 304.91,-288 388.98,-298.54"/>
<polygon fill="none" stroke="#3ebee7" points="392.98,-295.01 392.98,-316.99 305.16,-328 185.76,-328 97.93,-316.99 97.93,-295.01 185.76,-284 305.16,-284 392.98,-295.01"/>
<polygon fill="none" stroke="#3ebee7" points="396.98,-291.48 396.98,-320.52 305.41,-332 185.51,-332 93.93,-320.52 93.93,-291.48 185.51,-280 305.41,-280 396.98,-291.48"/>
<text text-anchor="middle" x="245.46" y="-302.3" font-family="Times-Roman" font-size="14.00" fill="#000000">upwork&#45;5.3.3.862 (168.58 MiB)</text>
</g>
<!-- N18&#45;&gt;N33 -->
<g id="edge14" class="edge">
<title>N18&#45;&gt;N33</title>
<path fill="none" stroke="black" d="M397.02,-317.81C420.15,-323.11 443.17,-330.57 463.8,-341 517.22,-368.01 563.37,-422.22 587.78,-454.69"/>
<polygon fill="black" stroke="black" points="585.04,-456.87 593.8,-462.84 590.67,-452.72 585.04,-456.87"/>
</g>
<!-- N17 -->
<g id="node23" class="node">
<title>N17</title>
<polygon fill="#cefe28" stroke="#cefe28" points="342.61,-1558.54 342.61,-1573.46 285.7,-1584 205.21,-1584 148.3,-1573.46 148.3,-1558.54 205.21,-1548 285.7,-1548 342.61,-1558.54"/>
<polygon fill="none" stroke="#cefe28" points="346.62,-1555.22 346.62,-1576.78 286.07,-1588 204.84,-1588 144.3,-1576.78 144.3,-1555.22 204.84,-1544 286.07,-1544 346.62,-1555.22"/>
<polygon fill="none" stroke="#cefe28" points="350.62,-1551.89 350.62,-1580.11 286.44,-1592 204.48,-1592 140.29,-1580.11 140.29,-1551.89 204.48,-1540 286.44,-1540 350.62,-1551.89"/>
<text text-anchor="middle" x="245.46" y="-1562.3" font-family="Times-Roman" font-size="14.00" fill="#000000">steam (949.70 MiB)</text>
</g>
<!-- N17&#45;&gt;N28 -->
<g id="edge15" class="edge">
<title>N17&#45;&gt;N28</title>
<path fill="none" stroke="black" d="M245.46,-1592.25C245.46,-1594.7 245.46,-1597.15 245.46,-1599.6"/>
<polygon fill="black" stroke="black" points="241.96,-1599.68 245.46,-1609.68 248.96,-1599.68 241.96,-1599.68"/>
</g>
<!-- N17&#45;&gt;N38 -->
<g id="edge17" class="edge">
<title>N17&#45;&gt;N38</title>
<path fill="none" stroke="black" d="M344.74,-1550.76C382.06,-1544.82 424.93,-1537.81 463.8,-1531 476.55,-1528.77 489.92,-1526.34 503.16,-1523.89"/>
<polygon fill="black" stroke="black" points="504.04,-1527.29 513.24,-1522.02 502.76,-1520.4 504.04,-1527.29"/>
</g>
<!-- N17&#45;&gt;N37 -->
<g id="edge16" class="edge">
<title>N17&#45;&gt;N37</title>
<path fill="none" stroke="black" d="M348.22,-1580.64C384.78,-1586.36 426.25,-1593.38 463.8,-1601 484.71,-1605.24 507.18,-1610.46 527.97,-1615.55"/>
<polygon fill="black" stroke="black" points="527.15,-1618.95 537.7,-1617.96 528.83,-1612.16 527.15,-1618.95"/>
</g>
<!-- N34 -->
<g id="node53" class="node">
<title>N34</title>
<polygon fill="#3ecae9" stroke="#3ecae9" points="714.8,-2389 499.8,-2389 499.8,-2353 714.8,-2353 714.8,-2389"/>
<text text-anchor="middle" x="607.3" y="-2367.3" font-family="Times-Roman" font-size="14.00" fill="#000000">openjdk&#45;8u242&#45;b08 (197.17 MiB)</text>
</g>
<!-- N16&#45;&gt;N34 -->
<g id="edge18" class="edge">
<title>N16&#45;&gt;N34</title>
<path fill="none" stroke="black" d="M397.24,-2391.33C428.06,-2388.34 460.05,-2385.23 489.46,-2382.36"/>
<polygon fill="black" stroke="black" points="490.14,-2385.82 499.75,-2381.36 489.46,-2378.85 490.14,-2385.82"/>
</g>
<!-- N15 -->
<g id="node25" class="node">
<title>N15</title>
<polygon fill="#fe5100" stroke="#fe5100" points="427.86,-228.54 427.86,-243.46 321.01,-254 169.9,-254 63.06,-243.46 63.06,-228.54 169.9,-218 321.01,-218 427.86,-228.54"/>
<polygon fill="none" stroke="#fe5100" points="431.86,-224.92 431.86,-247.08 321.21,-258 169.71,-258 59.05,-247.08 59.05,-224.92 169.71,-214 321.21,-214 431.86,-224.92"/>
<polygon fill="none" stroke="#fe5100" points="435.87,-221.3 435.87,-250.7 321.4,-262 169.51,-262 55.05,-250.7 55.05,-221.3 169.51,-210 321.4,-210 435.87,-221.3"/>
<text text-anchor="middle" x="245.46" y="-232.3" font-family="Times-Roman" font-size="14.00" fill="#000000">xmonad&#45;with&#45;packages&#45;8.8.3 (2.17 GiB)</text>
</g>
<!-- N15&#45;&gt;N33 -->
<g id="edge19" class="edge">
<title>N15&#45;&gt;N33</title>
<path fill="none" stroke="black" d="M424.21,-251.94C438.15,-256.94 451.55,-263.2 463.8,-271 533.56,-315.43 577.64,-407.62 596.19,-453.64"/>
<polygon fill="black" stroke="black" points="592.94,-454.96 599.86,-462.98 599.46,-452.4 592.94,-454.96"/>
</g>
<!-- N46 -->
<g id="node26" class="node">
<title>N46</title>
<polygon fill="#4074e1" stroke="#4074e1" points="374.42,-88.54 374.42,-103.46 298.88,-114 192.04,-114 116.49,-103.46 116.49,-88.54 192.04,-78 298.88,-78 374.42,-88.54"/>
<polygon fill="none" stroke="#4074e1" points="378.43,-85.06 378.43,-106.94 299.15,-118 191.76,-118 112.49,-106.94 112.49,-85.06 191.76,-74 299.15,-74 378.43,-85.06"/>
<polygon fill="none" stroke="#4074e1" points="382.44,-81.58 382.44,-110.42 299.43,-122 191.48,-122 108.48,-110.42 108.48,-81.58 191.48,-70 299.43,-70 382.44,-81.58"/>
<text text-anchor="middle" x="245.46" y="-92.3" font-family="Times-Roman" font-size="14.00" fill="#ffffff">nomacs&#45;3.14.2 (16.55 MiB)</text>
</g>
<!-- N35 -->
<g id="node54" class="node">
<title>N35</title>
<polygon fill="#3fa1e5" stroke="#3fa1e5" points="692.3,-149 522.3,-149 522.3,-113 692.3,-113 692.3,-149"/>
<text text-anchor="middle" x="607.3" y="-127.3" font-family="Times-Roman" font-size="14.00" fill="#ffffff">opencv&#45;4.3.0 (98.60 MiB)</text>
</g>
<!-- N46&#45;&gt;N35 -->
<g id="edge20" class="edge">
<title>N46&#45;&gt;N35</title>
<path fill="none" stroke="black" d="M382.24,-109.21C425.47,-113.41 472.33,-117.97 511.96,-121.82"/>
<polygon fill="black" stroke="black" points="511.85,-125.33 522.14,-122.81 512.52,-118.36 511.85,-125.33"/>
</g>
<!-- N14 -->
<g id="node27" class="node">
<title>N14</title>
<polygon fill="#3cedea" stroke="#3cedea" points="438.88,-2608.54 438.88,-2623.46 325.58,-2634 165.34,-2634 52.03,-2623.46 52.03,-2608.54 165.34,-2598 325.58,-2598 438.88,-2608.54"/>
<polygon fill="none" stroke="#3cedea" points="442.88,-2604.9 442.88,-2627.1 325.76,-2638 165.15,-2638 48.04,-2627.1 48.04,-2604.9 165.15,-2594 325.76,-2594 442.88,-2604.9"/>
<polygon fill="none" stroke="#3cedea" points="446.88,-2601.25 446.88,-2630.75 325.95,-2642 164.97,-2642 44.04,-2630.75 44.04,-2601.25 164.97,-2590 325.95,-2590 446.88,-2601.25"/>
<text text-anchor="middle" x="245.46" y="-2612.3" font-family="Times-Roman" font-size="14.00" fill="#000000">google&#45;chrome&#45;83.0.4103.61 (305.72 MiB)</text>
</g>
<!-- N13 -->
<g id="node28" class="node">
<title>N13</title>
<polygon fill="#3ce5ec" stroke="#3ce5ec" points="357.18,-2678.54 357.18,-2693.46 291.73,-2704 199.18,-2704 133.74,-2693.46 133.74,-2678.54 199.18,-2668 291.73,-2668 357.18,-2678.54"/>
<polygon fill="none" stroke="#3ce5ec" points="361.17,-2675.14 361.17,-2696.86 292.05,-2708 198.86,-2708 129.74,-2696.86 129.74,-2675.14 198.86,-2664 292.05,-2664 361.17,-2675.14"/>
<polygon fill="none" stroke="#3ce5ec" points="365.17,-2671.73 365.17,-2700.27 292.37,-2712 198.54,-2712 125.75,-2700.27 125.75,-2671.73 198.54,-2660 292.37,-2660 365.17,-2671.73"/>
<text text-anchor="middle" x="245.46" y="-2682.3" font-family="Times-Roman" font-size="14.00" fill="#000000">X11&#45;fonts (275.36 MiB)</text>
</g>
<!-- N47 -->
<g id="node29" class="node">
<title>N47</title>
<polygon fill="#406be1" stroke="#406be1" points="360.71,-2258.54 360.71,-2273.46 293.2,-2284 197.72,-2284 130.2,-2273.46 130.2,-2258.54 197.72,-2248 293.2,-2248 360.71,-2258.54"/>
<polygon fill="none" stroke="#406be1" points="364.71,-2255.12 364.71,-2276.88 293.51,-2288 197.41,-2288 126.21,-2276.88 126.21,-2255.12 197.41,-2244 293.51,-2244 364.71,-2255.12"/>
<polygon fill="none" stroke="#406be1" points="368.7,-2251.7 368.7,-2280.3 293.82,-2292 197.1,-2292 122.21,-2280.3 122.21,-2251.7 197.1,-2240 293.82,-2240 368.7,-2251.7"/>
<text text-anchor="middle" x="245.46" y="-2262.3" font-family="Times-Roman" font-size="14.00" fill="#ffffff">firefox&#45;76.0.1 (3.60 MiB)</text>
</g>
<!-- N47&#45;&gt;N21 -->
<g id="edge21" class="edge">
<title>N47&#45;&gt;N21</title>
<path fill="none" stroke="black" d="M245.46,-2239.68C245.46,-2237.23 245.46,-2234.78 245.46,-2232.33"/>
<polygon fill="black" stroke="black" points="248.96,-2232.25 245.46,-2222.25 241.96,-2232.25 248.96,-2232.25"/>
</g>
<!-- N48 -->
<g id="node30" class="node">
<title>N48</title>
<polygon fill="#3f9ee4" stroke="#3f9ee4" points="367.35,-158.54 367.35,-173.46 295.95,-184 194.97,-184 123.56,-173.46 123.56,-158.54 194.97,-148 295.95,-148 367.35,-158.54"/>
<polygon fill="none" stroke="#3f9ee4" points="371.36,-155.09 371.36,-176.91 296.24,-188 194.67,-188 119.55,-176.91 119.55,-155.09 194.67,-144 296.24,-144 371.36,-155.09"/>
<polygon fill="none" stroke="#3f9ee4" points="375.37,-151.64 375.37,-180.36 296.54,-192 194.38,-192 115.55,-180.36 115.55,-151.64 194.38,-140 296.54,-140 375.37,-151.64"/>
<text text-anchor="middle" x="245.46" y="-162.3" font-family="Times-Roman" font-size="14.00" fill="#ffffff">evince&#45;3.36.1 (92.29 MiB)</text>
</g>
<!-- N48&#45;&gt;N33 -->
<g id="edge22" class="edge">
<title>N48&#45;&gt;N33</title>
<path fill="none" stroke="black" d="M375.24,-166.8C406.5,-172.13 438.24,-182.37 463.8,-201 550.53,-264.21 588.12,-395.65 600.87,-453.11"/>
<polygon fill="black" stroke="black" points="597.46,-453.89 602.97,-462.94 604.31,-452.43 597.46,-453.89"/>
</g>
<!-- N48&#45;&gt;N35 -->
<g id="edge23" class="edge">
<title>N48&#45;&gt;N35</title>
<path fill="none" stroke="black" d="M375.35,-153.46C420.44,-149.08 470.18,-144.24 511.92,-140.18"/>
<polygon fill="black" stroke="black" points="512.47,-143.64 522.08,-139.19 511.79,-136.68 512.47,-143.64"/>
</g>
<!-- N12 -->
<g id="node31" class="node">
<title>N12</title>
<polygon fill="#3ce4ec" stroke="#3ce4ec" points="373.53,-2748.54 373.53,-2763.46 298.5,-2774 192.41,-2774 117.39,-2763.46 117.39,-2748.54 192.41,-2738 298.5,-2738 373.53,-2748.54"/>
<polygon fill="none" stroke="#3ce4ec" points="377.53,-2745.07 377.53,-2766.93 298.78,-2778 192.13,-2778 113.39,-2766.93 113.39,-2745.07 192.13,-2734 298.78,-2734 377.53,-2745.07"/>
<polygon fill="none" stroke="#3ce4ec" points="381.53,-2741.59 381.53,-2770.41 299.06,-2782 191.85,-2782 109.39,-2770.41 109.39,-2741.59 191.85,-2730 299.06,-2730 381.53,-2741.59"/>
<text text-anchor="middle" x="245.46" y="-2752.3" font-family="Times-Roman" font-size="14.00" fill="#000000">calibre&#45;4.15.0 (271.87 MiB)</text>
</g>
<!-- N11 -->
<g id="node32" class="node">
<title>N11</title>
<polygon fill="#c4fe2a" stroke="#c4fe2a" points="388.09,-2818.54 388.09,-2833.46 304.54,-2844 186.38,-2844 102.83,-2833.46 102.83,-2818.54 186.38,-2808 304.54,-2808 388.09,-2818.54"/>
<polygon fill="none" stroke="#c4fe2a" points="392.08,-2815.02 392.08,-2836.98 304.79,-2848 186.13,-2848 98.83,-2836.98 98.83,-2815.02 186.13,-2804 304.79,-2804 392.08,-2815.02"/>
<polygon fill="none" stroke="#c4fe2a" points="396.08,-2811.49 396.08,-2840.51 305.04,-2852 185.88,-2852 94.84,-2840.51 94.84,-2811.49 185.88,-2800 305.04,-2800 396.08,-2811.49"/>
<text text-anchor="middle" x="245.46" y="-2822.3" font-family="Times-Roman" font-size="14.00" fill="#000000">xonotic&#45;sdl&#45;0.8.2 (895.35 MiB)</text>
</g>
<!-- N49 -->
<g id="node33" class="node">
<title>N49</title>
<polygon fill="#4089e3" stroke="#4089e3" points="365.56,-718.54 365.56,-733.46 295.21,-744 195.71,-744 125.35,-733.46 125.35,-718.54 195.71,-708 295.21,-708 365.56,-718.54"/>
<polygon fill="none" stroke="#4089e3" points="369.56,-715.1 369.56,-736.9 295.5,-748 195.41,-748 121.36,-736.9 121.36,-715.1 195.41,-704 295.5,-704 369.56,-715.1"/>
<polygon fill="none" stroke="#4089e3" points="373.55,-711.65 373.55,-740.35 295.8,-752 195.11,-752 117.36,-740.35 117.36,-711.65 195.11,-700 295.8,-700 373.55,-711.65"/>
<text text-anchor="middle" x="245.46" y="-722.3" font-family="Times-Roman" font-size="14.00" fill="#ffffff">neovim&#45;0.4.3 (51.37 MiB)</text>
</g>
<!-- N49&#45;&gt;N33 -->
<g id="edge24" class="edge">
<title>N49&#45;&gt;N33</title>
<path fill="none" stroke="black" d="M373.7,-722.95C404.99,-717.65 437.13,-707.99 463.8,-691 533.56,-646.57 577.64,-554.38 596.19,-508.36"/>
<polygon fill="black" stroke="black" points="599.46,-509.6 599.86,-499.02 592.94,-507.04 599.46,-509.6"/>
</g>
<!-- N10 -->
<g id="node34" class="node">
<title>N10</title>
<polygon fill="#3fa1e5" stroke="#3fa1e5" points="411.5,-2888.54 411.5,-2903.46 314.24,-2914 176.68,-2914 79.41,-2903.46 79.41,-2888.54 176.68,-2878 314.24,-2878 411.5,-2888.54"/>
<polygon fill="none" stroke="#3fa1e5" points="415.5,-2884.95 415.5,-2907.05 314.45,-2918 176.46,-2918 75.41,-2907.05 75.41,-2884.95 176.46,-2874 314.45,-2874 415.5,-2884.95"/>
<polygon fill="none" stroke="#3fa1e5" points="419.51,-2881.36 419.51,-2910.64 314.67,-2922 176.25,-2922 71.41,-2910.64 71.41,-2881.36 176.25,-2870 314.67,-2870 419.51,-2881.36"/>
<text text-anchor="middle" x="245.46" y="-2892.3" font-family="Times-Roman" font-size="14.00" fill="#ffffff">mpv&#45;with&#45;scripts&#45;0.32.0 (99.47 MiB)</text>
</g>
<!-- N9 -->
<g id="node35" class="node">
<title>N9</title>
<polygon fill="#3fb6e7" stroke="#3fb6e7" points="371.31,-1068.54 371.31,-1083.46 297.59,-1094 193.33,-1094 119.6,-1083.46 119.6,-1068.54 193.33,-1058 297.59,-1058 371.31,-1068.54"/>
<polygon fill="none" stroke="#3fb6e7" points="375.31,-1065.08 375.31,-1086.92 297.87,-1098 193.04,-1098 115.6,-1086.92 115.6,-1065.08 193.04,-1054 297.87,-1054 375.31,-1065.08"/>
<polygon fill="none" stroke="#3fb6e7" points="379.31,-1061.61 379.31,-1090.39 298.16,-1102 192.76,-1102 111.61,-1090.39 111.61,-1061.61 192.76,-1050 298.16,-1050 379.31,-1061.61"/>
<text text-anchor="middle" x="245.46" y="-1072.3" font-family="Times-Roman" font-size="14.00" fill="#000000">gimp&#45;2.10.18 (147.71 MiB)</text>
</g>
<!-- N9&#45;&gt;N36 -->
<g id="edge25" class="edge">
<title>N9&#45;&gt;N36</title>
<path fill="none" stroke="black" d="M379.55,-1084.19C408.39,-1089.54 437.96,-1097.94 463.8,-1111 517.22,-1138.01 563.37,-1192.22 587.78,-1224.69"/>
<polygon fill="black" stroke="black" points="585.04,-1226.87 593.8,-1232.84 590.67,-1222.72 585.04,-1226.87"/>
</g>
<!-- N9&#45;&gt;N39 -->
<g id="edge26" class="edge">
<title>N9&#45;&gt;N39</title>
<path fill="none" stroke="black" d="M379.55,-1067.81C408.39,-1062.46 437.96,-1054.06 463.8,-1041 517.22,-1013.99 563.37,-959.78 587.78,-927.31"/>
<polygon fill="black" stroke="black" points="590.67,-929.28 593.8,-919.16 585.04,-925.13 590.67,-929.28"/>
</g>
<!-- N8 -->
<g id="node36" class="node">
<title>N8</title>
<polygon fill="#3ec6e8" stroke="#3ec6e8" points="410.19,-2958.54 410.19,-2973.46 313.69,-2984 177.22,-2984 80.73,-2973.46 80.73,-2958.54 177.22,-2948 313.69,-2948 410.19,-2958.54"/>
<polygon fill="none" stroke="#3ec6e8" points="414.19,-2954.96 414.19,-2977.04 313.91,-2988 177.01,-2988 76.73,-2977.04 76.73,-2954.96 177.01,-2944 313.91,-2944 414.19,-2954.96"/>
<polygon fill="none" stroke="#3ec6e8" points="418.19,-2951.37 418.19,-2980.63 314.13,-2992 176.79,-2992 72.72,-2980.63 72.72,-2951.37 176.79,-2940 314.13,-2940 418.19,-2951.37"/>
<text text-anchor="middle" x="245.46" y="-2962.3" font-family="Times-Roman" font-size="14.00" fill="#000000">thunderbird&#45;bin&#45;68.8.1 (186.87 MiB)</text>
</g>
<!-- N50 -->
<g id="node37" class="node">
<title>N50</title>
<polygon fill="#4095e4" stroke="#4095e4" points="392.52,-648.54 392.52,-663.46 306.37,-674 184.54,-674 98.4,-663.46 98.4,-648.54 184.54,-638 306.37,-638 392.52,-648.54"/>
<polygon fill="none" stroke="#4095e4" points="396.52,-645 396.52,-667 306.61,-678 184.3,-678 94.4,-667 94.4,-645 184.3,-634 306.61,-634 396.52,-645"/>
<polygon fill="none" stroke="#4095e4" points="400.52,-641.46 400.52,-670.54 306.86,-682 184.06,-682 90.4,-670.54 90.4,-641.46 184.06,-630 306.86,-630 400.52,-641.46"/>
<text text-anchor="middle" x="245.46" y="-652.3" font-family="Times-Roman" font-size="14.00" fill="#ffffff">stepmania&#45;5.1.0&#45;b2 (74.58 MiB)</text>
</g>
<!-- N50&#45;&gt;N33 -->
<g id="edge27" class="edge">
<title>N50&#45;&gt;N33</title>
<path fill="none" stroke="black" d="M400.74,-643.32C422.61,-638.08 444.27,-630.87 463.8,-621 517.22,-593.99 563.37,-539.78 587.78,-507.31"/>
<polygon fill="black" stroke="black" points="590.67,-509.28 593.8,-499.16 585.04,-505.13 590.67,-509.28"/>
</g>
<!-- N7 -->
<g id="node38" class="node">
<title>N7</title>
<polygon fill="#3cedea" stroke="#3cedea" points="372.21,-2328.54 372.21,-2343.46 297.96,-2354 192.96,-2354 118.71,-2343.46 118.71,-2328.54 192.96,-2318 297.96,-2318 372.21,-2328.54"/>
<polygon fill="none" stroke="#3cedea" points="376.21,-2325.07 376.21,-2346.93 298.24,-2358 192.67,-2358 114.7,-2346.93 114.7,-2325.07 192.67,-2314 298.24,-2314 376.21,-2325.07"/>
<polygon fill="none" stroke="#3cedea" points="380.21,-2321.6 380.21,-2350.4 298.52,-2362 192.39,-2362 110.7,-2350.4 110.7,-2321.6 192.39,-2310 298.52,-2310 380.21,-2321.6"/>
<text text-anchor="middle" x="245.46" y="-2332.3" font-family="Times-Roman" font-size="14.00" fill="#000000">arduino&#45;1.8.9 (306.68 MiB)</text>
</g>
<!-- N7&#45;&gt;N34 -->
<g id="edge28" class="edge">
<title>N7&#45;&gt;N34</title>
<path fill="none" stroke="black" d="M380.19,-2349.01C416.04,-2352.49 454.51,-2356.24 489.37,-2359.63"/>
<polygon fill="black" stroke="black" points="489.29,-2363.14 499.58,-2360.62 489.96,-2356.17 489.29,-2363.14"/>
</g>
<!-- N6 -->
<g id="node39" class="node">
<title>N6</title>
<polygon fill="#3ceced" stroke="#3ceced" points="374.42,-3028.54 374.42,-3043.46 298.88,-3054 192.04,-3054 116.49,-3043.46 116.49,-3028.54 192.04,-3018 298.88,-3018 374.42,-3028.54"/>
<polygon fill="none" stroke="#3ceced" points="378.43,-3025.06 378.43,-3046.94 299.15,-3058 191.76,-3058 112.49,-3046.94 112.49,-3025.06 191.76,-3014 299.15,-3014 378.43,-3025.06"/>
<polygon fill="none" stroke="#3ceced" points="382.44,-3021.58 382.44,-3050.42 299.43,-3062 191.48,-3062 108.48,-3050.42 108.48,-3021.58 191.48,-3010 299.43,-3010 382.44,-3021.58"/>
<text text-anchor="middle" x="245.46" y="-3032.3" font-family="Times-Roman" font-size="14.00" fill="#000000">fritzing&#45;0.9.3b (296.38 MiB)</text>
</g>
<!-- N51 -->
<g id="node40" class="node">
<title>N51</title>
<polygon fill="#406ce1" stroke="#406ce1" points="362.92,-578.54 362.92,-593.46 294.11,-604 196.8,-604 127.99,-593.46 127.99,-578.54 196.8,-568 294.11,-568 362.92,-578.54"/>
<polygon fill="none" stroke="#406ce1" points="366.92,-575.11 366.92,-596.89 294.42,-608 196.5,-608 123.99,-596.89 123.99,-575.11 196.5,-564 294.42,-564 366.92,-575.11"/>
<polygon fill="none" stroke="#406ce1" points="370.92,-571.68 370.92,-600.32 294.72,-612 196.19,-612 119.99,-600.32 119.99,-571.68 196.19,-560 294.72,-560 370.92,-571.68"/>
<text text-anchor="middle" x="245.46" y="-582.3" font-family="Times-Roman" font-size="14.00" fill="#ffffff">nethack&#45;3.6.6 (4.58 MiB)</text>
</g>
<!-- N51&#45;&gt;N33 -->
<g id="edge29" class="edge">
<title>N51&#45;&gt;N33</title>
<path fill="none" stroke="black" d="M370.94,-572.46C401.71,-567.34 434.3,-560.39 463.8,-551 500.38,-539.36 539.33,-519.67 567.25,-504.13"/>
<polygon fill="black" stroke="black" points="569.28,-507 576.27,-499.04 565.84,-500.91 569.28,-507"/>
</g>
<!-- N5 -->
<g id="node41" class="node">
<title>N5</title>
<polygon fill="#3de2eb" stroke="#3de2eb" points="374.42,-928.54 374.42,-943.46 298.88,-954 192.04,-954 116.49,-943.46 116.49,-928.54 192.04,-918 298.88,-918 374.42,-928.54"/>
<polygon fill="none" stroke="#3de2eb" points="378.43,-925.06 378.43,-946.94 299.15,-958 191.76,-958 112.49,-946.94 112.49,-925.06 191.76,-914 299.15,-914 378.43,-925.06"/>
<polygon fill="none" stroke="#3de2eb" points="382.44,-921.58 382.44,-950.42 299.43,-962 191.48,-962 108.48,-950.42 108.48,-921.58 191.48,-910 299.43,-910 382.44,-921.58"/>
<text text-anchor="middle" x="245.46" y="-932.3" font-family="Times-Roman" font-size="14.00" fill="#000000">blender&#45;2.82a (264.92 MiB)</text>
</g>
<!-- N5&#45;&gt;N39 -->
<g id="edge30" class="edge">
<title>N5&#45;&gt;N39</title>
<path fill="none" stroke="black" d="M382.24,-922.79C429.06,-918.24 480.13,-913.27 521.67,-909.23"/>
<polygon fill="black" stroke="black" points="522.13,-912.7 531.74,-908.25 521.45,-905.74 522.13,-912.7"/>
</g>
<!-- N4 -->
<g id="node42" class="node">
<title>N4</title>
<polygon fill="#3ce4ec" stroke="#3ce4ec" points="455.65,-3098.54 455.65,-3113.46 332.52,-3124 158.39,-3124 35.26,-3113.46 35.26,-3098.54 158.39,-3088 332.52,-3088 455.65,-3098.54"/>
<polygon fill="none" stroke="#3ce4ec" points="459.65,-3094.87 459.65,-3117.13 332.69,-3128 158.22,-3128 31.27,-3117.13 31.27,-3094.87 158.22,-3084 332.69,-3084 459.65,-3094.87"/>
<polygon fill="none" stroke="#3ce4ec" points="463.65,-3091.2 463.65,-3120.8 332.86,-3132 158.05,-3132 27.27,-3120.8 27.27,-3091.2 158.05,-3080 332.86,-3080 463.65,-3091.2"/>
<text text-anchor="middle" x="245.46" y="-3102.3" font-family="Times-Roman" font-size="14.00" fill="#000000">spotify&#45;1.1.26.501.gbe11e53b&#45;15 (272.32 MiB)</text>
</g>
<!-- N52 -->
<g id="node43" class="node">
<title>N52</title>
<polygon fill="#4083e2" stroke="#4083e2" points="406.65,-998.54 406.65,-1013.46 312.23,-1024 178.69,-1024 84.26,-1013.46 84.26,-998.54 178.69,-988 312.23,-988 406.65,-998.54"/>
<polygon fill="none" stroke="#4083e2" points="410.65,-994.97 410.65,-1017.03 312.45,-1028 178.46,-1028 80.26,-1017.03 80.26,-994.97 178.46,-984 312.45,-984 410.65,-994.97"/>
<polygon fill="none" stroke="#4083e2" points="414.66,-991.39 414.66,-1020.61 312.67,-1032 178.24,-1032 76.26,-1020.61 76.26,-991.39 178.24,-980 312.67,-980 414.66,-991.39"/>
<text text-anchor="middle" x="245.46" y="-1002.3" font-family="Times-Roman" font-size="14.00" fill="#ffffff">dwarf&#45;fortress&#45;0.47.04 (40.55 MiB)</text>
</g>
<!-- N52&#45;&gt;N33 -->
<g id="edge31" class="edge">
<title>N52&#45;&gt;N33</title>
<path fill="none" stroke="black" d="M414.62,-998.97C432.63,-992.61 449.55,-983.59 463.8,-971 481.89,-955.01 572.54,-610.82 599.02,-509.08"/>
<polygon fill="black" stroke="black" points="602.46,-509.77 601.59,-499.21 595.68,-508.01 602.46,-509.77"/>
</g>
<!-- N52&#45;&gt;N36 -->
<g id="edge32" class="edge">
<title>N52&#45;&gt;N36</title>
<path fill="none" stroke="black" d="M414.78,-1018.77C432.1,-1024.22 448.81,-1031.45 463.8,-1041 533.56,-1085.43 577.64,-1177.62 596.19,-1223.64"/>
<polygon fill="black" stroke="black" points="592.94,-1224.96 599.86,-1232.98 599.46,-1222.4 592.94,-1224.96"/>
</g>
<!-- N3 -->
<g id="node44" class="node">
<title>N3</title>
<polygon fill="#3ebce7" stroke="#3ebce7" points="374.85,-3168.54 374.85,-3183.46 299.05,-3194 191.86,-3194 116.07,-3183.46 116.07,-3168.54 191.86,-3158 299.05,-3158 374.85,-3168.54"/>
<polygon fill="none" stroke="#3ebce7" points="378.84,-3165.06 378.84,-3186.94 299.33,-3198 191.59,-3198 112.07,-3186.94 112.07,-3165.06 191.59,-3154 299.33,-3154 378.84,-3165.06"/>
<polygon fill="none" stroke="#3ebce7" points="382.84,-3161.58 382.84,-3190.42 299.6,-3202 191.31,-3202 108.07,-3190.42 108.07,-3161.58 191.31,-3150 299.6,-3150 382.84,-3161.58"/>
<text text-anchor="middle" x="245.46" y="-3172.3" font-family="Times-Roman" font-size="14.00" fill="#000000">gzdoom&#45;4.3.3 (163.52 MiB)</text>
</g>
<!-- N53 -->
<g id="node45" class="node">
<title>N53</title>
<polygon fill="#4069e1" stroke="#4069e1" points="369.99,-1138.54 369.99,-1153.46 297.04,-1164 193.87,-1164 120.92,-1153.46 120.92,-1138.54 193.87,-1128 297.04,-1128 369.99,-1138.54"/>
<polygon fill="none" stroke="#4069e1" points="373.99,-1135.08 373.99,-1156.92 297.33,-1168 193.59,-1168 116.92,-1156.92 116.92,-1135.08 193.59,-1124 297.33,-1124 373.99,-1135.08"/>
<polygon fill="none" stroke="#4069e1" points="377.99,-1131.62 377.99,-1160.38 297.62,-1172 193.3,-1172 112.92,-1160.38 112.92,-1131.62 193.3,-1120 297.62,-1120 377.99,-1131.62"/>
<text text-anchor="middle" x="245.46" y="-1142.3" font-family="Times-Roman" font-size="14.00" fill="#ffffff">arandr&#45;0.1.10 (203.54 KiB)</text>
</g>
<!-- N53&#45;&gt;N36 -->
<g id="edge33" class="edge">
<title>N53&#45;&gt;N36</title>
<path fill="none" stroke="black" d="M376.94,-1160.56C405.92,-1165.57 436.21,-1172.22 463.8,-1181 500.38,-1192.64 539.33,-1212.33 567.25,-1227.87"/>
<polygon fill="black" stroke="black" points="565.84,-1231.09 576.27,-1232.96 569.28,-1225 565.84,-1231.09"/>
</g>
<!-- N2 -->
<g id="node46" class="node">
<title>N2</title>
<polygon fill="#3dd3ea" stroke="#3dd3ea" points="443.73,-3238.54 443.73,-3253.46 327.58,-3264 163.33,-3264 47.18,-3253.46 47.18,-3238.54 163.33,-3228 327.58,-3228 443.73,-3238.54"/>
<polygon fill="none" stroke="#3dd3ea" points="447.73,-3234.89 447.73,-3257.11 327.77,-3268 163.15,-3268 43.18,-3257.11 43.18,-3234.89 163.15,-3224 327.77,-3224 447.73,-3234.89"/>
<polygon fill="none" stroke="#3dd3ea" points="451.73,-3231.24 451.73,-3260.76 327.95,-3272 162.97,-3272 39.19,-3260.76 39.19,-3231.24 162.97,-3220 327.95,-3220 451.73,-3231.24"/>
<text text-anchor="middle" x="245.46" y="-3242.3" font-family="Times-Roman" font-size="14.00" fill="#000000">papirus&#45;icon&#45;theme&#45;20200430 (221.53 MiB)</text>
</g>
<!-- N1 -->
<g id="node47" class="node">
<title>N1</title>
<polygon fill="#3fb7e7" stroke="#3fb7e7" points="383.23,-858.54 383.23,-873.46 302.53,-884 188.39,-884 107.68,-873.46 107.68,-858.54 188.39,-848 302.53,-848 383.23,-858.54"/>
<polygon fill="none" stroke="#3fb7e7" points="387.23,-855.03 387.23,-876.97 302.79,-888 188.13,-888 103.68,-876.97 103.68,-855.03 188.13,-844 302.79,-844 387.23,-855.03"/>
<polygon fill="none" stroke="#3fb7e7" points="391.23,-851.52 391.23,-880.48 303.04,-892 187.87,-892 99.69,-880.48 99.69,-851.52 187.87,-840 303.04,-840 391.23,-851.52"/>
<text text-anchor="middle" x="245.46" y="-862.3" font-family="Times-Roman" font-size="14.00" fill="#000000">inkscape&#45;0.92.5 (149.04 MiB)</text>
</g>
<!-- N1&#45;&gt;N39 -->
<g id="edge34" class="edge">
<title>N1&#45;&gt;N39</title>
<path fill="none" stroke="black" d="M391.26,-880.08C435.37,-884.37 482.4,-888.95 521.19,-892.72"/>
<polygon fill="black" stroke="black" points="521.1,-896.23 531.39,-893.71 521.77,-889.26 521.1,-896.23"/>
</g>
</g>
</svg>
