<?xml version="1.0" encoding="UTF-8" standalone="no"?>
<!DOCTYPE svg PUBLIC "-//W3C//DTD SVG 1.1//EN"
 "http://www.w3.org/Graphics/SVG/1.1/DTD/svg11.dtd">
<!-- Generated by graphviz version 2.43.0 (0)
 -->
<!-- Title: nixstore Pages: 1 -->
<svg width="678pt" height="1670pt"
 viewBox="0.00 0.00 678.04 1670.00" xmlns="http://www.w3.org/2000/svg" xmlns:xlink="http://www.w3.org/1999/xlink">
<g id="graph0" class="graph" transform="scale(1 1) rotate(0) translate(4 1666)">
<title>nixstore</title>
<polygon fill="white" stroke="transparent" points="-4,4 -4,-1666 674.04,-1666 674.04,4 -4,4"/>
<!-- N27 -->
<g id="node1" class="node">
<title>N27</title>
<polygon fill="#fe0000" stroke="#fe0000" points="304.31,-18.54 304.31,-33.46 239.12,-44 146.92,-44 81.72,-33.46 81.72,-18.54 146.92,-8 239.12,-8 304.31,-18.54"/>
<polygon fill="none" stroke="#fe0000" points="308.32,-15.14 308.32,-36.86 239.44,-48 146.6,-48 77.72,-36.86 77.72,-15.14 146.6,-4 239.44,-4 308.32,-15.14"/>
<polygon fill="none" stroke="#fe0000" points="312.32,-11.74 312.32,-40.26 239.76,-52 146.27,-52 73.71,-40.26 73.71,-11.74 146.27,0 239.76,0 312.32,-11.74"/>
<text text-anchor="middle" x="193.02" y="-22.3" font-family="Times-Roman" font-size="14.00" fill="#000000">{filtered out} (6.52 GiB)</text>
</g>
<!-- N12 -->
<g id="node2" class="node">
<title>N12</title>
<polygon fill="#3ec5e8" stroke="#3ec5e8" points="302.99,-88.54 302.99,-103.46 238.57,-114 147.47,-114 83.05,-103.46 83.05,-88.54 147.47,-78 238.57,-78 302.99,-88.54"/>
<polygon fill="none" stroke="#3ec5e8" points="307,-85.15 307,-106.85 238.9,-118 147.14,-118 79.04,-106.85 79.04,-85.15 147.14,-74 238.9,-74 307,-85.15"/>
<polygon fill="none" stroke="#3ec5e8" points="311.01,-81.75 311.01,-110.25 239.22,-122 146.81,-122 75.03,-110.25 75.03,-81.75 146.81,-70 239.22,-70 311.01,-81.75"/>
<text text-anchor="middle" x="193.02" y="-92.3" font-family="Times-Roman" font-size="14.00" fill="#000000">go&#45;1.14.2 (536.32 MiB)</text>
</g>
<!-- N11 -->
<g id="node3" class="node">
<title>N11</title>
<polygon fill="#3fa9e5" stroke="#3fa9e5" points="312.7,-158.54 312.7,-173.46 242.59,-184 143.44,-184 73.34,-173.46 73.34,-158.54 143.44,-148 242.59,-148 312.7,-158.54"/>
<polygon fill="none" stroke="#3fa9e5" points="316.7,-155.1 316.7,-176.9 242.89,-188 143.15,-188 69.33,-176.9 69.33,-155.1 143.15,-144 242.89,-144 316.7,-155.1"/>
<polygon fill="none" stroke="#3fa9e5" points="320.71,-151.66 320.71,-180.34 243.19,-192 142.85,-192 65.33,-180.34 65.33,-151.66 142.85,-140 243.19,-140 320.71,-151.66"/>
<text text-anchor="middle" x="193.02" y="-162.3" font-family="Times-Roman" font-size="14.00" fill="#ffffff">elixir&#45;1.10.3 (338.41 MiB)</text>
</g>
<!-- N10 -->
<g id="node4" class="node">
<title>N10</title>
<polygon fill="#3ecae9" stroke="#3ecae9" points="334.33,-718.54 334.33,-733.46 251.55,-744 134.49,-744 51.71,-733.46 51.71,-718.54 134.49,-708 251.55,-708 334.33,-718.54"/>
<polygon fill="none" stroke="#3ecae9" points="338.33,-715.02 338.33,-736.98 251.8,-748 134.23,-748 47.71,-736.98 47.71,-715.02 134.23,-704 251.8,-704 338.33,-715.02"/>
<polygon fill="none" stroke="#3ecae9" points="342.32,-711.5 342.32,-740.5 252.06,-752 133.98,-752 43.71,-740.5 43.71,-711.5 133.98,-700 252.06,-700 342.32,-711.5"/>
<text text-anchor="middle" x="193.02" y="-722.3" font-family="Times-Roman" font-size="14.00" fill="#000000">wesnoth&#45;1.14.11 (570.10 MiB)</text>
</g>
<!-- N13 -->
<g id="node25" class="node">
<title>N13</title>
<polygon fill="#3ebee7" stroke="#3ebee7" points="641.54,-499 450.54,-499 450.54,-463 641.54,-463 641.54,-499"/>
<text text-anchor="middle" x="546.04" y="-477.3" font-family="Times-Roman" font-size="14.00" fill="#000000">libGL&#45;1.3.1&#45;dev (482.86 MiB)</text>
</g>
<!-- N10&#45;&gt;N13 -->
<g id="edge1" class="edge">
<title>N10&#45;&gt;N13</title>
<path fill="none" stroke="black" d="M340.88,-711.11C356.77,-706.08 372.18,-699.52 386.04,-691 459.13,-646.04 510.5,-554.15 532.72,-508.3"/>
<polygon fill="black" stroke="black" points="535.89,-509.78 537.01,-499.25 529.56,-506.78 535.89,-509.78"/>
</g>
<!-- N16 -->
<g id="node5" class="node">
<title>N16</title>
<polygon fill="#4075e1" stroke="#4075e1" points="378.05,-788.54 378.05,-803.46 269.66,-814 116.37,-814 7.98,-803.46 7.98,-788.54 116.37,-778 269.66,-778 378.05,-788.54"/>
<polygon fill="none" stroke="#4075e1" points="382.06,-784.91 382.06,-807.09 269.86,-818 116.18,-818 3.98,-807.09 3.98,-784.91 116.18,-774 269.86,-774 382.06,-784.91"/>
<polygon fill="none" stroke="#4075e1" points="386.06,-781.28 386.06,-810.72 270.05,-822 115.99,-822 -0.02,-810.72 -0.02,-781.28 115.99,-770 270.05,-770 386.06,-781.28"/>
<text text-anchor="middle" x="193.02" y="-792.3" font-family="Times-Roman" font-size="14.00" fill="#ffffff">nvidia&#45;x11&#45;440.82&#45;5.6.15&#45;bin (50.53 MiB)</text>
</g>
<!-- N14 -->
<g id="node26" class="node">
<title>N14</title>
<polygon fill="#3fa4e5" stroke="#3fa4e5" points="670.04,-884 422.04,-884 422.04,-848 670.04,-848 670.04,-884"/>
<text text-anchor="middle" x="546.04" y="-862.3" font-family="Times-Roman" font-size="14.00" fill="#ffffff">nvidia&#45;x11&#45;440.82&#45;5.6.15 (308.03 MiB)</text>
</g>
<!-- N16&#45;&gt;N14 -->
<g id="edge2" class="edge">
<title>N16&#45;&gt;N14</title>
<path fill="none" stroke="black" d="M316.04,-817.55C339.31,-821.86 363.45,-826.46 386.04,-831 408.73,-835.56 433.17,-840.79 455.92,-845.78"/>
<polygon fill="black" stroke="black" points="455.38,-849.25 465.9,-847.99 456.89,-842.41 455.38,-849.25"/>
</g>
<!-- N17 -->
<g id="node6" class="node">
<title>N17</title>
<polygon fill="#406ee1" stroke="#406ee1" points="295.03,-648.54 295.03,-663.46 235.27,-674 150.76,-674 91.01,-663.46 91.01,-648.54 150.76,-638 235.27,-638 295.03,-648.54"/>
<polygon fill="none" stroke="#406ee1" points="299.03,-645.19 299.03,-666.81 235.62,-678 150.41,-678 87.01,-666.81 87.01,-645.19 150.41,-634 235.62,-634 299.03,-645.19"/>
<polygon fill="none" stroke="#406ee1" points="303.03,-641.83 303.03,-670.17 235.97,-682 150.06,-682 83.01,-670.17 83.01,-641.83 150.06,-630 235.97,-630 303.03,-641.83"/>
<text text-anchor="middle" x="193.02" y="-652.3" font-family="Times-Roman" font-size="14.00" fill="#ffffff">piper&#45;0.4 (22.46 MiB)</text>
</g>
<!-- N17&#45;&gt;N13 -->
<g id="edge3" class="edge">
<title>N17&#45;&gt;N13</title>
<path fill="none" stroke="black" d="M303.14,-646.59C331.12,-641.4 360.5,-633.37 386.04,-621 443.4,-593.21 495.97,-538.88 523.94,-506.68"/>
<polygon fill="black" stroke="black" points="526.67,-508.88 530.51,-499.01 521.35,-504.33 526.67,-508.88"/>
</g>
<!-- N9 -->
<g id="node7" class="node">
<title>N9</title>
<polygon fill="#35f866" stroke="#35f866" points="310.49,-578.54 310.49,-593.46 241.68,-604 144.36,-604 75.55,-593.46 75.55,-578.54 144.36,-568 241.68,-568 310.49,-578.54"/>
<polygon fill="none" stroke="#35f866" points="314.49,-575.11 314.49,-596.89 241.98,-608 144.06,-608 71.55,-596.89 71.55,-575.11 144.06,-564 241.98,-564 314.49,-575.11"/>
<polygon fill="none" stroke="#35f866" points="318.49,-571.68 318.49,-600.32 242.28,-612 143.75,-612 67.55,-600.32 67.55,-571.68 143.75,-560 242.28,-560 318.49,-571.68"/>
<text text-anchor="middle" x="193.02" y="-582.3" font-family="Times-Roman" font-size="14.00" fill="#000000">wine&#45;wow&#45;5.0 (1.69 GiB)</text>
</g>
<!-- N9&#45;&gt;N13 -->
<g id="edge4" class="edge">
<title>N9&#45;&gt;N13</title>
<path fill="none" stroke="black" d="M307.28,-569.91C333.43,-564.94 360.93,-558.7 386.04,-551 426.15,-538.7 469.62,-519.1 500.95,-503.76"/>
<polygon fill="black" stroke="black" points="502.86,-506.72 510.27,-499.15 499.75,-500.45 502.86,-506.72"/>
</g>
<!-- N18 -->
<g id="node8" class="node">
<title>N18</title>
<polygon fill="#4076e1" stroke="#4076e1" points="335.65,-508.54 335.65,-523.46 252.1,-534 133.94,-534 50.39,-523.46 50.39,-508.54 133.94,-498 252.1,-498 335.65,-508.54"/>
<polygon fill="none" stroke="#4076e1" points="339.64,-505.02 339.64,-526.98 252.35,-538 133.69,-538 46.4,-526.98 46.4,-505.02 133.69,-494 252.35,-494 339.64,-505.02"/>
<polygon fill="none" stroke="#4076e1" points="343.64,-501.49 343.64,-530.51 252.6,-542 133.44,-542 42.4,-530.51 42.4,-501.49 133.44,-490 252.6,-490 343.64,-501.49"/>
<text text-anchor="middle" x="193.02" y="-512.3" font-family="Times-Roman" font-size="14.00" fill="#ffffff">virt&#45;manager&#45;2.2.1 (57.28 MiB)</text>
</g>
<!-- N18&#45;&gt;N13 -->
<g id="edge5" class="edge">
<title>N18&#45;&gt;N13</title>
<path fill="none" stroke="black" d="M341.86,-501.26C374.86,-497.97 409.19,-494.55 440.04,-491.47"/>
<polygon fill="black" stroke="black" points="440.75,-494.92 450.36,-490.44 440.06,-487.95 440.75,-494.92"/>
</g>
<!-- N8 -->
<g id="node9" class="node">
<title>N8</title>
<polygon fill="#3beee0" stroke="#3beee0" points="310.49,-998.54 310.49,-1013.46 241.68,-1024 144.36,-1024 75.55,-1013.46 75.55,-998.54 144.36,-988 241.68,-988 310.49,-998.54"/>
<polygon fill="none" stroke="#3beee0" points="314.49,-995.11 314.49,-1016.89 241.98,-1028 144.06,-1028 71.55,-1016.89 71.55,-995.11 144.06,-984 241.98,-984 314.49,-995.11"/>
<polygon fill="none" stroke="#3beee0" points="318.49,-991.68 318.49,-1020.32 242.28,-1032 143.75,-1032 67.55,-1020.32 67.55,-991.68 143.75,-980 242.28,-980 318.49,-991.68"/>
<text text-anchor="middle" x="193.02" y="-1002.3" font-family="Times-Roman" font-size="14.00" fill="#000000">unar&#45;1.10.7 (990.98 MiB)</text>
</g>
<!-- N19 -->
<g id="node10" class="node">
<title>N19</title>
<polygon fill="#4069e1" stroke="#4069e1" points="348.46,-858.54 348.46,-873.46 257.41,-884 128.63,-884 37.57,-873.46 37.57,-858.54 128.63,-848 257.41,-848 348.46,-858.54"/>
<polygon fill="none" stroke="#4069e1" points="352.46,-854.98 352.46,-877.02 257.64,-888 128.4,-888 33.57,-877.02 33.57,-854.98 128.4,-844 257.64,-844 352.46,-854.98"/>
<polygon fill="none" stroke="#4069e1" points="356.46,-851.42 356.46,-880.58 257.87,-892 128.17,-892 29.57,-880.58 29.57,-851.42 128.17,-840 257.87,-840 356.46,-851.42"/>
<text text-anchor="middle" x="193.02" y="-862.3" font-family="Times-Roman" font-size="14.00" fill="#ffffff">nvidia&#45;settings&#45;440.82 (1.70 MiB)</text>
</g>
<!-- N19&#45;&gt;N16 -->
<g id="edge6" class="edge">
<title>N19&#45;&gt;N16</title>
<path fill="none" stroke="black" d="M193.02,-839.68C193.02,-837.23 193.02,-834.78 193.02,-832.33"/>
<polygon fill="black" stroke="black" points="196.52,-832.25 193.02,-822.25 189.52,-832.25 196.52,-832.25"/>
</g>
<!-- N20 -->
<g id="node11" class="node">
<title>N20</title>
<polygon fill="#4074e1" stroke="#4074e1" points="367.45,-1138.54 367.45,-1153.46 265.27,-1164 120.77,-1164 18.58,-1153.46 18.58,-1138.54 120.77,-1128 265.27,-1128 367.45,-1138.54"/>
<polygon fill="none" stroke="#4074e1" points="371.45,-1134.94 371.45,-1157.06 265.48,-1168 120.56,-1168 14.59,-1157.06 14.59,-1134.94 120.56,-1124 265.48,-1124 371.45,-1134.94"/>
<polygon fill="none" stroke="#4074e1" points="375.45,-1131.33 375.45,-1160.67 265.68,-1172 120.35,-1172 10.59,-1160.67 10.59,-1131.33 120.35,-1120 265.68,-1120 375.45,-1131.33"/>
<text text-anchor="middle" x="193.02" y="-1142.3" font-family="Times-Roman" font-size="14.00" fill="#ffffff">openra&#45;release&#45;20190314 (47.51 MiB)</text>
</g>
<!-- N15 -->
<g id="node27" class="node">
<title>N15</title>
<polygon fill="#3fabe6" stroke="#3fabe6" points="643.54,-1129 448.54,-1129 448.54,-1093 643.54,-1093 643.54,-1129"/>
<text text-anchor="middle" x="546.04" y="-1107.3" font-family="Times-Roman" font-size="14.00" fill="#ffffff">mono&#45;5.20.1.27 (349.63 MiB)</text>
</g>
<!-- N20&#45;&gt;N15 -->
<g id="edge7" class="edge">
<title>N20&#45;&gt;N15</title>
<path fill="none" stroke="black" d="M358.74,-1129.58C385.66,-1126.89 412.93,-1124.17 437.99,-1121.67"/>
<polygon fill="black" stroke="black" points="438.61,-1125.13 448.22,-1120.65 437.92,-1118.16 438.61,-1125.13"/>
</g>
<!-- N21 -->
<g id="node12" class="node">
<title>N21</title>
<polygon fill="#4069e1" stroke="#4069e1" points="378.05,-928.54 378.05,-943.46 269.66,-954 116.37,-954 7.98,-943.46 7.98,-928.54 116.37,-918 269.66,-918 378.05,-928.54"/>
<polygon fill="none" stroke="#4069e1" points="382.06,-924.91 382.06,-947.09 269.86,-958 116.18,-958 3.98,-947.09 3.98,-924.91 116.18,-914 269.86,-914 382.06,-924.91"/>
<polygon fill="none" stroke="#4069e1" points="386.06,-921.28 386.06,-950.72 270.05,-962 115.99,-962 -0.02,-950.72 -0.02,-921.28 115.99,-910 270.05,-910 386.06,-921.28"/>
<text text-anchor="middle" x="193.02" y="-932.3" font-family="Times-Roman" font-size="14.00" fill="#ffffff">nvidia&#45;persistenced&#45;440.82 (115.81 KiB)</text>
</g>
<!-- N21&#45;&gt;N14 -->
<g id="edge8" class="edge">
<title>N21&#45;&gt;N14</title>
<path fill="none" stroke="black" d="M316.04,-914.45C339.31,-910.14 363.45,-905.54 386.04,-901 408.73,-896.44 433.17,-891.21 455.92,-886.22"/>
<polygon fill="black" stroke="black" points="456.89,-889.59 465.9,-884.01 455.38,-882.75 456.89,-889.59"/>
</g>
<!-- N22 -->
<g id="node13" class="node">
<title>N22</title>
<polygon fill="#4169e1" stroke="#4169e1" points="325.05,-1278.54 325.05,-1293.46 247.71,-1304 138.33,-1304 60.99,-1293.46 60.99,-1278.54 138.33,-1268 247.71,-1268 325.05,-1278.54"/>
<polygon fill="none" stroke="#4169e1" points="329.04,-1275.05 329.04,-1296.95 247.98,-1308 138.06,-1308 57,-1296.95 57,-1275.05 138.06,-1264 247.98,-1264 329.04,-1275.05"/>
<polygon fill="none" stroke="#4169e1" points="333.03,-1271.56 333.03,-1300.44 248.25,-1312 137.79,-1312 53,-1300.44 53,-1271.56 137.79,-1260 248.25,-1260 333.03,-1271.56"/>
<text text-anchor="middle" x="193.02" y="-1282.3" font-family="Times-Roman" font-size="14.00" fill="#ffffff">libreoffice&#45;6.4.3.2 (3.55 KiB)</text>
</g>
<!-- N5 -->
<g id="node17" class="node">
<title>N5</title>
<polygon fill="#3ddeeb" stroke="#3ddeeb" points="337.86,-1208.54 337.86,-1223.46 253.01,-1234 133.02,-1234 48.18,-1223.46 48.18,-1208.54 133.02,-1198 253.01,-1198 337.86,-1208.54"/>
<polygon fill="none" stroke="#3ddeeb" points="341.86,-1205.01 341.86,-1226.99 253.26,-1238 132.78,-1238 44.18,-1226.99 44.18,-1205.01 132.78,-1194 253.26,-1194 341.86,-1205.01"/>
<polygon fill="none" stroke="#3ddeeb" points="345.86,-1201.48 345.86,-1230.52 253.51,-1242 132.53,-1242 40.18,-1230.52 40.18,-1201.48 132.53,-1190 253.51,-1190 345.86,-1201.48"/>
<text text-anchor="middle" x="193.02" y="-1212.3" font-family="Times-Roman" font-size="14.00" fill="#000000">libreoffice&#45;6.4.3.2 (727.74 MiB)</text>
</g>
<!-- N22&#45;&gt;N5 -->
<g id="edge9" class="edge">
<title>N22&#45;&gt;N5</title>
<path fill="none" stroke="black" d="M193.02,-1259.68C193.02,-1257.23 193.02,-1254.78 193.02,-1252.33"/>
<polygon fill="black" stroke="black" points="196.52,-1252.25 193.02,-1242.25 189.52,-1252.25 196.52,-1252.25"/>
</g>
<!-- N7 -->
<g id="node14" class="node">
<title>N7</title>
<polygon fill="#3fa5e5" stroke="#3fa5e5" points="299.89,-1348.54 299.89,-1363.46 237.28,-1374 148.75,-1374 86.15,-1363.46 86.15,-1348.54 148.75,-1338 237.28,-1338 299.89,-1348.54"/>
<polygon fill="none" stroke="#3fa5e5" points="303.88,-1345.16 303.88,-1366.84 237.62,-1378 148.42,-1378 82.15,-1366.84 82.15,-1345.16 148.42,-1334 237.62,-1334 303.88,-1345.16"/>
<polygon fill="none" stroke="#3fa5e5" points="307.88,-1341.78 307.88,-1370.22 237.95,-1382 148.08,-1382 78.16,-1370.22 78.16,-1341.78 148.08,-1330 237.95,-1330 307.88,-1341.78"/>
<text text-anchor="middle" x="193.02" y="-1352.3" font-family="Times-Roman" font-size="14.00" fill="#ffffff">ino&#45;0.3.6 (310.79 MiB)</text>
</g>
<!-- N23 -->
<g id="node15" class="node">
<title>N23</title>
<polygon fill="#406ce1" stroke="#406ce1" points="321.09,-438.54 321.09,-453.46 246.07,-464 139.97,-464 64.95,-453.46 64.95,-438.54 139.97,-428 246.07,-428 321.09,-438.54"/>
<polygon fill="none" stroke="#406ce1" points="325.09,-435.07 325.09,-456.93 246.35,-468 139.69,-468 60.95,-456.93 60.95,-435.07 139.69,-424 246.35,-424 325.09,-435.07"/>
<polygon fill="none" stroke="#406ce1" points="329.09,-431.59 329.09,-460.41 246.63,-472 139.41,-472 56.95,-460.41 56.95,-431.59 139.41,-420 246.63,-420 329.09,-431.59"/>
<text text-anchor="middle" x="193.02" y="-442.3" font-family="Times-Roman" font-size="14.00" fill="#ffffff">tigervnc&#45;1.10.1 (15.64 MiB)</text>
</g>
<!-- N23&#45;&gt;N13 -->
<g id="edge10" class="edge">
<title>N23&#45;&gt;N13</title>
<path fill="none" stroke="black" d="M329.23,-459.48C366.06,-463.15 405.38,-467.08 440.24,-470.55"/>
<polygon fill="black" stroke="black" points="440.13,-474.06 450.43,-471.57 440.82,-467.09 440.13,-474.06"/>
</g>
<!-- N6 -->
<g id="node16" class="node">
<title>N6</title>
<polygon fill="#3beee4" stroke="#3beee4" points="290.18,-1068.54 290.18,-1083.46 233.26,-1094 152.77,-1094 95.86,-1083.46 95.86,-1068.54 152.77,-1058 233.26,-1058 290.18,-1068.54"/>
<polygon fill="none" stroke="#3beee4" points="294.18,-1065.22 294.18,-1086.78 233.63,-1098 152.41,-1098 91.86,-1086.78 91.86,-1065.22 152.41,-1054 233.63,-1054 294.18,-1065.22"/>
<polygon fill="none" stroke="#3beee4" points="298.18,-1061.89 298.18,-1090.11 234,-1102 152.04,-1102 87.85,-1090.11 87.85,-1061.89 152.04,-1050 234,-1050 298.18,-1061.89"/>
<text text-anchor="middle" x="193.02" y="-1072.3" font-family="Times-Roman" font-size="14.00" fill="#000000">steam (949.70 MiB)</text>
</g>
<!-- N6&#45;&gt;N15 -->
<g id="edge11" class="edge">
<title>N6&#45;&gt;N15</title>
<path fill="none" stroke="black" d="M298.39,-1086.41C342.44,-1090.8 393.7,-1095.91 438.04,-1100.33"/>
<polygon fill="black" stroke="black" points="437.97,-1103.84 448.27,-1101.35 438.67,-1096.88 437.97,-1103.84"/>
</g>
<!-- N4 -->
<g id="node18" class="node">
<title>N4</title>
<polygon fill="#3cede9" stroke="#3cede9" points="335.65,-1418.54 335.65,-1433.46 252.1,-1444 133.94,-1444 50.39,-1433.46 50.39,-1418.54 133.94,-1408 252.1,-1408 335.65,-1418.54"/>
<polygon fill="none" stroke="#3cede9" points="339.64,-1415.02 339.64,-1436.98 252.35,-1448 133.69,-1448 46.4,-1436.98 46.4,-1415.02 133.69,-1404 252.35,-1404 339.64,-1415.02"/>
<polygon fill="none" stroke="#3cede9" points="343.64,-1411.49 343.64,-1440.51 252.6,-1452 133.44,-1452 42.4,-1440.51 42.4,-1411.49 133.44,-1400 252.6,-1400 343.64,-1411.49"/>
<text text-anchor="middle" x="193.02" y="-1422.3" font-family="Times-Roman" font-size="14.00" fill="#000000">xonotic&#45;sdl&#45;0.8.2 (895.35 MiB)</text>
</g>
<!-- N24 -->
<g id="node19" class="node">
<title>N24</title>
<polygon fill="#4089e3" stroke="#4089e3" points="318.87,-368.54 318.87,-383.46 245.15,-394 140.89,-394 67.16,-383.46 67.16,-368.54 140.89,-358 245.15,-358 318.87,-368.54"/>
<polygon fill="none" stroke="#4089e3" points="322.87,-365.08 322.87,-386.92 245.43,-398 140.6,-398 63.17,-386.92 63.17,-365.08 140.6,-354 245.43,-354 322.87,-365.08"/>
<polygon fill="none" stroke="#4089e3" points="326.87,-361.61 326.87,-390.39 245.72,-402 140.32,-402 59.17,-390.39 59.17,-361.61 140.32,-350 245.72,-350 326.87,-361.61"/>
<text text-anchor="middle" x="193.02" y="-372.3" font-family="Times-Roman" font-size="14.00" fill="#ffffff">gimp&#45;2.10.18 (148.22 MiB)</text>
</g>
<!-- N24&#45;&gt;N13 -->
<g id="edge12" class="edge">
<title>N24&#45;&gt;N13</title>
<path fill="none" stroke="black" d="M310.83,-392.77C335.9,-397.62 362.06,-403.65 386.04,-411 426.15,-423.3 469.62,-442.9 500.95,-458.24"/>
<polygon fill="black" stroke="black" points="499.75,-461.55 510.27,-462.85 502.86,-455.28 499.75,-461.55"/>
</g>
<!-- N3 -->
<g id="node20" class="node">
<title>N3</title>
<polygon fill="#3fa4e5" stroke="#3fa4e5" points="319.77,-1488.54 319.77,-1503.46 245.52,-1514 140.52,-1514 66.27,-1503.46 66.27,-1488.54 140.52,-1478 245.52,-1478 319.77,-1488.54"/>
<polygon fill="none" stroke="#3fa4e5" points="323.77,-1485.07 323.77,-1506.93 245.8,-1518 140.23,-1518 62.26,-1506.93 62.26,-1485.07 140.23,-1474 245.8,-1474 323.77,-1485.07"/>
<polygon fill="none" stroke="#3fa4e5" points="327.78,-1481.6 327.78,-1510.4 246.09,-1522 139.95,-1522 58.26,-1510.4 58.26,-1481.6 139.95,-1470 246.09,-1470 327.78,-1481.6"/>
<text text-anchor="middle" x="193.02" y="-1492.3" font-family="Times-Roman" font-size="14.00" fill="#ffffff">arduino&#45;1.8.9 (306.68 MiB)</text>
</g>
<!-- N2 -->
<g id="node21" class="node">
<title>N2</title>
<polygon fill="#3fa3e5" stroke="#3fa3e5" points="321.98,-1558.54 321.98,-1573.46 246.44,-1584 139.6,-1584 64.05,-1573.46 64.05,-1558.54 139.6,-1548 246.44,-1548 321.98,-1558.54"/>
<polygon fill="none" stroke="#3fa3e5" points="325.99,-1555.06 325.99,-1576.94 246.72,-1588 139.32,-1588 60.05,-1576.94 60.05,-1555.06 139.32,-1544 246.72,-1544 325.99,-1555.06"/>
<polygon fill="none" stroke="#3fa3e5" points="330,-1551.58 330,-1580.42 246.99,-1592 139.04,-1592 56.04,-1580.42 56.04,-1551.58 139.04,-1540 246.99,-1540 330,-1551.58"/>
<text text-anchor="middle" x="193.02" y="-1562.3" font-family="Times-Roman" font-size="14.00" fill="#ffffff">fritzing&#45;0.9.3b (296.38 MiB)</text>
</g>
<!-- N25 -->
<g id="node22" class="node">
<title>N25</title>
<polygon fill="#4072e1" stroke="#4072e1" points="354.21,-298.54 354.21,-313.46 259.79,-324 126.25,-324 31.82,-313.46 31.82,-298.54 126.25,-288 259.79,-288 354.21,-298.54"/>
<polygon fill="none" stroke="#4072e1" points="358.22,-294.97 358.22,-317.03 260.01,-328 126.03,-328 27.82,-317.03 27.82,-294.97 126.03,-284 260.01,-284 358.22,-294.97"/>
<polygon fill="none" stroke="#4072e1" points="362.22,-291.39 362.22,-320.61 260.23,-332 125.8,-332 23.82,-320.61 23.82,-291.39 125.8,-280 260.23,-280 362.22,-291.39"/>
<text text-anchor="middle" x="193.02" y="-302.3" font-family="Times-Roman" font-size="14.00" fill="#ffffff">dwarf&#45;fortress&#45;0.47.04 (40.55 MiB)</text>
</g>
<!-- N25&#45;&gt;N13 -->
<g id="edge13" class="edge">
<title>N25&#45;&gt;N13</title>
<path fill="none" stroke="black" d="M338.06,-323.38C354.67,-327.95 371.02,-333.72 386.04,-341 443.4,-368.79 495.97,-423.12 523.94,-455.32"/>
<polygon fill="black" stroke="black" points="521.35,-457.67 530.51,-462.99 526.67,-453.12 521.35,-457.67"/>
</g>
<!-- N26 -->
<g id="node23" class="node">
<title>N26</title>
<polygon fill="#4069e1" stroke="#4069e1" points="317.55,-228.54 317.55,-243.46 244.6,-254 141.43,-254 68.48,-243.46 68.48,-228.54 141.43,-218 244.6,-218 317.55,-228.54"/>
<polygon fill="none" stroke="#4069e1" points="321.55,-225.08 321.55,-246.92 244.89,-258 141.15,-258 64.48,-246.92 64.48,-225.08 141.15,-214 244.89,-214 321.55,-225.08"/>
<polygon fill="none" stroke="#4069e1" points="325.55,-221.62 325.55,-250.38 245.18,-262 140.86,-262 60.48,-250.38 60.48,-221.62 140.86,-210 245.18,-210 325.55,-221.62"/>
<text text-anchor="middle" x="193.02" y="-232.3" font-family="Times-Roman" font-size="14.00" fill="#ffffff">arandr&#45;0.1.10 (203.54 KiB)</text>
</g>
<!-- N26&#45;&gt;N13 -->
<g id="edge14" class="edge">
<title>N26&#45;&gt;N13</title>
<path fill="none" stroke="black" d="M325.62,-246.55C346.83,-251.95 367.78,-259.77 386.04,-271 459.13,-315.96 510.5,-407.85 532.72,-453.7"/>
<polygon fill="black" stroke="black" points="529.56,-455.22 537.01,-462.75 535.89,-452.22 529.56,-455.22"/>
</g>
<!-- N1 -->
<g id="node24" class="node">
<title>N1</title>
<polygon fill="#63fb32" stroke="#63fb32" points="375.42,-1628.54 375.42,-1643.46 268.57,-1654 117.47,-1654 10.62,-1643.46 10.62,-1628.54 117.47,-1618 268.57,-1618 375.42,-1628.54"/>
<polygon fill="none" stroke="#63fb32" points="379.42,-1624.92 379.42,-1647.08 268.77,-1658 117.27,-1658 6.61,-1647.08 6.61,-1624.92 117.27,-1614 268.77,-1614 379.42,-1624.92"/>
<polygon fill="none" stroke="#63fb32" points="383.43,-1621.3 383.43,-1650.7 268.97,-1662 117.07,-1662 2.61,-1650.7 2.61,-1621.3 117.07,-1610 268.97,-1610 383.43,-1621.3"/>
<text text-anchor="middle" x="193.02" y="-1632.3" font-family="Times-Roman" font-size="14.00" fill="#000000">xmonad&#45;with&#45;packages&#45;8.8.3 (1.89 GiB)</text>
</g>
</g>
</svg>
