<?xml version="1.0" encoding="UTF-8" standalone="no"?>
<!DOCTYPE svg PUBLIC "-//W3C//DTD SVG 1.1//EN"
 "http://www.w3.org/Graphics/SVG/1.1/DTD/svg11.dtd">
<!-- Generated by graphviz version 2.43.0 (0)
 -->
<!-- Title: nixstore Pages: 1 -->
<svg width="988pt" height="2790pt"
 viewBox="0.00 0.00 988.40 2790.00" xmlns="http://www.w3.org/2000/svg" xmlns:xlink="http://www.w3.org/1999/xlink">
<g id="graph0" class="graph" transform="scale(1 1) rotate(0) translate(4 2786)">
<title>nixstore</title>
<polygon fill="white" stroke="transparent" points="-4,4 -4,-2786 984.4,-2786 984.4,4 -4,4"/>
<!-- N48 -->
<g id="node1" class="node">
<title>N48</title>
<polygon fill="#ff5a00" stroke="#ff5a00" points="380.84,-18.54 380.84,-33.46 315.65,-44 223.45,-44 158.25,-33.46 158.25,-18.54 223.45,-8 315.65,-8 380.84,-18.54"/>
<polygon fill="none" stroke="#ff5a00" points="384.84,-15.14 384.84,-36.86 315.97,-48 223.12,-48 154.25,-36.86 154.25,-15.14 223.12,-4 315.97,-4 384.84,-15.14"/>
<polygon fill="none" stroke="#ff5a00" points="388.85,-11.74 388.85,-40.26 316.29,-52 222.8,-52 150.24,-40.26 150.24,-11.74 222.8,0 316.29,0 388.85,-11.74"/>
<text text-anchor="middle" x="269.55" y="-22.3" font-family="Roboto" font-size="14.00" fill="#000000">{filtered out} (2.05 GiB)</text>
</g>
<!-- N37 -->
<g id="node2" class="node">
<title>N37</title>
<polygon fill="#417ee2" stroke="#417ee2" points="389.65,-158.54 389.65,-173.46 319.3,-184 219.8,-184 149.44,-173.46 149.44,-158.54 219.8,-148 319.3,-148 389.65,-158.54"/>
<polygon fill="none" stroke="#417ee2" points="393.65,-155.1 393.65,-176.9 319.59,-188 219.5,-188 145.44,-176.9 145.44,-155.1 219.5,-144 319.59,-144 393.65,-155.1"/>
<polygon fill="none" stroke="#417ee2" points="397.64,-151.65 397.64,-180.35 319.89,-192 219.2,-192 141.45,-180.35 141.45,-151.65 219.2,-140 319.89,-140 397.64,-151.65"/>
<text text-anchor="middle" x="269.55" y="-162.3" font-family="Roboto" font-size="14.00" fill="#ffffff">firefox&#45;84.0.1 (30.76 MiB)</text>
</g>
<!-- N24 -->
<g id="node8" class="node">
<title>N24</title>
<polygon fill="#38f5ab" stroke="#38f5ab" points="446.2,-88.54 446.2,-103.46 342.72,-114 196.38,-114 92.9,-103.46 92.9,-88.54 196.38,-78 342.72,-78 446.2,-88.54"/>
<polygon fill="none" stroke="#38f5ab" points="450.2,-84.93 450.2,-107.07 342.92,-118 196.17,-118 88.89,-107.07 88.89,-84.93 196.17,-74 342.92,-74 450.2,-84.93"/>
<polygon fill="none" stroke="#38f5ab" points="454.2,-81.32 454.2,-110.68 343.12,-122 195.97,-122 84.89,-110.68 84.89,-81.32 195.97,-70 343.12,-70 454.2,-81.32"/>
<text text-anchor="middle" x="269.55" y="-92.3" font-family="Roboto" font-size="14.00" fill="#000000">firefox&#45;unwrapped&#45;84.0.1 (471.38 MiB)</text>
</g>
<!-- N37&#45;&gt;N24 -->
<g id="edge1" class="edge">
<title>N37&#45;&gt;N24</title>
<path fill="none" stroke="black" d="M269.55,-139.68C269.55,-137.23 269.55,-134.78 269.55,-132.33"/>
<polygon fill="black" stroke="black" points="273.05,-132.25 269.55,-122.25 266.05,-132.25 273.05,-132.25"/>
</g>
<!-- N28 -->
<g id="node3" class="node">
<title>N28</title>
<polygon fill="#3befde" stroke="#3befde" points="389.23,-228.54 389.23,-243.46 319.12,-254 219.97,-254 149.86,-243.46 149.86,-228.54 219.97,-218 319.12,-218 389.23,-228.54"/>
<polygon fill="none" stroke="#3befde" points="393.23,-225.1 393.23,-246.9 319.42,-258 219.67,-258 145.86,-246.9 145.86,-225.1 219.67,-214 319.42,-214 393.23,-225.1"/>
<polygon fill="none" stroke="#3befde" points="397.23,-221.66 397.23,-250.34 319.72,-262 219.37,-262 141.86,-250.34 141.86,-221.66 219.37,-210 319.72,-210 397.23,-221.66"/>
<text text-anchor="middle" x="269.55" y="-232.3" font-family="Roboto" font-size="14.00" fill="#000000">vlc&#45;3.0.11.1 (336.39 MiB)</text>
</g>
<!-- N27 -->
<g id="node4" class="node">
<title>N27</title>
<polygon fill="#8efd31" stroke="#8efd31" points="382.16,-508.54 382.16,-523.46 316.19,-534 222.9,-534 156.93,-523.46 156.93,-508.54 222.9,-498 316.19,-498 382.16,-508.54"/>
<polygon fill="none" stroke="#8efd31" points="386.16,-505.13 386.16,-526.87 316.51,-538 222.58,-538 152.93,-526.87 152.93,-505.13 222.58,-494 316.51,-494 386.16,-505.13"/>
<polygon fill="none" stroke="#8efd31" points="390.16,-501.72 390.16,-530.28 316.83,-542 222.26,-542 148.93,-530.28 148.93,-501.72 222.26,-490 316.83,-490 390.16,-501.72"/>
<text text-anchor="middle" x="269.55" y="-512.3" font-family="Roboto" font-size="14.00" fill="#000000">cura&#45;4.7.1 (689.10 MiB)</text>
</g>
<!-- N30 -->
<g id="node41" class="node">
<title>N30</title>
<polygon fill="#3eceea" stroke="#3eceea" points="741.9,-429 563.9,-429 563.9,-393 741.9,-393 741.9,-429"/>
<text text-anchor="middle" x="652.9" y="-407.3" font-family="Roboto" font-size="14.00" fill="#000000">bash&#45;4.4&#45;p23 (198.59 MiB)</text>
</g>
<!-- N27&#45;&gt;N30 -->
<g id="edge2" class="edge">
<title>N27&#45;&gt;N30</title>
<path fill="none" stroke="black" d="M390.23,-506.04C429.14,-500.82 472.13,-492.93 510.4,-481 546.96,-469.61 585.76,-449.8 613.46,-434.16"/>
<polygon fill="black" stroke="black" points="615.48,-437.04 622.41,-429.03 612,-430.96 615.48,-437.04"/>
</g>
<!-- N38 -->
<g id="node5" class="node">
<title>N38</title>
<polygon fill="#4169e1" stroke="#4169e1" points="401.57,-1628.54 401.57,-1643.46 324.23,-1654 214.86,-1654 137.52,-1643.46 137.52,-1628.54 214.86,-1618 324.23,-1618 401.57,-1628.54"/>
<polygon fill="none" stroke="#4169e1" points="405.57,-1625.05 405.57,-1646.95 324.5,-1658 214.59,-1658 133.53,-1646.95 133.53,-1625.05 214.59,-1614 324.5,-1614 405.57,-1625.05"/>
<polygon fill="none" stroke="#4169e1" points="409.56,-1621.56 409.56,-1650.44 324.77,-1662 214.32,-1662 129.53,-1650.44 129.53,-1621.56 214.32,-1610 324.77,-1610 409.56,-1621.56"/>
<text text-anchor="middle" x="269.55" y="-1632.3" font-family="Roboto" font-size="14.00" fill="#ffffff">libreoffice&#45;7.0.4.2 (3.55 KiB)</text>
</g>
<!-- N17 -->
<g id="node16" class="node">
<title>N17</title>
<polygon fill="#ffdb03" stroke="#ffdb03" points="402.47,-1558.54 402.47,-1573.46 324.6,-1584 214.49,-1584 136.62,-1573.46 136.62,-1558.54 214.49,-1548 324.6,-1548 402.47,-1558.54"/>
<polygon fill="none" stroke="#ffdb03" points="406.47,-1555.05 406.47,-1576.95 324.87,-1588 214.22,-1588 132.62,-1576.95 132.62,-1555.05 214.22,-1544 324.87,-1544 406.47,-1555.05"/>
<polygon fill="none" stroke="#ffdb03" points="410.47,-1551.55 410.47,-1580.45 325.14,-1592 213.95,-1592 128.63,-1580.45 128.63,-1551.55 213.95,-1540 325.14,-1540 410.47,-1551.55"/>
<text text-anchor="middle" x="269.55" y="-1562.3" font-family="Roboto" font-size="14.00" fill="#000000">libreoffice&#45;7.0.4.2 (1.41 GiB)</text>
</g>
<!-- N38&#45;&gt;N17 -->
<g id="edge3" class="edge">
<title>N38&#45;&gt;N17</title>
<path fill="none" stroke="black" d="M269.55,-1609.68C269.55,-1607.23 269.55,-1604.78 269.55,-1602.33"/>
<polygon fill="black" stroke="black" points="273.05,-1602.25 269.55,-1592.25 266.05,-1602.25 273.05,-1602.25"/>
</g>
<!-- N26 -->
<g id="node6" class="node">
<title>N26</title>
<polygon fill="#3ceee9" stroke="#3ceee9" points="440.03,-1698.54 440.03,-1713.46 340.16,-1724 198.93,-1724 99.07,-1713.46 99.07,-1698.54 198.93,-1688 340.16,-1688 440.03,-1698.54"/>
<polygon fill="none" stroke="#3ceee9" points="444.03,-1694.94 444.03,-1717.06 340.37,-1728 198.72,-1728 95.06,-1717.06 95.06,-1694.94 198.72,-1684 340.37,-1684 444.03,-1694.94"/>
<polygon fill="none" stroke="#3ceee9" points="448.04,-1691.35 448.04,-1720.65 340.58,-1732 198.51,-1732 91.06,-1720.65 91.06,-1691.35 198.51,-1680 340.58,-1680 448.04,-1691.35"/>
<text text-anchor="middle" x="269.55" y="-1702.3" font-family="Roboto" font-size="14.00" fill="#000000">skypeforlinux&#45;8.66.0.74 (299.65 MiB)</text>
</g>
<!-- N25 -->
<g id="node7" class="node">
<title>N25</title>
<polygon fill="#3dddeb" stroke="#3dddeb" points="401.57,-858.54 401.57,-873.46 324.23,-884 214.86,-884 137.52,-873.46 137.52,-858.54 214.86,-848 324.23,-848 401.57,-858.54"/>
<polygon fill="none" stroke="#3dddeb" points="405.57,-855.05 405.57,-876.95 324.5,-888 214.59,-888 133.53,-876.95 133.53,-855.05 214.59,-844 324.5,-844 405.57,-855.05"/>
<polygon fill="none" stroke="#3dddeb" points="409.56,-851.56 409.56,-880.44 324.77,-892 214.32,-892 129.53,-880.44 129.53,-851.56 214.32,-840 324.77,-840 409.56,-851.56"/>
<text text-anchor="middle" x="269.55" y="-862.3" font-family="Roboto" font-size="14.00" fill="#000000">inkscape&#45;1.0.1 (238.95 MiB)</text>
</g>
<!-- N35 -->
<g id="node42" class="node">
<title>N35</title>
<polygon fill="#3fb4e7" stroke="#3fb4e7" points="728.4,-919 577.4,-919 577.4,-883 728.4,-883 728.4,-919"/>
<text text-anchor="middle" x="652.9" y="-897.3" font-family="Roboto" font-size="14.00" fill="#ffffff">lapack&#45;3 (134.32 MiB)</text>
</g>
<!-- N25&#45;&gt;N35 -->
<g id="edge4" class="edge">
<title>N25&#45;&gt;N35</title>
<path fill="none" stroke="black" d="M409.57,-878.76C462.42,-883.61 521,-888.99 567.32,-893.24"/>
<polygon fill="black" stroke="black" points="567.04,-896.73 577.32,-894.15 567.68,-889.76 567.04,-896.73"/>
</g>
<!-- N23 -->
<g id="node9" class="node">
<title>N23</title>
<polygon fill="#3ceee8" stroke="#3ceee8" points="389.23,-1768.54 389.23,-1783.46 319.12,-1794 219.97,-1794 149.86,-1783.46 149.86,-1768.54 219.97,-1758 319.12,-1758 389.23,-1768.54"/>
<polygon fill="none" stroke="#3ceee8" points="393.23,-1765.1 393.23,-1786.9 319.42,-1798 219.67,-1798 145.86,-1786.9 145.86,-1765.1 219.67,-1754 319.42,-1754 393.23,-1765.1"/>
<polygon fill="none" stroke="#3ceee8" points="397.23,-1761.66 397.23,-1790.34 319.72,-1802 219.37,-1802 141.86,-1790.34 141.86,-1761.66 219.37,-1750 319.72,-1750 397.23,-1761.66"/>
<text text-anchor="middle" x="269.55" y="-1772.3" font-family="Roboto" font-size="14.00" fill="#000000">elixir&#45;1.11.2 (301.29 MiB)</text>
</g>
<!-- N22 -->
<g id="node10" class="node">
<title>N22</title>
<polygon fill="#3ed1ea" stroke="#3ed1ea" points="381.27,-1838.54 381.27,-1853.46 315.82,-1864 223.27,-1864 157.83,-1853.46 157.83,-1838.54 223.27,-1828 315.82,-1828 381.27,-1838.54"/>
<polygon fill="none" stroke="#3ed1ea" points="385.26,-1835.14 385.26,-1856.86 316.14,-1868 222.95,-1868 153.83,-1856.86 153.83,-1835.14 222.95,-1824 316.14,-1824 385.26,-1835.14"/>
<polygon fill="none" stroke="#3ed1ea" points="389.26,-1831.73 389.26,-1860.27 316.46,-1872 222.63,-1872 149.84,-1860.27 149.84,-1831.73 222.63,-1820 316.46,-1820 389.26,-1831.73"/>
<text text-anchor="middle" x="269.55" y="-1842.3" font-family="Roboto" font-size="14.00" fill="#000000">X11&#45;fonts (205.12 MiB)</text>
</g>
<!-- N39 -->
<g id="node11" class="node">
<title>N39</title>
<polygon fill="#4176e2" stroke="#4176e2" points="379.52,-578.54 379.52,-593.46 315.1,-604 223.99,-604 159.57,-593.46 159.57,-578.54 223.99,-568 315.1,-568 379.52,-578.54"/>
<polygon fill="none" stroke="#4176e2" points="383.53,-575.15 383.53,-596.85 315.42,-608 223.67,-608 155.56,-596.85 155.56,-575.15 223.67,-564 315.42,-564 383.53,-575.15"/>
<polygon fill="none" stroke="#4176e2" points="387.54,-571.75 387.54,-600.25 315.75,-612 223.34,-612 151.56,-600.25 151.56,-571.75 223.34,-560 315.75,-560 387.54,-571.75"/>
<text text-anchor="middle" x="269.55" y="-582.3" font-family="Roboto" font-size="14.00" fill="#ffffff">piper&#45;0.5.1 (18.75 MiB)</text>
</g>
<!-- N33 -->
<g id="node43" class="node">
<title>N33</title>
<polygon fill="#3af2ca" stroke="#3af2ca" points="748.4,-744 557.4,-744 557.4,-708 748.4,-708 748.4,-744"/>
<text text-anchor="middle" x="652.9" y="-722.3" font-family="Roboto" font-size="14.00" fill="#000000">libGL&#45;1.3.2&#45;dev (396.62 MiB)</text>
</g>
<!-- N39&#45;&gt;N33 -->
<g id="edge5" class="edge">
<title>N39&#45;&gt;N33</title>
<path fill="none" stroke="black" d="M387.39,-591.44C427.52,-596.3 471.99,-605.14 510.4,-621 555.69,-639.7 599.71,-676.11 626.31,-700.75"/>
<polygon fill="black" stroke="black" points="623.98,-703.36 633.66,-707.67 628.78,-698.26 623.98,-703.36"/>
</g>
<!-- N21 -->
<g id="node12" class="node">
<title>N21</title>
<polygon fill="#3fb4e7" stroke="#3fb4e7" points="414.39,-1908.54 414.39,-1923.46 329.54,-1934 209.55,-1934 124.7,-1923.46 124.7,-1908.54 209.55,-1898 329.54,-1898 414.39,-1908.54"/>
<polygon fill="none" stroke="#3fb4e7" points="418.39,-1905.01 418.39,-1926.99 329.79,-1938 209.3,-1938 120.7,-1926.99 120.7,-1905.01 209.3,-1894 329.79,-1894 418.39,-1905.01"/>
<polygon fill="none" stroke="#3fb4e7" points="422.38,-1901.48 422.38,-1930.52 330.04,-1942 209.06,-1942 116.71,-1930.52 116.71,-1901.48 209.06,-1890 330.04,-1890 422.38,-1901.48"/>
<text text-anchor="middle" x="269.55" y="-1912.3" font-family="Roboto" font-size="14.00" fill="#ffffff">prusa&#45;slicer&#45;2.2.0 (135.01 MiB)</text>
</g>
<!-- N20 -->
<g id="node13" class="node">
<title>N20</title>
<polygon fill="#3fc3e8" stroke="#3fc3e8" points="384.8,-2118.54 384.8,-2133.46 317.29,-2144 221.81,-2144 154.29,-2133.46 154.29,-2118.54 221.81,-2108 317.29,-2108 384.8,-2118.54"/>
<polygon fill="none" stroke="#3fc3e8" points="388.8,-2115.12 388.8,-2136.88 317.6,-2148 221.5,-2148 150.3,-2136.88 150.3,-2115.12 221.5,-2104 317.6,-2104 388.8,-2115.12"/>
<polygon fill="none" stroke="#3fc3e8" points="392.79,-2111.7 392.79,-2140.3 317.91,-2152 221.19,-2152 146.3,-2140.3 146.3,-2111.7 221.19,-2100 317.91,-2100 392.79,-2111.7"/>
<text text-anchor="middle" x="269.55" y="-2122.3" font-family="Roboto" font-size="14.00" fill="#000000">platformio (171.05 MiB)</text>
</g>
<!-- N4 -->
<g id="node36" class="node">
<title>N4</title>
<polygon fill="#3ed4ea" stroke="#3ed4ea" points="429.42,-1978.54 429.42,-1993.46 335.77,-2004 203.32,-2004 109.67,-1993.46 109.67,-1978.54 203.32,-1968 335.77,-1968 429.42,-1978.54"/>
<polygon fill="none" stroke="#3ed4ea" points="433.43,-1974.97 433.43,-1997.03 335.99,-2008 203.1,-2008 105.66,-1997.03 105.66,-1974.97 203.1,-1964 335.99,-1964 433.43,-1974.97"/>
<polygon fill="none" stroke="#3ed4ea" points="437.43,-1971.4 437.43,-2000.6 336.22,-2012 202.87,-2012 101.66,-2000.6 101.66,-1971.4 202.87,-1960 336.22,-1960 437.43,-1971.4"/>
<text text-anchor="middle" x="269.55" y="-1982.3" font-family="Roboto" font-size="14.00" fill="#000000">glibc&#45;locales&#45;2.32&#45;10 (214.79 MiB)</text>
</g>
<!-- N20&#45;&gt;N4 -->
<g id="edge6" class="edge">
<title>N20&#45;&gt;N4</title>
<path fill="none" stroke="black" d="M152.69,-2141.34C98.37,-2141.16 39.51,-2128.63 10.69,-2082 -1.46,-2062.34 -1.46,-2049.66 10.69,-2030 15.39,-2022.39 20.16,-2023.68 28.69,-2021 51.63,-2013.8 76.28,-2008.08 100.74,-2003.52"/>
<polygon fill="black" stroke="black" points="101.61,-2006.92 110.83,-2001.7 100.37,-2000.03 101.61,-2006.92"/>
</g>
<!-- N36 -->
<g id="node44" class="node">
<title>N36</title>
<polygon fill="#3fbce8" stroke="#3fbce8" points="759.4,-2109 546.4,-2109 546.4,-2073 759.4,-2073 759.4,-2109"/>
<text text-anchor="middle" x="652.9" y="-2087.3" font-family="Roboto" font-size="14.00" fill="#000000">glibc&#45;multi&#45;2.32&#45;10 (153.04 MiB)</text>
</g>
<!-- N20&#45;&gt;N36 -->
<g id="edge7" class="edge">
<title>N20&#45;&gt;N36</title>
<path fill="none" stroke="black" d="M393.05,-2114.76C438.91,-2110.55 490.83,-2105.78 536.07,-2101.63"/>
<polygon fill="black" stroke="black" points="536.58,-2105.1 546.22,-2100.7 535.94,-2098.13 536.58,-2105.1"/>
</g>
<!-- N19 -->
<g id="node14" class="node">
<title>N19</title>
<polygon fill="#3ceeea" stroke="#3ceeea" points="465.18,-2188.54 465.18,-2203.46 350.58,-2214 188.51,-2214 73.91,-2203.46 73.91,-2188.54 188.51,-2178 350.58,-2178 465.18,-2188.54"/>
<polygon fill="none" stroke="#3ceeea" points="469.19,-2184.9 469.19,-2207.1 350.77,-2218 188.33,-2218 69.91,-2207.1 69.91,-2184.9 188.33,-2174 350.77,-2174 469.19,-2184.9"/>
<polygon fill="none" stroke="#3ceeea" points="473.19,-2181.25 473.19,-2210.75 350.95,-2222 188.14,-2222 65.9,-2210.75 65.9,-2181.25 188.14,-2170 350.95,-2170 473.19,-2181.25"/>
<text text-anchor="middle" x="269.55" y="-2192.3" font-family="Roboto" font-size="14.00" fill="#000000">spotify&#45;1.1.46.916.g416cacf1 (294.65 MiB)</text>
</g>
<!-- N18 -->
<g id="node15" class="node">
<title>N18</title>
<polygon fill="#c1ff2c" stroke="#c1ff2c" points="417.5,-788.54 417.5,-803.46 330.83,-814 208.26,-814 121.59,-803.46 121.59,-788.54 208.26,-778 330.83,-778 417.5,-788.54"/>
<polygon fill="none" stroke="#c1ff2c" points="421.51,-785 421.51,-807 331.07,-818 208.02,-818 117.58,-807 117.58,-785 208.02,-774 331.07,-774 421.51,-785"/>
<polygon fill="none" stroke="#c1ff2c" points="425.51,-781.46 425.51,-810.54 331.32,-822 207.77,-822 113.58,-810.54 113.58,-781.46 207.77,-770 331.32,-770 425.51,-781.46"/>
<text text-anchor="middle" x="269.55" y="-792.3" font-family="Roboto" font-size="14.00" fill="#000000">clang&#45;tools&#45;11.0.0 (832.53 MiB)</text>
</g>
<!-- N34 -->
<g id="node45" class="node">
<title>N34</title>
<polygon fill="#40a5e5" stroke="#40a5e5" points="980.4,-779 795.4,-779 795.4,-743 980.4,-743 980.4,-779"/>
<text text-anchor="middle" x="887.9" y="-757.3" font-family="Roboto" font-size="14.00" fill="#ffffff">llvm&#45;11.0.0&#45;lib (102.38 MiB)</text>
</g>
<!-- N18&#45;&gt;N34 -->
<g id="edge8" class="edge">
<title>N18&#45;&gt;N34</title>
<path fill="none" stroke="black" d="M425.28,-787.21C537.9,-780.82 687.23,-772.34 785.13,-766.78"/>
<polygon fill="black" stroke="black" points="785.54,-770.26 795.32,-766.2 785.14,-763.27 785.54,-770.26"/>
</g>
<!-- N31 -->
<g id="node46" class="node">
<title>N31</title>
<polygon fill="#3faae6" stroke="#3faae6" points="741.9,-1549 563.9,-1549 563.9,-1513 741.9,-1513 741.9,-1549"/>
<text text-anchor="middle" x="652.9" y="-1527.3" font-family="Roboto" font-size="14.00" fill="#ffffff">opencv&#45;4.3.0 (111.91 MiB)</text>
</g>
<!-- N17&#45;&gt;N31 -->
<g id="edge9" class="edge">
<title>N17&#45;&gt;N31</title>
<path fill="none" stroke="black" d="M410.65,-1553.14C458.16,-1548.78 510.18,-1544.01 553.71,-1540.01"/>
<polygon fill="black" stroke="black" points="554.09,-1543.49 563.73,-1539.09 553.45,-1536.52 554.09,-1543.49"/>
</g>
<!-- N16 -->
<g id="node17" class="node">
<title>N16</title>
<polygon fill="#3fb0e7" stroke="#3fb0e7" points="440.03,-2258.54 440.03,-2273.46 340.16,-2284 198.93,-2284 99.07,-2273.46 99.07,-2258.54 198.93,-2248 340.16,-2248 440.03,-2258.54"/>
<polygon fill="none" stroke="#3fb0e7" points="444.03,-2254.94 444.03,-2277.06 340.37,-2288 198.72,-2288 95.06,-2277.06 95.06,-2254.94 198.72,-2244 340.37,-2244 444.03,-2254.94"/>
<polygon fill="none" stroke="#3fb0e7" points="448.04,-2251.35 448.04,-2280.65 340.58,-2292 198.51,-2292 91.06,-2280.65 91.06,-2251.35 198.51,-2240 340.58,-2240 448.04,-2251.35"/>
<text text-anchor="middle" x="269.55" y="-2262.3" font-family="Roboto" font-size="14.00" fill="#ffffff">telegram&#45;desktop&#45;2.5.1 (126.80 MiB)</text>
</g>
<!-- N15 -->
<g id="node18" class="node">
<title>N15</title>
<polygon fill="#36f78b" stroke="#36f78b" points="466.5,-438.54 466.5,-453.46 351.13,-464 187.96,-464 72.59,-453.46 72.59,-438.54 187.96,-428 351.13,-428 466.5,-438.54"/>
<polygon fill="none" stroke="#36f78b" points="470.5,-434.89 470.5,-457.11 351.31,-468 187.78,-468 68.59,-457.11 68.59,-434.89 187.78,-424 351.31,-424 470.5,-434.89"/>
<polygon fill="none" stroke="#36f78b" points="474.5,-431.24 474.5,-460.76 351.49,-472 187.6,-472 64.59,-460.76 64.59,-431.24 187.6,-420 351.49,-420 474.5,-431.24"/>
<text text-anchor="middle" x="269.55" y="-442.3" font-family="Roboto" font-size="14.00" fill="#000000">tor&#45;browser&#45;bundle&#45;bin&#45;10.0.7 (527.27 MiB)</text>
</g>
<!-- N15&#45;&gt;N30 -->
<g id="edge10" class="edge">
<title>N15&#45;&gt;N30</title>
<path fill="none" stroke="black" d="M453.13,-429.24C487.68,-426.07 522.58,-422.87 553.3,-420.05"/>
<polygon fill="black" stroke="black" points="553.91,-423.51 563.54,-419.11 553.27,-416.54 553.91,-423.51"/>
</g>
<!-- N14 -->
<g id="node19" class="node">
<title>N14</title>
<polygon fill="#3fc3e8" stroke="#3fc3e8" points="391.44,-2328.54 391.44,-2343.46 320.04,-2354 219.05,-2354 147.65,-2343.46 147.65,-2328.54 219.05,-2318 320.04,-2318 391.44,-2328.54"/>
<polygon fill="none" stroke="#3fc3e8" points="395.45,-2325.09 395.45,-2346.91 320.33,-2358 218.76,-2358 143.64,-2346.91 143.64,-2325.09 218.76,-2314 320.33,-2314 395.45,-2325.09"/>
<polygon fill="none" stroke="#3fc3e8" points="399.45,-2321.64 399.45,-2350.36 320.63,-2362 218.47,-2362 139.64,-2350.36 139.64,-2321.64 218.47,-2310 320.63,-2310 399.45,-2321.64"/>
<text text-anchor="middle" x="269.55" y="-2332.3" font-family="Roboto" font-size="14.00" fill="#000000">zeal&#45;0.6.999 (171.12 MiB)</text>
</g>
<!-- N13 -->
<g id="node20" class="node">
<title>N13</title>
<polygon fill="#eeff20" stroke="#eeff20" points="397.62,-1068.54 397.62,-1083.46 322.59,-1094 216.5,-1094 141.48,-1083.46 141.48,-1068.54 216.5,-1058 322.59,-1058 397.62,-1068.54"/>
<polygon fill="none" stroke="#eeff20" points="401.62,-1065.07 401.62,-1086.93 322.87,-1098 216.22,-1098 137.48,-1086.93 137.48,-1065.07 216.22,-1054 322.87,-1054 401.62,-1065.07"/>
<polygon fill="none" stroke="#eeff20" points="405.62,-1061.59 405.62,-1090.41 323.15,-1102 215.94,-1102 133.47,-1090.41 133.47,-1061.59 215.94,-1050 323.15,-1050 405.62,-1061.59"/>
<text text-anchor="middle" x="269.55" y="-1072.3" font-family="Roboto" font-size="14.00" fill="#000000">bookworm&#45;1.1.2 (1.07 GiB)</text>
</g>
<!-- N29 -->
<g id="node47" class="node">
<title>N29</title>
<polygon fill="#3fc1e8" stroke="#3fc1e8" points="734.4,-1164 571.4,-1164 571.4,-1128 734.4,-1128 734.4,-1164"/>
<text text-anchor="middle" x="652.9" y="-1142.3" font-family="Roboto" font-size="14.00" fill="#000000">gcc&#45;10.2.0 (166.89 MiB)</text>
</g>
<!-- N13&#45;&gt;N29 -->
<g id="edge11" class="edge">
<title>N13&#45;&gt;N29</title>
<path fill="none" stroke="black" d="M395.43,-1091.87C432.56,-1097.22 473.24,-1103.71 510.4,-1111 531.41,-1115.12 553.99,-1120.34 574.8,-1125.48"/>
<polygon fill="black" stroke="black" points="574,-1128.89 584.55,-1127.92 575.69,-1122.1 574,-1128.89"/>
</g>
<!-- N32 -->
<g id="node48" class="node">
<title>N32</title>
<polygon fill="#40a8e6" stroke="#40a8e6" points="752.9,-1059 552.9,-1059 552.9,-1023 752.9,-1023 752.9,-1059"/>
<text text-anchor="middle" x="652.9" y="-1037.3" font-family="Roboto" font-size="14.00" fill="#ffffff">webkitgtk&#45;2.30.3 (108.36 MiB)</text>
</g>
<!-- N13&#45;&gt;N32 -->
<g id="edge12" class="edge">
<title>N13&#45;&gt;N32</title>
<path fill="none" stroke="black" d="M405.8,-1063.59C450.61,-1059.47 499.9,-1054.95 542.52,-1051.04"/>
<polygon fill="black" stroke="black" points="542.99,-1054.51 552.63,-1050.11 542.35,-1047.54 542.99,-1054.51"/>
</g>
<!-- N40 -->
<g id="node21" class="node">
<title>N40</title>
<polygon fill="#4170e1" stroke="#4170e1" points="486.81,-2468.54 486.81,-2483.46 359.54,-2494 179.55,-2494 52.28,-2483.46 52.28,-2468.54 179.55,-2458 359.54,-2458 486.81,-2468.54"/>
<polygon fill="none" stroke="#4170e1" points="490.81,-2464.86 490.81,-2487.14 359.7,-2498 179.39,-2498 48.29,-2487.14 48.29,-2464.86 179.39,-2454 359.7,-2454 490.81,-2464.86"/>
<polygon fill="none" stroke="#4170e1" points="494.8,-2461.18 494.8,-2490.82 359.87,-2502 179.22,-2502 44.29,-2490.82 44.29,-2461.18 179.22,-2450 359.87,-2450 494.8,-2461.18"/>
<text text-anchor="middle" x="269.55" y="-2472.3" font-family="Roboto" font-size="14.00" fill="#ffffff">papirus&#45;maia&#45;icon&#45;theme&#45;2019&#45;07&#45;26 (8.96 MiB)</text>
</g>
<!-- N5 -->
<g id="node34" class="node">
<title>N5</title>
<polygon fill="#3ecde9" stroke="#3ecde9" points="467.82,-2398.54 467.82,-2413.46 351.67,-2424 187.42,-2424 71.27,-2413.46 71.27,-2398.54 187.42,-2388 351.67,-2388 467.82,-2398.54"/>
<polygon fill="none" stroke="#3ecde9" points="471.82,-2394.89 471.82,-2417.11 351.85,-2428 187.24,-2428 67.27,-2417.11 67.27,-2394.89 187.24,-2384 351.85,-2384 471.82,-2394.89"/>
<polygon fill="none" stroke="#3ecde9" points="475.82,-2391.24 475.82,-2420.76 352.04,-2432 187.06,-2432 63.28,-2420.76 63.28,-2391.24 187.06,-2380 352.04,-2380 475.82,-2391.24"/>
<text text-anchor="middle" x="269.55" y="-2402.3" font-family="Roboto" font-size="14.00" fill="#000000">papirus&#45;icon&#45;theme&#45;20200901 (195.76 MiB)</text>
</g>
<!-- N40&#45;&gt;N5 -->
<g id="edge13" class="edge">
<title>N40&#45;&gt;N5</title>
<path fill="none" stroke="black" d="M269.55,-2449.68C269.55,-2447.23 269.55,-2444.78 269.55,-2442.33"/>
<polygon fill="black" stroke="black" points="273.05,-2442.25 269.55,-2432.25 266.05,-2442.25 273.05,-2442.25"/>
</g>
<!-- N12 -->
<g id="node22" class="node">
<title>N12</title>
<polygon fill="#3deaed" stroke="#3deaed" points="397.62,-2538.54 397.62,-2553.46 322.59,-2564 216.5,-2564 141.48,-2553.46 141.48,-2538.54 216.5,-2528 322.59,-2528 397.62,-2538.54"/>
<polygon fill="none" stroke="#3deaed" points="401.62,-2535.07 401.62,-2556.93 322.87,-2568 216.22,-2568 137.48,-2556.93 137.48,-2535.07 216.22,-2524 322.87,-2524 401.62,-2535.07"/>
<polygon fill="none" stroke="#3deaed" points="405.62,-2531.59 405.62,-2560.41 323.15,-2572 215.94,-2572 133.47,-2560.41 133.47,-2531.59 215.94,-2520 323.15,-2520 405.62,-2531.59"/>
<text text-anchor="middle" x="269.55" y="-2542.3" font-family="Roboto" font-size="14.00" fill="#000000">calibre&#45;4.23.0 (274.72 MiB)</text>
</g>
<!-- N11 -->
<g id="node23" class="node">
<title>N11</title>
<polygon fill="#3fbfe8" stroke="#3fbfe8" points="395.4,-928.54 395.4,-943.46 321.68,-954 217.42,-954 143.69,-943.46 143.69,-928.54 217.42,-918 321.68,-918 395.4,-928.54"/>
<polygon fill="none" stroke="#3fbfe8" points="399.4,-925.08 399.4,-946.92 321.96,-958 217.13,-958 139.69,-946.92 139.69,-925.08 217.13,-914 321.96,-914 399.4,-925.08"/>
<polygon fill="none" stroke="#3fbfe8" points="403.4,-921.61 403.4,-950.39 322.25,-962 216.85,-962 135.7,-950.39 135.7,-921.61 216.85,-910 322.25,-910 403.4,-921.61"/>
<text text-anchor="middle" x="269.55" y="-932.3" font-family="Roboto" font-size="14.00" fill="#000000">gimp&#45;2.10.22 (162.02 MiB)</text>
</g>
<!-- N11&#45;&gt;N35 -->
<g id="edge16" class="edge">
<title>N11&#45;&gt;N35</title>
<path fill="none" stroke="black" d="M403.66,-923.78C458.02,-918.79 519.28,-913.17 567.33,-908.76"/>
<polygon fill="black" stroke="black" points="567.74,-912.24 577.38,-907.84 567.1,-905.27 567.74,-912.24"/>
</g>
<!-- N11&#45;&gt;N33 -->
<g id="edge15" class="edge">
<title>N11&#45;&gt;N33</title>
<path fill="none" stroke="black" d="M403.6,-934.21C440.05,-929.14 478.32,-919.28 510.4,-901 542.32,-882.81 603.7,-796.92 634.03,-752.6"/>
<polygon fill="black" stroke="black" points="637.1,-754.31 639.84,-744.07 631.32,-750.37 637.1,-754.31"/>
</g>
<!-- N11&#45;&gt;N29 -->
<g id="edge14" class="edge">
<title>N11&#45;&gt;N29</title>
<path fill="none" stroke="black" d="M403.61,-930.82C441.5,-935.47 480.55,-946.85 510.4,-971 546.15,-999.92 518.76,-1031.25 546.4,-1068 563.13,-1090.24 587.92,-1109.02 609.26,-1122.57"/>
<polygon fill="black" stroke="black" points="607.51,-1125.6 617.86,-1127.87 611.18,-1119.64 607.51,-1125.6"/>
</g>
<!-- N10 -->
<g id="node24" class="node">
<title>N10</title>
<polygon fill="#38f5ab" stroke="#38f5ab" points="434.7,-368.54 434.7,-383.46 337.95,-394 201.14,-394 104.4,-383.46 104.4,-368.54 201.14,-358 337.95,-358 434.7,-368.54"/>
<polygon fill="none" stroke="#38f5ab" points="438.69,-364.96 438.69,-387.04 338.17,-398 200.92,-398 100.4,-387.04 100.4,-364.96 200.92,-354 338.17,-354 438.69,-364.96"/>
<polygon fill="none" stroke="#38f5ab" points="442.69,-361.37 442.69,-390.63 338.39,-402 200.7,-402 96.4,-390.63 96.4,-361.37 200.7,-350 338.39,-350 442.69,-361.37"/>
<text text-anchor="middle" x="269.55" y="-372.3" font-family="Roboto" font-size="14.00" fill="#000000">kodi&#45;with&#45;plugins&#45;18.9 (470.69 MiB)</text>
</g>
<!-- N10&#45;&gt;N30 -->
<g id="edge17" class="edge">
<title>N10&#45;&gt;N30</title>
<path fill="none" stroke="black" d="M436.98,-391.28C476.69,-394.92 517.82,-398.69 553.34,-401.95"/>
<polygon fill="black" stroke="black" points="553.4,-405.47 563.68,-402.9 554.04,-398.5 553.4,-405.47"/>
</g>
<!-- N41 -->
<g id="node25" class="node">
<title>N41</title>
<polygon fill="#416ce1" stroke="#416ce1" points="387.01,-1418.54 387.01,-1433.46 318.2,-1444 220.89,-1444 152.08,-1433.46 152.08,-1418.54 220.89,-1408 318.2,-1408 387.01,-1418.54"/>
<polygon fill="none" stroke="#416ce1" points="391.01,-1415.11 391.01,-1436.89 318.51,-1448 220.58,-1448 148.08,-1436.89 148.08,-1415.11 220.58,-1404 318.51,-1404 391.01,-1415.11"/>
<polygon fill="none" stroke="#416ce1" points="395.01,-1411.68 395.01,-1440.32 318.81,-1452 220.28,-1452 144.08,-1440.32 144.08,-1411.68 220.28,-1400 318.81,-1400 395.01,-1411.68"/>
<text text-anchor="middle" x="269.55" y="-1422.3" font-family="Roboto" font-size="14.00" fill="#ffffff">nethack&#45;3.6.6 (4.60 MiB)</text>
</g>
<!-- N41&#45;&gt;N29 -->
<g id="edge18" class="edge">
<title>N41&#45;&gt;N29</title>
<path fill="none" stroke="black" d="M395.02,-1428.68C434.66,-1424.32 476.88,-1413.74 510.4,-1391 588.56,-1337.99 629.13,-1226.42 644.49,-1174.15"/>
<polygon fill="black" stroke="black" points="647.94,-1174.8 647.31,-1164.23 641.21,-1172.89 647.94,-1174.8"/>
</g>
<!-- N42 -->
<g id="node26" class="node">
<title>N42</title>
<polygon fill="#4169e1" stroke="#4169e1" points="394.08,-718.54 394.08,-733.46 321.13,-744 217.96,-744 145.01,-733.46 145.01,-718.54 217.96,-708 321.13,-708 394.08,-718.54"/>
<polygon fill="none" stroke="#4169e1" points="398.08,-715.08 398.08,-736.92 321.42,-748 217.67,-748 141.01,-736.92 141.01,-715.08 217.67,-704 321.42,-704 398.08,-715.08"/>
<polygon fill="none" stroke="#4169e1" points="402.08,-711.62 402.08,-740.38 321.71,-752 217.39,-752 137.01,-740.38 137.01,-711.62 217.39,-700 321.71,-700 402.08,-711.62"/>
<text text-anchor="middle" x="269.55" y="-722.3" font-family="Roboto" font-size="14.00" fill="#ffffff">arandr&#45;0.1.10 (205.52 KiB)</text>
</g>
<!-- N42&#45;&gt;N33 -->
<g id="edge19" class="edge">
<title>N42&#45;&gt;N33</title>
<path fill="none" stroke="black" d="M402.32,-726C449.66,-726 502.36,-726 547.1,-726"/>
<polygon fill="black" stroke="black" points="547.11,-729.5 557.11,-726 547.11,-722.5 547.11,-729.5"/>
</g>
<!-- N9 -->
<g id="node27" class="node">
<title>N9</title>
<polygon fill="#ffe90e" stroke="#ffe90e" points="354.78,-2048.54 354.78,-2063.46 304.85,-2074 234.24,-2074 184.31,-2063.46 184.31,-2048.54 234.24,-2038 304.85,-2038 354.78,-2048.54"/>
<polygon fill="none" stroke="#ffe90e" points="358.79,-2045.3 358.79,-2066.7 305.27,-2078 233.82,-2078 180.31,-2066.7 180.31,-2045.3 233.82,-2034 305.27,-2034 358.79,-2045.3"/>
<polygon fill="none" stroke="#ffe90e" points="362.79,-2042.06 362.79,-2069.94 305.69,-2082 233.4,-2082 176.3,-2069.94 176.3,-2042.06 233.4,-2030 305.69,-2030 362.79,-2042.06"/>
<text text-anchor="middle" x="269.55" y="-2052.3" font-family="Roboto" font-size="14.00" fill="#000000">steam (1.33 GiB)</text>
</g>
<!-- N9&#45;&gt;N4 -->
<g id="edge20" class="edge">
<title>N9&#45;&gt;N4</title>
<path fill="none" stroke="black" d="M269.55,-2029.68C269.55,-2027.23 269.55,-2024.78 269.55,-2022.33"/>
<polygon fill="black" stroke="black" points="273.05,-2022.25 269.55,-2012.25 266.05,-2022.25 273.05,-2022.25"/>
</g>
<!-- N9&#45;&gt;N36 -->
<g id="edge21" class="edge">
<title>N9&#45;&gt;N36</title>
<path fill="none" stroke="black" d="M362.86,-2064.47C414.95,-2069.25 480.52,-2075.27 536.04,-2080.37"/>
<polygon fill="black" stroke="black" points="536,-2083.88 546.28,-2081.31 536.64,-2076.91 536,-2083.88"/>
</g>
<!-- N43 -->
<g id="node28" class="node">
<title>N43</title>
<polygon fill="#4174e2" stroke="#4174e2" points="397.62,-648.54 397.62,-663.46 322.59,-674 216.5,-674 141.48,-663.46 141.48,-648.54 216.5,-638 322.59,-638 397.62,-648.54"/>
<polygon fill="none" stroke="#4174e2" points="401.62,-645.07 401.62,-666.93 322.87,-678 216.22,-678 137.48,-666.93 137.48,-645.07 216.22,-634 322.87,-634 401.62,-645.07"/>
<polygon fill="none" stroke="#4174e2" points="405.62,-641.59 405.62,-670.41 323.15,-682 215.94,-682 133.47,-670.41 133.47,-641.59 215.94,-630 323.15,-630 405.62,-641.59"/>
<text text-anchor="middle" x="269.55" y="-652.3" font-family="Roboto" font-size="14.00" fill="#ffffff">tigervnc&#45;1.10.1 (15.63 MiB)</text>
</g>
<!-- N43&#45;&gt;N33 -->
<g id="edge22" class="edge">
<title>N43&#45;&gt;N33</title>
<path fill="none" stroke="black" d="M395.43,-671.87C432.56,-677.22 473.24,-683.71 510.4,-691 531.41,-695.12 553.99,-700.34 574.8,-705.48"/>
<polygon fill="black" stroke="black" points="574,-708.89 584.55,-707.92 575.69,-702.1 574,-708.89"/>
</g>
<!-- N8 -->
<g id="node29" class="node">
<title>N8</title>
<polygon fill="#3fc2e8" stroke="#3fc2e8" points="413.07,-1348.54 413.07,-1363.46 329,-1374 210.1,-1374 126.02,-1363.46 126.02,-1348.54 210.1,-1338 329,-1338 413.07,-1348.54"/>
<polygon fill="none" stroke="#3fc2e8" points="417.07,-1345.01 417.07,-1366.99 329.25,-1378 209.85,-1378 122.02,-1366.99 122.02,-1345.01 209.85,-1334 329.25,-1334 417.07,-1345.01"/>
<polygon fill="none" stroke="#3fc2e8" points="421.07,-1341.48 421.07,-1370.52 329.5,-1382 209.6,-1382 118.02,-1370.52 118.02,-1341.48 209.6,-1330 329.5,-1330 421.07,-1341.48"/>
<text text-anchor="middle" x="269.55" y="-1352.3" font-family="Roboto" font-size="14.00" fill="#000000">upwork&#45;5.3.3.862 (168.29 MiB)</text>
</g>
<!-- N44 -->
<g id="node39" class="node">
<title>N44</title>
<polygon fill="#4169e1" stroke="#4169e1" points="414.39,-1138.54 414.39,-1153.46 329.54,-1164 209.55,-1164 124.7,-1153.46 124.7,-1138.54 209.55,-1128 329.54,-1128 414.39,-1138.54"/>
<polygon fill="none" stroke="#4169e1" points="418.39,-1135.01 418.39,-1156.99 329.79,-1168 209.3,-1168 120.7,-1156.99 120.7,-1135.01 209.3,-1124 329.79,-1124 418.39,-1135.01"/>
<polygon fill="none" stroke="#4169e1" points="422.38,-1131.48 422.38,-1160.52 330.04,-1172 209.06,-1172 116.71,-1160.52 116.71,-1131.48 209.06,-1120 330.04,-1120 422.38,-1131.48"/>
<text text-anchor="middle" x="269.55" y="-1142.3" font-family="Roboto" font-size="14.00" fill="#ffffff">gcc&#45;wrapper&#45;10.2.0 (42.51 KiB)</text>
</g>
<!-- N8&#45;&gt;N44 -->
<g id="edge23" class="edge">
<title>N8&#45;&gt;N44</title>
<path fill="none" stroke="black" d="M117.85,-1369.35C74.76,-1364.31 33.4,-1348.74 10.69,-1312 -3.56,-1288.94 -3.56,-1213.06 10.69,-1190 31.4,-1156.49 67.63,-1140.59 106.54,-1134.23"/>
<polygon fill="black" stroke="black" points="107.08,-1137.69 116.48,-1132.81 106.09,-1130.76 107.08,-1137.69"/>
</g>
<!-- N7 -->
<g id="node30" class="node">
<title>N7</title>
<polygon fill="#a8ff2f" stroke="#a8ff2f" points="502.26,-2608.54 502.26,-2623.46 365.94,-2634 173.15,-2634 36.83,-2623.46 36.83,-2608.54 173.15,-2598 365.94,-2598 502.26,-2608.54"/>
<polygon fill="none" stroke="#a8ff2f" points="506.26,-2604.84 506.26,-2627.16 366.09,-2638 173,-2638 32.83,-2627.16 32.83,-2604.84 173,-2594 366.09,-2594 506.26,-2604.84"/>
<polygon fill="none" stroke="#a8ff2f" points="510.26,-2601.14 510.26,-2630.86 366.25,-2642 172.84,-2642 28.83,-2630.86 28.83,-2601.14 172.84,-2590 366.25,-2590 510.26,-2601.14"/>
<text text-anchor="middle" x="269.55" y="-2612.3" font-family="Roboto" font-size="14.00" fill="#000000">gcc&#45;arm&#45;embedded&#45;10&#45;2020&#45;q4&#45;major (728.29 MiB)</text>
</g>
<!-- N45 -->
<g id="node31" class="node">
<title>N45</title>
<polygon fill="#4085e3" stroke="#4085e3" points="386.12,-998.54 386.12,-1013.46 317.83,-1024 221.26,-1024 152.97,-1013.46 152.97,-998.54 221.26,-988 317.83,-988 386.12,-998.54"/>
<polygon fill="none" stroke="#4085e3" points="390.11,-995.11 390.11,-1016.89 318.14,-1028 220.95,-1028 148.98,-1016.89 148.98,-995.11 220.95,-984 318.14,-984 390.11,-995.11"/>
<polygon fill="none" stroke="#4085e3" points="394.11,-991.68 394.11,-1020.32 318.44,-1032 220.65,-1032 144.99,-1020.32 144.99,-991.68 220.65,-980 318.44,-980 394.11,-991.68"/>
<text text-anchor="middle" x="269.55" y="-1002.3" font-family="Roboto" font-size="14.00" fill="#ffffff">astroid&#45;0.15 (41.89 MiB)</text>
</g>
<!-- N45&#45;&gt;N32 -->
<g id="edge24" class="edge">
<title>N45&#45;&gt;N32</title>
<path fill="none" stroke="black" d="M394.36,-1017.36C442.18,-1021.75 496.42,-1026.73 542.75,-1030.98"/>
<polygon fill="black" stroke="black" points="542.54,-1034.48 552.82,-1031.91 543.18,-1027.51 542.54,-1034.48"/>
</g>
<!-- N46 -->
<g id="node32" class="node">
<title>N46</title>
<polygon fill="#408ee4" stroke="#408ee4" points="399.83,-1278.54 399.83,-1293.46 323.51,-1304 215.58,-1304 139.26,-1293.46 139.26,-1278.54 215.58,-1268 323.51,-1268 399.83,-1278.54"/>
<polygon fill="none" stroke="#408ee4" points="403.83,-1275.06 403.83,-1296.94 323.79,-1308 215.3,-1308 135.26,-1296.94 135.26,-1275.06 215.3,-1264 323.79,-1264 403.83,-1275.06"/>
<polygon fill="none" stroke="#408ee4" points="407.84,-1271.57 407.84,-1300.43 324.06,-1312 215.03,-1312 131.25,-1300.43 131.25,-1271.57 215.03,-1260 324.06,-1260 407.84,-1271.57"/>
<text text-anchor="middle" x="269.55" y="-1282.3" font-family="Roboto" font-size="14.00" fill="#ffffff">neovim&#45;master (58.13 MiB)</text>
</g>
<!-- N46&#45;&gt;N44 -->
<g id="edge25" class="edge">
<title>N46&#45;&gt;N44</title>
<path fill="none" stroke="black" d="M133.24,-1300.72C84.84,-1297.71 36.09,-1283.1 10.69,-1242 -1.46,-1222.34 -1.46,-1209.66 10.69,-1190 15.39,-1182.39 20.16,-1183.68 28.69,-1181 53.63,-1173.18 80.57,-1167.09 107.1,-1162.36"/>
<polygon fill="black" stroke="black" points="107.98,-1165.76 117.24,-1160.61 106.79,-1158.86 107.98,-1165.76"/>
</g>
<!-- N6 -->
<g id="node33" class="node">
<title>N6</title>
<polygon fill="#3deaed" stroke="#3deaed" points="468.72,-2678.54 468.72,-2693.46 352.05,-2704 187.05,-2704 70.37,-2693.46 70.37,-2678.54 187.05,-2668 352.05,-2668 468.72,-2678.54"/>
<polygon fill="none" stroke="#3deaed" points="472.72,-2674.89 472.72,-2697.11 352.23,-2708 186.87,-2708 66.37,-2697.11 66.37,-2674.89 186.87,-2664 352.23,-2664 472.72,-2674.89"/>
<polygon fill="none" stroke="#3deaed" points="476.72,-2671.23 476.72,-2700.77 352.41,-2712 186.68,-2712 62.37,-2700.77 62.37,-2671.23 186.68,-2660 352.41,-2660 476.72,-2671.23"/>
<text text-anchor="middle" x="269.55" y="-2682.3" font-family="Roboto" font-size="14.00" fill="#000000">google&#45;chrome&#45;87.0.4280.141 (274.13 MiB)</text>
</g>
<!-- N47 -->
<g id="node35" class="node">
<title>N47</title>
<polygon fill="#4170e1" stroke="#4170e1" points="408.64,-1488.54 408.64,-1503.46 327.16,-1514 211.93,-1514 130.45,-1503.46 130.45,-1488.54 211.93,-1478 327.16,-1478 408.64,-1488.54"/>
<polygon fill="none" stroke="#4170e1" points="412.63,-1485.03 412.63,-1506.97 327.42,-1518 211.67,-1518 126.46,-1506.97 126.46,-1485.03 211.67,-1474 327.42,-1474 412.63,-1485.03"/>
<polygon fill="none" stroke="#4170e1" points="416.63,-1481.51 416.63,-1510.49 327.67,-1522 211.42,-1522 122.46,-1510.49 122.46,-1481.51 211.42,-1470 327.67,-1470 416.63,-1481.51"/>
<text text-anchor="middle" x="269.55" y="-1492.3" font-family="Roboto" font-size="14.00" fill="#ffffff">nomacs&#45;3.17.2206 (8.78 MiB)</text>
</g>
<!-- N47&#45;&gt;N31 -->
<g id="edge27" class="edge">
<title>N47&#45;&gt;N31</title>
<path fill="none" stroke="black" d="M416.9,-1509.43C462.69,-1513.63 512.1,-1518.17 553.74,-1521.99"/>
<polygon fill="black" stroke="black" points="553.59,-1525.49 563.87,-1522.92 554.23,-1518.52 553.59,-1525.49"/>
</g>
<!-- N47&#45;&gt;N29 -->
<g id="edge26" class="edge">
<title>N47&#45;&gt;N29</title>
<path fill="none" stroke="black" d="M416.67,-1497.88C450.04,-1492.31 483.53,-1481.29 510.4,-1461 606.06,-1388.77 638.61,-1237.23 648.28,-1174.32"/>
<polygon fill="black" stroke="black" points="651.76,-1174.72 649.73,-1164.32 644.83,-1173.71 651.76,-1174.72"/>
</g>
<!-- N3 -->
<g id="node37" class="node">
<title>N3</title>
<polygon fill="#40a8e6" stroke="#40a8e6" points="440.45,-298.54 440.45,-313.46 340.33,-324 198.76,-324 98.65,-313.46 98.65,-298.54 198.76,-288 340.33,-288 440.45,-298.54"/>
<polygon fill="none" stroke="#40a8e6" points="444.44,-294.94 444.44,-317.06 340.54,-328 198.55,-328 94.65,-317.06 94.65,-294.94 198.55,-284 340.54,-284 444.44,-294.94"/>
<polygon fill="none" stroke="#40a8e6" points="448.44,-291.34 448.44,-320.66 340.75,-332 198.34,-332 90.65,-320.66 90.65,-291.34 198.34,-280 340.75,-280 448.44,-291.34"/>
<text text-anchor="middle" x="269.55" y="-302.3" font-family="Roboto" font-size="14.00" fill="#ffffff">mpv&#45;with&#45;scripts&#45;0.32.0 (108.91 MiB)</text>
</g>
<!-- N3&#45;&gt;N30 -->
<g id="edge28" class="edge">
<title>N3&#45;&gt;N30</title>
<path fill="none" stroke="black" d="M432.1,-322.46C458.58,-327.18 485.49,-333.24 510.4,-341 546.96,-352.39 585.76,-372.2 613.46,-387.84"/>
<polygon fill="black" stroke="black" points="612,-391.04 622.41,-392.97 615.48,-384.96 612,-391.04"/>
</g>
<!-- N2 -->
<g id="node38" class="node">
<title>N2</title>
<polygon fill="#ff0000" stroke="#ff0000" points="456.8,-1208.54 456.8,-1223.46 347.11,-1234 191.98,-1234 82.29,-1223.46 82.29,-1208.54 191.98,-1198 347.11,-1198 456.8,-1208.54"/>
<polygon fill="none" stroke="#ff0000" points="460.8,-1204.91 460.8,-1227.09 347.3,-1238 191.79,-1238 78.29,-1227.09 78.29,-1204.91 191.79,-1194 347.3,-1194 460.8,-1204.91"/>
<polygon fill="none" stroke="#ff0000" points="464.8,-1201.28 464.8,-1230.72 347.49,-1242 191.6,-1242 74.29,-1230.72 74.29,-1201.28 191.6,-1190 347.49,-1190 464.8,-1201.28"/>
<text text-anchor="middle" x="269.55" y="-1212.3" font-family="Roboto" font-size="14.00" fill="#000000">xmonad&#45;with&#45;packages&#45;8.10.3 (2.16 GiB)</text>
</g>
<!-- N2&#45;&gt;N44 -->
<g id="edge29" class="edge">
<title>N2&#45;&gt;N44</title>
<path fill="none" stroke="black" d="M269.55,-1189.68C269.55,-1187.23 269.55,-1184.78 269.55,-1182.33"/>
<polygon fill="black" stroke="black" points="273.05,-1182.25 269.55,-1172.25 266.05,-1182.25 273.05,-1182.25"/>
</g>
<!-- N44&#45;&gt;N29 -->
<g id="edge30" class="edge">
<title>N44&#45;&gt;N29</title>
<path fill="none" stroke="black" d="M422.64,-1146C469.62,-1146 519.87,-1146 561.31,-1146"/>
<polygon fill="black" stroke="black" points="561.38,-1149.5 571.38,-1146 561.38,-1142.5 561.38,-1149.5"/>
</g>
<!-- N1 -->
<g id="node40" class="node">
<title>N1</title>
<polygon fill="#3ec6e9" stroke="#3ec6e9" points="411.75,-2748.54 411.75,-2763.46 328.45,-2774 210.64,-2774 127.34,-2763.46 127.34,-2748.54 210.64,-2738 328.45,-2738 411.75,-2748.54"/>
<polygon fill="none" stroke="#3ec6e9" points="415.75,-2745.02 415.75,-2766.98 328.7,-2778 210.39,-2778 123.34,-2766.98 123.34,-2745.02 210.39,-2734 328.7,-2734 415.75,-2745.02"/>
<polygon fill="none" stroke="#3ec6e9" points="419.76,-2741.49 419.76,-2770.51 328.95,-2782 210.14,-2782 119.33,-2770.51 119.33,-2741.49 210.14,-2730 328.95,-2730 419.76,-2741.49"/>
<text text-anchor="middle" x="269.55" y="-2752.3" font-family="Roboto" font-size="14.00" fill="#000000">fritzing&#45;0.9.4&#45;498 (177.83 MiB)</text>
</g>
<!-- N33&#45;&gt;N34 -->
<g id="edge31" class="edge">
<title>N33&#45;&gt;N34</title>
<path fill="none" stroke="black" d="M748.67,-740.24C760.68,-742.04 773.01,-743.89 785.12,-745.71"/>
<polygon fill="black" stroke="black" points="784.82,-749.21 795.23,-747.23 785.86,-742.28 784.82,-749.21"/>
</g>
</g>
</svg>
