<?xml version="1.0" encoding="UTF-8" standalone="no"?>
<!DOCTYPE svg PUBLIC "-//W3C//DTD SVG 1.1//EN"
 "http://www.w3.org/Graphics/SVG/1.1/DTD/svg11.dtd">
<!-- Generated by graphviz version 2.43.0 (0)
 -->
<!-- Title: nixstore Pages: 1 -->
<svg width="762pt" height="2930pt"
 viewBox="0.00 0.00 762.36 2930.00" xmlns="http://www.w3.org/2000/svg" xmlns:xlink="http://www.w3.org/1999/xlink">
<g id="graph0" class="graph" transform="scale(1 1) rotate(0) translate(4 2926)">
<title>nixstore</title>
<polygon fill="white" stroke="transparent" points="-4,4 -4,-2926 758.36,-2926 758.36,4 -4,4"/>
<!-- N49 -->
<g id="node1" class="node">
<title>N49</title>
<polygon fill="#fe0000" stroke="#fe0000" points="352.53,-18.54 352.53,-33.46 287.34,-44 195.14,-44 129.94,-33.46 129.94,-18.54 195.14,-8 287.34,-8 352.53,-18.54"/>
<polygon fill="none" stroke="#fe0000" points="356.53,-15.14 356.53,-36.86 287.66,-48 194.81,-48 125.94,-36.86 125.94,-15.14 194.81,-4 287.66,-4 356.53,-15.14"/>
<polygon fill="none" stroke="#fe0000" points="360.54,-11.74 360.54,-40.26 287.98,-52 194.49,-52 121.93,-40.26 121.93,-11.74 194.49,0 287.98,0 360.54,-11.74"/>
<text text-anchor="middle" x="241.24" y="-22.3" font-family="Roboto" font-size="14.00" fill="#000000">{filtered out} (2.42 GiB)</text>
</g>
<!-- N35 -->
<g id="node2" class="node">
<title>N35</title>
<polygon fill="#408de3" stroke="#408de3" points="361.34,-158.54 361.34,-173.46 290.99,-184 191.49,-184 121.13,-173.46 121.13,-158.54 191.49,-148 290.99,-148 361.34,-158.54"/>
<polygon fill="none" stroke="#408de3" points="365.34,-155.1 365.34,-176.9 291.28,-188 191.19,-188 117.13,-176.9 117.13,-155.1 191.19,-144 291.28,-144 365.34,-155.1"/>
<polygon fill="none" stroke="#408de3" points="369.33,-151.65 369.33,-180.35 291.58,-192 190.89,-192 113.14,-180.35 113.14,-151.65 190.89,-140 291.58,-140 369.33,-151.65"/>
<text text-anchor="middle" x="241.24" y="-162.3" font-family="Roboto" font-size="14.00" fill="#ffffff">firefox&#45;76.0.1 (63.57 MiB)</text>
</g>
<!-- N23 -->
<g id="node9" class="node">
<title>N23</title>
<polygon fill="#3de2eb" stroke="#3de2eb" points="417.89,-88.54 417.89,-103.46 314.41,-114 168.07,-114 64.59,-103.46 64.59,-88.54 168.07,-78 314.41,-78 417.89,-88.54"/>
<polygon fill="none" stroke="#3de2eb" points="421.89,-84.93 421.89,-107.07 314.61,-118 167.86,-118 60.58,-107.07 60.58,-84.93 167.86,-74 314.61,-74 421.89,-84.93"/>
<polygon fill="none" stroke="#3de2eb" points="425.89,-81.32 425.89,-110.68 314.81,-122 167.66,-122 56.58,-110.68 56.58,-81.32 167.66,-70 314.81,-70 425.89,-81.32"/>
<text text-anchor="middle" x="241.24" y="-92.3" font-family="Roboto" font-size="14.00" fill="#000000">firefox&#45;unwrapped&#45;76.0.1 (283.57 MiB)</text>
</g>
<!-- N35&#45;&gt;N23 -->
<g id="edge1" class="edge">
<title>N35&#45;&gt;N23</title>
<path fill="none" stroke="black" d="M241.24,-139.68C241.24,-137.23 241.24,-134.78 241.24,-132.33"/>
<polygon fill="black" stroke="black" points="244.74,-132.25 241.24,-122.25 237.74,-132.25 244.74,-132.25"/>
</g>
<!-- N27 -->
<g id="node3" class="node">
<title>N27</title>
<polygon fill="#3cedea" stroke="#3cedea" points="434.66,-228.54 434.66,-243.46 321.35,-254 161.12,-254 47.81,-243.46 47.81,-228.54 161.12,-218 321.35,-218 434.66,-228.54"/>
<polygon fill="none" stroke="#3cedea" points="438.66,-224.9 438.66,-247.1 321.54,-258 160.93,-258 43.81,-247.1 43.81,-224.9 160.93,-214 321.54,-214 438.66,-224.9"/>
<polygon fill="none" stroke="#3cedea" points="442.66,-221.25 442.66,-250.75 321.73,-262 160.75,-262 39.82,-250.75 39.82,-221.25 160.75,-210 321.73,-210 442.66,-221.25"/>
<text text-anchor="middle" x="241.24" y="-232.3" font-family="Roboto" font-size="14.00" fill="#000000">google&#45;chrome&#45;83.0.4103.97 (329.08 MiB)</text>
</g>
<!-- N26 -->
<g id="node4" class="node">
<title>N26</title>
<polygon fill="#3ecae9" stroke="#3ecae9" points="379.01,-1558.54 379.01,-1573.46 298.3,-1584 184.17,-1584 103.46,-1573.46 103.46,-1558.54 184.17,-1548 298.3,-1548 379.01,-1558.54"/>
<polygon fill="none" stroke="#3ecae9" points="383.01,-1555.03 383.01,-1576.97 298.56,-1588 183.91,-1588 99.46,-1576.97 99.46,-1555.03 183.91,-1544 298.56,-1544 383.01,-1555.03"/>
<polygon fill="none" stroke="#3ecae9" points="387.01,-1551.52 387.01,-1580.48 298.82,-1592 183.65,-1592 95.47,-1580.48 95.47,-1551.52 183.65,-1540 298.82,-1540 387.01,-1551.52"/>
<text text-anchor="middle" x="241.24" y="-1562.3" font-family="Roboto" font-size="14.00" fill="#000000">inkscape&#45;0.92.5 (211.57 MiB)</text>
</g>
<!-- N34 -->
<g id="node43" class="node">
<title>N34</title>
<polygon fill="#3fb0e6" stroke="#3fb0e6" points="698.36,-1479 547.36,-1479 547.36,-1443 698.36,-1443 698.36,-1479"/>
<text text-anchor="middle" x="622.86" y="-1457.3" font-family="Roboto" font-size="14.00" fill="#ffffff">lapack&#45;3 (143.49 MiB)</text>
</g>
<!-- N26&#45;&gt;N34 -->
<g id="edge2" class="edge">
<title>N26&#45;&gt;N34</title>
<path fill="none" stroke="black" d="M372.65,-1549.58C400.23,-1544.72 428.97,-1538.6 455.36,-1531 497.59,-1518.84 543.49,-1499.01 576.38,-1483.56"/>
<polygon fill="black" stroke="black" points="578.19,-1486.57 585.73,-1479.12 575.19,-1480.25 578.19,-1486.57"/>
</g>
<!-- N36 -->
<g id="node5" class="node">
<title>N36</title>
<polygon fill="#407ee2" stroke="#407ee2" points="343.25,-1208.54 343.25,-1223.46 283.49,-1234 198.98,-1234 139.22,-1223.46 139.22,-1208.54 198.98,-1198 283.49,-1198 343.25,-1208.54"/>
<polygon fill="none" stroke="#407ee2" points="347.25,-1205.19 347.25,-1226.81 283.84,-1238 198.63,-1238 135.22,-1226.81 135.22,-1205.19 198.63,-1194 283.84,-1194 347.25,-1205.19"/>
<polygon fill="none" stroke="#407ee2" points="351.25,-1201.83 351.25,-1230.17 284.19,-1242 198.28,-1242 131.22,-1230.17 131.22,-1201.83 198.28,-1190 284.19,-1190 351.25,-1201.83"/>
<text text-anchor="middle" x="241.24" y="-1212.3" font-family="Roboto" font-size="14.00" fill="#ffffff">piper&#45;0.5 (34.81 MiB)</text>
</g>
<!-- N33 -->
<g id="node44" class="node">
<title>N33</title>
<polygon fill="#39f3bc" stroke="#39f3bc" points="718.36,-1199 527.36,-1199 527.36,-1163 718.36,-1163 718.36,-1199"/>
<text text-anchor="middle" x="622.86" y="-1177.3" font-family="Roboto" font-size="14.00" fill="#000000">libGL&#45;1.3.1&#45;dev (482.69 MiB)</text>
</g>
<!-- N36&#45;&gt;N33 -->
<g id="edge3" class="edge">
<title>N36&#45;&gt;N33</title>
<path fill="none" stroke="black" d="M351.28,-1205.95C403.34,-1201.15 465.37,-1195.43 516.89,-1190.68"/>
<polygon fill="black" stroke="black" points="517.42,-1194.14 527.05,-1189.74 516.77,-1187.17 517.42,-1194.14"/>
</g>
<!-- N25 -->
<g id="node6" class="node">
<title>N25</title>
<polygon fill="#3eb9e7" stroke="#3eb9e7" points="370.62,-1628.54 370.62,-1643.46 294.83,-1654 187.64,-1654 111.85,-1643.46 111.85,-1628.54 187.64,-1618 294.83,-1618 370.62,-1628.54"/>
<polygon fill="none" stroke="#3eb9e7" points="374.62,-1625.06 374.62,-1646.94 295.11,-1658 187.36,-1658 107.85,-1646.94 107.85,-1625.06 187.36,-1614 295.11,-1614 374.62,-1625.06"/>
<polygon fill="none" stroke="#3eb9e7" points="378.62,-1621.58 378.62,-1650.42 295.38,-1662 187.09,-1662 103.85,-1650.42 103.85,-1621.58 187.09,-1610 295.38,-1610 378.62,-1621.58"/>
<text text-anchor="middle" x="241.24" y="-1632.3" font-family="Roboto" font-size="14.00" fill="#000000">gzdoom&#45;4.3.3 (165.00 MiB)</text>
</g>
<!-- N37 -->
<g id="node7" class="node">
<title>N37</title>
<polygon fill="#4080e2" stroke="#4080e2" points="381.23,-858.54 381.23,-873.46 299.22,-884 183.25,-884 101.25,-873.46 101.25,-858.54 183.25,-848 299.22,-848 381.23,-858.54"/>
<polygon fill="none" stroke="#4080e2" points="385.23,-855.03 385.23,-876.97 299.48,-888 182.99,-888 97.25,-876.97 97.25,-855.03 182.99,-844 299.48,-844 385.23,-855.03"/>
<polygon fill="none" stroke="#4080e2" points="389.23,-851.51 389.23,-880.49 299.73,-892 182.74,-892 93.25,-880.49 93.25,-851.51 182.74,-840 299.73,-840 389.23,-851.51"/>
<text text-anchor="middle" x="241.24" y="-862.3" font-family="Roboto" font-size="14.00" fill="#ffffff">solargraph&#45;0.38.6 (38.56 MiB)</text>
</g>
<!-- N28 -->
<g id="node45" class="node">
<title>N28</title>
<polygon fill="#3faee6" stroke="#3faee6" points="700.36,-709 545.36,-709 545.36,-673 700.36,-673 700.36,-709"/>
<text text-anchor="middle" x="622.86" y="-687.3" font-family="Roboto" font-size="14.00" fill="#ffffff">gcc&#45;9.3.0 (136.79 MiB)</text>
</g>
<!-- N37&#45;&gt;N28 -->
<g id="edge4" class="edge">
<title>N37&#45;&gt;N28</title>
<path fill="none" stroke="black" d="M389.5,-852.46C412.16,-847.37 434.83,-840.44 455.36,-831 514.83,-803.66 570.09,-749.17 599.58,-716.82"/>
<polygon fill="black" stroke="black" points="602.43,-718.89 606.51,-709.11 597.23,-714.21 602.43,-718.89"/>
</g>
<!-- N24 -->
<g id="node8" class="node">
<title>N24</title>
<polygon fill="#bafe2c" stroke="#bafe2c" points="383.86,-1698.54 383.86,-1713.46 300.31,-1724 182.16,-1724 98.61,-1713.46 98.61,-1698.54 182.16,-1688 300.31,-1688 383.86,-1698.54"/>
<polygon fill="none" stroke="#bafe2c" points="387.86,-1695.02 387.86,-1716.98 300.57,-1728 181.91,-1728 94.61,-1716.98 94.61,-1695.02 181.91,-1684 300.57,-1684 387.86,-1695.02"/>
<polygon fill="none" stroke="#bafe2c" points="391.85,-1691.49 391.85,-1720.51 300.82,-1732 181.66,-1732 90.62,-1720.51 90.62,-1691.49 181.66,-1680 300.82,-1680 391.85,-1691.49"/>
<text text-anchor="middle" x="241.24" y="-1702.3" font-family="Roboto" font-size="14.00" fill="#000000">xonotic&#45;sdl&#45;0.8.2 (895.35 MiB)</text>
</g>
<!-- N22 -->
<g id="node10" class="node">
<title>N22</title>
<polygon fill="#3af0d2" stroke="#3af0d2" points="348.1,-1768.54 348.1,-1783.46 285.5,-1794 196.97,-1794 134.37,-1783.46 134.37,-1768.54 196.97,-1758 285.5,-1758 348.1,-1768.54"/>
<polygon fill="none" stroke="#3af0d2" points="352.1,-1765.16 352.1,-1786.84 285.84,-1798 196.64,-1798 130.37,-1786.84 130.37,-1765.16 196.64,-1754 285.84,-1754 352.1,-1765.16"/>
<polygon fill="none" stroke="#3af0d2" points="356.1,-1761.78 356.1,-1790.22 286.17,-1802 196.3,-1802 126.37,-1790.22 126.37,-1761.78 196.3,-1750 286.17,-1750 356.1,-1761.78"/>
<text text-anchor="middle" x="241.24" y="-1772.3" font-family="Roboto" font-size="14.00" fill="#000000">ino&#45;0.3.6 (417.97 MiB)</text>
</g>
<!-- N38 -->
<g id="node11" class="node">
<title>N38</title>
<polygon fill="#3fa4e5" stroke="#3fa4e5" points="362.24,-368.54 362.24,-383.46 291.36,-394 191.12,-394 120.23,-383.46 120.23,-368.54 191.12,-358 291.36,-358 362.24,-368.54"/>
<polygon fill="none" stroke="#3fa4e5" points="366.24,-365.1 366.24,-386.9 291.65,-398 190.82,-398 116.23,-386.9 116.23,-365.1 190.82,-354 291.65,-354 366.24,-365.1"/>
<polygon fill="none" stroke="#3fa4e5" points="370.24,-361.65 370.24,-390.35 291.95,-402 190.52,-402 112.23,-390.35 112.23,-361.65 190.52,-350 291.95,-350 370.24,-361.65"/>
<text text-anchor="middle" x="241.24" y="-372.3" font-family="Roboto" font-size="14.00" fill="#ffffff">hunter&#45;1.3.5 (112.36 MiB)</text>
</g>
<!-- N38&#45;&gt;N28 -->
<g id="edge5" class="edge">
<title>N38&#45;&gt;N28</title>
<path fill="none" stroke="black" d="M370.51,-378.87C400.28,-384.28 430.5,-394.05 455.36,-411 547.29,-473.7 596.26,-605.42 614.01,-663.03"/>
<polygon fill="black" stroke="black" points="610.74,-664.31 616.96,-672.89 617.44,-662.3 610.74,-664.31"/>
</g>
<!-- N29 -->
<g id="node46" class="node">
<title>N29</title>
<polygon fill="#3fa8e5" stroke="#3fa8e5" points="711.86,-359 533.86,-359 533.86,-323 711.86,-323 711.86,-359"/>
<text text-anchor="middle" x="622.86" y="-337.3" font-family="Roboto" font-size="14.00" fill="#ffffff">opencv&#45;4.3.0 (122.39 MiB)</text>
</g>
<!-- N38&#45;&gt;N29 -->
<g id="edge6" class="edge">
<title>N38&#45;&gt;N29</title>
<path fill="none" stroke="black" d="M370.49,-364.17C420.51,-359.56 476.92,-354.36 523.61,-350.06"/>
<polygon fill="black" stroke="black" points="524.09,-353.53 533.73,-349.13 523.45,-346.56 524.09,-353.53"/>
</g>
<!-- N21 -->
<g id="node12" class="node">
<title>N21</title>
<polygon fill="#3dd7ea" stroke="#3dd7ea" points="352.96,-1838.54 352.96,-1853.46 287.51,-1864 194.96,-1864 129.52,-1853.46 129.52,-1838.54 194.96,-1828 287.51,-1828 352.96,-1838.54"/>
<polygon fill="none" stroke="#3dd7ea" points="356.95,-1835.14 356.95,-1856.86 287.83,-1868 194.64,-1868 125.52,-1856.86 125.52,-1835.14 194.64,-1824 287.83,-1824 356.95,-1835.14"/>
<polygon fill="none" stroke="#3dd7ea" points="360.95,-1831.73 360.95,-1860.27 288.15,-1872 194.32,-1872 121.53,-1860.27 121.53,-1831.73 194.32,-1820 288.15,-1820 360.95,-1831.73"/>
<text text-anchor="middle" x="241.24" y="-1842.3" font-family="Roboto" font-size="14.00" fill="#000000">X11&#45;fonts (249.44 MiB)</text>
</g>
<!-- N20 -->
<g id="node13" class="node">
<title>N20</title>
<polygon fill="#feca00" stroke="#feca00" points="335.29,-1978.54 335.29,-1993.46 280.19,-2004 202.28,-2004 147.18,-1993.46 147.18,-1978.54 202.28,-1968 280.19,-1968 335.29,-1978.54"/>
<polygon fill="none" stroke="#feca00" points="339.28,-1975.24 339.28,-1996.76 280.57,-2008 201.9,-2008 143.19,-1996.76 143.19,-1975.24 201.9,-1964 280.57,-1964 339.28,-1975.24"/>
<polygon fill="none" stroke="#feca00" points="343.27,-1971.93 343.27,-2000.07 280.95,-2012 201.52,-2012 139.2,-2000.07 139.2,-1971.93 201.52,-1960 280.95,-1960 343.27,-1971.93"/>
<text text-anchor="middle" x="241.24" y="-1982.3" font-family="Roboto" font-size="14.00" fill="#000000">wine&#45;5.0 (1.71 GiB)</text>
</g>
<!-- N31 -->
<g id="node47" class="node">
<title>N31</title>
<polygon fill="#3befde" stroke="#3befde" points="708.86,-2127 536.86,-2127 536.86,-2091 708.86,-2091 708.86,-2127"/>
<text text-anchor="middle" x="622.86" y="-2105.3" font-family="Roboto" font-size="14.00" fill="#000000">cairo&#45;1.16.0 (373.55 MiB)</text>
</g>
<!-- N20&#45;&gt;N31 -->
<g id="edge7" class="edge">
<title>N20&#45;&gt;N31</title>
<path fill="none" stroke="black" d="M343.34,-1995.79C379.32,-2001.05 419.73,-2009.02 455.36,-2021 502.81,-2036.96 553.05,-2065.31 585.78,-2085.51"/>
<polygon fill="black" stroke="black" points="584.2,-2088.65 594.53,-2090.98 587.91,-2082.71 584.2,-2088.65"/>
</g>
<!-- N32 -->
<g id="node48" class="node">
<title>N32</title>
<polygon fill="#3fafe6" stroke="#3fafe6" points="754.36,-1969 491.36,-1969 491.36,-1933 754.36,-1933 754.36,-1969"/>
<text text-anchor="middle" x="622.86" y="-1947.3" font-family="Roboto" font-size="14.00" fill="#ffffff">wine&#45;gecko&#45;2.47.1&#45;x86.msi (139.24 MiB)</text>
</g>
<!-- N20&#45;&gt;N32 -->
<g id="edge8" class="edge">
<title>N20&#45;&gt;N32</title>
<path fill="none" stroke="black" d="M343.47,-1976.67C385.73,-1972.77 435.53,-1968.18 481.25,-1963.96"/>
<polygon fill="black" stroke="black" points="481.6,-1967.45 491.24,-1963.04 480.96,-1960.48 481.6,-1967.45"/>
</g>
<!-- N19 -->
<g id="node14" class="node">
<title>N19</title>
<polygon fill="#3ebce7" stroke="#3ebce7" points="382.12,-2328.54 382.12,-2343.46 299.59,-2354 182.88,-2354 100.35,-2343.46 100.35,-2328.54 182.88,-2318 299.59,-2318 382.12,-2328.54"/>
<polygon fill="none" stroke="#3ebce7" points="386.13,-2325.02 386.13,-2346.98 299.85,-2358 182.62,-2358 96.34,-2346.98 96.34,-2325.02 182.62,-2314 299.85,-2314 386.13,-2325.02"/>
<polygon fill="none" stroke="#3ebce7" points="390.13,-2321.5 390.13,-2350.5 300.1,-2362 182.37,-2362 92.34,-2350.5 92.34,-2321.5 182.37,-2310 300.1,-2310 390.13,-2321.5"/>
<text text-anchor="middle" x="241.24" y="-2332.3" font-family="Roboto" font-size="14.00" fill="#000000">mongodb&#45;3.4.24 (174.64 MiB)</text>
</g>
<!-- N18 -->
<g id="node15" class="node">
<title>N18</title>
<polygon fill="#3ec5e8" stroke="#3ec5e8" points="424.95,-2118.54 424.95,-2133.46 317.33,-2144 165.14,-2144 57.52,-2133.46 57.52,-2118.54 165.14,-2108 317.33,-2108 424.95,-2118.54"/>
<polygon fill="none" stroke="#3ec5e8" points="428.96,-2114.92 428.96,-2137.08 317.53,-2148 164.94,-2148 53.52,-2137.08 53.52,-2114.92 164.94,-2104 317.53,-2104 428.96,-2114.92"/>
<polygon fill="none" stroke="#3ec5e8" points="432.96,-2111.29 432.96,-2140.71 317.73,-2152 164.75,-2152 49.51,-2140.71 49.51,-2111.29 164.75,-2100 317.73,-2100 432.96,-2111.29"/>
<text text-anchor="middle" x="241.24" y="-2122.3" font-family="Roboto" font-size="14.00" fill="#000000">tor&#45;browser&#45;bundle&#45;bin&#45;9.5 (198.17 MiB)</text>
</g>
<!-- N9 -->
<g id="node28" class="node">
<title>N9</title>
<polygon fill="#3ec9e9" stroke="#3ec9e9" points="388.29,-2048.54 388.29,-2063.46 302.15,-2074 180.32,-2074 94.18,-2063.46 94.18,-2048.54 180.32,-2038 302.15,-2038 388.29,-2048.54"/>
<polygon fill="none" stroke="#3ec9e9" points="392.3,-2045 392.3,-2067 302.39,-2078 180.08,-2078 90.18,-2067 90.18,-2045 180.08,-2034 302.39,-2034 392.3,-2045"/>
<polygon fill="none" stroke="#3ec9e9" points="396.3,-2041.46 396.3,-2070.54 302.64,-2082 179.83,-2082 86.18,-2070.54 86.18,-2041.46 179.83,-2030 302.64,-2030 396.3,-2041.46"/>
<text text-anchor="middle" x="241.24" y="-2052.3" font-family="Roboto" font-size="14.00" fill="#000000">glibc&#45;locales&#45;2.30 (209.50 MiB)</text>
</g>
<!-- N18&#45;&gt;N9 -->
<g id="edge9" class="edge">
<title>N18&#45;&gt;N9</title>
<path fill="none" stroke="black" d="M241.24,-2099.68C241.24,-2097.23 241.24,-2094.78 241.24,-2092.33"/>
<polygon fill="black" stroke="black" points="244.74,-2092.25 241.24,-2082.25 237.74,-2092.25 244.74,-2092.25"/>
</g>
<!-- N17 -->
<g id="node16" class="node">
<title>N17</title>
<polygon fill="#3de1eb" stroke="#3de1eb" points="447.48,-2398.54 447.48,-2413.46 326.66,-2424 155.81,-2424 34.99,-2413.46 34.99,-2398.54 155.81,-2388 326.66,-2388 447.48,-2398.54"/>
<polygon fill="none" stroke="#3de1eb" points="451.48,-2394.88 451.48,-2417.12 326.84,-2428 155.63,-2428 30.99,-2417.12 30.99,-2394.88 155.63,-2384 326.84,-2384 451.48,-2394.88"/>
<polygon fill="none" stroke="#3de1eb" points="455.48,-2391.21 455.48,-2420.79 327.01,-2432 155.46,-2432 26.99,-2420.79 26.99,-2391.21 155.46,-2380 327.01,-2380 455.48,-2391.21"/>
<text text-anchor="middle" x="241.24" y="-2402.3" font-family="Roboto" font-size="14.00" fill="#000000">spotifywm&#45;unstable&#45;2016&#45;11&#45;28 (279.32 MiB)</text>
</g>
<!-- N39 -->
<g id="node17" class="node">
<title>N39</title>
<polygon fill="#4089e3" stroke="#4089e3" points="402.43,-1068.54 402.43,-1083.46 308.01,-1094 174.47,-1094 80.04,-1083.46 80.04,-1068.54 174.47,-1058 308.01,-1058 402.43,-1068.54"/>
<polygon fill="none" stroke="#4089e3" points="406.43,-1064.97 406.43,-1087.03 308.23,-1098 174.24,-1098 76.04,-1087.03 76.04,-1064.97 174.24,-1054 308.23,-1054 406.43,-1064.97"/>
<polygon fill="none" stroke="#4089e3" points="410.44,-1061.39 410.44,-1090.61 308.45,-1102 174.02,-1102 72.04,-1090.61 72.04,-1061.39 174.02,-1050 308.45,-1050 410.44,-1061.39"/>
<text text-anchor="middle" x="241.24" y="-1072.3" font-family="Roboto" font-size="14.00" fill="#ffffff">dwarf&#45;fortress&#45;0.47.04 (55.85 MiB)</text>
</g>
<!-- N39&#45;&gt;N33 -->
<g id="edge11" class="edge">
<title>N39&#45;&gt;N33</title>
<path fill="none" stroke="black" d="M381.15,-1093.96C406.09,-1098.55 431.67,-1104.18 455.36,-1111 497.59,-1123.16 543.49,-1142.99 576.38,-1158.44"/>
<polygon fill="black" stroke="black" points="575.19,-1161.75 585.73,-1162.88 578.19,-1155.43 575.19,-1161.75"/>
</g>
<!-- N39&#45;&gt;N28 -->
<g id="edge10" class="edge">
<title>N39&#45;&gt;N28</title>
<path fill="none" stroke="black" d="M410.43,-1064.53C426.54,-1058.8 441.87,-1051.14 455.36,-1041 564.6,-958.85 605.31,-786.7 617.47,-719.1"/>
<polygon fill="black" stroke="black" points="620.93,-719.63 619.18,-709.18 614.03,-718.44 620.93,-719.63"/>
</g>
<!-- N16 -->
<g id="node18" class="node">
<title>N16</title>
<polygon fill="#3ec8e8" stroke="#3ec8e8" points="353.85,-1488.54 353.85,-1503.46 287.88,-1514 194.59,-1514 128.62,-1503.46 128.62,-1488.54 194.59,-1478 287.88,-1478 353.85,-1488.54"/>
<polygon fill="none" stroke="#3ec8e8" points="357.85,-1485.13 357.85,-1506.87 288.2,-1518 194.27,-1518 124.62,-1506.87 124.62,-1485.13 194.27,-1474 288.2,-1474 357.85,-1485.13"/>
<polygon fill="none" stroke="#3ec8e8" points="361.85,-1481.72 361.85,-1510.28 288.52,-1522 193.95,-1522 120.62,-1510.28 120.62,-1481.72 193.95,-1470 288.52,-1470 361.85,-1481.72"/>
<text text-anchor="middle" x="241.24" y="-1492.3" font-family="Roboto" font-size="14.00" fill="#000000">cura&#45;4.6.1 (205.91 MiB)</text>
</g>
<!-- N16&#45;&gt;N34 -->
<g id="edge12" class="edge">
<title>N16&#45;&gt;N34</title>
<path fill="none" stroke="black" d="M361.83,-1484.97C418.78,-1479.72 485.54,-1473.57 537.16,-1468.81"/>
<polygon fill="black" stroke="black" points="537.64,-1472.28 547.28,-1467.88 537,-1465.31 537.64,-1472.28"/>
</g>
<!-- N40 -->
<g id="node19" class="node">
<title>N40</title>
<polygon fill="#406be1" stroke="#406be1" points="358.7,-788.54 358.7,-803.46 289.89,-814 192.58,-814 123.77,-803.46 123.77,-788.54 192.58,-778 289.89,-778 358.7,-788.54"/>
<polygon fill="none" stroke="#406be1" points="362.7,-785.11 362.7,-806.89 290.2,-818 192.27,-818 119.77,-806.89 119.77,-785.11 192.27,-774 290.2,-774 362.7,-785.11"/>
<polygon fill="none" stroke="#406be1" points="366.7,-781.68 366.7,-810.32 290.5,-822 191.97,-822 115.77,-810.32 115.77,-781.68 191.97,-770 290.5,-770 366.7,-781.68"/>
<text text-anchor="middle" x="241.24" y="-792.3" font-family="Roboto" font-size="14.00" fill="#ffffff">nethack&#45;3.6.6 (4.58 MiB)</text>
</g>
<!-- N40&#45;&gt;N28 -->
<g id="edge13" class="edge">
<title>N40&#45;&gt;N28</title>
<path fill="none" stroke="black" d="M363.66,-781.12C393.92,-776.04 426.08,-769.43 455.36,-761 497.59,-748.84 543.49,-729.01 576.38,-713.56"/>
<polygon fill="black" stroke="black" points="578.19,-716.57 585.73,-709.12 575.19,-710.25 578.19,-716.57"/>
</g>
<!-- N15 -->
<g id="node20" class="node">
<title>N15</title>
<polygon fill="#fe5800" stroke="#fe5800" points="371.94,-1908.54 371.94,-1923.46 295.38,-1934 187.09,-1934 110.53,-1923.46 110.53,-1908.54 187.09,-1898 295.38,-1898 371.94,-1908.54"/>
<polygon fill="none" stroke="#fe5800" points="375.94,-1905.06 375.94,-1926.94 295.65,-1938 186.82,-1938 106.53,-1926.94 106.53,-1905.06 186.82,-1894 295.65,-1894 375.94,-1905.06"/>
<polygon fill="none" stroke="#fe5800" points="379.94,-1901.57 379.94,-1930.43 295.92,-1942 186.55,-1942 102.54,-1930.43 102.54,-1901.57 186.55,-1890 295.92,-1890 379.94,-1901.57"/>
<text text-anchor="middle" x="241.24" y="-1912.3" font-family="Roboto" font-size="14.00" fill="#000000">playonlinux&#45;4.3.4 (2.30 GiB)</text>
</g>
<!-- N15&#45;&gt;N32 -->
<g id="edge14" class="edge">
<title>N15&#45;&gt;N32</title>
<path fill="none" stroke="black" d="M380.09,-1928.71C412.96,-1931.74 448.08,-1934.98 481.08,-1938.02"/>
<polygon fill="black" stroke="black" points="480.97,-1941.53 491.25,-1938.96 481.61,-1934.55 480.97,-1941.53"/>
</g>
<!-- N14 -->
<g id="node21" class="node">
<title>N14</title>
<polygon fill="#37f59e" stroke="#37f59e" points="373.26,-2468.54 373.26,-2483.46 295.92,-2494 186.55,-2494 109.21,-2483.46 109.21,-2468.54 186.55,-2458 295.92,-2458 373.26,-2468.54"/>
<polygon fill="none" stroke="#37f59e" points="377.26,-2465.05 377.26,-2486.95 296.19,-2498 186.28,-2498 105.22,-2486.95 105.22,-2465.05 186.28,-2454 296.19,-2454 377.26,-2465.05"/>
<polygon fill="none" stroke="#37f59e" points="381.25,-2461.56 381.25,-2490.44 296.46,-2502 186.01,-2502 101.22,-2490.44 101.22,-2461.56 186.01,-2450 296.46,-2450 381.25,-2461.56"/>
<text text-anchor="middle" x="241.24" y="-2472.3" font-family="Roboto" font-size="14.00" fill="#000000">arduino&#45;1.8.12 (554.55 MiB)</text>
</g>
<!-- N13 -->
<g id="node22" class="node">
<title>N13</title>
<polygon fill="#fe7c00" stroke="#fe7c00" points="423.64,-718.54 423.64,-733.46 316.79,-744 165.68,-744 58.84,-733.46 58.84,-718.54 165.68,-708 316.79,-708 423.64,-718.54"/>
<polygon fill="none" stroke="#fe7c00" points="427.64,-714.92 427.64,-737.08 316.99,-748 165.49,-748 54.83,-737.08 54.83,-714.92 165.49,-704 316.99,-704 427.64,-714.92"/>
<polygon fill="none" stroke="#fe7c00" points="431.65,-711.3 431.65,-740.7 317.18,-752 165.29,-752 50.83,-740.7 50.83,-711.3 165.29,-700 317.18,-700 431.65,-711.3"/>
<text text-anchor="middle" x="241.24" y="-722.3" font-family="Roboto" font-size="14.00" fill="#000000">xmonad&#45;with&#45;packages&#45;8.8.3 (2.17 GiB)</text>
</g>
<!-- N13&#45;&gt;N28 -->
<g id="edge15" class="edge">
<title>N13&#45;&gt;N28</title>
<path fill="none" stroke="black" d="M417.32,-709.86C458.2,-706.09 500,-702.24 535.06,-699"/>
<polygon fill="black" stroke="black" points="535.61,-702.47 545.25,-698.06 534.97,-695.5 535.61,-702.47"/>
</g>
<!-- N12 -->
<g id="node23" class="node">
<title>N12</title>
<polygon fill="#37f5a0" stroke="#37f5a0" points="382.55,-1138.54 382.55,-1153.46 299.77,-1164 182.7,-1164 99.93,-1153.46 99.93,-1138.54 182.7,-1128 299.77,-1128 382.55,-1138.54"/>
<polygon fill="none" stroke="#37f5a0" points="386.54,-1135.02 386.54,-1156.98 300.02,-1168 182.45,-1168 95.93,-1156.98 95.93,-1135.02 182.45,-1124 300.02,-1124 386.54,-1135.02"/>
<polygon fill="none" stroke="#37f5a0" points="390.54,-1131.5 390.54,-1160.5 300.28,-1172 182.2,-1172 91.93,-1160.5 91.93,-1131.5 182.2,-1120 300.28,-1120 390.54,-1131.5"/>
<text text-anchor="middle" x="241.24" y="-1142.3" font-family="Roboto" font-size="14.00" fill="#000000">wesnoth&#45;1.14.11 (550.40 MiB)</text>
</g>
<!-- N12&#45;&gt;N33 -->
<g id="edge16" class="edge">
<title>N12&#45;&gt;N33</title>
<path fill="none" stroke="black" d="M390.64,-1159.68C432.83,-1163.57 477.88,-1167.73 516.91,-1171.32"/>
<polygon fill="black" stroke="black" points="516.95,-1174.84 527.23,-1172.28 517.59,-1167.87 516.95,-1174.84"/>
</g>
<!-- N11 -->
<g id="node24" class="node">
<title>N11</title>
<polygon fill="#3ceaec" stroke="#3ceaec" points="360.92,-2538.54 360.92,-2553.46 290.81,-2564 191.66,-2564 121.55,-2553.46 121.55,-2538.54 191.66,-2528 290.81,-2528 360.92,-2538.54"/>
<polygon fill="none" stroke="#3ceaec" points="364.92,-2535.1 364.92,-2556.9 291.11,-2568 191.36,-2568 117.55,-2556.9 117.55,-2535.1 191.36,-2524 291.11,-2524 364.92,-2535.1"/>
<polygon fill="none" stroke="#3ceaec" points="368.92,-2531.66 368.92,-2560.34 291.41,-2572 191.06,-2572 113.55,-2560.34 113.55,-2531.66 191.06,-2520 291.41,-2520 368.92,-2531.66"/>
<text text-anchor="middle" x="241.24" y="-2542.3" font-family="Roboto" font-size="14.00" fill="#000000">elixir&#45;1.10.3 (309.97 MiB)</text>
</g>
<!-- N10 -->
<g id="node25" class="node">
<title>N10</title>
<polygon fill="#3ec2e8" stroke="#3ec2e8" points="367.09,-1348.54 367.09,-1363.46 293.37,-1374 189.11,-1374 115.38,-1363.46 115.38,-1348.54 189.11,-1338 293.37,-1338 367.09,-1348.54"/>
<polygon fill="none" stroke="#3ec2e8" points="371.09,-1345.08 371.09,-1366.92 293.65,-1378 188.82,-1378 111.38,-1366.92 111.38,-1345.08 188.82,-1334 293.65,-1334 371.09,-1345.08"/>
<polygon fill="none" stroke="#3ec2e8" points="375.09,-1341.61 375.09,-1370.39 293.94,-1382 188.54,-1382 107.39,-1370.39 107.39,-1341.61 188.54,-1330 293.94,-1330 375.09,-1341.61"/>
<text text-anchor="middle" x="241.24" y="-1352.3" font-family="Roboto" font-size="14.00" fill="#000000">gimp&#45;2.10.20 (190.04 MiB)</text>
</g>
<!-- N10&#45;&gt;N34 -->
<g id="edge18" class="edge">
<title>N10&#45;&gt;N34</title>
<path fill="none" stroke="black" d="M367.58,-1371.54C396.69,-1376.54 427.34,-1382.93 455.36,-1391 497.59,-1403.16 543.49,-1422.99 576.38,-1438.44"/>
<polygon fill="black" stroke="black" points="575.19,-1441.75 585.73,-1442.88 578.19,-1435.43 575.19,-1441.75"/>
</g>
<!-- N10&#45;&gt;N33 -->
<g id="edge17" class="edge">
<title>N10&#45;&gt;N33</title>
<path fill="none" stroke="black" d="M375.13,-1345.44C402.47,-1340.19 430.49,-1332.43 455.36,-1321 514.83,-1293.66 570.09,-1239.17 599.58,-1206.82"/>
<polygon fill="black" stroke="black" points="602.43,-1208.89 606.51,-1199.11 597.23,-1204.21 602.43,-1208.89"/>
</g>
<!-- N41 -->
<g id="node26" class="node">
<title>N41</title>
<polygon fill="#4081e2" stroke="#4081e2" points="415.67,-2258.54 415.67,-2273.46 313.49,-2284 168.98,-2284 66.8,-2273.46 66.8,-2258.54 168.98,-2248 313.49,-2248 415.67,-2258.54"/>
<polygon fill="none" stroke="#4081e2" points="419.67,-2254.94 419.67,-2277.06 313.69,-2288 168.78,-2288 62.8,-2277.06 62.8,-2254.94 168.78,-2244 313.69,-2244 419.67,-2254.94"/>
<polygon fill="none" stroke="#4081e2" points="423.67,-2251.33 423.67,-2280.67 313.9,-2292 168.57,-2292 58.8,-2280.67 58.8,-2251.33 168.57,-2240 313.9,-2240 423.67,-2251.33"/>
<text text-anchor="middle" x="241.24" y="-2262.3" font-family="Roboto" font-size="14.00" fill="#ffffff">openra&#45;release&#45;20190314 (40.77 MiB)</text>
</g>
<!-- N30 -->
<g id="node49" class="node">
<title>N30</title>
<polygon fill="#3ce9ec" stroke="#3ce9ec" points="720.36,-2249 525.36,-2249 525.36,-2213 720.36,-2213 720.36,-2249"/>
<text text-anchor="middle" x="622.86" y="-2227.3" font-family="Roboto" font-size="14.00" fill="#000000">mono&#45;5.20.1.27 (304.81 MiB)</text>
</g>
<!-- N41&#45;&gt;N30 -->
<g id="edge19" class="edge">
<title>N41&#45;&gt;N30</title>
<path fill="none" stroke="black" d="M413.17,-2250.24C447.89,-2247.04 483.45,-2243.76 515.16,-2240.84"/>
<polygon fill="black" stroke="black" points="515.68,-2244.3 525.32,-2239.9 515.04,-2237.33 515.68,-2244.3"/>
</g>
<!-- N42 -->
<g id="node27" class="node">
<title>N42</title>
<polygon fill="#4070e1" stroke="#4070e1" points="370.2,-298.54 370.2,-313.46 294.65,-324 187.82,-324 112.27,-313.46 112.27,-298.54 187.82,-288 294.65,-288 370.2,-298.54"/>
<polygon fill="none" stroke="#4070e1" points="374.21,-295.06 374.21,-316.94 294.93,-328 187.54,-328 108.26,-316.94 108.26,-295.06 187.54,-284 294.93,-284 374.21,-295.06"/>
<polygon fill="none" stroke="#4070e1" points="378.21,-291.58 378.21,-320.42 295.21,-332 187.26,-332 104.26,-320.42 104.26,-291.58 187.26,-280 295.21,-280 378.21,-291.58"/>
<text text-anchor="middle" x="241.24" y="-302.3" font-family="Roboto" font-size="14.00" fill="#ffffff">nomacs&#45;3.14.2 (10.95 MiB)</text>
</g>
<!-- N42&#45;&gt;N29 -->
<g id="edge20" class="edge">
<title>N42&#45;&gt;N29</title>
<path fill="none" stroke="black" d="M378.22,-318.54C426.18,-322.96 479.14,-327.84 523.4,-331.92"/>
<polygon fill="black" stroke="black" points="523.3,-335.43 533.58,-332.86 523.94,-328.46 523.3,-335.43"/>
</g>
<!-- N8 -->
<g id="node29" class="node">
<title>N8</title>
<polygon fill="#3ecee9" stroke="#3ecee9" points="439.51,-2608.54 439.51,-2623.46 323.36,-2634 159.11,-2634 42.96,-2623.46 42.96,-2608.54 159.11,-2598 323.36,-2598 439.51,-2608.54"/>
<polygon fill="none" stroke="#3ecee9" points="443.51,-2604.89 443.51,-2627.11 323.54,-2638 158.93,-2638 38.96,-2627.11 38.96,-2604.89 158.93,-2594 323.54,-2594 443.51,-2604.89"/>
<polygon fill="none" stroke="#3ecee9" points="447.51,-2601.24 447.51,-2630.76 323.73,-2642 158.75,-2642 34.97,-2630.76 34.97,-2601.24 158.75,-2590 323.73,-2590 447.51,-2601.24"/>
<text text-anchor="middle" x="241.24" y="-2612.3" font-family="Roboto" font-size="14.00" fill="#000000">papirus&#45;icon&#45;theme&#45;20200602 (223.66 MiB)</text>
</g>
<!-- N7 -->
<g id="node30" class="node">
<title>N7</title>
<polygon fill="#3dddeb" stroke="#3dddeb" points="421.42,-2678.54 421.42,-2693.46 315.87,-2704 166.6,-2704 61.05,-2693.46 61.05,-2678.54 166.6,-2668 315.87,-2668 421.42,-2678.54"/>
<polygon fill="none" stroke="#3dddeb" points="425.42,-2674.92 425.42,-2697.08 316.07,-2708 166.4,-2708 57.05,-2697.08 57.05,-2674.92 166.4,-2664 316.07,-2664 425.42,-2674.92"/>
<polygon fill="none" stroke="#3dddeb" points="429.42,-2671.3 429.42,-2700.7 316.27,-2712 166.2,-2712 53.05,-2700.7 53.05,-2671.3 166.2,-2660 316.27,-2660 429.42,-2671.3"/>
<text text-anchor="middle" x="241.24" y="-2682.3" font-family="Roboto" font-size="14.00" fill="#000000">qemu&#45;host&#45;cpu&#45;only&#45;5.0.0 (267.81 MiB)</text>
</g>
<!-- N6 -->
<g id="node31" class="node">
<title>N6</title>
<polygon fill="#3dd1e9" stroke="#3dd1e9" points="370.2,-2748.54 370.2,-2763.46 294.65,-2774 187.82,-2774 112.27,-2763.46 112.27,-2748.54 187.82,-2738 294.65,-2738 370.2,-2748.54"/>
<polygon fill="none" stroke="#3dd1e9" points="374.21,-2745.06 374.21,-2766.94 294.93,-2778 187.54,-2778 108.26,-2766.94 108.26,-2745.06 187.54,-2734 294.93,-2734 374.21,-2745.06"/>
<polygon fill="none" stroke="#3dd1e9" points="378.21,-2741.58 378.21,-2770.42 295.21,-2782 187.26,-2782 104.26,-2770.42 104.26,-2741.58 187.26,-2730 295.21,-2730 378.21,-2741.58"/>
<text text-anchor="middle" x="241.24" y="-2752.3" font-family="Roboto" font-size="14.00" fill="#000000">fritzing&#45;0.9.3b (233.13 MiB)</text>
</g>
<!-- N5 -->
<g id="node32" class="node">
<title>N5</title>
<polygon fill="#3dddeb" stroke="#3dddeb" points="372.84,-1418.54 372.84,-1433.46 295.75,-1444 186.72,-1444 109.63,-1433.46 109.63,-1418.54 186.72,-1408 295.75,-1408 372.84,-1418.54"/>
<polygon fill="none" stroke="#3dddeb" points="376.84,-1415.05 376.84,-1436.95 296.02,-1448 186.45,-1448 105.63,-1436.95 105.63,-1415.05 186.45,-1404 296.02,-1404 376.84,-1415.05"/>
<polygon fill="none" stroke="#3dddeb" points="380.84,-1411.56 380.84,-1440.44 296.29,-1452 186.18,-1452 101.63,-1440.44 101.63,-1411.56 186.18,-1400 296.29,-1400 380.84,-1411.56"/>
<text text-anchor="middle" x="241.24" y="-1422.3" font-family="Roboto" font-size="14.00" fill="#000000">blender&#45;2.83.0 (266.53 MiB)</text>
</g>
<!-- N5&#45;&gt;N34 -->
<g id="edge21" class="edge">
<title>N5&#45;&gt;N34</title>
<path fill="none" stroke="black" d="M380.9,-1438.78C433.18,-1443.6 491.06,-1448.94 536.98,-1453.17"/>
<polygon fill="black" stroke="black" points="536.91,-1456.68 547.19,-1454.12 537.55,-1449.71 536.91,-1456.68"/>
</g>
<!-- N43 -->
<g id="node33" class="node">
<title>N43</title>
<polygon fill="#406ce1" stroke="#406ce1" points="356.49,-648.54 356.49,-663.46 288.98,-674 193.5,-674 125.98,-663.46 125.98,-648.54 193.5,-638 288.98,-638 356.49,-648.54"/>
<polygon fill="none" stroke="#406ce1" points="360.49,-645.12 360.49,-666.88 289.29,-678 193.19,-678 121.99,-666.88 121.99,-645.12 193.19,-634 289.29,-634 360.49,-645.12"/>
<polygon fill="none" stroke="#406ce1" points="364.48,-641.7 364.48,-670.3 289.6,-682 192.88,-682 117.99,-670.3 117.99,-641.7 192.88,-630 289.6,-630 364.48,-641.7"/>
<text text-anchor="middle" x="241.24" y="-652.3" font-family="Roboto" font-size="14.00" fill="#ffffff">polybar&#45;3.4.3 (4.66 MiB)</text>
</g>
<!-- N43&#45;&gt;N28 -->
<g id="edge22" class="edge">
<title>N43&#45;&gt;N28</title>
<path fill="none" stroke="black" d="M364.7,-667.29C420.25,-672.41 484.63,-678.35 535.09,-683"/>
<polygon fill="black" stroke="black" points="535.03,-686.51 545.31,-683.94 535.67,-679.54 535.03,-686.51"/>
</g>
<!-- N4 -->
<g id="node34" class="node">
<title>N4</title>
<polygon fill="#3fb0e6" stroke="#3fb0e6" points="363.13,-2818.54 363.13,-2833.46 291.73,-2844 190.74,-2844 119.34,-2833.46 119.34,-2818.54 190.74,-2808 291.73,-2808 363.13,-2818.54"/>
<polygon fill="none" stroke="#3fb0e6" points="367.14,-2815.09 367.14,-2836.91 292.02,-2848 190.45,-2848 115.33,-2836.91 115.33,-2815.09 190.45,-2804 292.02,-2804 367.14,-2815.09"/>
<polygon fill="none" stroke="#3fb0e6" points="371.14,-2811.64 371.14,-2840.36 292.32,-2852 190.16,-2852 111.33,-2840.36 111.33,-2811.64 190.16,-2800 292.32,-2800 371.14,-2811.64"/>
<text text-anchor="middle" x="241.24" y="-2822.3" font-family="Roboto" font-size="14.00" fill="#ffffff">astroid&#45;0.15 (142.88 MiB)</text>
</g>
<!-- N44 -->
<g id="node35" class="node">
<title>N44</title>
<polygon fill="#4075e1" stroke="#4075e1" points="348.1,-578.54 348.1,-593.46 285.5,-604 196.97,-604 134.37,-593.46 134.37,-578.54 196.97,-568 285.5,-568 348.1,-578.54"/>
<polygon fill="none" stroke="#4075e1" points="352.1,-575.16 352.1,-596.84 285.84,-608 196.64,-608 130.37,-596.84 130.37,-575.16 196.64,-564 285.84,-564 352.1,-575.16"/>
<polygon fill="none" stroke="#4075e1" points="356.1,-571.78 356.1,-600.22 286.17,-612 196.3,-612 126.37,-600.22 126.37,-571.78 196.3,-560 286.17,-560 356.1,-571.78"/>
<text text-anchor="middle" x="241.24" y="-582.3" font-family="Roboto" font-size="14.00" fill="#ffffff">ruby&#45;2.7.1 (18.95 MiB)</text>
</g>
<!-- N44&#45;&gt;N28 -->
<g id="edge23" class="edge">
<title>N44&#45;&gt;N28</title>
<path fill="none" stroke="black" d="M356.16,-599.64C388.56,-604.88 423.65,-611.87 455.36,-621 497.59,-633.16 543.49,-652.99 576.38,-668.44"/>
<polygon fill="black" stroke="black" points="575.19,-671.75 585.73,-672.88 578.19,-665.43 575.19,-671.75"/>
</g>
<!-- N3 -->
<g id="node36" class="node">
<title>N3</title>
<polygon fill="#44fa33" stroke="#44fa33" points="387.4,-2888.54 387.4,-2903.46 301.78,-2914 180.69,-2914 95.07,-2903.46 95.07,-2888.54 180.69,-2878 301.78,-2878 387.4,-2888.54"/>
<polygon fill="none" stroke="#44fa33" points="391.39,-2885.01 391.39,-2906.99 302.02,-2918 180.45,-2918 91.08,-2906.99 91.08,-2885.01 180.45,-2874 302.02,-2874 391.39,-2885.01"/>
<polygon fill="none" stroke="#44fa33" points="395.39,-2881.47 395.39,-2910.53 302.27,-2922 180.2,-2922 87.08,-2910.53 87.08,-2881.47 180.2,-2870 302.27,-2870 395.39,-2881.47"/>
<text text-anchor="middle" x="241.24" y="-2892.3" font-family="Roboto" font-size="14.00" fill="#000000">openjdk&#45;11.0.6&#45;ga (689.37 MiB)</text>
</g>
<!-- N45 -->
<g id="node37" class="node">
<title>N45</title>
<polygon fill="#407ce2" stroke="#407ce2" points="361.34,-438.54 361.34,-453.46 290.99,-464 191.49,-464 121.13,-453.46 121.13,-438.54 191.49,-428 290.99,-428 361.34,-438.54"/>
<polygon fill="none" stroke="#407ce2" points="365.34,-435.1 365.34,-456.9 291.28,-468 191.19,-468 117.13,-456.9 117.13,-435.1 191.19,-424 291.28,-424 365.34,-435.1"/>
<polygon fill="none" stroke="#407ce2" points="369.33,-431.65 369.33,-460.35 291.58,-472 190.89,-472 113.14,-460.35 113.14,-431.65 190.89,-420 291.58,-420 369.33,-431.65"/>
<text text-anchor="middle" x="241.24" y="-442.3" font-family="Roboto" font-size="14.00" fill="#ffffff">neovim&#45;0.4.3 (31.61 MiB)</text>
</g>
<!-- N45&#45;&gt;N28 -->
<g id="edge24" class="edge">
<title>N45&#45;&gt;N28</title>
<path fill="none" stroke="black" d="M369.54,-451.37C399.18,-456.73 429.58,-465.84 455.36,-481 530.81,-525.37 585.28,-617.93 608.86,-663.89"/>
<polygon fill="black" stroke="black" points="605.8,-665.6 613.42,-672.96 612.06,-662.45 605.8,-665.6"/>
</g>
<!-- N46 -->
<g id="node38" class="node">
<title>N46</title>
<polygon fill="#4092e3" stroke="#4092e3" points="388.29,-928.54 388.29,-943.46 302.15,-954 180.32,-954 94.18,-943.46 94.18,-928.54 180.32,-918 302.15,-918 388.29,-928.54"/>
<polygon fill="none" stroke="#4092e3" points="392.3,-925 392.3,-947 302.39,-958 180.08,-958 90.18,-947 90.18,-925 180.08,-914 302.39,-914 392.3,-925"/>
<polygon fill="none" stroke="#4092e3" points="396.3,-921.46 396.3,-950.54 302.64,-962 179.83,-962 86.18,-950.54 86.18,-921.46 179.83,-910 302.64,-910 396.3,-921.46"/>
<text text-anchor="middle" x="241.24" y="-932.3" font-family="Roboto" font-size="14.00" fill="#ffffff">stepmania&#45;5.1.0&#45;b2 (74.58 MiB)</text>
</g>
<!-- N46&#45;&gt;N28 -->
<g id="edge25" class="edge">
<title>N46&#45;&gt;N28</title>
<path fill="none" stroke="black" d="M396.36,-924.71C417.06,-919.24 437.34,-911.6 455.36,-901 530.81,-856.63 585.28,-764.07 608.86,-718.11"/>
<polygon fill="black" stroke="black" points="612.06,-719.55 613.42,-709.04 605.8,-716.4 612.06,-719.55"/>
</g>
<!-- N2 -->
<g id="node39" class="node">
<title>N2</title>
<polygon fill="#cffe28" stroke="#cffe28" points="344.14,-2188.54 344.14,-2203.46 283.86,-2214 198.61,-2214 138.33,-2203.46 138.33,-2188.54 198.61,-2178 283.86,-2178 344.14,-2188.54"/>
<polygon fill="none" stroke="#cffe28" points="348.15,-2185.18 348.15,-2206.82 284.21,-2218 198.26,-2218 134.32,-2206.82 134.32,-2185.18 198.26,-2174 284.21,-2174 348.15,-2185.18"/>
<polygon fill="none" stroke="#cffe28" points="352.16,-2181.82 352.16,-2210.18 284.56,-2222 197.91,-2222 130.32,-2210.18 130.32,-2181.82 197.91,-2170 284.56,-2170 352.16,-2181.82"/>
<text text-anchor="middle" x="241.24" y="-2192.3" font-family="Roboto" font-size="14.00" fill="#000000">steam (1018.72 MiB)</text>
</g>
<!-- N2&#45;&gt;N9 -->
<g id="edge26" class="edge">
<title>N2&#45;&gt;N9</title>
<path fill="none" stroke="black" d="M130.43,-2207.19C83.49,-2205.14 33.96,-2192.21 9.11,-2152 -3.04,-2132.34 -3.04,-2119.66 9.11,-2100 24.3,-2075.42 48.71,-2061.04 76.11,-2053.1"/>
<polygon fill="black" stroke="black" points="77.12,-2056.45 85.92,-2050.55 75.36,-2049.68 77.12,-2056.45"/>
</g>
<!-- N2&#45;&gt;N31 -->
<g id="edge28" class="edge">
<title>N2&#45;&gt;N31</title>
<path fill="none" stroke="black" d="M349.6,-2181.37C383.62,-2175.93 421.25,-2169.09 455.36,-2161 490.72,-2152.62 529.52,-2140.67 560.76,-2130.33"/>
<polygon fill="black" stroke="black" points="562.25,-2133.53 570.63,-2127.04 560.03,-2126.89 562.25,-2133.53"/>
</g>
<!-- N2&#45;&gt;N30 -->
<g id="edge27" class="edge">
<title>N2&#45;&gt;N30</title>
<path fill="none" stroke="black" d="M352.04,-2206.12C403.36,-2210.86 464.24,-2216.47 515.17,-2221.16"/>
<polygon fill="black" stroke="black" points="514.93,-2224.66 525.21,-2222.09 515.58,-2217.69 514.93,-2224.66"/>
</g>
<!-- N47 -->
<g id="node40" class="node">
<title>N47</title>
<polygon fill="#4169e1" stroke="#4169e1" points="365.77,-998.54 365.77,-1013.46 292.82,-1024 189.65,-1024 116.7,-1013.46 116.7,-998.54 189.65,-988 292.82,-988 365.77,-998.54"/>
<polygon fill="none" stroke="#4169e1" points="369.77,-995.08 369.77,-1016.92 293.11,-1028 189.36,-1028 112.7,-1016.92 112.7,-995.08 189.36,-984 293.11,-984 369.77,-995.08"/>
<polygon fill="none" stroke="#4169e1" points="373.77,-991.62 373.77,-1020.38 293.4,-1032 189.08,-1032 108.7,-1020.38 108.7,-991.62 189.08,-980 293.4,-980 373.77,-991.62"/>
<text text-anchor="middle" x="241.24" y="-1002.3" font-family="Roboto" font-size="14.00" fill="#ffffff">arandr&#45;0.1.10 (203.91 KiB)</text>
</g>
<!-- N47&#45;&gt;N33 -->
<g id="edge29" class="edge">
<title>N47&#45;&gt;N33</title>
<path fill="none" stroke="black" d="M374,-1016.34C401.71,-1021.59 430.15,-1029.41 455.36,-1041 514.83,-1068.34 570.09,-1122.83 599.58,-1155.18"/>
<polygon fill="black" stroke="black" points="597.23,-1157.79 606.51,-1162.89 602.43,-1153.11 597.23,-1157.79"/>
</g>
<!-- N1 -->
<g id="node41" class="node">
<title>N1</title>
<polygon fill="#3ebae7" stroke="#3ebae7" points="384.76,-508.54 384.76,-523.46 300.69,-534 181.79,-534 97.71,-523.46 97.71,-508.54 181.79,-498 300.69,-498 384.76,-508.54"/>
<polygon fill="none" stroke="#3ebae7" points="388.76,-505.01 388.76,-526.99 300.94,-538 181.54,-538 93.71,-526.99 93.71,-505.01 181.54,-494 300.94,-494 388.76,-505.01"/>
<polygon fill="none" stroke="#3ebae7" points="392.76,-501.48 392.76,-530.52 301.19,-542 181.29,-542 89.71,-530.52 89.71,-501.48 181.29,-490 301.19,-490 392.76,-501.48"/>
<text text-anchor="middle" x="241.24" y="-512.3" font-family="Roboto" font-size="14.00" fill="#000000">upwork&#45;5.3.3.862 (168.58 MiB)</text>
</g>
<!-- N1&#45;&gt;N28 -->
<g id="edge30" class="edge">
<title>N1&#45;&gt;N28</title>
<path fill="none" stroke="black" d="M392.88,-530.32C414.42,-535.33 435.86,-542.03 455.36,-551 514.83,-578.34 570.09,-632.83 599.58,-665.18"/>
<polygon fill="black" stroke="black" points="597.23,-667.79 606.51,-672.89 602.43,-663.11 597.23,-667.79"/>
</g>
<!-- N48 -->
<g id="node42" class="node">
<title>N48</title>
<polygon fill="#407ee2" stroke="#407ee2" points="383.86,-1278.54 383.86,-1293.46 300.31,-1304 182.16,-1304 98.61,-1293.46 98.61,-1278.54 182.16,-1268 300.31,-1268 383.86,-1278.54"/>
<polygon fill="none" stroke="#407ee2" points="387.86,-1275.02 387.86,-1296.98 300.57,-1308 181.91,-1308 94.61,-1296.98 94.61,-1275.02 181.91,-1264 300.57,-1264 387.86,-1275.02"/>
<polygon fill="none" stroke="#407ee2" points="391.85,-1271.49 391.85,-1300.51 300.82,-1312 181.66,-1312 90.62,-1300.51 90.62,-1271.49 181.66,-1260 300.82,-1260 391.85,-1271.49"/>
<text text-anchor="middle" x="241.24" y="-1282.3" font-family="Roboto" font-size="14.00" fill="#ffffff">virt&#45;manager&#45;2.2.1 (35.88 MiB)</text>
</g>
<!-- N48&#45;&gt;N33 -->
<g id="edge31" class="edge">
<title>N48&#45;&gt;N33</title>
<path fill="none" stroke="black" d="M374.34,-1269.28C401.4,-1264.47 429.51,-1258.44 455.36,-1251 497.59,-1238.84 543.49,-1219.01 576.38,-1203.56"/>
<polygon fill="black" stroke="black" points="578.19,-1206.57 585.73,-1199.12 575.19,-1200.25 578.19,-1206.57"/>
</g>
</g>
</svg>
