<?xml version="1.0" encoding="UTF-8" standalone="no"?>
<!DOCTYPE svg PUBLIC "-//W3C//DTD SVG 1.1//EN"
 "http://www.w3.org/Graphics/SVG/1.1/DTD/svg11.dtd">
<!-- Generated by graphviz version 2.43.0 (0)
 -->
<!-- Title: nixstore Pages: 1 -->
<svg width="723pt" height="3140pt"
 viewBox="0.00 0.00 722.80 3140.00" xmlns="http://www.w3.org/2000/svg" xmlns:xlink="http://www.w3.org/1999/xlink">
<g id="graph0" class="graph" transform="scale(1 1) rotate(0) translate(4 3136)">
<title>nixstore</title>
<polygon fill="white" stroke="transparent" points="-4,4 -4,-3136 718.8,-3136 718.8,4 -4,4"/>
<!-- N52 -->
<g id="node1" class="node">
<title>N52</title>
<polygon fill="#fe0000" stroke="#fe0000" points="356.75,-18.54 356.75,-33.46 291.56,-44 199.36,-44 134.16,-33.46 134.16,-18.54 199.36,-8 291.56,-8 356.75,-18.54"/>
<polygon fill="none" stroke="#fe0000" points="360.76,-15.14 360.76,-36.86 291.88,-48 199.04,-48 130.16,-36.86 130.16,-15.14 199.04,-4 291.88,-4 360.76,-15.14"/>
<polygon fill="none" stroke="#fe0000" points="364.76,-11.74 364.76,-40.26 292.2,-52 198.71,-52 126.15,-40.26 126.15,-11.74 198.71,0 292.2,0 364.76,-11.74"/>
<text text-anchor="middle" x="245.46" y="-22.3" font-family="Times-Roman" font-size="14.00" fill="#000000">{filtered out} (2.35 GiB)</text>
</g>
<!-- N30 -->
<g id="node2" class="node">
<title>N30</title>
<polygon fill="#3dd0e9" stroke="#3dd0e9" points="436.66,-1768.54 436.66,-1783.46 324.66,-1794 166.26,-1794 54.25,-1783.46 54.25,-1768.54 166.26,-1758 324.66,-1758 436.66,-1768.54"/>
<polygon fill="none" stroke="#3dd0e9" points="440.66,-1764.9 440.66,-1787.1 324.84,-1798 166.07,-1798 50.25,-1787.1 50.25,-1764.9 166.07,-1754 324.84,-1754 440.66,-1764.9"/>
<polygon fill="none" stroke="#3dd0e9" points="444.66,-1761.26 444.66,-1790.74 325.03,-1802 165.88,-1802 46.26,-1790.74 46.26,-1761.26 165.88,-1750 325.03,-1750 444.66,-1761.26"/>
<text text-anchor="middle" x="245.46" y="-1772.3" font-family="Times-Roman" font-size="14.00" fill="#000000">tor&#45;browser&#45;bundle&#45;bin&#45;9.0.9 (223.43 MiB)</text>
</g>
<!-- N26 -->
<g id="node7" class="node">
<title>N26</title>
<polygon fill="#3ecbe9" stroke="#3ecbe9" points="392.52,-1628.54 392.52,-1643.46 306.37,-1654 184.54,-1654 98.4,-1643.46 98.4,-1628.54 184.54,-1618 306.37,-1618 392.52,-1628.54"/>
<polygon fill="none" stroke="#3ecbe9" points="396.52,-1625 396.52,-1647 306.61,-1658 184.3,-1658 94.4,-1647 94.4,-1625 184.3,-1614 306.61,-1614 396.52,-1625"/>
<polygon fill="none" stroke="#3ecbe9" points="400.52,-1621.46 400.52,-1650.54 306.86,-1662 184.06,-1662 90.4,-1650.54 90.4,-1621.46 184.06,-1610 306.86,-1610 400.52,-1621.46"/>
<text text-anchor="middle" x="245.46" y="-1632.3" font-family="Times-Roman" font-size="14.00" fill="#000000">glibc&#45;locales&#45;2.30 (209.50 MiB)</text>
</g>
<!-- N30&#45;&gt;N26 -->
<g id="edge1" class="edge">
<title>N30&#45;&gt;N26</title>
<path fill="none" stroke="black" d="M90.19,-1757.11C68.75,-1752.77 47.21,-1747.47 27.11,-1741 18.6,-1738.26 13.81,-1739.61 9.11,-1732 -3.04,-1712.34 -3.04,-1699.66 9.11,-1680 25.13,-1654.08 51.23,-1639.37 80.36,-1631.58"/>
<polygon fill="black" stroke="black" points="81.43,-1634.92 90.34,-1629.19 79.81,-1628.11 81.43,-1634.92"/>
</g>
<!-- N29 -->
<g id="node3" class="node">
<title>N29</title>
<polygon fill="#3af0d6" stroke="#3af0d6" points="355.43,-508.54 355.43,-523.46 291.01,-534 199.9,-534 135.48,-523.46 135.48,-508.54 199.9,-498 291.01,-498 355.43,-508.54"/>
<polygon fill="none" stroke="#3af0d6" points="359.44,-505.15 359.44,-526.85 291.34,-538 199.58,-538 131.48,-526.85 131.48,-505.15 199.58,-494 291.34,-494 359.44,-505.15"/>
<polygon fill="none" stroke="#3af0d6" points="363.45,-501.75 363.45,-530.25 291.66,-542 199.25,-542 127.47,-530.25 127.47,-501.75 199.25,-490 291.66,-490 363.45,-501.75"/>
<text text-anchor="middle" x="245.46" y="-512.3" font-family="Times-Roman" font-size="14.00" fill="#000000">go&#45;1.14.2 (392.12 MiB)</text>
</g>
<!-- N31 -->
<g id="node46" class="node">
<title>N31</title>
<polygon fill="#3fb2e6" stroke="#3fb2e6" points="684.8,-499 529.8,-499 529.8,-463 684.8,-463 684.8,-499"/>
<text text-anchor="middle" x="607.3" y="-477.3" font-family="Times-Roman" font-size="14.00" fill="#ffffff">gcc&#45;9.3.0 (144.20 MiB)</text>
</g>
<!-- N29&#45;&gt;N31 -->
<g id="edge2" class="edge">
<title>N29&#45;&gt;N31</title>
<path fill="none" stroke="black" d="M363.29,-504.64C414.14,-499.69 472.7,-493.99 519.59,-489.43"/>
<polygon fill="black" stroke="black" points="520.1,-492.9 529.72,-488.45 519.42,-485.93 520.1,-492.9"/>
</g>
<!-- N38 -->
<g id="node4" class="node">
<title>N38</title>
<polygon fill="#3f9ee4" stroke="#3f9ee4" points="365.56,-438.54 365.56,-453.46 295.21,-464 195.71,-464 125.35,-453.46 125.35,-438.54 195.71,-428 295.21,-428 365.56,-438.54"/>
<polygon fill="none" stroke="#3f9ee4" points="369.56,-435.1 369.56,-456.9 295.5,-468 195.41,-468 121.36,-456.9 121.36,-435.1 195.41,-424 295.5,-424 369.56,-435.1"/>
<polygon fill="none" stroke="#3f9ee4" points="373.55,-431.65 373.55,-460.35 295.8,-472 195.11,-472 117.36,-460.35 117.36,-431.65 195.11,-420 295.8,-420 373.55,-431.65"/>
<text text-anchor="middle" x="245.46" y="-442.3" font-family="Times-Roman" font-size="14.00" fill="#ffffff">neovim&#45;0.4.3 (96.48 MiB)</text>
</g>
<!-- N38&#45;&gt;N31 -->
<g id="edge3" class="edge">
<title>N38&#45;&gt;N31</title>
<path fill="none" stroke="black" d="M373.58,-458.36C421.9,-463.06 475.79,-468.31 519.54,-472.56"/>
<polygon fill="black" stroke="black" points="519.28,-476.05 529.57,-473.54 519.95,-469.08 519.28,-476.05"/>
</g>
<!-- N28 -->
<g id="node5" class="node">
<title>N28</title>
<polygon fill="#3beee5" stroke="#3beee5" points="365.14,-1838.54 365.14,-1853.46 295.03,-1864 195.88,-1864 125.78,-1853.46 125.78,-1838.54 195.88,-1828 295.03,-1828 365.14,-1838.54"/>
<polygon fill="none" stroke="#3beee5" points="369.14,-1835.1 369.14,-1856.9 295.33,-1868 195.58,-1868 121.77,-1856.9 121.77,-1835.1 195.58,-1824 295.33,-1824 369.14,-1835.1"/>
<polygon fill="none" stroke="#3beee5" points="373.14,-1831.66 373.14,-1860.34 295.63,-1872 195.28,-1872 117.77,-1860.34 117.77,-1831.66 195.28,-1820 295.63,-1820 373.14,-1831.66"/>
<text text-anchor="middle" x="245.46" y="-1842.3" font-family="Times-Roman" font-size="14.00" fill="#000000">elixir&#45;1.10.3 (338.41 MiB)</text>
</g>
<!-- N27 -->
<g id="node6" class="node">
<title>N27</title>
<polygon fill="#36f68c" stroke="#36f68c" points="386.77,-1418.54 386.77,-1433.46 303.99,-1444 186.92,-1444 104.15,-1433.46 104.15,-1418.54 186.92,-1408 303.99,-1408 386.77,-1418.54"/>
<polygon fill="none" stroke="#36f68c" points="390.76,-1415.02 390.76,-1436.98 304.24,-1448 186.67,-1448 100.15,-1436.98 100.15,-1415.02 186.67,-1404 304.24,-1404 390.76,-1415.02"/>
<polygon fill="none" stroke="#36f68c" points="394.76,-1411.5 394.76,-1440.5 304.5,-1452 186.42,-1452 96.15,-1440.5 96.15,-1411.5 186.42,-1400 304.5,-1400 394.76,-1411.5"/>
<text text-anchor="middle" x="245.46" y="-1422.3" font-family="Times-Roman" font-size="14.00" fill="#000000">wesnoth&#45;1.14.11 (570.10 MiB)</text>
</g>
<!-- N34 -->
<g id="node47" class="node">
<title>N34</title>
<polygon fill="#38f3b6" stroke="#38f3b6" points="702.8,-1269 511.8,-1269 511.8,-1233 702.8,-1233 702.8,-1269"/>
<text text-anchor="middle" x="607.3" y="-1247.3" font-family="Times-Roman" font-size="14.00" fill="#000000">libGL&#45;1.3.1&#45;dev (482.86 MiB)</text>
</g>
<!-- N27&#45;&gt;N34 -->
<g id="edge4" class="edge">
<title>N27&#45;&gt;N34</title>
<path fill="none" stroke="black" d="M395.01,-1414.65C418.81,-1409.32 442.57,-1401.73 463.8,-1391 517.22,-1363.99 563.37,-1309.78 587.78,-1277.31"/>
<polygon fill="black" stroke="black" points="590.67,-1279.28 593.8,-1269.16 585.04,-1275.13 590.67,-1279.28"/>
</g>
<!-- N39 -->
<g id="node8" class="node">
<title>N39</title>
<polygon fill="#4077e1" stroke="#4077e1" points="347.47,-1348.54 347.47,-1363.46 287.71,-1374 203.2,-1374 143.44,-1363.46 143.44,-1348.54 203.2,-1338 287.71,-1338 347.47,-1348.54"/>
<polygon fill="none" stroke="#4077e1" points="351.47,-1345.19 351.47,-1366.81 288.06,-1378 202.85,-1378 139.44,-1366.81 139.44,-1345.19 202.85,-1334 288.06,-1334 351.47,-1345.19"/>
<polygon fill="none" stroke="#4077e1" points="355.47,-1341.83 355.47,-1370.17 288.41,-1382 202.5,-1382 135.44,-1370.17 135.44,-1341.83 202.5,-1330 288.41,-1330 355.47,-1341.83"/>
<text text-anchor="middle" x="245.46" y="-1352.3" font-family="Times-Roman" font-size="14.00" fill="#ffffff">piper&#45;0.4 (22.46 MiB)</text>
</g>
<!-- N39&#45;&gt;N34 -->
<g id="edge5" class="edge">
<title>N39&#45;&gt;N34</title>
<path fill="none" stroke="black" d="M355.73,-1344.86C390.76,-1339.59 429.38,-1331.95 463.8,-1321 500.38,-1309.36 539.33,-1289.67 567.25,-1274.13"/>
<polygon fill="black" stroke="black" points="569.28,-1277 576.27,-1269.04 565.84,-1270.91 569.28,-1277"/>
</g>
<!-- N25 -->
<g id="node9" class="node">
<title>N25</title>
<polygon fill="#3fa9e5" stroke="#3fa9e5" points="394.73,-1908.54 394.73,-1923.46 307.29,-1934 183.63,-1934 96.18,-1923.46 96.18,-1908.54 183.63,-1898 307.29,-1898 394.73,-1908.54"/>
<polygon fill="none" stroke="#3fa9e5" points="398.73,-1905 398.73,-1927 307.53,-1938 183.38,-1938 92.18,-1927 92.18,-1905 183.38,-1894 307.53,-1894 398.73,-1905"/>
<polygon fill="none" stroke="#3fa9e5" points="402.74,-1901.45 402.74,-1930.55 307.77,-1942 183.14,-1942 88.18,-1930.55 88.18,-1901.45 183.14,-1890 307.77,-1890 402.74,-1901.45"/>
<text text-anchor="middle" x="245.46" y="-1912.3" font-family="Times-Roman" font-size="14.00" fill="#ffffff">wireshark&#45;cli&#45;3.2.4 (121.83 MiB)</text>
</g>
<!-- N24 -->
<g id="node10" class="node">
<title>N24</title>
<polygon fill="#3fb6e7" stroke="#3fb6e7" points="365.56,-1978.54 365.56,-1993.46 295.21,-2004 195.71,-2004 125.35,-1993.46 125.35,-1978.54 195.71,-1968 295.21,-1968 365.56,-1978.54"/>
<polygon fill="none" stroke="#3fb6e7" points="369.56,-1975.1 369.56,-1996.9 295.5,-2008 195.41,-2008 121.36,-1996.9 121.36,-1975.1 195.41,-1964 295.5,-1964 369.56,-1975.1"/>
<polygon fill="none" stroke="#3fb6e7" points="373.55,-1971.65 373.55,-2000.35 295.8,-2012 195.11,-2012 117.36,-2000.35 117.36,-1971.65 195.11,-1960 295.8,-1960 373.55,-1971.65"/>
<text text-anchor="middle" x="245.46" y="-1982.3" font-family="Times-Roman" font-size="14.00" fill="#ffffff">emacs&#45;26.3 (152.38 MiB)</text>
</g>
<!-- N23 -->
<g id="node11" class="node">
<title>N23</title>
<polygon fill="#fed801" stroke="#fed801" points="362.92,-1488.54 362.92,-1503.46 294.11,-1514 196.8,-1514 127.99,-1503.46 127.99,-1488.54 196.8,-1478 294.11,-1478 362.92,-1488.54"/>
<polygon fill="none" stroke="#fed801" points="366.92,-1485.11 366.92,-1506.89 294.42,-1518 196.5,-1518 123.99,-1506.89 123.99,-1485.11 196.5,-1474 294.42,-1474 366.92,-1485.11"/>
<polygon fill="none" stroke="#fed801" points="370.92,-1481.68 370.92,-1510.32 294.72,-1522 196.19,-1522 119.99,-1510.32 119.99,-1481.68 196.19,-1470 294.72,-1470 370.92,-1481.68"/>
<text text-anchor="middle" x="245.46" y="-1492.3" font-family="Times-Roman" font-size="14.00" fill="#000000">wine&#45;wow&#45;5.0 (1.55 GiB)</text>
</g>
<!-- N23&#45;&gt;N34 -->
<g id="edge6" class="edge">
<title>N23&#45;&gt;N34</title>
<path fill="none" stroke="black" d="M371.15,-1493.37C403.23,-1488.17 436.4,-1478.45 463.8,-1461 533.56,-1416.57 577.64,-1324.38 596.19,-1278.36"/>
<polygon fill="black" stroke="black" points="599.46,-1279.6 599.86,-1269.02 592.94,-1277.04 599.46,-1279.6"/>
</g>
<!-- N36 -->
<g id="node48" class="node">
<title>N36</title>
<polygon fill="#3fafe6" stroke="#3fafe6" points="711.8,-1522 502.8,-1522 502.8,-1486 711.8,-1486 711.8,-1522"/>
<text text-anchor="middle" x="607.3" y="-1500.3" font-family="Times-Roman" font-size="14.00" fill="#ffffff">systemd&#45;245.5&#45;lib (135.38 MiB)</text>
</g>
<!-- N23&#45;&gt;N36 -->
<g id="edge7" class="edge">
<title>N23&#45;&gt;N36</title>
<path fill="none" stroke="black" d="M371.05,-1498.77C410.48,-1499.65 453.83,-1500.61 492.46,-1501.47"/>
<polygon fill="black" stroke="black" points="492.62,-1504.97 502.7,-1501.7 492.78,-1497.98 492.62,-1504.97"/>
</g>
<!-- N40 -->
<g id="node12" class="node">
<title>N40</title>
<polygon fill="#408be3" stroke="#408be3" points="388.09,-1278.54 388.09,-1293.46 304.54,-1304 186.38,-1304 102.83,-1293.46 102.83,-1278.54 186.38,-1268 304.54,-1268 388.09,-1278.54"/>
<polygon fill="none" stroke="#408be3" points="392.08,-1275.02 392.08,-1296.98 304.79,-1308 186.13,-1308 98.83,-1296.98 98.83,-1275.02 186.13,-1264 304.79,-1264 392.08,-1275.02"/>
<polygon fill="none" stroke="#408be3" points="396.08,-1271.49 396.08,-1300.51 305.04,-1312 185.88,-1312 94.84,-1300.51 94.84,-1271.49 185.88,-1260 305.04,-1260 396.08,-1271.49"/>
<text text-anchor="middle" x="245.46" y="-1282.3" font-family="Times-Roman" font-size="14.00" fill="#ffffff">virt&#45;manager&#45;2.2.1 (57.21 MiB)</text>
</g>
<!-- N40&#45;&gt;N34 -->
<g id="edge8" class="edge">
<title>N40&#45;&gt;N34</title>
<path fill="none" stroke="black" d="M395.94,-1271.46C431.46,-1268.01 468.62,-1264.39 501.64,-1261.18"/>
<polygon fill="black" stroke="black" points="502.14,-1264.65 511.75,-1260.2 501.46,-1257.68 502.14,-1264.65"/>
</g>
<!-- N22 -->
<g id="node13" class="node">
<title>N22</title>
<polygon fill="#cffe28" stroke="#cffe28" points="362.92,-368.54 362.92,-383.46 294.11,-394 196.8,-394 127.99,-383.46 127.99,-368.54 196.8,-358 294.11,-358 362.92,-368.54"/>
<polygon fill="none" stroke="#cffe28" points="366.92,-365.11 366.92,-386.89 294.42,-398 196.5,-398 123.99,-386.89 123.99,-365.11 196.5,-354 294.42,-354 366.92,-365.11"/>
<polygon fill="none" stroke="#cffe28" points="370.92,-361.68 370.92,-390.32 294.72,-402 196.19,-402 119.99,-390.32 119.99,-361.68 196.19,-350 294.72,-350 370.92,-361.68"/>
<text text-anchor="middle" x="245.46" y="-372.3" font-family="Times-Roman" font-size="14.00" fill="#000000">unar&#45;1.10.7 (990.98 MiB)</text>
</g>
<!-- N22&#45;&gt;N31 -->
<g id="edge9" class="edge">
<title>N22&#45;&gt;N31</title>
<path fill="none" stroke="black" d="M370.94,-389.54C401.71,-394.66 434.3,-401.61 463.8,-411 500.38,-422.64 539.33,-442.33 567.25,-457.87"/>
<polygon fill="black" stroke="black" points="565.84,-461.09 576.27,-462.96 569.28,-455 565.84,-461.09"/>
</g>
<!-- N41 -->
<g id="node14" class="node">
<title>N41</title>
<polygon fill="#406be1" stroke="#406be1" points="360.71,-298.54 360.71,-313.46 293.2,-324 197.72,-324 130.2,-313.46 130.2,-298.54 197.72,-288 293.2,-288 360.71,-298.54"/>
<polygon fill="none" stroke="#406be1" points="364.71,-295.12 364.71,-316.88 293.51,-328 197.41,-328 126.21,-316.88 126.21,-295.12 197.41,-284 293.51,-284 364.71,-295.12"/>
<polygon fill="none" stroke="#406be1" points="368.7,-291.7 368.7,-320.3 293.82,-332 197.1,-332 122.21,-320.3 122.21,-291.7 197.1,-280 293.82,-280 368.7,-291.7"/>
<text text-anchor="middle" x="245.46" y="-302.3" font-family="Times-Roman" font-size="14.00" fill="#ffffff">polybar&#45;3.4.3 (3.30 MiB)</text>
</g>
<!-- N41&#45;&gt;N31 -->
<g id="edge10" class="edge">
<title>N41&#45;&gt;N31</title>
<path fill="none" stroke="black" d="M368.74,-312.32C400.91,-317.51 434.72,-326.3 463.8,-341 517.22,-368.01 563.37,-422.22 587.78,-454.69"/>
<polygon fill="black" stroke="black" points="585.04,-456.87 593.8,-462.84 590.67,-452.72 585.04,-456.87"/>
</g>
<!-- N42 -->
<g id="node15" class="node">
<title>N42</title>
<polygon fill="#4086e2" stroke="#4086e2" points="419.89,-1698.54 419.89,-1713.46 317.71,-1724 173.2,-1724 71.02,-1713.46 71.02,-1698.54 173.2,-1688 317.71,-1688 419.89,-1698.54"/>
<polygon fill="none" stroke="#4086e2" points="423.89,-1694.94 423.89,-1717.06 317.92,-1728 173,-1728 67.02,-1717.06 67.02,-1694.94 173,-1684 317.92,-1684 423.89,-1694.94"/>
<polygon fill="none" stroke="#4086e2" points="427.89,-1691.33 427.89,-1720.67 318.12,-1732 172.79,-1732 63.02,-1720.67 63.02,-1691.33 172.79,-1680 318.12,-1680 427.89,-1691.33"/>
<text text-anchor="middle" x="245.46" y="-1702.3" font-family="Times-Roman" font-size="14.00" fill="#ffffff">openra&#45;release&#45;20190314 (47.51 MiB)</text>
</g>
<!-- N35 -->
<g id="node49" class="node">
<title>N35</title>
<polygon fill="#3ceced" stroke="#3ceced" points="704.8,-1654 509.8,-1654 509.8,-1618 704.8,-1618 704.8,-1654"/>
<text text-anchor="middle" x="607.3" y="-1632.3" font-family="Times-Roman" font-size="14.00" fill="#000000">mono&#45;5.20.1.27 (304.81 MiB)</text>
</g>
<!-- N42&#45;&gt;N35 -->
<g id="edge11" class="edge">
<title>N42&#45;&gt;N35</title>
<path fill="none" stroke="black" d="M379.52,-1686.33C407.44,-1681.71 436.65,-1676.51 463.8,-1671 484.71,-1666.76 507.18,-1661.54 527.97,-1656.45"/>
<polygon fill="black" stroke="black" points="528.83,-1659.84 537.7,-1654.04 527.15,-1653.05 528.83,-1659.84"/>
</g>
<!-- N21 -->
<g id="node16" class="node">
<title>N21</title>
<polygon fill="#3ddeeb" stroke="#3ddeeb" points="425.64,-2048.54 425.64,-2063.46 320.09,-2074 170.82,-2074 65.27,-2063.46 65.27,-2048.54 170.82,-2038 320.09,-2038 425.64,-2048.54"/>
<polygon fill="none" stroke="#3ddeeb" points="429.64,-2044.92 429.64,-2067.08 320.29,-2078 170.62,-2078 61.27,-2067.08 61.27,-2044.92 170.62,-2034 320.29,-2034 429.64,-2044.92"/>
<polygon fill="none" stroke="#3ddeeb" points="433.65,-2041.3 433.65,-2070.7 320.49,-2082 170.42,-2082 57.27,-2070.7 57.27,-2041.3 170.42,-2030 320.49,-2030 433.65,-2041.3"/>
<text text-anchor="middle" x="245.46" y="-2052.3" font-family="Times-Roman" font-size="14.00" fill="#000000">qemu&#45;host&#45;cpu&#45;only&#45;4.2.0 (263.29 MiB)</text>
</g>
<!-- N20 -->
<g id="node17" class="node">
<title>N20</title>
<polygon fill="#3ec0e8" stroke="#3ec0e8" points="422.11,-2118.54 422.11,-2133.46 318.63,-2144 172.29,-2144 68.81,-2133.46 68.81,-2118.54 172.29,-2108 318.63,-2108 422.11,-2118.54"/>
<polygon fill="none" stroke="#3ec0e8" points="426.11,-2114.93 426.11,-2137.07 318.83,-2148 172.08,-2148 64.81,-2137.07 64.81,-2114.93 172.08,-2104 318.83,-2104 426.11,-2114.93"/>
<polygon fill="none" stroke="#3ec0e8" points="430.11,-2111.32 430.11,-2140.68 319.03,-2152 171.88,-2152 60.8,-2140.68 60.8,-2111.32 171.88,-2100 319.03,-2100 430.11,-2111.32"/>
<text text-anchor="middle" x="245.46" y="-2122.3" font-family="Times-Roman" font-size="14.00" fill="#000000">firefox&#45;unwrapped&#45;76.0.1 (178.78 MiB)</text>
</g>
<!-- N43 -->
<g id="node18" class="node">
<title>N43</title>
<polygon fill="#4169e1" stroke="#4169e1" points="377.48,-2398.54 377.48,-2413.46 300.14,-2424 190.77,-2424 113.43,-2413.46 113.43,-2398.54 190.77,-2388 300.14,-2388 377.48,-2398.54"/>
<polygon fill="none" stroke="#4169e1" points="381.48,-2395.05 381.48,-2416.95 300.41,-2428 190.5,-2428 109.44,-2416.95 109.44,-2395.05 190.5,-2384 300.41,-2384 381.48,-2395.05"/>
<polygon fill="none" stroke="#4169e1" points="385.47,-2391.56 385.47,-2420.44 300.69,-2432 190.23,-2432 105.44,-2420.44 105.44,-2391.56 190.23,-2380 300.69,-2380 385.47,-2391.56"/>
<text text-anchor="middle" x="245.46" y="-2402.3" font-family="Times-Roman" font-size="14.00" fill="#ffffff">libreoffice&#45;6.4.3.2 (3.55 KiB)</text>
</g>
<!-- N15 -->
<g id="node24" class="node">
<title>N15</title>
<polygon fill="#37f5a1" stroke="#37f5a1" points="390.3,-2328.54 390.3,-2343.46 305.45,-2354 185.46,-2354 100.61,-2343.46 100.61,-2328.54 185.46,-2318 305.45,-2318 390.3,-2328.54"/>
<polygon fill="none" stroke="#37f5a1" points="394.3,-2325.01 394.3,-2346.99 305.7,-2358 185.21,-2358 96.62,-2346.99 96.62,-2325.01 185.21,-2314 305.7,-2314 394.3,-2325.01"/>
<polygon fill="none" stroke="#37f5a1" points="398.3,-2321.48 398.3,-2350.52 305.95,-2362 184.97,-2362 92.62,-2350.52 92.62,-2321.48 184.97,-2310 305.95,-2310 398.3,-2321.48"/>
<text text-anchor="middle" x="245.46" y="-2332.3" font-family="Times-Roman" font-size="14.00" fill="#000000">libreoffice&#45;6.4.3.2 (530.58 MiB)</text>
</g>
<!-- N43&#45;&gt;N15 -->
<g id="edge12" class="edge">
<title>N43&#45;&gt;N15</title>
<path fill="none" stroke="black" d="M245.46,-2379.68C245.46,-2377.23 245.46,-2374.78 245.46,-2372.33"/>
<polygon fill="black" stroke="black" points="248.96,-2372.25 245.46,-2362.25 241.96,-2372.25 248.96,-2372.25"/>
</g>
<!-- N19 -->
<g id="node19" class="node">
<title>N19</title>
<polygon fill="#3cedec" stroke="#3cedec" points="352.32,-2468.54 352.32,-2483.46 289.72,-2494 201.19,-2494 138.59,-2483.46 138.59,-2468.54 201.19,-2458 289.72,-2458 352.32,-2468.54"/>
<polygon fill="none" stroke="#3cedec" points="356.32,-2465.16 356.32,-2486.84 290.06,-2498 200.86,-2498 134.59,-2486.84 134.59,-2465.16 200.86,-2454 290.06,-2454 356.32,-2465.16"/>
<polygon fill="none" stroke="#3cedec" points="360.32,-2461.78 360.32,-2490.22 290.39,-2502 200.52,-2502 130.6,-2490.22 130.6,-2461.78 200.52,-2450 290.39,-2450 360.32,-2461.78"/>
<text text-anchor="middle" x="245.46" y="-2472.3" font-family="Times-Roman" font-size="14.00" fill="#000000">ino&#45;0.3.6 (310.72 MiB)</text>
</g>
<!-- N44 -->
<g id="node20" class="node">
<title>N44</title>
<polygon fill="#4073e1" stroke="#4073e1" points="373.53,-1208.54 373.53,-1223.46 298.5,-1234 192.41,-1234 117.39,-1223.46 117.39,-1208.54 192.41,-1198 298.5,-1198 373.53,-1208.54"/>
<polygon fill="none" stroke="#4073e1" points="377.53,-1205.07 377.53,-1226.93 298.78,-1238 192.13,-1238 113.39,-1226.93 113.39,-1205.07 192.13,-1194 298.78,-1194 377.53,-1205.07"/>
<polygon fill="none" stroke="#4073e1" points="381.53,-1201.59 381.53,-1230.41 299.06,-1242 191.85,-1242 109.39,-1230.41 109.39,-1201.59 191.85,-1190 299.06,-1190 381.53,-1201.59"/>
<text text-anchor="middle" x="245.46" y="-1212.3" font-family="Times-Roman" font-size="14.00" fill="#ffffff">tigervnc&#45;1.10.1 (15.64 MiB)</text>
</g>
<!-- N44&#45;&gt;N34 -->
<g id="edge13" class="edge">
<title>N44&#45;&gt;N34</title>
<path fill="none" stroke="black" d="M381.73,-1229.16C421.27,-1233 463.87,-1237.15 501.24,-1240.78"/>
<polygon fill="black" stroke="black" points="501.34,-1244.31 511.63,-1241.79 502.02,-1237.34 501.34,-1244.31"/>
</g>
<!-- N18 -->
<g id="node21" class="node">
<title>N18</title>
<polygon fill="#3dddeb" stroke="#3dddeb" points="358.07,-788.54 358.07,-803.46 292.1,-814 198.81,-814 132.84,-803.46 132.84,-788.54 198.81,-778 292.1,-778 358.07,-788.54"/>
<polygon fill="none" stroke="#3dddeb" points="362.07,-785.13 362.07,-806.87 292.42,-818 198.49,-818 128.84,-806.87 128.84,-785.13 198.49,-774 292.42,-774 362.07,-785.13"/>
<polygon fill="none" stroke="#3dddeb" points="366.07,-781.72 366.07,-810.28 292.74,-822 198.17,-822 124.84,-810.28 124.84,-781.72 198.17,-770 292.74,-770 366.07,-781.72"/>
<text text-anchor="middle" x="245.46" y="-792.3" font-family="Times-Roman" font-size="14.00" fill="#000000">cura&#45;4.6.1 (259.78 MiB)</text>
</g>
<!-- N37 -->
<g id="node50" class="node">
<title>N37</title>
<polygon fill="#3fb2e6" stroke="#3fb2e6" points="682.8,-919 531.8,-919 531.8,-883 682.8,-883 682.8,-919"/>
<text text-anchor="middle" x="607.3" y="-897.3" font-family="Times-Roman" font-size="14.00" fill="#ffffff">lapack&#45;3 (143.49 MiB)</text>
</g>
<!-- N18&#45;&gt;N37 -->
<g id="edge14" class="edge">
<title>N18&#45;&gt;N37</title>
<path fill="none" stroke="black" d="M366.11,-808.75C398.28,-813.94 432.75,-821.12 463.8,-831 500.38,-842.64 539.33,-862.33 567.25,-877.87"/>
<polygon fill="black" stroke="black" points="565.84,-881.09 576.27,-882.96 569.28,-875 565.84,-881.09"/>
</g>
<!-- N17 -->
<g id="node22" class="node">
<title>N17</title>
<polygon fill="#3ebce7" stroke="#3ebce7" points="388.98,-228.54 388.98,-243.46 304.91,-254 186.01,-254 101.93,-243.46 101.93,-228.54 186.01,-218 304.91,-218 388.98,-228.54"/>
<polygon fill="none" stroke="#3ebce7" points="392.98,-225.01 392.98,-246.99 305.16,-258 185.76,-258 97.93,-246.99 97.93,-225.01 185.76,-214 305.16,-214 392.98,-225.01"/>
<polygon fill="none" stroke="#3ebce7" points="396.98,-221.48 396.98,-250.52 305.41,-262 185.51,-262 93.93,-250.52 93.93,-221.48 185.51,-210 305.41,-210 396.98,-221.48"/>
<text text-anchor="middle" x="245.46" y="-232.3" font-family="Times-Roman" font-size="14.00" fill="#000000">upwork&#45;5.3.3.862 (168.58 MiB)</text>
</g>
<!-- N17&#45;&gt;N31 -->
<g id="edge15" class="edge">
<title>N17&#45;&gt;N31</title>
<path fill="none" stroke="black" d="M397.01,-243.83C420.58,-249.58 443.73,-258.22 463.8,-271 533.56,-315.43 577.64,-407.62 596.19,-453.64"/>
<polygon fill="black" stroke="black" points="592.94,-454.96 599.86,-462.98 599.46,-452.4 592.94,-454.96"/>
</g>
<!-- N16 -->
<g id="node23" class="node">
<title>N16</title>
<polygon fill="#c8fe29" stroke="#c8fe29" points="342.61,-1558.54 342.61,-1573.46 285.7,-1584 205.21,-1584 148.3,-1573.46 148.3,-1558.54 205.21,-1548 285.7,-1548 342.61,-1558.54"/>
<polygon fill="none" stroke="#c8fe29" points="346.62,-1555.22 346.62,-1576.78 286.07,-1588 204.84,-1588 144.3,-1576.78 144.3,-1555.22 204.84,-1544 286.07,-1544 346.62,-1555.22"/>
<polygon fill="none" stroke="#c8fe29" points="350.62,-1551.89 350.62,-1580.11 286.44,-1592 204.48,-1592 140.29,-1580.11 140.29,-1551.89 204.48,-1540 286.44,-1540 350.62,-1551.89"/>
<text text-anchor="middle" x="245.46" y="-1562.3" font-family="Times-Roman" font-size="14.00" fill="#000000">steam (949.70 MiB)</text>
</g>
<!-- N16&#45;&gt;N26 -->
<g id="edge16" class="edge">
<title>N16&#45;&gt;N26</title>
<path fill="none" stroke="black" d="M245.46,-1592.25C245.46,-1594.7 245.46,-1597.15 245.46,-1599.6"/>
<polygon fill="black" stroke="black" points="241.96,-1599.68 245.46,-1609.68 248.96,-1599.68 241.96,-1599.68"/>
</g>
<!-- N16&#45;&gt;N36 -->
<g id="edge18" class="edge">
<title>N16&#45;&gt;N36</title>
<path fill="none" stroke="black" d="M344.74,-1550.76C382.06,-1544.82 424.93,-1537.81 463.8,-1531 476.55,-1528.77 489.92,-1526.34 503.16,-1523.89"/>
<polygon fill="black" stroke="black" points="504.04,-1527.29 513.24,-1522.02 502.76,-1520.4 504.04,-1527.29"/>
</g>
<!-- N16&#45;&gt;N35 -->
<g id="edge17" class="edge">
<title>N16&#45;&gt;N35</title>
<path fill="none" stroke="black" d="M348.22,-1580.64C384.78,-1586.36 426.25,-1593.38 463.8,-1601 484.71,-1605.24 507.18,-1610.46 527.97,-1615.55"/>
<polygon fill="black" stroke="black" points="527.15,-1618.95 537.7,-1617.96 528.83,-1612.16 527.15,-1618.95"/>
</g>
<!-- N32 -->
<g id="node51" class="node">
<title>N32</title>
<polygon fill="#3ec8e9" stroke="#3ec8e9" points="714.8,-2319 499.8,-2319 499.8,-2283 714.8,-2283 714.8,-2319"/>
<text text-anchor="middle" x="607.3" y="-2297.3" font-family="Times-Roman" font-size="14.00" fill="#000000">openjdk&#45;8u242&#45;b08 (200.78 MiB)</text>
</g>
<!-- N15&#45;&gt;N32 -->
<g id="edge19" class="edge">
<title>N15&#45;&gt;N32</title>
<path fill="none" stroke="black" d="M397.24,-2321.33C428.06,-2318.34 460.05,-2315.23 489.46,-2312.36"/>
<polygon fill="black" stroke="black" points="490.14,-2315.82 499.75,-2311.36 489.46,-2308.85 490.14,-2315.82"/>
</g>
<!-- N14 -->
<g id="node25" class="node">
<title>N14</title>
<polygon fill="#fe6c00" stroke="#fe6c00" points="427.86,-718.54 427.86,-733.46 321.01,-744 169.9,-744 63.06,-733.46 63.06,-718.54 169.9,-708 321.01,-708 427.86,-718.54"/>
<polygon fill="none" stroke="#fe6c00" points="431.86,-714.92 431.86,-737.08 321.21,-748 169.71,-748 59.05,-737.08 59.05,-714.92 169.71,-704 321.21,-704 431.86,-714.92"/>
<polygon fill="none" stroke="#fe6c00" points="435.87,-711.3 435.87,-740.7 321.4,-752 169.51,-752 55.05,-740.7 55.05,-711.3 169.51,-700 321.4,-700 435.87,-711.3"/>
<text text-anchor="middle" x="245.46" y="-722.3" font-family="Times-Roman" font-size="14.00" fill="#000000">xmonad&#45;with&#45;packages&#45;8.8.3 (2.17 GiB)</text>
</g>
<!-- N14&#45;&gt;N31 -->
<g id="edge20" class="edge">
<title>N14&#45;&gt;N31</title>
<path fill="none" stroke="black" d="M424.21,-710.06C438.15,-705.06 451.55,-698.8 463.8,-691 533.56,-646.57 577.64,-554.38 596.19,-508.36"/>
<polygon fill="black" stroke="black" points="599.46,-509.6 599.86,-499.02 592.94,-507.04 599.46,-509.6"/>
</g>
<!-- N45 -->
<g id="node26" class="node">
<title>N45</title>
<polygon fill="#4074e1" stroke="#4074e1" points="374.42,-88.54 374.42,-103.46 298.88,-114 192.04,-114 116.49,-103.46 116.49,-88.54 192.04,-78 298.88,-78 374.42,-88.54"/>
<polygon fill="none" stroke="#4074e1" points="378.43,-85.06 378.43,-106.94 299.15,-118 191.76,-118 112.49,-106.94 112.49,-85.06 191.76,-74 299.15,-74 378.43,-85.06"/>
<polygon fill="none" stroke="#4074e1" points="382.44,-81.58 382.44,-110.42 299.43,-122 191.48,-122 108.48,-110.42 108.48,-81.58 191.48,-70 299.43,-70 382.44,-81.58"/>
<text text-anchor="middle" x="245.46" y="-92.3" font-family="Times-Roman" font-size="14.00" fill="#ffffff">nomacs&#45;3.14.2 (16.55 MiB)</text>
</g>
<!-- N33 -->
<g id="node52" class="node">
<title>N33</title>
<polygon fill="#3f9fe4" stroke="#3f9fe4" points="692.3,-149 522.3,-149 522.3,-113 692.3,-113 692.3,-149"/>
<text text-anchor="middle" x="607.3" y="-127.3" font-family="Times-Roman" font-size="14.00" fill="#ffffff">opencv&#45;4.3.0 (98.60 MiB)</text>
</g>
<!-- N45&#45;&gt;N33 -->
<g id="edge21" class="edge">
<title>N45&#45;&gt;N33</title>
<path fill="none" stroke="black" d="M382.24,-109.21C425.47,-113.41 472.33,-117.97 511.96,-121.82"/>
<polygon fill="black" stroke="black" points="511.85,-125.33 522.14,-122.81 512.52,-118.36 511.85,-125.33"/>
</g>
<!-- N13 -->
<g id="node27" class="node">
<title>N13</title>
<polygon fill="#3ceced" stroke="#3ceced" points="438.88,-2538.54 438.88,-2553.46 325.58,-2564 165.34,-2564 52.03,-2553.46 52.03,-2538.54 165.34,-2528 325.58,-2528 438.88,-2538.54"/>
<polygon fill="none" stroke="#3ceced" points="442.88,-2534.9 442.88,-2557.1 325.76,-2568 165.15,-2568 48.04,-2557.1 48.04,-2534.9 165.15,-2524 325.76,-2524 442.88,-2534.9"/>
<polygon fill="none" stroke="#3ceced" points="446.88,-2531.25 446.88,-2560.75 325.95,-2572 164.97,-2572 44.04,-2560.75 44.04,-2531.25 164.97,-2520 325.95,-2520 446.88,-2531.25"/>
<text text-anchor="middle" x="245.46" y="-2542.3" font-family="Times-Roman" font-size="14.00" fill="#000000">google&#45;chrome&#45;83.0.4103.61 (305.72 MiB)</text>
</g>
<!-- N46 -->
<g id="node28" class="node">
<title>N46</title>
<polygon fill="#406be1" stroke="#406be1" points="360.71,-2188.54 360.71,-2203.46 293.2,-2214 197.72,-2214 130.2,-2203.46 130.2,-2188.54 197.72,-2178 293.2,-2178 360.71,-2188.54"/>
<polygon fill="none" stroke="#406be1" points="364.71,-2185.12 364.71,-2206.88 293.51,-2218 197.41,-2218 126.21,-2206.88 126.21,-2185.12 197.41,-2174 293.51,-2174 364.71,-2185.12"/>
<polygon fill="none" stroke="#406be1" points="368.7,-2181.7 368.7,-2210.3 293.82,-2222 197.1,-2222 122.21,-2210.3 122.21,-2181.7 197.1,-2170 293.82,-2170 368.7,-2181.7"/>
<text text-anchor="middle" x="245.46" y="-2192.3" font-family="Times-Roman" font-size="14.00" fill="#ffffff">firefox&#45;76.0.1 (3.60 MiB)</text>
</g>
<!-- N46&#45;&gt;N20 -->
<g id="edge22" class="edge">
<title>N46&#45;&gt;N20</title>
<path fill="none" stroke="black" d="M245.46,-2169.68C245.46,-2167.23 245.46,-2164.78 245.46,-2162.33"/>
<polygon fill="black" stroke="black" points="248.96,-2162.25 245.46,-2152.25 241.96,-2162.25 248.96,-2162.25"/>
</g>
<!-- N47 -->
<g id="node29" class="node">
<title>N47</title>
<polygon fill="#3f9ce4" stroke="#3f9ce4" points="367.35,-158.54 367.35,-173.46 295.95,-184 194.97,-184 123.56,-173.46 123.56,-158.54 194.97,-148 295.95,-148 367.35,-158.54"/>
<polygon fill="none" stroke="#3f9ce4" points="371.36,-155.09 371.36,-176.91 296.24,-188 194.67,-188 119.55,-176.91 119.55,-155.09 194.67,-144 296.24,-144 371.36,-155.09"/>
<polygon fill="none" stroke="#3f9ce4" points="375.37,-151.64 375.37,-180.36 296.54,-192 194.38,-192 115.55,-180.36 115.55,-151.64 194.38,-140 296.54,-140 375.37,-151.64"/>
<text text-anchor="middle" x="245.46" y="-162.3" font-family="Times-Roman" font-size="14.00" fill="#ffffff">evince&#45;3.36.1 (92.29 MiB)</text>
</g>
<!-- N47&#45;&gt;N31 -->
<g id="edge23" class="edge">
<title>N47&#45;&gt;N31</title>
<path fill="none" stroke="black" d="M375.24,-166.8C406.5,-172.13 438.24,-182.37 463.8,-201 550.53,-264.21 588.12,-395.65 600.87,-453.11"/>
<polygon fill="black" stroke="black" points="597.46,-453.89 602.97,-462.94 604.31,-452.43 597.46,-453.89"/>
</g>
<!-- N47&#45;&gt;N33 -->
<g id="edge24" class="edge">
<title>N47&#45;&gt;N33</title>
<path fill="none" stroke="black" d="M375.35,-153.46C420.44,-149.08 470.18,-144.24 511.92,-140.18"/>
<polygon fill="black" stroke="black" points="512.47,-143.64 522.08,-139.19 511.79,-136.68 512.47,-143.64"/>
</g>
<!-- N12 -->
<g id="node30" class="node">
<title>N12</title>
<polygon fill="#3de1eb" stroke="#3de1eb" points="373.53,-2608.54 373.53,-2623.46 298.5,-2634 192.41,-2634 117.39,-2623.46 117.39,-2608.54 192.41,-2598 298.5,-2598 373.53,-2608.54"/>
<polygon fill="none" stroke="#3de1eb" points="377.53,-2605.07 377.53,-2626.93 298.78,-2638 192.13,-2638 113.39,-2626.93 113.39,-2605.07 192.13,-2594 298.78,-2594 377.53,-2605.07"/>
<polygon fill="none" stroke="#3de1eb" points="381.53,-2601.59 381.53,-2630.41 299.06,-2642 191.85,-2642 109.39,-2630.41 109.39,-2601.59 191.85,-2590 299.06,-2590 381.53,-2601.59"/>
<text text-anchor="middle" x="245.46" y="-2612.3" font-family="Times-Roman" font-size="14.00" fill="#000000">calibre&#45;4.15.0 (271.77 MiB)</text>
</g>
<!-- N11 -->
<g id="node31" class="node">
<title>N11</title>
<polygon fill="#bffe2b" stroke="#bffe2b" points="388.09,-2678.54 388.09,-2693.46 304.54,-2704 186.38,-2704 102.83,-2693.46 102.83,-2678.54 186.38,-2668 304.54,-2668 388.09,-2678.54"/>
<polygon fill="none" stroke="#bffe2b" points="392.08,-2675.02 392.08,-2696.98 304.79,-2708 186.13,-2708 98.83,-2696.98 98.83,-2675.02 186.13,-2664 304.79,-2664 392.08,-2675.02"/>
<polygon fill="none" stroke="#bffe2b" points="396.08,-2671.49 396.08,-2700.51 305.04,-2712 185.88,-2712 94.84,-2700.51 94.84,-2671.49 185.88,-2660 305.04,-2660 396.08,-2671.49"/>
<text text-anchor="middle" x="245.46" y="-2682.3" font-family="Times-Roman" font-size="14.00" fill="#000000">xonotic&#45;sdl&#45;0.8.2 (895.35 MiB)</text>
</g>
<!-- N10 -->
<g id="node32" class="node">
<title>N10</title>
<polygon fill="#3f9fe5" stroke="#3f9fe5" points="411.5,-2748.54 411.5,-2763.46 314.24,-2774 176.68,-2774 79.41,-2763.46 79.41,-2748.54 176.68,-2738 314.24,-2738 411.5,-2748.54"/>
<polygon fill="none" stroke="#3f9fe5" points="415.5,-2744.95 415.5,-2767.05 314.45,-2778 176.46,-2778 75.41,-2767.05 75.41,-2744.95 176.46,-2734 314.45,-2734 415.5,-2744.95"/>
<polygon fill="none" stroke="#3f9fe5" points="419.51,-2741.36 419.51,-2770.64 314.67,-2782 176.25,-2782 71.41,-2770.64 71.41,-2741.36 176.25,-2730 314.67,-2730 419.51,-2741.36"/>
<text text-anchor="middle" x="245.46" y="-2752.3" font-family="Times-Roman" font-size="14.00" fill="#ffffff">mpv&#45;with&#45;scripts&#45;0.32.0 (99.47 MiB)</text>
</g>
<!-- N9 -->
<g id="node33" class="node">
<title>N9</title>
<polygon fill="#3fb4e6" stroke="#3fb4e6" points="371.31,-1068.54 371.31,-1083.46 297.59,-1094 193.33,-1094 119.6,-1083.46 119.6,-1068.54 193.33,-1058 297.59,-1058 371.31,-1068.54"/>
<polygon fill="none" stroke="#3fb4e6" points="375.31,-1065.08 375.31,-1086.92 297.87,-1098 193.04,-1098 115.6,-1086.92 115.6,-1065.08 193.04,-1054 297.87,-1054 375.31,-1065.08"/>
<polygon fill="none" stroke="#3fb4e6" points="379.31,-1061.61 379.31,-1090.39 298.16,-1102 192.76,-1102 111.61,-1090.39 111.61,-1061.61 192.76,-1050 298.16,-1050 379.31,-1061.61"/>
<text text-anchor="middle" x="245.46" y="-1072.3" font-family="Times-Roman" font-size="14.00" fill="#ffffff">gimp&#45;2.10.18 (147.71 MiB)</text>
</g>
<!-- N9&#45;&gt;N34 -->
<g id="edge25" class="edge">
<title>N9&#45;&gt;N34</title>
<path fill="none" stroke="black" d="M379.55,-1084.19C408.39,-1089.54 437.96,-1097.94 463.8,-1111 517.22,-1138.01 563.37,-1192.22 587.78,-1224.69"/>
<polygon fill="black" stroke="black" points="585.04,-1226.87 593.8,-1232.84 590.67,-1222.72 585.04,-1226.87"/>
</g>
<!-- N9&#45;&gt;N37 -->
<g id="edge26" class="edge">
<title>N9&#45;&gt;N37</title>
<path fill="none" stroke="black" d="M379.55,-1067.81C408.39,-1062.46 437.96,-1054.06 463.8,-1041 517.22,-1013.99 563.37,-959.78 587.78,-927.31"/>
<polygon fill="black" stroke="black" points="590.67,-929.28 593.8,-919.16 585.04,-925.13 590.67,-929.28"/>
</g>
<!-- N8 -->
<g id="node34" class="node">
<title>N8</title>
<polygon fill="#3ec3e8" stroke="#3ec3e8" points="410.19,-2818.54 410.19,-2833.46 313.69,-2844 177.22,-2844 80.73,-2833.46 80.73,-2818.54 177.22,-2808 313.69,-2808 410.19,-2818.54"/>
<polygon fill="none" stroke="#3ec3e8" points="414.19,-2814.96 414.19,-2837.04 313.91,-2848 177.01,-2848 76.73,-2837.04 76.73,-2814.96 177.01,-2804 313.91,-2804 414.19,-2814.96"/>
<polygon fill="none" stroke="#3ec3e8" points="418.19,-2811.37 418.19,-2840.63 314.13,-2852 176.79,-2852 72.72,-2840.63 72.72,-2811.37 176.79,-2800 314.13,-2800 418.19,-2811.37"/>
<text text-anchor="middle" x="245.46" y="-2822.3" font-family="Times-Roman" font-size="14.00" fill="#000000">thunderbird&#45;bin&#45;68.8.1 (186.87 MiB)</text>
</g>
<!-- N48 -->
<g id="node35" class="node">
<title>N48</title>
<polygon fill="#4094e4" stroke="#4094e4" points="392.52,-648.54 392.52,-663.46 306.37,-674 184.54,-674 98.4,-663.46 98.4,-648.54 184.54,-638 306.37,-638 392.52,-648.54"/>
<polygon fill="none" stroke="#4094e4" points="396.52,-645 396.52,-667 306.61,-678 184.3,-678 94.4,-667 94.4,-645 184.3,-634 306.61,-634 396.52,-645"/>
<polygon fill="none" stroke="#4094e4" points="400.52,-641.46 400.52,-670.54 306.86,-682 184.06,-682 90.4,-670.54 90.4,-641.46 184.06,-630 306.86,-630 400.52,-641.46"/>
<text text-anchor="middle" x="245.46" y="-652.3" font-family="Times-Roman" font-size="14.00" fill="#ffffff">stepmania&#45;5.1.0&#45;b2 (74.58 MiB)</text>
</g>
<!-- N48&#45;&gt;N31 -->
<g id="edge27" class="edge">
<title>N48&#45;&gt;N31</title>
<path fill="none" stroke="black" d="M400.74,-643.32C422.61,-638.08 444.27,-630.87 463.8,-621 517.22,-593.99 563.37,-539.78 587.78,-507.31"/>
<polygon fill="black" stroke="black" points="590.67,-509.28 593.8,-499.16 585.04,-505.13 590.67,-509.28"/>
</g>
<!-- N7 -->
<g id="node36" class="node">
<title>N7</title>
<polygon fill="#3ceced" stroke="#3ceced" points="372.21,-2258.54 372.21,-2273.46 297.96,-2284 192.96,-2284 118.71,-2273.46 118.71,-2258.54 192.96,-2248 297.96,-2248 372.21,-2258.54"/>
<polygon fill="none" stroke="#3ceced" points="376.21,-2255.07 376.21,-2276.93 298.24,-2288 192.67,-2288 114.7,-2276.93 114.7,-2255.07 192.67,-2244 298.24,-2244 376.21,-2255.07"/>
<polygon fill="none" stroke="#3ceced" points="380.21,-2251.6 380.21,-2280.4 298.52,-2292 192.39,-2292 110.7,-2280.4 110.7,-2251.6 192.39,-2240 298.52,-2240 380.21,-2251.6"/>
<text text-anchor="middle" x="245.46" y="-2262.3" font-family="Times-Roman" font-size="14.00" fill="#000000">arduino&#45;1.8.9 (306.68 MiB)</text>
</g>
<!-- N7&#45;&gt;N32 -->
<g id="edge28" class="edge">
<title>N7&#45;&gt;N32</title>
<path fill="none" stroke="black" d="M380.19,-2279.01C416.04,-2282.49 454.51,-2286.24 489.37,-2289.63"/>
<polygon fill="black" stroke="black" points="489.29,-2293.14 499.58,-2290.62 489.96,-2286.17 489.29,-2293.14"/>
</g>
<!-- N6 -->
<g id="node37" class="node">
<title>N6</title>
<polygon fill="#3ce9ec" stroke="#3ce9ec" points="374.42,-2888.54 374.42,-2903.46 298.88,-2914 192.04,-2914 116.49,-2903.46 116.49,-2888.54 192.04,-2878 298.88,-2878 374.42,-2888.54"/>
<polygon fill="none" stroke="#3ce9ec" points="378.43,-2885.06 378.43,-2906.94 299.15,-2918 191.76,-2918 112.49,-2906.94 112.49,-2885.06 191.76,-2874 299.15,-2874 378.43,-2885.06"/>
<polygon fill="none" stroke="#3ce9ec" points="382.44,-2881.58 382.44,-2910.42 299.43,-2922 191.48,-2922 108.48,-2910.42 108.48,-2881.58 191.48,-2870 299.43,-2870 382.44,-2881.58"/>
<text text-anchor="middle" x="245.46" y="-2892.3" font-family="Times-Roman" font-size="14.00" fill="#000000">fritzing&#45;0.9.3b (296.38 MiB)</text>
</g>
<!-- N49 -->
<g id="node38" class="node">
<title>N49</title>
<polygon fill="#406ce1" stroke="#406ce1" points="362.92,-578.54 362.92,-593.46 294.11,-604 196.8,-604 127.99,-593.46 127.99,-578.54 196.8,-568 294.11,-568 362.92,-578.54"/>
<polygon fill="none" stroke="#406ce1" points="366.92,-575.11 366.92,-596.89 294.42,-608 196.5,-608 123.99,-596.89 123.99,-575.11 196.5,-564 294.42,-564 366.92,-575.11"/>
<polygon fill="none" stroke="#406ce1" points="370.92,-571.68 370.92,-600.32 294.72,-612 196.19,-612 119.99,-600.32 119.99,-571.68 196.19,-560 294.72,-560 370.92,-571.68"/>
<text text-anchor="middle" x="245.46" y="-582.3" font-family="Times-Roman" font-size="14.00" fill="#ffffff">nethack&#45;3.6.6 (4.58 MiB)</text>
</g>
<!-- N49&#45;&gt;N31 -->
<g id="edge29" class="edge">
<title>N49&#45;&gt;N31</title>
<path fill="none" stroke="black" d="M370.94,-572.46C401.71,-567.34 434.3,-560.39 463.8,-551 500.38,-539.36 539.33,-519.67 567.25,-504.13"/>
<polygon fill="black" stroke="black" points="569.28,-507 576.27,-499.04 565.84,-500.91 569.28,-507"/>
</g>
<!-- N5 -->
<g id="node39" class="node">
<title>N5</title>
<polygon fill="#3ddfeb" stroke="#3ddfeb" points="374.42,-928.54 374.42,-943.46 298.88,-954 192.04,-954 116.49,-943.46 116.49,-928.54 192.04,-918 298.88,-918 374.42,-928.54"/>
<polygon fill="none" stroke="#3ddfeb" points="378.43,-925.06 378.43,-946.94 299.15,-958 191.76,-958 112.49,-946.94 112.49,-925.06 191.76,-914 299.15,-914 378.43,-925.06"/>
<polygon fill="none" stroke="#3ddfeb" points="382.44,-921.58 382.44,-950.42 299.43,-962 191.48,-962 108.48,-950.42 108.48,-921.58 191.48,-910 299.43,-910 382.44,-921.58"/>
<text text-anchor="middle" x="245.46" y="-932.3" font-family="Times-Roman" font-size="14.00" fill="#000000">blender&#45;2.82a (264.92 MiB)</text>
</g>
<!-- N5&#45;&gt;N37 -->
<g id="edge30" class="edge">
<title>N5&#45;&gt;N37</title>
<path fill="none" stroke="black" d="M382.24,-922.79C429.06,-918.24 480.13,-913.27 521.67,-909.23"/>
<polygon fill="black" stroke="black" points="522.13,-912.7 531.74,-908.25 521.45,-905.74 522.13,-912.7"/>
</g>
<!-- N4 -->
<g id="node40" class="node">
<title>N4</title>
<polygon fill="#3de1eb" stroke="#3de1eb" points="455.65,-2958.54 455.65,-2973.46 332.52,-2984 158.39,-2984 35.26,-2973.46 35.26,-2958.54 158.39,-2948 332.52,-2948 455.65,-2958.54"/>
<polygon fill="none" stroke="#3de1eb" points="459.65,-2954.87 459.65,-2977.13 332.69,-2988 158.22,-2988 31.27,-2977.13 31.27,-2954.87 158.22,-2944 332.69,-2944 459.65,-2954.87"/>
<polygon fill="none" stroke="#3de1eb" points="463.65,-2951.2 463.65,-2980.8 332.86,-2992 158.05,-2992 27.27,-2980.8 27.27,-2951.2 158.05,-2940 332.86,-2940 463.65,-2951.2"/>
<text text-anchor="middle" x="245.46" y="-2962.3" font-family="Times-Roman" font-size="14.00" fill="#000000">spotify&#45;1.1.26.501.gbe11e53b&#45;15 (272.32 MiB)</text>
</g>
<!-- N50 -->
<g id="node41" class="node">
<title>N50</title>
<polygon fill="#4082e2" stroke="#4082e2" points="406.65,-998.54 406.65,-1013.46 312.23,-1024 178.69,-1024 84.26,-1013.46 84.26,-998.54 178.69,-988 312.23,-988 406.65,-998.54"/>
<polygon fill="none" stroke="#4082e2" points="410.65,-994.97 410.65,-1017.03 312.45,-1028 178.46,-1028 80.26,-1017.03 80.26,-994.97 178.46,-984 312.45,-984 410.65,-994.97"/>
<polygon fill="none" stroke="#4082e2" points="414.66,-991.39 414.66,-1020.61 312.67,-1032 178.24,-1032 76.26,-1020.61 76.26,-991.39 178.24,-980 312.67,-980 414.66,-991.39"/>
<text text-anchor="middle" x="245.46" y="-1002.3" font-family="Times-Roman" font-size="14.00" fill="#ffffff">dwarf&#45;fortress&#45;0.47.04 (40.55 MiB)</text>
</g>
<!-- N50&#45;&gt;N31 -->
<g id="edge31" class="edge">
<title>N50&#45;&gt;N31</title>
<path fill="none" stroke="black" d="M414.62,-998.97C432.63,-992.61 449.55,-983.59 463.8,-971 481.89,-955.01 572.54,-610.82 599.02,-509.08"/>
<polygon fill="black" stroke="black" points="602.46,-509.77 601.59,-499.21 595.68,-508.01 602.46,-509.77"/>
</g>
<!-- N50&#45;&gt;N34 -->
<g id="edge32" class="edge">
<title>N50&#45;&gt;N34</title>
<path fill="none" stroke="black" d="M414.78,-1018.77C432.1,-1024.22 448.81,-1031.45 463.8,-1041 533.56,-1085.43 577.64,-1177.62 596.19,-1223.64"/>
<polygon fill="black" stroke="black" points="592.94,-1224.96 599.86,-1232.98 599.46,-1222.4 592.94,-1224.96"/>
</g>
<!-- N3 -->
<g id="node42" class="node">
<title>N3</title>
<polygon fill="#3ebae7" stroke="#3ebae7" points="374.85,-3028.54 374.85,-3043.46 299.05,-3054 191.86,-3054 116.07,-3043.46 116.07,-3028.54 191.86,-3018 299.05,-3018 374.85,-3028.54"/>
<polygon fill="none" stroke="#3ebae7" points="378.84,-3025.06 378.84,-3046.94 299.33,-3058 191.59,-3058 112.07,-3046.94 112.07,-3025.06 191.59,-3014 299.33,-3014 378.84,-3025.06"/>
<polygon fill="none" stroke="#3ebae7" points="382.84,-3021.58 382.84,-3050.42 299.6,-3062 191.31,-3062 108.07,-3050.42 108.07,-3021.58 191.31,-3010 299.6,-3010 382.84,-3021.58"/>
<text text-anchor="middle" x="245.46" y="-3032.3" font-family="Times-Roman" font-size="14.00" fill="#000000">gzdoom&#45;4.3.3 (163.52 MiB)</text>
</g>
<!-- N51 -->
<g id="node43" class="node">
<title>N51</title>
<polygon fill="#4069e1" stroke="#4069e1" points="369.99,-1138.54 369.99,-1153.46 297.04,-1164 193.87,-1164 120.92,-1153.46 120.92,-1138.54 193.87,-1128 297.04,-1128 369.99,-1138.54"/>
<polygon fill="none" stroke="#4069e1" points="373.99,-1135.08 373.99,-1156.92 297.33,-1168 193.59,-1168 116.92,-1156.92 116.92,-1135.08 193.59,-1124 297.33,-1124 373.99,-1135.08"/>
<polygon fill="none" stroke="#4069e1" points="377.99,-1131.62 377.99,-1160.38 297.62,-1172 193.3,-1172 112.92,-1160.38 112.92,-1131.62 193.3,-1120 297.62,-1120 377.99,-1131.62"/>
<text text-anchor="middle" x="245.46" y="-1142.3" font-family="Times-Roman" font-size="14.00" fill="#ffffff">arandr&#45;0.1.10 (203.54 KiB)</text>
</g>
<!-- N51&#45;&gt;N34 -->
<g id="edge33" class="edge">
<title>N51&#45;&gt;N34</title>
<path fill="none" stroke="black" d="M376.94,-1160.56C405.92,-1165.57 436.21,-1172.22 463.8,-1181 500.38,-1192.64 539.33,-1212.33 567.25,-1227.87"/>
<polygon fill="black" stroke="black" points="565.84,-1231.09 576.27,-1232.96 569.28,-1225 565.84,-1231.09"/>
</g>
<!-- N2 -->
<g id="node44" class="node">
<title>N2</title>
<polygon fill="#3dd0e9" stroke="#3dd0e9" points="443.73,-3098.54 443.73,-3113.46 327.58,-3124 163.33,-3124 47.18,-3113.46 47.18,-3098.54 163.33,-3088 327.58,-3088 443.73,-3098.54"/>
<polygon fill="none" stroke="#3dd0e9" points="447.73,-3094.89 447.73,-3117.11 327.77,-3128 163.15,-3128 43.18,-3117.11 43.18,-3094.89 163.15,-3084 327.77,-3084 447.73,-3094.89"/>
<polygon fill="none" stroke="#3dd0e9" points="451.73,-3091.24 451.73,-3120.76 327.95,-3132 162.97,-3132 39.19,-3120.76 39.19,-3091.24 162.97,-3080 327.95,-3080 451.73,-3091.24"/>
<text text-anchor="middle" x="245.46" y="-3102.3" font-family="Times-Roman" font-size="14.00" fill="#000000">papirus&#45;icon&#45;theme&#45;20200430 (221.53 MiB)</text>
</g>
<!-- N1 -->
<g id="node45" class="node">
<title>N1</title>
<polygon fill="#3fb4e6" stroke="#3fb4e6" points="383.23,-858.54 383.23,-873.46 302.53,-884 188.39,-884 107.68,-873.46 107.68,-858.54 188.39,-848 302.53,-848 383.23,-858.54"/>
<polygon fill="none" stroke="#3fb4e6" points="387.23,-855.03 387.23,-876.97 302.79,-888 188.13,-888 103.68,-876.97 103.68,-855.03 188.13,-844 302.79,-844 387.23,-855.03"/>
<polygon fill="none" stroke="#3fb4e6" points="391.23,-851.52 391.23,-880.48 303.04,-892 187.87,-892 99.69,-880.48 99.69,-851.52 187.87,-840 303.04,-840 391.23,-851.52"/>
<text text-anchor="middle" x="245.46" y="-862.3" font-family="Times-Roman" font-size="14.00" fill="#ffffff">inkscape&#45;0.92.5 (149.04 MiB)</text>
</g>
<!-- N1&#45;&gt;N37 -->
<g id="edge34" class="edge">
<title>N1&#45;&gt;N37</title>
<path fill="none" stroke="black" d="M391.26,-880.08C435.37,-884.37 482.4,-888.95 521.19,-892.72"/>
<polygon fill="black" stroke="black" points="521.1,-896.23 531.39,-893.71 521.77,-889.26 521.1,-896.23"/>
</g>
</g>
</svg>
