<?xml version="1.0" encoding="UTF-8" standalone="no"?>
<!DOCTYPE svg PUBLIC "-//W3C//DTD SVG 1.1//EN"
 "http://www.w3.org/Graphics/SVG/1.1/DTD/svg11.dtd">
<!-- Generated by graphviz version 2.43.0 (0)
 -->
<!-- Title: nixstore Pages: 1 -->
<svg width="826pt" height="3350pt"
 viewBox="0.00 0.00 825.88 3350.00" xmlns="http://www.w3.org/2000/svg" xmlns:xlink="http://www.w3.org/1999/xlink">
<g id="graph0" class="graph" transform="scale(1 1) rotate(0) translate(4 3346)">
<title>nixstore</title>
<polygon fill="white" stroke="transparent" points="-4,4 -4,-3346 821.88,-3346 821.88,4 -4,4"/>
<!-- N58 -->
<g id="node1" class="node">
<title>N58</title>
<polygon fill="#fe2700" stroke="#fe2700" points="388.58,-18.54 388.58,-33.46 323.38,-44 231.18,-44 165.99,-33.46 165.99,-18.54 231.18,-8 323.38,-8 388.58,-18.54"/>
<polygon fill="none" stroke="#fe2700" points="392.58,-15.14 392.58,-36.86 323.71,-48 230.86,-48 161.99,-36.86 161.99,-15.14 230.86,-4 323.71,-4 392.58,-15.14"/>
<polygon fill="none" stroke="#fe2700" points="396.59,-11.74 396.59,-40.26 324.03,-52 230.54,-52 157.98,-40.26 157.98,-11.74 230.54,0 324.03,0 396.59,-11.74"/>
<text text-anchor="middle" x="277.28" y="-22.3" font-family="Roboto" font-size="14.00" fill="#000000">{filtered out} (2.18 GiB)</text>
</g>
<!-- N30 -->
<g id="node2" class="node">
<title>N30</title>
<polygon fill="#35f86f" stroke="#35f86f" points="418.59,-928.54 418.59,-943.46 335.82,-954 218.75,-954 135.98,-943.46 135.98,-928.54 218.75,-918 335.82,-918 418.59,-928.54"/>
<polygon fill="none" stroke="#35f86f" points="422.59,-925.02 422.59,-946.98 336.07,-958 218.5,-958 131.98,-946.98 131.98,-925.02 218.5,-914 336.07,-914 422.59,-925.02"/>
<polygon fill="none" stroke="#35f86f" points="426.59,-921.5 426.59,-950.5 336.32,-962 218.25,-962 127.98,-950.5 127.98,-921.5 218.25,-910 336.32,-910 426.59,-921.5"/>
<text text-anchor="middle" x="277.28" y="-932.3" font-family="Roboto" font-size="14.00" fill="#000000">wesnoth&#45;1.14.13 (575.24 MiB)</text>
</g>
<!-- N37 -->
<g id="node49" class="node">
<title>N37</title>
<polygon fill="#38f4a9" stroke="#38f4a9" points="785.38,-954 594.38,-954 594.38,-918 785.38,-918 785.38,-954"/>
<text text-anchor="middle" x="689.88" y="-932.3" font-family="Roboto" font-size="14.00" fill="#000000">libGL&#45;1.3.1&#45;dev (483.38 MiB)</text>
</g>
<!-- N30&#45;&gt;N37 -->
<g id="edge1" class="edge">
<title>N30&#45;&gt;N37</title>
<path fill="none" stroke="black" d="M426.81,-936C478.9,-936 536.28,-936 584.04,-936"/>
<polygon fill="black" stroke="black" points="584.07,-939.5 594.07,-936 584.07,-932.5 584.07,-939.5"/>
</g>
<!-- N29 -->
<g id="node3" class="node">
<title>N29</title>
<polygon fill="#3dd0e9" stroke="#3dd0e9" points="424.34,-1278.54 424.34,-1293.46 338.2,-1304 216.37,-1304 130.23,-1293.46 130.23,-1278.54 216.37,-1268 338.2,-1268 424.34,-1278.54"/>
<polygon fill="none" stroke="#3dd0e9" points="428.34,-1275 428.34,-1297 338.44,-1308 216.13,-1308 126.23,-1297 126.23,-1275 216.13,-1264 338.44,-1264 428.34,-1275"/>
<polygon fill="none" stroke="#3dd0e9" points="432.34,-1271.46 432.34,-1300.54 338.69,-1312 215.88,-1312 122.22,-1300.54 122.22,-1271.46 215.88,-1260 338.69,-1260 432.34,-1271.46"/>
<text text-anchor="middle" x="277.28" y="-1282.3" font-family="Roboto" font-size="14.00" fill="#000000">glibc&#45;locales&#45;2.30 (209.50 MiB)</text>
</g>
<!-- N41 -->
<g id="node4" class="node">
<title>N41</title>
<polygon fill="#3fa0e5" stroke="#3fa0e5" points="424.34,-508.54 424.34,-523.46 338.2,-534 216.37,-534 130.23,-523.46 130.23,-508.54 216.37,-498 338.2,-498 424.34,-508.54"/>
<polygon fill="none" stroke="#3fa0e5" points="428.34,-505 428.34,-527 338.44,-538 216.13,-538 126.23,-527 126.23,-505 216.13,-494 338.44,-494 428.34,-505"/>
<polygon fill="none" stroke="#3fa0e5" points="432.34,-501.46 432.34,-530.54 338.69,-542 215.88,-542 122.22,-530.54 122.22,-501.46 215.88,-490 338.69,-490 432.34,-501.46"/>
<text text-anchor="middle" x="277.28" y="-512.3" font-family="Roboto" font-size="14.00" fill="#ffffff">stepmania&#45;5.1.0&#45;b2 (94.44 MiB)</text>
</g>
<!-- N35 -->
<g id="node50" class="node">
<title>N35</title>
<polygon fill="#3fb6e7" stroke="#3fb6e7" points="767.38,-604 612.38,-604 612.38,-568 767.38,-568 767.38,-604"/>
<text text-anchor="middle" x="689.88" y="-582.3" font-family="Roboto" font-size="14.00" fill="#000000">gcc&#45;9.3.0 (144.24 MiB)</text>
</g>
<!-- N41&#45;&gt;N35 -->
<g id="edge2" class="edge">
<title>N41&#45;&gt;N35</title>
<path fill="none" stroke="black" d="M411.88,-533.11C448.88,-538.33 489.01,-544.45 525.88,-551 550.67,-555.41 577.44,-560.86 601.98,-566.14"/>
<polygon fill="black" stroke="black" points="601.47,-569.62 611.99,-568.31 602.96,-562.77 601.47,-569.62"/>
</g>
<!-- N28 -->
<g id="node5" class="node">
<title>N28</title>
<polygon fill="#35f873" stroke="#35f873" points="409.31,-1558.54 409.31,-1573.46 331.97,-1584 222.6,-1584 145.26,-1573.46 145.26,-1558.54 222.6,-1548 331.97,-1548 409.31,-1558.54"/>
<polygon fill="none" stroke="#35f873" points="413.3,-1555.05 413.3,-1576.95 332.24,-1588 222.33,-1588 141.26,-1576.95 141.26,-1555.05 222.33,-1544 332.24,-1544 413.3,-1555.05"/>
<polygon fill="none" stroke="#35f873" points="417.3,-1551.56 417.3,-1580.44 332.51,-1592 222.06,-1592 137.27,-1580.44 137.27,-1551.56 222.06,-1540 332.51,-1540 417.3,-1551.56"/>
<text text-anchor="middle" x="277.28" y="-1562.3" font-family="Roboto" font-size="14.00" fill="#000000">arduino&#45;1.8.12 (570.23 MiB)</text>
</g>
<!-- N27 -->
<g id="node6" class="node">
<title>N27</title>
<polygon fill="#3ddceb" stroke="#3ddceb" points="461,-1488.54 461,-1503.46 353.38,-1514 201.19,-1514 93.57,-1503.46 93.57,-1488.54 201.19,-1478 353.38,-1478 461,-1488.54"/>
<polygon fill="none" stroke="#3ddceb" points="465.01,-1484.92 465.01,-1507.08 353.58,-1518 200.99,-1518 89.56,-1507.08 89.56,-1484.92 200.99,-1474 353.58,-1474 465.01,-1484.92"/>
<polygon fill="none" stroke="#3ddceb" points="469.01,-1481.29 469.01,-1510.71 353.77,-1522 200.79,-1522 85.56,-1510.71 85.56,-1481.29 200.79,-1470 353.77,-1470 469.01,-1481.29"/>
<text text-anchor="middle" x="277.28" y="-1492.3" font-family="Roboto" font-size="14.00" fill="#000000">tor&#45;browser&#45;bundle&#45;bin&#45;9.5 (242.05 MiB)</text>
</g>
<!-- N27&#45;&gt;N29 -->
<g id="edge3" class="edge">
<title>N27&#45;&gt;N29</title>
<path fill="none" stroke="black" d="M85.59,-1503.94C54.92,-1495.42 27.71,-1479.53 10.69,-1452 -3.56,-1428.94 -3.56,-1353.06 10.69,-1330 33.79,-1292.62 75.68,-1276.71 119.51,-1271.55"/>
<polygon fill="black" stroke="black" points="119.87,-1275.03 129.48,-1270.56 119.18,-1268.07 119.87,-1275.03"/>
</g>
<!-- N42 -->
<g id="node7" class="node">
<title>N42</title>
<polygon fill="#4169e1" stroke="#4169e1" points="468.07,-1768.54 468.07,-1783.46 356.31,-1794 198.26,-1794 86.5,-1783.46 86.5,-1768.54 198.26,-1758 356.31,-1758 468.07,-1768.54"/>
<polygon fill="none" stroke="#4169e1" points="472.07,-1764.9 472.07,-1787.1 356.5,-1798 198.07,-1798 82.49,-1787.1 82.49,-1764.9 198.07,-1754 356.5,-1754 472.07,-1764.9"/>
<polygon fill="none" stroke="#4169e1" points="476.08,-1761.26 476.08,-1790.74 356.69,-1802 197.88,-1802 78.49,-1790.74 78.49,-1761.26 197.88,-1750 356.69,-1750 476.08,-1761.26"/>
<text text-anchor="middle" x="277.28" y="-1772.3" font-family="Roboto" font-size="14.00" fill="#ffffff">nvidia&#45;persistenced&#45;440.100 (115.81 KiB)</text>
</g>
<!-- N34 -->
<g id="node51" class="node">
<title>N34</title>
<polygon fill="#3cede8" stroke="#3cede8" points="817.88,-1724 561.88,-1724 561.88,-1688 817.88,-1688 817.88,-1724"/>
<text text-anchor="middle" x="689.88" y="-1702.3" font-family="Roboto" font-size="14.00" fill="#000000">nvidia&#45;x11&#45;440.100&#45;5.4.51 (308.26 MiB)</text>
</g>
<!-- N42&#45;&gt;N34 -->
<g id="edge4" class="edge">
<title>N42&#45;&gt;N34</title>
<path fill="none" stroke="black" d="M427.49,-1756.66C459.99,-1751.96 494.14,-1746.64 525.88,-1741 550.17,-1736.68 576.36,-1731.36 600.49,-1726.18"/>
<polygon fill="black" stroke="black" points="601.31,-1729.58 610.34,-1724.05 599.83,-1722.74 601.31,-1729.58"/>
</g>
<!-- N26 -->
<g id="node8" class="node">
<title>N26</title>
<polygon fill="#3ec3e8" stroke="#3ec3e8" points="388.58,-1838.54 388.58,-1853.46 323.38,-1864 231.18,-1864 165.99,-1853.46 165.99,-1838.54 231.18,-1828 323.38,-1828 388.58,-1838.54"/>
<polygon fill="none" stroke="#3ec3e8" points="392.58,-1835.14 392.58,-1856.86 323.71,-1868 230.86,-1868 161.99,-1856.86 161.99,-1835.14 230.86,-1824 323.71,-1824 392.58,-1835.14"/>
<polygon fill="none" stroke="#3ec3e8" points="396.59,-1831.74 396.59,-1860.26 324.03,-1872 230.54,-1872 157.98,-1860.26 157.98,-1831.74 230.54,-1820 324.03,-1820 396.59,-1831.74"/>
<text text-anchor="middle" x="277.28" y="-1842.3" font-family="Roboto" font-size="14.00" fill="#000000">vlc&#45;3.0.11 (176.49 MiB)</text>
</g>
<!-- N25 -->
<g id="node9" class="node">
<title>N25</title>
<polygon fill="#fe0000" stroke="#fe0000" points="459.69,-438.54 459.69,-453.46 352.84,-464 201.73,-464 94.88,-453.46 94.88,-438.54 201.73,-428 352.84,-428 459.69,-438.54"/>
<polygon fill="none" stroke="#fe0000" points="463.69,-434.92 463.69,-457.08 353.03,-468 201.53,-468 90.88,-457.08 90.88,-434.92 201.53,-424 353.03,-424 463.69,-434.92"/>
<polygon fill="none" stroke="#fe0000" points="467.69,-431.3 467.69,-460.7 353.23,-472 201.34,-472 86.87,-460.7 86.87,-431.3 201.34,-420 353.23,-420 467.69,-431.3"/>
<text text-anchor="middle" x="277.28" y="-442.3" font-family="Roboto" font-size="14.00" fill="#000000">xmonad&#45;with&#45;packages&#45;8.8.3 (2.21 GiB)</text>
</g>
<!-- N25&#45;&gt;N35 -->
<g id="edge5" class="edge">
<title>N25&#45;&gt;N35</title>
<path fill="none" stroke="black" d="M457.1,-461.84C480.63,-466.65 504.11,-472.9 525.88,-481 576.85,-499.97 628.4,-536.82 659.51,-561.42"/>
<polygon fill="black" stroke="black" points="657.35,-564.18 667.34,-567.7 661.73,-558.72 657.35,-564.18"/>
</g>
<!-- N43 -->
<g id="node10" class="node">
<title>N43</title>
<polygon fill="#3fa9e5" stroke="#3fa9e5" points="399.18,-298.54 399.18,-313.46 327.78,-324 226.79,-324 155.39,-313.46 155.39,-298.54 226.79,-288 327.78,-288 399.18,-298.54"/>
<polygon fill="none" stroke="#3fa9e5" points="403.19,-295.09 403.19,-316.91 328.07,-328 226.5,-328 151.38,-316.91 151.38,-295.09 226.5,-284 328.07,-284 403.19,-295.09"/>
<polygon fill="none" stroke="#3fa9e5" points="407.19,-291.64 407.19,-320.36 328.36,-332 226.2,-332 147.38,-320.36 147.38,-291.64 226.2,-280 328.36,-280 407.19,-291.64"/>
<text text-anchor="middle" x="277.28" y="-302.3" font-family="Roboto" font-size="14.00" fill="#ffffff">astroid&#45;0.15 (113.75 MiB)</text>
</g>
<!-- N39 -->
<g id="node52" class="node">
<title>N39</title>
<polygon fill="#3fa7e5" stroke="#3fa7e5" points="789.88,-359 589.88,-359 589.88,-323 789.88,-323 789.88,-359"/>
<text text-anchor="middle" x="689.88" y="-337.3" font-family="Roboto" font-size="14.00" fill="#ffffff">webkitgtk&#45;2.28.3 (110.26 MiB)</text>
</g>
<!-- N43&#45;&gt;N39 -->
<g id="edge6" class="edge">
<title>N43&#45;&gt;N39</title>
<path fill="none" stroke="black" d="M407.07,-316.98C462.53,-321.71 526.68,-327.17 579.75,-331.7"/>
<polygon fill="black" stroke="black" points="579.61,-335.2 589.87,-332.56 580.2,-328.22 579.61,-335.2"/>
</g>
<!-- N24 -->
<g id="node11" class="node">
<title>N24</title>
<polygon fill="#3cedea" stroke="#3cedea" points="447.76,-1908.54 447.76,-1923.46 347.9,-1934 206.67,-1934 106.8,-1923.46 106.8,-1908.54 206.67,-1898 347.9,-1898 447.76,-1908.54"/>
<polygon fill="none" stroke="#3cedea" points="451.77,-1904.94 451.77,-1927.06 348.11,-1938 206.46,-1938 102.8,-1927.06 102.8,-1904.94 206.46,-1894 348.11,-1894 451.77,-1904.94"/>
<polygon fill="none" stroke="#3cedea" points="455.78,-1901.35 455.78,-1930.65 348.32,-1942 206.25,-1942 98.79,-1930.65 98.79,-1901.35 206.25,-1890 348.32,-1890 455.78,-1901.35"/>
<text text-anchor="middle" x="277.28" y="-1912.3" font-family="Roboto" font-size="14.00" fill="#000000">skypeforlinux&#45;8.61.0.95 (299.90 MiB)</text>
</g>
<!-- N23 -->
<g id="node12" class="node">
<title>N23</title>
<polygon fill="#3dd6ea" stroke="#3dd6ea" points="475.56,-1978.54 475.56,-1993.46 359.41,-2004 195.16,-2004 79.01,-1993.46 79.01,-1978.54 195.16,-1968 359.41,-1968 475.56,-1978.54"/>
<polygon fill="none" stroke="#3dd6ea" points="479.56,-1974.89 479.56,-1997.11 359.59,-2008 194.98,-2008 75.01,-1997.11 75.01,-1974.89 194.98,-1964 359.59,-1964 479.56,-1974.89"/>
<polygon fill="none" stroke="#3dd6ea" points="483.55,-1971.24 483.55,-2000.76 359.77,-2012 194.79,-2012 71.01,-2000.76 71.01,-1971.24 194.79,-1960 359.77,-1960 483.55,-1971.24"/>
<text text-anchor="middle" x="277.28" y="-1982.3" font-family="Roboto" font-size="14.00" fill="#000000">papirus&#45;icon&#45;theme&#45;20200702 (224.83 MiB)</text>
</g>
<!-- N22 -->
<g id="node13" class="node">
<title>N22</title>
<polygon fill="#3ce5ec" stroke="#3ce5ec" points="457.47,-2048.54 457.47,-2063.46 351.92,-2074 202.65,-2074 97.1,-2063.46 97.1,-2048.54 202.65,-2038 351.92,-2038 457.47,-2048.54"/>
<polygon fill="none" stroke="#3ce5ec" points="461.47,-2044.92 461.47,-2067.08 352.12,-2078 202.45,-2078 93.1,-2067.08 93.1,-2044.92 202.45,-2034 352.12,-2034 461.47,-2044.92"/>
<polygon fill="none" stroke="#3ce5ec" points="465.47,-2041.3 465.47,-2070.7 352.32,-2082 202.25,-2082 89.1,-2070.7 89.1,-2041.3 202.25,-2030 352.32,-2030 465.47,-2041.3"/>
<text text-anchor="middle" x="277.28" y="-2052.3" font-family="Roboto" font-size="14.00" fill="#000000">qemu&#45;host&#45;cpu&#45;only&#45;5.0.0 (268.16 MiB)</text>
</g>
<!-- N21 -->
<g id="node14" class="node">
<title>N21</title>
<polygon fill="#3ce6ec" stroke="#3ce6ec" points="416.38,-2118.54 416.38,-2133.46 334.9,-2144 219.67,-2144 138.19,-2133.46 138.19,-2118.54 219.67,-2108 334.9,-2108 416.38,-2118.54"/>
<polygon fill="none" stroke="#3ce6ec" points="420.37,-2115.03 420.37,-2136.97 335.16,-2148 219.41,-2148 134.2,-2136.97 134.2,-2115.03 219.41,-2104 335.16,-2104 420.37,-2115.03"/>
<polygon fill="none" stroke="#3ce6ec" points="424.37,-2111.51 424.37,-2140.49 335.41,-2152 219.16,-2152 130.2,-2140.49 130.2,-2111.51 219.16,-2100 335.41,-2100 424.37,-2111.51"/>
<text text-anchor="middle" x="277.28" y="-2122.3" font-family="Roboto" font-size="14.00" fill="#000000">docker&#45;19.03.12 (269.00 MiB)</text>
</g>
<!-- N44 -->
<g id="node15" class="node">
<title>N44</title>
<polygon fill="#3ebae7" stroke="#3ebae7" points="398.29,-2258.54 398.29,-2273.46 327.4,-2284 227.16,-2284 156.28,-2273.46 156.28,-2258.54 227.16,-2248 327.4,-2248 398.29,-2258.54"/>
<polygon fill="none" stroke="#3ebae7" points="402.29,-2255.1 402.29,-2276.9 327.7,-2288 226.87,-2288 152.28,-2276.9 152.28,-2255.1 226.87,-2244 327.7,-2244 402.29,-2255.1"/>
<polygon fill="none" stroke="#3ebae7" points="406.29,-2251.65 406.29,-2280.35 328,-2292 226.57,-2292 148.28,-2280.35 148.28,-2251.65 226.57,-2240 328,-2240 406.29,-2251.65"/>
<text text-anchor="middle" x="277.28" y="-2262.3" font-family="Roboto" font-size="14.00" fill="#000000">hunter&#45;1.3.5 (153.44 MiB)</text>
</g>
<!-- N38 -->
<g id="node53" class="node">
<title>N38</title>
<polygon fill="#3fa8e5" stroke="#3fa8e5" points="778.88,-2249 600.88,-2249 600.88,-2213 778.88,-2213 778.88,-2249"/>
<text text-anchor="middle" x="689.88" y="-2227.3" font-family="Roboto" font-size="14.00" fill="#ffffff">opencv&#45;4.3.0 (111.58 MiB)</text>
</g>
<!-- N44&#45;&gt;N38 -->
<g id="edge7" class="edge">
<title>N44&#45;&gt;N38</title>
<path fill="none" stroke="black" d="M406.51,-2255.07C465.88,-2250.01 535.3,-2244.09 590.45,-2239.39"/>
<polygon fill="black" stroke="black" points="590.91,-2242.86 600.58,-2238.53 590.32,-2235.89 590.91,-2242.86"/>
</g>
<!-- N20 -->
<g id="node16" class="node">
<title>N20</title>
<polygon fill="#e7fe22" stroke="#e7fe22" points="405.35,-368.54 405.35,-383.46 330.33,-394 224.24,-394 149.22,-383.46 149.22,-368.54 224.24,-358 330.33,-358 405.35,-368.54"/>
<polygon fill="none" stroke="#e7fe22" points="409.35,-365.07 409.35,-386.93 330.61,-398 223.96,-398 145.21,-386.93 145.21,-365.07 223.96,-354 330.61,-354 409.35,-365.07"/>
<polygon fill="none" stroke="#e7fe22" points="413.36,-361.59 413.36,-390.41 330.89,-402 223.68,-402 141.21,-390.41 141.21,-361.59 223.68,-350 330.89,-350 413.36,-361.59"/>
<text text-anchor="middle" x="277.28" y="-372.3" font-family="Roboto" font-size="14.00" fill="#000000">bookworm&#45;1.1.2 (1.05 GiB)</text>
</g>
<!-- N20&#45;&gt;N35 -->
<g id="edge8" class="edge">
<title>N20&#45;&gt;N35</title>
<path fill="none" stroke="black" d="M413.49,-378.49C451.48,-383.52 491.72,-393.19 525.88,-411 592.82,-445.91 646.9,-519.52 672.62,-559.24"/>
<polygon fill="black" stroke="black" points="669.79,-561.31 678.11,-567.87 675.69,-557.55 669.79,-561.31"/>
</g>
<!-- N20&#45;&gt;N39 -->
<g id="edge9" class="edge">
<title>N20&#45;&gt;N39</title>
<path fill="none" stroke="black" d="M413.58,-364.47C467.47,-359.87 528.67,-354.66 579.66,-350.31"/>
<polygon fill="black" stroke="black" points="580.05,-353.79 589.71,-349.45 579.45,-346.82 580.05,-353.79"/>
</g>
<!-- N45 -->
<g id="node17" class="node">
<title>N45</title>
<polygon fill="#4088e3" stroke="#4088e3" points="419.91,-858.54 419.91,-873.46 336.36,-884 218.21,-884 134.66,-873.46 134.66,-858.54 218.21,-848 336.36,-848 419.91,-858.54"/>
<polygon fill="none" stroke="#4088e3" points="423.91,-855.02 423.91,-876.98 336.61,-888 217.95,-888 130.66,-876.98 130.66,-855.02 217.95,-844 336.61,-844 423.91,-855.02"/>
<polygon fill="none" stroke="#4088e3" points="427.9,-851.49 427.9,-880.51 336.86,-892 217.7,-892 126.67,-880.51 126.67,-851.49 217.7,-840 336.86,-840 427.9,-851.49"/>
<text text-anchor="middle" x="277.28" y="-862.3" font-family="Roboto" font-size="14.00" fill="#ffffff">virt&#45;manager&#45;2.2.1 (48.28 MiB)</text>
</g>
<!-- N45&#45;&gt;N37 -->
<g id="edge10" class="edge">
<title>N45&#45;&gt;N37</title>
<path fill="none" stroke="black" d="M409.95,-882.84C447.49,-888.12 488.37,-894.33 525.88,-901 550.17,-905.32 576.36,-910.64 600.49,-915.82"/>
<polygon fill="black" stroke="black" points="599.83,-919.26 610.34,-917.95 601.31,-912.42 599.83,-919.26"/>
</g>
<!-- N46 -->
<g id="node18" class="node">
<title>N46</title>
<polygon fill="#4075e1" stroke="#4075e1" points="406.25,-2188.54 406.25,-2203.46 330.7,-2214 223.87,-2214 148.32,-2203.46 148.32,-2188.54 223.87,-2178 330.7,-2178 406.25,-2188.54"/>
<polygon fill="none" stroke="#4075e1" points="410.26,-2185.06 410.26,-2206.94 330.98,-2218 223.59,-2218 144.31,-2206.94 144.31,-2185.06 223.59,-2174 330.98,-2174 410.26,-2185.06"/>
<polygon fill="none" stroke="#4075e1" points="414.26,-2181.58 414.26,-2210.42 331.26,-2222 223.31,-2222 140.31,-2210.42 140.31,-2181.58 223.31,-2170 331.26,-2170 414.26,-2181.58"/>
<text text-anchor="middle" x="277.28" y="-2192.3" font-family="Roboto" font-size="14.00" fill="#ffffff">nomacs&#45;3.14.2 (17.37 MiB)</text>
</g>
<!-- N46&#45;&gt;N38 -->
<g id="edge11" class="edge">
<title>N46&#45;&gt;N38</title>
<path fill="none" stroke="black" d="M414.15,-2207.58C471.85,-2212.5 537.83,-2218.12 590.68,-2222.63"/>
<polygon fill="black" stroke="black" points="590.46,-2226.12 600.72,-2223.49 591.06,-2219.15 590.46,-2226.12"/>
</g>
<!-- N19 -->
<g id="node19" class="node">
<title>N19</title>
<polygon fill="#befe2b" stroke="#befe2b" points="374.44,-1348.54 374.44,-1363.46 317.53,-1374 237.04,-1374 180.13,-1363.46 180.13,-1348.54 237.04,-1338 317.53,-1338 374.44,-1348.54"/>
<polygon fill="none" stroke="#befe2b" points="378.45,-1345.22 378.45,-1366.78 317.9,-1378 236.67,-1378 176.12,-1366.78 176.12,-1345.22 236.67,-1334 317.9,-1334 378.45,-1345.22"/>
<polygon fill="none" stroke="#befe2b" points="382.45,-1341.89 382.45,-1370.11 318.26,-1382 236.3,-1382 172.12,-1370.11 172.12,-1341.89 236.3,-1330 318.26,-1330 382.45,-1341.89"/>
<text text-anchor="middle" x="277.28" y="-1352.3" font-family="Roboto" font-size="14.00" fill="#000000">steam (839.60 MiB)</text>
</g>
<!-- N19&#45;&gt;N29 -->
<g id="edge12" class="edge">
<title>N19&#45;&gt;N29</title>
<path fill="none" stroke="black" d="M277.28,-1329.68C277.28,-1327.23 277.28,-1324.78 277.28,-1322.33"/>
<polygon fill="black" stroke="black" points="280.78,-1322.25 277.28,-1312.25 273.78,-1322.25 280.78,-1322.25"/>
</g>
<!-- N32 -->
<g id="node54" class="node">
<title>N32</title>
<polygon fill="#3cede9" stroke="#3cede9" points="787.38,-1409 592.38,-1409 592.38,-1373 787.38,-1373 787.38,-1409"/>
<text text-anchor="middle" x="689.88" y="-1387.3" font-family="Roboto" font-size="14.00" fill="#000000">mono&#45;5.20.1.27 (304.81 MiB)</text>
</g>
<!-- N19&#45;&gt;N32 -->
<g id="edge13" class="edge">
<title>N19&#45;&gt;N32</title>
<path fill="none" stroke="black" d="M382.43,-1364.88C443.53,-1370.09 520.57,-1376.65 582.12,-1381.9"/>
<polygon fill="black" stroke="black" points="581.99,-1385.4 592.25,-1382.76 582.58,-1378.43 581.99,-1385.4"/>
</g>
<!-- N36 -->
<g id="node55" class="node">
<title>N36</title>
<polygon fill="#3cedea" stroke="#3cedea" points="780.88,-1277 598.88,-1277 598.88,-1241 780.88,-1241 780.88,-1277"/>
<text text-anchor="middle" x="689.88" y="-1255.3" font-family="Roboto" font-size="14.00" fill="#000000">cups&#45;2.3.3&#45;lib (297.99 MiB)</text>
</g>
<!-- N19&#45;&gt;N36 -->
<g id="edge14" class="edge">
<title>N19&#45;&gt;N36</title>
<path fill="none" stroke="black" d="M382.59,-1346.49C427.18,-1341.08 479.53,-1332.93 525.88,-1321 564.94,-1310.95 607.49,-1294.57 639.32,-1281.17"/>
<polygon fill="black" stroke="black" points="641,-1284.25 648.83,-1277.11 638.26,-1277.81 641,-1284.25"/>
</g>
<!-- N47 -->
<g id="node20" class="node">
<title>N47</title>
<polygon fill="#4074e1" stroke="#4074e1" points="405.35,-1138.54 405.35,-1153.46 330.33,-1164 224.24,-1164 149.22,-1153.46 149.22,-1138.54 224.24,-1128 330.33,-1128 405.35,-1138.54"/>
<polygon fill="none" stroke="#4074e1" points="409.35,-1135.07 409.35,-1156.93 330.61,-1168 223.96,-1168 145.21,-1156.93 145.21,-1135.07 223.96,-1124 330.61,-1124 409.35,-1135.07"/>
<polygon fill="none" stroke="#4074e1" points="413.36,-1131.59 413.36,-1160.41 330.89,-1172 223.68,-1172 141.21,-1160.41 141.21,-1131.59 223.68,-1120 330.89,-1120 413.36,-1131.59"/>
<text text-anchor="middle" x="277.28" y="-1142.3" font-family="Roboto" font-size="14.00" fill="#ffffff">tigervnc&#45;1.10.1 (17.03 MiB)</text>
</g>
<!-- N47&#45;&gt;N37 -->
<g id="edge15" class="edge">
<title>N47&#45;&gt;N37</title>
<path fill="none" stroke="black" d="M413.49,-1143.51C451.48,-1138.48 491.72,-1128.81 525.88,-1111 592.82,-1076.09 646.9,-1002.48 672.62,-962.76"/>
<polygon fill="black" stroke="black" points="675.69,-964.45 678.11,-954.13 669.79,-960.69 675.69,-964.45"/>
</g>
<!-- N48 -->
<g id="node21" class="node">
<title>N48</title>
<polygon fill="#408be3" stroke="#408be3" points="438.48,-788.54 438.48,-803.46 344.05,-814 210.52,-814 116.09,-803.46 116.09,-788.54 210.52,-778 344.05,-778 438.48,-788.54"/>
<polygon fill="none" stroke="#408be3" points="442.48,-784.97 442.48,-807.03 344.28,-818 210.29,-818 112.09,-807.03 112.09,-784.97 210.29,-774 344.28,-774 442.48,-784.97"/>
<polygon fill="none" stroke="#408be3" points="446.48,-781.39 446.48,-810.61 344.5,-822 210.07,-822 108.08,-810.61 108.08,-781.39 210.07,-770 344.5,-770 446.48,-781.39"/>
<text text-anchor="middle" x="277.28" y="-792.3" font-family="Roboto" font-size="14.00" fill="#ffffff">dwarf&#45;fortress&#45;0.47.04 (54.96 MiB)</text>
</g>
<!-- N48&#45;&gt;N37 -->
<g id="edge17" class="edge">
<title>N48&#45;&gt;N37</title>
<path fill="none" stroke="black" d="M446.55,-809.78C473.57,-814.83 500.86,-821.69 525.88,-831 576.85,-849.97 628.4,-886.82 659.51,-911.42"/>
<polygon fill="black" stroke="black" points="657.35,-914.18 667.34,-917.7 661.73,-908.72 657.35,-914.18"/>
</g>
<!-- N48&#45;&gt;N35 -->
<g id="edge16" class="edge">
<title>N48&#45;&gt;N35</title>
<path fill="none" stroke="black" d="M446.6,-787.95C474.1,-782.25 501.53,-773.7 525.88,-761 592.82,-726.09 646.9,-652.48 672.62,-612.76"/>
<polygon fill="black" stroke="black" points="675.69,-614.45 678.11,-604.13 669.79,-610.69 675.69,-614.45"/>
</g>
<!-- N18 -->
<g id="node22" class="node">
<title>N18</title>
<polygon fill="#3cede8" stroke="#3cede8" points="394.75,-2328.54 394.75,-2343.46 325.94,-2354 228.63,-2354 159.82,-2343.46 159.82,-2328.54 228.63,-2318 325.94,-2318 394.75,-2328.54"/>
<polygon fill="none" stroke="#3cede8" points="398.75,-2325.11 398.75,-2346.89 326.25,-2358 228.32,-2358 155.82,-2346.89 155.82,-2325.11 228.32,-2314 326.25,-2314 398.75,-2325.11"/>
<polygon fill="none" stroke="#3cede8" points="402.75,-2321.68 402.75,-2350.32 326.55,-2362 228.02,-2362 151.82,-2350.32 151.82,-2321.68 228.02,-2310 326.55,-2310 402.75,-2321.68"/>
<text text-anchor="middle" x="277.28" y="-2332.3" font-family="Roboto" font-size="14.00" fill="#000000">nvtop&#45;1.0.0 (308.33 MiB)</text>
</g>
<!-- N17 -->
<g id="node23" class="node">
<title>N17</title>
<polygon fill="#3ebfe8" stroke="#3ebfe8" points="517.97,-2398.54 517.97,-2413.46 376.98,-2424 177.59,-2424 36.6,-2413.46 36.6,-2398.54 177.59,-2388 376.98,-2388 517.97,-2398.54"/>
<polygon fill="none" stroke="#3ebfe8" points="521.97,-2394.83 521.97,-2417.17 377.13,-2428 177.44,-2428 32.6,-2417.17 32.6,-2394.83 177.44,-2384 377.13,-2384 521.97,-2394.83"/>
<polygon fill="none" stroke="#3ebfe8" points="525.97,-2391.12 525.97,-2420.88 377.28,-2432 177.29,-2432 28.6,-2420.88 28.6,-2391.12 177.29,-2380 377.28,-2380 525.97,-2391.12"/>
<text text-anchor="middle" x="277.28" y="-2402.3" font-family="Roboto" font-size="14.00" fill="#000000">google&#45;play&#45;music&#45;desktop&#45;player&#45;4.7.1 (165.68 MiB)</text>
</g>
<!-- N50 -->
<g id="node24" class="node">
<title>N50</title>
<polygon fill="#406ae1" stroke="#406ae1" points="437.58,-1698.54 437.58,-1713.46 343.68,-1724 210.89,-1724 116.99,-1713.46 116.99,-1698.54 210.89,-1688 343.68,-1688 437.58,-1698.54"/>
<polygon fill="none" stroke="#406ae1" points="441.58,-1694.97 441.58,-1717.03 343.91,-1728 210.66,-1728 112.99,-1717.03 112.99,-1694.97 210.66,-1684 343.91,-1684 441.58,-1694.97"/>
<polygon fill="none" stroke="#406ae1" points="445.58,-1691.39 445.58,-1720.61 344.13,-1732 210.44,-1732 108.99,-1720.61 108.99,-1691.39 210.44,-1680 344.13,-1680 445.58,-1691.39"/>
<text text-anchor="middle" x="277.28" y="-1702.3" font-family="Roboto" font-size="14.00" fill="#ffffff">nvidia&#45;settings&#45;440.100 (1.70 MiB)</text>
</g>
<!-- N49 -->
<g id="node35" class="node">
<title>N49</title>
<polygon fill="#4089e3" stroke="#4089e3" points="468.07,-1628.54 468.07,-1643.46 356.31,-1654 198.26,-1654 86.5,-1643.46 86.5,-1628.54 198.26,-1618 356.31,-1618 468.07,-1628.54"/>
<polygon fill="none" stroke="#4089e3" points="472.07,-1624.9 472.07,-1647.1 356.5,-1658 198.07,-1658 82.49,-1647.1 82.49,-1624.9 198.07,-1614 356.5,-1614 472.07,-1624.9"/>
<polygon fill="none" stroke="#4089e3" points="476.08,-1621.26 476.08,-1650.74 356.69,-1662 197.88,-1662 78.49,-1650.74 78.49,-1621.26 197.88,-1610 356.69,-1610 476.08,-1621.26"/>
<text text-anchor="middle" x="277.28" y="-1632.3" font-family="Roboto" font-size="14.00" fill="#ffffff">nvidia&#45;x11&#45;440.100&#45;5.4.51&#45;bin (50.75 MiB)</text>
</g>
<!-- N50&#45;&gt;N49 -->
<g id="edge18" class="edge">
<title>N50&#45;&gt;N49</title>
<path fill="none" stroke="black" d="M277.28,-1679.68C277.28,-1677.23 277.28,-1674.78 277.28,-1672.33"/>
<polygon fill="black" stroke="black" points="280.78,-1672.25 277.28,-1662.25 273.78,-1672.25 280.78,-1672.25"/>
</g>
<!-- N16 -->
<g id="node25" class="node">
<title>N16</title>
<polygon fill="#3ec6e8" stroke="#3ec6e8" points="403.14,-228.54 403.14,-243.46 329.42,-254 225.15,-254 151.43,-243.46 151.43,-228.54 225.15,-218 329.42,-218 403.14,-228.54"/>
<polygon fill="none" stroke="#3ec6e8" points="407.14,-225.08 407.14,-246.92 329.7,-258 224.87,-258 147.43,-246.92 147.43,-225.08 224.87,-214 329.7,-214 407.14,-225.08"/>
<polygon fill="none" stroke="#3ec6e8" points="411.13,-221.61 411.13,-250.39 329.98,-262 224.58,-262 143.43,-250.39 143.43,-221.61 224.58,-210 329.98,-210 411.13,-221.61"/>
<text text-anchor="middle" x="277.28" y="-232.3" font-family="Roboto" font-size="14.00" fill="#000000">gimp&#45;2.10.20 (184.03 MiB)</text>
</g>
<!-- N16&#45;&gt;N37 -->
<g id="edge19" class="edge">
<title>N16&#45;&gt;N37</title>
<path fill="none" stroke="black" d="M411.37,-224.58C453.35,-228.15 496.41,-240.46 525.88,-271 578.95,-325.99 543.73,-538.77 561.88,-613 589.75,-727.02 648.74,-854.55 675.35,-909"/>
<polygon fill="black" stroke="black" points="672.23,-910.57 679.78,-918 678.51,-907.48 672.23,-910.57"/>
</g>
<!-- N40 -->
<g id="node56" class="node">
<title>N40</title>
<polygon fill="#3fb2e6" stroke="#3fb2e6" points="758.38,-184 621.38,-184 621.38,-148 758.38,-148 758.38,-184"/>
<text text-anchor="middle" x="689.88" y="-162.3" font-family="Roboto" font-size="14.00" fill="#ffffff">blas&#45;3 (135.73 MiB)</text>
</g>
<!-- N16&#45;&gt;N40 -->
<g id="edge20" class="edge">
<title>N16&#45;&gt;N40</title>
<path fill="none" stroke="black" d="M401.98,-220.27C441.65,-214.76 485.7,-208.14 525.88,-201 553.92,-196.01 584.49,-189.69 611.51,-183.79"/>
<polygon fill="black" stroke="black" points="612.27,-187.21 621.28,-181.64 610.77,-180.37 612.27,-187.21"/>
</g>
<!-- N51 -->
<g id="node26" class="node">
<title>N51</title>
<polygon fill="#406be1" stroke="#406be1" points="392.54,-2538.54 392.54,-2553.46 325.02,-2564 229.54,-2564 162.03,-2553.46 162.03,-2538.54 229.54,-2528 325.02,-2528 392.54,-2538.54"/>
<polygon fill="none" stroke="#406be1" points="396.53,-2535.12 396.53,-2556.88 325.33,-2568 229.23,-2568 158.03,-2556.88 158.03,-2535.12 229.23,-2524 325.33,-2524 396.53,-2535.12"/>
<polygon fill="none" stroke="#406be1" points="400.53,-2531.7 400.53,-2560.3 325.64,-2572 228.92,-2572 154.04,-2560.3 154.04,-2531.7 228.92,-2520 325.64,-2520 400.53,-2531.7"/>
<text text-anchor="middle" x="277.28" y="-2542.3" font-family="Roboto" font-size="14.00" fill="#ffffff">firefox&#45;77.0.1 (3.60 MiB)</text>
</g>
<!-- N8 -->
<g id="node38" class="node">
<title>N8</title>
<polygon fill="#3ec5e8" stroke="#3ec5e8" points="453.93,-2468.54 453.93,-2483.46 350.46,-2494 204.11,-2494 100.63,-2483.46 100.63,-2468.54 204.11,-2458 350.46,-2458 453.93,-2468.54"/>
<polygon fill="none" stroke="#3ec5e8" points="457.94,-2464.93 457.94,-2487.07 350.66,-2498 203.91,-2498 96.63,-2487.07 96.63,-2464.93 203.91,-2454 350.66,-2454 457.94,-2464.93"/>
<polygon fill="none" stroke="#3ec5e8" points="461.94,-2461.32 461.94,-2490.68 350.86,-2502 203.71,-2502 92.63,-2490.68 92.63,-2461.32 203.71,-2450 350.86,-2450 461.94,-2461.32"/>
<text text-anchor="middle" x="277.28" y="-2472.3" font-family="Roboto" font-size="14.00" fill="#000000">firefox&#45;unwrapped&#45;77.0.1 (181.35 MiB)</text>
</g>
<!-- N51&#45;&gt;N8 -->
<g id="edge21" class="edge">
<title>N51&#45;&gt;N8</title>
<path fill="none" stroke="black" d="M277.28,-2519.68C277.28,-2517.23 277.28,-2514.78 277.28,-2512.33"/>
<polygon fill="black" stroke="black" points="280.78,-2512.25 277.28,-2502.25 273.78,-2512.25 280.78,-2512.25"/>
</g>
<!-- N15 -->
<g id="node27" class="node">
<title>N15</title>
<polygon fill="#fe8f00" stroke="#fe8f00" points="371.34,-1208.54 371.34,-1223.46 316.24,-1234 238.33,-1234 183.23,-1223.46 183.23,-1208.54 238.33,-1198 316.24,-1198 371.34,-1208.54"/>
<polygon fill="none" stroke="#fe8f00" points="375.33,-1205.24 375.33,-1226.76 316.62,-1238 237.95,-1238 179.24,-1226.76 179.24,-1205.24 237.95,-1194 316.62,-1194 375.33,-1205.24"/>
<polygon fill="none" stroke="#fe8f00" points="379.32,-1201.93 379.32,-1230.07 317,-1242 237.57,-1242 175.25,-1230.07 175.25,-1201.93 237.57,-1190 317,-1190 379.32,-1201.93"/>
<text text-anchor="middle" x="277.28" y="-1212.3" font-family="Roboto" font-size="14.00" fill="#000000">wine&#45;5.0 (1.90 GiB)</text>
</g>
<!-- N15&#45;&gt;N36 -->
<g id="edge22" class="edge">
<title>N15&#45;&gt;N36</title>
<path fill="none" stroke="black" d="M379.52,-1226.6C443.19,-1233.27 525.03,-1241.84 588.54,-1248.49"/>
<polygon fill="black" stroke="black" points="588.25,-1251.98 598.56,-1249.54 588.98,-1245.02 588.25,-1251.98"/>
</g>
<!-- N14 -->
<g id="node28" class="node">
<title>N14</title>
<polygon fill="#3cede7" stroke="#3cede7" points="396.97,-2608.54 396.97,-2623.46 326.86,-2634 227.71,-2634 157.6,-2623.46 157.6,-2608.54 227.71,-2598 326.86,-2598 396.97,-2608.54"/>
<polygon fill="none" stroke="#3cede7" points="400.97,-2605.1 400.97,-2626.9 327.16,-2638 227.41,-2638 153.6,-2626.9 153.6,-2605.1 227.41,-2594 327.16,-2594 400.97,-2605.1"/>
<polygon fill="none" stroke="#3cede7" points="404.97,-2601.66 404.97,-2630.34 327.46,-2642 227.11,-2642 149.6,-2630.34 149.6,-2601.66 227.11,-2590 327.46,-2590 404.97,-2601.66"/>
<text text-anchor="middle" x="277.28" y="-2612.3" font-family="Roboto" font-size="14.00" fill="#000000">elixir&#45;1.10.4 (309.99 MiB)</text>
</g>
<!-- N13 -->
<g id="node29" class="node">
<title>N13</title>
<polygon fill="#c9fe29" stroke="#c9fe29" points="419.91,-2678.54 419.91,-2693.46 336.36,-2704 218.21,-2704 134.66,-2693.46 134.66,-2678.54 218.21,-2668 336.36,-2668 419.91,-2678.54"/>
<polygon fill="none" stroke="#c9fe29" points="423.91,-2675.02 423.91,-2696.98 336.61,-2708 217.95,-2708 130.66,-2696.98 130.66,-2675.02 217.95,-2664 336.61,-2664 423.91,-2675.02"/>
<polygon fill="none" stroke="#c9fe29" points="427.9,-2671.49 427.9,-2700.51 336.86,-2712 217.7,-2712 126.67,-2700.51 126.67,-2671.49 217.7,-2660 336.86,-2660 427.9,-2671.49"/>
<text text-anchor="middle" x="277.28" y="-2682.3" font-family="Roboto" font-size="14.00" fill="#000000">xonotic&#45;sdl&#45;0.8.2 (895.35 MiB)</text>
</g>
<!-- N52 -->
<g id="node30" class="node">
<title>N52</title>
<polygon fill="#4089e3" stroke="#4089e3" points="397.39,-718.54 397.39,-733.46 327.03,-744 227.53,-744 157.18,-733.46 157.18,-718.54 227.53,-708 327.03,-708 397.39,-718.54"/>
<polygon fill="none" stroke="#4089e3" points="401.39,-715.1 401.39,-736.9 327.33,-748 227.24,-748 153.18,-736.9 153.18,-715.1 227.24,-704 327.33,-704 401.39,-715.1"/>
<polygon fill="none" stroke="#4089e3" points="405.38,-711.65 405.38,-740.35 327.63,-752 226.94,-752 149.19,-740.35 149.19,-711.65 226.94,-700 327.63,-700 405.38,-711.65"/>
<text text-anchor="middle" x="277.28" y="-722.3" font-family="Roboto" font-size="14.00" fill="#ffffff">neovim&#45;0.4.3 (51.22 MiB)</text>
</g>
<!-- N52&#45;&gt;N35 -->
<g id="edge23" class="edge">
<title>N52&#45;&gt;N35</title>
<path fill="none" stroke="black" d="M405.57,-718.63C445.02,-713.55 488.04,-705.08 525.88,-691 576.85,-672.03 628.4,-635.18 659.51,-610.58"/>
<polygon fill="black" stroke="black" points="661.73,-613.28 667.34,-604.3 657.35,-607.82 661.73,-613.28"/>
</g>
<!-- N12 -->
<g id="node31" class="node">
<title>N12</title>
<polygon fill="#3ec4e8" stroke="#3ec4e8" points="415.06,-158.54 415.06,-173.46 334.35,-184 220.22,-184 139.51,-173.46 139.51,-158.54 220.22,-148 334.35,-148 415.06,-158.54"/>
<polygon fill="none" stroke="#3ec4e8" points="419.06,-155.03 419.06,-176.97 334.61,-188 219.96,-188 135.51,-176.97 135.51,-155.03 219.96,-144 334.61,-144 419.06,-155.03"/>
<polygon fill="none" stroke="#3ec4e8" points="423.05,-151.52 423.05,-180.48 334.87,-192 219.7,-192 131.52,-180.48 131.52,-151.52 219.7,-140 334.87,-140 423.05,-151.52"/>
<text text-anchor="middle" x="277.28" y="-162.3" font-family="Roboto" font-size="14.00" fill="#000000">inkscape&#45;0.92.5 (177.59 MiB)</text>
</g>
<!-- N12&#45;&gt;N40 -->
<g id="edge24" class="edge">
<title>N12&#45;&gt;N40</title>
<path fill="none" stroke="black" d="M423.33,-166C486.51,-166 558.04,-166 610.93,-166"/>
<polygon fill="black" stroke="black" points="611.26,-169.5 621.26,-166 611.26,-162.5 611.26,-169.5"/>
</g>
<!-- N11 -->
<g id="node32" class="node">
<title>N11</title>
<polygon fill="#3ce5ec" stroke="#3ce5ec" points="408.89,-88.54 408.89,-103.46 331.8,-114 222.77,-114 145.68,-103.46 145.68,-88.54 222.77,-78 331.8,-78 408.89,-88.54"/>
<polygon fill="none" stroke="#3ce5ec" points="412.89,-85.05 412.89,-106.95 332.07,-118 222.5,-118 141.68,-106.95 141.68,-85.05 222.5,-74 332.07,-74 412.89,-85.05"/>
<polygon fill="none" stroke="#3ce5ec" points="416.89,-81.56 416.89,-110.44 332.34,-122 222.23,-122 137.68,-110.44 137.68,-81.56 222.23,-70 332.34,-70 416.89,-81.56"/>
<text text-anchor="middle" x="277.28" y="-92.3" font-family="Roboto" font-size="14.00" fill="#000000">blender&#45;2.83.1 (268.65 MiB)</text>
</g>
<!-- N11&#45;&gt;N40 -->
<g id="edge25" class="edge">
<title>N11&#45;&gt;N40</title>
<path fill="none" stroke="black" d="M404.84,-112.12C443.75,-117.56 486.66,-124.03 525.88,-131 553.92,-135.99 584.49,-142.31 611.51,-148.21"/>
<polygon fill="black" stroke="black" points="610.77,-151.63 621.28,-150.36 612.27,-144.79 610.77,-151.63"/>
</g>
<!-- N53 -->
<g id="node33" class="node">
<title>N53</title>
<polygon fill="#406ce1" stroke="#406ce1" points="394.75,-648.54 394.75,-663.46 325.94,-674 228.63,-674 159.82,-663.46 159.82,-648.54 228.63,-638 325.94,-638 394.75,-648.54"/>
<polygon fill="none" stroke="#406ce1" points="398.75,-645.11 398.75,-666.89 326.25,-678 228.32,-678 155.82,-666.89 155.82,-645.11 228.32,-634 326.25,-634 398.75,-645.11"/>
<polygon fill="none" stroke="#406ce1" points="402.75,-641.68 402.75,-670.32 326.55,-682 228.02,-682 151.82,-670.32 151.82,-641.68 228.02,-630 326.55,-630 402.75,-641.68"/>
<text text-anchor="middle" x="277.28" y="-652.3" font-family="Roboto" font-size="14.00" fill="#ffffff">nethack&#45;3.6.6 (4.58 MiB)</text>
</g>
<!-- N53&#45;&gt;N35 -->
<g id="edge26" class="edge">
<title>N53&#45;&gt;N35</title>
<path fill="none" stroke="black" d="M397.88,-640.84C438.6,-635.22 484.31,-628.39 525.88,-621 550.67,-616.59 577.44,-611.14 601.98,-605.86"/>
<polygon fill="black" stroke="black" points="602.96,-609.23 611.99,-603.69 601.47,-602.38 602.96,-609.23"/>
</g>
<!-- N10 -->
<g id="node34" class="node">
<title>N10</title>
<polygon fill="#3faae5" stroke="#3faae5" points="405.35,-2818.54 405.35,-2833.46 330.33,-2844 224.24,-2844 149.22,-2833.46 149.22,-2818.54 224.24,-2808 330.33,-2808 405.35,-2818.54"/>
<polygon fill="none" stroke="#3faae5" points="409.35,-2815.07 409.35,-2836.93 330.61,-2848 223.96,-2848 145.21,-2836.93 145.21,-2815.07 223.96,-2804 330.61,-2804 409.35,-2815.07"/>
<polygon fill="none" stroke="#3faae5" points="413.36,-2811.59 413.36,-2840.41 330.89,-2852 223.68,-2852 141.21,-2840.41 141.21,-2811.59 223.68,-2800 330.89,-2800 413.36,-2811.59"/>
<text text-anchor="middle" x="277.28" y="-2822.3" font-family="Roboto" font-size="14.00" fill="#ffffff">calibre&#45;4.19.0 (116.82 MiB)</text>
</g>
<!-- N33 -->
<g id="node57" class="node">
<title>N33</title>
<polygon fill="#3ebde7" stroke="#3ebde7" points="810.88,-2809 568.88,-2809 568.88,-2773 810.88,-2773 810.88,-2809"/>
<text text-anchor="middle" x="689.88" y="-2787.3" font-family="Roboto" font-size="14.00" fill="#000000">qtwebengine&#45;5.12.7&#45;bin (161.55 MiB)</text>
</g>
<!-- N10&#45;&gt;N33 -->
<g id="edge27" class="edge">
<title>N10&#45;&gt;N33</title>
<path fill="none" stroke="black" d="M413.58,-2814.47C460.28,-2810.49 512.46,-2806.04 558.73,-2802.09"/>
<polygon fill="black" stroke="black" points="559.15,-2805.57 568.82,-2801.23 558.56,-2798.6 559.15,-2805.57"/>
</g>
<!-- N49&#45;&gt;N34 -->
<g id="edge28" class="edge">
<title>N49&#45;&gt;N34</title>
<path fill="none" stroke="black" d="M427.49,-1655.34C459.99,-1660.04 494.14,-1665.36 525.88,-1671 550.17,-1675.32 576.36,-1680.64 600.49,-1685.82"/>
<polygon fill="black" stroke="black" points="599.83,-1689.26 610.34,-1687.95 601.31,-1682.42 599.83,-1689.26"/>
</g>
<!-- N54 -->
<g id="node36" class="node">
<title>N54</title>
<polygon fill="#406ae1" stroke="#406ae1" points="388.58,-2748.54 388.58,-2763.46 323.38,-2774 231.18,-2774 165.99,-2763.46 165.99,-2748.54 231.18,-2738 323.38,-2738 388.58,-2748.54"/>
<polygon fill="none" stroke="#406ae1" points="392.58,-2745.14 392.58,-2766.86 323.71,-2778 230.86,-2778 161.99,-2766.86 161.99,-2745.14 230.86,-2734 323.71,-2734 392.58,-2745.14"/>
<polygon fill="none" stroke="#406ae1" points="396.59,-2741.74 396.59,-2770.26 324.03,-2782 230.54,-2782 157.98,-2770.26 157.98,-2741.74 230.54,-2730 324.03,-2730 396.59,-2741.74"/>
<text text-anchor="middle" x="277.28" y="-2752.3" font-family="Roboto" font-size="14.00" fill="#ffffff">zeal&#45;0.6.999 (1.68 MiB)</text>
</g>
<!-- N54&#45;&gt;N33 -->
<g id="edge29" class="edge">
<title>N54&#45;&gt;N33</title>
<path fill="none" stroke="black" d="M396.49,-2766.08C447.13,-2770.39 506.45,-2775.45 558.37,-2779.88"/>
<polygon fill="black" stroke="black" points="558.39,-2783.39 568.66,-2780.75 558.99,-2776.42 558.39,-2783.39"/>
</g>
<!-- N9 -->
<g id="node37" class="node">
<title>N9</title>
<polygon fill="#75fb32" stroke="#75fb32" points="442.43,-2958.54 442.43,-2973.46 345.69,-2984 208.88,-2984 112.13,-2973.46 112.13,-2958.54 208.88,-2948 345.69,-2948 442.43,-2958.54"/>
<polygon fill="none" stroke="#75fb32" points="446.43,-2954.96 446.43,-2977.04 345.91,-2988 208.66,-2988 108.14,-2977.04 108.14,-2954.96 208.66,-2944 345.91,-2944 446.43,-2954.96"/>
<polygon fill="none" stroke="#75fb32" points="450.43,-2951.37 450.43,-2980.63 346.13,-2992 208.44,-2992 104.14,-2980.63 104.14,-2951.37 208.44,-2940 346.13,-2940 450.43,-2951.37"/>
<text text-anchor="middle" x="277.28" y="-2962.3" font-family="Roboto" font-size="14.00" fill="#000000">kodi&#45;with&#45;plugins&#45;18.5 (672.27 MiB)</text>
</g>
<!-- N31 -->
<g id="node58" class="node">
<title>N31</title>
<polygon fill="#3fb3e6" stroke="#3fb3e6" points="770.88,-2949 608.88,-2949 608.88,-2913 770.88,-2913 770.88,-2949"/>
<text text-anchor="middle" x="689.88" y="-2927.3" font-family="Roboto" font-size="14.00" fill="#ffffff">zlib&#45;1.2.11 (136.86 MiB)</text>
</g>
<!-- N9&#45;&gt;N31 -->
<g id="edge30" class="edge">
<title>N9&#45;&gt;N31</title>
<path fill="none" stroke="black" d="M450.33,-2951.33C501.37,-2946.98 555.22,-2942.39 598.82,-2938.68"/>
<polygon fill="black" stroke="black" points="599.15,-2942.16 608.81,-2937.83 598.55,-2935.19 599.15,-2942.16"/>
</g>
<!-- N55 -->
<g id="node39" class="node">
<title>N55</title>
<polygon fill="#4072e1" stroke="#4072e1" points="387.26,-1068.54 387.26,-1083.46 322.84,-1094 231.73,-1094 167.31,-1083.46 167.31,-1068.54 231.73,-1058 322.84,-1058 387.26,-1068.54"/>
<polygon fill="none" stroke="#4072e1" points="391.27,-1065.15 391.27,-1086.85 323.16,-1098 231.41,-1098 163.3,-1086.85 163.3,-1065.15 231.41,-1054 323.16,-1054 391.27,-1065.15"/>
<polygon fill="none" stroke="#4072e1" points="395.27,-1061.75 395.27,-1090.25 323.49,-1102 231.08,-1102 159.29,-1090.25 159.29,-1061.75 231.08,-1050 323.49,-1050 395.27,-1061.75"/>
<text text-anchor="middle" x="277.28" y="-1072.3" font-family="Roboto" font-size="14.00" fill="#ffffff">piper&#45;0.5.1 (13.11 MiB)</text>
</g>
<!-- N55&#45;&gt;N37 -->
<g id="edge31" class="edge">
<title>N55&#45;&gt;N37</title>
<path fill="none" stroke="black" d="M395.17,-1069.9C437.35,-1065.01 484.68,-1056.33 525.88,-1041 576.85,-1022.03 628.4,-985.18 659.51,-960.58"/>
<polygon fill="black" stroke="black" points="661.73,-963.28 667.34,-954.3 657.35,-957.82 661.73,-963.28"/>
</g>
<!-- N7 -->
<g id="node40" class="node">
<title>N7</title>
<polygon fill="#3ec0e8" stroke="#3ec0e8" points="420.81,-578.54 420.81,-593.46 336.73,-604 217.83,-604 133.76,-593.46 133.76,-578.54 217.83,-568 336.73,-568 420.81,-578.54"/>
<polygon fill="none" stroke="#3ec0e8" points="424.81,-575.01 424.81,-596.99 336.98,-608 217.58,-608 129.76,-596.99 129.76,-575.01 217.58,-564 336.98,-564 424.81,-575.01"/>
<polygon fill="none" stroke="#3ec0e8" points="428.81,-571.48 428.81,-600.52 337.23,-612 217.33,-612 125.76,-600.52 125.76,-571.48 217.33,-560 337.23,-560 428.81,-571.48"/>
<text text-anchor="middle" x="277.28" y="-582.3" font-family="Roboto" font-size="14.00" fill="#000000">upwork&#45;5.3.3.862 (168.29 MiB)</text>
</g>
<!-- N7&#45;&gt;N35 -->
<g id="edge32" class="edge">
<title>N7&#45;&gt;N35</title>
<path fill="none" stroke="black" d="M428.84,-586C487.19,-586 551.9,-586 602.18,-586"/>
<polygon fill="black" stroke="black" points="602.35,-589.5 612.35,-586 602.35,-582.5 602.35,-589.5"/>
</g>
<!-- N56 -->
<g id="node41" class="node">
<title>N56</title>
<polygon fill="#4083e2" stroke="#4083e2" points="451.72,-1418.54 451.72,-1433.46 349.54,-1444 205.03,-1444 102.85,-1433.46 102.85,-1418.54 205.03,-1408 349.54,-1408 451.72,-1418.54"/>
<polygon fill="none" stroke="#4083e2" points="455.72,-1414.94 455.72,-1437.06 349.74,-1448 204.83,-1448 98.85,-1437.06 98.85,-1414.94 204.83,-1404 349.74,-1404 455.72,-1414.94"/>
<polygon fill="none" stroke="#4083e2" points="459.72,-1411.33 459.72,-1440.67 349.95,-1452 204.62,-1452 94.85,-1440.67 94.85,-1411.33 204.62,-1400 349.95,-1400 459.72,-1411.33"/>
<text text-anchor="middle" x="277.28" y="-1422.3" font-family="Roboto" font-size="14.00" fill="#ffffff">openra&#45;release&#45;20190314 (40.77 MiB)</text>
</g>
<!-- N56&#45;&gt;N32 -->
<g id="edge33" class="edge">
<title>N56&#45;&gt;N32</title>
<path fill="none" stroke="black" d="M455.69,-1410.88C498.7,-1407.21 543.36,-1403.4 581.96,-1400.11"/>
<polygon fill="black" stroke="black" points="582.49,-1403.58 592.15,-1399.25 581.89,-1396.61 582.49,-1403.58"/>
</g>
<!-- N6 -->
<g id="node42" class="node">
<title>N6</title>
<polygon fill="#3ec9e9" stroke="#3ec9e9" points="406.25,-2888.54 406.25,-2903.46 330.7,-2914 223.87,-2914 148.32,-2903.46 148.32,-2888.54 223.87,-2878 330.7,-2878 406.25,-2888.54"/>
<polygon fill="none" stroke="#3ec9e9" points="410.26,-2885.06 410.26,-2906.94 330.98,-2918 223.59,-2918 144.31,-2906.94 144.31,-2885.06 223.59,-2874 330.98,-2874 410.26,-2885.06"/>
<polygon fill="none" stroke="#3ec9e9" points="414.26,-2881.58 414.26,-2910.42 331.26,-2922 223.31,-2922 140.31,-2910.42 140.31,-2881.58 223.31,-2870 331.26,-2870 414.26,-2881.58"/>
<text text-anchor="middle" x="277.28" y="-2892.3" font-family="Roboto" font-size="14.00" fill="#000000">fritzing&#45;0.9.3b (190.99 MiB)</text>
</g>
<!-- N6&#45;&gt;N31 -->
<g id="edge34" class="edge">
<title>N6&#45;&gt;N31</title>
<path fill="none" stroke="black" d="M414.15,-2907.58C474.7,-2912.74 544.38,-2918.68 598.41,-2923.29"/>
<polygon fill="black" stroke="black" points="598.4,-2926.8 608.66,-2924.16 598.99,-2919.83 598.4,-2926.8"/>
</g>
<!-- N5 -->
<g id="node43" class="node">
<title>N5</title>
<polygon fill="#3ddceb" stroke="#3ddceb" points="476.46,-3028.54 476.46,-3043.46 359.78,-3054 194.78,-3054 78.11,-3043.46 78.11,-3028.54 194.78,-3018 359.78,-3018 476.46,-3028.54"/>
<polygon fill="none" stroke="#3ddceb" points="480.46,-3024.89 480.46,-3047.11 359.97,-3058 194.6,-3058 74.11,-3047.11 74.11,-3024.89 194.6,-3014 359.97,-3014 480.46,-3024.89"/>
<polygon fill="none" stroke="#3ddceb" points="484.46,-3021.23 484.46,-3050.77 360.15,-3062 194.42,-3062 70.11,-3050.77 70.11,-3021.23 194.42,-3010 360.15,-3010 484.46,-3021.23"/>
<text text-anchor="middle" x="277.28" y="-3032.3" font-family="Roboto" font-size="14.00" fill="#000000">google&#45;chrome&#45;83.0.4103.116 (242.00 MiB)</text>
</g>
<!-- N4 -->
<g id="node44" class="node">
<title>N4</title>
<polygon fill="#3cede9" stroke="#3cede9" points="389,-3098.54 389,-3113.46 323.56,-3124 231.01,-3124 165.56,-3113.46 165.56,-3098.54 231.01,-3088 323.56,-3088 389,-3098.54"/>
<polygon fill="none" stroke="#3cede9" points="393,-3095.14 393,-3116.86 323.88,-3128 230.69,-3128 161.57,-3116.86 161.57,-3095.14 230.69,-3084 323.88,-3084 393,-3095.14"/>
<polygon fill="none" stroke="#3cede9" points="397,-3091.73 397,-3120.27 324.2,-3132 230.37,-3132 157.57,-3120.27 157.57,-3091.73 230.37,-3080 324.2,-3080 397,-3091.73"/>
<text text-anchor="middle" x="277.28" y="-3102.3" font-family="Roboto" font-size="14.00" fill="#000000">X11&#45;fonts (304.25 MiB)</text>
</g>
<!-- N57 -->
<g id="node45" class="node">
<title>N57</title>
<polygon fill="#4069e1" stroke="#4069e1" points="401.82,-998.54 401.82,-1013.46 328.87,-1024 225.7,-1024 152.75,-1013.46 152.75,-998.54 225.7,-988 328.87,-988 401.82,-998.54"/>
<polygon fill="none" stroke="#4069e1" points="405.82,-995.08 405.82,-1016.92 329.16,-1028 225.41,-1028 148.75,-1016.92 148.75,-995.08 225.41,-984 329.16,-984 405.82,-995.08"/>
<polygon fill="none" stroke="#4069e1" points="409.82,-991.62 409.82,-1020.38 329.44,-1032 225.12,-1032 144.75,-1020.38 144.75,-991.62 225.12,-980 329.44,-980 409.82,-991.62"/>
<text text-anchor="middle" x="277.28" y="-1002.3" font-family="Roboto" font-size="14.00" fill="#ffffff">arandr&#45;0.1.10 (204.32 KiB)</text>
</g>
<!-- N57&#45;&gt;N37 -->
<g id="edge35" class="edge">
<title>N57&#45;&gt;N37</title>
<path fill="none" stroke="black" d="M401.35,-990.36C441.18,-984.83 485.49,-978.18 525.88,-971 550.17,-966.68 576.36,-961.36 600.49,-956.18"/>
<polygon fill="black" stroke="black" points="601.31,-959.58 610.34,-954.05 599.83,-952.74 601.31,-959.58"/>
</g>
<!-- N3 -->
<g id="node46" class="node">
<title>N3</title>
<polygon fill="#3ce7ec" stroke="#3ce7ec" points="487.48,-3168.54 487.48,-3183.46 364.35,-3194 190.22,-3194 67.09,-3183.46 67.09,-3168.54 190.22,-3158 364.35,-3158 487.48,-3168.54"/>
<polygon fill="none" stroke="#3ce7ec" points="491.48,-3164.87 491.48,-3187.13 364.52,-3198 190.05,-3198 63.09,-3187.13 63.09,-3164.87 190.05,-3154 364.52,-3154 491.48,-3164.87"/>
<polygon fill="none" stroke="#3ce7ec" points="495.47,-3161.2 495.47,-3190.8 364.69,-3202 189.88,-3202 59.1,-3190.8 59.1,-3161.2 189.88,-3150 364.69,-3150 495.47,-3161.2"/>
<text text-anchor="middle" x="277.28" y="-3172.3" font-family="Roboto" font-size="14.00" fill="#000000">spotify&#45;1.1.26.501.gbe11e53b&#45;15 (272.32 MiB)</text>
</g>
<!-- N2 -->
<g id="node47" class="node">
<title>N2</title>
<polygon fill="#3ebee7" stroke="#3ebee7" points="406.67,-3238.54 406.67,-3253.46 330.88,-3264 223.69,-3264 147.9,-3253.46 147.9,-3238.54 223.69,-3228 330.88,-3228 406.67,-3238.54"/>
<polygon fill="none" stroke="#3ebee7" points="410.67,-3235.06 410.67,-3256.94 331.16,-3268 223.41,-3268 143.9,-3256.94 143.9,-3235.06 223.41,-3224 331.16,-3224 410.67,-3235.06"/>
<polygon fill="none" stroke="#3ebee7" points="414.67,-3231.58 414.67,-3260.42 331.43,-3272 223.14,-3272 139.9,-3260.42 139.9,-3231.58 223.14,-3220 331.43,-3220 414.67,-3231.58"/>
<text text-anchor="middle" x="277.28" y="-3242.3" font-family="Roboto" font-size="14.00" fill="#000000">gzdoom&#45;4.3.3 (163.52 MiB)</text>
</g>
<!-- N1 -->
<g id="node48" class="node">
<title>N1</title>
<polygon fill="#3faae5" stroke="#3faae5" points="422.13,-3308.54 422.13,-3323.46 337.28,-3334 217.29,-3334 132.44,-3323.46 132.44,-3308.54 217.29,-3298 337.28,-3298 422.13,-3308.54"/>
<polygon fill="none" stroke="#3faae5" points="426.13,-3305.01 426.13,-3326.99 337.53,-3338 217.04,-3338 128.44,-3326.99 128.44,-3305.01 217.04,-3294 337.53,-3294 426.13,-3305.01"/>
<polygon fill="none" stroke="#3faae5" points="430.12,-3301.48 430.12,-3330.52 337.77,-3342 216.79,-3342 124.45,-3330.52 124.45,-3301.48 216.79,-3290 337.77,-3290 430.12,-3301.48"/>
<text text-anchor="middle" x="277.28" y="-3312.3" font-family="Roboto" font-size="14.00" fill="#ffffff">prusa&#45;slicer&#45;2.2.0 (116.63 MiB)</text>
</g>
</g>
</svg>
