<?xml version="1.0" encoding="UTF-8" standalone="no"?>
<!DOCTYPE svg PUBLIC "-//W3C//DTD SVG 1.1//EN"
 "http://www.w3.org/Graphics/SVG/1.1/DTD/svg11.dtd">
<!-- Generated by graphviz version 2.43.0 (0)
 -->
<!-- Title: nixstore Pages: 1 -->
<svg width="735pt" height="2930pt"
 viewBox="0.00 0.00 735.46 2930.00" xmlns="http://www.w3.org/2000/svg" xmlns:xlink="http://www.w3.org/1999/xlink">
<g id="graph0" class="graph" transform="scale(1 1) rotate(0) translate(4 2926)">
<title>nixstore</title>
<polygon fill="white" stroke="transparent" points="-4,4 -4,-2926 731.46,-2926 731.46,4 -4,4"/>
<!-- N49 -->
<g id="node1" class="node">
<title>N49</title>
<polygon fill="#fe0000" stroke="#fe0000" points="363.08,-18.54 363.08,-33.46 297.89,-44 205.69,-44 140.49,-33.46 140.49,-18.54 205.69,-8 297.89,-8 363.08,-18.54"/>
<polygon fill="none" stroke="#fe0000" points="367.09,-15.14 367.09,-36.86 298.21,-48 205.37,-48 136.49,-36.86 136.49,-15.14 205.37,-4 298.21,-4 367.09,-15.14"/>
<polygon fill="none" stroke="#fe0000" points="371.09,-11.74 371.09,-40.26 298.53,-52 205.04,-52 132.48,-40.26 132.48,-11.74 205.04,0 298.53,0 371.09,-11.74"/>
<text text-anchor="middle" x="251.79" y="-22.3" font-family="Times-Roman" font-size="14.00" fill="#000000">{filtered out} (2.39 GiB)</text>
</g>
<!-- N38 -->
<g id="node2" class="node">
<title>N38</title>
<polygon fill="#3ecfe9" stroke="#3ecfe9" points="400.17,-928.54 400.17,-943.46 313.25,-954 190.33,-954 103.41,-943.46 103.41,-928.54 190.33,-918 313.25,-918 400.17,-928.54"/>
<polygon fill="none" stroke="#3ecfe9" points="404.16,-925 404.16,-947 313.49,-958 190.09,-958 99.41,-947 99.41,-925 190.09,-914 313.49,-914 404.16,-925"/>
<polygon fill="none" stroke="#3ecfe9" points="408.16,-921.46 408.16,-950.54 313.73,-962 189.85,-962 95.41,-950.54 95.41,-921.46 189.85,-910 313.73,-910 408.16,-921.46"/>
<text text-anchor="middle" x="251.79" y="-932.3" font-family="Times-Roman" font-size="14.00" fill="#000000">virt&#45;manager&#45;2.2.1 (224.77 MiB)</text>
</g>
<!-- N35 -->
<g id="node43" class="node">
<title>N35</title>
<polygon fill="#38f3b6" stroke="#38f3b6" points="725.96,-954 513.96,-954 513.96,-918 725.96,-918 725.96,-954"/>
<text text-anchor="middle" x="619.96" y="-932.3" font-family="Times-Roman" font-size="14.00" fill="#000000">libXfixes&#45;5.0.3&#45;dev (493.23 MiB)</text>
</g>
<!-- N38&#45;&gt;N35 -->
<g id="edge1" class="edge">
<title>N38&#45;&gt;N35</title>
<path fill="none" stroke="black" d="M408.35,-936C440.28,-936 473.37,-936 503.58,-936"/>
<polygon fill="black" stroke="black" points="503.72,-939.5 513.72,-936 503.72,-932.5 503.72,-939.5"/>
</g>
<!-- N30 -->
<g id="node3" class="node">
<title>N30</title>
<polygon fill="#36f691" stroke="#36f691" points="393.1,-858.54 393.1,-873.46 310.32,-884 193.26,-884 110.48,-873.46 110.48,-858.54 193.26,-848 310.32,-848 393.1,-858.54"/>
<polygon fill="none" stroke="#36f691" points="397.1,-855.02 397.1,-876.98 310.57,-888 193,-888 106.48,-876.98 106.48,-855.02 193,-844 310.57,-844 397.1,-855.02"/>
<polygon fill="none" stroke="#36f691" points="401.09,-851.5 401.09,-880.5 310.83,-892 192.75,-892 102.48,-880.5 102.48,-851.5 192.75,-840 310.83,-840 401.09,-851.5"/>
<text text-anchor="middle" x="251.79" y="-862.3" font-family="Times-Roman" font-size="14.00" fill="#000000">wesnoth&#45;1.14.11 (571.35 MiB)</text>
</g>
<!-- N30&#45;&gt;N35 -->
<g id="edge2" class="edge">
<title>N30&#45;&gt;N35</title>
<path fill="none" stroke="black" d="M377.35,-883.55C409.72,-888.65 444.48,-894.58 476.46,-901 497.49,-905.22 520.09,-910.45 540.96,-915.56"/>
<polygon fill="black" stroke="black" points="540.19,-918.98 550.74,-917.98 541.87,-912.18 540.19,-918.98"/>
</g>
<!-- N39 -->
<g id="node4" class="node">
<title>N39</title>
<polygon fill="#407fe2" stroke="#407fe2" points="371.9,-508.54 371.9,-523.46 301.54,-534 202.04,-534 131.68,-523.46 131.68,-508.54 202.04,-498 301.54,-498 371.9,-508.54"/>
<polygon fill="none" stroke="#407fe2" points="375.89,-505.1 375.89,-526.9 301.84,-538 201.74,-538 127.69,-526.9 127.69,-505.1 201.74,-494 301.84,-494 375.89,-505.1"/>
<polygon fill="none" stroke="#407fe2" points="379.88,-501.65 379.88,-530.35 302.13,-542 201.44,-542 123.69,-530.35 123.69,-501.65 201.44,-490 302.13,-490 379.88,-501.65"/>
<text text-anchor="middle" x="251.79" y="-512.3" font-family="Times-Roman" font-size="14.00" fill="#ffffff">polybar&#45;3.4.3 (35.38 MiB)</text>
</g>
<!-- N33 -->
<g id="node44" class="node">
<title>N33</title>
<polygon fill="#3faee6" stroke="#3faee6" points="697.46,-499 542.46,-499 542.46,-463 697.46,-463 697.46,-499"/>
<text text-anchor="middle" x="619.96" y="-477.3" font-family="Times-Roman" font-size="14.00" fill="#ffffff">gcc&#45;9.3.0 (136.80 MiB)</text>
</g>
<!-- N39&#45;&gt;N33 -->
<g id="edge3" class="edge">
<title>N39&#45;&gt;N33</title>
<path fill="none" stroke="black" d="M380.09,-503.83C430.38,-499.03 486.89,-493.62 532.31,-489.28"/>
<polygon fill="black" stroke="black" points="532.8,-492.75 542.42,-488.32 532.13,-485.78 532.8,-492.75"/>
</g>
<!-- N40 -->
<g id="node5" class="node">
<title>N40</title>
<polygon fill="#4085e2" stroke="#4085e2" points="426.22,-1418.54 426.22,-1433.46 324.04,-1444 179.54,-1444 77.35,-1433.46 77.35,-1418.54 179.54,-1408 324.04,-1408 426.22,-1418.54"/>
<polygon fill="none" stroke="#4085e2" points="430.22,-1414.94 430.22,-1437.06 324.25,-1448 179.33,-1448 73.36,-1437.06 73.36,-1414.94 179.33,-1404 324.25,-1404 430.22,-1414.94"/>
<polygon fill="none" stroke="#4085e2" points="434.22,-1411.33 434.22,-1440.67 324.45,-1452 179.12,-1452 69.36,-1440.67 69.36,-1411.33 179.12,-1400 324.45,-1400 434.22,-1411.33"/>
<text text-anchor="middle" x="251.79" y="-1422.3" font-family="Times-Roman" font-size="14.00" fill="#ffffff">openra&#45;release&#45;20190314 (47.51 MiB)</text>
</g>
<!-- N36 -->
<g id="node45" class="node">
<title>N36</title>
<polygon fill="#3beee4" stroke="#3beee4" points="717.46,-1409 522.46,-1409 522.46,-1373 717.46,-1373 717.46,-1409"/>
<text text-anchor="middle" x="619.96" y="-1387.3" font-family="Times-Roman" font-size="14.00" fill="#000000">mono&#45;5.20.1.27 (349.63 MiB)</text>
</g>
<!-- N40&#45;&gt;N36 -->
<g id="edge4" class="edge">
<title>N40&#45;&gt;N36</title>
<path fill="none" stroke="black" d="M420.87,-1409.93C451.99,-1406.96 483.68,-1403.93 512.33,-1401.19"/>
<polygon fill="black" stroke="black" points="512.71,-1404.67 522.33,-1400.24 512.05,-1397.7 512.71,-1404.67"/>
</g>
<!-- N29 -->
<g id="node6" class="node">
<title>N29</title>
<polygon fill="#3cebec" stroke="#3cebec" points="378.54,-1628.54 378.54,-1643.46 304.29,-1654 199.29,-1654 125.04,-1643.46 125.04,-1628.54 199.29,-1618 304.29,-1618 378.54,-1628.54"/>
<polygon fill="none" stroke="#3cebec" points="382.54,-1625.07 382.54,-1646.93 304.57,-1658 199,-1658 121.03,-1646.93 121.03,-1625.07 199,-1614 304.57,-1614 382.54,-1625.07"/>
<polygon fill="none" stroke="#3cebec" points="386.55,-1621.6 386.55,-1650.4 304.86,-1662 198.72,-1662 117.03,-1650.4 117.03,-1621.6 198.72,-1610 304.86,-1610 386.55,-1621.6"/>
<text text-anchor="middle" x="251.79" y="-1632.3" font-family="Times-Roman" font-size="14.00" fill="#000000">arduino&#45;1.8.9 (306.72 MiB)</text>
</g>
<!-- N32 -->
<g id="node46" class="node">
<title>N32</title>
<polygon fill="#3ec8e9" stroke="#3ec8e9" points="727.46,-1584 512.46,-1584 512.46,-1548 727.46,-1548 727.46,-1584"/>
<text text-anchor="middle" x="619.96" y="-1562.3" font-family="Times-Roman" font-size="14.00" fill="#000000">openjdk&#45;8u242&#45;b08 (204.96 MiB)</text>
</g>
<!-- N29&#45;&gt;N32 -->
<g id="edge5" class="edge">
<title>N29&#45;&gt;N32</title>
<path fill="none" stroke="black" d="M371.24,-1619.4C405.31,-1614.1 442.46,-1607.82 476.46,-1601 497.49,-1596.78 520.09,-1591.55 540.96,-1586.44"/>
<polygon fill="black" stroke="black" points="541.87,-1589.82 550.74,-1584.02 540.19,-1583.02 541.87,-1589.82"/>
</g>
<!-- N41 -->
<g id="node7" class="node">
<title>N41</title>
<polygon fill="#406ce1" stroke="#406ce1" points="369.26,-438.54 369.26,-453.46 300.45,-464 203.13,-464 134.32,-453.46 134.32,-438.54 203.13,-428 300.45,-428 369.26,-438.54"/>
<polygon fill="none" stroke="#406ce1" points="373.26,-435.11 373.26,-456.89 300.75,-468 202.83,-468 130.32,-456.89 130.32,-435.11 202.83,-424 300.75,-424 373.26,-435.11"/>
<polygon fill="none" stroke="#406ce1" points="377.25,-431.68 377.25,-460.32 301.05,-472 202.52,-472 126.32,-460.32 126.32,-431.68 202.52,-420 301.05,-420 377.25,-431.68"/>
<text text-anchor="middle" x="251.79" y="-442.3" font-family="Times-Roman" font-size="14.00" fill="#ffffff">nethack&#45;3.6.6 (4.58 MiB)</text>
</g>
<!-- N41&#45;&gt;N33 -->
<g id="edge6" class="edge">
<title>N41&#45;&gt;N33</title>
<path fill="none" stroke="black" d="M377.27,-457.9C428.26,-462.77 486.04,-468.29 532.31,-472.72"/>
<polygon fill="black" stroke="black" points="532.02,-476.21 542.31,-473.67 532.68,-469.24 532.02,-476.21"/>
</g>
<!-- N28 -->
<g id="node8" class="node">
<title>N28</title>
<polygon fill="#3de0eb" stroke="#3de0eb" points="461.98,-1698.54 461.98,-1713.46 338.85,-1724 164.72,-1724 41.59,-1713.46 41.59,-1698.54 164.72,-1688 338.85,-1688 461.98,-1698.54"/>
<polygon fill="none" stroke="#3de0eb" points="465.98,-1694.87 465.98,-1717.13 339.02,-1728 164.55,-1728 37.6,-1717.13 37.6,-1694.87 164.55,-1684 339.02,-1684 465.98,-1694.87"/>
<polygon fill="none" stroke="#3de0eb" points="469.98,-1691.2 469.98,-1720.8 339.2,-1732 164.38,-1732 33.6,-1720.8 33.6,-1691.2 164.38,-1680 339.2,-1680 469.98,-1691.2"/>
<text text-anchor="middle" x="251.79" y="-1702.3" font-family="Times-Roman" font-size="14.00" fill="#000000">spotify&#45;1.1.26.501.gbe11e53b&#45;15 (272.32 MiB)</text>
</g>
<!-- N27 -->
<g id="node9" class="node">
<title>N27</title>
<polygon fill="#3ecae9" stroke="#3ecae9" points="398.85,-1208.54 398.85,-1223.46 312.7,-1234 190.87,-1234 104.73,-1223.46 104.73,-1208.54 190.87,-1198 312.7,-1198 398.85,-1208.54"/>
<polygon fill="none" stroke="#3ecae9" points="402.85,-1205 402.85,-1227 312.95,-1238 190.63,-1238 100.73,-1227 100.73,-1205 190.63,-1194 312.95,-1194 402.85,-1205"/>
<polygon fill="none" stroke="#3ecae9" points="406.85,-1201.46 406.85,-1230.54 313.19,-1242 190.39,-1242 96.73,-1230.54 96.73,-1201.46 190.39,-1190 313.19,-1190 406.85,-1201.46"/>
<text text-anchor="middle" x="251.79" y="-1212.3" font-family="Times-Roman" font-size="14.00" fill="#000000">glibc&#45;locales&#45;2.30 (209.50 MiB)</text>
</g>
<!-- N26 -->
<g id="node10" class="node">
<title>N26</title>
<polygon fill="#fedd04" stroke="#fedd04" points="369.26,-1138.54 369.26,-1153.46 300.45,-1164 203.13,-1164 134.32,-1153.46 134.32,-1138.54 203.13,-1128 300.45,-1128 369.26,-1138.54"/>
<polygon fill="none" stroke="#fedd04" points="373.26,-1135.11 373.26,-1156.89 300.75,-1168 202.83,-1168 130.32,-1156.89 130.32,-1135.11 202.83,-1124 300.75,-1124 373.26,-1135.11"/>
<polygon fill="none" stroke="#fedd04" points="377.25,-1131.68 377.25,-1160.32 301.05,-1172 202.52,-1172 126.32,-1160.32 126.32,-1131.68 202.52,-1120 301.05,-1120 377.25,-1131.68"/>
<text text-anchor="middle" x="251.79" y="-1142.3" font-family="Times-Roman" font-size="14.00" fill="#000000">wine&#45;wow&#45;5.0 (1.55 GiB)</text>
</g>
<!-- N26&#45;&gt;N35 -->
<g id="edge8" class="edge">
<title>N26&#45;&gt;N35</title>
<path fill="none" stroke="black" d="M377.46,-1142.69C411.28,-1137.58 446.73,-1128.08 476.46,-1111 538.11,-1075.59 583.96,-1002.46 605.43,-962.87"/>
<polygon fill="black" stroke="black" points="608.53,-964.5 610.12,-954.03 602.35,-961.22 608.53,-964.5"/>
</g>
<!-- N34 -->
<g id="node47" class="node">
<title>N34</title>
<polygon fill="#3faee6" stroke="#3faee6" points="695.96,-1242 543.96,-1242 543.96,-1206 695.96,-1206 695.96,-1242"/>
<text text-anchor="middle" x="619.96" y="-1220.3" font-family="Times-Roman" font-size="14.00" fill="#ffffff">glu&#45;9.0.1 (135.38 MiB)</text>
</g>
<!-- N26&#45;&gt;N34 -->
<g id="edge7" class="edge">
<title>N26&#45;&gt;N34</title>
<path fill="none" stroke="black" d="M370.9,-1161.37C405.14,-1166.66 442.45,-1173.25 476.46,-1181 502.71,-1186.98 531.19,-1195.22 555.74,-1202.88"/>
<polygon fill="black" stroke="black" points="554.71,-1206.22 565.3,-1205.89 556.82,-1199.55 554.71,-1206.22"/>
</g>
<!-- N25 -->
<g id="node11" class="node">
<title>N25</title>
<polygon fill="#3ecbe9" stroke="#3ecbe9" points="389.56,-158.54 389.56,-173.46 308.86,-184 194.72,-184 114.01,-173.46 114.01,-158.54 194.72,-148 308.86,-148 389.56,-158.54"/>
<polygon fill="none" stroke="#3ecbe9" points="393.56,-155.03 393.56,-176.97 309.12,-188 194.46,-188 110.02,-176.97 110.02,-155.03 194.46,-144 309.12,-144 393.56,-155.03"/>
<polygon fill="none" stroke="#3ecbe9" points="397.56,-151.52 397.56,-180.48 309.38,-192 194.2,-192 106.02,-180.48 106.02,-151.52 194.2,-140 309.38,-140 397.56,-151.52"/>
<text text-anchor="middle" x="251.79" y="-162.3" font-family="Times-Roman" font-size="14.00" fill="#000000">inkscape&#45;0.92.5 (210.93 MiB)</text>
</g>
<!-- N37 -->
<g id="node48" class="node">
<title>N37</title>
<polygon fill="#3fb1e6" stroke="#3fb1e6" points="695.46,-184 544.46,-184 544.46,-148 695.46,-148 695.46,-184"/>
<text text-anchor="middle" x="619.96" y="-162.3" font-family="Times-Roman" font-size="14.00" fill="#ffffff">lapack&#45;3 (143.49 MiB)</text>
</g>
<!-- N25&#45;&gt;N37 -->
<g id="edge9" class="edge">
<title>N25&#45;&gt;N37</title>
<path fill="none" stroke="black" d="M397.77,-166C444,-166 493.62,-166 534.13,-166"/>
<polygon fill="black" stroke="black" points="534.22,-169.5 544.22,-166 534.22,-162.5 534.22,-169.5"/>
</g>
<!-- N24 -->
<g id="node12" class="node">
<title>N24</title>
<polygon fill="#3fa8e5" stroke="#3fa8e5" points="401.06,-1768.54 401.06,-1783.46 313.62,-1794 189.96,-1794 102.51,-1783.46 102.51,-1768.54 189.96,-1758 313.62,-1758 401.06,-1768.54"/>
<polygon fill="none" stroke="#3fa8e5" points="405.07,-1765 405.07,-1787 313.86,-1798 189.72,-1798 98.51,-1787 98.51,-1765 189.72,-1754 313.86,-1754 405.07,-1765"/>
<polygon fill="none" stroke="#3fa8e5" points="409.07,-1761.45 409.07,-1790.55 314.1,-1802 189.48,-1802 94.51,-1790.55 94.51,-1761.45 189.48,-1750 314.1,-1750 409.07,-1761.45"/>
<text text-anchor="middle" x="251.79" y="-1772.3" font-family="Times-Roman" font-size="14.00" fill="#ffffff">wireshark&#45;cli&#45;3.2.4 (120.45 MiB)</text>
</g>
<!-- N42 -->
<g id="node13" class="node">
<title>N42</title>
<polygon fill="#4089e3" stroke="#4089e3" points="412.98,-788.54 412.98,-803.46 318.56,-814 185.02,-814 90.59,-803.46 90.59,-788.54 185.02,-778 318.56,-778 412.98,-788.54"/>
<polygon fill="none" stroke="#4089e3" points="416.99,-784.97 416.99,-807.03 318.78,-818 184.8,-818 86.59,-807.03 86.59,-784.97 184.8,-774 318.78,-774 416.99,-784.97"/>
<polygon fill="none" stroke="#4089e3" points="420.99,-781.39 420.99,-810.61 319,-822 184.57,-822 82.59,-810.61 82.59,-781.39 184.57,-770 319,-770 420.99,-781.39"/>
<text text-anchor="middle" x="251.79" y="-792.3" font-family="Times-Roman" font-size="14.00" fill="#ffffff">dwarf&#45;fortress&#45;0.47.04 (55.65 MiB)</text>
</g>
<!-- N42&#45;&gt;N35 -->
<g id="edge11" class="edge">
<title>N42&#45;&gt;N35</title>
<path fill="none" stroke="black" d="M413.32,-811.52C435.01,-816.38 456.6,-822.72 476.46,-831 521.9,-849.95 566.27,-886.3 593.12,-910.85"/>
<polygon fill="black" stroke="black" points="590.83,-913.5 600.54,-917.75 595.6,-908.37 590.83,-913.5"/>
</g>
<!-- N42&#45;&gt;N33 -->
<g id="edge10" class="edge">
<title>N42&#45;&gt;N33</title>
<path fill="none" stroke="black" d="M421.01,-787.61C440.87,-781.57 459.92,-773 476.46,-761 563.33,-697.98 600.85,-566.43 613.56,-508.92"/>
<polygon fill="black" stroke="black" points="616.99,-509.59 615.65,-499.08 610.15,-508.13 616.99,-509.59"/>
</g>
<!-- N43 -->
<g id="node14" class="node">
<title>N43</title>
<polygon fill="#3f9ce4" stroke="#3f9ce4" points="398.85,-368.54 398.85,-383.46 312.7,-394 190.87,-394 104.73,-383.46 104.73,-368.54 190.87,-358 312.7,-358 398.85,-368.54"/>
<polygon fill="none" stroke="#3f9ce4" points="402.85,-365 402.85,-387 312.95,-398 190.63,-398 100.73,-387 100.73,-365 190.63,-354 312.95,-354 402.85,-365"/>
<polygon fill="none" stroke="#3f9ce4" points="406.85,-361.46 406.85,-390.54 313.19,-402 190.39,-402 96.73,-390.54 96.73,-361.46 190.39,-350 313.19,-350 406.85,-361.46"/>
<text text-anchor="middle" x="251.79" y="-372.3" font-family="Times-Roman" font-size="14.00" fill="#ffffff">stepmania&#45;5.1.0&#45;b2 (93.37 MiB)</text>
</g>
<!-- N43&#45;&gt;N33 -->
<g id="edge12" class="edge">
<title>N43&#45;&gt;N33</title>
<path fill="none" stroke="black" d="M396.27,-391.88C423.25,-396.71 450.98,-402.95 476.46,-411 513.07,-422.56 552.01,-442.26 579.92,-457.82"/>
<polygon fill="black" stroke="black" points="578.52,-461.04 588.95,-462.92 581.96,-454.95 578.52,-461.04"/>
</g>
<!-- N23 -->
<g id="node15" class="node">
<title>N23</title>
<polygon fill="#38f4ac" stroke="#38f4ac" points="364.4,-1978.54 364.4,-1993.46 298.43,-2004 205.14,-2004 139.17,-1993.46 139.17,-1978.54 205.14,-1968 298.43,-1968 364.4,-1978.54"/>
<polygon fill="none" stroke="#38f4ac" points="368.4,-1975.13 368.4,-1996.87 298.75,-2008 204.82,-2008 135.17,-1996.87 135.17,-1975.13 204.82,-1964 298.75,-1964 368.4,-1975.13"/>
<polygon fill="none" stroke="#38f4ac" points="372.41,-1971.72 372.41,-2000.28 299.07,-2012 204.51,-2012 131.17,-2000.28 131.17,-1971.72 204.51,-1960 299.07,-1960 372.41,-1971.72"/>
<text text-anchor="middle" x="251.79" y="-1982.3" font-family="Times-Roman" font-size="14.00" fill="#000000">cura&#45;4.4.0 (517.29 MiB)</text>
</g>
<!-- N31 -->
<g id="node49" class="node">
<title>N31</title>
<polygon fill="#3faee6" stroke="#3faee6" points="708.96,-1934 530.96,-1934 530.96,-1898 708.96,-1898 708.96,-1934"/>
<text text-anchor="middle" x="619.96" y="-1912.3" font-family="Times-Roman" font-size="14.00" fill="#ffffff">bash&#45;4.4&#45;p23 (136.81 MiB)</text>
</g>
<!-- N23&#45;&gt;N31 -->
<g id="edge13" class="edge">
<title>N23&#45;&gt;N31</title>
<path fill="none" stroke="black" d="M364.62,-1970.42C400.46,-1964.92 440.24,-1958.27 476.46,-1951 497.49,-1946.78 520.09,-1941.55 540.96,-1936.44"/>
<polygon fill="black" stroke="black" points="541.87,-1939.82 550.74,-1934.02 540.19,-1933.02 541.87,-1939.82"/>
</g>
<!-- N22 -->
<g id="node16" class="node">
<title>N22</title>
<polygon fill="#3ecde9" stroke="#3ecde9" points="468.63,-2048.54 468.63,-2063.46 341.61,-2074 161.97,-2074 34.94,-2063.46 34.94,-2048.54 161.97,-2038 341.61,-2038 468.63,-2048.54"/>
<polygon fill="none" stroke="#3ecde9" points="472.64,-2044.86 472.64,-2067.14 341.77,-2078 161.8,-2078 30.94,-2067.14 30.94,-2044.86 161.8,-2034 341.77,-2034 472.64,-2044.86"/>
<polygon fill="none" stroke="#3ecde9" points="476.64,-2041.18 476.64,-2070.82 341.94,-2082 161.64,-2082 26.94,-2070.82 26.94,-2041.18 161.64,-2030 341.94,-2030 476.64,-2041.18"/>
<text text-anchor="middle" x="251.79" y="-2052.3" font-family="Times-Roman" font-size="14.00" fill="#000000">firefox&#45;beta&#45;bin&#45;unwrapped&#45;77.0b7 (217.24 MiB)</text>
</g>
<!-- N21 -->
<g id="node17" class="node">
<title>N21</title>
<polygon fill="#3beee1" stroke="#3beee1" points="361.76,-298.54 361.76,-313.46 297.34,-324 206.24,-324 141.81,-313.46 141.81,-298.54 206.24,-288 297.34,-288 361.76,-298.54"/>
<polygon fill="none" stroke="#3beee1" points="365.77,-295.15 365.77,-316.85 297.67,-328 205.91,-328 137.81,-316.85 137.81,-295.15 205.91,-284 297.67,-284 365.77,-295.15"/>
<polygon fill="none" stroke="#3beee1" points="369.78,-291.75 369.78,-320.25 297.99,-332 205.58,-332 133.8,-320.25 133.8,-291.75 205.58,-280 297.99,-280 369.78,-291.75"/>
<text text-anchor="middle" x="251.79" y="-302.3" font-family="Times-Roman" font-size="14.00" fill="#000000">go&#45;1.14.2 (357.45 MiB)</text>
</g>
<!-- N21&#45;&gt;N33 -->
<g id="edge14" class="edge">
<title>N21&#45;&gt;N33</title>
<path fill="none" stroke="black" d="M369.63,-310.53C405.36,-315.47 443.81,-324.58 476.46,-341 529.94,-367.89 576.07,-422.15 600.47,-454.65"/>
<polygon fill="black" stroke="black" points="597.73,-456.84 606.47,-462.81 603.36,-452.69 597.73,-456.84"/>
</g>
<!-- N20 -->
<g id="node18" class="node">
<title>N20</title>
<polygon fill="#3dddeb" stroke="#3dddeb" points="380.75,-88.54 380.75,-103.46 305.21,-114 198.37,-114 122.82,-103.46 122.82,-88.54 198.37,-78 305.21,-78 380.75,-88.54"/>
<polygon fill="none" stroke="#3dddeb" points="384.76,-85.06 384.76,-106.94 305.49,-118 198.09,-118 118.82,-106.94 118.82,-85.06 198.09,-74 305.49,-74 384.76,-85.06"/>
<polygon fill="none" stroke="#3dddeb" points="388.77,-81.58 388.77,-110.42 305.76,-122 197.81,-122 114.81,-110.42 114.81,-81.58 197.81,-70 305.76,-70 388.77,-81.58"/>
<text text-anchor="middle" x="251.79" y="-92.3" font-family="Times-Roman" font-size="14.00" fill="#000000">blender&#45;2.82a (264.92 MiB)</text>
</g>
<!-- N20&#45;&gt;N37 -->
<g id="edge15" class="edge">
<title>N20&#45;&gt;N37</title>
<path fill="none" stroke="black" d="M372.4,-112.78C406.15,-118.04 442.84,-124.25 476.46,-131 497.49,-135.22 520.09,-140.45 540.96,-145.56"/>
<polygon fill="black" stroke="black" points="540.19,-148.98 550.74,-147.98 541.87,-142.18 540.19,-148.98"/>
</g>
<!-- N19 -->
<g id="node19" class="node">
<title>N19</title>
<polygon fill="#3ec0e8" stroke="#3ec0e8" points="416.52,-2188.54 416.52,-2203.46 320.02,-2214 183.56,-2214 87.06,-2203.46 87.06,-2188.54 183.56,-2178 320.02,-2178 416.52,-2188.54"/>
<polygon fill="none" stroke="#3ec0e8" points="420.52,-2184.96 420.52,-2207.04 320.24,-2218 183.34,-2218 83.06,-2207.04 83.06,-2184.96 183.34,-2174 320.24,-2174 420.52,-2184.96"/>
<polygon fill="none" stroke="#3ec0e8" points="424.52,-2181.37 424.52,-2210.63 320.46,-2222 183.12,-2222 79.05,-2210.63 79.05,-2181.37 183.12,-2170 320.46,-2170 424.52,-2181.37"/>
<text text-anchor="middle" x="251.79" y="-2192.3" font-family="Times-Roman" font-size="14.00" fill="#000000">thunderbird&#45;bin&#45;68.8.1 (181.53 MiB)</text>
</g>
<!-- N18 -->
<g id="node20" class="node">
<title>N18</title>
<polygon fill="#3ebbe7" stroke="#3ebbe7" points="395.31,-228.54 395.31,-243.46 311.24,-254 192.34,-254 108.26,-243.46 108.26,-228.54 192.34,-218 311.24,-218 395.31,-228.54"/>
<polygon fill="none" stroke="#3ebbe7" points="399.31,-225.01 399.31,-246.99 311.49,-258 192.09,-258 104.26,-246.99 104.26,-225.01 192.09,-214 311.49,-214 399.31,-225.01"/>
<polygon fill="none" stroke="#3ebbe7" points="403.31,-221.48 403.31,-250.52 311.74,-262 191.84,-262 100.26,-250.52 100.26,-221.48 191.84,-210 311.74,-210 403.31,-221.48"/>
<text text-anchor="middle" x="251.79" y="-232.3" font-family="Times-Roman" font-size="14.00" fill="#000000">upwork&#45;5.3.3.862 (168.58 MiB)</text>
</g>
<!-- N18&#45;&gt;N33 -->
<g id="edge16" class="edge">
<title>N18&#45;&gt;N33</title>
<path fill="none" stroke="black" d="M403.32,-242.27C429.07,-248.06 454.55,-257.11 476.46,-271 546.33,-315.28 590.35,-407.54 608.87,-453.61"/>
<polygon fill="black" stroke="black" points="605.63,-454.93 612.53,-462.96 612.15,-452.37 605.63,-454.93"/>
</g>
<!-- N17 -->
<g id="node21" class="node">
<title>N17</title>
<polygon fill="#3dddeb" stroke="#3dddeb" points="431.97,-2258.54 431.97,-2273.46 326.42,-2284 177.15,-2284 71.6,-2273.46 71.6,-2258.54 177.15,-2248 326.42,-2248 431.97,-2258.54"/>
<polygon fill="none" stroke="#3dddeb" points="435.97,-2254.92 435.97,-2277.08 326.62,-2288 176.95,-2288 67.6,-2277.08 67.6,-2254.92 176.95,-2244 326.62,-2244 435.97,-2254.92"/>
<polygon fill="none" stroke="#3dddeb" points="439.98,-2251.3 439.98,-2280.7 326.82,-2292 176.75,-2292 63.6,-2280.7 63.6,-2251.3 176.75,-2240 326.82,-2240 439.98,-2251.3"/>
<text text-anchor="middle" x="251.79" y="-2262.3" font-family="Times-Roman" font-size="14.00" fill="#000000">qemu&#45;host&#45;cpu&#45;only&#45;4.2.0 (263.29 MiB)</text>
</g>
<!-- N16 -->
<g id="node22" class="node">
<title>N16</title>
<polygon fill="#3ec8e8" stroke="#3ec8e8" points="373.68,-2328.54 373.68,-2343.46 302.28,-2354 201.3,-2354 129.89,-2343.46 129.89,-2328.54 201.3,-2318 302.28,-2318 373.68,-2328.54"/>
<polygon fill="none" stroke="#3ec8e8" points="377.69,-2325.09 377.69,-2346.91 302.57,-2358 201,-2358 125.89,-2346.91 125.89,-2325.09 201,-2314 302.57,-2314 377.69,-2325.09"/>
<polygon fill="none" stroke="#3ec8e8" points="381.7,-2321.64 381.7,-2350.36 302.87,-2362 200.71,-2362 121.88,-2350.36 121.88,-2321.64 200.71,-2310 302.87,-2310 381.7,-2321.64"/>
<text text-anchor="middle" x="251.79" y="-2332.3" font-family="Times-Roman" font-size="14.00" fill="#000000">astroid&#45;0.15 (202.72 MiB)</text>
</g>
<!-- N15 -->
<g id="node23" class="node">
<title>N15</title>
<polygon fill="#3ec6e8" stroke="#3ec6e8" points="442.99,-1278.54 442.99,-1293.46 330.99,-1304 172.59,-1304 60.58,-1293.46 60.58,-1278.54 172.59,-1268 330.99,-1268 442.99,-1278.54"/>
<polygon fill="none" stroke="#3ec6e8" points="446.99,-1274.9 446.99,-1297.1 331.18,-1308 172.4,-1308 56.59,-1297.1 56.59,-1274.9 172.4,-1264 331.18,-1264 446.99,-1274.9"/>
<polygon fill="none" stroke="#3ec6e8" points="450.99,-1271.26 450.99,-1300.74 331.36,-1312 172.21,-1312 52.59,-1300.74 52.59,-1271.26 172.21,-1260 331.36,-1260 450.99,-1271.26"/>
<text text-anchor="middle" x="251.79" y="-1282.3" font-family="Times-Roman" font-size="14.00" fill="#000000">tor&#45;browser&#45;bundle&#45;bin&#45;9.0.9 (199.27 MiB)</text>
</g>
<!-- N15&#45;&gt;N27 -->
<g id="edge17" class="edge">
<title>N15&#45;&gt;N27</title>
<path fill="none" stroke="black" d="M251.79,-1259.68C251.79,-1257.23 251.79,-1254.78 251.79,-1252.33"/>
<polygon fill="black" stroke="black" points="255.29,-1252.25 251.79,-1242.25 248.29,-1252.25 255.29,-1252.25"/>
</g>
<!-- N44 -->
<g id="node24" class="node">
<title>N44</title>
<polygon fill="#4169e1" stroke="#4169e1" points="383.82,-1558.54 383.82,-1573.46 306.48,-1584 197.1,-1584 119.76,-1573.46 119.76,-1558.54 197.1,-1548 306.48,-1548 383.82,-1558.54"/>
<polygon fill="none" stroke="#4169e1" points="387.81,-1555.05 387.81,-1576.95 306.75,-1588 196.83,-1588 115.77,-1576.95 115.77,-1555.05 196.83,-1544 306.75,-1544 387.81,-1555.05"/>
<polygon fill="none" stroke="#4169e1" points="391.8,-1551.56 391.8,-1580.44 307.02,-1592 196.56,-1592 111.77,-1580.44 111.77,-1551.56 196.56,-1540 307.02,-1540 391.8,-1551.56"/>
<text text-anchor="middle" x="251.79" y="-1562.3" font-family="Times-Roman" font-size="14.00" fill="#ffffff">libreoffice&#45;6.4.3.2 (3.55 KiB)</text>
</g>
<!-- N3 -->
<g id="node39" class="node">
<title>N3</title>
<polygon fill="#38f4aa" stroke="#38f4aa" points="396.63,-1488.54 396.63,-1503.46 311.78,-1514 191.79,-1514 106.95,-1503.46 106.95,-1488.54 191.79,-1478 311.78,-1478 396.63,-1488.54"/>
<polygon fill="none" stroke="#38f4aa" points="400.63,-1485.01 400.63,-1506.99 312.03,-1518 191.55,-1518 102.95,-1506.99 102.95,-1485.01 191.55,-1474 312.03,-1474 400.63,-1485.01"/>
<polygon fill="none" stroke="#38f4aa" points="404.63,-1481.48 404.63,-1510.52 312.28,-1522 191.3,-1522 98.95,-1510.52 98.95,-1481.48 191.3,-1470 312.28,-1470 404.63,-1481.48"/>
<text text-anchor="middle" x="251.79" y="-1492.3" font-family="Times-Roman" font-size="14.00" fill="#000000">libreoffice&#45;6.4.3.2 (521.56 MiB)</text>
</g>
<!-- N44&#45;&gt;N3 -->
<g id="edge18" class="edge">
<title>N44&#45;&gt;N3</title>
<path fill="none" stroke="black" d="M251.79,-1539.68C251.79,-1537.23 251.79,-1534.78 251.79,-1532.33"/>
<polygon fill="black" stroke="black" points="255.29,-1532.25 251.79,-1522.25 248.29,-1532.25 255.29,-1532.25"/>
</g>
<!-- N14 -->
<g id="node25" class="node">
<title>N14</title>
<polygon fill="#3ceaec" stroke="#3ceaec" points="445.21,-2398.54 445.21,-2413.46 331.91,-2424 171.67,-2424 58.37,-2413.46 58.37,-2398.54 171.67,-2388 331.91,-2388 445.21,-2398.54"/>
<polygon fill="none" stroke="#3ceaec" points="449.21,-2394.9 449.21,-2417.1 332.09,-2428 171.48,-2428 54.37,-2417.1 54.37,-2394.9 171.48,-2384 332.09,-2384 449.21,-2394.9"/>
<polygon fill="none" stroke="#3ceaec" points="453.21,-2391.25 453.21,-2420.75 332.28,-2432 171.3,-2432 50.37,-2420.75 50.37,-2391.25 171.3,-2380 332.28,-2380 453.21,-2391.25"/>
<text text-anchor="middle" x="251.79" y="-2402.3" font-family="Times-Roman" font-size="14.00" fill="#000000">google&#45;chrome&#45;83.0.4103.61 (305.72 MiB)</text>
</g>
<!-- N45 -->
<g id="node26" class="node">
<title>N45</title>
<polygon fill="#4087e3" stroke="#4087e3" points="371.9,-718.54 371.9,-733.46 301.54,-744 202.04,-744 131.68,-733.46 131.68,-718.54 202.04,-708 301.54,-708 371.9,-718.54"/>
<polygon fill="none" stroke="#4087e3" points="375.89,-715.1 375.89,-736.9 301.84,-748 201.74,-748 127.69,-736.9 127.69,-715.1 201.74,-704 301.84,-704 375.89,-715.1"/>
<polygon fill="none" stroke="#4087e3" points="379.88,-711.65 379.88,-740.35 302.13,-752 201.44,-752 123.69,-740.35 123.69,-711.65 201.44,-700 302.13,-700 379.88,-711.65"/>
<text text-anchor="middle" x="251.79" y="-722.3" font-family="Times-Roman" font-size="14.00" fill="#ffffff">neovim&#45;0.4.3 (51.48 MiB)</text>
</g>
<!-- N45&#45;&gt;N33 -->
<g id="edge19" class="edge">
<title>N45&#45;&gt;N33</title>
<path fill="none" stroke="black" d="M379.92,-724.14C413.3,-718.98 447.91,-709.1 476.46,-691 546.33,-646.72 590.35,-554.46 608.87,-508.39"/>
<polygon fill="black" stroke="black" points="612.15,-509.63 612.53,-499.04 605.63,-507.07 612.15,-509.63"/>
</g>
<!-- N13 -->
<g id="node27" class="node">
<title>N13</title>
<polygon fill="#3fb4e6" stroke="#3fb4e6" points="380.75,-1908.54 380.75,-1923.46 305.21,-1934 198.37,-1934 122.82,-1923.46 122.82,-1908.54 198.37,-1898 305.21,-1898 380.75,-1908.54"/>
<polygon fill="none" stroke="#3fb4e6" points="384.76,-1905.06 384.76,-1926.94 305.49,-1938 198.09,-1938 118.82,-1926.94 118.82,-1905.06 198.09,-1894 305.49,-1894 384.76,-1905.06"/>
<polygon fill="none" stroke="#3fb4e6" points="388.77,-1901.58 388.77,-1930.42 305.76,-1942 197.81,-1942 114.81,-1930.42 114.81,-1901.58 197.81,-1890 305.76,-1890 388.77,-1901.58"/>
<text text-anchor="middle" x="251.79" y="-1912.3" font-family="Times-Roman" font-size="14.00" fill="#ffffff">fritzing&#45;0.9.3b (151.31 MiB)</text>
</g>
<!-- N13&#45;&gt;N31 -->
<g id="edge20" class="edge">
<title>N13&#45;&gt;N31</title>
<path fill="none" stroke="black" d="M388.62,-1916C432.43,-1916 480.12,-1916 520.68,-1916"/>
<polygon fill="black" stroke="black" points="520.83,-1919.5 530.83,-1916 520.83,-1912.5 520.83,-1919.5"/>
</g>
<!-- N12 -->
<g id="node28" class="node">
<title>N12</title>
<polygon fill="#f2fe1e" stroke="#f2fe1e" points="337.02,-1348.54 337.02,-1363.46 287.09,-1374 216.48,-1374 166.55,-1363.46 166.55,-1348.54 216.48,-1338 287.09,-1338 337.02,-1348.54"/>
<polygon fill="none" stroke="#f2fe1e" points="341.03,-1345.3 341.03,-1366.7 287.51,-1378 216.06,-1378 162.55,-1366.7 162.55,-1345.3 216.06,-1334 287.51,-1334 341.03,-1345.3"/>
<polygon fill="none" stroke="#f2fe1e" points="345.03,-1342.06 345.03,-1369.94 287.93,-1382 215.65,-1382 158.54,-1369.94 158.54,-1342.06 215.65,-1330 287.93,-1330 345.03,-1342.06"/>
<text text-anchor="middle" x="251.79" y="-1352.3" font-family="Times-Roman" font-size="14.00" fill="#000000">steam (1.22 GiB)</text>
</g>
<!-- N12&#45;&gt;N27 -->
<g id="edge21" class="edge">
<title>N12&#45;&gt;N27</title>
<path fill="none" stroke="black" d="M158.48,-1348C117.5,-1342.83 69.23,-1334.45 27.11,-1321 18.59,-1318.28 13.81,-1319.61 9.11,-1312 -3.04,-1292.34 -3.04,-1279.66 9.11,-1260 26.35,-1232.11 54.99,-1216.97 86.67,-1209.44"/>
<polygon fill="black" stroke="black" points="87.53,-1212.84 96.59,-1207.34 86.08,-1205.99 87.53,-1212.84"/>
</g>
<!-- N12&#45;&gt;N36 -->
<g id="edge23" class="edge">
<title>N12&#45;&gt;N36</title>
<path fill="none" stroke="black" d="M345.19,-1364.83C396.04,-1369.69 459.39,-1375.75 512.33,-1380.81"/>
<polygon fill="black" stroke="black" points="512.15,-1384.31 522.43,-1381.77 512.81,-1377.34 512.15,-1384.31"/>
</g>
<!-- N12&#45;&gt;N34 -->
<g id="edge22" class="edge">
<title>N12&#45;&gt;N34</title>
<path fill="none" stroke="black" d="M344.98,-1350.78C386.31,-1346.14 434.98,-1337.4 476.46,-1321 519.85,-1303.85 563.23,-1271.62 590.53,-1249.04"/>
<polygon fill="black" stroke="black" points="593.06,-1251.48 598.47,-1242.37 588.56,-1246.12 593.06,-1251.48"/>
</g>
<!-- N46 -->
<g id="node29" class="node">
<title>N46</title>
<polygon fill="#4069e1" stroke="#4069e1" points="376.32,-1068.54 376.32,-1083.46 303.37,-1094 200.2,-1094 127.25,-1083.46 127.25,-1068.54 200.2,-1058 303.37,-1058 376.32,-1068.54"/>
<polygon fill="none" stroke="#4069e1" points="380.32,-1065.08 380.32,-1086.92 303.66,-1098 199.92,-1098 123.25,-1086.92 123.25,-1065.08 199.92,-1054 303.66,-1054 380.32,-1065.08"/>
<polygon fill="none" stroke="#4069e1" points="384.32,-1061.62 384.32,-1090.38 303.95,-1102 199.63,-1102 119.25,-1090.38 119.25,-1061.62 199.63,-1050 303.95,-1050 384.32,-1061.62"/>
<text text-anchor="middle" x="251.79" y="-1072.3" font-family="Times-Roman" font-size="14.00" fill="#ffffff">arandr&#45;0.1.10 (203.91 KiB)</text>
</g>
<!-- N46&#45;&gt;N35 -->
<g id="edge24" class="edge">
<title>N46&#45;&gt;N35</title>
<path fill="none" stroke="black" d="M384.32,-1066.13C415.33,-1060.91 447.71,-1052.99 476.46,-1041 521.9,-1022.05 566.27,-985.7 593.12,-961.15"/>
<polygon fill="black" stroke="black" points="595.6,-963.63 600.54,-954.25 590.83,-958.5 595.6,-963.63"/>
</g>
<!-- N11 -->
<g id="node30" class="node">
<title>N11</title>
<polygon fill="#3fb0e6" stroke="#3fb0e6" points="377.64,-578.54 377.64,-593.46 303.92,-604 199.66,-604 125.93,-593.46 125.93,-578.54 199.66,-568 303.92,-568 377.64,-578.54"/>
<polygon fill="none" stroke="#3fb0e6" points="381.64,-575.08 381.64,-596.92 304.2,-608 199.37,-608 121.94,-596.92 121.94,-575.08 199.37,-564 304.2,-564 381.64,-575.08"/>
<polygon fill="none" stroke="#3fb0e6" points="385.64,-571.61 385.64,-600.39 304.49,-612 199.09,-612 117.94,-600.39 117.94,-571.61 199.09,-560 304.49,-560 385.64,-571.61"/>
<text text-anchor="middle" x="251.79" y="-582.3" font-family="Times-Roman" font-size="14.00" fill="#ffffff">gimp&#45;2.10.18 (140.30 MiB)</text>
</g>
<!-- N11&#45;&gt;N35 -->
<g id="edge25" class="edge">
<title>N11&#45;&gt;N35</title>
<path fill="none" stroke="black" d="M385.9,-585.33C418.06,-590.68 450.58,-601.3 476.46,-621 571.96,-693.68 605.21,-844.97 615.19,-907.75"/>
<polygon fill="black" stroke="black" points="611.75,-908.36 616.7,-917.72 618.67,-907.31 611.75,-908.36"/>
</g>
<!-- N11&#45;&gt;N37 -->
<g id="edge26" class="edge">
<title>N11&#45;&gt;N37</title>
<path fill="none" stroke="black" d="M385.71,-588.1C418.24,-582.8 450.99,-571.85 476.46,-551 476.69,-550.81 576.14,-281.84 608.75,-193.64"/>
<polygon fill="black" stroke="black" points="612.11,-194.64 612.29,-184.04 605.54,-192.21 612.11,-194.64"/>
</g>
<!-- N10 -->
<g id="node31" class="node">
<title>N10</title>
<polygon fill="#3ceced" stroke="#3ceced" points="358.65,-2468.54 358.65,-2483.46 296.05,-2494 207.52,-2494 144.92,-2483.46 144.92,-2468.54 207.52,-2458 296.05,-2458 358.65,-2468.54"/>
<polygon fill="none" stroke="#3ceced" points="362.65,-2465.16 362.65,-2486.84 296.39,-2498 207.19,-2498 140.92,-2486.84 140.92,-2465.16 207.19,-2454 296.39,-2454 362.65,-2465.16"/>
<polygon fill="none" stroke="#3ceced" points="366.65,-2461.78 366.65,-2490.22 296.72,-2502 206.85,-2502 136.93,-2490.22 136.93,-2461.78 206.85,-2450 296.72,-2450 366.65,-2461.78"/>
<text text-anchor="middle" x="251.79" y="-2472.3" font-family="Times-Roman" font-size="14.00" fill="#000000">ino&#45;0.3.6 (310.71 MiB)</text>
</g>
<!-- N9 -->
<g id="node32" class="node">
<title>N9</title>
<polygon fill="#3ecee9" stroke="#3ecee9" points="450.06,-2538.54 450.06,-2553.46 333.92,-2564 169.66,-2564 53.51,-2553.46 53.51,-2538.54 169.66,-2528 333.92,-2528 450.06,-2538.54"/>
<polygon fill="none" stroke="#3ecee9" points="454.06,-2534.89 454.06,-2557.11 334.1,-2568 169.48,-2568 49.52,-2557.11 49.52,-2534.89 169.48,-2524 334.1,-2524 454.06,-2534.89"/>
<polygon fill="none" stroke="#3ecee9" points="458.06,-2531.24 458.06,-2560.76 334.28,-2572 169.3,-2572 45.52,-2560.76 45.52,-2531.24 169.3,-2520 334.28,-2520 458.06,-2531.24"/>
<text text-anchor="middle" x="251.79" y="-2542.3" font-family="Times-Roman" font-size="14.00" fill="#000000">papirus&#45;icon&#45;theme&#45;20200430 (221.53 MiB)</text>
</g>
<!-- N8 -->
<g id="node33" class="node">
<title>N8</title>
<polygon fill="#fe7700" stroke="#fe7700" points="434.19,-648.54 434.19,-663.46 327.34,-674 176.24,-674 69.39,-663.46 69.39,-648.54 176.24,-638 327.34,-638 434.19,-648.54"/>
<polygon fill="none" stroke="#fe7700" points="438.19,-644.92 438.19,-667.08 327.54,-678 176.04,-678 65.38,-667.08 65.38,-644.92 176.04,-634 327.54,-634 438.19,-644.92"/>
<polygon fill="none" stroke="#fe7700" points="442.2,-641.3 442.2,-670.7 327.74,-682 175.84,-682 61.38,-670.7 61.38,-641.3 175.84,-630 327.74,-630 442.2,-641.3"/>
<text text-anchor="middle" x="251.79" y="-652.3" font-family="Times-Roman" font-size="14.00" fill="#000000">xmonad&#45;with&#45;packages&#45;8.8.3 (2.17 GiB)</text>
</g>
<!-- N8&#45;&gt;N33 -->
<g id="edge27" class="edge">
<title>N8&#45;&gt;N33</title>
<path fill="none" stroke="black" d="M427.12,-639.73C444.27,-634.9 461.01,-628.77 476.46,-621 529.94,-594.11 576.07,-539.85 600.47,-507.35"/>
<polygon fill="black" stroke="black" points="603.36,-509.31 606.47,-499.19 597.73,-505.16 603.36,-509.31"/>
</g>
<!-- N7 -->
<g id="node34" class="node">
<title>N7</title>
<polygon fill="#bcfe2c" stroke="#bcfe2c" points="394.42,-2608.54 394.42,-2623.46 310.87,-2634 192.71,-2634 109.16,-2623.46 109.16,-2608.54 192.71,-2598 310.87,-2598 394.42,-2608.54"/>
<polygon fill="none" stroke="#bcfe2c" points="398.41,-2605.02 398.41,-2626.98 311.12,-2638 192.46,-2638 105.17,-2626.98 105.17,-2605.02 192.46,-2594 311.12,-2594 398.41,-2605.02"/>
<polygon fill="none" stroke="#bcfe2c" points="402.41,-2601.49 402.41,-2630.51 311.37,-2642 192.21,-2642 101.17,-2630.51 101.17,-2601.49 192.21,-2590 311.37,-2590 402.41,-2601.49"/>
<text text-anchor="middle" x="251.79" y="-2612.3" font-family="Times-Roman" font-size="14.00" fill="#000000">xonotic&#45;sdl&#45;0.8.2 (895.35 MiB)</text>
</g>
<!-- N6 -->
<g id="node35" class="node">
<title>N6</title>
<polygon fill="#3fa3e5" stroke="#3fa3e5" points="386.03,-2678.54 386.03,-2693.46 307.39,-2704 196.18,-2704 117.55,-2693.46 117.55,-2678.54 196.18,-2668 307.39,-2668 386.03,-2678.54"/>
<polygon fill="none" stroke="#3fa3e5" points="390.03,-2675.04 390.03,-2696.96 307.66,-2708 195.92,-2708 113.55,-2696.96 113.55,-2675.04 195.92,-2664 307.66,-2664 390.03,-2675.04"/>
<polygon fill="none" stroke="#3fa3e5" points="394.02,-2671.54 394.02,-2700.46 307.93,-2712 195.65,-2712 109.55,-2700.46 109.55,-2671.54 195.65,-2660 307.93,-2660 394.02,-2671.54"/>
<text text-anchor="middle" x="251.79" y="-2682.3" font-family="Times-Roman" font-size="14.00" fill="#ffffff">nomacs&#45;3.14.2 (108.73 MiB)</text>
</g>
<!-- N5 -->
<g id="node36" class="node">
<title>N5</title>
<polygon fill="#3fb5e7" stroke="#3fb5e7" points="371.9,-2748.54 371.9,-2763.46 301.54,-2774 202.04,-2774 131.68,-2763.46 131.68,-2748.54 202.04,-2738 301.54,-2738 371.9,-2748.54"/>
<polygon fill="none" stroke="#3fb5e7" points="375.89,-2745.1 375.89,-2766.9 301.84,-2778 201.74,-2778 127.69,-2766.9 127.69,-2745.1 201.74,-2734 301.84,-2734 375.89,-2745.1"/>
<polygon fill="none" stroke="#3fb5e7" points="379.88,-2741.65 379.88,-2770.35 302.13,-2782 201.44,-2782 123.69,-2770.35 123.69,-2741.65 201.44,-2730 302.13,-2730 379.88,-2741.65"/>
<text text-anchor="middle" x="251.79" y="-2752.3" font-family="Times-Roman" font-size="14.00" fill="#ffffff">emacs&#45;26.3 (152.38 MiB)</text>
</g>
<!-- N4 -->
<g id="node37" class="node">
<title>N4</title>
<polygon fill="#3eb9e7" stroke="#3eb9e7" points="381.18,-2818.54 381.18,-2833.46 305.38,-2844 198.19,-2844 122.4,-2833.46 122.4,-2818.54 198.19,-2808 305.38,-2808 381.18,-2818.54"/>
<polygon fill="none" stroke="#3eb9e7" points="385.18,-2815.06 385.18,-2836.94 305.66,-2848 197.92,-2848 118.4,-2836.94 118.4,-2815.06 197.92,-2804 305.66,-2804 385.18,-2815.06"/>
<polygon fill="none" stroke="#3eb9e7" points="389.17,-2811.58 389.17,-2840.42 305.94,-2852 197.64,-2852 114.4,-2840.42 114.4,-2811.58 197.64,-2800 305.94,-2800 389.17,-2811.58"/>
<text text-anchor="middle" x="251.79" y="-2822.3" font-family="Times-Roman" font-size="14.00" fill="#000000">gzdoom&#45;4.3.3 (163.52 MiB)</text>
</g>
<!-- N47 -->
<g id="node38" class="node">
<title>N47</title>
<polygon fill="#406be1" stroke="#406be1" points="407.23,-2118.54 407.23,-2133.46 316.18,-2144 187.4,-2144 96.34,-2133.46 96.34,-2118.54 187.4,-2108 316.18,-2108 407.23,-2118.54"/>
<polygon fill="none" stroke="#406be1" points="411.23,-2114.98 411.23,-2137.02 316.41,-2148 187.17,-2148 92.34,-2137.02 92.34,-2114.98 187.17,-2104 316.41,-2104 411.23,-2114.98"/>
<polygon fill="none" stroke="#406be1" points="415.23,-2111.42 415.23,-2140.58 316.64,-2152 186.94,-2152 88.34,-2140.58 88.34,-2111.42 186.94,-2100 316.64,-2100 415.23,-2111.42"/>
<text text-anchor="middle" x="251.79" y="-2122.3" font-family="Times-Roman" font-size="14.00" fill="#ffffff">firefox&#45;beta&#45;bin&#45;77.0b7 (3.25 MiB)</text>
</g>
<!-- N47&#45;&gt;N22 -->
<g id="edge28" class="edge">
<title>N47&#45;&gt;N22</title>
<path fill="none" stroke="black" d="M251.79,-2099.68C251.79,-2097.23 251.79,-2094.78 251.79,-2092.33"/>
<polygon fill="black" stroke="black" points="255.29,-2092.25 251.79,-2082.25 248.29,-2092.25 255.29,-2092.25"/>
</g>
<!-- N3&#45;&gt;N32 -->
<g id="edge29" class="edge">
<title>N3&#45;&gt;N32</title>
<path fill="none" stroke="black" d="M378.82,-1513.79C410.77,-1518.83 444.96,-1524.68 476.46,-1531 497.49,-1535.22 520.09,-1540.45 540.96,-1545.56"/>
<polygon fill="black" stroke="black" points="540.19,-1548.98 550.74,-1547.98 541.87,-1542.18 540.19,-1548.98"/>
</g>
<!-- N2 -->
<g id="node40" class="node">
<title>N2</title>
<polygon fill="#3ddfeb" stroke="#3ddfeb" points="371.47,-2888.54 371.47,-2903.46 301.36,-2914 202.21,-2914 132.11,-2903.46 132.11,-2888.54 202.21,-2878 301.36,-2878 371.47,-2888.54"/>
<polygon fill="none" stroke="#3ddfeb" points="375.47,-2885.1 375.47,-2906.9 301.66,-2918 201.92,-2918 128.1,-2906.9 128.1,-2885.1 201.92,-2874 301.66,-2874 375.47,-2885.1"/>
<polygon fill="none" stroke="#3ddfeb" points="379.48,-2881.66 379.48,-2910.34 301.96,-2922 201.62,-2922 124.1,-2910.34 124.1,-2881.66 201.62,-2870 301.96,-2870 379.48,-2881.66"/>
<text text-anchor="middle" x="251.79" y="-2892.3" font-family="Times-Roman" font-size="14.00" fill="#000000">elixir&#45;1.10.3 (271.33 MiB)</text>
</g>
<!-- N1 -->
<g id="node41" class="node">
<title>N1</title>
<polygon fill="#36f783" stroke="#36f783" points="416.94,-1838.54 416.94,-1853.46 320.2,-1864 183.38,-1864 86.64,-1853.46 86.64,-1838.54 183.38,-1828 320.2,-1828 416.94,-1838.54"/>
<polygon fill="none" stroke="#36f783" points="420.93,-1834.96 420.93,-1857.04 320.41,-1868 183.16,-1868 82.64,-1857.04 82.64,-1834.96 183.16,-1824 320.41,-1824 420.93,-1834.96"/>
<polygon fill="none" stroke="#36f783" points="424.93,-1831.37 424.93,-1860.63 320.63,-1872 182.95,-1872 78.65,-1860.63 78.65,-1831.37 182.95,-1820 320.63,-1820 424.93,-1831.37"/>
<text text-anchor="middle" x="251.79" y="-1842.3" font-family="Times-Roman" font-size="14.00" fill="#000000">kodi&#45;with&#45;plugins&#45;18.5 (594.74 MiB)</text>
</g>
<!-- N1&#45;&gt;N31 -->
<g id="edge30" class="edge">
<title>N1&#45;&gt;N31</title>
<path fill="none" stroke="black" d="M385.89,-1864.91C415.77,-1869.69 447.27,-1875.14 476.46,-1881 497.49,-1885.22 520.09,-1890.45 540.96,-1895.56"/>
<polygon fill="black" stroke="black" points="540.19,-1898.98 550.74,-1897.98 541.87,-1892.18 540.19,-1898.98"/>
</g>
<!-- N48 -->
<g id="node42" class="node">
<title>N48</title>
<polygon fill="#4071e1" stroke="#4071e1" points="353.8,-998.54 353.8,-1013.46 294.04,-1024 209.53,-1024 149.78,-1013.46 149.78,-998.54 209.53,-988 294.04,-988 353.8,-998.54"/>
<polygon fill="none" stroke="#4071e1" points="357.8,-995.19 357.8,-1016.81 294.39,-1028 209.18,-1028 145.78,-1016.81 145.78,-995.19 209.18,-984 294.39,-984 357.8,-995.19"/>
<polygon fill="none" stroke="#4071e1" points="361.8,-991.83 361.8,-1020.17 294.74,-1032 208.83,-1032 141.78,-1020.17 141.78,-991.83 208.83,-980 294.74,-980 361.8,-991.83"/>
<text text-anchor="middle" x="251.79" y="-1002.3" font-family="Times-Roman" font-size="14.00" fill="#ffffff">piper&#45;0.4 (12.98 MiB)</text>
</g>
<!-- N48&#45;&gt;N35 -->
<g id="edge31" class="edge">
<title>N48&#45;&gt;N35</title>
<path fill="none" stroke="black" d="M358.94,-991.29C396.22,-985.62 438.31,-978.66 476.46,-971 497.49,-966.78 520.09,-961.55 540.96,-956.44"/>
<polygon fill="black" stroke="black" points="541.87,-959.82 550.74,-954.02 540.19,-953.02 541.87,-959.82"/>
</g>
</g>
</svg>
