<?xml version="1.0" encoding="UTF-8" standalone="no"?>
<!DOCTYPE svg PUBLIC "-//W3C//DTD SVG 1.1//EN"
 "http://www.w3.org/Graphics/SVG/1.1/DTD/svg11.dtd">
<!-- Generated by graphviz version 2.43.0 (0)
 -->
<!-- Title: nixstore Pages: 1 -->
<svg width="768pt" height="2790pt"
 viewBox="0.00 0.00 768.46 2790.00" xmlns="http://www.w3.org/2000/svg" xmlns:xlink="http://www.w3.org/1999/xlink">
<g id="graph0" class="graph" transform="scale(1 1) rotate(0) translate(4 2786)">
<title>nixstore</title>
<polygon fill="white" stroke="transparent" points="-4,4 -4,-2786 764.46,-2786 764.46,4 -4,4"/>
<!-- N45 -->
<g id="node1" class="node">
<title>N45</title>
<polygon fill="#fe7900" stroke="#fe7900" points="363.08,-18.54 363.08,-33.46 297.89,-44 205.69,-44 140.49,-33.46 140.49,-18.54 205.69,-8 297.89,-8 363.08,-18.54"/>
<polygon fill="none" stroke="#fe7900" points="367.09,-15.14 367.09,-36.86 298.21,-48 205.37,-48 136.49,-36.86 136.49,-15.14 205.37,-4 298.21,-4 367.09,-15.14"/>
<polygon fill="none" stroke="#fe7900" points="371.09,-11.74 371.09,-40.26 298.53,-52 205.04,-52 132.48,-40.26 132.48,-11.74 205.04,0 298.53,0 371.09,-11.74"/>
<text text-anchor="middle" x="251.79" y="-22.3" font-family="Roboto" font-size="14.00" fill="#000000">{filtered out} (2.20 GiB)</text>
</g>
<!-- N31 -->
<g id="node2" class="node">
<title>N31</title>
<polygon fill="#3ecfe9" stroke="#3ecfe9" points="400.17,-998.54 400.17,-1013.46 313.25,-1024 190.33,-1024 103.41,-1013.46 103.41,-998.54 190.33,-988 313.25,-988 400.17,-998.54"/>
<polygon fill="none" stroke="#3ecfe9" points="404.16,-995 404.16,-1017 313.49,-1028 190.09,-1028 99.41,-1017 99.41,-995 190.09,-984 313.49,-984 404.16,-995"/>
<polygon fill="none" stroke="#3ecfe9" points="408.16,-991.46 408.16,-1020.54 313.73,-1032 189.85,-1032 95.41,-1020.54 95.41,-991.46 189.85,-980 313.73,-980 408.16,-991.46"/>
<text text-anchor="middle" x="251.79" y="-1002.3" font-family="Roboto" font-size="14.00" fill="#000000">virt&#45;manager&#45;2.2.1 (226.42 MiB)</text>
</g>
<!-- N29 -->
<g id="node41" class="node">
<title>N29</title>
<polygon fill="#38f3b9" stroke="#38f3b9" points="731.96,-919 540.96,-919 540.96,-883 731.96,-883 731.96,-919"/>
<text text-anchor="middle" x="636.46" y="-897.3" font-family="Roboto" font-size="14.00" fill="#000000">libGL&#45;1.3.1&#45;dev (493.23 MiB)</text>
</g>
<!-- N31&#45;&gt;N29 -->
<g id="edge1" class="edge">
<title>N31&#45;&gt;N29</title>
<path fill="none" stroke="black" d="M393.62,-989.67C421.37,-984.86 450.06,-978.73 476.46,-971 516.99,-959.13 560.75,-939.3 592.08,-923.78"/>
<polygon fill="black" stroke="black" points="594.02,-926.72 601.39,-919.11 590.88,-920.46 594.02,-926.72"/>
</g>
<!-- N25 -->
<g id="node3" class="node">
<title>N25</title>
<polygon fill="#37f697" stroke="#37f697" points="393.1,-928.54 393.1,-943.46 310.32,-954 193.26,-954 110.48,-943.46 110.48,-928.54 193.26,-918 310.32,-918 393.1,-928.54"/>
<polygon fill="none" stroke="#37f697" points="397.1,-925.02 397.1,-946.98 310.57,-958 193,-958 106.48,-946.98 106.48,-925.02 193,-914 310.57,-914 397.1,-925.02"/>
<polygon fill="none" stroke="#37f697" points="401.09,-921.5 401.09,-950.5 310.83,-962 192.75,-962 102.48,-950.5 102.48,-921.5 192.75,-910 310.83,-910 401.09,-921.5"/>
<text text-anchor="middle" x="251.79" y="-932.3" font-family="Roboto" font-size="14.00" fill="#000000">wesnoth&#45;1.14.11 (571.35 MiB)</text>
</g>
<!-- N25&#45;&gt;N29 -->
<g id="edge2" class="edge">
<title>N25&#45;&gt;N29</title>
<path fill="none" stroke="black" d="M401.29,-922.42C444.58,-918.46 490.95,-914.22 530.91,-910.56"/>
<polygon fill="black" stroke="black" points="531.29,-914.04 540.93,-909.65 530.65,-907.07 531.29,-914.04"/>
</g>
<!-- N32 -->
<g id="node4" class="node">
<title>N32</title>
<polygon fill="#407ee2" stroke="#407ee2" points="371.9,-508.54 371.9,-523.46 301.54,-534 202.04,-534 131.68,-523.46 131.68,-508.54 202.04,-498 301.54,-498 371.9,-508.54"/>
<polygon fill="none" stroke="#407ee2" points="375.89,-505.1 375.89,-526.9 301.84,-538 201.74,-538 127.69,-526.9 127.69,-505.1 201.74,-494 301.84,-494 375.89,-505.1"/>
<polygon fill="none" stroke="#407ee2" points="379.88,-501.65 379.88,-530.35 302.13,-542 201.44,-542 123.69,-530.35 123.69,-501.65 201.44,-490 302.13,-490 379.88,-501.65"/>
<text text-anchor="middle" x="251.79" y="-512.3" font-family="Roboto" font-size="14.00" fill="#ffffff">polybar&#45;3.4.3 (35.54 MiB)</text>
</g>
<!-- N26 -->
<g id="node42" class="node">
<title>N26</title>
<polygon fill="#3fade6" stroke="#3fade6" points="713.96,-534 558.96,-534 558.96,-498 713.96,-498 713.96,-534"/>
<text text-anchor="middle" x="636.46" y="-512.3" font-family="Roboto" font-size="14.00" fill="#ffffff">gcc&#45;9.3.0 (136.80 MiB)</text>
</g>
<!-- N32&#45;&gt;N26 -->
<g id="edge3" class="edge">
<title>N32&#45;&gt;N26</title>
<path fill="none" stroke="black" d="M379.95,-516C435.4,-516 498.97,-516 548.84,-516"/>
<polygon fill="black" stroke="black" points="548.95,-519.5 558.95,-516 548.95,-512.5 548.95,-519.5"/>
</g>
<!-- N33 -->
<g id="node5" class="node">
<title>N33</title>
<polygon fill="#4069e1" stroke="#4069e1" points="436.82,-1278.54 436.82,-1293.46 328.43,-1304 175.14,-1304 66.75,-1293.46 66.75,-1278.54 175.14,-1268 328.43,-1268 436.82,-1278.54"/>
<polygon fill="none" stroke="#4069e1" points="440.83,-1274.91 440.83,-1297.09 328.63,-1308 174.95,-1308 62.75,-1297.09 62.75,-1274.91 174.95,-1264 328.63,-1264 440.83,-1274.91"/>
<polygon fill="none" stroke="#4069e1" points="444.83,-1271.28 444.83,-1300.72 328.82,-1312 174.76,-1312 58.75,-1300.72 58.75,-1271.28 174.76,-1260 328.82,-1260 444.83,-1271.28"/>
<text text-anchor="middle" x="251.79" y="-1282.3" font-family="Roboto" font-size="14.00" fill="#ffffff">nvidia&#45;persistenced&#45;440.82 (115.81 KiB)</text>
</g>
<!-- N27 -->
<g id="node43" class="node">
<title>N27</title>
<polygon fill="#3ce9ec" stroke="#3ce9ec" points="760.46,-1234 512.46,-1234 512.46,-1198 760.46,-1198 760.46,-1234"/>
<text text-anchor="middle" x="636.46" y="-1212.3" font-family="Roboto" font-size="14.00" fill="#000000">nvidia&#45;x11&#45;440.82&#45;5.6.16 (308.03 MiB)</text>
</g>
<!-- N33&#45;&gt;N27 -->
<g id="edge4" class="edge">
<title>N33&#45;&gt;N27</title>
<path fill="none" stroke="black" d="M389.94,-1265.9C418.58,-1261.32 448.56,-1256.25 476.46,-1251 499.8,-1246.61 524.94,-1241.33 548.19,-1236.22"/>
<polygon fill="black" stroke="black" points="549.01,-1239.62 558.02,-1234.05 547.5,-1232.79 549.01,-1239.62"/>
</g>
<!-- N24 -->
<g id="node6" class="node">
<title>N24</title>
<polygon fill="#3ecde9" stroke="#3ecde9" points="435.51,-1558.54 435.51,-1573.46 327.89,-1584 175.69,-1584 68.07,-1573.46 68.07,-1558.54 175.69,-1548 327.89,-1548 435.51,-1558.54"/>
<polygon fill="none" stroke="#3ecde9" points="439.51,-1554.92 439.51,-1577.08 328.08,-1588 175.49,-1588 64.07,-1577.08 64.07,-1554.92 175.49,-1544 328.08,-1544 439.51,-1554.92"/>
<polygon fill="none" stroke="#3ecde9" points="443.51,-1551.29 443.51,-1580.71 328.28,-1592 175.3,-1592 60.07,-1580.71 60.07,-1551.29 175.3,-1540 328.28,-1540 443.51,-1551.29"/>
<text text-anchor="middle" x="251.79" y="-1562.3" font-family="Roboto" font-size="14.00" fill="#000000">tor&#45;browser&#45;bundle&#45;bin&#45;9.5 (222.12 MiB)</text>
</g>
<!-- N22 -->
<g id="node10" class="node">
<title>N22</title>
<polygon fill="#3ec9e9" stroke="#3ec9e9" points="398.85,-1418.54 398.85,-1433.46 312.7,-1444 190.87,-1444 104.73,-1433.46 104.73,-1418.54 190.87,-1408 312.7,-1408 398.85,-1418.54"/>
<polygon fill="none" stroke="#3ec9e9" points="402.85,-1415 402.85,-1437 312.95,-1448 190.63,-1448 100.73,-1437 100.73,-1415 190.63,-1404 312.95,-1404 402.85,-1415"/>
<polygon fill="none" stroke="#3ec9e9" points="406.85,-1411.46 406.85,-1440.54 313.19,-1452 190.39,-1452 96.73,-1440.54 96.73,-1411.46 190.39,-1400 313.19,-1400 406.85,-1411.46"/>
<text text-anchor="middle" x="251.79" y="-1422.3" font-family="Roboto" font-size="14.00" fill="#000000">glibc&#45;locales&#45;2.30 (209.50 MiB)</text>
</g>
<!-- N24&#45;&gt;N22 -->
<g id="edge5" class="edge">
<title>N24&#45;&gt;N22</title>
<path fill="none" stroke="black" d="M94.43,-1547.84C71.58,-1543.38 48.55,-1537.84 27.11,-1531 18.59,-1528.28 13.81,-1529.61 9.11,-1522 -3.04,-1502.34 -3.04,-1489.66 9.11,-1470 26.35,-1442.11 54.99,-1426.97 86.67,-1419.44"/>
<polygon fill="black" stroke="black" points="87.53,-1422.84 96.59,-1417.34 86.08,-1415.99 87.53,-1422.84"/>
</g>
<!-- N34 -->
<g id="node7" class="node">
<title>N34</title>
<polygon fill="#4085e2" stroke="#4085e2" points="426.22,-1348.54 426.22,-1363.46 324.04,-1374 179.54,-1374 77.35,-1363.46 77.35,-1348.54 179.54,-1338 324.04,-1338 426.22,-1348.54"/>
<polygon fill="none" stroke="#4085e2" points="430.22,-1344.94 430.22,-1367.06 324.25,-1378 179.33,-1378 73.36,-1367.06 73.36,-1344.94 179.33,-1334 324.25,-1334 430.22,-1344.94"/>
<polygon fill="none" stroke="#4085e2" points="434.22,-1341.33 434.22,-1370.67 324.45,-1382 179.12,-1382 69.36,-1370.67 69.36,-1341.33 179.12,-1330 324.45,-1330 434.22,-1341.33"/>
<text text-anchor="middle" x="251.79" y="-1352.3" font-family="Roboto" font-size="14.00" fill="#ffffff">openra&#45;release&#45;20190314 (47.51 MiB)</text>
</g>
<!-- N28 -->
<g id="node44" class="node">
<title>N28</title>
<polygon fill="#3beee5" stroke="#3beee5" points="733.96,-1444 538.96,-1444 538.96,-1408 733.96,-1408 733.96,-1444"/>
<text text-anchor="middle" x="636.46" y="-1422.3" font-family="Roboto" font-size="14.00" fill="#000000">mono&#45;5.20.1.27 (349.63 MiB)</text>
</g>
<!-- N34&#45;&gt;N28 -->
<g id="edge6" class="edge">
<title>N34&#45;&gt;N28</title>
<path fill="none" stroke="black" d="M386.97,-1375.62C416.51,-1380.32 447.59,-1385.57 476.46,-1391 499.8,-1395.39 524.94,-1400.67 548.19,-1405.78"/>
<polygon fill="black" stroke="black" points="547.5,-1409.21 558.02,-1407.95 549.01,-1402.38 547.5,-1409.21"/>
</g>
<!-- N23 -->
<g id="node8" class="node">
<title>N23</title>
<polygon fill="#38f4b2" stroke="#38f4b2" points="378.54,-1628.54 378.54,-1643.46 304.29,-1654 199.29,-1654 125.04,-1643.46 125.04,-1628.54 199.29,-1618 304.29,-1618 378.54,-1628.54"/>
<polygon fill="none" stroke="#38f4b2" points="382.54,-1625.07 382.54,-1646.93 304.57,-1658 199,-1658 121.03,-1646.93 121.03,-1625.07 199,-1614 304.57,-1614 382.54,-1625.07"/>
<polygon fill="none" stroke="#38f4b2" points="386.55,-1621.6 386.55,-1650.4 304.86,-1662 198.72,-1662 117.03,-1650.4 117.03,-1621.6 198.72,-1610 304.86,-1610 386.55,-1621.6"/>
<text text-anchor="middle" x="251.79" y="-1632.3" font-family="Roboto" font-size="14.00" fill="#000000">arduino&#45;1.8.9 (511.63 MiB)</text>
</g>
<!-- N35 -->
<g id="node9" class="node">
<title>N35</title>
<polygon fill="#406ce1" stroke="#406ce1" points="369.26,-438.54 369.26,-453.46 300.45,-464 203.13,-464 134.32,-453.46 134.32,-438.54 203.13,-428 300.45,-428 369.26,-438.54"/>
<polygon fill="none" stroke="#406ce1" points="373.26,-435.11 373.26,-456.89 300.75,-468 202.83,-468 130.32,-456.89 130.32,-435.11 202.83,-424 300.75,-424 373.26,-435.11"/>
<polygon fill="none" stroke="#406ce1" points="377.25,-431.68 377.25,-460.32 301.05,-472 202.52,-472 126.32,-460.32 126.32,-431.68 202.52,-420 301.05,-420 377.25,-431.68"/>
<text text-anchor="middle" x="251.79" y="-442.3" font-family="Roboto" font-size="14.00" fill="#ffffff">nethack&#45;3.6.6 (4.58 MiB)</text>
</g>
<!-- N35&#45;&gt;N26 -->
<g id="edge7" class="edge">
<title>N35&#45;&gt;N26</title>
<path fill="none" stroke="black" d="M365.09,-462.19C400.78,-467.71 440.35,-474.21 476.46,-481 500.04,-485.44 525.46,-490.78 548.91,-495.94"/>
<polygon fill="black" stroke="black" points="548.31,-499.39 558.83,-498.13 549.82,-492.55 548.31,-499.39"/>
</g>
<!-- N21 -->
<g id="node11" class="node">
<title>N21</title>
<polygon fill="#3ec9e9" stroke="#3ec9e9" points="389.56,-228.54 389.56,-243.46 308.86,-254 194.72,-254 114.01,-243.46 114.01,-228.54 194.72,-218 308.86,-218 389.56,-228.54"/>
<polygon fill="none" stroke="#3ec9e9" points="393.56,-225.03 393.56,-246.97 309.12,-258 194.46,-258 110.02,-246.97 110.02,-225.03 194.46,-214 309.12,-214 393.56,-225.03"/>
<polygon fill="none" stroke="#3ec9e9" points="397.56,-221.52 397.56,-250.48 309.38,-262 194.2,-262 106.02,-250.48 106.02,-221.52 194.2,-210 309.38,-210 397.56,-221.52"/>
<text text-anchor="middle" x="251.79" y="-232.3" font-family="Roboto" font-size="14.00" fill="#000000">inkscape&#45;0.92.5 (210.71 MiB)</text>
</g>
<!-- N30 -->
<g id="node45" class="node">
<title>N30</title>
<polygon fill="#3fb0e6" stroke="#3fb0e6" points="711.96,-219 560.96,-219 560.96,-183 711.96,-183 711.96,-219"/>
<text text-anchor="middle" x="636.46" y="-197.3" font-family="Roboto" font-size="14.00" fill="#ffffff">lapack&#45;3 (143.49 MiB)</text>
</g>
<!-- N21&#45;&gt;N30 -->
<g id="edge8" class="edge">
<title>N21&#45;&gt;N30</title>
<path fill="none" stroke="black" d="M397.73,-222.74C449.46,-218.01 506,-212.84 550.96,-208.73"/>
<polygon fill="black" stroke="black" points="551.31,-212.21 560.95,-207.82 550.67,-205.24 551.31,-212.21"/>
</g>
<!-- N36 -->
<g id="node12" class="node">
<title>N36</title>
<polygon fill="#4086e2" stroke="#4086e2" points="436.82,-1138.54 436.82,-1153.46 328.43,-1164 175.14,-1164 66.75,-1153.46 66.75,-1138.54 175.14,-1128 328.43,-1128 436.82,-1138.54"/>
<polygon fill="none" stroke="#4086e2" points="440.83,-1134.91 440.83,-1157.09 328.63,-1168 174.95,-1168 62.75,-1157.09 62.75,-1134.91 174.95,-1124 328.63,-1124 440.83,-1134.91"/>
<polygon fill="none" stroke="#4086e2" points="444.83,-1131.28 444.83,-1160.72 328.82,-1172 174.76,-1172 58.75,-1160.72 58.75,-1131.28 174.76,-1120 328.82,-1120 444.83,-1131.28"/>
<text text-anchor="middle" x="251.79" y="-1142.3" font-family="Roboto" font-size="14.00" fill="#ffffff">nvidia&#45;x11&#45;440.82&#45;5.6.16&#45;bin (50.53 MiB)</text>
</g>
<!-- N36&#45;&gt;N27 -->
<g id="edge9" class="edge">
<title>N36&#45;&gt;N27</title>
<path fill="none" stroke="black" d="M389.94,-1166.1C418.58,-1170.68 448.56,-1175.75 476.46,-1181 499.8,-1185.39 524.94,-1190.67 548.19,-1195.78"/>
<polygon fill="black" stroke="black" points="547.5,-1199.21 558.02,-1197.95 549.01,-1192.38 547.5,-1199.21"/>
</g>
<!-- N20 -->
<g id="node13" class="node">
<title>N20</title>
<polygon fill="#3fa3e5" stroke="#3fa3e5" points="422.69,-1698.54 422.69,-1713.46 322.58,-1724 181,-1724 80.89,-1713.46 80.89,-1698.54 181,-1688 322.58,-1688 422.69,-1698.54"/>
<polygon fill="none" stroke="#3fa3e5" points="426.69,-1694.94 426.69,-1717.06 322.79,-1728 180.79,-1728 76.89,-1717.06 76.89,-1694.94 180.79,-1684 322.79,-1684 426.69,-1694.94"/>
<polygon fill="none" stroke="#3fa3e5" points="430.69,-1691.34 430.69,-1720.66 323,-1732 180.58,-1732 72.89,-1720.66 72.89,-1691.34 180.58,-1680 323,-1680 430.69,-1691.34"/>
<text text-anchor="middle" x="251.79" y="-1702.3" font-family="Roboto" font-size="14.00" fill="#ffffff">mpv&#45;with&#45;scripts&#45;0.32.0 (112.96 MiB)</text>
</g>
<!-- N37 -->
<g id="node14" class="node">
<title>N37</title>
<polygon fill="#408be3" stroke="#408be3" points="412.98,-788.54 412.98,-803.46 318.56,-814 185.02,-814 90.59,-803.46 90.59,-788.54 185.02,-778 318.56,-778 412.98,-788.54"/>
<polygon fill="none" stroke="#408be3" points="416.99,-784.97 416.99,-807.03 318.78,-818 184.8,-818 86.59,-807.03 86.59,-784.97 184.8,-774 318.78,-774 416.99,-784.97"/>
<polygon fill="none" stroke="#408be3" points="420.99,-781.39 420.99,-810.61 319,-822 184.57,-822 82.59,-810.61 82.59,-781.39 184.57,-770 319,-770 420.99,-781.39"/>
<text text-anchor="middle" x="251.79" y="-792.3" font-family="Roboto" font-size="14.00" fill="#ffffff">dwarf&#45;fortress&#45;0.47.04 (59.14 MiB)</text>
</g>
<!-- N37&#45;&gt;N29 -->
<g id="edge11" class="edge">
<title>N37&#45;&gt;N29</title>
<path fill="none" stroke="black" d="M398.39,-813.17C424.64,-817.85 451.57,-823.71 476.46,-831 516.99,-842.87 560.75,-862.7 592.08,-878.22"/>
<polygon fill="black" stroke="black" points="590.88,-881.54 601.39,-882.89 594.02,-875.28 590.88,-881.54"/>
</g>
<!-- N37&#45;&gt;N26 -->
<g id="edge10" class="edge">
<title>N37&#45;&gt;N26</title>
<path fill="none" stroke="black" d="M421.01,-785.59C440.65,-779.85 459.64,-771.9 476.46,-761 558.44,-707.86 607.08,-595.95 626.13,-543.82"/>
<polygon fill="black" stroke="black" points="629.49,-544.82 629.55,-534.22 622.9,-542.47 629.49,-544.82"/>
</g>
<!-- N19 -->
<g id="node15" class="node">
<title>N19</title>
<polygon fill="#3ddbeb" stroke="#3ddbeb" points="431.97,-1768.54 431.97,-1783.46 326.42,-1794 177.15,-1794 71.6,-1783.46 71.6,-1768.54 177.15,-1758 326.42,-1758 431.97,-1768.54"/>
<polygon fill="none" stroke="#3ddbeb" points="435.97,-1764.92 435.97,-1787.08 326.62,-1798 176.95,-1798 67.6,-1787.08 67.6,-1764.92 176.95,-1754 326.62,-1754 435.97,-1764.92"/>
<polygon fill="none" stroke="#3ddbeb" points="439.98,-1761.3 439.98,-1790.7 326.82,-1802 176.75,-1802 63.6,-1790.7 63.6,-1761.3 176.75,-1750 326.82,-1750 439.98,-1761.3"/>
<text text-anchor="middle" x="251.79" y="-1772.3" font-family="Roboto" font-size="14.00" fill="#000000">qemu&#45;host&#45;cpu&#45;only&#45;4.2.0 (263.68 MiB)</text>
</g>
<!-- N38 -->
<g id="node16" class="node">
<title>N38</title>
<polygon fill="#3f9be4" stroke="#3f9be4" points="398.85,-368.54 398.85,-383.46 312.7,-394 190.87,-394 104.73,-383.46 104.73,-368.54 190.87,-358 312.7,-358 398.85,-368.54"/>
<polygon fill="none" stroke="#3f9be4" points="402.85,-365 402.85,-387 312.95,-398 190.63,-398 100.73,-387 100.73,-365 190.63,-354 312.95,-354 402.85,-365"/>
<polygon fill="none" stroke="#3f9be4" points="406.85,-361.46 406.85,-390.54 313.19,-402 190.39,-402 96.73,-390.54 96.73,-361.46 190.39,-350 313.19,-350 406.85,-361.46"/>
<text text-anchor="middle" x="251.79" y="-372.3" font-family="Roboto" font-size="14.00" fill="#ffffff">stepmania&#45;5.1.0&#45;b2 (93.53 MiB)</text>
</g>
<!-- N38&#45;&gt;N26 -->
<g id="edge12" class="edge">
<title>N38&#45;&gt;N26</title>
<path fill="none" stroke="black" d="M404.9,-390.8C429.3,-395.72 453.92,-402.27 476.46,-411 526.09,-430.22 576.14,-466.75 606.47,-491.24"/>
<polygon fill="black" stroke="black" points="604.54,-494.18 614.49,-497.81 608.97,-488.76 604.54,-494.18"/>
</g>
<!-- N18 -->
<g id="node17" class="node">
<title>N18</title>
<polygon fill="#3ecbe9" stroke="#3ecbe9" points="468.63,-1838.54 468.63,-1853.46 341.61,-1864 161.97,-1864 34.94,-1853.46 34.94,-1838.54 161.97,-1828 341.61,-1828 468.63,-1838.54"/>
<polygon fill="none" stroke="#3ecbe9" points="472.64,-1834.86 472.64,-1857.14 341.77,-1868 161.8,-1868 30.94,-1857.14 30.94,-1834.86 161.8,-1824 341.77,-1824 472.64,-1834.86"/>
<polygon fill="none" stroke="#3ecbe9" points="476.64,-1831.18 476.64,-1860.82 341.94,-1872 161.64,-1872 26.94,-1860.82 26.94,-1831.18 161.64,-1820 341.94,-1820 476.64,-1831.18"/>
<text text-anchor="middle" x="251.79" y="-1842.3" font-family="Roboto" font-size="14.00" fill="#000000">firefox&#45;beta&#45;bin&#45;unwrapped&#45;77.0b7 (217.24 MiB)</text>
</g>
<!-- N17 -->
<g id="node18" class="node">
<title>N17</title>
<polygon fill="#fe0000" stroke="#fe0000" points="382.5,-1978.54 382.5,-1993.46 305.93,-2004 197.65,-2004 121.08,-1993.46 121.08,-1978.54 197.65,-1968 305.93,-1968 382.5,-1978.54"/>
<polygon fill="none" stroke="#fe0000" points="386.49,-1975.06 386.49,-1996.94 306.2,-2008 197.37,-2008 117.08,-1996.94 117.08,-1975.06 197.37,-1964 306.2,-1964 386.49,-1975.06"/>
<polygon fill="none" stroke="#fe0000" points="390.49,-1971.57 390.49,-2000.43 306.48,-2012 197.1,-2012 113.09,-2000.43 113.09,-1971.57 197.1,-1960 306.48,-1960 390.49,-1971.57"/>
<text text-anchor="middle" x="251.79" y="-1982.3" font-family="Roboto" font-size="14.00" fill="#000000">playonlinux&#45;4.3.4 (2.43 GiB)</text>
</g>
<!-- N16 -->
<g id="node19" class="node">
<title>N16</title>
<polygon fill="#3ddeeb" stroke="#3ddeeb" points="458.03,-2048.54 458.03,-2063.46 337.22,-2074 166.36,-2074 45.55,-2063.46 45.55,-2048.54 166.36,-2038 337.22,-2038 458.03,-2048.54"/>
<polygon fill="none" stroke="#3ddeeb" points="462.03,-2044.88 462.03,-2067.12 337.39,-2078 166.19,-2078 41.54,-2067.12 41.54,-2044.88 166.19,-2034 337.39,-2034 462.03,-2044.88"/>
<polygon fill="none" stroke="#3ddeeb" points="466.04,-2041.21 466.04,-2070.79 337.57,-2082 166.01,-2082 37.54,-2070.79 37.54,-2041.21 166.01,-2030 337.57,-2030 466.04,-2041.21"/>
<text text-anchor="middle" x="251.79" y="-2052.3" font-family="Roboto" font-size="14.00" fill="#000000">spotifywm&#45;unstable&#45;2016&#45;11&#45;28 (272.34 MiB)</text>
</g>
<!-- N15 -->
<g id="node20" class="node">
<title>N15</title>
<polygon fill="#3ddbeb" stroke="#3ddbeb" points="380.75,-158.54 380.75,-173.46 305.21,-184 198.37,-184 122.82,-173.46 122.82,-158.54 198.37,-148 305.21,-148 380.75,-158.54"/>
<polygon fill="none" stroke="#3ddbeb" points="384.76,-155.06 384.76,-176.94 305.49,-188 198.09,-188 118.82,-176.94 118.82,-155.06 198.09,-144 305.49,-144 384.76,-155.06"/>
<polygon fill="none" stroke="#3ddbeb" points="388.77,-151.58 388.77,-180.42 305.76,-192 197.81,-192 114.81,-180.42 114.81,-151.58 197.81,-140 305.76,-140 388.77,-151.58"/>
<text text-anchor="middle" x="251.79" y="-162.3" font-family="Roboto" font-size="14.00" fill="#000000">blender&#45;2.82a (264.92 MiB)</text>
</g>
<!-- N15&#45;&gt;N30 -->
<g id="edge13" class="edge">
<title>N15&#45;&gt;N30</title>
<path fill="none" stroke="black" d="M388.78,-178.44C442.72,-183.37 503.08,-188.89 550.59,-193.24"/>
<polygon fill="black" stroke="black" points="550.56,-196.75 560.83,-194.17 551.19,-189.78 550.56,-196.75"/>
</g>
<!-- N14 -->
<g id="node21" class="node">
<title>N14</title>
<polygon fill="#3ec7e8" stroke="#3ec7e8" points="364.4,-88.54 364.4,-103.46 298.43,-114 205.14,-114 139.17,-103.46 139.17,-88.54 205.14,-78 298.43,-78 364.4,-88.54"/>
<polygon fill="none" stroke="#3ec7e8" points="368.4,-85.13 368.4,-106.87 298.75,-118 204.82,-118 135.17,-106.87 135.17,-85.13 204.82,-74 298.75,-74 368.4,-85.13"/>
<polygon fill="none" stroke="#3ec7e8" points="372.41,-81.72 372.41,-110.28 299.07,-122 204.51,-122 131.17,-110.28 131.17,-81.72 204.51,-70 299.07,-70 372.41,-81.72"/>
<text text-anchor="middle" x="251.79" y="-92.3" font-family="Roboto" font-size="14.00" fill="#000000">cura&#45;4.6.1 (205.91 MiB)</text>
</g>
<!-- N14&#45;&gt;N30 -->
<g id="edge14" class="edge">
<title>N14&#45;&gt;N30</title>
<path fill="none" stroke="black" d="M372.46,-108.87C406.47,-114.1 443.27,-121.28 476.46,-131 516.99,-142.87 560.75,-162.7 592.08,-178.22"/>
<polygon fill="black" stroke="black" points="590.88,-181.54 601.39,-182.89 594.02,-175.28 590.88,-181.54"/>
</g>
<!-- N39 -->
<g id="node22" class="node">
<title>N39</title>
<polygon fill="#406ae1" stroke="#406ae1" points="407.23,-1208.54 407.23,-1223.46 316.18,-1234 187.4,-1234 96.34,-1223.46 96.34,-1208.54 187.4,-1198 316.18,-1198 407.23,-1208.54"/>
<polygon fill="none" stroke="#406ae1" points="411.23,-1204.98 411.23,-1227.02 316.41,-1238 187.17,-1238 92.34,-1227.02 92.34,-1204.98 187.17,-1194 316.41,-1194 411.23,-1204.98"/>
<polygon fill="none" stroke="#406ae1" points="415.23,-1201.42 415.23,-1230.58 316.64,-1242 186.94,-1242 88.34,-1230.58 88.34,-1201.42 186.94,-1190 316.64,-1190 415.23,-1201.42"/>
<text text-anchor="middle" x="251.79" y="-1212.3" font-family="Roboto" font-size="14.00" fill="#ffffff">nvidia&#45;settings&#45;440.82 (1.70 MiB)</text>
</g>
<!-- N39&#45;&gt;N36 -->
<g id="edge15" class="edge">
<title>N39&#45;&gt;N36</title>
<path fill="none" stroke="black" d="M251.79,-1189.68C251.79,-1187.23 251.79,-1184.78 251.79,-1182.33"/>
<polygon fill="black" stroke="black" points="255.29,-1182.25 251.79,-1172.25 248.29,-1182.25 255.29,-1182.25"/>
</g>
<!-- N13 -->
<g id="node23" class="node">
<title>N13</title>
<polygon fill="#3ec6e8" stroke="#3ec6e8" points="373.68,-2118.54 373.68,-2133.46 302.28,-2144 201.3,-2144 129.89,-2133.46 129.89,-2118.54 201.3,-2108 302.28,-2108 373.68,-2118.54"/>
<polygon fill="none" stroke="#3ec6e8" points="377.69,-2115.09 377.69,-2136.91 302.57,-2148 201,-2148 125.89,-2136.91 125.89,-2115.09 201,-2104 302.57,-2104 377.69,-2115.09"/>
<polygon fill="none" stroke="#3ec6e8" points="381.7,-2111.64 381.7,-2140.36 302.87,-2152 200.71,-2152 121.88,-2140.36 121.88,-2111.64 200.71,-2100 302.87,-2100 381.7,-2111.64"/>
<text text-anchor="middle" x="251.79" y="-2122.3" font-family="Roboto" font-size="14.00" fill="#000000">astroid&#45;0.15 (202.72 MiB)</text>
</g>
<!-- N12 -->
<g id="node24" class="node">
<title>N12</title>
<polygon fill="#3dd7ea" stroke="#3dd7ea" points="363.51,-2188.54 363.51,-2203.46 298.06,-2214 205.51,-2214 140.07,-2203.46 140.07,-2188.54 205.51,-2178 298.06,-2178 363.51,-2188.54"/>
<polygon fill="none" stroke="#3dd7ea" points="367.5,-2185.14 367.5,-2206.86 298.38,-2218 205.19,-2218 136.07,-2206.86 136.07,-2185.14 205.19,-2174 298.38,-2174 367.5,-2185.14"/>
<polygon fill="none" stroke="#3dd7ea" points="371.5,-2181.73 371.5,-2210.27 298.7,-2222 204.87,-2222 132.08,-2210.27 132.08,-2181.73 204.87,-2170 298.7,-2170 371.5,-2181.73"/>
<text text-anchor="middle" x="251.79" y="-2192.3" font-family="Roboto" font-size="14.00" fill="#000000">X11&#45;fonts (250.60 MiB)</text>
</g>
<!-- N11 -->
<g id="node25" class="node">
<title>N11</title>
<polygon fill="#3dd1e9" stroke="#3dd1e9" points="380.75,-2258.54 380.75,-2273.46 305.21,-2284 198.37,-2284 122.82,-2273.46 122.82,-2258.54 198.37,-2248 305.21,-2248 380.75,-2258.54"/>
<polygon fill="none" stroke="#3dd1e9" points="384.76,-2255.06 384.76,-2276.94 305.49,-2288 198.09,-2288 118.82,-2276.94 118.82,-2255.06 198.09,-2244 305.49,-2244 384.76,-2255.06"/>
<polygon fill="none" stroke="#3dd1e9" points="388.77,-2251.58 388.77,-2280.42 305.76,-2292 197.81,-2292 114.81,-2280.42 114.81,-2251.58 197.81,-2240 305.76,-2240 388.77,-2251.58"/>
<text text-anchor="middle" x="251.79" y="-2262.3" font-family="Roboto" font-size="14.00" fill="#000000">fritzing&#45;0.9.3b (233.13 MiB)</text>
</g>
<!-- N10 -->
<g id="node26" class="node">
<title>N10</title>
<polygon fill="#fefd18" stroke="#fefd18" points="337.02,-1488.54 337.02,-1503.46 287.09,-1514 216.48,-1514 166.55,-1503.46 166.55,-1488.54 216.48,-1478 287.09,-1478 337.02,-1488.54"/>
<polygon fill="none" stroke="#fefd18" points="341.03,-1485.3 341.03,-1506.7 287.51,-1518 216.06,-1518 162.55,-1506.7 162.55,-1485.3 216.06,-1474 287.51,-1474 341.03,-1485.3"/>
<polygon fill="none" stroke="#fefd18" points="345.03,-1482.06 345.03,-1509.94 287.93,-1522 215.65,-1522 158.54,-1509.94 158.54,-1482.06 215.65,-1470 287.93,-1470 345.03,-1482.06"/>
<text text-anchor="middle" x="251.79" y="-1492.3" font-family="Roboto" font-size="14.00" fill="#000000">steam (1.35 GiB)</text>
</g>
<!-- N10&#45;&gt;N22 -->
<g id="edge16" class="edge">
<title>N10&#45;&gt;N22</title>
<path fill="none" stroke="black" d="M251.79,-1469.68C251.79,-1467.23 251.79,-1464.78 251.79,-1462.33"/>
<polygon fill="black" stroke="black" points="255.29,-1462.25 251.79,-1452.25 248.29,-1462.25 255.29,-1462.25"/>
</g>
<!-- N10&#45;&gt;N28 -->
<g id="edge17" class="edge">
<title>N10&#45;&gt;N28</title>
<path fill="none" stroke="black" d="M344.96,-1482.88C385.41,-1476.79 433.39,-1469.1 476.46,-1461 499.8,-1456.61 524.94,-1451.33 548.19,-1446.22"/>
<polygon fill="black" stroke="black" points="549.01,-1449.62 558.02,-1444.05 547.5,-1442.79 549.01,-1449.62"/>
</g>
<!-- N40 -->
<g id="node27" class="node">
<title>N40</title>
<polygon fill="#4069e1" stroke="#4069e1" points="376.32,-858.54 376.32,-873.46 303.37,-884 200.2,-884 127.25,-873.46 127.25,-858.54 200.2,-848 303.37,-848 376.32,-858.54"/>
<polygon fill="none" stroke="#4069e1" points="380.32,-855.08 380.32,-876.92 303.66,-888 199.92,-888 123.25,-876.92 123.25,-855.08 199.92,-844 303.66,-844 380.32,-855.08"/>
<polygon fill="none" stroke="#4069e1" points="384.32,-851.62 384.32,-880.38 303.95,-892 199.63,-892 119.25,-880.38 119.25,-851.62 199.63,-840 303.95,-840 384.32,-851.62"/>
<text text-anchor="middle" x="251.79" y="-862.3" font-family="Roboto" font-size="14.00" fill="#ffffff">arandr&#45;0.1.10 (203.91 KiB)</text>
</g>
<!-- N40&#45;&gt;N29 -->
<g id="edge18" class="edge">
<title>N40&#45;&gt;N29</title>
<path fill="none" stroke="black" d="M384.48,-878.05C432.22,-882.41 485.46,-887.28 530.58,-891.41"/>
<polygon fill="black" stroke="black" points="530.4,-894.9 540.67,-892.33 531.03,-887.93 530.4,-894.9"/>
</g>
<!-- N9 -->
<g id="node28" class="node">
<title>N9</title>
<polygon fill="#3fafe6" stroke="#3fafe6" points="377.64,-578.54 377.64,-593.46 303.92,-604 199.66,-604 125.93,-593.46 125.93,-578.54 199.66,-568 303.92,-568 377.64,-578.54"/>
<polygon fill="none" stroke="#3fafe6" points="381.64,-575.08 381.64,-596.92 304.2,-608 199.37,-608 121.94,-596.92 121.94,-575.08 199.37,-564 304.2,-564 381.64,-575.08"/>
<polygon fill="none" stroke="#3fafe6" points="385.64,-571.61 385.64,-600.39 304.49,-612 199.09,-612 117.94,-600.39 117.94,-571.61 199.09,-560 304.49,-560 385.64,-571.61"/>
<text text-anchor="middle" x="251.79" y="-582.3" font-family="Roboto" font-size="14.00" fill="#ffffff">gimp&#45;2.10.18 (140.30 MiB)</text>
</g>
<!-- N9&#45;&gt;N29 -->
<g id="edge19" class="edge">
<title>N9&#45;&gt;N29</title>
<path fill="none" stroke="black" d="M385.86,-587.18C417.67,-592.56 450.03,-602.73 476.46,-621 566.94,-683.54 612.26,-815.34 628.4,-873"/>
<polygon fill="black" stroke="black" points="625.08,-874.13 631.07,-882.87 631.83,-872.3 625.08,-874.13"/>
</g>
<!-- N9&#45;&gt;N30 -->
<g id="edge20" class="edge">
<title>N9&#45;&gt;N30</title>
<path fill="none" stroke="black" d="M385.88,-586.65C418.04,-581.29 450.57,-570.68 476.46,-551 490.48,-540.35 589.38,-309.54 623.74,-228.68"/>
<polygon fill="black" stroke="black" points="627.1,-229.73 627.78,-219.16 620.65,-227 627.1,-229.73"/>
</g>
<!-- N8 -->
<g id="node29" class="node">
<title>N8</title>
<polygon fill="#3ceaec" stroke="#3ceaec" points="358.65,-2328.54 358.65,-2343.46 296.05,-2354 207.52,-2354 144.92,-2343.46 144.92,-2328.54 207.52,-2318 296.05,-2318 358.65,-2328.54"/>
<polygon fill="none" stroke="#3ceaec" points="362.65,-2325.16 362.65,-2346.84 296.39,-2358 207.19,-2358 140.92,-2346.84 140.92,-2325.16 207.19,-2314 296.39,-2314 362.65,-2325.16"/>
<polygon fill="none" stroke="#3ceaec" points="366.65,-2321.78 366.65,-2350.22 296.72,-2362 206.85,-2362 136.93,-2350.22 136.93,-2321.78 206.85,-2310 296.72,-2310 366.65,-2321.78"/>
<text text-anchor="middle" x="251.79" y="-2332.3" font-family="Roboto" font-size="14.00" fill="#000000">ino&#45;0.3.6 (310.78 MiB)</text>
</g>
<!-- N7 -->
<g id="node30" class="node">
<title>N7</title>
<polygon fill="#3ecde9" stroke="#3ecde9" points="450.06,-2398.54 450.06,-2413.46 333.92,-2424 169.66,-2424 53.51,-2413.46 53.51,-2398.54 169.66,-2388 333.92,-2388 450.06,-2398.54"/>
<polygon fill="none" stroke="#3ecde9" points="454.06,-2394.89 454.06,-2417.11 334.1,-2428 169.48,-2428 49.52,-2417.11 49.52,-2394.89 169.48,-2384 334.1,-2384 454.06,-2394.89"/>
<polygon fill="none" stroke="#3ecde9" points="458.06,-2391.24 458.06,-2420.76 334.28,-2432 169.3,-2432 45.52,-2420.76 45.52,-2391.24 169.3,-2380 334.28,-2380 458.06,-2391.24"/>
<text text-anchor="middle" x="251.79" y="-2402.3" font-family="Roboto" font-size="14.00" fill="#000000">papirus&#45;icon&#45;theme&#45;20200430 (221.53 MiB)</text>
</g>
<!-- N6 -->
<g id="node31" class="node">
<title>N6</title>
<polygon fill="#3fb7e7" stroke="#3fb7e7" points="395.31,-2468.54 395.31,-2483.46 311.24,-2494 192.34,-2494 108.26,-2483.46 108.26,-2468.54 192.34,-2458 311.24,-2458 395.31,-2468.54"/>
<polygon fill="none" stroke="#3fb7e7" points="399.31,-2465.01 399.31,-2486.99 311.49,-2498 192.09,-2498 104.26,-2486.99 104.26,-2465.01 192.09,-2454 311.49,-2454 399.31,-2465.01"/>
<polygon fill="none" stroke="#3fb7e7" points="403.31,-2461.48 403.31,-2490.52 311.74,-2502 191.84,-2502 100.26,-2490.52 100.26,-2461.48 191.84,-2450 311.74,-2450 403.31,-2461.48"/>
<text text-anchor="middle" x="251.79" y="-2472.3" font-family="Roboto" font-size="14.00" fill="#000000">upwork&#45;5.3.3&#45;883 (161.57 MiB)</text>
</g>
<!-- N5 -->
<g id="node32" class="node">
<title>N5</title>
<polygon fill="#b9fe2c" stroke="#b9fe2c" points="394.42,-2538.54 394.42,-2553.46 310.87,-2564 192.71,-2564 109.16,-2553.46 109.16,-2538.54 192.71,-2528 310.87,-2528 394.42,-2538.54"/>
<polygon fill="none" stroke="#b9fe2c" points="398.41,-2535.02 398.41,-2556.98 311.12,-2568 192.46,-2568 105.17,-2556.98 105.17,-2535.02 192.46,-2524 311.12,-2524 398.41,-2535.02"/>
<polygon fill="none" stroke="#b9fe2c" points="402.41,-2531.49 402.41,-2560.51 311.37,-2572 192.21,-2572 101.17,-2560.51 101.17,-2531.49 192.21,-2520 311.37,-2520 402.41,-2531.49"/>
<text text-anchor="middle" x="251.79" y="-2542.3" font-family="Roboto" font-size="14.00" fill="#000000">xonotic&#45;sdl&#45;0.8.2 (895.35 MiB)</text>
</g>
<!-- N41 -->
<g id="node33" class="node">
<title>N41</title>
<polygon fill="#4089e3" stroke="#4089e3" points="389.14,-298.54 389.14,-313.46 308.68,-324 194.9,-324 114.44,-313.46 114.44,-298.54 194.9,-288 308.68,-288 389.14,-298.54"/>
<polygon fill="none" stroke="#4089e3" points="393.15,-295.03 393.15,-316.97 308.94,-328 194.63,-328 110.43,-316.97 110.43,-295.03 194.63,-284 308.94,-284 393.15,-295.03"/>
<polygon fill="none" stroke="#4089e3" points="397.15,-291.53 397.15,-320.47 309.2,-332 194.37,-332 106.43,-320.47 106.43,-291.53 194.37,-280 309.2,-280 397.15,-291.53"/>
<text text-anchor="middle" x="251.79" y="-302.3" font-family="Roboto" font-size="14.00" fill="#ffffff">neovim&#45;qt&#45;0.2.15 (54.94 MiB)</text>
</g>
<!-- N41&#45;&gt;N26 -->
<g id="edge21" class="edge">
<title>N41&#45;&gt;N26</title>
<path fill="none" stroke="black" d="M397.08,-313.91C424.54,-319.42 452.24,-327.95 476.46,-341 542.04,-376.33 594.53,-449.5 619.55,-489.11"/>
<polygon fill="black" stroke="black" points="616.79,-491.3 625.03,-497.96 622.74,-487.61 616.79,-491.3"/>
</g>
<!-- N4 -->
<g id="node34" class="node">
<title>N4</title>
<polygon fill="#3fa2e5" stroke="#3fa2e5" points="386.03,-2608.54 386.03,-2623.46 307.39,-2634 196.18,-2634 117.55,-2623.46 117.55,-2608.54 196.18,-2598 307.39,-2598 386.03,-2608.54"/>
<polygon fill="none" stroke="#3fa2e5" points="390.03,-2605.04 390.03,-2626.96 307.66,-2638 195.92,-2638 113.55,-2626.96 113.55,-2605.04 195.92,-2594 307.66,-2594 390.03,-2605.04"/>
<polygon fill="none" stroke="#3fa2e5" points="394.02,-2601.54 394.02,-2630.46 307.93,-2642 195.65,-2642 109.55,-2630.46 109.55,-2601.54 195.65,-2590 307.93,-2590 394.02,-2601.54"/>
<text text-anchor="middle" x="251.79" y="-2612.3" font-family="Roboto" font-size="14.00" fill="#ffffff">nomacs&#45;3.14.2 (108.73 MiB)</text>
</g>
<!-- N3 -->
<g id="node35" class="node">
<title>N3</title>
<polygon fill="#fe8100" stroke="#fe8100" points="434.19,-718.54 434.19,-733.46 327.34,-744 176.24,-744 69.39,-733.46 69.39,-718.54 176.24,-708 327.34,-708 434.19,-718.54"/>
<polygon fill="none" stroke="#fe8100" points="438.19,-714.92 438.19,-737.08 327.54,-748 176.04,-748 65.38,-737.08 65.38,-714.92 176.04,-704 327.54,-704 438.19,-714.92"/>
<polygon fill="none" stroke="#fe8100" points="442.2,-711.3 442.2,-740.7 327.74,-752 175.84,-752 61.38,-740.7 61.38,-711.3 175.84,-700 327.74,-700 442.2,-711.3"/>
<text text-anchor="middle" x="251.79" y="-722.3" font-family="Roboto" font-size="14.00" fill="#000000">xmonad&#45;with&#45;packages&#45;8.8.3 (2.17 GiB)</text>
</g>
<!-- N3&#45;&gt;N26 -->
<g id="edge22" class="edge">
<title>N3&#45;&gt;N26</title>
<path fill="none" stroke="black" d="M429.62,-710.02C445.96,-705.11 461.84,-698.88 476.46,-691 542.04,-655.67 594.53,-582.5 619.55,-542.89"/>
<polygon fill="black" stroke="black" points="622.74,-544.39 625.03,-534.04 616.79,-540.7 622.74,-544.39"/>
</g>
<!-- N2 -->
<g id="node36" class="node">
<title>N2</title>
<polygon fill="#3eb8e7" stroke="#3eb8e7" points="381.18,-2678.54 381.18,-2693.46 305.38,-2704 198.19,-2704 122.4,-2693.46 122.4,-2678.54 198.19,-2668 305.38,-2668 381.18,-2678.54"/>
<polygon fill="none" stroke="#3eb8e7" points="385.18,-2675.06 385.18,-2696.94 305.66,-2708 197.92,-2708 118.4,-2696.94 118.4,-2675.06 197.92,-2664 305.66,-2664 385.18,-2675.06"/>
<polygon fill="none" stroke="#3eb8e7" points="389.17,-2671.58 389.17,-2700.42 305.94,-2712 197.64,-2712 114.4,-2700.42 114.4,-2671.58 197.64,-2660 305.94,-2660 389.17,-2671.58"/>
<text text-anchor="middle" x="251.79" y="-2682.3" font-family="Roboto" font-size="14.00" fill="#000000">gzdoom&#45;4.3.3 (163.52 MiB)</text>
</g>
<!-- N42 -->
<g id="node37" class="node">
<title>N42</title>
<polygon fill="#406be1" stroke="#406be1" points="407.23,-1908.54 407.23,-1923.46 316.18,-1934 187.4,-1934 96.34,-1923.46 96.34,-1908.54 187.4,-1898 316.18,-1898 407.23,-1908.54"/>
<polygon fill="none" stroke="#406be1" points="411.23,-1904.98 411.23,-1927.02 316.41,-1938 187.17,-1938 92.34,-1927.02 92.34,-1904.98 187.17,-1894 316.41,-1894 411.23,-1904.98"/>
<polygon fill="none" stroke="#406be1" points="415.23,-1901.42 415.23,-1930.58 316.64,-1942 186.94,-1942 88.34,-1930.58 88.34,-1901.42 186.94,-1890 316.64,-1890 415.23,-1901.42"/>
<text text-anchor="middle" x="251.79" y="-1912.3" font-family="Roboto" font-size="14.00" fill="#ffffff">firefox&#45;beta&#45;bin&#45;77.0b7 (3.25 MiB)</text>
</g>
<!-- N42&#45;&gt;N18 -->
<g id="edge23" class="edge">
<title>N42&#45;&gt;N18</title>
<path fill="none" stroke="black" d="M251.79,-1889.68C251.79,-1887.23 251.79,-1884.78 251.79,-1882.33"/>
<polygon fill="black" stroke="black" points="255.29,-1882.25 251.79,-1872.25 248.29,-1882.25 255.29,-1882.25"/>
</g>
<!-- N1 -->
<g id="node38" class="node">
<title>N1</title>
<polygon fill="#3ceaec" stroke="#3ceaec" points="371.47,-2748.54 371.47,-2763.46 301.36,-2774 202.21,-2774 132.11,-2763.46 132.11,-2748.54 202.21,-2738 301.36,-2738 371.47,-2748.54"/>
<polygon fill="none" stroke="#3ceaec" points="375.47,-2745.1 375.47,-2766.9 301.66,-2778 201.92,-2778 128.1,-2766.9 128.1,-2745.1 201.92,-2734 301.66,-2734 375.47,-2745.1"/>
<polygon fill="none" stroke="#3ceaec" points="379.48,-2741.66 379.48,-2770.34 301.96,-2782 201.62,-2782 124.1,-2770.34 124.1,-2741.66 201.62,-2730 301.96,-2730 379.48,-2741.66"/>
<text text-anchor="middle" x="251.79" y="-2752.3" font-family="Roboto" font-size="14.00" fill="#000000">elixir&#45;1.10.3 (309.97 MiB)</text>
</g>
<!-- N43 -->
<g id="node39" class="node">
<title>N43</title>
<polygon fill="#4071e1" stroke="#4071e1" points="353.8,-1068.54 353.8,-1083.46 294.04,-1094 209.53,-1094 149.78,-1083.46 149.78,-1068.54 209.53,-1058 294.04,-1058 353.8,-1068.54"/>
<polygon fill="none" stroke="#4071e1" points="357.8,-1065.19 357.8,-1086.81 294.39,-1098 209.18,-1098 145.78,-1086.81 145.78,-1065.19 209.18,-1054 294.39,-1054 357.8,-1065.19"/>
<polygon fill="none" stroke="#4071e1" points="361.8,-1061.83 361.8,-1090.17 294.74,-1102 208.83,-1102 141.78,-1090.17 141.78,-1061.83 208.83,-1050 294.74,-1050 361.8,-1061.83"/>
<text text-anchor="middle" x="251.79" y="-1072.3" font-family="Roboto" font-size="14.00" fill="#ffffff">piper&#45;0.4 (12.98 MiB)</text>
</g>
<!-- N43&#45;&gt;N29 -->
<g id="edge24" class="edge">
<title>N43&#45;&gt;N29</title>
<path fill="none" stroke="black" d="M361.95,-1071.34C399.59,-1066.55 441.15,-1057.57 476.46,-1041 534.18,-1013.93 586.62,-959.35 614.48,-926.91"/>
<polygon fill="black" stroke="black" points="617.24,-929.07 621.02,-919.17 611.89,-924.55 617.24,-929.07"/>
</g>
<!-- N44 -->
<g id="node40" class="node">
<title>N44</title>
<polygon fill="#4169e1" stroke="#4169e1" points="370.15,-648.54 370.15,-663.46 300.82,-674 202.76,-674 133.43,-663.46 133.43,-648.54 202.76,-638 300.82,-638 370.15,-648.54"/>
<polygon fill="none" stroke="#4169e1" points="374.16,-645.11 374.16,-666.89 301.12,-678 202.46,-678 129.42,-666.89 129.42,-645.11 202.46,-634 301.12,-634 374.16,-645.11"/>
<polygon fill="none" stroke="#4169e1" points="378.16,-641.67 378.16,-670.33 301.42,-682 202.15,-682 125.41,-670.33 125.41,-641.67 202.15,-630 301.42,-630 378.16,-641.67"/>
<text text-anchor="middle" x="251.79" y="-652.3" font-family="Roboto" font-size="14.00" fill="#ffffff">neovim&#45;0.4.3 (24.91 KiB)</text>
</g>
<!-- N44&#45;&gt;N26 -->
<g id="edge25" class="edge">
<title>N44&#45;&gt;N26</title>
<path fill="none" stroke="black" d="M378.03,-646.02C410.8,-640.83 445.58,-632.96 476.46,-621 526.09,-601.78 576.14,-565.25 606.47,-540.76"/>
<polygon fill="black" stroke="black" points="608.97,-543.24 614.49,-534.19 604.54,-537.82 608.97,-543.24"/>
</g>
</g>
</svg>
