<?xml version="1.0" encoding="UTF-8" standalone="no"?>
<!DOCTYPE svg PUBLIC "-//W3C//DTD SVG 1.1//EN"
 "http://www.w3.org/Graphics/SVG/1.1/DTD/svg11.dtd">
<!-- Generated by graphviz version 2.43.0 (0)
 -->
<!-- Title: nixstore Pages: 1 -->
<svg width="756pt" height="3490pt"
 viewBox="0.00 0.00 755.80 3490.00" xmlns="http://www.w3.org/2000/svg" xmlns:xlink="http://www.w3.org/1999/xlink">
<g id="graph0" class="graph" transform="scale(1 1) rotate(0) translate(4 3486)">
<title>nixstore</title>
<polygon fill="white" stroke="transparent" points="-4,4 -4,-3486 751.8,-3486 751.8,4 -4,4"/>
<!-- N58 -->
<g id="node1" class="node">
<title>N58</title>
<polygon fill="#fe0000" stroke="#fe0000" points="356.75,-18.54 356.75,-33.46 291.56,-44 199.36,-44 134.16,-33.46 134.16,-18.54 199.36,-8 291.56,-8 356.75,-18.54"/>
<polygon fill="none" stroke="#fe0000" points="360.76,-15.14 360.76,-36.86 291.88,-48 199.04,-48 130.16,-36.86 130.16,-15.14 199.04,-4 291.88,-4 360.76,-15.14"/>
<polygon fill="none" stroke="#fe0000" points="364.76,-11.74 364.76,-40.26 292.2,-52 198.71,-52 126.15,-40.26 126.15,-11.74 198.71,0 292.2,0 364.76,-11.74"/>
<text text-anchor="middle" x="245.46" y="-22.3" font-family="Times-Roman" font-size="14.00" fill="#000000">{filtered out} (2.26 GiB)</text>
</g>
<!-- N32 -->
<g id="node2" class="node">
<title>N32</title>
<polygon fill="#3dd3ea" stroke="#3dd3ea" points="436.66,-1768.54 436.66,-1783.46 324.66,-1794 166.26,-1794 54.25,-1783.46 54.25,-1768.54 166.26,-1758 324.66,-1758 436.66,-1768.54"/>
<polygon fill="none" stroke="#3dd3ea" points="440.66,-1764.9 440.66,-1787.1 324.84,-1798 166.07,-1798 50.25,-1787.1 50.25,-1764.9 166.07,-1754 324.84,-1754 440.66,-1764.9"/>
<polygon fill="none" stroke="#3dd3ea" points="444.66,-1761.26 444.66,-1790.74 325.03,-1802 165.88,-1802 46.26,-1790.74 46.26,-1761.26 165.88,-1750 325.03,-1750 444.66,-1761.26"/>
<text text-anchor="middle" x="245.46" y="-1772.3" font-family="Times-Roman" font-size="14.00" fill="#000000">tor&#45;browser&#45;bundle&#45;bin&#45;9.0.9 (223.43 MiB)</text>
</g>
<!-- N28 -->
<g id="node6" class="node">
<title>N28</title>
<polygon fill="#3ecee9" stroke="#3ecee9" points="392.52,-1628.54 392.52,-1643.46 306.37,-1654 184.54,-1654 98.4,-1643.46 98.4,-1628.54 184.54,-1618 306.37,-1618 392.52,-1628.54"/>
<polygon fill="none" stroke="#3ecee9" points="396.52,-1625 396.52,-1647 306.61,-1658 184.3,-1658 94.4,-1647 94.4,-1625 184.3,-1614 306.61,-1614 396.52,-1625"/>
<polygon fill="none" stroke="#3ecee9" points="400.52,-1621.46 400.52,-1650.54 306.86,-1662 184.06,-1662 90.4,-1650.54 90.4,-1621.46 184.06,-1610 306.86,-1610 400.52,-1621.46"/>
<text text-anchor="middle" x="245.46" y="-1632.3" font-family="Times-Roman" font-size="14.00" fill="#000000">glibc&#45;locales&#45;2.30 (209.50 MiB)</text>
</g>
<!-- N32&#45;&gt;N28 -->
<g id="edge1" class="edge">
<title>N32&#45;&gt;N28</title>
<path fill="none" stroke="black" d="M90.19,-1757.11C68.75,-1752.77 47.21,-1747.47 27.11,-1741 18.6,-1738.26 13.81,-1739.61 9.11,-1732 -3.04,-1712.34 -3.04,-1699.66 9.11,-1680 25.13,-1654.08 51.23,-1639.37 80.36,-1631.58"/>
<polygon fill="black" stroke="black" points="81.43,-1634.92 90.34,-1629.19 79.81,-1628.11 81.43,-1634.92"/>
</g>
<!-- N31 -->
<g id="node3" class="node">
<title>N31</title>
<polygon fill="#3af0d1" stroke="#3af0d1" points="355.43,-508.54 355.43,-523.46 291.01,-534 199.9,-534 135.48,-523.46 135.48,-508.54 199.9,-498 291.01,-498 355.43,-508.54"/>
<polygon fill="none" stroke="#3af0d1" points="359.44,-505.15 359.44,-526.85 291.34,-538 199.58,-538 131.48,-526.85 131.48,-505.15 199.58,-494 291.34,-494 359.44,-505.15"/>
<polygon fill="none" stroke="#3af0d1" points="363.45,-501.75 363.45,-530.25 291.66,-542 199.25,-542 127.47,-530.25 127.47,-501.75 199.25,-490 291.66,-490 363.45,-501.75"/>
<text text-anchor="middle" x="245.46" y="-512.3" font-family="Times-Roman" font-size="14.00" fill="#000000">go&#45;1.14.2 (392.12 MiB)</text>
</g>
<!-- N33 -->
<g id="node51" class="node">
<title>N33</title>
<polygon fill="#3fb5e6" stroke="#3fb5e6" points="701.3,-499 546.3,-499 546.3,-463 701.3,-463 701.3,-499"/>
<text text-anchor="middle" x="623.8" y="-477.3" font-family="Times-Roman" font-size="14.00" fill="#ffffff">gcc&#45;9.3.0 (144.20 MiB)</text>
</g>
<!-- N31&#45;&gt;N33 -->
<g id="edge2" class="edge">
<title>N31&#45;&gt;N33</title>
<path fill="none" stroke="black" d="M363.21,-505.14C419.06,-499.95 484.76,-493.84 536.09,-489.06"/>
<polygon fill="black" stroke="black" points="536.52,-492.54 546.15,-488.13 535.87,-485.57 536.52,-492.54"/>
</g>
<!-- N30 -->
<g id="node4" class="node">
<title>N30</title>
<polygon fill="#3beee2" stroke="#3beee2" points="365.14,-1838.54 365.14,-1853.46 295.03,-1864 195.88,-1864 125.78,-1853.46 125.78,-1838.54 195.88,-1828 295.03,-1828 365.14,-1838.54"/>
<polygon fill="none" stroke="#3beee2" points="369.14,-1835.1 369.14,-1856.9 295.33,-1868 195.58,-1868 121.77,-1856.9 121.77,-1835.1 195.58,-1824 295.33,-1824 369.14,-1835.1"/>
<polygon fill="none" stroke="#3beee2" points="373.14,-1831.66 373.14,-1860.34 295.63,-1872 195.28,-1872 117.77,-1860.34 117.77,-1831.66 195.28,-1820 295.63,-1820 373.14,-1831.66"/>
<text text-anchor="middle" x="245.46" y="-1842.3" font-family="Times-Roman" font-size="14.00" fill="#000000">elixir&#45;1.10.3 (338.41 MiB)</text>
</g>
<!-- N29 -->
<g id="node5" class="node">
<title>N29</title>
<polygon fill="#35f77e" stroke="#35f77e" points="386.77,-1418.54 386.77,-1433.46 303.99,-1444 186.92,-1444 104.15,-1433.46 104.15,-1418.54 186.92,-1408 303.99,-1408 386.77,-1418.54"/>
<polygon fill="none" stroke="#35f77e" points="390.76,-1415.02 390.76,-1436.98 304.24,-1448 186.67,-1448 100.15,-1436.98 100.15,-1415.02 186.67,-1404 304.24,-1404 390.76,-1415.02"/>
<polygon fill="none" stroke="#35f77e" points="394.76,-1411.5 394.76,-1440.5 304.5,-1452 186.42,-1452 96.15,-1440.5 96.15,-1411.5 186.42,-1400 304.5,-1400 394.76,-1411.5"/>
<text text-anchor="middle" x="245.46" y="-1422.3" font-family="Times-Roman" font-size="14.00" fill="#000000">wesnoth&#45;1.14.11 (570.10 MiB)</text>
</g>
<!-- N36 -->
<g id="node52" class="node">
<title>N36</title>
<polygon fill="#38f4af" stroke="#38f4af" points="719.3,-1269 528.3,-1269 528.3,-1233 719.3,-1233 719.3,-1269"/>
<text text-anchor="middle" x="623.8" y="-1247.3" font-family="Times-Roman" font-size="14.00" fill="#000000">libGL&#45;1.3.1&#45;dev (482.86 MiB)</text>
</g>
<!-- N29&#45;&gt;N36 -->
<g id="edge3" class="edge">
<title>N29&#45;&gt;N36</title>
<path fill="none" stroke="black" d="M394.81,-1413.58C418.57,-1408.38 442.37,-1401.11 463.8,-1391 521.45,-1363.8 573.92,-1309.26 601.8,-1276.87"/>
<polygon fill="black" stroke="black" points="604.55,-1279.03 608.34,-1269.14 599.21,-1274.51 604.55,-1279.03"/>
</g>
<!-- N41 -->
<g id="node7" class="node">
<title>N41</title>
<polygon fill="#4088e3" stroke="#4088e3" points="430.49,-1908.54 430.49,-1923.46 322.1,-1934 168.81,-1934 60.42,-1923.46 60.42,-1908.54 168.81,-1898 322.1,-1898 430.49,-1908.54"/>
<polygon fill="none" stroke="#4088e3" points="434.49,-1904.91 434.49,-1927.09 322.3,-1938 168.62,-1938 56.42,-1927.09 56.42,-1904.91 168.62,-1894 322.3,-1894 434.49,-1904.91"/>
<polygon fill="none" stroke="#4088e3" points="438.49,-1901.28 438.49,-1930.72 322.49,-1942 168.42,-1942 52.42,-1930.72 52.42,-1901.28 168.42,-1890 322.49,-1890 438.49,-1901.28"/>
<text text-anchor="middle" x="245.46" y="-1912.3" font-family="Times-Roman" font-size="14.00" fill="#ffffff">nvidia&#45;x11&#45;440.82&#45;5.6.15&#45;bin (50.53 MiB)</text>
</g>
<!-- N37 -->
<g id="node53" class="node">
<title>N37</title>
<polygon fill="#3cedea" stroke="#3cedea" points="747.8,-2004 499.8,-2004 499.8,-1968 747.8,-1968 747.8,-2004"/>
<text text-anchor="middle" x="623.8" y="-1982.3" font-family="Times-Roman" font-size="14.00" fill="#000000">nvidia&#45;x11&#45;440.82&#45;5.6.15 (308.03 MiB)</text>
</g>
<!-- N41&#45;&gt;N37 -->
<g id="edge4" class="edge">
<title>N41&#45;&gt;N37</title>
<path fill="none" stroke="black" d="M380.58,-1936.37C408.15,-1940.9 436.96,-1945.89 463.8,-1951 487,-1955.42 512,-1960.68 535.15,-1965.77"/>
<polygon fill="black" stroke="black" points="534.42,-1969.19 544.94,-1967.93 535.93,-1962.36 534.42,-1969.19"/>
</g>
<!-- N42 -->
<g id="node8" class="node">
<title>N42</title>
<polygon fill="#4078e1" stroke="#4078e1" points="347.47,-1348.54 347.47,-1363.46 287.71,-1374 203.2,-1374 143.44,-1363.46 143.44,-1348.54 203.2,-1338 287.71,-1338 347.47,-1348.54"/>
<polygon fill="none" stroke="#4078e1" points="351.47,-1345.19 351.47,-1366.81 288.06,-1378 202.85,-1378 139.44,-1366.81 139.44,-1345.19 202.85,-1334 288.06,-1334 351.47,-1345.19"/>
<polygon fill="none" stroke="#4078e1" points="355.47,-1341.83 355.47,-1370.17 288.41,-1382 202.5,-1382 135.44,-1370.17 135.44,-1341.83 202.5,-1330 288.41,-1330 355.47,-1341.83"/>
<text text-anchor="middle" x="245.46" y="-1352.3" font-family="Times-Roman" font-size="14.00" fill="#ffffff">piper&#45;0.4 (22.46 MiB)</text>
</g>
<!-- N42&#45;&gt;N36 -->
<g id="edge5" class="edge">
<title>N42&#45;&gt;N36</title>
<path fill="none" stroke="black" d="M355.74,-1343.96C390.69,-1338.64 429.25,-1331.2 463.8,-1321 504.3,-1309.04 548.06,-1289.22 579.4,-1273.72"/>
<polygon fill="black" stroke="black" points="581.34,-1276.67 588.71,-1269.06 578.2,-1270.41 581.34,-1276.67"/>
</g>
<!-- N27 -->
<g id="node9" class="node">
<title>N27</title>
<polygon fill="#3fabe6" stroke="#3fabe6" points="394.73,-2118.54 394.73,-2133.46 307.29,-2144 183.63,-2144 96.18,-2133.46 96.18,-2118.54 183.63,-2108 307.29,-2108 394.73,-2118.54"/>
<polygon fill="none" stroke="#3fabe6" points="398.73,-2115 398.73,-2137 307.53,-2148 183.38,-2148 92.18,-2137 92.18,-2115 183.38,-2104 307.53,-2104 398.73,-2115"/>
<polygon fill="none" stroke="#3fabe6" points="402.74,-2111.45 402.74,-2140.55 307.77,-2152 183.14,-2152 88.18,-2140.55 88.18,-2111.45 183.14,-2100 307.77,-2100 402.74,-2111.45"/>
<text text-anchor="middle" x="245.46" y="-2122.3" font-family="Times-Roman" font-size="14.00" fill="#ffffff">wireshark&#45;cli&#45;3.2.4 (121.83 MiB)</text>
</g>
<!-- N26 -->
<g id="node10" class="node">
<title>N26</title>
<polygon fill="#3eb8e7" stroke="#3eb8e7" points="365.56,-2188.54 365.56,-2203.46 295.21,-2214 195.71,-2214 125.35,-2203.46 125.35,-2188.54 195.71,-2178 295.21,-2178 365.56,-2188.54"/>
<polygon fill="none" stroke="#3eb8e7" points="369.56,-2185.1 369.56,-2206.9 295.5,-2218 195.41,-2218 121.36,-2206.9 121.36,-2185.1 195.41,-2174 295.5,-2174 369.56,-2185.1"/>
<polygon fill="none" stroke="#3eb8e7" points="373.55,-2181.65 373.55,-2210.35 295.8,-2222 195.11,-2222 117.36,-2210.35 117.36,-2181.65 195.11,-2170 295.8,-2170 373.55,-2181.65"/>
<text text-anchor="middle" x="245.46" y="-2192.3" font-family="Times-Roman" font-size="14.00" fill="#000000">emacs&#45;26.3 (152.38 MiB)</text>
</g>
<!-- N25 -->
<g id="node11" class="node">
<title>N25</title>
<polygon fill="#fed100" stroke="#fed100" points="362.92,-1488.54 362.92,-1503.46 294.11,-1514 196.8,-1514 127.99,-1503.46 127.99,-1488.54 196.8,-1478 294.11,-1478 362.92,-1488.54"/>
<polygon fill="none" stroke="#fed100" points="366.92,-1485.11 366.92,-1506.89 294.42,-1518 196.5,-1518 123.99,-1506.89 123.99,-1485.11 196.5,-1474 294.42,-1474 366.92,-1485.11"/>
<polygon fill="none" stroke="#fed100" points="370.92,-1481.68 370.92,-1510.32 294.72,-1522 196.19,-1522 119.99,-1510.32 119.99,-1481.68 196.19,-1470 294.72,-1470 370.92,-1481.68"/>
<text text-anchor="middle" x="245.46" y="-1492.3" font-family="Times-Roman" font-size="14.00" fill="#000000">wine&#45;wow&#45;5.0 (1.55 GiB)</text>
</g>
<!-- N25&#45;&gt;N36 -->
<g id="edge6" class="edge">
<title>N25&#45;&gt;N36</title>
<path fill="none" stroke="black" d="M371.13,-1492.32C403.03,-1487.11 436.12,-1477.64 463.8,-1461 537.53,-1416.68 588.76,-1324.1 610.74,-1278.12"/>
<polygon fill="black" stroke="black" points="613.92,-1279.59 614.99,-1269.05 607.58,-1276.62 613.92,-1279.59"/>
</g>
<!-- N39 -->
<g id="node54" class="node">
<title>N39</title>
<polygon fill="#3fb1e6" stroke="#3fb1e6" points="728.3,-1522 519.3,-1522 519.3,-1486 728.3,-1486 728.3,-1522"/>
<text text-anchor="middle" x="623.8" y="-1500.3" font-family="Times-Roman" font-size="14.00" fill="#ffffff">systemd&#45;245.5&#45;lib (135.38 MiB)</text>
</g>
<!-- N25&#45;&gt;N39 -->
<g id="edge7" class="edge">
<title>N25&#45;&gt;N39</title>
<path fill="none" stroke="black" d="M370.99,-1498.65C415.57,-1499.59 465.55,-1500.66 509.16,-1501.58"/>
<polygon fill="black" stroke="black" points="509.15,-1505.08 519.23,-1501.8 509.3,-1498.09 509.15,-1505.08"/>
</g>
<!-- N43 -->
<g id="node12" class="node">
<title>N43</title>
<polygon fill="#408ce3" stroke="#408ce3" points="388.09,-1278.54 388.09,-1293.46 304.54,-1304 186.38,-1304 102.83,-1293.46 102.83,-1278.54 186.38,-1268 304.54,-1268 388.09,-1278.54"/>
<polygon fill="none" stroke="#408ce3" points="392.08,-1275.02 392.08,-1296.98 304.79,-1308 186.13,-1308 98.83,-1296.98 98.83,-1275.02 186.13,-1264 304.79,-1264 392.08,-1275.02"/>
<polygon fill="none" stroke="#408ce3" points="396.08,-1271.49 396.08,-1300.51 305.04,-1312 185.88,-1312 94.84,-1300.51 94.84,-1271.49 185.88,-1260 305.04,-1260 396.08,-1271.49"/>
<text text-anchor="middle" x="245.46" y="-1282.3" font-family="Times-Roman" font-size="14.00" fill="#ffffff">virt&#45;manager&#45;2.2.1 (57.28 MiB)</text>
</g>
<!-- N43&#45;&gt;N36 -->
<g id="edge8" class="edge">
<title>N43&#45;&gt;N36</title>
<path fill="none" stroke="black" d="M396.28,-1272.07C437.11,-1268.27 480.46,-1264.24 518.19,-1260.73"/>
<polygon fill="black" stroke="black" points="518.53,-1264.21 528.16,-1259.8 517.88,-1257.24 518.53,-1264.21"/>
</g>
<!-- N24 -->
<g id="node13" class="node">
<title>N24</title>
<polygon fill="#d5fe27" stroke="#d5fe27" points="362.92,-438.54 362.92,-453.46 294.11,-464 196.8,-464 127.99,-453.46 127.99,-438.54 196.8,-428 294.11,-428 362.92,-438.54"/>
<polygon fill="none" stroke="#d5fe27" points="366.92,-435.11 366.92,-456.89 294.42,-468 196.5,-468 123.99,-456.89 123.99,-435.11 196.5,-424 294.42,-424 366.92,-435.11"/>
<polygon fill="none" stroke="#d5fe27" points="370.92,-431.68 370.92,-460.32 294.72,-472 196.19,-472 119.99,-460.32 119.99,-431.68 196.19,-420 294.72,-420 370.92,-431.68"/>
<text text-anchor="middle" x="245.46" y="-442.3" font-family="Times-Roman" font-size="14.00" fill="#000000">unar&#45;1.10.7 (990.98 MiB)</text>
</g>
<!-- N24&#45;&gt;N33 -->
<g id="edge9" class="edge">
<title>N24&#45;&gt;N33</title>
<path fill="none" stroke="black" d="M370.99,-457.58C425.04,-462.61 487.03,-468.37 535.98,-472.93"/>
<polygon fill="black" stroke="black" points="535.94,-476.44 546.22,-473.88 536.59,-469.47 535.94,-476.44"/>
</g>
<!-- N44 -->
<g id="node14" class="node">
<title>N44</title>
<polygon fill="#406ae1" stroke="#406ae1" points="400.9,-1978.54 400.9,-1993.46 309.84,-2004 181.07,-2004 90.01,-1993.46 90.01,-1978.54 181.07,-1968 309.84,-1968 400.9,-1978.54"/>
<polygon fill="none" stroke="#406ae1" points="404.9,-1974.98 404.9,-1997.02 310.08,-2008 180.84,-2008 86.01,-1997.02 86.01,-1974.98 180.84,-1964 310.08,-1964 404.9,-1974.98"/>
<polygon fill="none" stroke="#406ae1" points="408.9,-1971.42 408.9,-2000.58 310.31,-2012 180.61,-2012 82.01,-2000.58 82.01,-1971.42 180.61,-1960 310.31,-1960 408.9,-1971.42"/>
<text text-anchor="middle" x="245.46" y="-1982.3" font-family="Times-Roman" font-size="14.00" fill="#ffffff">nvidia&#45;settings&#45;440.82 (1.70 MiB)</text>
</g>
<!-- N44&#45;&gt;N41 -->
<g id="edge10" class="edge">
<title>N44&#45;&gt;N41</title>
<path fill="none" stroke="black" d="M245.46,-1959.68C245.46,-1957.23 245.46,-1954.78 245.46,-1952.33"/>
<polygon fill="black" stroke="black" points="248.96,-1952.25 245.46,-1942.25 241.96,-1952.25 248.96,-1952.25"/>
</g>
<!-- N23 -->
<g id="node15" class="node">
<title>N23</title>
<polygon fill="#3ce9ec" stroke="#3ce9ec" points="371.31,-2258.54 371.31,-2273.46 297.59,-2284 193.33,-2284 119.6,-2273.46 119.6,-2258.54 193.33,-2248 297.59,-2248 371.31,-2258.54"/>
<polygon fill="none" stroke="#3ce9ec" points="375.31,-2255.08 375.31,-2276.92 297.87,-2288 193.04,-2288 115.6,-2276.92 115.6,-2255.08 193.04,-2244 297.87,-2244 375.31,-2255.08"/>
<polygon fill="none" stroke="#3ce9ec" points="379.31,-2251.61 379.31,-2280.39 298.16,-2292 192.76,-2292 111.61,-2280.39 111.61,-2251.61 192.76,-2240 298.16,-2240 379.31,-2251.61"/>
<text text-anchor="middle" x="245.46" y="-2262.3" font-family="Times-Roman" font-size="14.00" fill="#000000">etcher&#45;1.5.86 (285.13 MiB)</text>
</g>
<!-- N45 -->
<g id="node16" class="node">
<title>N45</title>
<polygon fill="#4087e2" stroke="#4087e2" points="419.89,-1698.54 419.89,-1713.46 317.71,-1724 173.2,-1724 71.02,-1713.46 71.02,-1698.54 173.2,-1688 317.71,-1688 419.89,-1698.54"/>
<polygon fill="none" stroke="#4087e2" points="423.89,-1694.94 423.89,-1717.06 317.92,-1728 173,-1728 67.02,-1717.06 67.02,-1694.94 173,-1684 317.92,-1684 423.89,-1694.94"/>
<polygon fill="none" stroke="#4087e2" points="427.89,-1691.33 427.89,-1720.67 318.12,-1732 172.79,-1732 63.02,-1720.67 63.02,-1691.33 172.79,-1680 318.12,-1680 427.89,-1691.33"/>
<text text-anchor="middle" x="245.46" y="-1702.3" font-family="Times-Roman" font-size="14.00" fill="#ffffff">openra&#45;release&#45;20190314 (47.51 MiB)</text>
</g>
<!-- N38 -->
<g id="node55" class="node">
<title>N38</title>
<polygon fill="#3befde" stroke="#3befde" points="721.3,-1654 526.3,-1654 526.3,-1618 721.3,-1618 721.3,-1654"/>
<text text-anchor="middle" x="623.8" y="-1632.3" font-family="Times-Roman" font-size="14.00" fill="#000000">mono&#45;5.20.1.27 (349.63 MiB)</text>
</g>
<!-- N45&#45;&gt;N38 -->
<g id="edge11" class="edge">
<title>N45&#45;&gt;N38</title>
<path fill="none" stroke="black" d="M377.69,-1686.1C406.14,-1681.45 436.02,-1676.29 463.8,-1671 487,-1666.58 512,-1661.32 535.15,-1656.23"/>
<polygon fill="black" stroke="black" points="535.93,-1659.64 544.94,-1654.07 534.42,-1652.81 535.93,-1659.64"/>
</g>
<!-- N22 -->
<g id="node17" class="node">
<title>N22</title>
<polygon fill="#3de1eb" stroke="#3de1eb" points="425.64,-2328.54 425.64,-2343.46 320.09,-2354 170.82,-2354 65.27,-2343.46 65.27,-2328.54 170.82,-2318 320.09,-2318 425.64,-2328.54"/>
<polygon fill="none" stroke="#3de1eb" points="429.64,-2324.92 429.64,-2347.08 320.29,-2358 170.62,-2358 61.27,-2347.08 61.27,-2324.92 170.62,-2314 320.29,-2314 429.64,-2324.92"/>
<polygon fill="none" stroke="#3de1eb" points="433.65,-2321.3 433.65,-2350.7 320.49,-2362 170.42,-2362 57.27,-2350.7 57.27,-2321.3 170.42,-2310 320.49,-2310 433.65,-2321.3"/>
<text text-anchor="middle" x="245.46" y="-2332.3" font-family="Times-Roman" font-size="14.00" fill="#000000">qemu&#45;host&#45;cpu&#45;only&#45;4.2.0 (263.29 MiB)</text>
</g>
<!-- N46 -->
<g id="node18" class="node">
<title>N46</title>
<polygon fill="#4069e1" stroke="#4069e1" points="430.49,-2048.54 430.49,-2063.46 322.1,-2074 168.81,-2074 60.42,-2063.46 60.42,-2048.54 168.81,-2038 322.1,-2038 430.49,-2048.54"/>
<polygon fill="none" stroke="#4069e1" points="434.49,-2044.91 434.49,-2067.09 322.3,-2078 168.62,-2078 56.42,-2067.09 56.42,-2044.91 168.62,-2034 322.3,-2034 434.49,-2044.91"/>
<polygon fill="none" stroke="#4069e1" points="438.49,-2041.28 438.49,-2070.72 322.49,-2082 168.42,-2082 52.42,-2070.72 52.42,-2041.28 168.42,-2030 322.49,-2030 438.49,-2041.28"/>
<text text-anchor="middle" x="245.46" y="-2052.3" font-family="Times-Roman" font-size="14.00" fill="#ffffff">nvidia&#45;persistenced&#45;440.82 (115.81 KiB)</text>
</g>
<!-- N46&#45;&gt;N37 -->
<g id="edge12" class="edge">
<title>N46&#45;&gt;N37</title>
<path fill="none" stroke="black" d="M380.58,-2035.63C408.15,-2031.1 436.96,-2026.11 463.8,-2021 487,-2016.58 512,-2011.32 535.15,-2006.23"/>
<polygon fill="black" stroke="black" points="535.93,-2009.64 544.94,-2004.07 534.42,-2002.81 535.93,-2009.64"/>
</g>
<!-- N21 -->
<g id="node19" class="node">
<title>N21</title>
<polygon fill="#3ec3e8" stroke="#3ec3e8" points="422.11,-2398.54 422.11,-2413.46 318.63,-2424 172.29,-2424 68.81,-2413.46 68.81,-2398.54 172.29,-2388 318.63,-2388 422.11,-2398.54"/>
<polygon fill="none" stroke="#3ec3e8" points="426.11,-2394.93 426.11,-2417.07 318.83,-2428 172.08,-2428 64.81,-2417.07 64.81,-2394.93 172.08,-2384 318.83,-2384 426.11,-2394.93"/>
<polygon fill="none" stroke="#3ec3e8" points="430.11,-2391.32 430.11,-2420.68 319.03,-2432 171.88,-2432 60.8,-2420.68 60.8,-2391.32 171.88,-2380 319.03,-2380 430.11,-2391.32"/>
<text text-anchor="middle" x="245.46" y="-2402.3" font-family="Times-Roman" font-size="14.00" fill="#000000">firefox&#45;unwrapped&#45;76.0.1 (178.78 MiB)</text>
</g>
<!-- N47 -->
<g id="node20" class="node">
<title>N47</title>
<polygon fill="#406be1" stroke="#406be1" points="360.71,-368.54 360.71,-383.46 293.2,-394 197.72,-394 130.2,-383.46 130.2,-368.54 197.72,-358 293.2,-358 360.71,-368.54"/>
<polygon fill="none" stroke="#406be1" points="364.71,-365.12 364.71,-386.88 293.51,-398 197.41,-398 126.21,-386.88 126.21,-365.12 197.41,-354 293.51,-354 364.71,-365.12"/>
<polygon fill="none" stroke="#406be1" points="368.7,-361.7 368.7,-390.3 293.82,-402 197.1,-402 122.21,-390.3 122.21,-361.7 197.1,-350 293.82,-350 368.7,-361.7"/>
<text text-anchor="middle" x="245.46" y="-372.3" font-family="Times-Roman" font-size="14.00" fill="#ffffff">polybar&#45;3.4.3 (3.23 MiB)</text>
</g>
<!-- N47&#45;&gt;N33 -->
<g id="edge13" class="edge">
<title>N47&#45;&gt;N33</title>
<path fill="none" stroke="black" d="M368.96,-390.13C400.24,-395.26 433.56,-402.07 463.8,-411 504.3,-422.96 548.06,-442.78 579.4,-458.28"/>
<polygon fill="black" stroke="black" points="578.2,-461.59 588.71,-462.94 581.34,-455.33 578.2,-461.59"/>
</g>
<!-- N48 -->
<g id="node21" class="node">
<title>N48</title>
<polygon fill="#4169e1" stroke="#4169e1" points="377.48,-2678.54 377.48,-2693.46 300.14,-2704 190.77,-2704 113.43,-2693.46 113.43,-2678.54 190.77,-2668 300.14,-2668 377.48,-2678.54"/>
<polygon fill="none" stroke="#4169e1" points="381.48,-2675.05 381.48,-2696.95 300.41,-2708 190.5,-2708 109.44,-2696.95 109.44,-2675.05 190.5,-2664 300.41,-2664 381.48,-2675.05"/>
<polygon fill="none" stroke="#4169e1" points="385.47,-2671.56 385.47,-2700.44 300.69,-2712 190.23,-2712 105.44,-2700.44 105.44,-2671.56 190.23,-2660 300.69,-2660 385.47,-2671.56"/>
<text text-anchor="middle" x="245.46" y="-2682.3" font-family="Times-Roman" font-size="14.00" fill="#ffffff">libreoffice&#45;6.4.3.2 (3.55 KiB)</text>
</g>
<!-- N16 -->
<g id="node27" class="node">
<title>N16</title>
<polygon fill="#37f697" stroke="#37f697" points="390.3,-2608.54 390.3,-2623.46 305.45,-2634 185.46,-2634 100.61,-2623.46 100.61,-2608.54 185.46,-2598 305.45,-2598 390.3,-2608.54"/>
<polygon fill="none" stroke="#37f697" points="394.3,-2605.01 394.3,-2626.99 305.7,-2638 185.21,-2638 96.62,-2626.99 96.62,-2605.01 185.21,-2594 305.7,-2594 394.3,-2605.01"/>
<polygon fill="none" stroke="#37f697" points="398.3,-2601.48 398.3,-2630.52 305.95,-2642 184.97,-2642 92.62,-2630.52 92.62,-2601.48 184.97,-2590 305.95,-2590 398.3,-2601.48"/>
<text text-anchor="middle" x="245.46" y="-2612.3" font-family="Times-Roman" font-size="14.00" fill="#000000">libreoffice&#45;6.4.3.2 (530.58 MiB)</text>
</g>
<!-- N48&#45;&gt;N16 -->
<g id="edge14" class="edge">
<title>N48&#45;&gt;N16</title>
<path fill="none" stroke="black" d="M245.46,-2659.68C245.46,-2657.23 245.46,-2654.78 245.46,-2652.33"/>
<polygon fill="black" stroke="black" points="248.96,-2652.25 245.46,-2642.25 241.96,-2652.25 248.96,-2652.25"/>
</g>
<!-- N20 -->
<g id="node22" class="node">
<title>N20</title>
<polygon fill="#3cede9" stroke="#3cede9" points="352.32,-2748.54 352.32,-2763.46 289.72,-2774 201.19,-2774 138.59,-2763.46 138.59,-2748.54 201.19,-2738 289.72,-2738 352.32,-2748.54"/>
<polygon fill="none" stroke="#3cede9" points="356.32,-2745.16 356.32,-2766.84 290.06,-2778 200.86,-2778 134.59,-2766.84 134.59,-2745.16 200.86,-2734 290.06,-2734 356.32,-2745.16"/>
<polygon fill="none" stroke="#3cede9" points="360.32,-2741.78 360.32,-2770.22 290.39,-2782 200.52,-2782 130.6,-2770.22 130.6,-2741.78 200.52,-2730 290.39,-2730 360.32,-2741.78"/>
<text text-anchor="middle" x="245.46" y="-2752.3" font-family="Times-Roman" font-size="14.00" fill="#000000">ino&#45;0.3.6 (310.79 MiB)</text>
</g>
<!-- N49 -->
<g id="node23" class="node">
<title>N49</title>
<polygon fill="#4073e1" stroke="#4073e1" points="373.53,-1208.54 373.53,-1223.46 298.5,-1234 192.41,-1234 117.39,-1223.46 117.39,-1208.54 192.41,-1198 298.5,-1198 373.53,-1208.54"/>
<polygon fill="none" stroke="#4073e1" points="377.53,-1205.07 377.53,-1226.93 298.78,-1238 192.13,-1238 113.39,-1226.93 113.39,-1205.07 192.13,-1194 298.78,-1194 377.53,-1205.07"/>
<polygon fill="none" stroke="#4073e1" points="381.53,-1201.59 381.53,-1230.41 299.06,-1242 191.85,-1242 109.39,-1230.41 109.39,-1201.59 191.85,-1190 299.06,-1190 381.53,-1201.59"/>
<text text-anchor="middle" x="245.46" y="-1212.3" font-family="Times-Roman" font-size="14.00" fill="#ffffff">tigervnc&#45;1.10.1 (15.64 MiB)</text>
</g>
<!-- N49&#45;&gt;N36 -->
<g id="edge15" class="edge">
<title>N49&#45;&gt;N36</title>
<path fill="none" stroke="black" d="M381.53,-1228.56C426.52,-1232.75 475.91,-1237.34 518.23,-1241.28"/>
<polygon fill="black" stroke="black" points="517.99,-1244.77 528.27,-1242.21 518.64,-1237.8 517.99,-1244.77"/>
</g>
<!-- N19 -->
<g id="node24" class="node">
<title>N19</title>
<polygon fill="#3de0eb" stroke="#3de0eb" points="358.07,-788.54 358.07,-803.46 292.1,-814 198.81,-814 132.84,-803.46 132.84,-788.54 198.81,-778 292.1,-778 358.07,-788.54"/>
<polygon fill="none" stroke="#3de0eb" points="362.07,-785.13 362.07,-806.87 292.42,-818 198.49,-818 128.84,-806.87 128.84,-785.13 198.49,-774 292.42,-774 362.07,-785.13"/>
<polygon fill="none" stroke="#3de0eb" points="366.07,-781.72 366.07,-810.28 292.74,-822 198.17,-822 124.84,-810.28 124.84,-781.72 198.17,-770 292.74,-770 366.07,-781.72"/>
<text text-anchor="middle" x="245.46" y="-792.3" font-family="Times-Roman" font-size="14.00" fill="#000000">cura&#45;4.6.1 (259.78 MiB)</text>
</g>
<!-- N40 -->
<g id="node56" class="node">
<title>N40</title>
<polygon fill="#3fb4e6" stroke="#3fb4e6" points="699.3,-919 548.3,-919 548.3,-883 699.3,-883 699.3,-919"/>
<text text-anchor="middle" x="623.8" y="-897.3" font-family="Times-Roman" font-size="14.00" fill="#ffffff">lapack&#45;3 (143.49 MiB)</text>
</g>
<!-- N19&#45;&gt;N40 -->
<g id="edge16" class="edge">
<title>N19&#45;&gt;N40</title>
<path fill="none" stroke="black" d="M366.13,-809.67C398.22,-814.85 432.65,-821.8 463.8,-831 504.3,-842.96 548.06,-862.78 579.4,-878.28"/>
<polygon fill="black" stroke="black" points="578.2,-881.59 588.71,-882.94 581.34,-875.33 578.2,-881.59"/>
</g>
<!-- N18 -->
<g id="node25" class="node">
<title>N18</title>
<polygon fill="#3ebee7" stroke="#3ebee7" points="388.98,-298.54 388.98,-313.46 304.91,-324 186.01,-324 101.93,-313.46 101.93,-298.54 186.01,-288 304.91,-288 388.98,-298.54"/>
<polygon fill="none" stroke="#3ebee7" points="392.98,-295.01 392.98,-316.99 305.16,-328 185.76,-328 97.93,-316.99 97.93,-295.01 185.76,-284 305.16,-284 392.98,-295.01"/>
<polygon fill="none" stroke="#3ebee7" points="396.98,-291.48 396.98,-320.52 305.41,-332 185.51,-332 93.93,-320.52 93.93,-291.48 185.51,-280 305.41,-280 396.98,-291.48"/>
<text text-anchor="middle" x="245.46" y="-302.3" font-family="Times-Roman" font-size="14.00" fill="#000000">upwork&#45;5.3.3.862 (168.58 MiB)</text>
</g>
<!-- N18&#45;&gt;N33 -->
<g id="edge17" class="edge">
<title>N18&#45;&gt;N33</title>
<path fill="none" stroke="black" d="M397.11,-318.93C420.1,-324.1 443.06,-331.22 463.8,-341 521.45,-368.2 573.92,-422.74 601.8,-455.13"/>
<polygon fill="black" stroke="black" points="599.21,-457.49 608.34,-462.86 604.55,-452.97 599.21,-457.49"/>
</g>
<!-- N17 -->
<g id="node26" class="node">
<title>N17</title>
<polygon fill="#cefe28" stroke="#cefe28" points="342.61,-1558.54 342.61,-1573.46 285.7,-1584 205.21,-1584 148.3,-1573.46 148.3,-1558.54 205.21,-1548 285.7,-1548 342.61,-1558.54"/>
<polygon fill="none" stroke="#cefe28" points="346.62,-1555.22 346.62,-1576.78 286.07,-1588 204.84,-1588 144.3,-1576.78 144.3,-1555.22 204.84,-1544 286.07,-1544 346.62,-1555.22"/>
<polygon fill="none" stroke="#cefe28" points="350.62,-1551.89 350.62,-1580.11 286.44,-1592 204.48,-1592 140.29,-1580.11 140.29,-1551.89 204.48,-1540 286.44,-1540 350.62,-1551.89"/>
<text text-anchor="middle" x="245.46" y="-1562.3" font-family="Times-Roman" font-size="14.00" fill="#000000">steam (949.70 MiB)</text>
</g>
<!-- N17&#45;&gt;N28 -->
<g id="edge18" class="edge">
<title>N17&#45;&gt;N28</title>
<path fill="none" stroke="black" d="M245.46,-1592.25C245.46,-1594.7 245.46,-1597.15 245.46,-1599.6"/>
<polygon fill="black" stroke="black" points="241.96,-1599.68 245.46,-1609.68 248.96,-1599.68 241.96,-1599.68"/>
</g>
<!-- N17&#45;&gt;N39 -->
<g id="edge20" class="edge">
<title>N17&#45;&gt;N39</title>
<path fill="none" stroke="black" d="M343.59,-1550.54C381.15,-1544.51 424.49,-1537.5 463.8,-1531 478.42,-1528.58 493.78,-1526.01 508.97,-1523.45"/>
<polygon fill="black" stroke="black" points="509.63,-1526.89 518.91,-1521.77 508.46,-1519.99 509.63,-1526.89"/>
</g>
<!-- N17&#45;&gt;N38 -->
<g id="edge19" class="edge">
<title>N17&#45;&gt;N38</title>
<path fill="none" stroke="black" d="M346.48,-1580.88C383.43,-1586.7 425.6,-1593.73 463.8,-1601 487,-1605.42 512,-1610.68 535.15,-1615.77"/>
<polygon fill="black" stroke="black" points="534.42,-1619.19 544.94,-1617.93 535.93,-1612.36 534.42,-1619.19"/>
</g>
<!-- N34 -->
<g id="node57" class="node">
<title>N34</title>
<polygon fill="#3ecae9" stroke="#3ecae9" points="731.3,-2599 516.3,-2599 516.3,-2563 731.3,-2563 731.3,-2599"/>
<text text-anchor="middle" x="623.8" y="-2577.3" font-family="Times-Roman" font-size="14.00" fill="#000000">openjdk&#45;8u242&#45;b08 (197.17 MiB)</text>
</g>
<!-- N16&#45;&gt;N34 -->
<g id="edge21" class="edge">
<title>N16&#45;&gt;N34</title>
<path fill="none" stroke="black" d="M398.45,-2601.87C434.37,-2598.52 472.13,-2595.01 506.21,-2591.84"/>
<polygon fill="black" stroke="black" points="506.55,-2595.33 516.19,-2590.92 505.9,-2588.36 506.55,-2595.33"/>
</g>
<!-- N15 -->
<g id="node28" class="node">
<title>N15</title>
<polygon fill="#fe5100" stroke="#fe5100" points="427.86,-228.54 427.86,-243.46 321.01,-254 169.9,-254 63.06,-243.46 63.06,-228.54 169.9,-218 321.01,-218 427.86,-228.54"/>
<polygon fill="none" stroke="#fe5100" points="431.86,-224.92 431.86,-247.08 321.21,-258 169.71,-258 59.05,-247.08 59.05,-224.92 169.71,-214 321.21,-214 431.86,-224.92"/>
<polygon fill="none" stroke="#fe5100" points="435.87,-221.3 435.87,-250.7 321.4,-262 169.51,-262 55.05,-250.7 55.05,-221.3 169.51,-210 321.4,-210 435.87,-221.3"/>
<text text-anchor="middle" x="245.46" y="-232.3" font-family="Times-Roman" font-size="14.00" fill="#000000">xmonad&#45;with&#45;packages&#45;8.8.3 (2.17 GiB)</text>
</g>
<!-- N15&#45;&gt;N33 -->
<g id="edge22" class="edge">
<title>N15&#45;&gt;N33</title>
<path fill="none" stroke="black" d="M422.11,-252.07C436.74,-257.01 450.86,-263.22 463.8,-271 537.53,-315.32 588.76,-407.9 610.74,-453.88"/>
<polygon fill="black" stroke="black" points="607.58,-455.38 614.99,-462.95 613.92,-452.41 607.58,-455.38"/>
</g>
<!-- N50 -->
<g id="node29" class="node">
<title>N50</title>
<polygon fill="#4074e1" stroke="#4074e1" points="374.42,-88.54 374.42,-103.46 298.88,-114 192.04,-114 116.49,-103.46 116.49,-88.54 192.04,-78 298.88,-78 374.42,-88.54"/>
<polygon fill="none" stroke="#4074e1" points="378.43,-85.06 378.43,-106.94 299.15,-118 191.76,-118 112.49,-106.94 112.49,-85.06 191.76,-74 299.15,-74 378.43,-85.06"/>
<polygon fill="none" stroke="#4074e1" points="382.44,-81.58 382.44,-110.42 299.43,-122 191.48,-122 108.48,-110.42 108.48,-81.58 191.48,-70 299.43,-70 382.44,-81.58"/>
<text text-anchor="middle" x="245.46" y="-92.3" font-family="Times-Roman" font-size="14.00" fill="#ffffff">nomacs&#45;3.14.2 (16.55 MiB)</text>
</g>
<!-- N35 -->
<g id="node58" class="node">
<title>N35</title>
<polygon fill="#3fa1e5" stroke="#3fa1e5" points="708.8,-149 538.8,-149 538.8,-113 708.8,-113 708.8,-149"/>
<text text-anchor="middle" x="623.8" y="-127.3" font-family="Times-Roman" font-size="14.00" fill="#ffffff">opencv&#45;4.3.0 (98.60 MiB)</text>
</g>
<!-- N50&#45;&gt;N35 -->
<g id="edge23" class="edge">
<title>N50&#45;&gt;N35</title>
<path fill="none" stroke="black" d="M382.33,-108.64C430.77,-113.14 484.23,-118.11 528.43,-122.22"/>
<polygon fill="black" stroke="black" points="528.3,-125.73 538.58,-123.17 528.94,-118.76 528.3,-125.73"/>
</g>
<!-- N14 -->
<g id="node30" class="node">
<title>N14</title>
<polygon fill="#3cedea" stroke="#3cedea" points="438.88,-2818.54 438.88,-2833.46 325.58,-2844 165.34,-2844 52.03,-2833.46 52.03,-2818.54 165.34,-2808 325.58,-2808 438.88,-2818.54"/>
<polygon fill="none" stroke="#3cedea" points="442.88,-2814.9 442.88,-2837.1 325.76,-2848 165.15,-2848 48.04,-2837.1 48.04,-2814.9 165.15,-2804 325.76,-2804 442.88,-2814.9"/>
<polygon fill="none" stroke="#3cedea" points="446.88,-2811.25 446.88,-2840.75 325.95,-2852 164.97,-2852 44.04,-2840.75 44.04,-2811.25 164.97,-2800 325.95,-2800 446.88,-2811.25"/>
<text text-anchor="middle" x="245.46" y="-2822.3" font-family="Times-Roman" font-size="14.00" fill="#000000">google&#45;chrome&#45;83.0.4103.61 (305.72 MiB)</text>
</g>
<!-- N13 -->
<g id="node31" class="node">
<title>N13</title>
<polygon fill="#3ce5ec" stroke="#3ce5ec" points="357.18,-2888.54 357.18,-2903.46 291.73,-2914 199.18,-2914 133.74,-2903.46 133.74,-2888.54 199.18,-2878 291.73,-2878 357.18,-2888.54"/>
<polygon fill="none" stroke="#3ce5ec" points="361.17,-2885.14 361.17,-2906.86 292.05,-2918 198.86,-2918 129.74,-2906.86 129.74,-2885.14 198.86,-2874 292.05,-2874 361.17,-2885.14"/>
<polygon fill="none" stroke="#3ce5ec" points="365.17,-2881.73 365.17,-2910.27 292.37,-2922 198.54,-2922 125.75,-2910.27 125.75,-2881.73 198.54,-2870 292.37,-2870 365.17,-2881.73"/>
<text text-anchor="middle" x="245.46" y="-2892.3" font-family="Times-Roman" font-size="14.00" fill="#000000">X11&#45;fonts (275.36 MiB)</text>
</g>
<!-- N51 -->
<g id="node32" class="node">
<title>N51</title>
<polygon fill="#406be1" stroke="#406be1" points="360.71,-2468.54 360.71,-2483.46 293.2,-2494 197.72,-2494 130.2,-2483.46 130.2,-2468.54 197.72,-2458 293.2,-2458 360.71,-2468.54"/>
<polygon fill="none" stroke="#406be1" points="364.71,-2465.12 364.71,-2486.88 293.51,-2498 197.41,-2498 126.21,-2486.88 126.21,-2465.12 197.41,-2454 293.51,-2454 364.71,-2465.12"/>
<polygon fill="none" stroke="#406be1" points="368.7,-2461.7 368.7,-2490.3 293.82,-2502 197.1,-2502 122.21,-2490.3 122.21,-2461.7 197.1,-2450 293.82,-2450 368.7,-2461.7"/>
<text text-anchor="middle" x="245.46" y="-2472.3" font-family="Times-Roman" font-size="14.00" fill="#ffffff">firefox&#45;76.0.1 (3.60 MiB)</text>
</g>
<!-- N51&#45;&gt;N21 -->
<g id="edge24" class="edge">
<title>N51&#45;&gt;N21</title>
<path fill="none" stroke="black" d="M245.46,-2449.68C245.46,-2447.23 245.46,-2444.78 245.46,-2442.33"/>
<polygon fill="black" stroke="black" points="248.96,-2442.25 245.46,-2432.25 241.96,-2442.25 248.96,-2442.25"/>
</g>
<!-- N52 -->
<g id="node33" class="node">
<title>N52</title>
<polygon fill="#3f9ee4" stroke="#3f9ee4" points="367.35,-158.54 367.35,-173.46 295.95,-184 194.97,-184 123.56,-173.46 123.56,-158.54 194.97,-148 295.95,-148 367.35,-158.54"/>
<polygon fill="none" stroke="#3f9ee4" points="371.36,-155.09 371.36,-176.91 296.24,-188 194.67,-188 119.55,-176.91 119.55,-155.09 194.67,-144 296.24,-144 371.36,-155.09"/>
<polygon fill="none" stroke="#3f9ee4" points="375.37,-151.64 375.37,-180.36 296.54,-192 194.38,-192 115.55,-180.36 115.55,-151.64 194.38,-140 296.54,-140 375.37,-151.64"/>
<text text-anchor="middle" x="245.46" y="-162.3" font-family="Times-Roman" font-size="14.00" fill="#ffffff">evince&#45;3.36.1 (92.29 MiB)</text>
</g>
<!-- N52&#45;&gt;N33 -->
<g id="edge25" class="edge">
<title>N52&#45;&gt;N33</title>
<path fill="none" stroke="black" d="M375.23,-167.7C406.32,-173.05 437.98,-183.07 463.8,-201 554.14,-263.74 599.54,-395.44 615.71,-453.03"/>
<polygon fill="black" stroke="black" points="612.39,-454.16 618.39,-462.89 619.14,-452.32 612.39,-454.16"/>
</g>
<!-- N52&#45;&gt;N35 -->
<g id="edge26" class="edge">
<title>N52&#45;&gt;N35</title>
<path fill="none" stroke="black" d="M375.18,-154.03C425.55,-149.34 482.26,-144.07 528.68,-139.75"/>
<polygon fill="black" stroke="black" points="529.09,-143.23 538.73,-138.82 528.45,-136.26 529.09,-143.23"/>
</g>
<!-- N12 -->
<g id="node34" class="node">
<title>N12</title>
<polygon fill="#3ce4ec" stroke="#3ce4ec" points="373.53,-2958.54 373.53,-2973.46 298.5,-2984 192.41,-2984 117.39,-2973.46 117.39,-2958.54 192.41,-2948 298.5,-2948 373.53,-2958.54"/>
<polygon fill="none" stroke="#3ce4ec" points="377.53,-2955.07 377.53,-2976.93 298.78,-2988 192.13,-2988 113.39,-2976.93 113.39,-2955.07 192.13,-2944 298.78,-2944 377.53,-2955.07"/>
<polygon fill="none" stroke="#3ce4ec" points="381.53,-2951.59 381.53,-2980.41 299.06,-2992 191.85,-2992 109.39,-2980.41 109.39,-2951.59 191.85,-2940 299.06,-2940 381.53,-2951.59"/>
<text text-anchor="middle" x="245.46" y="-2962.3" font-family="Times-Roman" font-size="14.00" fill="#000000">calibre&#45;4.15.0 (271.87 MiB)</text>
</g>
<!-- N11 -->
<g id="node35" class="node">
<title>N11</title>
<polygon fill="#c4fe2a" stroke="#c4fe2a" points="388.09,-3028.54 388.09,-3043.46 304.54,-3054 186.38,-3054 102.83,-3043.46 102.83,-3028.54 186.38,-3018 304.54,-3018 388.09,-3028.54"/>
<polygon fill="none" stroke="#c4fe2a" points="392.08,-3025.02 392.08,-3046.98 304.79,-3058 186.13,-3058 98.83,-3046.98 98.83,-3025.02 186.13,-3014 304.79,-3014 392.08,-3025.02"/>
<polygon fill="none" stroke="#c4fe2a" points="396.08,-3021.49 396.08,-3050.51 305.04,-3062 185.88,-3062 94.84,-3050.51 94.84,-3021.49 185.88,-3010 305.04,-3010 396.08,-3021.49"/>
<text text-anchor="middle" x="245.46" y="-3032.3" font-family="Times-Roman" font-size="14.00" fill="#000000">xonotic&#45;sdl&#45;0.8.2 (895.35 MiB)</text>
</g>
<!-- N53 -->
<g id="node36" class="node">
<title>N53</title>
<polygon fill="#4089e3" stroke="#4089e3" points="365.56,-718.54 365.56,-733.46 295.21,-744 195.71,-744 125.35,-733.46 125.35,-718.54 195.71,-708 295.21,-708 365.56,-718.54"/>
<polygon fill="none" stroke="#4089e3" points="369.56,-715.1 369.56,-736.9 295.5,-748 195.41,-748 121.36,-736.9 121.36,-715.1 195.41,-704 295.5,-704 369.56,-715.1"/>
<polygon fill="none" stroke="#4089e3" points="373.55,-711.65 373.55,-740.35 295.8,-752 195.11,-752 117.36,-740.35 117.36,-711.65 195.11,-700 295.8,-700 373.55,-711.65"/>
<text text-anchor="middle" x="245.46" y="-722.3" font-family="Times-Roman" font-size="14.00" fill="#ffffff">neovim&#45;0.4.3 (51.37 MiB)</text>
</g>
<!-- N53&#45;&gt;N33 -->
<g id="edge27" class="edge">
<title>N53&#45;&gt;N33</title>
<path fill="none" stroke="black" d="M373.68,-721.9C404.79,-716.6 436.86,-707.19 463.8,-691 537.53,-646.68 588.76,-554.1 610.74,-508.12"/>
<polygon fill="black" stroke="black" points="613.92,-509.59 614.99,-499.05 607.58,-506.62 613.92,-509.59"/>
</g>
<!-- N10 -->
<g id="node37" class="node">
<title>N10</title>
<polygon fill="#3fa1e5" stroke="#3fa1e5" points="411.5,-3098.54 411.5,-3113.46 314.24,-3124 176.68,-3124 79.41,-3113.46 79.41,-3098.54 176.68,-3088 314.24,-3088 411.5,-3098.54"/>
<polygon fill="none" stroke="#3fa1e5" points="415.5,-3094.95 415.5,-3117.05 314.45,-3128 176.46,-3128 75.41,-3117.05 75.41,-3094.95 176.46,-3084 314.45,-3084 415.5,-3094.95"/>
<polygon fill="none" stroke="#3fa1e5" points="419.51,-3091.36 419.51,-3120.64 314.67,-3132 176.25,-3132 71.41,-3120.64 71.41,-3091.36 176.25,-3080 314.67,-3080 419.51,-3091.36"/>
<text text-anchor="middle" x="245.46" y="-3102.3" font-family="Times-Roman" font-size="14.00" fill="#ffffff">mpv&#45;with&#45;scripts&#45;0.32.0 (99.47 MiB)</text>
</g>
<!-- N9 -->
<g id="node38" class="node">
<title>N9</title>
<polygon fill="#3fb6e7" stroke="#3fb6e7" points="371.31,-1068.54 371.31,-1083.46 297.59,-1094 193.33,-1094 119.6,-1083.46 119.6,-1068.54 193.33,-1058 297.59,-1058 371.31,-1068.54"/>
<polygon fill="none" stroke="#3fb6e7" points="375.31,-1065.08 375.31,-1086.92 297.87,-1098 193.04,-1098 115.6,-1086.92 115.6,-1065.08 193.04,-1054 297.87,-1054 375.31,-1065.08"/>
<polygon fill="none" stroke="#3fb6e7" points="379.31,-1061.61 379.31,-1090.39 298.16,-1102 192.76,-1102 111.61,-1090.39 111.61,-1061.61 192.76,-1050 298.16,-1050 379.31,-1061.61"/>
<text text-anchor="middle" x="245.46" y="-1072.3" font-family="Times-Roman" font-size="14.00" fill="#000000">gimp&#45;2.10.18 (147.71 MiB)</text>
</g>
<!-- N9&#45;&gt;N36 -->
<g id="edge28" class="edge">
<title>N9&#45;&gt;N36</title>
<path fill="none" stroke="black" d="M379.32,-1085.3C408.1,-1090.59 437.7,-1098.69 463.8,-1111 521.45,-1138.2 573.92,-1192.74 601.8,-1225.13"/>
<polygon fill="black" stroke="black" points="599.21,-1227.49 608.34,-1232.86 604.55,-1222.97 599.21,-1227.49"/>
</g>
<!-- N9&#45;&gt;N40 -->
<g id="edge29" class="edge">
<title>N9&#45;&gt;N40</title>
<path fill="none" stroke="black" d="M379.32,-1066.7C408.1,-1061.41 437.7,-1053.31 463.8,-1041 521.45,-1013.8 573.92,-959.26 601.8,-926.87"/>
<polygon fill="black" stroke="black" points="604.55,-929.03 608.34,-919.14 599.21,-924.51 604.55,-929.03"/>
</g>
<!-- N8 -->
<g id="node39" class="node">
<title>N8</title>
<polygon fill="#3ec6e8" stroke="#3ec6e8" points="410.19,-3168.54 410.19,-3183.46 313.69,-3194 177.22,-3194 80.73,-3183.46 80.73,-3168.54 177.22,-3158 313.69,-3158 410.19,-3168.54"/>
<polygon fill="none" stroke="#3ec6e8" points="414.19,-3164.96 414.19,-3187.04 313.91,-3198 177.01,-3198 76.73,-3187.04 76.73,-3164.96 177.01,-3154 313.91,-3154 414.19,-3164.96"/>
<polygon fill="none" stroke="#3ec6e8" points="418.19,-3161.37 418.19,-3190.63 314.13,-3202 176.79,-3202 72.72,-3190.63 72.72,-3161.37 176.79,-3150 314.13,-3150 418.19,-3161.37"/>
<text text-anchor="middle" x="245.46" y="-3172.3" font-family="Times-Roman" font-size="14.00" fill="#000000">thunderbird&#45;bin&#45;68.8.1 (186.87 MiB)</text>
</g>
<!-- N54 -->
<g id="node40" class="node">
<title>N54</title>
<polygon fill="#4095e4" stroke="#4095e4" points="392.52,-648.54 392.52,-663.46 306.37,-674 184.54,-674 98.4,-663.46 98.4,-648.54 184.54,-638 306.37,-638 392.52,-648.54"/>
<polygon fill="none" stroke="#4095e4" points="396.52,-645 396.52,-667 306.61,-678 184.3,-678 94.4,-667 94.4,-645 184.3,-634 306.61,-634 396.52,-645"/>
<polygon fill="none" stroke="#4095e4" points="400.52,-641.46 400.52,-670.54 306.86,-682 184.06,-682 90.4,-670.54 90.4,-641.46 184.06,-630 306.86,-630 400.52,-641.46"/>
<text text-anchor="middle" x="245.46" y="-652.3" font-family="Times-Roman" font-size="14.00" fill="#ffffff">stepmania&#45;5.1.0&#45;b2 (74.58 MiB)</text>
</g>
<!-- N54&#45;&gt;N33 -->
<g id="edge30" class="edge">
<title>N54&#45;&gt;N33</title>
<path fill="none" stroke="black" d="M400.56,-642.28C422.39,-637.19 444.1,-630.29 463.8,-621 521.45,-593.8 573.92,-539.26 601.8,-506.87"/>
<polygon fill="black" stroke="black" points="604.55,-509.03 608.34,-499.14 599.21,-504.51 604.55,-509.03"/>
</g>
<!-- N7 -->
<g id="node41" class="node">
<title>N7</title>
<polygon fill="#3cedea" stroke="#3cedea" points="372.21,-2538.54 372.21,-2553.46 297.96,-2564 192.96,-2564 118.71,-2553.46 118.71,-2538.54 192.96,-2528 297.96,-2528 372.21,-2538.54"/>
<polygon fill="none" stroke="#3cedea" points="376.21,-2535.07 376.21,-2556.93 298.24,-2568 192.67,-2568 114.7,-2556.93 114.7,-2535.07 192.67,-2524 298.24,-2524 376.21,-2535.07"/>
<polygon fill="none" stroke="#3cedea" points="380.21,-2531.6 380.21,-2560.4 298.52,-2572 192.39,-2572 110.7,-2560.4 110.7,-2531.6 192.39,-2520 298.52,-2520 380.21,-2531.6"/>
<text text-anchor="middle" x="245.46" y="-2542.3" font-family="Times-Roman" font-size="14.00" fill="#000000">arduino&#45;1.8.9 (306.68 MiB)</text>
</g>
<!-- N7&#45;&gt;N34 -->
<g id="edge31" class="edge">
<title>N7&#45;&gt;N34</title>
<path fill="none" stroke="black" d="M380.2,-2558.44C421.3,-2562.26 466.18,-2566.43 506.05,-2570.14"/>
<polygon fill="black" stroke="black" points="505.79,-2573.63 516.07,-2571.07 506.44,-2566.66 505.79,-2573.63"/>
</g>
<!-- N6 -->
<g id="node42" class="node">
<title>N6</title>
<polygon fill="#3ceced" stroke="#3ceced" points="374.42,-3238.54 374.42,-3253.46 298.88,-3264 192.04,-3264 116.49,-3253.46 116.49,-3238.54 192.04,-3228 298.88,-3228 374.42,-3238.54"/>
<polygon fill="none" stroke="#3ceced" points="378.43,-3235.06 378.43,-3256.94 299.15,-3268 191.76,-3268 112.49,-3256.94 112.49,-3235.06 191.76,-3224 299.15,-3224 378.43,-3235.06"/>
<polygon fill="none" stroke="#3ceced" points="382.44,-3231.58 382.44,-3260.42 299.43,-3272 191.48,-3272 108.48,-3260.42 108.48,-3231.58 191.48,-3220 299.43,-3220 382.44,-3231.58"/>
<text text-anchor="middle" x="245.46" y="-3242.3" font-family="Times-Roman" font-size="14.00" fill="#000000">fritzing&#45;0.9.3b (296.38 MiB)</text>
</g>
<!-- N55 -->
<g id="node43" class="node">
<title>N55</title>
<polygon fill="#406ce1" stroke="#406ce1" points="362.92,-578.54 362.92,-593.46 294.11,-604 196.8,-604 127.99,-593.46 127.99,-578.54 196.8,-568 294.11,-568 362.92,-578.54"/>
<polygon fill="none" stroke="#406ce1" points="366.92,-575.11 366.92,-596.89 294.42,-608 196.5,-608 123.99,-596.89 123.99,-575.11 196.5,-564 294.42,-564 366.92,-575.11"/>
<polygon fill="none" stroke="#406ce1" points="370.92,-571.68 370.92,-600.32 294.72,-612 196.19,-612 119.99,-600.32 119.99,-571.68 196.19,-560 294.72,-560 370.92,-571.68"/>
<text text-anchor="middle" x="245.46" y="-582.3" font-family="Times-Roman" font-size="14.00" fill="#ffffff">nethack&#45;3.6.6 (4.58 MiB)</text>
</g>
<!-- N55&#45;&gt;N33 -->
<g id="edge32" class="edge">
<title>N55&#45;&gt;N33</title>
<path fill="none" stroke="black" d="M370.67,-571.59C401.45,-566.49 434.11,-559.77 463.8,-551 504.3,-539.04 548.06,-519.22 579.4,-503.72"/>
<polygon fill="black" stroke="black" points="581.34,-506.67 588.71,-499.06 578.2,-500.41 581.34,-506.67"/>
</g>
<!-- N5 -->
<g id="node44" class="node">
<title>N5</title>
<polygon fill="#3de2eb" stroke="#3de2eb" points="374.42,-928.54 374.42,-943.46 298.88,-954 192.04,-954 116.49,-943.46 116.49,-928.54 192.04,-918 298.88,-918 374.42,-928.54"/>
<polygon fill="none" stroke="#3de2eb" points="378.43,-925.06 378.43,-946.94 299.15,-958 191.76,-958 112.49,-946.94 112.49,-925.06 191.76,-914 299.15,-914 378.43,-925.06"/>
<polygon fill="none" stroke="#3de2eb" points="382.44,-921.58 382.44,-950.42 299.43,-962 191.48,-962 108.48,-950.42 108.48,-921.58 191.48,-910 299.43,-910 382.44,-921.58"/>
<text text-anchor="middle" x="245.46" y="-932.3" font-family="Times-Roman" font-size="14.00" fill="#000000">blender&#45;2.82a (264.92 MiB)</text>
</g>
<!-- N5&#45;&gt;N40 -->
<g id="edge33" class="edge">
<title>N5&#45;&gt;N40</title>
<path fill="none" stroke="black" d="M382.33,-923.36C434.3,-918.53 492.05,-913.16 537.93,-908.89"/>
<polygon fill="black" stroke="black" points="538.49,-912.36 548.12,-907.94 537.84,-905.39 538.49,-912.36"/>
</g>
<!-- N4 -->
<g id="node45" class="node">
<title>N4</title>
<polygon fill="#3ce4ec" stroke="#3ce4ec" points="455.65,-3308.54 455.65,-3323.46 332.52,-3334 158.39,-3334 35.26,-3323.46 35.26,-3308.54 158.39,-3298 332.52,-3298 455.65,-3308.54"/>
<polygon fill="none" stroke="#3ce4ec" points="459.65,-3304.87 459.65,-3327.13 332.69,-3338 158.22,-3338 31.27,-3327.13 31.27,-3304.87 158.22,-3294 332.69,-3294 459.65,-3304.87"/>
<polygon fill="none" stroke="#3ce4ec" points="463.65,-3301.2 463.65,-3330.8 332.86,-3342 158.05,-3342 27.27,-3330.8 27.27,-3301.2 158.05,-3290 332.86,-3290 463.65,-3301.2"/>
<text text-anchor="middle" x="245.46" y="-3312.3" font-family="Times-Roman" font-size="14.00" fill="#000000">spotify&#45;1.1.26.501.gbe11e53b&#45;15 (272.32 MiB)</text>
</g>
<!-- N56 -->
<g id="node46" class="node">
<title>N56</title>
<polygon fill="#4083e2" stroke="#4083e2" points="406.65,-998.54 406.65,-1013.46 312.23,-1024 178.69,-1024 84.26,-1013.46 84.26,-998.54 178.69,-988 312.23,-988 406.65,-998.54"/>
<polygon fill="none" stroke="#4083e2" points="410.65,-994.97 410.65,-1017.03 312.45,-1028 178.46,-1028 80.26,-1017.03 80.26,-994.97 178.46,-984 312.45,-984 410.65,-994.97"/>
<polygon fill="none" stroke="#4083e2" points="414.66,-991.39 414.66,-1020.61 312.67,-1032 178.24,-1032 76.26,-1020.61 76.26,-991.39 178.24,-980 312.67,-980 414.66,-991.39"/>
<text text-anchor="middle" x="245.46" y="-1002.3" font-family="Times-Roman" font-size="14.00" fill="#ffffff">dwarf&#45;fortress&#45;0.47.04 (40.55 MiB)</text>
</g>
<!-- N56&#45;&gt;N33 -->
<g id="edge34" class="edge">
<title>N56&#45;&gt;N33</title>
<path fill="none" stroke="black" d="M414.79,-998.35C432.67,-992.08 449.51,-983.25 463.8,-971 473.08,-963.05 582.34,-611.73 614.16,-508.96"/>
<polygon fill="black" stroke="black" points="617.55,-509.86 617.16,-499.27 610.86,-507.79 617.55,-509.86"/>
</g>
<!-- N56&#45;&gt;N36 -->
<g id="edge35" class="edge">
<title>N56&#45;&gt;N36</title>
<path fill="none" stroke="black" d="M414.57,-1019.65C431.88,-1024.94 448.65,-1031.89 463.8,-1041 537.53,-1085.32 588.76,-1177.9 610.74,-1223.88"/>
<polygon fill="black" stroke="black" points="607.58,-1225.38 614.99,-1232.95 613.92,-1222.41 607.58,-1225.38"/>
</g>
<!-- N3 -->
<g id="node47" class="node">
<title>N3</title>
<polygon fill="#3ebce7" stroke="#3ebce7" points="374.85,-3378.54 374.85,-3393.46 299.05,-3404 191.86,-3404 116.07,-3393.46 116.07,-3378.54 191.86,-3368 299.05,-3368 374.85,-3378.54"/>
<polygon fill="none" stroke="#3ebce7" points="378.84,-3375.06 378.84,-3396.94 299.33,-3408 191.59,-3408 112.07,-3396.94 112.07,-3375.06 191.59,-3364 299.33,-3364 378.84,-3375.06"/>
<polygon fill="none" stroke="#3ebce7" points="382.84,-3371.58 382.84,-3400.42 299.6,-3412 191.31,-3412 108.07,-3400.42 108.07,-3371.58 191.31,-3360 299.6,-3360 382.84,-3371.58"/>
<text text-anchor="middle" x="245.46" y="-3382.3" font-family="Times-Roman" font-size="14.00" fill="#000000">gzdoom&#45;4.3.3 (163.52 MiB)</text>
</g>
<!-- N57 -->
<g id="node48" class="node">
<title>N57</title>
<polygon fill="#4069e1" stroke="#4069e1" points="369.99,-1138.54 369.99,-1153.46 297.04,-1164 193.87,-1164 120.92,-1153.46 120.92,-1138.54 193.87,-1128 297.04,-1128 369.99,-1138.54"/>
<polygon fill="none" stroke="#4069e1" points="373.99,-1135.08 373.99,-1156.92 297.33,-1168 193.59,-1168 116.92,-1156.92 116.92,-1135.08 193.59,-1124 297.33,-1124 373.99,-1135.08"/>
<polygon fill="none" stroke="#4069e1" points="377.99,-1131.62 377.99,-1160.38 297.62,-1172 193.3,-1172 112.92,-1160.38 112.92,-1131.62 193.3,-1120 297.62,-1120 377.99,-1131.62"/>
<text text-anchor="middle" x="245.46" y="-1142.3" font-family="Times-Roman" font-size="14.00" fill="#ffffff">arandr&#45;0.1.10 (203.54 KiB)</text>
</g>
<!-- N57&#45;&gt;N36 -->
<g id="edge36" class="edge">
<title>N57&#45;&gt;N36</title>
<path fill="none" stroke="black" d="M374.1,-1160.98C403.87,-1166.01 435.21,-1172.56 463.8,-1181 504.3,-1192.96 548.06,-1212.78 579.4,-1228.28"/>
<polygon fill="black" stroke="black" points="578.2,-1231.59 588.71,-1232.94 581.34,-1225.33 578.2,-1231.59"/>
</g>
<!-- N2 -->
<g id="node49" class="node">
<title>N2</title>
<polygon fill="#3dd3ea" stroke="#3dd3ea" points="443.73,-3448.54 443.73,-3463.46 327.58,-3474 163.33,-3474 47.18,-3463.46 47.18,-3448.54 163.33,-3438 327.58,-3438 443.73,-3448.54"/>
<polygon fill="none" stroke="#3dd3ea" points="447.73,-3444.89 447.73,-3467.11 327.77,-3478 163.15,-3478 43.18,-3467.11 43.18,-3444.89 163.15,-3434 327.77,-3434 447.73,-3444.89"/>
<polygon fill="none" stroke="#3dd3ea" points="451.73,-3441.24 451.73,-3470.76 327.95,-3482 162.97,-3482 39.19,-3470.76 39.19,-3441.24 162.97,-3430 327.95,-3430 451.73,-3441.24"/>
<text text-anchor="middle" x="245.46" y="-3452.3" font-family="Times-Roman" font-size="14.00" fill="#000000">papirus&#45;icon&#45;theme&#45;20200430 (221.53 MiB)</text>
</g>
<!-- N1 -->
<g id="node50" class="node">
<title>N1</title>
<polygon fill="#3fb7e7" stroke="#3fb7e7" points="383.23,-858.54 383.23,-873.46 302.53,-884 188.39,-884 107.68,-873.46 107.68,-858.54 188.39,-848 302.53,-848 383.23,-858.54"/>
<polygon fill="none" stroke="#3fb7e7" points="387.23,-855.03 387.23,-876.97 302.79,-888 188.13,-888 103.68,-876.97 103.68,-855.03 188.13,-844 302.79,-844 387.23,-855.03"/>
<polygon fill="none" stroke="#3fb7e7" points="391.23,-851.52 391.23,-880.48 303.04,-892 187.87,-892 99.69,-880.48 99.69,-851.52 187.87,-840 303.04,-840 391.23,-851.52"/>
<text text-anchor="middle" x="245.46" y="-862.3" font-family="Times-Roman" font-size="14.00" fill="#000000">inkscape&#45;0.92.5 (149.04 MiB)</text>
</g>
<!-- N1&#45;&gt;N40 -->
<g id="edge37" class="edge">
<title>N1&#45;&gt;N40</title>
<path fill="none" stroke="black" d="M391.42,-879.48C440.98,-884.09 494.76,-889.09 537.99,-893.11"/>
<polygon fill="black" stroke="black" points="537.89,-896.62 548.17,-894.06 538.54,-889.65 537.89,-896.62"/>
</g>
</g>
</svg>
