<?xml version="1.0" encoding="UTF-8" standalone="no"?>
<!DOCTYPE svg PUBLIC "-//W3C//DTD SVG 1.1//EN"
 "http://www.w3.org/Graphics/SVG/1.1/DTD/svg11.dtd">
<!-- Generated by graphviz version 2.43.0 (0)
 -->
<!-- Title: nixstore Pages: 1 -->
<svg width="818pt" height="3350pt"
 viewBox="0.00 0.00 817.88 3350.00" xmlns="http://www.w3.org/2000/svg" xmlns:xlink="http://www.w3.org/1999/xlink">
<g id="graph0" class="graph" transform="scale(1 1) rotate(0) translate(4 3346)">
<title>nixstore</title>
<polygon fill="white" stroke="transparent" points="-4,4 -4,-3346 813.88,-3346 813.88,4 -4,4"/>
<!-- N58 -->
<g id="node1" class="node">
<title>N58</title>
<polygon fill="#fe5300" stroke="#fe5300" points="388.58,-18.54 388.58,-33.46 323.38,-44 231.18,-44 165.99,-33.46 165.99,-18.54 231.18,-8 323.38,-8 388.58,-18.54"/>
<polygon fill="none" stroke="#fe5300" points="392.58,-15.14 392.58,-36.86 323.71,-48 230.86,-48 161.99,-36.86 161.99,-15.14 230.86,-4 323.71,-4 392.58,-15.14"/>
<polygon fill="none" stroke="#fe5300" points="396.59,-11.74 396.59,-40.26 324.03,-52 230.54,-52 157.98,-40.26 157.98,-11.74 230.54,0 324.03,0 396.59,-11.74"/>
<text text-anchor="middle" x="277.28" y="-22.3" font-family="Roboto" font-size="14.00" fill="#000000">{filtered out} (2.08 GiB)</text>
</g>
<!-- N29 -->
<g id="node2" class="node">
<title>N29</title>
<polygon fill="#f9fe1b" stroke="#f9fe1b" points="405.35,-788.54 405.35,-803.46 330.33,-814 224.24,-814 149.22,-803.46 149.22,-788.54 224.24,-778 330.33,-778 405.35,-788.54"/>
<polygon fill="none" stroke="#f9fe1b" points="409.35,-785.07 409.35,-806.93 330.61,-818 223.96,-818 145.21,-806.93 145.21,-785.07 223.96,-774 330.61,-774 409.35,-785.07"/>
<polygon fill="none" stroke="#f9fe1b" points="413.36,-781.59 413.36,-810.41 330.89,-822 223.68,-822 141.21,-810.41 141.21,-781.59 223.68,-770 330.89,-770 413.36,-781.59"/>
<text text-anchor="middle" x="277.28" y="-792.3" font-family="Roboto" font-size="14.00" fill="#000000">bookworm&#45;1.1.2 (1.16 GiB)</text>
</g>
<!-- N36 -->
<g id="node49" class="node">
<title>N36</title>
<polygon fill="#3fb7e7" stroke="#3fb7e7" points="763.38,-954 608.38,-954 608.38,-918 763.38,-918 763.38,-954"/>
<text text-anchor="middle" x="685.88" y="-932.3" font-family="Roboto" font-size="14.00" fill="#000000">gcc&#45;9.3.0 (144.24 MiB)</text>
</g>
<!-- N29&#45;&gt;N36 -->
<g id="edge1" class="edge">
<title>N29&#45;&gt;N36</title>
<path fill="none" stroke="black" d="M413.35,-804.13C450.65,-809.3 490.56,-817.62 525.88,-831 575.65,-849.85 625.66,-886.47 655.95,-911.09"/>
<polygon fill="black" stroke="black" points="654.01,-914.03 663.95,-917.69 658.46,-908.63 654.01,-914.03"/>
</g>
<!-- N37 -->
<g id="node50" class="node">
<title>N37</title>
<polygon fill="#3ce5ec" stroke="#3ce5ec" points="785.88,-779 585.88,-779 585.88,-743 785.88,-743 785.88,-779"/>
<text text-anchor="middle" x="685.88" y="-757.3" font-family="Roboto" font-size="14.00" fill="#000000">webkitgtk&#45;2.28.3 (263.54 MiB)</text>
</g>
<!-- N29&#45;&gt;N37 -->
<g id="edge2" class="edge">
<title>N29&#45;&gt;N37</title>
<path fill="none" stroke="black" d="M413.39,-784.37C466.04,-779.84 525.58,-774.71 575.46,-770.42"/>
<polygon fill="black" stroke="black" points="575.96,-773.89 585.63,-769.54 575.36,-766.91 575.96,-773.89"/>
</g>
<!-- N28 -->
<g id="node3" class="node">
<title>N28</title>
<polygon fill="#3ddaeb" stroke="#3ddaeb" points="403.14,-438.54 403.14,-453.46 329.42,-464 225.15,-464 151.43,-453.46 151.43,-438.54 225.15,-428 329.42,-428 403.14,-438.54"/>
<polygon fill="none" stroke="#3ddaeb" points="407.14,-435.08 407.14,-456.92 329.7,-468 224.87,-468 147.43,-456.92 147.43,-435.08 224.87,-424 329.7,-424 407.14,-435.08"/>
<polygon fill="none" stroke="#3ddaeb" points="411.13,-431.61 411.13,-460.39 329.98,-472 224.58,-472 143.43,-460.39 143.43,-431.61 224.58,-420 329.98,-420 411.13,-431.61"/>
<text text-anchor="middle" x="277.28" y="-442.3" font-family="Roboto" font-size="14.00" fill="#000000">gimp&#45;2.10.20 (233.76 MiB)</text>
</g>
<!-- N35 -->
<g id="node51" class="node">
<title>N35</title>
<polygon fill="#36f693" stroke="#36f693" points="781.38,-324 590.38,-324 590.38,-288 781.38,-288 781.38,-324"/>
<text text-anchor="middle" x="685.88" y="-302.3" font-family="Roboto" font-size="14.00" fill="#000000">libGL&#45;1.3.1&#45;dev (515.92 MiB)</text>
</g>
<!-- N28&#45;&gt;N35 -->
<g id="edge3" class="edge">
<title>N28&#45;&gt;N35</title>
<path fill="none" stroke="black" d="M411.42,-438.13C449.27,-432.99 489.95,-424.61 525.88,-411 575.65,-392.15 625.66,-355.53 655.95,-330.91"/>
<polygon fill="black" stroke="black" points="658.46,-333.37 663.95,-324.31 654.01,-327.97 658.46,-333.37"/>
</g>
<!-- N39 -->
<g id="node52" class="node">
<title>N39</title>
<polygon fill="#3fb7e7" stroke="#3fb7e7" points="754.38,-534 617.38,-534 617.38,-498 754.38,-498 754.38,-534"/>
<text text-anchor="middle" x="685.88" y="-512.3" font-family="Roboto" font-size="14.00" fill="#000000">blas&#45;3 (144.29 MiB)</text>
</g>
<!-- N28&#45;&gt;N39 -->
<g id="edge4" class="edge">
<title>N28&#45;&gt;N39</title>
<path fill="none" stroke="black" d="M402.64,-461.69C442.14,-467.18 485.93,-473.79 525.88,-481 552.4,-485.79 581.22,-491.86 606.95,-497.6"/>
<polygon fill="black" stroke="black" points="606.49,-501.09 617.02,-499.87 608.03,-494.26 606.49,-501.09"/>
</g>
<!-- N40 -->
<g id="node4" class="node">
<title>N40</title>
<polygon fill="#406fe1" stroke="#406fe1" points="494.55,-1278.54 494.55,-1293.46 367.28,-1304 187.29,-1304 60.02,-1293.46 60.02,-1278.54 187.29,-1268 367.28,-1268 494.55,-1278.54"/>
<polygon fill="none" stroke="#406fe1" points="498.54,-1274.86 498.54,-1297.14 367.44,-1308 187.13,-1308 56.02,-1297.14 56.02,-1274.86 187.13,-1264 367.44,-1264 498.54,-1274.86"/>
<polygon fill="none" stroke="#406fe1" points="502.54,-1271.18 502.54,-1300.82 367.61,-1312 186.96,-1312 52.03,-1300.82 52.03,-1271.18 186.96,-1260 367.61,-1260 502.54,-1271.18"/>
<text text-anchor="middle" x="277.28" y="-1282.3" font-family="Roboto" font-size="14.00" fill="#ffffff">papirus&#45;maia&#45;icon&#45;theme&#45;2019&#45;07&#45;26 (8.96 MiB)</text>
</g>
<!-- N6 -->
<g id="node42" class="node">
<title>N6</title>
<polygon fill="#3ec8e8" stroke="#3ec8e8" points="475.56,-1208.54 475.56,-1223.46 359.41,-1234 195.16,-1234 79.01,-1223.46 79.01,-1208.54 195.16,-1198 359.41,-1198 475.56,-1208.54"/>
<polygon fill="none" stroke="#3ec8e8" points="479.56,-1204.89 479.56,-1227.11 359.59,-1238 194.98,-1238 75.01,-1227.11 75.01,-1204.89 194.98,-1194 359.59,-1194 479.56,-1204.89"/>
<polygon fill="none" stroke="#3ec8e8" points="483.55,-1201.24 483.55,-1230.76 359.77,-1242 194.79,-1242 71.01,-1230.76 71.01,-1201.24 194.79,-1190 359.77,-1190 483.55,-1201.24"/>
<text text-anchor="middle" x="277.28" y="-1212.3" font-family="Roboto" font-size="14.00" fill="#000000">papirus&#45;icon&#45;theme&#45;20200702 (185.56 MiB)</text>
</g>
<!-- N40&#45;&gt;N6 -->
<g id="edge5" class="edge">
<title>N40&#45;&gt;N6</title>
<path fill="none" stroke="black" d="M277.28,-1259.68C277.28,-1257.23 277.28,-1254.78 277.28,-1252.33"/>
<polygon fill="black" stroke="black" points="280.78,-1252.25 277.28,-1242.25 273.78,-1252.25 280.78,-1252.25"/>
</g>
<!-- N41 -->
<g id="node5" class="node">
<title>N41</title>
<polygon fill="#4169e1" stroke="#4169e1" points="462.32,-1488.54 462.32,-1503.46 353.93,-1514 200.64,-1514 92.25,-1503.46 92.25,-1488.54 200.64,-1478 353.93,-1478 462.32,-1488.54"/>
<polygon fill="none" stroke="#4169e1" points="466.32,-1484.91 466.32,-1507.09 354.12,-1518 200.45,-1518 88.25,-1507.09 88.25,-1484.91 200.45,-1474 354.12,-1474 466.32,-1484.91"/>
<polygon fill="none" stroke="#4169e1" points="470.32,-1481.28 470.32,-1510.72 354.32,-1522 200.25,-1522 84.25,-1510.72 84.25,-1481.28 200.25,-1470 354.32,-1470 470.32,-1481.28"/>
<text text-anchor="middle" x="277.28" y="-1492.3" font-family="Roboto" font-size="14.00" fill="#ffffff">nvidia&#45;persistenced&#45;450.57 (115.81 KiB)</text>
</g>
<!-- N31 -->
<g id="node53" class="node">
<title>N31</title>
<polygon fill="#3beee2" stroke="#3beee2" points="809.88,-1444 561.88,-1444 561.88,-1408 809.88,-1408 809.88,-1444"/>
<text text-anchor="middle" x="685.88" y="-1422.3" font-family="Roboto" font-size="14.00" fill="#000000">nvidia&#45;x11&#45;450.57&#45;5.4.54 (322.13 MiB)</text>
</g>
<!-- N41&#45;&gt;N31 -->
<g id="edge6" class="edge">
<title>N41&#45;&gt;N31</title>
<path fill="none" stroke="black" d="M426.2,-1476.97C459.09,-1472.22 493.73,-1466.8 525.88,-1461 549.61,-1456.72 575.18,-1451.4 598.73,-1446.22"/>
<polygon fill="black" stroke="black" points="599.69,-1449.59 608.69,-1444.01 598.17,-1442.76 599.69,-1449.59"/>
</g>
<!-- N27 -->
<g id="node6" class="node">
<title>N27</title>
<polygon fill="#3beee4" stroke="#3beee4" points="487.48,-1558.54 487.48,-1573.46 364.35,-1584 190.22,-1584 67.09,-1573.46 67.09,-1558.54 190.22,-1548 364.35,-1548 487.48,-1558.54"/>
<polygon fill="none" stroke="#3beee4" points="491.48,-1554.87 491.48,-1577.13 364.52,-1588 190.05,-1588 63.09,-1577.13 63.09,-1554.87 190.05,-1544 364.52,-1544 491.48,-1554.87"/>
<polygon fill="none" stroke="#3beee4" points="495.47,-1551.2 495.47,-1580.8 364.69,-1592 189.88,-1592 59.1,-1580.8 59.1,-1551.2 189.88,-1540 364.69,-1540 495.47,-1551.2"/>
<text text-anchor="middle" x="277.28" y="-1562.3" font-family="Roboto" font-size="14.00" fill="#000000">spotify&#45;1.1.26.501.gbe11e53b&#45;15 (315.00 MiB)</text>
</g>
<!-- N42 -->
<g id="node7" class="node">
<title>N42</title>
<polygon fill="#4086e2" stroke="#4086e2" points="438.48,-578.54 438.48,-593.46 344.05,-604 210.52,-604 116.09,-593.46 116.09,-578.54 210.52,-568 344.05,-568 438.48,-578.54"/>
<polygon fill="none" stroke="#4086e2" points="442.48,-574.97 442.48,-597.03 344.28,-608 210.29,-608 112.09,-597.03 112.09,-574.97 210.29,-564 344.28,-564 442.48,-574.97"/>
<polygon fill="none" stroke="#4086e2" points="446.48,-571.39 446.48,-600.61 344.5,-612 210.07,-612 108.08,-600.61 108.08,-571.39 210.07,-560 344.5,-560 446.48,-571.39"/>
<text text-anchor="middle" x="277.28" y="-582.3" font-family="Roboto" font-size="14.00" fill="#ffffff">dwarf&#45;fortress&#45;0.47.04 (44.93 MiB)</text>
</g>
<!-- N42&#45;&gt;N36 -->
<g id="edge8" class="edge">
<title>N42&#45;&gt;N36</title>
<path fill="none" stroke="black" d="M446.51,-582.08C475.86,-588.65 503.95,-600.59 525.88,-621 581.46,-672.72 528.66,-719.73 561.88,-788 585.53,-836.6 628.41,-882.89 656.77,-910.37"/>
<polygon fill="black" stroke="black" points="654.71,-913.24 664.36,-917.61 659.54,-908.17 654.71,-913.24"/>
</g>
<!-- N42&#45;&gt;N35 -->
<g id="edge7" class="edge">
<title>N42&#45;&gt;N35</title>
<path fill="none" stroke="black" d="M446.69,-583.01C474.78,-576.85 502.38,-566.82 525.88,-551 552.31,-533.2 544.98,-516.02 561.88,-489 597.34,-432.3 641.68,-367.77 666.27,-332.49"/>
<polygon fill="black" stroke="black" points="669.22,-334.38 672.08,-324.18 663.48,-330.37 669.22,-334.38"/>
</g>
<!-- N26 -->
<g id="node8" class="node">
<title>N26</title>
<polygon fill="#35f777" stroke="#35f777" points="418.59,-158.54 418.59,-173.46 335.82,-184 218.75,-184 135.98,-173.46 135.98,-158.54 218.75,-148 335.82,-148 418.59,-158.54"/>
<polygon fill="none" stroke="#35f777" points="422.59,-155.02 422.59,-176.98 336.07,-188 218.5,-188 131.98,-176.98 131.98,-155.02 218.5,-144 336.07,-144 422.59,-155.02"/>
<polygon fill="none" stroke="#35f777" points="426.59,-151.5 426.59,-180.5 336.32,-192 218.25,-192 127.98,-180.5 127.98,-151.5 218.25,-140 336.32,-140 426.59,-151.5"/>
<text text-anchor="middle" x="277.28" y="-162.3" font-family="Roboto" font-size="14.00" fill="#000000">wesnoth&#45;1.14.13 (556.89 MiB)</text>
</g>
<!-- N26&#45;&gt;N35 -->
<g id="edge9" class="edge">
<title>N26&#45;&gt;N35</title>
<path fill="none" stroke="black" d="M426.63,-176.09C459.99,-181.33 494.72,-189.2 525.88,-201 575.65,-219.85 625.66,-256.47 655.95,-281.09"/>
<polygon fill="black" stroke="black" points="654.01,-284.03 663.95,-287.69 658.46,-278.63 654.01,-284.03"/>
</g>
<!-- N25 -->
<g id="node9" class="node">
<title>N25</title>
<polygon fill="#3ec3e8" stroke="#3ec3e8" points="389,-1628.54 389,-1643.46 323.56,-1654 231.01,-1654 165.56,-1643.46 165.56,-1628.54 231.01,-1618 323.56,-1618 389,-1628.54"/>
<polygon fill="none" stroke="#3ec3e8" points="393,-1625.14 393,-1646.86 323.88,-1658 230.69,-1658 161.57,-1646.86 161.57,-1625.14 230.69,-1614 323.88,-1614 393,-1625.14"/>
<polygon fill="none" stroke="#3ec3e8" points="397,-1621.73 397,-1650.27 324.2,-1662 230.37,-1662 157.57,-1650.27 157.57,-1621.73 230.37,-1610 324.2,-1610 397,-1621.73"/>
<text text-anchor="middle" x="277.28" y="-1632.3" font-family="Roboto" font-size="14.00" fill="#000000">X11&#45;fonts (173.71 MiB)</text>
</g>
<!-- N43 -->
<g id="node10" class="node">
<title>N43</title>
<polygon fill="#3fa0e5" stroke="#3fa0e5" points="424.34,-928.54 424.34,-943.46 338.2,-954 216.37,-954 130.23,-943.46 130.23,-928.54 216.37,-918 338.2,-918 424.34,-928.54"/>
<polygon fill="none" stroke="#3fa0e5" points="428.34,-925 428.34,-947 338.44,-958 216.13,-958 126.23,-947 126.23,-925 216.13,-914 338.44,-914 428.34,-925"/>
<polygon fill="none" stroke="#3fa0e5" points="432.34,-921.46 432.34,-950.54 338.69,-962 215.88,-962 122.22,-950.54 122.22,-921.46 215.88,-910 338.69,-910 432.34,-921.46"/>
<text text-anchor="middle" x="277.28" y="-932.3" font-family="Roboto" font-size="14.00" fill="#ffffff">stepmania&#45;5.1.0&#45;b2 (93.52 MiB)</text>
</g>
<!-- N43&#45;&gt;N36 -->
<g id="edge10" class="edge">
<title>N43&#45;&gt;N36</title>
<path fill="none" stroke="black" d="M432.58,-936C488.68,-936 550.08,-936 598.26,-936"/>
<polygon fill="black" stroke="black" points="598.34,-939.5 608.34,-936 598.34,-932.5 598.34,-939.5"/>
</g>
<!-- N44 -->
<g id="node11" class="node">
<title>N44</title>
<polygon fill="#4084e2" stroke="#4084e2" points="451.72,-1978.54 451.72,-1993.46 349.54,-2004 205.03,-2004 102.85,-1993.46 102.85,-1978.54 205.03,-1968 349.54,-1968 451.72,-1978.54"/>
<polygon fill="none" stroke="#4084e2" points="455.72,-1974.94 455.72,-1997.06 349.74,-2008 204.83,-2008 98.85,-1997.06 98.85,-1974.94 204.83,-1964 349.74,-1964 455.72,-1974.94"/>
<polygon fill="none" stroke="#4084e2" points="459.72,-1971.33 459.72,-2000.67 349.95,-2012 204.62,-2012 94.85,-2000.67 94.85,-1971.33 204.62,-1960 349.95,-1960 459.72,-1971.33"/>
<text text-anchor="middle" x="277.28" y="-1982.3" font-family="Roboto" font-size="14.00" fill="#ffffff">openra&#45;release&#45;20190314 (40.77 MiB)</text>
</g>
<!-- N38 -->
<g id="node54" class="node">
<title>N38</title>
<polygon fill="#3cede7" stroke="#3cede7" points="783.38,-1969 588.38,-1969 588.38,-1933 783.38,-1933 783.38,-1969"/>
<text text-anchor="middle" x="685.88" y="-1947.3" font-family="Roboto" font-size="14.00" fill="#000000">mono&#45;5.20.1.27 (304.80 MiB)</text>
</g>
<!-- N44&#45;&gt;N38 -->
<g id="edge11" class="edge">
<title>N44&#45;&gt;N38</title>
<path fill="none" stroke="black" d="M454.85,-1970.8C496.85,-1967.19 540.4,-1963.44 578.16,-1960.19"/>
<polygon fill="black" stroke="black" points="578.48,-1963.67 588.14,-1959.33 577.88,-1956.7 578.48,-1963.67"/>
</g>
<!-- N24 -->
<g id="node12" class="node">
<title>N24</title>
<polygon fill="#3ecce9" stroke="#3ecce9" points="468.49,-1768.54 468.49,-1783.46 356.48,-1794 198.08,-1794 86.08,-1783.46 86.08,-1768.54 198.08,-1758 356.48,-1758 468.49,-1768.54"/>
<polygon fill="none" stroke="#3ecce9" points="472.49,-1764.9 472.49,-1787.1 356.67,-1798 197.9,-1798 82.08,-1787.1 82.08,-1764.9 197.9,-1754 356.67,-1754 472.49,-1764.9"/>
<polygon fill="none" stroke="#3ecce9" points="476.48,-1761.26 476.48,-1790.74 356.86,-1802 197.71,-1802 78.08,-1790.74 78.08,-1761.26 197.71,-1750 356.86,-1750 476.48,-1761.26"/>
<text text-anchor="middle" x="277.28" y="-1772.3" font-family="Roboto" font-size="14.00" fill="#000000">tor&#45;browser&#45;bundle&#45;bin&#45;9.5.3 (196.36 MiB)</text>
</g>
<!-- N9 -->
<g id="node37" class="node">
<title>N9</title>
<polygon fill="#3dd1e9" stroke="#3dd1e9" points="424.34,-1698.54 424.34,-1713.46 338.2,-1724 216.37,-1724 130.23,-1713.46 130.23,-1698.54 216.37,-1688 338.2,-1688 424.34,-1698.54"/>
<polygon fill="none" stroke="#3dd1e9" points="428.34,-1695 428.34,-1717 338.44,-1728 216.13,-1728 126.23,-1717 126.23,-1695 216.13,-1684 338.44,-1684 428.34,-1695"/>
<polygon fill="none" stroke="#3dd1e9" points="432.34,-1691.46 432.34,-1720.54 338.69,-1732 215.88,-1732 122.22,-1720.54 122.22,-1691.46 215.88,-1680 338.69,-1680 432.34,-1691.46"/>
<text text-anchor="middle" x="277.28" y="-1702.3" font-family="Roboto" font-size="14.00" fill="#000000">glibc&#45;locales&#45;2.31 (209.56 MiB)</text>
</g>
<!-- N24&#45;&gt;N9 -->
<g id="edge12" class="edge">
<title>N24&#45;&gt;N9</title>
<path fill="none" stroke="black" d="M277.28,-1749.68C277.28,-1747.23 277.28,-1744.78 277.28,-1742.33"/>
<polygon fill="black" stroke="black" points="280.78,-1742.25 277.28,-1732.25 273.78,-1742.25 280.78,-1742.25"/>
</g>
<!-- N45 -->
<g id="node13" class="node">
<title>N45</title>
<polygon fill="#3fa1e5" stroke="#3fa1e5" points="393.86,-718.54 393.86,-733.46 325.57,-744 229,-744 160.71,-733.46 160.71,-718.54 229,-708 325.57,-708 393.86,-718.54"/>
<polygon fill="none" stroke="#3fa1e5" points="397.85,-715.11 397.85,-736.89 325.88,-748 228.69,-748 156.72,-736.89 156.72,-715.11 228.69,-704 325.88,-704 397.85,-715.11"/>
<polygon fill="none" stroke="#3fa1e5" points="401.84,-711.68 401.84,-740.32 326.18,-752 228.39,-752 152.72,-740.32 152.72,-711.68 228.39,-700 326.18,-700 401.84,-711.68"/>
<text text-anchor="middle" x="277.28" y="-722.3" font-family="Roboto" font-size="14.00" fill="#ffffff">astroid&#45;0.15 (96.42 MiB)</text>
</g>
<!-- N45&#45;&gt;N37 -->
<g id="edge13" class="edge">
<title>N45&#45;&gt;N37</title>
<path fill="none" stroke="black" d="M401.93,-736.64C457.24,-741.4 521.9,-746.97 575.43,-751.58"/>
<polygon fill="black" stroke="black" points="575.37,-755.09 585.64,-752.46 575.98,-748.11 575.37,-755.09"/>
</g>
<!-- N23 -->
<g id="node14" class="node">
<title>N23</title>
<polygon fill="#cbfe29" stroke="#cbfe29" points="419.91,-2048.54 419.91,-2063.46 336.36,-2074 218.21,-2074 134.66,-2063.46 134.66,-2048.54 218.21,-2038 336.36,-2038 419.91,-2048.54"/>
<polygon fill="none" stroke="#cbfe29" points="423.91,-2045.02 423.91,-2066.98 336.61,-2078 217.95,-2078 130.66,-2066.98 130.66,-2045.02 217.95,-2034 336.61,-2034 423.91,-2045.02"/>
<polygon fill="none" stroke="#cbfe29" points="427.9,-2041.49 427.9,-2070.51 336.86,-2082 217.7,-2082 126.67,-2070.51 126.67,-2041.49 217.7,-2030 336.86,-2030 427.9,-2041.49"/>
<text text-anchor="middle" x="277.28" y="-2052.3" font-family="Roboto" font-size="14.00" fill="#000000">xonotic&#45;sdl&#45;0.8.2 (895.35 MiB)</text>
</g>
<!-- N46 -->
<g id="node15" class="node">
<title>N46</title>
<polygon fill="#406ce1" stroke="#406ce1" points="394.75,-858.54 394.75,-873.46 325.94,-884 228.63,-884 159.82,-873.46 159.82,-858.54 228.63,-848 325.94,-848 394.75,-858.54"/>
<polygon fill="none" stroke="#406ce1" points="398.75,-855.11 398.75,-876.89 326.25,-888 228.32,-888 155.82,-876.89 155.82,-855.11 228.32,-844 326.25,-844 398.75,-855.11"/>
<polygon fill="none" stroke="#406ce1" points="402.75,-851.68 402.75,-880.32 326.55,-892 228.02,-892 151.82,-880.32 151.82,-851.68 228.02,-840 326.55,-840 402.75,-851.68"/>
<text text-anchor="middle" x="277.28" y="-862.3" font-family="Roboto" font-size="14.00" fill="#ffffff">nethack&#45;3.6.6 (4.58 MiB)</text>
</g>
<!-- N46&#45;&gt;N36 -->
<g id="edge14" class="edge">
<title>N46&#45;&gt;N36</title>
<path fill="none" stroke="black" d="M398.22,-881.08C438.85,-886.68 484.44,-893.52 525.88,-901 549.61,-905.28 575.18,-910.6 598.73,-915.78"/>
<polygon fill="black" stroke="black" points="598.17,-919.24 608.69,-917.99 599.69,-912.41 598.17,-919.24"/>
</g>
<!-- N22 -->
<g id="node16" class="node">
<title>N22</title>
<polygon fill="#3face6" stroke="#3face6" points="405.35,-2188.54 405.35,-2203.46 330.33,-2214 224.24,-2214 149.22,-2203.46 149.22,-2188.54 224.24,-2178 330.33,-2178 405.35,-2188.54"/>
<polygon fill="none" stroke="#3face6" points="409.35,-2185.07 409.35,-2206.93 330.61,-2218 223.96,-2218 145.21,-2206.93 145.21,-2185.07 223.96,-2174 330.61,-2174 409.35,-2185.07"/>
<polygon fill="none" stroke="#3face6" points="413.36,-2181.59 413.36,-2210.41 330.89,-2222 223.68,-2222 141.21,-2210.41 141.21,-2181.59 223.68,-2170 330.89,-2170 413.36,-2181.59"/>
<text text-anchor="middle" x="277.28" y="-2192.3" font-family="Roboto" font-size="14.00" fill="#ffffff">calibre&#45;4.19.0 (120.19 MiB)</text>
</g>
<!-- N32 -->
<g id="node55" class="node">
<title>N32</title>
<polygon fill="#3ebee7" stroke="#3ebee7" points="787.88,-2179 583.88,-2179 583.88,-2143 787.88,-2143 787.88,-2179"/>
<text text-anchor="middle" x="685.88" y="-2157.3" font-family="Roboto" font-size="14.00" fill="#000000">qtlocation&#45;5.12.7 (161.70 MiB)</text>
</g>
<!-- N22&#45;&gt;N32 -->
<g id="edge15" class="edge">
<title>N22&#45;&gt;N32</title>
<path fill="none" stroke="black" d="M413.39,-2184.37C465.39,-2179.89 524.11,-2174.84 573.61,-2170.58"/>
<polygon fill="black" stroke="black" points="574.04,-2174.05 583.71,-2169.71 573.44,-2167.08 574.04,-2174.05"/>
</g>
<!-- N21 -->
<g id="node17" class="node">
<title>N21</title>
<polygon fill="#c2fe2b" stroke="#c2fe2b" points="374.44,-1908.54 374.44,-1923.46 317.53,-1934 237.04,-1934 180.13,-1923.46 180.13,-1908.54 237.04,-1898 317.53,-1898 374.44,-1908.54"/>
<polygon fill="none" stroke="#c2fe2b" points="378.45,-1905.22 378.45,-1926.78 317.9,-1938 236.67,-1938 176.12,-1926.78 176.12,-1905.22 236.67,-1894 317.9,-1894 378.45,-1905.22"/>
<polygon fill="none" stroke="#c2fe2b" points="382.45,-1901.89 382.45,-1930.11 318.26,-1942 236.3,-1942 172.12,-1930.11 172.12,-1901.89 236.3,-1890 318.26,-1890 382.45,-1901.89"/>
<text text-anchor="middle" x="277.28" y="-1912.3" font-family="Roboto" font-size="14.00" fill="#000000">steam (845.26 MiB)</text>
</g>
<!-- N21&#45;&gt;N9 -->
<g id="edge16" class="edge">
<title>N21&#45;&gt;N9</title>
<path fill="none" stroke="black" d="M180.6,-1931.71C118.99,-1935.49 44.6,-1926.87 10.69,-1872 -3.56,-1848.94 -3.56,-1773.06 10.69,-1750 33.79,-1712.62 75.68,-1696.71 119.51,-1691.55"/>
<polygon fill="black" stroke="black" points="119.87,-1695.03 129.48,-1690.56 119.18,-1688.07 119.87,-1695.03"/>
</g>
<!-- N21&#45;&gt;N38 -->
<g id="edge18" class="edge">
<title>N21&#45;&gt;N38</title>
<path fill="none" stroke="black" d="M382.46,-1924.97C442.41,-1930.13 517.57,-1936.6 577.97,-1941.8"/>
<polygon fill="black" stroke="black" points="578.03,-1945.32 588.3,-1942.69 578.63,-1938.34 578.03,-1945.32"/>
</g>
<!-- N30 -->
<g id="node56" class="node">
<title>N30</title>
<polygon fill="#3cede8" stroke="#3cede8" points="800.88,-1872 570.88,-1872 570.88,-1836 800.88,-1836 800.88,-1872"/>
<text text-anchor="middle" x="685.88" y="-1850.3" font-family="Roboto" font-size="14.00" fill="#000000">fontconfig&#45;2.13.92&#45;lib (300.67 MiB)</text>
</g>
<!-- N21&#45;&gt;N30 -->
<g id="edge17" class="edge">
<title>N21&#45;&gt;N30</title>
<path fill="none" stroke="black" d="M382.59,-1901.91C426.82,-1895.77 478.91,-1888.31 525.88,-1881 540.52,-1878.72 555.9,-1876.23 571.09,-1873.72"/>
<polygon fill="black" stroke="black" points="571.74,-1877.16 581.03,-1872.06 570.59,-1870.25 571.74,-1877.16"/>
</g>
<!-- N20 -->
<g id="node18" class="node">
<title>N20</title>
<polygon fill="#3cedeb" stroke="#3cedeb" points="408.89,-648.54 408.89,-663.46 331.8,-674 222.77,-674 145.68,-663.46 145.68,-648.54 222.77,-638 331.8,-638 408.89,-648.54"/>
<polygon fill="none" stroke="#3cedeb" points="412.89,-645.05 412.89,-666.95 332.07,-678 222.5,-678 141.68,-666.95 141.68,-645.05 222.5,-634 332.07,-634 412.89,-645.05"/>
<polygon fill="none" stroke="#3cedeb" points="416.89,-641.56 416.89,-670.44 332.34,-682 222.23,-682 137.68,-670.44 137.68,-641.56 222.23,-630 332.34,-630 416.89,-641.56"/>
<text text-anchor="middle" x="277.28" y="-652.3" font-family="Roboto" font-size="14.00" fill="#000000">blender&#45;2.83.3 (291.51 MiB)</text>
</g>
<!-- N20&#45;&gt;N39 -->
<g id="edge19" class="edge">
<title>N20&#45;&gt;N39</title>
<path fill="none" stroke="black" d="M416.89,-647.37C453.17,-642.17 491.67,-633.95 525.88,-621 575.65,-602.15 625.66,-565.53 655.95,-540.91"/>
<polygon fill="black" stroke="black" points="658.46,-543.37 663.95,-534.31 654.01,-537.97 658.46,-543.37"/>
</g>
<!-- N19 -->
<g id="node19" class="node">
<title>N19</title>
<polygon fill="#35f86e" stroke="#35f86e" points="409.31,-2258.54 409.31,-2273.46 331.97,-2284 222.6,-2284 145.26,-2273.46 145.26,-2258.54 222.6,-2248 331.97,-2248 409.31,-2258.54"/>
<polygon fill="none" stroke="#35f86e" points="413.3,-2255.05 413.3,-2276.95 332.24,-2288 222.33,-2288 141.26,-2276.95 141.26,-2255.05 222.33,-2244 332.24,-2244 413.3,-2255.05"/>
<polygon fill="none" stroke="#35f86e" points="417.3,-2251.56 417.3,-2280.44 332.51,-2292 222.06,-2292 137.27,-2280.44 137.27,-2251.56 222.06,-2240 332.51,-2240 417.3,-2251.56"/>
<text text-anchor="middle" x="277.28" y="-2262.3" font-family="Roboto" font-size="14.00" fill="#000000">arduino&#45;1.8.12 (566.62 MiB)</text>
</g>
<!-- N47 -->
<g id="node20" class="node">
<title>N47</title>
<polygon fill="#4075e1" stroke="#4075e1" points="405.35,-88.54 405.35,-103.46 330.33,-114 224.24,-114 149.22,-103.46 149.22,-88.54 224.24,-78 330.33,-78 405.35,-88.54"/>
<polygon fill="none" stroke="#4075e1" points="409.35,-85.07 409.35,-106.93 330.61,-118 223.96,-118 145.21,-106.93 145.21,-85.07 223.96,-74 330.61,-74 409.35,-85.07"/>
<polygon fill="none" stroke="#4075e1" points="413.36,-81.59 413.36,-110.41 330.89,-122 223.68,-122 141.21,-110.41 141.21,-81.59 223.68,-70 330.89,-70 413.36,-81.59"/>
<text text-anchor="middle" x="277.28" y="-92.3" font-family="Roboto" font-size="14.00" fill="#ffffff">tigervnc&#45;1.10.1 (16.92 MiB)</text>
</g>
<!-- N47&#45;&gt;N35 -->
<g id="edge20" class="edge">
<title>N47&#45;&gt;N35</title>
<path fill="none" stroke="black" d="M413.64,-98.22C451.63,-103.24 491.83,-112.97 525.88,-131 591.85,-165.92 644.32,-239.52 669.19,-279.24"/>
<polygon fill="black" stroke="black" points="666.27,-281.18 674.49,-287.87 672.24,-277.52 666.27,-281.18"/>
</g>
<!-- N48 -->
<g id="node21" class="node">
<title>N48</title>
<polygon fill="#408ae3" stroke="#408ae3" points="397.39,-1138.54 397.39,-1153.46 327.03,-1164 227.53,-1164 157.18,-1153.46 157.18,-1138.54 227.53,-1128 327.03,-1128 397.39,-1138.54"/>
<polygon fill="none" stroke="#408ae3" points="401.39,-1135.1 401.39,-1156.9 327.33,-1168 227.24,-1168 153.18,-1156.9 153.18,-1135.1 227.24,-1124 327.33,-1124 401.39,-1135.1"/>
<polygon fill="none" stroke="#408ae3" points="405.38,-1131.65 405.38,-1160.35 327.63,-1172 226.94,-1172 149.19,-1160.35 149.19,-1131.65 226.94,-1120 327.63,-1120 405.38,-1131.65"/>
<text text-anchor="middle" x="277.28" y="-1142.3" font-family="Roboto" font-size="14.00" fill="#ffffff">neovim&#45;0.4.3 (51.85 MiB)</text>
</g>
<!-- N48&#45;&gt;N36 -->
<g id="edge21" class="edge">
<title>N48&#45;&gt;N36</title>
<path fill="none" stroke="black" d="M405.65,-1144.78C445.94,-1140.09 489.43,-1130.29 525.88,-1111 591.85,-1076.08 644.32,-1002.48 669.19,-962.76"/>
<polygon fill="black" stroke="black" points="672.24,-964.48 674.49,-954.13 666.27,-960.82 672.24,-964.48"/>
</g>
<!-- N18 -->
<g id="node22" class="node">
<title>N18</title>
<polygon fill="#c6fe2a" stroke="#c6fe2a" points="425.24,-2328.54 425.24,-2343.46 338.57,-2354 216,-2354 129.33,-2343.46 129.33,-2328.54 216,-2318 338.57,-2318 425.24,-2328.54"/>
<polygon fill="none" stroke="#c6fe2a" points="429.25,-2325 429.25,-2347 338.81,-2358 215.76,-2358 125.32,-2347 125.32,-2325 215.76,-2314 338.81,-2314 429.25,-2325"/>
<polygon fill="none" stroke="#c6fe2a" points="433.25,-2321.46 433.25,-2350.54 339.06,-2362 215.51,-2362 121.32,-2350.54 121.32,-2321.46 215.51,-2310 339.06,-2310 433.25,-2321.46"/>
<text text-anchor="middle" x="277.28" y="-2332.3" font-family="Roboto" font-size="14.00" fill="#000000">clang&#45;tools&#45;10.0.1 (867.64 MiB)</text>
</g>
<!-- N17 -->
<g id="node23" class="node">
<title>N17</title>
<polygon fill="#7efc31" stroke="#7efc31" points="442.43,-2468.54 442.43,-2483.46 345.69,-2494 208.88,-2494 112.13,-2483.46 112.13,-2468.54 208.88,-2458 345.69,-2458 442.43,-2468.54"/>
<polygon fill="none" stroke="#7efc31" points="446.43,-2464.96 446.43,-2487.04 345.91,-2498 208.66,-2498 108.14,-2487.04 108.14,-2464.96 208.66,-2454 345.91,-2454 446.43,-2464.96"/>
<polygon fill="none" stroke="#7efc31" points="450.43,-2461.37 450.43,-2490.63 346.13,-2502 208.44,-2502 104.14,-2490.63 104.14,-2461.37 208.44,-2450 346.13,-2450 450.43,-2461.37"/>
<text text-anchor="middle" x="277.28" y="-2472.3" font-family="Roboto" font-size="14.00" fill="#000000">kodi&#45;with&#45;plugins&#45;18.5 (672.27 MiB)</text>
</g>
<!-- N33 -->
<g id="node57" class="node">
<title>N33</title>
<polygon fill="#3fb4e6" stroke="#3fb4e6" points="765.38,-2459 606.38,-2459 606.38,-2423 765.38,-2423 765.38,-2459"/>
<text text-anchor="middle" x="685.88" y="-2437.3" font-family="Roboto" font-size="14.00" fill="#ffffff">glibc&#45;2.30 (136.98 MiB)</text>
</g>
<!-- N17&#45;&gt;N33 -->
<g id="edge22" class="edge">
<title>N17&#45;&gt;N33</title>
<path fill="none" stroke="black" d="M449.54,-2461.26C499.97,-2456.92 553.1,-2452.34 596.09,-2448.64"/>
<polygon fill="black" stroke="black" points="596.57,-2452.12 606.23,-2447.77 595.97,-2445.14 596.57,-2452.12"/>
</g>
<!-- N49 -->
<g id="node24" class="node">
<title>N49</title>
<polygon fill="#4082e2" stroke="#4082e2" points="419.91,-368.54 419.91,-383.46 336.36,-394 218.21,-394 134.66,-383.46 134.66,-368.54 218.21,-358 336.36,-358 419.91,-368.54"/>
<polygon fill="none" stroke="#4082e2" points="423.91,-365.02 423.91,-386.98 336.61,-398 217.95,-398 130.66,-386.98 130.66,-365.02 217.95,-354 336.61,-354 423.91,-365.02"/>
<polygon fill="none" stroke="#4082e2" points="427.9,-361.49 427.9,-390.51 336.86,-402 217.7,-402 126.67,-390.51 126.67,-361.49 217.7,-350 336.86,-350 427.9,-361.49"/>
<text text-anchor="middle" x="277.28" y="-372.3" font-family="Roboto" font-size="14.00" fill="#ffffff">virt&#45;manager&#45;2.2.1 (37.64 MiB)</text>
</g>
<!-- N49&#45;&gt;N35 -->
<g id="edge23" class="edge">
<title>N49&#45;&gt;N35</title>
<path fill="none" stroke="black" d="M410.29,-359.24C447.74,-353.97 488.5,-347.75 525.88,-341 549.61,-336.72 575.18,-331.4 598.73,-326.22"/>
<polygon fill="black" stroke="black" points="599.69,-329.59 608.69,-324.01 598.17,-322.76 599.69,-329.59"/>
</g>
<!-- N50 -->
<g id="node25" class="node">
<title>N50</title>
<polygon fill="#406fe1" stroke="#406fe1" points="416.38,-2608.54 416.38,-2623.46 334.9,-2634 219.67,-2634 138.19,-2623.46 138.19,-2608.54 219.67,-2598 334.9,-2598 416.38,-2608.54"/>
<polygon fill="none" stroke="#406fe1" points="420.37,-2605.03 420.37,-2626.97 335.16,-2638 219.41,-2638 134.2,-2626.97 134.2,-2605.03 219.41,-2594 335.16,-2594 420.37,-2605.03"/>
<polygon fill="none" stroke="#406fe1" points="424.37,-2601.51 424.37,-2630.49 335.41,-2642 219.16,-2642 130.2,-2630.49 130.2,-2601.51 219.16,-2590 335.41,-2590 424.37,-2601.51"/>
<text text-anchor="middle" x="277.28" y="-2612.3" font-family="Roboto" font-size="14.00" fill="#ffffff">nomacs&#45;3.15.1616 (8.69 MiB)</text>
</g>
<!-- N34 -->
<g id="node58" class="node">
<title>N34</title>
<polygon fill="#3fa2e5" stroke="#3fa2e5" points="770.88,-2599 600.88,-2599 600.88,-2563 770.88,-2563 770.88,-2599"/>
<text text-anchor="middle" x="685.88" y="-2577.3" font-family="Roboto" font-size="14.00" fill="#ffffff">opencv&#45;4.3.0 (98.66 MiB)</text>
</g>
<!-- N50&#45;&gt;N34 -->
<g id="edge24" class="edge">
<title>N50&#45;&gt;N34</title>
<path fill="none" stroke="black" d="M424.5,-2603.41C479.88,-2598.65 541.41,-2593.35 590.74,-2589.1"/>
<polygon fill="black" stroke="black" points="591.1,-2592.59 600.76,-2588.24 590.5,-2585.61 591.1,-2592.59"/>
</g>
<!-- N51 -->
<g id="node26" class="node">
<title>N51</title>
<polygon fill="#4075e1" stroke="#4075e1" points="387.26,-298.54 387.26,-313.46 322.84,-324 231.73,-324 167.31,-313.46 167.31,-298.54 231.73,-288 322.84,-288 387.26,-298.54"/>
<polygon fill="none" stroke="#4075e1" points="391.27,-295.15 391.27,-316.85 323.16,-328 231.41,-328 163.3,-316.85 163.3,-295.15 231.41,-284 323.16,-284 391.27,-295.15"/>
<polygon fill="none" stroke="#4075e1" points="395.27,-291.75 395.27,-320.25 323.49,-332 231.08,-332 159.29,-320.25 159.29,-291.75 231.08,-280 323.49,-280 395.27,-291.75"/>
<text text-anchor="middle" x="277.28" y="-302.3" font-family="Roboto" font-size="14.00" fill="#ffffff">piper&#45;0.5.1 (18.22 MiB)</text>
</g>
<!-- N51&#45;&gt;N35 -->
<g id="edge25" class="edge">
<title>N51&#45;&gt;N35</title>
<path fill="none" stroke="black" d="M395.07,-306C453.5,-306 523.66,-306 580.31,-306"/>
<polygon fill="black" stroke="black" points="580.36,-309.5 590.36,-306 580.36,-302.5 580.36,-309.5"/>
</g>
<!-- N16 -->
<g id="node27" class="node">
<title>N16</title>
<polygon fill="#3ec0e8" stroke="#3ec0e8" points="406.67,-2678.54 406.67,-2693.46 330.88,-2704 223.69,-2704 147.9,-2693.46 147.9,-2678.54 223.69,-2668 330.88,-2668 406.67,-2678.54"/>
<polygon fill="none" stroke="#3ec0e8" points="410.67,-2675.06 410.67,-2696.94 331.16,-2708 223.41,-2708 143.9,-2696.94 143.9,-2675.06 223.41,-2664 331.16,-2664 410.67,-2675.06"/>
<polygon fill="none" stroke="#3ec0e8" points="414.67,-2671.58 414.67,-2700.42 331.43,-2712 223.14,-2712 139.9,-2700.42 139.9,-2671.58 223.14,-2660 331.43,-2660 414.67,-2671.58"/>
<text text-anchor="middle" x="277.28" y="-2682.3" font-family="Roboto" font-size="14.00" fill="#000000">gzdoom&#45;4.4.2 (165.31 MiB)</text>
</g>
<!-- N52 -->
<g id="node28" class="node">
<title>N52</title>
<polygon fill="#3eb8e7" stroke="#3eb8e7" points="398.29,-2538.54 398.29,-2553.46 327.4,-2564 227.16,-2564 156.28,-2553.46 156.28,-2538.54 227.16,-2528 327.4,-2528 398.29,-2538.54"/>
<polygon fill="none" stroke="#3eb8e7" points="402.29,-2535.1 402.29,-2556.9 327.7,-2568 226.87,-2568 152.28,-2556.9 152.28,-2535.1 226.87,-2524 327.7,-2524 402.29,-2535.1"/>
<polygon fill="none" stroke="#3eb8e7" points="406.29,-2531.65 406.29,-2560.35 328,-2572 226.57,-2572 148.28,-2560.35 148.28,-2531.65 226.57,-2520 328,-2520 406.29,-2531.65"/>
<text text-anchor="middle" x="277.28" y="-2542.3" font-family="Roboto" font-size="14.00" fill="#000000">hunter&#45;1.3.5 (147.51 MiB)</text>
</g>
<!-- N52&#45;&gt;N34 -->
<g id="edge26" class="edge">
<title>N52&#45;&gt;N34</title>
<path fill="none" stroke="black" d="M406.38,-2557.03C466.09,-2562.17 535.88,-2568.17 590.66,-2572.89"/>
<polygon fill="black" stroke="black" points="590.45,-2576.38 600.71,-2573.75 591.05,-2569.41 590.45,-2576.38"/>
</g>
<!-- N15 -->
<g id="node29" class="node">
<title>N15</title>
<polygon fill="#3ecae9" stroke="#3ecae9" points="406.25,-2398.54 406.25,-2413.46 330.7,-2424 223.87,-2424 148.32,-2413.46 148.32,-2398.54 223.87,-2388 330.7,-2388 406.25,-2398.54"/>
<polygon fill="none" stroke="#3ecae9" points="410.26,-2395.06 410.26,-2416.94 330.98,-2428 223.59,-2428 144.31,-2416.94 144.31,-2395.06 223.59,-2384 330.98,-2384 410.26,-2395.06"/>
<polygon fill="none" stroke="#3ecae9" points="414.26,-2391.58 414.26,-2420.42 331.26,-2432 223.31,-2432 140.31,-2420.42 140.31,-2391.58 223.31,-2380 331.26,-2380 414.26,-2391.58"/>
<text text-anchor="middle" x="277.28" y="-2402.3" font-family="Roboto" font-size="14.00" fill="#000000">fritzing&#45;0.9.3b (190.99 MiB)</text>
</g>
<!-- N15&#45;&gt;N33 -->
<g id="edge27" class="edge">
<title>N15&#45;&gt;N33</title>
<path fill="none" stroke="black" d="M414.24,-2417.7C474.21,-2422.87 542.99,-2428.79 596.2,-2433.37"/>
<polygon fill="black" stroke="black" points="596.03,-2436.86 606.29,-2434.24 596.63,-2429.89 596.03,-2436.86"/>
</g>
<!-- N53 -->
<g id="node30" class="node">
<title>N53</title>
<polygon fill="#406ae1" stroke="#406ae1" points="388.58,-2118.54 388.58,-2133.46 323.38,-2144 231.18,-2144 165.99,-2133.46 165.99,-2118.54 231.18,-2108 323.38,-2108 388.58,-2118.54"/>
<polygon fill="none" stroke="#406ae1" points="392.58,-2115.14 392.58,-2136.86 323.71,-2148 230.86,-2148 161.99,-2136.86 161.99,-2115.14 230.86,-2104 323.71,-2104 392.58,-2115.14"/>
<polygon fill="none" stroke="#406ae1" points="396.59,-2111.74 396.59,-2140.26 324.03,-2152 230.54,-2152 157.98,-2140.26 157.98,-2111.74 230.54,-2100 324.03,-2100 396.59,-2111.74"/>
<text text-anchor="middle" x="277.28" y="-2122.3" font-family="Roboto" font-size="14.00" fill="#ffffff">zeal&#45;0.6.999 (1.68 MiB)</text>
</g>
<!-- N53&#45;&gt;N32 -->
<g id="edge28" class="edge">
<title>N53&#45;&gt;N32</title>
<path fill="none" stroke="black" d="M396.71,-2136.19C452.54,-2141 518.79,-2146.7 573.68,-2151.43"/>
<polygon fill="black" stroke="black" points="573.53,-2154.93 583.79,-2152.3 574.13,-2147.95 573.53,-2154.93"/>
</g>
<!-- N14 -->
<g id="node31" class="node">
<title>N14</title>
<polygon fill="#fe0000" stroke="#fe0000" points="459.69,-1068.54 459.69,-1083.46 352.84,-1094 201.73,-1094 94.88,-1083.46 94.88,-1068.54 201.73,-1058 352.84,-1058 459.69,-1068.54"/>
<polygon fill="none" stroke="#fe0000" points="463.69,-1064.92 463.69,-1087.08 353.03,-1098 201.53,-1098 90.88,-1087.08 90.88,-1064.92 201.53,-1054 353.03,-1054 463.69,-1064.92"/>
<polygon fill="none" stroke="#fe0000" points="467.69,-1061.3 467.69,-1090.7 353.23,-1102 201.34,-1102 86.87,-1090.7 86.87,-1061.3 201.34,-1050 353.23,-1050 467.69,-1061.3"/>
<text text-anchor="middle" x="277.28" y="-1072.3" font-family="Roboto" font-size="14.00" fill="#000000">xmonad&#45;with&#45;packages&#45;8.8.4 (2.17 GiB)</text>
</g>
<!-- N14&#45;&gt;N36 -->
<g id="edge29" class="edge">
<title>N14&#45;&gt;N36</title>
<path fill="none" stroke="black" d="M457.85,-1060.25C481.14,-1055.42 504.36,-1049.15 525.88,-1041 575.65,-1022.15 625.66,-985.53 655.95,-960.91"/>
<polygon fill="black" stroke="black" points="658.46,-963.37 663.95,-954.31 654.01,-957.97 658.46,-963.37"/>
</g>
<!-- N55 -->
<g id="node32" class="node">
<title>N55</title>
<polygon fill="#406ae1" stroke="#406ae1" points="432.73,-1418.54 432.73,-1433.46 341.67,-1444 212.9,-1444 121.84,-1433.46 121.84,-1418.54 212.9,-1408 341.67,-1408 432.73,-1418.54"/>
<polygon fill="none" stroke="#406ae1" points="436.73,-1414.98 436.73,-1437.02 341.9,-1448 212.67,-1448 117.84,-1437.02 117.84,-1414.98 212.67,-1404 341.9,-1404 436.73,-1414.98"/>
<polygon fill="none" stroke="#406ae1" points="440.73,-1411.42 440.73,-1440.58 342.13,-1452 212.44,-1452 113.84,-1440.58 113.84,-1411.42 212.44,-1400 342.13,-1400 440.73,-1411.42"/>
<text text-anchor="middle" x="277.28" y="-1422.3" font-family="Roboto" font-size="14.00" fill="#ffffff">nvidia&#45;settings&#45;450.57 (1.57 MiB)</text>
</g>
<!-- N54 -->
<g id="node38" class="node">
<title>N54</title>
<polygon fill="#4089e3" stroke="#4089e3" points="462.32,-1348.54 462.32,-1363.46 353.93,-1374 200.64,-1374 92.25,-1363.46 92.25,-1348.54 200.64,-1338 353.93,-1338 462.32,-1348.54"/>
<polygon fill="none" stroke="#4089e3" points="466.32,-1344.91 466.32,-1367.09 354.12,-1378 200.45,-1378 88.25,-1367.09 88.25,-1344.91 200.45,-1334 354.12,-1334 466.32,-1344.91"/>
<polygon fill="none" stroke="#4089e3" points="470.32,-1341.28 470.32,-1370.72 354.32,-1382 200.25,-1382 84.25,-1370.72 84.25,-1341.28 200.25,-1330 354.32,-1330 470.32,-1341.28"/>
<text text-anchor="middle" x="277.28" y="-1352.3" font-family="Roboto" font-size="14.00" fill="#ffffff">nvidia&#45;x11&#45;450.57&#45;5.4.54&#45;bin (50.73 MiB)</text>
</g>
<!-- N55&#45;&gt;N54 -->
<g id="edge30" class="edge">
<title>N55&#45;&gt;N54</title>
<path fill="none" stroke="black" d="M277.28,-1399.68C277.28,-1397.23 277.28,-1394.78 277.28,-1392.33"/>
<polygon fill="black" stroke="black" points="280.78,-1392.25 277.28,-1382.25 273.78,-1392.25 280.78,-1392.25"/>
</g>
<!-- N13 -->
<g id="node33" class="node">
<title>N13</title>
<polygon fill="#3ec1e8" stroke="#3ec1e8" points="420.81,-998.54 420.81,-1013.46 336.73,-1024 217.83,-1024 133.76,-1013.46 133.76,-998.54 217.83,-988 336.73,-988 420.81,-998.54"/>
<polygon fill="none" stroke="#3ec1e8" points="424.81,-995.01 424.81,-1016.99 336.98,-1028 217.58,-1028 129.76,-1016.99 129.76,-995.01 217.58,-984 336.98,-984 424.81,-995.01"/>
<polygon fill="none" stroke="#3ec1e8" points="428.81,-991.48 428.81,-1020.52 337.23,-1032 217.33,-1032 125.76,-1020.52 125.76,-991.48 217.33,-980 337.23,-980 428.81,-991.48"/>
<text text-anchor="middle" x="277.28" y="-1002.3" font-family="Roboto" font-size="14.00" fill="#000000">upwork&#45;5.3.3.862 (168.29 MiB)</text>
</g>
<!-- N13&#45;&gt;N36 -->
<g id="edge31" class="edge">
<title>N13&#45;&gt;N36</title>
<path fill="none" stroke="black" d="M410.61,-989.19C447.98,-983.93 488.6,-977.73 525.88,-971 549.61,-966.72 575.18,-961.4 598.73,-956.22"/>
<polygon fill="black" stroke="black" points="599.69,-959.59 608.69,-954.01 598.17,-952.76 599.69,-959.59"/>
</g>
<!-- N12 -->
<g id="node34" class="node">
<title>N12</title>
<polygon fill="#3ec7e8" stroke="#3ec7e8" points="453.93,-2748.54 453.93,-2763.46 350.46,-2774 204.11,-2774 100.63,-2763.46 100.63,-2748.54 204.11,-2738 350.46,-2738 453.93,-2748.54"/>
<polygon fill="none" stroke="#3ec7e8" points="457.94,-2744.93 457.94,-2767.07 350.66,-2778 203.91,-2778 96.63,-2767.07 96.63,-2744.93 203.91,-2734 350.66,-2734 457.94,-2744.93"/>
<polygon fill="none" stroke="#3ec7e8" points="461.94,-2741.32 461.94,-2770.68 350.86,-2782 203.71,-2782 92.63,-2770.68 92.63,-2741.32 203.71,-2730 350.86,-2730 461.94,-2741.32"/>
<text text-anchor="middle" x="277.28" y="-2752.3" font-family="Roboto" font-size="14.00" fill="#000000">firefox&#45;unwrapped&#45;78.0.1 (183.98 MiB)</text>
</g>
<!-- N11 -->
<g id="node35" class="node">
<title>N11</title>
<polygon fill="#3cedea" stroke="#3cedea" points="447.76,-2888.54 447.76,-2903.46 347.9,-2914 206.67,-2914 106.8,-2903.46 106.8,-2888.54 206.67,-2878 347.9,-2878 447.76,-2888.54"/>
<polygon fill="none" stroke="#3cedea" points="451.77,-2884.94 451.77,-2907.06 348.11,-2918 206.46,-2918 102.8,-2907.06 102.8,-2884.94 206.46,-2874 348.11,-2874 451.77,-2884.94"/>
<polygon fill="none" stroke="#3cedea" points="455.78,-2881.35 455.78,-2910.65 348.32,-2922 206.25,-2922 98.79,-2910.65 98.79,-2881.35 206.25,-2870 348.32,-2870 455.78,-2881.35"/>
<text text-anchor="middle" x="277.28" y="-2892.3" font-family="Roboto" font-size="14.00" fill="#000000">skypeforlinux&#45;8.62.0.85 (293.28 MiB)</text>
</g>
<!-- N10 -->
<g id="node36" class="node">
<title>N10</title>
<polygon fill="#3fabe6" stroke="#3fabe6" points="422.13,-2958.54 422.13,-2973.46 337.28,-2984 217.29,-2984 132.44,-2973.46 132.44,-2958.54 217.29,-2948 337.28,-2948 422.13,-2958.54"/>
<polygon fill="none" stroke="#3fabe6" points="426.13,-2955.01 426.13,-2976.99 337.53,-2988 217.04,-2988 128.44,-2976.99 128.44,-2955.01 217.04,-2944 337.53,-2944 426.13,-2955.01"/>
<polygon fill="none" stroke="#3fabe6" points="430.12,-2951.48 430.12,-2980.52 337.77,-2992 216.79,-2992 124.45,-2980.52 124.45,-2951.48 216.79,-2940 337.77,-2940 430.12,-2951.48"/>
<text text-anchor="middle" x="277.28" y="-2962.3" font-family="Roboto" font-size="14.00" fill="#ffffff">prusa&#45;slicer&#45;2.2.0 (117.18 MiB)</text>
</g>
<!-- N54&#45;&gt;N31 -->
<g id="edge32" class="edge">
<title>N54&#45;&gt;N31</title>
<path fill="none" stroke="black" d="M426.2,-1375.03C459.09,-1379.78 493.73,-1385.2 525.88,-1391 549.61,-1395.28 575.18,-1400.6 598.73,-1405.78"/>
<polygon fill="black" stroke="black" points="598.17,-1409.24 608.69,-1407.99 599.69,-1402.41 598.17,-1409.24"/>
</g>
<!-- N8 -->
<g id="node39" class="node">
<title>N8</title>
<polygon fill="#3cede8" stroke="#3cede8" points="396.97,-3028.54 396.97,-3043.46 326.86,-3054 227.71,-3054 157.6,-3043.46 157.6,-3028.54 227.71,-3018 326.86,-3018 396.97,-3028.54"/>
<polygon fill="none" stroke="#3cede8" points="400.97,-3025.1 400.97,-3046.9 327.16,-3058 227.41,-3058 153.6,-3046.9 153.6,-3025.1 227.41,-3014 327.16,-3014 400.97,-3025.1"/>
<polygon fill="none" stroke="#3cede8" points="404.97,-3021.66 404.97,-3050.34 327.46,-3062 227.11,-3062 149.6,-3050.34 149.6,-3021.66 227.11,-3010 327.46,-3010 404.97,-3021.66"/>
<text text-anchor="middle" x="277.28" y="-3032.3" font-family="Roboto" font-size="14.00" fill="#000000">elixir&#45;1.10.4 (301.48 MiB)</text>
</g>
<!-- N7 -->
<g id="node40" class="node">
<title>N7</title>
<polygon fill="#3ce6ec" stroke="#3ce6ec" points="457.47,-3098.54 457.47,-3113.46 351.92,-3124 202.65,-3124 97.1,-3113.46 97.1,-3098.54 202.65,-3088 351.92,-3088 457.47,-3098.54"/>
<polygon fill="none" stroke="#3ce6ec" points="461.47,-3094.92 461.47,-3117.08 352.12,-3128 202.45,-3128 93.1,-3117.08 93.1,-3094.92 202.45,-3084 352.12,-3084 461.47,-3094.92"/>
<polygon fill="none" stroke="#3ce6ec" points="465.47,-3091.3 465.47,-3120.7 352.32,-3132 202.25,-3132 89.1,-3120.7 89.1,-3091.3 202.25,-3080 352.32,-3080 465.47,-3091.3"/>
<text text-anchor="middle" x="277.28" y="-3102.3" font-family="Roboto" font-size="14.00" fill="#000000">qemu&#45;host&#45;cpu&#45;only&#45;5.0.0 (266.47 MiB)</text>
</g>
<!-- N56 -->
<g id="node41" class="node">
<title>N56</title>
<polygon fill="#406be1" stroke="#406be1" points="392.54,-2818.54 392.54,-2833.46 325.02,-2844 229.54,-2844 162.03,-2833.46 162.03,-2818.54 229.54,-2808 325.02,-2808 392.54,-2818.54"/>
<polygon fill="none" stroke="#406be1" points="396.53,-2815.12 396.53,-2836.88 325.33,-2848 229.23,-2848 158.03,-2836.88 158.03,-2815.12 229.23,-2804 325.33,-2804 396.53,-2815.12"/>
<polygon fill="none" stroke="#406be1" points="400.53,-2811.7 400.53,-2840.3 325.64,-2852 228.92,-2852 154.04,-2840.3 154.04,-2811.7 228.92,-2800 325.64,-2800 400.53,-2811.7"/>
<text text-anchor="middle" x="277.28" y="-2822.3" font-family="Roboto" font-size="14.00" fill="#ffffff">firefox&#45;78.0.1 (3.60 MiB)</text>
</g>
<!-- N56&#45;&gt;N12 -->
<g id="edge33" class="edge">
<title>N56&#45;&gt;N12</title>
<path fill="none" stroke="black" d="M277.28,-2799.68C277.28,-2797.23 277.28,-2794.78 277.28,-2792.33"/>
<polygon fill="black" stroke="black" points="280.78,-2792.25 277.28,-2782.25 273.78,-2792.25 280.78,-2792.25"/>
</g>
<!-- N5 -->
<g id="node43" class="node">
<title>N5</title>
<polygon fill="#3ec0e8" stroke="#3ec0e8" points="517.97,-3168.54 517.97,-3183.46 376.98,-3194 177.59,-3194 36.6,-3183.46 36.6,-3168.54 177.59,-3158 376.98,-3158 517.97,-3168.54"/>
<polygon fill="none" stroke="#3ec0e8" points="521.97,-3164.83 521.97,-3187.17 377.13,-3198 177.44,-3198 32.6,-3187.17 32.6,-3164.83 177.44,-3154 377.13,-3154 521.97,-3164.83"/>
<polygon fill="none" stroke="#3ec0e8" points="525.97,-3161.12 525.97,-3190.88 377.28,-3202 177.29,-3202 28.6,-3190.88 28.6,-3161.12 177.29,-3150 377.28,-3150 525.97,-3161.12"/>
<text text-anchor="middle" x="277.28" y="-3172.3" font-family="Roboto" font-size="14.00" fill="#000000">google&#45;play&#45;music&#45;desktop&#45;player&#45;4.7.1 (165.68 MiB)</text>
</g>
<!-- N4 -->
<g id="node44" class="node">
<title>N4</title>
<polygon fill="#3dddeb" stroke="#3dddeb" points="476.46,-3238.54 476.46,-3253.46 359.78,-3264 194.78,-3264 78.11,-3253.46 78.11,-3238.54 194.78,-3228 359.78,-3228 476.46,-3238.54"/>
<polygon fill="none" stroke="#3dddeb" points="480.46,-3234.89 480.46,-3257.11 359.97,-3268 194.6,-3268 74.11,-3257.11 74.11,-3234.89 194.6,-3224 359.97,-3224 480.46,-3234.89"/>
<polygon fill="none" stroke="#3dddeb" points="484.46,-3231.23 484.46,-3260.77 360.15,-3272 194.42,-3272 70.11,-3260.77 70.11,-3231.23 194.42,-3220 360.15,-3220 484.46,-3231.23"/>
<text text-anchor="middle" x="277.28" y="-3242.3" font-family="Roboto" font-size="14.00" fill="#000000">google&#45;chrome&#45;84.0.4147.105 (241.29 MiB)</text>
</g>
<!-- N3 -->
<g id="node45" class="node">
<title>N3</title>
<polygon fill="#fe8100" stroke="#fe8100" points="371.34,-1838.54 371.34,-1853.46 316.24,-1864 238.33,-1864 183.23,-1853.46 183.23,-1838.54 238.33,-1828 316.24,-1828 371.34,-1838.54"/>
<polygon fill="none" stroke="#fe8100" points="375.33,-1835.24 375.33,-1856.76 316.62,-1868 237.95,-1868 179.24,-1856.76 179.24,-1835.24 237.95,-1824 316.62,-1824 375.33,-1835.24"/>
<polygon fill="none" stroke="#fe8100" points="379.32,-1831.93 379.32,-1860.07 317,-1872 237.57,-1872 175.25,-1860.07 175.25,-1831.93 237.57,-1820 317,-1820 379.32,-1831.93"/>
<text text-anchor="middle" x="277.28" y="-1842.3" font-family="Roboto" font-size="14.00" fill="#000000">wine&#45;5.0 (1.94 GiB)</text>
</g>
<!-- N3&#45;&gt;N30 -->
<g id="edge34" class="edge">
<title>N3&#45;&gt;N30</title>
<path fill="none" stroke="black" d="M379.57,-1847.99C434.38,-1849.07 502.53,-1850.41 560.54,-1851.55"/>
<polygon fill="black" stroke="black" points="560.8,-1855.06 570.87,-1851.76 560.94,-1848.06 560.8,-1855.06"/>
</g>
<!-- N57 -->
<g id="node46" class="node">
<title>N57</title>
<polygon fill="#4069e1" stroke="#4069e1" points="401.82,-228.54 401.82,-243.46 328.87,-254 225.7,-254 152.75,-243.46 152.75,-228.54 225.7,-218 328.87,-218 401.82,-228.54"/>
<polygon fill="none" stroke="#4069e1" points="405.82,-225.08 405.82,-246.92 329.16,-258 225.41,-258 148.75,-246.92 148.75,-225.08 225.41,-214 329.16,-214 405.82,-225.08"/>
<polygon fill="none" stroke="#4069e1" points="409.82,-221.62 409.82,-250.38 329.44,-262 225.12,-262 144.75,-250.38 144.75,-221.62 225.12,-210 329.44,-210 409.82,-221.62"/>
<text text-anchor="middle" x="277.28" y="-232.3" font-family="Roboto" font-size="14.00" fill="#ffffff">arandr&#45;0.1.10 (204.10 KiB)</text>
</g>
<!-- N57&#45;&gt;N35 -->
<g id="edge35" class="edge">
<title>N57&#45;&gt;N35</title>
<path fill="none" stroke="black" d="M402,-251.6C441.67,-257.11 485.72,-263.75 525.88,-271 549.61,-275.28 575.18,-280.6 598.73,-285.78"/>
<polygon fill="black" stroke="black" points="598.17,-289.24 608.69,-287.99 599.69,-282.41 598.17,-289.24"/>
</g>
<!-- N2 -->
<g id="node47" class="node">
<title>N2</title>
<polygon fill="#3fb1e6" stroke="#3fb1e6" points="388.58,-3308.54 388.58,-3323.46 323.38,-3334 231.18,-3334 165.99,-3323.46 165.99,-3308.54 231.18,-3298 323.38,-3298 388.58,-3308.54"/>
<polygon fill="none" stroke="#3fb1e6" points="392.58,-3305.14 392.58,-3326.86 323.71,-3338 230.86,-3338 161.99,-3326.86 161.99,-3305.14 230.86,-3294 323.71,-3294 392.58,-3305.14"/>
<polygon fill="none" stroke="#3fb1e6" points="396.59,-3301.74 396.59,-3330.26 324.03,-3342 230.54,-3342 157.98,-3330.26 157.98,-3301.74 230.54,-3290 324.03,-3290 396.59,-3301.74"/>
<text text-anchor="middle" x="277.28" y="-3312.3" font-family="Roboto" font-size="14.00" fill="#ffffff">vlc&#45;3.0.11 (130.75 MiB)</text>
</g>
<!-- N1 -->
<g id="node48" class="node">
<title>N1</title>
<polygon fill="#3ec2e8" stroke="#3ec2e8" points="401.82,-508.54 401.82,-523.46 328.87,-534 225.7,-534 152.75,-523.46 152.75,-508.54 225.7,-498 328.87,-498 401.82,-508.54"/>
<polygon fill="none" stroke="#3ec2e8" points="405.82,-505.08 405.82,-526.92 329.16,-538 225.41,-538 148.75,-526.92 148.75,-505.08 225.41,-494 329.16,-494 405.82,-505.08"/>
<polygon fill="none" stroke="#3ec2e8" points="409.82,-501.62 409.82,-530.38 329.44,-542 225.12,-542 144.75,-530.38 144.75,-501.62 225.12,-490 329.44,-490 409.82,-501.62"/>
<text text-anchor="middle" x="277.28" y="-512.3" font-family="Roboto" font-size="14.00" fill="#000000">inkscape&#45;1.0 (171.47 MiB)</text>
</g>
<!-- N1&#45;&gt;N39 -->
<g id="edge36" class="edge">
<title>N1&#45;&gt;N39</title>
<path fill="none" stroke="black" d="M410.01,-516C475.08,-516 551.37,-516 607.04,-516"/>
<polygon fill="black" stroke="black" points="607.19,-519.5 617.19,-516 607.19,-512.5 607.19,-519.5"/>
</g>
</g>
</svg>
