<?xml version="1.0" encoding="UTF-8" standalone="no"?>
<!DOCTYPE svg PUBLIC "-//W3C//DTD SVG 1.1//EN"
 "http://www.w3.org/Graphics/SVG/1.1/DTD/svg11.dtd">
<!-- Generated by graphviz version 2.43.0 (0)
 -->
<!-- Title: nixstore Pages: 1 -->
<svg width="1042pt" height="2720pt"
 viewBox="0.00 0.00 1042.40 2720.00" xmlns="http://www.w3.org/2000/svg" xmlns:xlink="http://www.w3.org/1999/xlink">
<g id="graph0" class="graph" transform="scale(1 1) rotate(0) translate(4 2716)">
<title>nixstore</title>
<polygon fill="white" stroke="transparent" points="-4,4 -4,-2716 1038.4,-2716 1038.4,4 -4,4"/>
<!-- N47 -->
<g id="node1" class="node">
<title>N47</title>
<polygon fill="#ff2a00" stroke="#ff2a00" points="380.84,-18.54 380.84,-33.46 315.65,-44 223.45,-44 158.25,-33.46 158.25,-18.54 223.45,-8 315.65,-8 380.84,-18.54"/>
<polygon fill="none" stroke="#ff2a00" points="384.84,-15.14 384.84,-36.86 315.97,-48 223.12,-48 154.25,-36.86 154.25,-15.14 223.12,-4 315.97,-4 384.84,-15.14"/>
<polygon fill="none" stroke="#ff2a00" points="388.85,-11.74 388.85,-40.26 316.29,-52 222.8,-52 150.24,-40.26 150.24,-11.74 222.8,0 316.29,0 388.85,-11.74"/>
<text text-anchor="middle" x="269.55" y="-22.3" font-family="Roboto" font-size="14.00" fill="#000000">{filtered out} (2.14 GiB)</text>
</g>
<!-- N34 -->
<g id="node2" class="node">
<title>N34</title>
<polygon fill="#3fb3e7" stroke="#3fb3e7" points="435.59,-158.54 435.59,-173.46 338.32,-184 200.77,-184 103.5,-173.46 103.5,-158.54 200.77,-148 338.32,-148 435.59,-158.54"/>
<polygon fill="none" stroke="#3fb3e7" points="439.59,-154.95 439.59,-177.05 338.54,-188 200.55,-188 99.5,-177.05 99.5,-154.95 200.55,-144 338.54,-144 439.59,-154.95"/>
<polygon fill="none" stroke="#3fb3e7" points="443.59,-151.36 443.59,-180.64 338.76,-192 200.33,-192 95.5,-180.64 95.5,-151.36 200.33,-140 338.76,-140 443.59,-151.36"/>
<text text-anchor="middle" x="269.55" y="-162.3" font-family="Roboto" font-size="14.00" fill="#ffffff">nvidia&#45;settings&#45;460.56 (132.85 MiB)</text>
</g>
<!-- N12 -->
<g id="node25" class="node">
<title>N12</title>
<polygon fill="#39f3bd" stroke="#39f3bd" points="460.33,-88.54 460.33,-103.46 348.57,-114 190.52,-114 78.76,-103.46 78.76,-88.54 190.52,-78 348.57,-78 460.33,-88.54"/>
<polygon fill="none" stroke="#39f3bd" points="464.34,-84.9 464.34,-107.1 348.76,-118 190.33,-118 74.76,-107.1 74.76,-84.9 190.33,-74 348.76,-74 464.34,-84.9"/>
<polygon fill="none" stroke="#39f3bd" points="468.34,-81.26 468.34,-110.74 348.95,-122 190.14,-122 70.75,-110.74 70.75,-81.26 190.14,-70 348.95,-70 468.34,-81.26"/>
<text text-anchor="middle" x="269.55" y="-92.3" font-family="Roboto" font-size="14.00" fill="#000000">nvidia&#45;x11&#45;460.56&#45;5.11.6&#45;bin (431.07 MiB)</text>
</g>
<!-- N34&#45;&gt;N12 -->
<g id="edge1" class="edge">
<title>N34&#45;&gt;N12</title>
<path fill="none" stroke="black" d="M269.55,-139.68C269.55,-137.23 269.55,-134.78 269.55,-132.33"/>
<polygon fill="black" stroke="black" points="273.05,-132.25 269.55,-122.25 266.05,-132.25 273.05,-132.25"/>
</g>
<!-- N25 -->
<g id="node3" class="node">
<title>N25</title>
<polygon fill="#3ceeea" stroke="#3ceeea" points="391.44,-228.54 391.44,-243.46 320.04,-254 219.05,-254 147.65,-243.46 147.65,-228.54 219.05,-218 320.04,-218 391.44,-228.54"/>
<polygon fill="none" stroke="#3ceeea" points="395.45,-225.09 395.45,-246.91 320.33,-258 218.76,-258 143.64,-246.91 143.64,-225.09 218.76,-214 320.33,-214 395.45,-225.09"/>
<polygon fill="none" stroke="#3ceeea" points="399.45,-221.64 399.45,-250.36 320.63,-262 218.47,-262 139.64,-250.36 139.64,-221.64 218.47,-210 320.63,-210 399.45,-221.64"/>
<text text-anchor="middle" x="269.55" y="-232.3" font-family="Roboto" font-size="14.00" fill="#000000">zeal&#45;0.6.999 (294.25 MiB)</text>
</g>
<!-- N35 -->
<g id="node4" class="node">
<title>N35</title>
<polygon fill="#40a3e5" stroke="#40a3e5" points="379.52,-1418.54 379.52,-1433.46 315.1,-1444 223.99,-1444 159.57,-1433.46 159.57,-1418.54 223.99,-1408 315.1,-1408 379.52,-1418.54"/>
<polygon fill="none" stroke="#40a3e5" points="383.53,-1415.15 383.53,-1436.85 315.42,-1448 223.67,-1448 155.56,-1436.85 155.56,-1415.15 223.67,-1404 315.42,-1404 383.53,-1415.15"/>
<polygon fill="none" stroke="#40a3e5" points="387.54,-1411.75 387.54,-1440.25 315.75,-1452 223.34,-1452 151.56,-1440.25 151.56,-1411.75 223.34,-1400 315.75,-1400 387.54,-1411.75"/>
<text text-anchor="middle" x="269.55" y="-1422.3" font-family="Roboto" font-size="14.00" fill="#ffffff">piper&#45;0.5.1 (99.06 MiB)</text>
</g>
<!-- N28 -->
<g id="node40" class="node">
<title>N28</title>
<polygon fill="#3af2ca" stroke="#3af2ca" points="779.9,-1374 579.9,-1374 579.9,-1338 779.9,-1338 779.9,-1374"/>
<text text-anchor="middle" x="679.9" y="-1352.3" font-family="Roboto" font-size="14.00" fill="#000000">expat&#45;2.2.10&#45;dev (396.71 MiB)</text>
</g>
<!-- N35&#45;&gt;N28 -->
<g id="edge2" class="edge">
<title>N35&#45;&gt;N28</title>
<path fill="none" stroke="black" d="M383.03,-1411C423.3,-1405.26 468.96,-1398.32 510.4,-1391 535.23,-1386.61 561.99,-1381.32 586.72,-1376.19"/>
<polygon fill="black" stroke="black" points="587.74,-1379.55 596.82,-1374.08 586.31,-1372.7 587.74,-1379.55"/>
</g>
<!-- N24 -->
<g id="node5" class="node">
<title>N24</title>
<polygon fill="#3bf0d8" stroke="#3bf0d8" points="401.57,-1138.54 401.57,-1153.46 324.23,-1164 214.86,-1164 137.52,-1153.46 137.52,-1138.54 214.86,-1128 324.23,-1128 401.57,-1138.54"/>
<polygon fill="none" stroke="#3bf0d8" points="405.57,-1135.05 405.57,-1156.95 324.5,-1168 214.59,-1168 133.53,-1156.95 133.53,-1135.05 214.59,-1124 324.5,-1124 405.57,-1135.05"/>
<polygon fill="none" stroke="#3bf0d8" points="409.56,-1131.56 409.56,-1160.44 324.77,-1172 214.32,-1172 129.53,-1160.44 129.53,-1131.56 214.32,-1120 324.77,-1120 409.56,-1131.56"/>
<text text-anchor="middle" x="269.55" y="-1142.3" font-family="Roboto" font-size="14.00" fill="#000000">inkscape&#45;1.0.2 (355.48 MiB)</text>
</g>
<!-- N32 -->
<g id="node41" class="node">
<title>N32</title>
<polygon fill="#3fbde8" stroke="#3fbde8" points="748.4,-1164 611.4,-1164 611.4,-1128 748.4,-1128 748.4,-1164"/>
<text text-anchor="middle" x="679.9" y="-1142.3" font-family="Roboto" font-size="14.00" fill="#000000">blas&#45;3 (156.57 MiB)</text>
</g>
<!-- N24&#45;&gt;N32 -->
<g id="edge3" class="edge">
<title>N24&#45;&gt;N32</title>
<path fill="none" stroke="black" d="M409.65,-1146C473.6,-1146 547.06,-1146 601.07,-1146"/>
<polygon fill="black" stroke="black" points="601.27,-1149.5 611.27,-1146 601.27,-1142.5 601.27,-1149.5"/>
</g>
<!-- N23 -->
<g id="node6" class="node">
<title>N23</title>
<polygon fill="#c1ff2c" stroke="#c1ff2c" points="417.5,-1488.54 417.5,-1503.46 330.83,-1514 208.26,-1514 121.59,-1503.46 121.59,-1488.54 208.26,-1478 330.83,-1478 417.5,-1488.54"/>
<polygon fill="none" stroke="#c1ff2c" points="421.51,-1485 421.51,-1507 331.07,-1518 208.02,-1518 117.58,-1507 117.58,-1485 208.02,-1474 331.07,-1474 421.51,-1485"/>
<polygon fill="none" stroke="#c1ff2c" points="425.51,-1481.46 425.51,-1510.54 331.32,-1522 207.77,-1522 113.58,-1510.54 113.58,-1481.46 207.77,-1470 331.32,-1470 425.51,-1481.46"/>
<text text-anchor="middle" x="269.55" y="-1492.3" font-family="Roboto" font-size="14.00" fill="#000000">clang&#45;tools&#45;11.1.0 (833.06 MiB)</text>
</g>
<!-- N33 -->
<g id="node42" class="node">
<title>N33</title>
<polygon fill="#40a5e5" stroke="#40a5e5" points="1034.4,-1444 849.4,-1444 849.4,-1408 1034.4,-1408 1034.4,-1444"/>
<text text-anchor="middle" x="941.9" y="-1422.3" font-family="Roboto" font-size="14.00" fill="#ffffff">llvm&#45;11.1.0&#45;lib (102.39 MiB)</text>
</g>
<!-- N23&#45;&gt;N33 -->
<g id="edge4" class="edge">
<title>N23&#45;&gt;N33</title>
<path fill="none" stroke="black" d="M418.49,-1480.55C546.12,-1467.22 727.07,-1448.33 839.06,-1436.63"/>
<polygon fill="black" stroke="black" points="839.42,-1440.12 849.01,-1435.6 838.7,-1433.15 839.42,-1440.12"/>
</g>
<!-- N22 -->
<g id="node7" class="node">
<title>N22</title>
<polygon fill="#3ceee5" stroke="#3ceee5" points="389.23,-1558.54 389.23,-1573.46 319.12,-1584 219.97,-1584 149.86,-1573.46 149.86,-1558.54 219.97,-1548 319.12,-1548 389.23,-1558.54"/>
<polygon fill="none" stroke="#3ceee5" points="393.23,-1555.1 393.23,-1576.9 319.42,-1588 219.67,-1588 145.86,-1576.9 145.86,-1555.1 219.67,-1544 319.42,-1544 393.23,-1555.1"/>
<polygon fill="none" stroke="#3ceee5" points="397.23,-1551.66 397.23,-1580.34 319.72,-1592 219.37,-1592 141.86,-1580.34 141.86,-1551.66 219.37,-1540 319.72,-1540 397.23,-1551.66"/>
<text text-anchor="middle" x="269.55" y="-1562.3" font-family="Roboto" font-size="14.00" fill="#000000">elixir&#45;1.11.3 (311.44 MiB)</text>
</g>
<!-- N36 -->
<g id="node8" class="node">
<title>N36</title>
<polygon fill="#4170e1" stroke="#4170e1" points="486.81,-1698.54 486.81,-1713.46 359.54,-1724 179.55,-1724 52.28,-1713.46 52.28,-1698.54 179.55,-1688 359.54,-1688 486.81,-1698.54"/>
<polygon fill="none" stroke="#4170e1" points="490.81,-1694.86 490.81,-1717.14 359.7,-1728 179.39,-1728 48.29,-1717.14 48.29,-1694.86 179.39,-1684 359.7,-1684 490.81,-1694.86"/>
<polygon fill="none" stroke="#4170e1" points="494.8,-1691.18 494.8,-1720.82 359.87,-1732 179.22,-1732 44.29,-1720.82 44.29,-1691.18 179.22,-1680 359.87,-1680 494.8,-1691.18"/>
<text text-anchor="middle" x="269.55" y="-1702.3" font-family="Roboto" font-size="14.00" fill="#ffffff">papirus&#45;maia&#45;icon&#45;theme&#45;2019&#45;07&#45;26 (8.96 MiB)</text>
</g>
<!-- N21 -->
<g id="node10" class="node">
<title>N21</title>
<polygon fill="#3de1ec" stroke="#3de1ec" points="467.82,-1628.54 467.82,-1643.46 351.67,-1654 187.42,-1654 71.27,-1643.46 71.27,-1628.54 187.42,-1618 351.67,-1618 467.82,-1628.54"/>
<polygon fill="none" stroke="#3de1ec" points="471.82,-1624.89 471.82,-1647.11 351.85,-1658 187.24,-1658 67.27,-1647.11 67.27,-1624.89 187.24,-1614 351.85,-1614 471.82,-1624.89"/>
<polygon fill="none" stroke="#3de1ec" points="475.82,-1621.24 475.82,-1650.76 352.04,-1662 187.06,-1662 63.28,-1650.76 63.28,-1621.24 187.06,-1610 352.04,-1610 475.82,-1621.24"/>
<text text-anchor="middle" x="269.55" y="-1632.3" font-family="Roboto" font-size="14.00" fill="#000000">papirus&#45;icon&#45;theme&#45;20210302 (248.13 MiB)</text>
</g>
<!-- N36&#45;&gt;N21 -->
<g id="edge5" class="edge">
<title>N36&#45;&gt;N21</title>
<path fill="none" stroke="black" d="M269.55,-1679.68C269.55,-1677.23 269.55,-1674.78 269.55,-1672.33"/>
<polygon fill="black" stroke="black" points="273.05,-1672.25 269.55,-1662.25 266.05,-1672.25 273.05,-1672.25"/>
</g>
<!-- N38 -->
<g id="node9" class="node">
<title>N38</title>
<polygon fill="#408be3" stroke="#408be3" points="389.65,-718.54 389.65,-733.46 319.3,-744 219.8,-744 149.44,-733.46 149.44,-718.54 219.8,-708 319.3,-708 389.65,-718.54"/>
<polygon fill="none" stroke="#408be3" points="393.65,-715.1 393.65,-736.9 319.59,-748 219.5,-748 145.44,-736.9 145.44,-715.1 219.5,-704 319.59,-704 393.65,-715.1"/>
<polygon fill="none" stroke="#408be3" points="397.64,-711.65 397.64,-740.35 319.89,-752 219.2,-752 141.45,-740.35 141.45,-711.65 219.2,-700 319.89,-700 397.64,-711.65"/>
<text text-anchor="middle" x="269.55" y="-722.3" font-family="Roboto" font-size="14.00" fill="#ffffff">neovim&#45;0.4.4 (52.81 MiB)</text>
</g>
<!-- N37 -->
<g id="node16" class="node">
<title>N37</title>
<polygon fill="#4169e1" stroke="#4169e1" points="414.39,-508.54 414.39,-523.46 329.54,-534 209.55,-534 124.7,-523.46 124.7,-508.54 209.55,-498 329.54,-498 414.39,-508.54"/>
<polygon fill="none" stroke="#4169e1" points="418.39,-505.01 418.39,-526.99 329.79,-538 209.3,-538 120.7,-526.99 120.7,-505.01 209.3,-494 329.79,-494 418.39,-505.01"/>
<polygon fill="none" stroke="#4169e1" points="422.38,-501.48 422.38,-530.52 330.04,-542 209.06,-542 116.71,-530.52 116.71,-501.48 209.06,-490 330.04,-490 422.38,-501.48"/>
<text text-anchor="middle" x="269.55" y="-512.3" font-family="Roboto" font-size="14.00" fill="#ffffff">gcc&#45;wrapper&#45;10.2.0 (99.59 KiB)</text>
</g>
<!-- N38&#45;&gt;N37 -->
<g id="edge6" class="edge">
<title>N38&#45;&gt;N37</title>
<path fill="none" stroke="black" d="M147.59,-741.29C94.73,-740.35 38.61,-727.17 10.69,-682 -3.56,-658.94 -3.56,-583.06 10.69,-560 31.4,-526.49 67.63,-510.59 106.54,-504.23"/>
<polygon fill="black" stroke="black" points="107.08,-507.69 116.48,-502.81 106.09,-500.76 107.08,-507.69"/>
</g>
<!-- N39 -->
<g id="node11" class="node">
<title>N39</title>
<polygon fill="#4175e2" stroke="#4175e2" points="397.62,-1348.54 397.62,-1363.46 322.59,-1374 216.5,-1374 141.48,-1363.46 141.48,-1348.54 216.5,-1338 322.59,-1338 397.62,-1348.54"/>
<polygon fill="none" stroke="#4175e2" points="401.62,-1345.07 401.62,-1366.93 322.87,-1378 216.22,-1378 137.48,-1366.93 137.48,-1345.07 216.22,-1334 322.87,-1334 401.62,-1345.07"/>
<polygon fill="none" stroke="#4175e2" points="405.62,-1341.59 405.62,-1370.41 323.15,-1382 215.94,-1382 133.47,-1370.41 133.47,-1341.59 215.94,-1330 323.15,-1330 405.62,-1341.59"/>
<text text-anchor="middle" x="269.55" y="-1352.3" font-family="Roboto" font-size="14.00" fill="#ffffff">tigervnc&#45;1.11.0 (16.06 MiB)</text>
</g>
<!-- N39&#45;&gt;N28 -->
<g id="edge7" class="edge">
<title>N39&#45;&gt;N28</title>
<path fill="none" stroke="black" d="M405.67,-1356C458.79,-1356 518.99,-1356 569.33,-1356"/>
<polygon fill="black" stroke="black" points="569.59,-1359.5 579.59,-1356 569.59,-1352.5 569.59,-1359.5"/>
</g>
<!-- N20 -->
<g id="node12" class="node">
<title>N20</title>
<polygon fill="#ff0000" stroke="#ff0000" points="456.8,-648.54 456.8,-663.46 347.11,-674 191.98,-674 82.29,-663.46 82.29,-648.54 191.98,-638 347.11,-638 456.8,-648.54"/>
<polygon fill="none" stroke="#ff0000" points="460.8,-644.91 460.8,-667.09 347.3,-678 191.79,-678 78.29,-667.09 78.29,-644.91 191.79,-634 347.3,-634 460.8,-644.91"/>
<polygon fill="none" stroke="#ff0000" points="464.8,-641.28 464.8,-670.72 347.49,-682 191.6,-682 74.29,-670.72 74.29,-641.28 191.6,-630 347.49,-630 464.8,-641.28"/>
<text text-anchor="middle" x="269.55" y="-652.3" font-family="Roboto" font-size="14.00" fill="#000000">xmonad&#45;with&#45;packages&#45;8.10.4 (2.16 GiB)</text>
</g>
<!-- N20&#45;&gt;N37 -->
<g id="edge8" class="edge">
<title>N20&#45;&gt;N37</title>
<path fill="none" stroke="black" d="M74.17,-659.8C48.21,-650.9 25.49,-635.94 10.69,-612 -1.46,-592.34 -1.46,-579.66 10.69,-560 15.39,-552.39 20.16,-553.68 28.69,-551 53.63,-543.18 80.57,-537.09 107.1,-532.36"/>
<polygon fill="black" stroke="black" points="107.98,-535.76 117.24,-530.61 106.79,-528.86 107.98,-535.76"/>
</g>
<!-- N19 -->
<g id="node13" class="node">
<title>N19</title>
<polygon fill="#3ec6e9" stroke="#3ec6e9" points="411.75,-1768.54 411.75,-1783.46 328.45,-1794 210.64,-1794 127.34,-1783.46 127.34,-1768.54 210.64,-1758 328.45,-1758 411.75,-1768.54"/>
<polygon fill="none" stroke="#3ec6e9" points="415.75,-1765.02 415.75,-1786.98 328.7,-1798 210.39,-1798 123.34,-1786.98 123.34,-1765.02 210.39,-1754 328.7,-1754 415.75,-1765.02"/>
<polygon fill="none" stroke="#3ec6e9" points="419.76,-1761.49 419.76,-1790.51 328.95,-1802 210.14,-1802 119.33,-1790.51 119.33,-1761.49 210.14,-1750 328.95,-1750 419.76,-1761.49"/>
<text text-anchor="middle" x="269.55" y="-1772.3" font-family="Roboto" font-size="14.00" fill="#000000">fritzing&#45;0.9.4&#45;498 (177.84 MiB)</text>
</g>
<!-- N40 -->
<g id="node14" class="node">
<title>N40</title>
<polygon fill="#4182e3" stroke="#4182e3" points="389.65,-1908.54 389.65,-1923.46 319.3,-1934 219.8,-1934 149.44,-1923.46 149.44,-1908.54 219.8,-1898 319.3,-1898 389.65,-1908.54"/>
<polygon fill="none" stroke="#4182e3" points="393.65,-1905.1 393.65,-1926.9 319.59,-1938 219.5,-1938 145.44,-1926.9 145.44,-1905.1 219.5,-1894 319.59,-1894 393.65,-1905.1"/>
<polygon fill="none" stroke="#4182e3" points="397.64,-1901.65 397.64,-1930.35 319.89,-1942 219.2,-1942 141.45,-1930.35 141.45,-1901.65 219.2,-1890 319.89,-1890 397.64,-1901.65"/>
<text text-anchor="middle" x="269.55" y="-1912.3" font-family="Roboto" font-size="14.00" fill="#ffffff">firefox&#45;86.0.1 (37.62 MiB)</text>
</g>
<!-- N10 -->
<g id="node27" class="node">
<title>N10</title>
<polygon fill="#3ecbe9" stroke="#3ecbe9" points="446.2,-1838.54 446.2,-1853.46 342.72,-1864 196.38,-1864 92.9,-1853.46 92.9,-1838.54 196.38,-1828 342.72,-1828 446.2,-1838.54"/>
<polygon fill="none" stroke="#3ecbe9" points="450.2,-1834.93 450.2,-1857.07 342.92,-1868 196.17,-1868 88.89,-1857.07 88.89,-1834.93 196.17,-1824 342.92,-1824 450.2,-1834.93"/>
<polygon fill="none" stroke="#3ecbe9" points="454.2,-1831.32 454.2,-1860.68 343.12,-1872 195.97,-1872 84.89,-1860.68 84.89,-1831.32 195.97,-1820 343.12,-1820 454.2,-1831.32"/>
<text text-anchor="middle" x="269.55" y="-1842.3" font-family="Roboto" font-size="14.00" fill="#000000">firefox&#45;unwrapped&#45;86.0.1 (191.12 MiB)</text>
</g>
<!-- N40&#45;&gt;N10 -->
<g id="edge9" class="edge">
<title>N40&#45;&gt;N10</title>
<path fill="none" stroke="black" d="M269.55,-1889.68C269.55,-1887.23 269.55,-1884.78 269.55,-1882.33"/>
<polygon fill="black" stroke="black" points="273.05,-1882.25 269.55,-1872.25 266.05,-1882.25 273.05,-1882.25"/>
</g>
<!-- N41 -->
<g id="node15" class="node">
<title>N41</title>
<polygon fill="#4085e3" stroke="#4085e3" points="386.12,-788.54 386.12,-803.46 317.83,-814 221.26,-814 152.97,-803.46 152.97,-788.54 221.26,-778 317.83,-778 386.12,-788.54"/>
<polygon fill="none" stroke="#4085e3" points="390.11,-785.11 390.11,-806.89 318.14,-818 220.95,-818 148.98,-806.89 148.98,-785.11 220.95,-774 318.14,-774 390.11,-785.11"/>
<polygon fill="none" stroke="#4085e3" points="394.11,-781.68 394.11,-810.32 318.44,-822 220.65,-822 144.99,-810.32 144.99,-781.68 220.65,-770 318.44,-770 394.11,-781.68"/>
<text text-anchor="middle" x="269.55" y="-792.3" font-family="Roboto" font-size="14.00" fill="#ffffff">astroid&#45;0.15 (41.89 MiB)</text>
</g>
<!-- N29 -->
<g id="node43" class="node">
<title>N29</title>
<polygon fill="#40a9e6" stroke="#40a9e6" points="779.9,-822 579.9,-822 579.9,-786 779.9,-786 779.9,-822"/>
<text text-anchor="middle" x="679.9" y="-800.3" font-family="Roboto" font-size="14.00" fill="#ffffff">webkitgtk&#45;2.30.5 (110.12 MiB)</text>
</g>
<!-- N41&#45;&gt;N29 -->
<g id="edge10" class="edge">
<title>N41&#45;&gt;N29</title>
<path fill="none" stroke="black" d="M394.17,-798.42C449.97,-799.52 515.32,-800.8 569.33,-801.85"/>
<polygon fill="black" stroke="black" points="569.56,-805.36 579.63,-802.06 569.7,-798.36 569.56,-805.36"/>
</g>
<!-- N30 -->
<g id="node44" class="node">
<title>N30</title>
<polygon fill="#3fc1e8" stroke="#3fc1e8" points="761.4,-534 598.4,-534 598.4,-498 761.4,-498 761.4,-534"/>
<text text-anchor="middle" x="679.9" y="-512.3" font-family="Roboto" font-size="14.00" fill="#000000">gcc&#45;10.2.0 (166.89 MiB)</text>
</g>
<!-- N37&#45;&gt;N30 -->
<g id="edge11" class="edge">
<title>N37&#45;&gt;N30</title>
<path fill="none" stroke="black" d="M422.6,-516C478.28,-516 539.5,-516 588.14,-516"/>
<polygon fill="black" stroke="black" points="588.32,-519.5 598.32,-516 588.32,-512.5 588.32,-519.5"/>
</g>
<!-- N18 -->
<g id="node17" class="node">
<title>N18</title>
<polygon fill="#d5ff27" stroke="#d5ff27" points="409.54,-858.54 409.54,-873.46 327.53,-884 211.56,-884 129.56,-873.46 129.56,-858.54 211.56,-848 327.53,-848 409.54,-858.54"/>
<polygon fill="none" stroke="#d5ff27" points="413.54,-855.03 413.54,-876.97 327.79,-888 211.3,-888 125.56,-876.97 125.56,-855.03 211.3,-844 327.79,-844 413.54,-855.03"/>
<polygon fill="none" stroke="#d5ff27" points="417.54,-851.51 417.54,-880.49 328.04,-892 211.05,-892 121.56,-880.49 121.56,-851.51 211.05,-840 328.04,-840 417.54,-851.51"/>
<text text-anchor="middle" x="269.55" y="-862.3" font-family="Roboto" font-size="14.00" fill="#000000">bookworm&#45;1.1.2 (941.23 MiB)</text>
</g>
<!-- N18&#45;&gt;N29 -->
<g id="edge12" class="edge">
<title>N18&#45;&gt;N29</title>
<path fill="none" stroke="black" d="M393.54,-848.39C431.07,-842.93 472.44,-836.81 510.4,-831 529.57,-828.07 549.95,-824.87 569.66,-821.73"/>
<polygon fill="black" stroke="black" points="570.27,-825.18 579.59,-820.15 569.17,-818.27 570.27,-825.18"/>
</g>
<!-- N18&#45;&gt;N30 -->
<g id="edge13" class="edge">
<title>N18&#45;&gt;N30</title>
<path fill="none" stroke="black" d="M417.58,-866.24C450.36,-860.62 483.37,-849.99 510.4,-831 523.64,-821.7 627.21,-618.34 665.09,-543.41"/>
<polygon fill="black" stroke="black" points="668.4,-544.62 669.78,-534.12 662.15,-541.47 668.4,-544.62"/>
</g>
<!-- N31 -->
<g id="node45" class="node">
<title>N31</title>
<polygon fill="#40a9e6" stroke="#40a9e6" points="772.4,-919 587.4,-919 587.4,-883 772.4,-883 772.4,-919"/>
<text text-anchor="middle" x="679.9" y="-897.3" font-family="Roboto" font-size="14.00" fill="#ffffff">clang&#45;7.1.0&#45;lib (111.76 MiB)</text>
</g>
<!-- N18&#45;&gt;N31 -->
<g id="edge14" class="edge">
<title>N18&#45;&gt;N31</title>
<path fill="none" stroke="black" d="M417.68,-878.61C470.6,-883.15 529.08,-888.16 577.26,-892.29"/>
<polygon fill="black" stroke="black" points="577.12,-895.79 587.38,-893.16 577.72,-888.81 577.12,-895.79"/>
</g>
<!-- N17 -->
<g id="node18" class="node">
<title>N17</title>
<polygon fill="#40a8e6" stroke="#40a8e6" points="440.03,-1978.54 440.03,-1993.46 340.16,-2004 198.93,-2004 99.07,-1993.46 99.07,-1978.54 198.93,-1968 340.16,-1968 440.03,-1978.54"/>
<polygon fill="none" stroke="#40a8e6" points="444.03,-1974.94 444.03,-1997.06 340.37,-2008 198.72,-2008 95.06,-1997.06 95.06,-1974.94 198.72,-1964 340.37,-1964 444.03,-1974.94"/>
<polygon fill="none" stroke="#40a8e6" points="448.04,-1971.35 448.04,-2000.65 340.58,-2012 198.51,-2012 91.06,-2000.65 91.06,-1971.35 198.51,-1960 340.58,-1960 448.04,-1971.35"/>
<text text-anchor="middle" x="269.55" y="-1982.3" font-family="Roboto" font-size="14.00" fill="#ffffff">telegram&#45;desktop&#45;2.6.1 (108.39 MiB)</text>
</g>
<!-- N16 -->
<g id="node19" class="node">
<title>N16</title>
<polygon fill="#ffe006" stroke="#ffe006" points="402.47,-298.54 402.47,-313.46 324.6,-324 214.49,-324 136.62,-313.46 136.62,-298.54 214.49,-288 324.6,-288 402.47,-298.54"/>
<polygon fill="none" stroke="#ffe006" points="406.47,-295.05 406.47,-316.95 324.87,-328 214.22,-328 132.62,-316.95 132.62,-295.05 214.22,-284 324.87,-284 406.47,-295.05"/>
<polygon fill="none" stroke="#ffe006" points="410.47,-291.55 410.47,-320.45 325.14,-332 213.95,-332 128.63,-320.45 128.63,-291.55 213.95,-280 325.14,-280 410.47,-291.55"/>
<text text-anchor="middle" x="269.55" y="-302.3" font-family="Roboto" font-size="14.00" fill="#000000">libreoffice&#45;7.1.0.3 (1.39 GiB)</text>
</g>
<!-- N16&#45;&gt;N30 -->
<g id="edge16" class="edge">
<title>N16&#45;&gt;N30</title>
<path fill="none" stroke="black" d="M410.54,-305.39C445.45,-310.68 481.21,-321.25 510.4,-341 536.79,-358.86 525.99,-378.53 546.4,-403 575.49,-437.86 616.05,-470.71 644.61,-491.91"/>
<polygon fill="black" stroke="black" points="642.56,-494.74 652.69,-497.84 646.7,-489.1 642.56,-494.74"/>
</g>
<!-- N27 -->
<g id="node46" class="node">
<title>N27</title>
<polygon fill="#40a4e5" stroke="#40a4e5" points="768.9,-394 590.9,-394 590.9,-358 768.9,-358 768.9,-394"/>
<text text-anchor="middle" x="679.9" y="-372.3" font-family="Roboto" font-size="14.00" fill="#ffffff">opencv&#45;4.3.0 (100.40 MiB)</text>
</g>
<!-- N16&#45;&gt;N27 -->
<g id="edge15" class="edge">
<title>N16&#45;&gt;N27</title>
<path fill="none" stroke="black" d="M394.65,-322.66C431.93,-328.06 472.9,-334.37 510.4,-341 535.23,-345.39 561.99,-350.68 586.72,-355.81"/>
<polygon fill="black" stroke="black" points="586.31,-359.3 596.82,-357.92 587.74,-352.45 586.31,-359.3"/>
</g>
<!-- N15 -->
<g id="node20" class="node">
<title>N15</title>
<polygon fill="#3ed4ea" stroke="#3ed4ea" points="429.42,-2048.54 429.42,-2063.46 335.77,-2074 203.32,-2074 109.67,-2063.46 109.67,-2048.54 203.32,-2038 335.77,-2038 429.42,-2048.54"/>
<polygon fill="none" stroke="#3ed4ea" points="433.43,-2044.97 433.43,-2067.03 335.99,-2078 203.1,-2078 105.66,-2067.03 105.66,-2044.97 203.1,-2034 335.99,-2034 433.43,-2044.97"/>
<polygon fill="none" stroke="#3ed4ea" points="437.43,-2041.4 437.43,-2070.6 336.22,-2082 202.87,-2082 101.66,-2070.6 101.66,-2041.4 202.87,-2030 336.22,-2030 437.43,-2041.4"/>
<text text-anchor="middle" x="269.55" y="-2052.3" font-family="Roboto" font-size="14.00" fill="#000000">glibc&#45;locales&#45;2.32&#45;37 (214.79 MiB)</text>
</g>
<!-- N42 -->
<g id="node21" class="node">
<title>N42</title>
<polygon fill="#40a3e5" stroke="#40a3e5" points="392.76,-998.54 392.76,-1013.46 320.58,-1024 218.51,-1024 146.33,-1013.46 146.33,-998.54 218.51,-988 320.58,-988 392.76,-998.54"/>
<polygon fill="none" stroke="#40a3e5" points="396.76,-995.09 396.76,-1016.91 320.87,-1028 218.22,-1028 142.33,-1016.91 142.33,-995.09 218.22,-984 320.87,-984 396.76,-995.09"/>
<polygon fill="none" stroke="#40a3e5" points="400.77,-991.63 400.77,-1020.37 321.17,-1032 217.93,-1032 138.32,-1020.37 138.32,-991.63 217.93,-980 321.17,-980 400.77,-991.63"/>
<text text-anchor="middle" x="269.55" y="-1002.3" font-family="Roboto" font-size="14.00" fill="#ffffff">calibre&#45;5.13.0 (98.22 MiB)</text>
</g>
<!-- N26 -->
<g id="node47" class="node">
<title>N26</title>
<polygon fill="#3ecce9" stroke="#3ecce9" points="813.4,-1024 546.4,-1024 546.4,-988 813.4,-988 813.4,-1024"/>
<text text-anchor="middle" x="679.9" y="-1002.3" font-family="Roboto" font-size="14.00" fill="#000000">python3.8&#45;PyQt5_sip&#45;12.8.1 (192.40 MiB)</text>
</g>
<!-- N42&#45;&gt;N26 -->
<g id="edge17" class="edge">
<title>N42&#45;&gt;N26</title>
<path fill="none" stroke="black" d="M400.88,-1006C443.97,-1006 492.13,-1006 536.11,-1006"/>
<polygon fill="black" stroke="black" points="536.31,-1009.5 546.3,-1006 536.3,-1002.5 536.31,-1009.5"/>
</g>
<!-- N14 -->
<g id="node22" class="node">
<title>N14</title>
<polygon fill="#3ed4ea" stroke="#3ed4ea" points="381.27,-2258.54 381.27,-2273.46 315.82,-2284 223.27,-2284 157.83,-2273.46 157.83,-2258.54 223.27,-2248 315.82,-2248 381.27,-2258.54"/>
<polygon fill="none" stroke="#3ed4ea" points="385.26,-2255.14 385.26,-2276.86 316.14,-2288 222.95,-2288 153.83,-2276.86 153.83,-2255.14 222.95,-2244 316.14,-2244 385.26,-2255.14"/>
<polygon fill="none" stroke="#3ed4ea" points="389.26,-2251.73 389.26,-2280.27 316.46,-2292 222.63,-2292 149.84,-2280.27 149.84,-2251.73 222.63,-2240 316.46,-2240 389.26,-2251.73"/>
<text text-anchor="middle" x="269.55" y="-2262.3" font-family="Roboto" font-size="14.00" fill="#000000">X11&#45;fonts (213.68 MiB)</text>
</g>
<!-- N43 -->
<g id="node23" class="node">
<title>N43</title>
<polygon fill="#40a1e5" stroke="#40a1e5" points="380.84,-1068.54 380.84,-1083.46 315.65,-1094 223.45,-1094 158.25,-1083.46 158.25,-1068.54 223.45,-1058 315.65,-1058 380.84,-1068.54"/>
<polygon fill="none" stroke="#40a1e5" points="384.84,-1065.14 384.84,-1086.86 315.97,-1098 223.12,-1098 154.25,-1086.86 154.25,-1065.14 223.12,-1054 315.97,-1054 384.84,-1065.14"/>
<polygon fill="none" stroke="#40a1e5" points="388.85,-1061.74 388.85,-1090.26 316.29,-1102 222.8,-1102 150.24,-1090.26 150.24,-1061.74 222.8,-1050 316.29,-1050 388.85,-1061.74"/>
<text text-anchor="middle" x="269.55" y="-1072.3" font-family="Roboto" font-size="14.00" fill="#ffffff">anki&#45;2.1.15 (93.14 MiB)</text>
</g>
<!-- N43&#45;&gt;N32 -->
<g id="edge19" class="edge">
<title>N43&#45;&gt;N32</title>
<path fill="none" stroke="black" d="M383.94,-1091.12C423.98,-1096.84 469.27,-1103.73 510.4,-1111 540.14,-1116.25 572.67,-1122.82 601.14,-1128.83"/>
<polygon fill="black" stroke="black" points="600.52,-1132.28 611.03,-1130.94 601.98,-1125.43 600.52,-1132.28"/>
</g>
<!-- N43&#45;&gt;N26 -->
<g id="edge18" class="edge">
<title>N43&#45;&gt;N26</title>
<path fill="none" stroke="black" d="M383.94,-1060.88C423.98,-1055.16 469.27,-1048.27 510.4,-1041 535.23,-1036.61 561.99,-1031.32 586.72,-1026.19"/>
<polygon fill="black" stroke="black" points="587.74,-1029.55 596.82,-1024.08 586.31,-1022.7 587.74,-1029.55"/>
</g>
<!-- N13 -->
<g id="node24" class="node">
<title>N13</title>
<polygon fill="#3fb3e7" stroke="#3fb3e7" points="379.52,-578.54 379.52,-593.46 315.1,-604 223.99,-604 159.57,-593.46 159.57,-578.54 223.99,-568 315.1,-568 379.52,-578.54"/>
<polygon fill="none" stroke="#3fb3e7" points="383.53,-575.15 383.53,-596.85 315.42,-608 223.67,-608 155.56,-596.85 155.56,-575.15 223.67,-564 315.42,-564 383.53,-575.15"/>
<polygon fill="none" stroke="#3fb3e7" points="387.54,-571.75 387.54,-600.25 315.75,-612 223.34,-612 151.56,-600.25 151.56,-571.75 223.34,-560 315.75,-560 387.54,-571.75"/>
<text text-anchor="middle" x="269.55" y="-582.3" font-family="Roboto" font-size="14.00" fill="#ffffff">kodi&#45;19.0 (133.31 MiB)</text>
</g>
<!-- N13&#45;&gt;N37 -->
<g id="edge20" class="edge">
<title>N13&#45;&gt;N37</title>
<path fill="none" stroke="black" d="M269.55,-559.68C269.55,-557.23 269.55,-554.78 269.55,-552.33"/>
<polygon fill="black" stroke="black" points="273.05,-552.25 269.55,-542.25 266.05,-552.25 273.05,-552.25"/>
</g>
<!-- N11 -->
<g id="node26" class="node">
<title>N11</title>
<polygon fill="#c3ff2b" stroke="#c3ff2b" points="382.16,-2328.54 382.16,-2343.46 316.19,-2354 222.9,-2354 156.93,-2343.46 156.93,-2328.54 222.9,-2318 316.19,-2318 382.16,-2328.54"/>
<polygon fill="none" stroke="#c3ff2b" points="386.16,-2325.13 386.16,-2346.87 316.51,-2358 222.58,-2358 152.93,-2346.87 152.93,-2325.13 222.58,-2314 316.51,-2314 386.16,-2325.13"/>
<polygon fill="none" stroke="#c3ff2b" points="390.16,-2321.72 390.16,-2350.28 316.83,-2362 222.26,-2362 148.93,-2350.28 148.93,-2321.72 222.26,-2310 316.83,-2310 390.16,-2321.72"/>
<text text-anchor="middle" x="269.55" y="-2332.3" font-family="Roboto" font-size="14.00" fill="#000000">cura&#45;4.7.1 (845.00 MiB)</text>
</g>
<!-- N9 -->
<g id="node28" class="node">
<title>N9</title>
<polygon fill="#3edaeb" stroke="#3edaeb" points="395.4,-1208.54 395.4,-1223.46 321.68,-1234 217.42,-1234 143.69,-1223.46 143.69,-1208.54 217.42,-1198 321.68,-1198 395.4,-1208.54"/>
<polygon fill="none" stroke="#3edaeb" points="399.4,-1205.08 399.4,-1226.92 321.96,-1238 217.13,-1238 139.69,-1226.92 139.69,-1205.08 217.13,-1194 321.96,-1194 399.4,-1205.08"/>
<polygon fill="none" stroke="#3edaeb" points="403.4,-1201.61 403.4,-1230.39 322.25,-1242 216.85,-1242 135.7,-1230.39 135.7,-1201.61 216.85,-1190 322.25,-1190 403.4,-1201.61"/>
<text text-anchor="middle" x="269.55" y="-1212.3" font-family="Roboto" font-size="14.00" fill="#000000">gimp&#45;2.10.22 (230.39 MiB)</text>
</g>
<!-- N9&#45;&gt;N28 -->
<g id="edge21" class="edge">
<title>N9&#45;&gt;N28</title>
<path fill="none" stroke="black" d="M403.67,-1225.52C439.09,-1230.71 476.81,-1238.7 510.4,-1251 562.84,-1270.21 616.4,-1307.16 648.65,-1331.7"/>
<polygon fill="black" stroke="black" points="646.72,-1334.63 656.77,-1337.96 650.99,-1329.09 646.72,-1334.63"/>
</g>
<!-- N9&#45;&gt;N32 -->
<g id="edge23" class="edge">
<title>N9&#45;&gt;N32</title>
<path fill="none" stroke="black" d="M391.26,-1199.83C429.44,-1194.32 471.76,-1187.83 510.4,-1181 540.14,-1175.75 572.67,-1169.18 601.14,-1163.17"/>
<polygon fill="black" stroke="black" points="601.98,-1166.57 611.03,-1161.06 600.52,-1159.72 601.98,-1166.57"/>
</g>
<!-- N9&#45;&gt;N30 -->
<g id="edge22" class="edge">
<title>N9&#45;&gt;N30</title>
<path fill="none" stroke="black" d="M403.55,-1226.32C443.03,-1222.29 483.01,-1209.97 510.4,-1181 572.33,-1115.51 521.55,-863.64 546.4,-777 572.61,-685.64 631.24,-588.46 660.94,-542.73"/>
<polygon fill="black" stroke="black" points="663.92,-544.57 666.47,-534.29 658.06,-540.73 663.92,-544.57"/>
</g>
<!-- N8 -->
<g id="node29" class="node">
<title>N8</title>
<polygon fill="#3cefe4" stroke="#3cefe4" points="384.8,-2188.54 384.8,-2203.46 317.29,-2214 221.81,-2214 154.29,-2203.46 154.29,-2188.54 221.81,-2178 317.29,-2178 384.8,-2188.54"/>
<polygon fill="none" stroke="#3cefe4" points="388.8,-2185.12 388.8,-2206.88 317.6,-2218 221.5,-2218 150.3,-2206.88 150.3,-2185.12 221.5,-2174 317.6,-2174 388.8,-2185.12"/>
<polygon fill="none" stroke="#3cefe4" points="392.79,-2181.7 392.79,-2210.3 317.91,-2222 221.19,-2222 146.3,-2210.3 146.3,-2181.7 221.19,-2170 317.91,-2170 392.79,-2181.7"/>
<text text-anchor="middle" x="269.55" y="-2192.3" font-family="Roboto" font-size="14.00" fill="#000000">platformio (317.88 MiB)</text>
</g>
<!-- N8&#45;&gt;N15 -->
<g id="edge24" class="edge">
<title>N8&#45;&gt;N15</title>
<path fill="none" stroke="black" d="M152.69,-2211.34C98.37,-2211.16 39.51,-2198.63 10.69,-2152 -1.46,-2132.34 -1.46,-2119.66 10.69,-2100 15.39,-2092.39 20.16,-2093.68 28.69,-2091 51.63,-2083.8 76.28,-2078.08 100.74,-2073.52"/>
<polygon fill="black" stroke="black" points="101.61,-2076.92 110.83,-2071.7 100.37,-2070.03 101.61,-2076.92"/>
</g>
<!-- N7 -->
<g id="node30" class="node">
<title>N7</title>
<polygon fill="#3ecae9" stroke="#3ecae9" points="402.47,-2398.54 402.47,-2413.46 324.6,-2424 214.49,-2424 136.62,-2413.46 136.62,-2398.54 214.49,-2388 324.6,-2388 402.47,-2398.54"/>
<polygon fill="none" stroke="#3ecae9" points="406.47,-2395.05 406.47,-2416.95 324.87,-2428 214.22,-2428 132.62,-2416.95 132.62,-2395.05 214.22,-2384 324.87,-2384 406.47,-2395.05"/>
<polygon fill="none" stroke="#3ecae9" points="410.47,-2391.55 410.47,-2420.45 325.14,-2432 213.95,-2432 128.63,-2420.45 128.63,-2391.55 213.95,-2380 325.14,-2380 410.47,-2391.55"/>
<text text-anchor="middle" x="269.55" y="-2402.3" font-family="Roboto" font-size="14.00" fill="#000000">upwork&#45;5.5.0.1 (187.19 MiB)</text>
</g>
<!-- N6 -->
<g id="node31" class="node">
<title>N6</title>
<polygon fill="#3ed5ea" stroke="#3ed5ea" points="471.35,-2118.54 471.35,-2133.46 353.14,-2144 185.95,-2144 67.74,-2133.46 67.74,-2118.54 185.95,-2108 353.14,-2108 471.35,-2118.54"/>
<polygon fill="none" stroke="#3ed5ea" points="475.35,-2114.88 475.35,-2137.12 353.32,-2148 185.78,-2148 63.74,-2137.12 63.74,-2114.88 185.78,-2104 353.32,-2104 475.35,-2114.88"/>
<polygon fill="none" stroke="#3ed5ea" points="479.35,-2111.23 479.35,-2140.77 353.49,-2152 185.6,-2152 59.74,-2140.77 59.74,-2111.23 185.6,-2100 353.49,-2100 479.35,-2111.23"/>
<text text-anchor="middle" x="269.55" y="-2122.3" font-family="Roboto" font-size="14.00" fill="#000000">tor&#45;browser&#45;bundle&#45;bin&#45;10.0.13 (216.13 MiB)</text>
</g>
<!-- N6&#45;&gt;N15 -->
<g id="edge25" class="edge">
<title>N6&#45;&gt;N15</title>
<path fill="none" stroke="black" d="M269.55,-2099.68C269.55,-2097.23 269.55,-2094.78 269.55,-2092.33"/>
<polygon fill="black" stroke="black" points="273.05,-2092.25 269.55,-2082.25 266.05,-2092.25 273.05,-2092.25"/>
</g>
<!-- N44 -->
<g id="node32" class="node">
<title>N44</title>
<polygon fill="#4169e1" stroke="#4169e1" points="394.08,-1278.54 394.08,-1293.46 321.13,-1304 217.96,-1304 145.01,-1293.46 145.01,-1278.54 217.96,-1268 321.13,-1268 394.08,-1278.54"/>
<polygon fill="none" stroke="#4169e1" points="398.08,-1275.08 398.08,-1296.92 321.42,-1308 217.67,-1308 141.01,-1296.92 141.01,-1275.08 217.67,-1264 321.42,-1264 398.08,-1275.08"/>
<polygon fill="none" stroke="#4169e1" points="402.08,-1271.62 402.08,-1300.38 321.71,-1312 217.39,-1312 137.01,-1300.38 137.01,-1271.62 217.39,-1260 321.71,-1260 402.08,-1271.62"/>
<text text-anchor="middle" x="269.55" y="-1282.3" font-family="Roboto" font-size="14.00" fill="#ffffff">arandr&#45;0.1.10 (205.52 KiB)</text>
</g>
<!-- N44&#45;&gt;N28 -->
<g id="edge26" class="edge">
<title>N44&#45;&gt;N28</title>
<path fill="none" stroke="black" d="M390.64,-1302.09C428.99,-1307.61 471.55,-1314.14 510.4,-1321 535.23,-1325.39 561.99,-1330.68 586.72,-1335.81"/>
<polygon fill="black" stroke="black" points="586.31,-1339.3 596.82,-1337.92 587.74,-1332.45 586.31,-1339.3"/>
</g>
<!-- N5 -->
<g id="node33" class="node">
<title>N5</title>
<polygon fill="#3fb9e7" stroke="#3fb9e7" points="414.39,-2468.54 414.39,-2483.46 329.54,-2494 209.55,-2494 124.7,-2483.46 124.7,-2468.54 209.55,-2458 329.54,-2458 414.39,-2468.54"/>
<polygon fill="none" stroke="#3fb9e7" points="418.39,-2465.01 418.39,-2486.99 329.79,-2498 209.3,-2498 120.7,-2486.99 120.7,-2465.01 209.3,-2454 329.79,-2454 418.39,-2465.01"/>
<polygon fill="none" stroke="#3fb9e7" points="422.38,-2461.48 422.38,-2490.52 330.04,-2502 209.06,-2502 116.71,-2490.52 116.71,-2461.48 209.06,-2450 330.04,-2450 422.38,-2461.48"/>
<text text-anchor="middle" x="269.55" y="-2472.3" font-family="Roboto" font-size="14.00" fill="#000000">prusa&#45;slicer&#45;2.3.0 (146.33 MiB)</text>
</g>
<!-- N45 -->
<g id="node34" class="node">
<title>N45</title>
<polygon fill="#4169e1" stroke="#4169e1" points="401.57,-368.54 401.57,-383.46 324.23,-394 214.86,-394 137.52,-383.46 137.52,-368.54 214.86,-358 324.23,-358 401.57,-368.54"/>
<polygon fill="none" stroke="#4169e1" points="405.57,-365.05 405.57,-386.95 324.5,-398 214.59,-398 133.53,-386.95 133.53,-365.05 214.59,-354 324.5,-354 405.57,-365.05"/>
<polygon fill="none" stroke="#4169e1" points="409.56,-361.56 409.56,-390.44 324.77,-402 214.32,-402 129.53,-390.44 129.53,-361.56 214.32,-350 324.77,-350 409.56,-361.56"/>
<text text-anchor="middle" x="269.55" y="-372.3" font-family="Roboto" font-size="14.00" fill="#ffffff">libreoffice&#45;7.1.0.3 (3.55 KiB)</text>
</g>
<!-- N45&#45;&gt;N16 -->
<g id="edge27" class="edge">
<title>N45&#45;&gt;N16</title>
<path fill="none" stroke="black" d="M269.55,-349.68C269.55,-347.23 269.55,-344.78 269.55,-342.33"/>
<polygon fill="black" stroke="black" points="273.05,-342.25 269.55,-332.25 266.05,-342.25 273.05,-342.25"/>
</g>
<!-- N4 -->
<g id="node35" class="node">
<title>N4</title>
<polygon fill="#3ceeeb" stroke="#3ceeeb" points="465.18,-2538.54 465.18,-2553.46 350.58,-2564 188.51,-2564 73.91,-2553.46 73.91,-2538.54 188.51,-2528 350.58,-2528 465.18,-2538.54"/>
<polygon fill="none" stroke="#3ceeeb" points="469.19,-2534.9 469.19,-2557.1 350.77,-2568 188.33,-2568 69.91,-2557.1 69.91,-2534.9 188.33,-2524 350.77,-2524 469.19,-2534.9"/>
<polygon fill="none" stroke="#3ceeeb" points="473.19,-2531.25 473.19,-2560.75 350.95,-2572 188.14,-2572 65.9,-2560.75 65.9,-2531.25 188.14,-2520 350.95,-2520 473.19,-2531.25"/>
<text text-anchor="middle" x="269.55" y="-2542.3" font-family="Roboto" font-size="14.00" fill="#000000">spotify&#45;1.1.46.916.g416cacf1 (292.80 MiB)</text>
</g>
<!-- N46 -->
<g id="node36" class="node">
<title>N46</title>
<polygon fill="#4170e1" stroke="#4170e1" points="408.64,-438.54 408.64,-453.46 327.16,-464 211.93,-464 130.45,-453.46 130.45,-438.54 211.93,-428 327.16,-428 408.64,-438.54"/>
<polygon fill="none" stroke="#4170e1" points="412.63,-435.03 412.63,-456.97 327.42,-468 211.67,-468 126.46,-456.97 126.46,-435.03 211.67,-424 327.42,-424 412.63,-435.03"/>
<polygon fill="none" stroke="#4170e1" points="416.63,-431.51 416.63,-460.49 327.67,-472 211.42,-472 122.46,-460.49 122.46,-431.51 211.42,-420 327.67,-420 416.63,-431.51"/>
<text text-anchor="middle" x="269.55" y="-442.3" font-family="Roboto" font-size="14.00" fill="#ffffff">nomacs&#45;3.17.2206 (8.78 MiB)</text>
</g>
<!-- N46&#45;&gt;N30 -->
<g id="edge29" class="edge">
<title>N46&#45;&gt;N30</title>
<path fill="none" stroke="black" d="M397.12,-463.02C433.74,-468.34 473.73,-474.52 510.4,-481 535.73,-485.47 563.07,-490.9 588.21,-496.12"/>
<polygon fill="black" stroke="black" points="587.59,-499.57 598.1,-498.19 589.03,-492.72 587.59,-499.57"/>
</g>
<!-- N46&#45;&gt;N27 -->
<g id="edge28" class="edge">
<title>N46&#45;&gt;N27</title>
<path fill="none" stroke="black" d="M397.12,-428.98C433.74,-423.66 473.73,-417.48 510.4,-411 535.23,-406.61 561.99,-401.32 586.72,-396.19"/>
<polygon fill="black" stroke="black" points="587.74,-399.55 596.82,-394.08 586.31,-392.7 587.74,-399.55"/>
</g>
<!-- N3 -->
<g id="node37" class="node">
<title>N3</title>
<polygon fill="#cfff29" stroke="#cfff29" points="462.97,-2608.54 462.97,-2623.46 349.66,-2634 189.43,-2634 76.12,-2623.46 76.12,-2608.54 189.43,-2598 349.66,-2598 462.97,-2608.54"/>
<polygon fill="none" stroke="#cfff29" points="466.97,-2604.9 466.97,-2627.1 349.85,-2638 189.24,-2638 72.12,-2627.1 72.12,-2604.9 189.24,-2594 349.85,-2594 466.97,-2604.9"/>
<polygon fill="none" stroke="#cfff29" points="470.97,-2601.25 470.97,-2630.75 350.04,-2642 189.06,-2642 68.12,-2630.75 68.12,-2601.25 189.06,-2590 350.04,-2590 470.97,-2601.25"/>
<text text-anchor="middle" x="269.55" y="-2612.3" font-family="Roboto" font-size="14.00" fill="#000000">google&#45;chrome&#45;89.0.4389.90 (909.62 MiB)</text>
</g>
<!-- N2 -->
<g id="node38" class="node">
<title>N2</title>
<polygon fill="#3fbae8" stroke="#3fbae8" points="412.17,-928.54 412.17,-943.46 328.62,-954 210.47,-954 126.92,-943.46 126.92,-928.54 210.47,-918 328.62,-918 412.17,-928.54"/>
<polygon fill="none" stroke="#3fbae8" points="416.17,-925.02 416.17,-946.98 328.88,-958 210.22,-958 122.92,-946.98 122.92,-925.02 210.22,-914 328.88,-914 416.17,-925.02"/>
<polygon fill="none" stroke="#3fbae8" points="420.16,-921.49 420.16,-950.51 329.13,-962 209.97,-962 118.93,-950.51 118.93,-921.49 209.97,-910 329.13,-910 420.16,-921.49"/>
<text text-anchor="middle" x="269.55" y="-932.3" font-family="Roboto" font-size="14.00" fill="#000000">onionshare&#45;2.3.1 (149.58 MiB)</text>
</g>
<!-- N2&#45;&gt;N31 -->
<g id="edge31" class="edge">
<title>N2&#45;&gt;N31</title>
<path fill="none" stroke="black" d="M420.28,-923.17C472.45,-918.69 529.74,-913.78 577.1,-909.73"/>
<polygon fill="black" stroke="black" points="577.7,-913.19 587.36,-908.85 577.1,-906.21 577.7,-913.19"/>
</g>
<!-- N2&#45;&gt;N26 -->
<g id="edge30" class="edge">
<title>N2&#45;&gt;N26</title>
<path fill="none" stroke="black" d="M398.68,-953.25C434.87,-958.51 474.24,-964.61 510.4,-971 535.23,-975.39 561.99,-980.68 586.72,-985.81"/>
<polygon fill="black" stroke="black" points="586.31,-989.3 596.82,-987.92 587.74,-982.45 586.31,-989.3"/>
</g>
<!-- N1 -->
<g id="node39" class="node">
<title>N1</title>
<polygon fill="#aaff2f" stroke="#aaff2f" points="502.26,-2678.54 502.26,-2693.46 365.94,-2704 173.15,-2704 36.83,-2693.46 36.83,-2678.54 173.15,-2668 365.94,-2668 502.26,-2678.54"/>
<polygon fill="none" stroke="#aaff2f" points="506.26,-2674.84 506.26,-2697.16 366.09,-2708 173,-2708 32.83,-2697.16 32.83,-2674.84 173,-2664 366.09,-2664 506.26,-2674.84"/>
<polygon fill="none" stroke="#aaff2f" points="510.26,-2671.14 510.26,-2700.86 366.25,-2712 172.84,-2712 28.83,-2700.86 28.83,-2671.14 172.84,-2660 366.25,-2660 510.26,-2671.14"/>
<text text-anchor="middle" x="269.55" y="-2682.3" font-family="Roboto" font-size="14.00" fill="#000000">gcc&#45;arm&#45;embedded&#45;10&#45;2020&#45;q4&#45;major (731.62 MiB)</text>
</g>
<!-- N28&#45;&gt;N33 -->
<g id="edge32" class="edge">
<title>N28&#45;&gt;N33</title>
<path fill="none" stroke="black" d="M747.86,-1374.03C783.35,-1383.58 827.13,-1395.37 864.01,-1405.3"/>
<polygon fill="black" stroke="black" points="863.15,-1408.69 873.72,-1407.91 864.97,-1401.93 863.15,-1408.69"/>
</g>
</g>
</svg>
