<?xml version="1.0" encoding="UTF-8" standalone="no"?>
<!DOCTYPE svg PUBLIC "-//W3C//DTD SVG 1.1//EN"
 "http://www.w3.org/Graphics/SVG/1.1/DTD/svg11.dtd">
<!-- Generated by graphviz version 2.43.0 (0)
 -->
<!-- Title: nixstore Pages: 1 -->
<svg width="776pt" height="3000pt"
 viewBox="0.00 0.00 776.46 3000.00" xmlns="http://www.w3.org/2000/svg" xmlns:xlink="http://www.w3.org/1999/xlink">
<g id="graph0" class="graph" transform="scale(1 1) rotate(0) translate(4 2996)">
<title>nixstore</title>
<polygon fill="white" stroke="transparent" points="-4,4 -4,-2996 772.46,-2996 772.46,4 -4,4"/>
<!-- N51 -->
<g id="node1" class="node">
<title>N51</title>
<polygon fill="#fe0000" stroke="#fe0000" points="363.08,-18.54 363.08,-33.46 297.89,-44 205.69,-44 140.49,-33.46 140.49,-18.54 205.69,-8 297.89,-8 363.08,-18.54"/>
<polygon fill="none" stroke="#fe0000" points="367.09,-15.14 367.09,-36.86 298.21,-48 205.37,-48 136.49,-36.86 136.49,-15.14 205.37,-4 298.21,-4 367.09,-15.14"/>
<polygon fill="none" stroke="#fe0000" points="371.09,-11.74 371.09,-40.26 298.53,-52 205.04,-52 132.48,-40.26 132.48,-11.74 205.04,0 298.53,0 371.09,-11.74"/>
<text text-anchor="middle" x="251.79" y="-22.3" font-family="Times-Roman" font-size="14.00" fill="#000000">{filtered out} (2.46 GiB)</text>
</g>
<!-- N37 -->
<g id="node2" class="node">
<title>N37</title>
<polygon fill="#3ecde9" stroke="#3ecde9" points="400.17,-788.54 400.17,-803.46 313.25,-814 190.33,-814 103.41,-803.46 103.41,-788.54 190.33,-778 313.25,-778 400.17,-788.54"/>
<polygon fill="none" stroke="#3ecde9" points="404.16,-785 404.16,-807 313.49,-818 190.09,-818 99.41,-807 99.41,-785 190.09,-774 313.49,-774 404.16,-785"/>
<polygon fill="none" stroke="#3ecde9" points="408.16,-781.46 408.16,-810.54 313.73,-822 189.85,-822 95.41,-810.54 95.41,-781.46 189.85,-770 313.73,-770 408.16,-781.46"/>
<text text-anchor="middle" x="251.79" y="-792.3" font-family="Times-Roman" font-size="14.00" fill="#000000">virt&#45;manager&#45;2.2.1 (224.77 MiB)</text>
</g>
<!-- N34 -->
<g id="node44" class="node">
<title>N34</title>
<polygon fill="#39f3bb" stroke="#39f3bb" points="746.46,-884 534.46,-884 534.46,-848 746.46,-848 746.46,-884"/>
<text text-anchor="middle" x="640.46" y="-862.3" font-family="Times-Roman" font-size="14.00" fill="#000000">libXfixes&#45;5.0.3&#45;dev (493.23 MiB)</text>
</g>
<!-- N37&#45;&gt;N34 -->
<g id="edge1" class="edge">
<title>N37&#45;&gt;N34</title>
<path fill="none" stroke="black" d="M377.81,-814.29C410.02,-819.35 444.58,-825.09 476.46,-831 500.24,-835.41 525.87,-840.67 549.6,-845.76"/>
<polygon fill="black" stroke="black" points="549.13,-849.23 559.64,-847.92 550.6,-842.39 549.13,-849.23"/>
</g>
<!-- N28 -->
<g id="node3" class="node">
<title>N28</title>
<polygon fill="#37f59a" stroke="#37f59a" points="393.1,-998.54 393.1,-1013.46 310.32,-1024 193.26,-1024 110.48,-1013.46 110.48,-998.54 193.26,-988 310.32,-988 393.1,-998.54"/>
<polygon fill="none" stroke="#37f59a" points="397.1,-995.02 397.1,-1016.98 310.57,-1028 193,-1028 106.48,-1016.98 106.48,-995.02 193,-984 310.57,-984 397.1,-995.02"/>
<polygon fill="none" stroke="#37f59a" points="401.09,-991.5 401.09,-1020.5 310.83,-1032 192.75,-1032 102.48,-1020.5 102.48,-991.5 192.75,-980 310.83,-980 401.09,-991.5"/>
<text text-anchor="middle" x="251.79" y="-1002.3" font-family="Times-Roman" font-size="14.00" fill="#000000">wesnoth&#45;1.14.11 (571.35 MiB)</text>
</g>
<!-- N28&#45;&gt;N34 -->
<g id="edge2" class="edge">
<title>N28&#45;&gt;N34</title>
<path fill="none" stroke="black" d="M401.25,-991.69C426.82,-986.72 452.77,-980.02 476.46,-971 527.29,-951.65 578.89,-914.9 610.03,-890.43"/>
<polygon fill="black" stroke="black" points="612.24,-893.15 617.88,-884.18 607.88,-887.67 612.24,-893.15"/>
</g>
<!-- N38 -->
<g id="node4" class="node">
<title>N38</title>
<polygon fill="#407ee2" stroke="#407ee2" points="371.9,-648.54 371.9,-663.46 301.54,-674 202.04,-674 131.68,-663.46 131.68,-648.54 202.04,-638 301.54,-638 371.9,-648.54"/>
<polygon fill="none" stroke="#407ee2" points="375.89,-645.1 375.89,-666.9 301.84,-678 201.74,-678 127.69,-666.9 127.69,-645.1 201.74,-634 301.84,-634 375.89,-645.1"/>
<polygon fill="none" stroke="#407ee2" points="379.88,-641.65 379.88,-670.35 302.13,-682 201.44,-682 123.69,-670.35 123.69,-641.65 201.44,-630 302.13,-630 379.88,-641.65"/>
<text text-anchor="middle" x="251.79" y="-652.3" font-family="Times-Roman" font-size="14.00" fill="#ffffff">polybar&#45;3.4.3 (35.38 MiB)</text>
</g>
<!-- N32 -->
<g id="node45" class="node">
<title>N32</title>
<polygon fill="#3fade6" stroke="#3fade6" points="717.96,-534 562.96,-534 562.96,-498 717.96,-498 717.96,-534"/>
<text text-anchor="middle" x="640.46" y="-512.3" font-family="Times-Roman" font-size="14.00" fill="#ffffff">gcc&#45;9.3.0 (136.80 MiB)</text>
</g>
<!-- N38&#45;&gt;N32 -->
<g id="edge3" class="edge">
<title>N38&#45;&gt;N32</title>
<path fill="none" stroke="black" d="M379.99,-645.46C412.16,-640.27 446.16,-632.54 476.46,-621 527.29,-601.65 578.89,-564.9 610.03,-540.43"/>
<polygon fill="black" stroke="black" points="612.24,-543.15 617.88,-534.18 607.88,-537.67 612.24,-543.15"/>
</g>
<!-- N39 -->
<g id="node5" class="node">
<title>N39</title>
<polygon fill="#4084e2" stroke="#4084e2" points="426.22,-1278.54 426.22,-1293.46 324.04,-1304 179.54,-1304 77.35,-1293.46 77.35,-1278.54 179.54,-1268 324.04,-1268 426.22,-1278.54"/>
<polygon fill="none" stroke="#4084e2" points="430.22,-1274.94 430.22,-1297.06 324.25,-1308 179.33,-1308 73.36,-1297.06 73.36,-1274.94 179.33,-1264 324.25,-1264 430.22,-1274.94"/>
<polygon fill="none" stroke="#4084e2" points="434.22,-1271.33 434.22,-1300.67 324.45,-1312 179.12,-1312 69.36,-1300.67 69.36,-1271.33 179.12,-1260 324.45,-1260 434.22,-1271.33"/>
<text text-anchor="middle" x="251.79" y="-1282.3" font-family="Times-Roman" font-size="14.00" fill="#ffffff">openra&#45;release&#45;20190314 (47.51 MiB)</text>
</g>
<!-- N35 -->
<g id="node46" class="node">
<title>N35</title>
<polygon fill="#3beee6" stroke="#3beee6" points="737.96,-1234 542.96,-1234 542.96,-1198 737.96,-1198 737.96,-1234"/>
<text text-anchor="middle" x="640.46" y="-1212.3" font-family="Times-Roman" font-size="14.00" fill="#000000">mono&#45;5.20.1.27 (349.63 MiB)</text>
</g>
<!-- N39&#45;&gt;N35 -->
<g id="edge4" class="edge">
<title>N39&#45;&gt;N35</title>
<path fill="none" stroke="black" d="M386.35,-1266.36C416.07,-1261.64 447.38,-1256.39 476.46,-1251 500.24,-1246.59 525.87,-1241.33 549.6,-1236.24"/>
<polygon fill="black" stroke="black" points="550.6,-1239.61 559.64,-1234.08 549.13,-1232.77 550.6,-1239.61"/>
</g>
<!-- N27 -->
<g id="node6" class="node">
<title>N27</title>
<polygon fill="#3ce8ec" stroke="#3ce8ec" points="378.54,-1558.54 378.54,-1573.46 304.29,-1584 199.29,-1584 125.04,-1573.46 125.04,-1558.54 199.29,-1548 304.29,-1548 378.54,-1558.54"/>
<polygon fill="none" stroke="#3ce8ec" points="382.54,-1555.07 382.54,-1576.93 304.57,-1588 199,-1588 121.03,-1576.93 121.03,-1555.07 199,-1544 304.57,-1544 382.54,-1555.07"/>
<polygon fill="none" stroke="#3ce8ec" points="386.55,-1551.6 386.55,-1580.4 304.86,-1592 198.72,-1592 117.03,-1580.4 117.03,-1551.6 198.72,-1540 304.86,-1540 386.55,-1551.6"/>
<text text-anchor="middle" x="251.79" y="-1562.3" font-family="Times-Roman" font-size="14.00" fill="#000000">arduino&#45;1.8.9 (306.72 MiB)</text>
</g>
<!-- N29 -->
<g id="node47" class="node">
<title>N29</title>
<polygon fill="#3ec6e8" stroke="#3ec6e8" points="747.96,-1514 532.96,-1514 532.96,-1478 747.96,-1478 747.96,-1514"/>
<text text-anchor="middle" x="640.46" y="-1492.3" font-family="Times-Roman" font-size="14.00" fill="#000000">openjdk&#45;8u242&#45;b08 (204.96 MiB)</text>
</g>
<!-- N27&#45;&gt;N29 -->
<g id="edge5" class="edge">
<title>N27&#45;&gt;N29</title>
<path fill="none" stroke="black" d="M369.09,-1549.07C403.71,-1543.69 441.68,-1537.45 476.46,-1531 500.24,-1526.59 525.87,-1521.33 549.6,-1516.24"/>
<polygon fill="black" stroke="black" points="550.6,-1519.61 559.64,-1514.08 549.13,-1512.77 550.6,-1519.61"/>
</g>
<!-- N40 -->
<g id="node7" class="node">
<title>N40</title>
<polygon fill="#406ce1" stroke="#406ce1" points="369.26,-578.54 369.26,-593.46 300.45,-604 203.13,-604 134.32,-593.46 134.32,-578.54 203.13,-568 300.45,-568 369.26,-578.54"/>
<polygon fill="none" stroke="#406ce1" points="373.26,-575.11 373.26,-596.89 300.75,-608 202.83,-608 130.32,-596.89 130.32,-575.11 202.83,-564 300.75,-564 373.26,-575.11"/>
<polygon fill="none" stroke="#406ce1" points="377.25,-571.68 377.25,-600.32 301.05,-612 202.52,-612 126.32,-600.32 126.32,-571.68 202.52,-560 301.05,-560 377.25,-571.68"/>
<text text-anchor="middle" x="251.79" y="-582.3" font-family="Times-Roman" font-size="14.00" fill="#ffffff">nethack&#45;3.6.6 (4.58 MiB)</text>
</g>
<!-- N40&#45;&gt;N32 -->
<g id="edge6" class="edge">
<title>N40&#45;&gt;N32</title>
<path fill="none" stroke="black" d="M364.78,-569.74C400.54,-564.21 440.23,-557.72 476.46,-551 501.35,-546.38 528.26,-540.84 552.9,-535.54"/>
<polygon fill="black" stroke="black" points="553.91,-538.9 562.94,-533.36 552.43,-532.06 553.91,-538.9"/>
</g>
<!-- N26 -->
<g id="node8" class="node">
<title>N26</title>
<polygon fill="#3dddeb" stroke="#3dddeb" points="461.98,-1628.54 461.98,-1643.46 338.85,-1654 164.72,-1654 41.59,-1643.46 41.59,-1628.54 164.72,-1618 338.85,-1618 461.98,-1628.54"/>
<polygon fill="none" stroke="#3dddeb" points="465.98,-1624.87 465.98,-1647.13 339.02,-1658 164.55,-1658 37.6,-1647.13 37.6,-1624.87 164.55,-1614 339.02,-1614 465.98,-1624.87"/>
<polygon fill="none" stroke="#3dddeb" points="469.98,-1621.2 469.98,-1650.8 339.2,-1662 164.38,-1662 33.6,-1650.8 33.6,-1621.2 164.38,-1610 339.2,-1610 469.98,-1621.2"/>
<text text-anchor="middle" x="251.79" y="-1632.3" font-family="Times-Roman" font-size="14.00" fill="#000000">spotify&#45;1.1.26.501.gbe11e53b&#45;15 (272.32 MiB)</text>
</g>
<!-- N25 -->
<g id="node9" class="node">
<title>N25</title>
<polygon fill="#3ec8e8" stroke="#3ec8e8" points="398.85,-1208.54 398.85,-1223.46 312.7,-1234 190.87,-1234 104.73,-1223.46 104.73,-1208.54 190.87,-1198 312.7,-1198 398.85,-1208.54"/>
<polygon fill="none" stroke="#3ec8e8" points="402.85,-1205 402.85,-1227 312.95,-1238 190.63,-1238 100.73,-1227 100.73,-1205 190.63,-1194 312.95,-1194 402.85,-1205"/>
<polygon fill="none" stroke="#3ec8e8" points="406.85,-1201.46 406.85,-1230.54 313.19,-1242 190.39,-1242 96.73,-1230.54 96.73,-1201.46 190.39,-1190 313.19,-1190 406.85,-1201.46"/>
<text text-anchor="middle" x="251.79" y="-1212.3" font-family="Times-Roman" font-size="14.00" fill="#000000">glibc&#45;locales&#45;2.30 (209.50 MiB)</text>
</g>
<!-- N24 -->
<g id="node10" class="node">
<title>N24</title>
<polygon fill="#fee409" stroke="#fee409" points="369.26,-1068.54 369.26,-1083.46 300.45,-1094 203.13,-1094 134.32,-1083.46 134.32,-1068.54 203.13,-1058 300.45,-1058 369.26,-1068.54"/>
<polygon fill="none" stroke="#fee409" points="373.26,-1065.11 373.26,-1086.89 300.75,-1098 202.83,-1098 130.32,-1086.89 130.32,-1065.11 202.83,-1054 300.75,-1054 373.26,-1065.11"/>
<polygon fill="none" stroke="#fee409" points="377.25,-1061.68 377.25,-1090.32 301.05,-1102 202.52,-1102 126.32,-1090.32 126.32,-1061.68 202.52,-1050 301.05,-1050 377.25,-1061.68"/>
<text text-anchor="middle" x="251.79" y="-1072.3" font-family="Times-Roman" font-size="14.00" fill="#000000">wine&#45;wow&#45;5.0 (1.55 GiB)</text>
</g>
<!-- N24&#45;&gt;N34 -->
<g id="edge8" class="edge">
<title>N24&#45;&gt;N34</title>
<path fill="none" stroke="black" d="M377.33,-1071.3C410.96,-1066.16 446.35,-1056.99 476.46,-1041 543.01,-1005.67 597.11,-932.51 622.98,-892.89"/>
<polygon fill="black" stroke="black" points="626.2,-894.35 628.64,-884.04 620.3,-890.58 626.2,-894.35"/>
</g>
<!-- N33 -->
<g id="node48" class="node">
<title>N33</title>
<polygon fill="#3face6" stroke="#3face6" points="716.46,-1102 564.46,-1102 564.46,-1066 716.46,-1066 716.46,-1102"/>
<text text-anchor="middle" x="640.46" y="-1080.3" font-family="Times-Roman" font-size="14.00" fill="#ffffff">glu&#45;9.0.1 (135.38 MiB)</text>
</g>
<!-- N24&#45;&gt;N33 -->
<g id="edge7" class="edge">
<title>N24&#45;&gt;N33</title>
<path fill="none" stroke="black" d="M377.26,-1078.58C435.01,-1079.77 502.19,-1081.16 554.08,-1082.23"/>
<polygon fill="black" stroke="black" points="554.18,-1085.74 564.25,-1082.44 554.33,-1078.74 554.18,-1085.74"/>
</g>
<!-- N23 -->
<g id="node11" class="node">
<title>N23</title>
<polygon fill="#3ecee9" stroke="#3ecee9" points="389.56,-88.54 389.56,-103.46 308.86,-114 194.72,-114 114.01,-103.46 114.01,-88.54 194.72,-78 308.86,-78 389.56,-88.54"/>
<polygon fill="none" stroke="#3ecee9" points="393.56,-85.03 393.56,-106.97 309.12,-118 194.46,-118 110.02,-106.97 110.02,-85.03 194.46,-74 309.12,-74 393.56,-85.03"/>
<polygon fill="none" stroke="#3ecee9" points="397.56,-81.52 397.56,-110.48 309.38,-122 194.2,-122 106.02,-110.48 106.02,-81.52 194.2,-70 309.38,-70 397.56,-81.52"/>
<text text-anchor="middle" x="251.79" y="-92.3" font-family="Times-Roman" font-size="14.00" fill="#000000">inkscape&#45;0.92.5 (226.61 MiB)</text>
</g>
<!-- N36 -->
<g id="node49" class="node">
<title>N36</title>
<polygon fill="#3fafe6" stroke="#3fafe6" points="715.96,-184 564.96,-184 564.96,-148 715.96,-148 715.96,-184"/>
<text text-anchor="middle" x="640.46" y="-162.3" font-family="Times-Roman" font-size="14.00" fill="#ffffff">lapack&#45;3 (143.49 MiB)</text>
</g>
<!-- N23&#45;&gt;N36 -->
<g id="edge9" class="edge">
<title>N23&#45;&gt;N36</title>
<path fill="none" stroke="black" d="M373.73,-113.65C407.08,-118.86 443.23,-124.84 476.46,-131 501.96,-135.73 529.58,-141.44 554.71,-146.86"/>
<polygon fill="black" stroke="black" points="554.06,-150.3 564.58,-149 555.55,-143.46 554.06,-150.3"/>
</g>
<!-- N22 -->
<g id="node12" class="node">
<title>N22</title>
<polygon fill="#3fa6e5" stroke="#3fa6e5" points="401.06,-1698.54 401.06,-1713.46 313.62,-1724 189.96,-1724 102.51,-1713.46 102.51,-1698.54 189.96,-1688 313.62,-1688 401.06,-1698.54"/>
<polygon fill="none" stroke="#3fa6e5" points="405.07,-1695 405.07,-1717 313.86,-1728 189.72,-1728 98.51,-1717 98.51,-1695 189.72,-1684 313.86,-1684 405.07,-1695"/>
<polygon fill="none" stroke="#3fa6e5" points="409.07,-1691.45 409.07,-1720.55 314.1,-1732 189.48,-1732 94.51,-1720.55 94.51,-1691.45 189.48,-1680 314.1,-1680 409.07,-1691.45"/>
<text text-anchor="middle" x="251.79" y="-1702.3" font-family="Times-Roman" font-size="14.00" fill="#ffffff">wireshark&#45;cli&#45;3.2.4 (120.45 MiB)</text>
</g>
<!-- N41 -->
<g id="node13" class="node">
<title>N41</title>
<polygon fill="#4089e3" stroke="#4089e3" points="412.98,-718.54 412.98,-733.46 318.56,-744 185.02,-744 90.59,-733.46 90.59,-718.54 185.02,-708 318.56,-708 412.98,-718.54"/>
<polygon fill="none" stroke="#4089e3" points="416.99,-714.97 416.99,-737.03 318.78,-748 184.8,-748 86.59,-737.03 86.59,-714.97 184.8,-704 318.78,-704 416.99,-714.97"/>
<polygon fill="none" stroke="#4089e3" points="420.99,-711.39 420.99,-740.61 319,-752 184.57,-752 82.59,-740.61 82.59,-711.39 184.57,-700 319,-700 420.99,-711.39"/>
<text text-anchor="middle" x="251.79" y="-722.3" font-family="Times-Roman" font-size="14.00" fill="#ffffff">dwarf&#45;fortress&#45;0.47.04 (55.65 MiB)</text>
</g>
<!-- N41&#45;&gt;N34 -->
<g id="edge11" class="edge">
<title>N41&#45;&gt;N34</title>
<path fill="none" stroke="black" d="M409.29,-741.93C432.23,-746.71 455.25,-752.92 476.46,-761 527.29,-780.35 578.89,-817.1 610.03,-841.57"/>
<polygon fill="black" stroke="black" points="607.88,-844.33 617.88,-847.82 612.24,-838.85 607.88,-844.33"/>
</g>
<!-- N41&#45;&gt;N32 -->
<g id="edge10" class="edge">
<title>N41&#45;&gt;N32</title>
<path fill="none" stroke="black" d="M421.07,-712.23C440.38,-707.03 459.28,-700.12 476.46,-691 543.01,-655.67 597.11,-582.51 622.98,-542.89"/>
<polygon fill="black" stroke="black" points="626.2,-544.35 628.64,-534.04 620.3,-540.58 626.2,-544.35"/>
</g>
<!-- N21 -->
<g id="node14" class="node">
<title>N21</title>
<polygon fill="#3ec1e8" stroke="#3ec1e8" points="380.75,-1908.54 380.75,-1923.46 305.21,-1934 198.37,-1934 122.82,-1923.46 122.82,-1908.54 198.37,-1898 305.21,-1898 380.75,-1908.54"/>
<polygon fill="none" stroke="#3ec1e8" points="384.76,-1905.06 384.76,-1926.94 305.49,-1938 198.09,-1938 118.82,-1926.94 118.82,-1905.06 198.09,-1894 305.49,-1894 384.76,-1905.06"/>
<polygon fill="none" stroke="#3ec1e8" points="388.77,-1901.58 388.77,-1930.42 305.76,-1942 197.81,-1942 114.81,-1930.42 114.81,-1901.58 197.81,-1890 305.76,-1890 388.77,-1901.58"/>
<text text-anchor="middle" x="251.79" y="-1912.3" font-family="Times-Roman" font-size="14.00" fill="#000000">fritzing&#45;0.9.3b (190.99 MiB)</text>
</g>
<!-- N31 -->
<g id="node50" class="node">
<title>N31</title>
<polygon fill="#3fa0e5" stroke="#3fa0e5" points="729.46,-1864 551.46,-1864 551.46,-1828 729.46,-1828 729.46,-1864"/>
<text text-anchor="middle" x="640.46" y="-1842.3" font-family="Times-Roman" font-size="14.00" fill="#ffffff">bash&#45;4.4&#45;p23 (105.39 MiB)</text>
</g>
<!-- N21&#45;&gt;N31 -->
<g id="edge12" class="edge">
<title>N21&#45;&gt;N31</title>
<path fill="none" stroke="black" d="M369.96,-1898.94C404.34,-1893.59 441.97,-1887.4 476.46,-1881 500.24,-1876.59 525.87,-1871.33 549.6,-1866.24"/>
<polygon fill="black" stroke="black" points="550.6,-1869.61 559.64,-1864.08 549.13,-1862.77 550.6,-1869.61"/>
</g>
<!-- N43 -->
<g id="node15" class="node">
<title>N43</title>
<polygon fill="#406ae1" stroke="#406ae1" points="412.09,-2118.54 412.09,-2133.46 318.19,-2144 185.39,-2144 91.49,-2133.46 91.49,-2118.54 185.39,-2108 318.19,-2108 412.09,-2118.54"/>
<polygon fill="none" stroke="#406ae1" points="416.08,-2114.97 416.08,-2137.03 318.41,-2148 185.17,-2148 87.49,-2137.03 87.49,-2114.97 185.17,-2104 318.41,-2104 416.08,-2114.97"/>
<polygon fill="none" stroke="#406ae1" points="420.08,-2111.39 420.08,-2140.61 318.63,-2152 184.94,-2152 83.5,-2140.61 83.5,-2111.39 184.94,-2100 318.63,-2100 420.08,-2111.39"/>
<text text-anchor="middle" x="251.79" y="-2122.3" font-family="Times-Roman" font-size="14.00" fill="#ffffff">nvidia&#45;settings&#45;390.132 (1.67 MiB)</text>
</g>
<!-- N42 -->
<g id="node18" class="node">
<title>N42</title>
<polygon fill="#4084e2" stroke="#4084e2" points="442.58,-2048.54 442.58,-2063.46 330.81,-2074 172.76,-2074 61,-2063.46 61,-2048.54 172.76,-2038 330.81,-2038 442.58,-2048.54"/>
<polygon fill="none" stroke="#4084e2" points="446.58,-2044.9 446.58,-2067.1 331,-2078 172.57,-2078 57,-2067.1 57,-2044.9 172.57,-2034 331,-2034 446.58,-2044.9"/>
<polygon fill="none" stroke="#4084e2" points="450.58,-2041.26 450.58,-2070.74 331.19,-2082 172.38,-2082 53,-2070.74 53,-2041.26 172.38,-2030 331.19,-2030 450.58,-2041.26"/>
<text text-anchor="middle" x="251.79" y="-2052.3" font-family="Times-Roman" font-size="14.00" fill="#ffffff">nvidia&#45;x11&#45;390.132&#45;5.4.43&#45;bin (46.91 MiB)</text>
</g>
<!-- N43&#45;&gt;N42 -->
<g id="edge13" class="edge">
<title>N43&#45;&gt;N42</title>
<path fill="none" stroke="black" d="M251.79,-2099.68C251.79,-2097.23 251.79,-2094.78 251.79,-2092.33"/>
<polygon fill="black" stroke="black" points="255.29,-2092.25 251.79,-2082.25 248.29,-2092.25 255.29,-2092.25"/>
</g>
<!-- N44 -->
<g id="node16" class="node">
<title>N44</title>
<polygon fill="#3f9be4" stroke="#3f9be4" points="398.85,-508.54 398.85,-523.46 312.7,-534 190.87,-534 104.73,-523.46 104.73,-508.54 190.87,-498 312.7,-498 398.85,-508.54"/>
<polygon fill="none" stroke="#3f9be4" points="402.85,-505 402.85,-527 312.95,-538 190.63,-538 100.73,-527 100.73,-505 190.63,-494 312.95,-494 402.85,-505"/>
<polygon fill="none" stroke="#3f9be4" points="406.85,-501.46 406.85,-530.54 313.19,-542 190.39,-542 96.73,-530.54 96.73,-501.46 190.39,-490 313.19,-490 406.85,-501.46"/>
<text text-anchor="middle" x="251.79" y="-512.3" font-family="Times-Roman" font-size="14.00" fill="#ffffff">stepmania&#45;5.1.0&#45;b2 (93.37 MiB)</text>
</g>
<!-- N44&#45;&gt;N32 -->
<g id="edge14" class="edge">
<title>N44&#45;&gt;N32</title>
<path fill="none" stroke="black" d="M407,-516C456.59,-516 509.77,-516 552.73,-516"/>
<polygon fill="black" stroke="black" points="552.86,-519.5 562.86,-516 552.86,-512.5 552.86,-519.5"/>
</g>
<!-- N20 -->
<g id="node17" class="node">
<title>N20</title>
<polygon fill="#3ecbe9" stroke="#3ecbe9" points="468.63,-2188.54 468.63,-2203.46 341.61,-2214 161.97,-2214 34.94,-2203.46 34.94,-2188.54 161.97,-2178 341.61,-2178 468.63,-2188.54"/>
<polygon fill="none" stroke="#3ecbe9" points="472.64,-2184.86 472.64,-2207.14 341.77,-2218 161.8,-2218 30.94,-2207.14 30.94,-2184.86 161.8,-2174 341.77,-2174 472.64,-2184.86"/>
<polygon fill="none" stroke="#3ecbe9" points="476.64,-2181.18 476.64,-2210.82 341.94,-2222 161.64,-2222 26.94,-2210.82 26.94,-2181.18 161.64,-2170 341.94,-2170 476.64,-2181.18"/>
<text text-anchor="middle" x="251.79" y="-2192.3" font-family="Times-Roman" font-size="14.00" fill="#000000">firefox&#45;beta&#45;bin&#45;unwrapped&#45;77.0b7 (217.24 MiB)</text>
</g>
<!-- N30 -->
<g id="node51" class="node">
<title>N30</title>
<polygon fill="#3fafe6" stroke="#3fafe6" points="768.46,-2039 512.46,-2039 512.46,-2003 768.46,-2003 768.46,-2039"/>
<text text-anchor="middle" x="640.46" y="-2017.3" font-family="Times-Roman" font-size="14.00" fill="#ffffff">nvidia&#45;x11&#45;390.132&#45;5.4.43 (142.84 MiB)</text>
</g>
<!-- N42&#45;&gt;N30 -->
<g id="edge15" class="edge">
<title>N42&#45;&gt;N30</title>
<path fill="none" stroke="black" d="M433.67,-2039.63C456.68,-2037.54 479.93,-2035.44 502.1,-2033.43"/>
<polygon fill="black" stroke="black" points="502.57,-2036.91 512.21,-2032.52 501.93,-2029.93 502.57,-2036.91"/>
</g>
<!-- N19 -->
<g id="node19" class="node">
<title>N19</title>
<polygon fill="#3ddbeb" stroke="#3ddbeb" points="380.75,-158.54 380.75,-173.46 305.21,-184 198.37,-184 122.82,-173.46 122.82,-158.54 198.37,-148 305.21,-148 380.75,-158.54"/>
<polygon fill="none" stroke="#3ddbeb" points="384.76,-155.06 384.76,-176.94 305.49,-188 198.09,-188 118.82,-176.94 118.82,-155.06 198.09,-144 305.49,-144 384.76,-155.06"/>
<polygon fill="none" stroke="#3ddbeb" points="388.77,-151.58 388.77,-180.42 305.76,-192 197.81,-192 114.81,-180.42 114.81,-151.58 197.81,-140 305.76,-140 388.77,-151.58"/>
<text text-anchor="middle" x="251.79" y="-162.3" font-family="Times-Roman" font-size="14.00" fill="#000000">blender&#45;2.82a (264.92 MiB)</text>
</g>
<!-- N19&#45;&gt;N36 -->
<g id="edge16" class="edge">
<title>N19&#45;&gt;N36</title>
<path fill="none" stroke="black" d="M388.57,-166C443.83,-166 505.99,-166 554.62,-166"/>
<polygon fill="black" stroke="black" points="554.78,-169.5 564.78,-166 554.78,-162.5 554.78,-169.5"/>
</g>
<!-- N18 -->
<g id="node20" class="node">
<title>N18</title>
<polygon fill="#3ebee7" stroke="#3ebee7" points="416.52,-2328.54 416.52,-2343.46 320.02,-2354 183.56,-2354 87.06,-2343.46 87.06,-2328.54 183.56,-2318 320.02,-2318 416.52,-2328.54"/>
<polygon fill="none" stroke="#3ebee7" points="420.52,-2324.96 420.52,-2347.04 320.24,-2358 183.34,-2358 83.06,-2347.04 83.06,-2324.96 183.34,-2314 320.24,-2314 420.52,-2324.96"/>
<polygon fill="none" stroke="#3ebee7" points="424.52,-2321.37 424.52,-2350.63 320.46,-2362 183.12,-2362 79.05,-2350.63 79.05,-2321.37 183.12,-2310 320.46,-2310 424.52,-2321.37"/>
<text text-anchor="middle" x="251.79" y="-2332.3" font-family="Times-Roman" font-size="14.00" fill="#000000">thunderbird&#45;bin&#45;68.8.1 (181.53 MiB)</text>
</g>
<!-- N17 -->
<g id="node21" class="node">
<title>N17</title>
<polygon fill="#3eb9e7" stroke="#3eb9e7" points="395.31,-438.54 395.31,-453.46 311.24,-464 192.34,-464 108.26,-453.46 108.26,-438.54 192.34,-428 311.24,-428 395.31,-438.54"/>
<polygon fill="none" stroke="#3eb9e7" points="399.31,-435.01 399.31,-456.99 311.49,-468 192.09,-468 104.26,-456.99 104.26,-435.01 192.09,-424 311.49,-424 399.31,-435.01"/>
<polygon fill="none" stroke="#3eb9e7" points="403.31,-431.48 403.31,-460.52 311.74,-472 191.84,-472 100.26,-460.52 100.26,-431.48 191.84,-420 311.74,-420 403.31,-431.48"/>
<text text-anchor="middle" x="251.79" y="-442.3" font-family="Times-Roman" font-size="14.00" fill="#000000">upwork&#45;5.3.3.862 (168.58 MiB)</text>
</g>
<!-- N17&#45;&gt;N32 -->
<g id="edge17" class="edge">
<title>N17&#45;&gt;N32</title>
<path fill="none" stroke="black" d="M376.06,-464.02C408.76,-469.14 444,-474.98 476.46,-481 501.35,-485.62 528.26,-491.16 552.9,-496.46"/>
<polygon fill="black" stroke="black" points="552.43,-499.94 562.94,-498.64 553.91,-493.1 552.43,-499.94"/>
</g>
<!-- N16 -->
<g id="node22" class="node">
<title>N16</title>
<polygon fill="#34f950" stroke="#34f950" points="416.94,-1838.54 416.94,-1853.46 320.2,-1864 183.38,-1864 86.64,-1853.46 86.64,-1838.54 183.38,-1828 320.2,-1828 416.94,-1838.54"/>
<polygon fill="none" stroke="#34f950" points="420.93,-1834.96 420.93,-1857.04 320.41,-1868 183.16,-1868 82.64,-1857.04 82.64,-1834.96 183.16,-1824 320.41,-1824 420.93,-1834.96"/>
<polygon fill="none" stroke="#34f950" points="424.93,-1831.37 424.93,-1860.63 320.63,-1872 182.95,-1872 78.65,-1860.63 78.65,-1831.37 182.95,-1820 320.63,-1820 424.93,-1831.37"/>
<text text-anchor="middle" x="251.79" y="-1842.3" font-family="Times-Roman" font-size="14.00" fill="#000000">kodi&#45;with&#45;plugins&#45;18.5 (672.20 MiB)</text>
</g>
<!-- N16&#45;&gt;N31 -->
<g id="edge18" class="edge">
<title>N16&#45;&gt;N31</title>
<path fill="none" stroke="black" d="M425.21,-1846C464.89,-1846 505.76,-1846 541.03,-1846"/>
<polygon fill="black" stroke="black" points="541.31,-1849.5 551.31,-1846 541.31,-1842.5 541.31,-1849.5"/>
</g>
<!-- N15 -->
<g id="node23" class="node">
<title>N15</title>
<polygon fill="#3ddaea" stroke="#3ddaea" points="431.97,-2398.54 431.97,-2413.46 326.42,-2424 177.15,-2424 71.6,-2413.46 71.6,-2398.54 177.15,-2388 326.42,-2388 431.97,-2398.54"/>
<polygon fill="none" stroke="#3ddaea" points="435.97,-2394.92 435.97,-2417.08 326.62,-2428 176.95,-2428 67.6,-2417.08 67.6,-2394.92 176.95,-2384 326.62,-2384 435.97,-2394.92"/>
<polygon fill="none" stroke="#3ddaea" points="439.98,-2391.3 439.98,-2420.7 326.82,-2432 176.75,-2432 63.6,-2420.7 63.6,-2391.3 176.75,-2380 326.82,-2380 439.98,-2391.3"/>
<text text-anchor="middle" x="251.79" y="-2402.3" font-family="Times-Roman" font-size="14.00" fill="#000000">qemu&#45;host&#45;cpu&#45;only&#45;4.2.0 (263.29 MiB)</text>
</g>
<!-- N14 -->
<g id="node24" class="node">
<title>N14</title>
<polygon fill="#3ec6e8" stroke="#3ec6e8" points="373.68,-2468.54 373.68,-2483.46 302.28,-2494 201.3,-2494 129.89,-2483.46 129.89,-2468.54 201.3,-2458 302.28,-2458 373.68,-2468.54"/>
<polygon fill="none" stroke="#3ec6e8" points="377.69,-2465.09 377.69,-2486.91 302.57,-2498 201,-2498 125.89,-2486.91 125.89,-2465.09 201,-2454 302.57,-2454 377.69,-2465.09"/>
<polygon fill="none" stroke="#3ec6e8" points="381.7,-2461.64 381.7,-2490.36 302.87,-2502 200.71,-2502 121.88,-2490.36 121.88,-2461.64 200.71,-2450 302.87,-2450 381.7,-2461.64"/>
<text text-anchor="middle" x="251.79" y="-2472.3" font-family="Times-Roman" font-size="14.00" fill="#000000">astroid&#45;0.15 (202.72 MiB)</text>
</g>
<!-- N13 -->
<g id="node25" class="node">
<title>N13</title>
<polygon fill="#3ec4e8" stroke="#3ec4e8" points="442.99,-1348.54 442.99,-1363.46 330.99,-1374 172.59,-1374 60.58,-1363.46 60.58,-1348.54 172.59,-1338 330.99,-1338 442.99,-1348.54"/>
<polygon fill="none" stroke="#3ec4e8" points="446.99,-1344.9 446.99,-1367.1 331.18,-1378 172.4,-1378 56.59,-1367.1 56.59,-1344.9 172.4,-1334 331.18,-1334 446.99,-1344.9"/>
<polygon fill="none" stroke="#3ec4e8" points="450.99,-1341.26 450.99,-1370.74 331.36,-1382 172.21,-1382 52.59,-1370.74 52.59,-1341.26 172.21,-1330 331.36,-1330 450.99,-1341.26"/>
<text text-anchor="middle" x="251.79" y="-1352.3" font-family="Times-Roman" font-size="14.00" fill="#000000">tor&#45;browser&#45;bundle&#45;bin&#45;9.0.9 (199.27 MiB)</text>
</g>
<!-- N13&#45;&gt;N25 -->
<g id="edge19" class="edge">
<title>N13&#45;&gt;N25</title>
<path fill="none" stroke="black" d="M92.62,-1337.49C70.37,-1333.08 47.98,-1327.66 27.11,-1321 18.59,-1318.28 13.81,-1319.61 9.11,-1312 -3.04,-1292.34 -3.04,-1279.66 9.11,-1260 26.35,-1232.11 54.99,-1216.97 86.67,-1209.44"/>
<polygon fill="black" stroke="black" points="87.53,-1212.84 96.59,-1207.34 86.08,-1205.99 87.53,-1212.84"/>
</g>
<!-- N12 -->
<g id="node26" class="node">
<title>N12</title>
<polygon fill="#3befd9" stroke="#3befd9" points="364.4,-1768.54 364.4,-1783.46 298.43,-1794 205.14,-1794 139.17,-1783.46 139.17,-1768.54 205.14,-1758 298.43,-1758 364.4,-1768.54"/>
<polygon fill="none" stroke="#3befd9" points="368.4,-1765.13 368.4,-1786.87 298.75,-1798 204.82,-1798 135.17,-1786.87 135.17,-1765.13 204.82,-1754 298.75,-1754 368.4,-1765.13"/>
<polygon fill="none" stroke="#3befd9" points="372.41,-1761.72 372.41,-1790.28 299.07,-1802 204.51,-1802 131.17,-1790.28 131.17,-1761.72 204.51,-1750 299.07,-1750 372.41,-1761.72"/>
<text text-anchor="middle" x="251.79" y="-1772.3" font-family="Times-Roman" font-size="14.00" fill="#000000">cura&#45;4.4.0 (400.17 MiB)</text>
</g>
<!-- N12&#45;&gt;N31 -->
<g id="edge20" class="edge">
<title>N12&#45;&gt;N31</title>
<path fill="none" stroke="black" d="M362.5,-1791.91C398.85,-1797.51 439.46,-1804.14 476.46,-1811 500.24,-1815.41 525.87,-1820.67 549.6,-1825.76"/>
<polygon fill="black" stroke="black" points="549.13,-1829.23 559.64,-1827.92 550.6,-1822.39 549.13,-1829.23"/>
</g>
<!-- N45 -->
<g id="node27" class="node">
<title>N45</title>
<polygon fill="#4169e1" stroke="#4169e1" points="383.82,-1488.54 383.82,-1503.46 306.48,-1514 197.1,-1514 119.76,-1503.46 119.76,-1488.54 197.1,-1478 306.48,-1478 383.82,-1488.54"/>
<polygon fill="none" stroke="#4169e1" points="387.81,-1485.05 387.81,-1506.95 306.75,-1518 196.83,-1518 115.77,-1506.95 115.77,-1485.05 196.83,-1474 306.75,-1474 387.81,-1485.05"/>
<polygon fill="none" stroke="#4169e1" points="391.8,-1481.56 391.8,-1510.44 307.02,-1522 196.56,-1522 111.77,-1510.44 111.77,-1481.56 196.56,-1470 307.02,-1470 391.8,-1481.56"/>
<text text-anchor="middle" x="251.79" y="-1492.3" font-family="Times-Roman" font-size="14.00" fill="#ffffff">libreoffice&#45;6.4.3.2 (3.55 KiB)</text>
</g>
<!-- N2 -->
<g id="node41" class="node">
<title>N2</title>
<polygon fill="#38f4b0" stroke="#38f4b0" points="396.63,-1418.54 396.63,-1433.46 311.78,-1444 191.79,-1444 106.95,-1433.46 106.95,-1418.54 191.79,-1408 311.78,-1408 396.63,-1418.54"/>
<polygon fill="none" stroke="#38f4b0" points="400.63,-1415.01 400.63,-1436.99 312.03,-1448 191.55,-1448 102.95,-1436.99 102.95,-1415.01 191.55,-1404 312.03,-1404 400.63,-1415.01"/>
<polygon fill="none" stroke="#38f4b0" points="404.63,-1411.48 404.63,-1440.52 312.28,-1452 191.3,-1452 98.95,-1440.52 98.95,-1411.48 191.3,-1400 312.28,-1400 404.63,-1411.48"/>
<text text-anchor="middle" x="251.79" y="-1422.3" font-family="Times-Roman" font-size="14.00" fill="#000000">libreoffice&#45;6.4.3.2 (521.56 MiB)</text>
</g>
<!-- N45&#45;&gt;N2 -->
<g id="edge21" class="edge">
<title>N45&#45;&gt;N2</title>
<path fill="none" stroke="black" d="M251.79,-1469.68C251.79,-1467.23 251.79,-1464.78 251.79,-1462.33"/>
<polygon fill="black" stroke="black" points="255.29,-1462.25 251.79,-1452.25 248.29,-1462.25 255.29,-1462.25"/>
</g>
<!-- N11 -->
<g id="node28" class="node">
<title>N11</title>
<polygon fill="#3ce8ec" stroke="#3ce8ec" points="445.21,-2538.54 445.21,-2553.46 331.91,-2564 171.67,-2564 58.37,-2553.46 58.37,-2538.54 171.67,-2528 331.91,-2528 445.21,-2538.54"/>
<polygon fill="none" stroke="#3ce8ec" points="449.21,-2534.9 449.21,-2557.1 332.09,-2568 171.48,-2568 54.37,-2557.1 54.37,-2534.9 171.48,-2524 332.09,-2524 449.21,-2534.9"/>
<polygon fill="none" stroke="#3ce8ec" points="453.21,-2531.25 453.21,-2560.75 332.28,-2572 171.3,-2572 50.37,-2560.75 50.37,-2531.25 171.3,-2520 332.28,-2520 453.21,-2531.25"/>
<text text-anchor="middle" x="251.79" y="-2542.3" font-family="Times-Roman" font-size="14.00" fill="#000000">google&#45;chrome&#45;83.0.4103.61 (305.72 MiB)</text>
</g>
<!-- N46 -->
<g id="node29" class="node">
<title>N46</title>
<polygon fill="#4069e1" stroke="#4069e1" points="442.58,-1978.54 442.58,-1993.46 330.81,-2004 172.76,-2004 61,-1993.46 61,-1978.54 172.76,-1968 330.81,-1968 442.58,-1978.54"/>
<polygon fill="none" stroke="#4069e1" points="446.58,-1974.9 446.58,-1997.1 331,-2008 172.57,-2008 57,-1997.1 57,-1974.9 172.57,-1964 331,-1964 446.58,-1974.9"/>
<polygon fill="none" stroke="#4069e1" points="450.58,-1971.26 450.58,-2000.74 331.19,-2012 172.38,-2012 53,-2000.74 53,-1971.26 172.38,-1960 331.19,-1960 450.58,-1971.26"/>
<text text-anchor="middle" x="251.79" y="-1982.3" font-family="Times-Roman" font-size="14.00" fill="#ffffff">nvidia&#45;persistenced&#45;390.132 (107.70 KiB)</text>
</g>
<!-- N46&#45;&gt;N30 -->
<g id="edge22" class="edge">
<title>N46&#45;&gt;N30</title>
<path fill="none" stroke="black" d="M433.67,-2002.37C456.68,-2004.46 479.93,-2006.56 502.1,-2008.57"/>
<polygon fill="black" stroke="black" points="501.93,-2012.07 512.21,-2009.48 502.57,-2005.09 501.93,-2012.07"/>
</g>
<!-- N10 -->
<g id="node30" class="node">
<title>N10</title>
<polygon fill="#edfe20" stroke="#edfe20" points="337.02,-1138.54 337.02,-1153.46 287.09,-1164 216.48,-1164 166.55,-1153.46 166.55,-1138.54 216.48,-1128 287.09,-1128 337.02,-1138.54"/>
<polygon fill="none" stroke="#edfe20" points="341.03,-1135.3 341.03,-1156.7 287.51,-1168 216.06,-1168 162.55,-1156.7 162.55,-1135.3 216.06,-1124 287.51,-1124 341.03,-1135.3"/>
<polygon fill="none" stroke="#edfe20" points="345.03,-1132.06 345.03,-1159.94 287.93,-1172 215.65,-1172 158.54,-1159.94 158.54,-1132.06 215.65,-1120 287.93,-1120 345.03,-1132.06"/>
<text text-anchor="middle" x="251.79" y="-1142.3" font-family="Times-Roman" font-size="14.00" fill="#000000">steam (1.22 GiB)</text>
</g>
<!-- N10&#45;&gt;N25 -->
<g id="edge23" class="edge">
<title>N10&#45;&gt;N25</title>
<path fill="none" stroke="black" d="M251.79,-1172.25C251.79,-1174.7 251.79,-1177.15 251.79,-1179.6"/>
<polygon fill="black" stroke="black" points="248.29,-1179.68 251.79,-1189.68 255.29,-1179.68 248.29,-1179.68"/>
</g>
<!-- N10&#45;&gt;N35 -->
<g id="edge25" class="edge">
<title>N10&#45;&gt;N35</title>
<path fill="none" stroke="black" d="M344.94,-1159.23C385.39,-1165.34 433.37,-1173.01 476.46,-1181 500.24,-1185.41 525.87,-1190.67 549.6,-1195.76"/>
<polygon fill="black" stroke="black" points="549.13,-1199.23 559.64,-1197.92 550.6,-1192.39 549.13,-1199.23"/>
</g>
<!-- N10&#45;&gt;N33 -->
<g id="edge24" class="edge">
<title>N10&#45;&gt;N33</title>
<path fill="none" stroke="black" d="M344.23,-1131.88C384.76,-1125.57 433,-1118 476.46,-1111 501.84,-1106.91 529.42,-1102.38 554.56,-1098.21"/>
<polygon fill="black" stroke="black" points="555.13,-1101.66 564.42,-1096.57 553.99,-1094.76 555.13,-1101.66"/>
</g>
<!-- N47 -->
<g id="node31" class="node">
<title>N47</title>
<polygon fill="#4069e1" stroke="#4069e1" points="376.32,-928.54 376.32,-943.46 303.37,-954 200.2,-954 127.25,-943.46 127.25,-928.54 200.2,-918 303.37,-918 376.32,-928.54"/>
<polygon fill="none" stroke="#4069e1" points="380.32,-925.08 380.32,-946.92 303.66,-958 199.92,-958 123.25,-946.92 123.25,-925.08 199.92,-914 303.66,-914 380.32,-925.08"/>
<polygon fill="none" stroke="#4069e1" points="384.32,-921.62 384.32,-950.38 303.95,-962 199.63,-962 119.25,-950.38 119.25,-921.62 199.63,-910 303.95,-910 384.32,-921.62"/>
<text text-anchor="middle" x="251.79" y="-932.3" font-family="Times-Roman" font-size="14.00" fill="#ffffff">arandr&#45;0.1.10 (203.91 KiB)</text>
</g>
<!-- N47&#45;&gt;N34 -->
<g id="edge26" class="edge">
<title>N47&#45;&gt;N34</title>
<path fill="none" stroke="black" d="M368.23,-919.21C403.08,-913.79 441.39,-907.5 476.46,-901 500.24,-896.59 525.87,-891.33 549.6,-886.24"/>
<polygon fill="black" stroke="black" points="550.6,-889.61 559.64,-884.08 549.13,-882.77 550.6,-889.61"/>
</g>
<!-- N9 -->
<g id="node32" class="node">
<title>N9</title>
<polygon fill="#3faee6" stroke="#3faee6" points="377.64,-228.54 377.64,-243.46 303.92,-254 199.66,-254 125.93,-243.46 125.93,-228.54 199.66,-218 303.92,-218 377.64,-228.54"/>
<polygon fill="none" stroke="#3faee6" points="381.64,-225.08 381.64,-246.92 304.2,-258 199.37,-258 121.94,-246.92 121.94,-225.08 199.37,-214 304.2,-214 381.64,-225.08"/>
<polygon fill="none" stroke="#3faee6" points="385.64,-221.61 385.64,-250.39 304.49,-262 199.09,-262 117.94,-250.39 117.94,-221.61 199.09,-210 304.49,-210 385.64,-221.61"/>
<text text-anchor="middle" x="251.79" y="-232.3" font-family="Times-Roman" font-size="14.00" fill="#ffffff">gimp&#45;2.10.18 (140.30 MiB)</text>
</g>
<!-- N9&#45;&gt;N34 -->
<g id="edge27" class="edge">
<title>N9&#45;&gt;N34</title>
<path fill="none" stroke="black" d="M385.87,-229.72C419.47,-234.79 452.71,-246.68 476.46,-271 519.07,-314.62 497.2,-483.97 512.46,-543 541.86,-656.64 600.06,-784.36 626.2,-838.93"/>
<polygon fill="black" stroke="black" points="623.05,-840.47 630.55,-847.95 629.36,-837.43 623.05,-840.47"/>
</g>
<!-- N9&#45;&gt;N36 -->
<g id="edge28" class="edge">
<title>N9&#45;&gt;N36</title>
<path fill="none" stroke="black" d="M368.8,-219.12C403.5,-213.73 441.59,-207.47 476.46,-201 501.96,-196.27 529.58,-190.56 554.71,-185.14"/>
<polygon fill="black" stroke="black" points="555.55,-188.54 564.58,-183 554.06,-181.7 555.55,-188.54"/>
</g>
<!-- N8 -->
<g id="node33" class="node">
<title>N8</title>
<polygon fill="#3ce9ec" stroke="#3ce9ec" points="358.65,-2608.54 358.65,-2623.46 296.05,-2634 207.52,-2634 144.92,-2623.46 144.92,-2608.54 207.52,-2598 296.05,-2598 358.65,-2608.54"/>
<polygon fill="none" stroke="#3ce9ec" points="362.65,-2605.16 362.65,-2626.84 296.39,-2638 207.19,-2638 140.92,-2626.84 140.92,-2605.16 207.19,-2594 296.39,-2594 362.65,-2605.16"/>
<polygon fill="none" stroke="#3ce9ec" points="366.65,-2601.78 366.65,-2630.22 296.72,-2642 206.85,-2642 136.93,-2630.22 136.93,-2601.78 206.85,-2590 296.72,-2590 366.65,-2601.78"/>
<text text-anchor="middle" x="251.79" y="-2612.3" font-family="Times-Roman" font-size="14.00" fill="#000000">ino&#45;0.3.6 (310.71 MiB)</text>
</g>
<!-- N7 -->
<g id="node34" class="node">
<title>N7</title>
<polygon fill="#3ecce9" stroke="#3ecce9" points="450.06,-2678.54 450.06,-2693.46 333.92,-2704 169.66,-2704 53.51,-2693.46 53.51,-2678.54 169.66,-2668 333.92,-2668 450.06,-2678.54"/>
<polygon fill="none" stroke="#3ecce9" points="454.06,-2674.89 454.06,-2697.11 334.1,-2708 169.48,-2708 49.52,-2697.11 49.52,-2674.89 169.48,-2664 334.1,-2664 454.06,-2674.89"/>
<polygon fill="none" stroke="#3ecce9" points="458.06,-2671.24 458.06,-2700.76 334.28,-2712 169.3,-2712 45.52,-2700.76 45.52,-2671.24 169.3,-2660 334.28,-2660 458.06,-2671.24"/>
<text text-anchor="middle" x="251.79" y="-2682.3" font-family="Times-Roman" font-size="14.00" fill="#000000">papirus&#45;icon&#45;theme&#45;20200430 (221.53 MiB)</text>
</g>
<!-- N6 -->
<g id="node35" class="node">
<title>N6</title>
<polygon fill="#fe8500" stroke="#fe8500" points="434.19,-368.54 434.19,-383.46 327.34,-394 176.24,-394 69.39,-383.46 69.39,-368.54 176.24,-358 327.34,-358 434.19,-368.54"/>
<polygon fill="none" stroke="#fe8500" points="438.19,-364.92 438.19,-387.08 327.54,-398 176.04,-398 65.38,-387.08 65.38,-364.92 176.04,-354 327.54,-354 438.19,-364.92"/>
<polygon fill="none" stroke="#fe8500" points="442.2,-361.3 442.2,-390.7 327.74,-402 175.84,-402 61.38,-390.7 61.38,-361.3 175.84,-350 327.74,-350 442.2,-361.3"/>
<text text-anchor="middle" x="251.79" y="-372.3" font-family="Times-Roman" font-size="14.00" fill="#000000">xmonad&#45;with&#45;packages&#45;8.8.3 (2.17 GiB)</text>
</g>
<!-- N6&#45;&gt;N32 -->
<g id="edge29" class="edge">
<title>N6&#45;&gt;N32</title>
<path fill="none" stroke="black" d="M415.84,-393.34C436.59,-397.91 457.27,-403.69 476.46,-411 527.29,-430.35 578.89,-467.1 610.03,-491.57"/>
<polygon fill="black" stroke="black" points="607.88,-494.33 617.88,-497.82 612.24,-488.85 607.88,-494.33"/>
</g>
<!-- N5 -->
<g id="node36" class="node">
<title>N5</title>
<polygon fill="#b7fe2d" stroke="#b7fe2d" points="394.42,-2748.54 394.42,-2763.46 310.87,-2774 192.71,-2774 109.16,-2763.46 109.16,-2748.54 192.71,-2738 310.87,-2738 394.42,-2748.54"/>
<polygon fill="none" stroke="#b7fe2d" points="398.41,-2745.02 398.41,-2766.98 311.12,-2778 192.46,-2778 105.17,-2766.98 105.17,-2745.02 192.46,-2734 311.12,-2734 398.41,-2745.02"/>
<polygon fill="none" stroke="#b7fe2d" points="402.41,-2741.49 402.41,-2770.51 311.37,-2782 192.21,-2782 101.17,-2770.51 101.17,-2741.49 192.21,-2730 311.37,-2730 402.41,-2741.49"/>
<text text-anchor="middle" x="251.79" y="-2752.3" font-family="Times-Roman" font-size="14.00" fill="#000000">xonotic&#45;sdl&#45;0.8.2 (895.35 MiB)</text>
</g>
<!-- N4 -->
<g id="node37" class="node">
<title>N4</title>
<polygon fill="#3fa1e5" stroke="#3fa1e5" points="386.03,-2818.54 386.03,-2833.46 307.39,-2844 196.18,-2844 117.55,-2833.46 117.55,-2818.54 196.18,-2808 307.39,-2808 386.03,-2818.54"/>
<polygon fill="none" stroke="#3fa1e5" points="390.03,-2815.04 390.03,-2836.96 307.66,-2848 195.92,-2848 113.55,-2836.96 113.55,-2815.04 195.92,-2804 307.66,-2804 390.03,-2815.04"/>
<polygon fill="none" stroke="#3fa1e5" points="394.02,-2811.54 394.02,-2840.46 307.93,-2852 195.65,-2852 109.55,-2840.46 109.55,-2811.54 195.65,-2800 307.93,-2800 394.02,-2811.54"/>
<text text-anchor="middle" x="251.79" y="-2822.3" font-family="Times-Roman" font-size="14.00" fill="#ffffff">nomacs&#45;3.14.2 (108.73 MiB)</text>
</g>
<!-- N48 -->
<g id="node38" class="node">
<title>N48</title>
<polygon fill="#4086e2" stroke="#4086e2" points="371.9,-298.54 371.9,-313.46 301.54,-324 202.04,-324 131.68,-313.46 131.68,-298.54 202.04,-288 301.54,-288 371.9,-298.54"/>
<polygon fill="none" stroke="#4086e2" points="375.89,-295.1 375.89,-316.9 301.84,-328 201.74,-328 127.69,-316.9 127.69,-295.1 201.74,-284 301.84,-284 375.89,-295.1"/>
<polygon fill="none" stroke="#4086e2" points="379.88,-291.65 379.88,-320.35 302.13,-332 201.44,-332 123.69,-320.35 123.69,-291.65 201.44,-280 302.13,-280 379.88,-291.65"/>
<text text-anchor="middle" x="251.79" y="-302.3" font-family="Times-Roman" font-size="14.00" fill="#ffffff">neovim&#45;0.4.3 (51.15 MiB)</text>
</g>
<!-- N48&#45;&gt;N32 -->
<g id="edge30" class="edge">
<title>N48&#45;&gt;N32</title>
<path fill="none" stroke="black" d="M379.95,-311.11C412.79,-316.32 447.13,-325.43 476.46,-341 543.01,-376.33 597.11,-449.49 622.98,-489.11"/>
<polygon fill="black" stroke="black" points="620.3,-491.42 628.64,-497.96 626.2,-487.65 620.3,-491.42"/>
</g>
<!-- N3 -->
<g id="node39" class="node">
<title>N3</title>
<polygon fill="#3fb7e7" stroke="#3fb7e7" points="381.18,-2888.54 381.18,-2903.46 305.38,-2914 198.19,-2914 122.4,-2903.46 122.4,-2888.54 198.19,-2878 305.38,-2878 381.18,-2888.54"/>
<polygon fill="none" stroke="#3fb7e7" points="385.18,-2885.06 385.18,-2906.94 305.66,-2918 197.92,-2918 118.4,-2906.94 118.4,-2885.06 197.92,-2874 305.66,-2874 385.18,-2885.06"/>
<polygon fill="none" stroke="#3fb7e7" points="389.17,-2881.58 389.17,-2910.42 305.94,-2922 197.64,-2922 114.4,-2910.42 114.4,-2881.58 197.64,-2870 305.94,-2870 389.17,-2881.58"/>
<text text-anchor="middle" x="251.79" y="-2892.3" font-family="Times-Roman" font-size="14.00" fill="#000000">gzdoom&#45;4.3.3 (163.52 MiB)</text>
</g>
<!-- N49 -->
<g id="node40" class="node">
<title>N49</title>
<polygon fill="#406be1" stroke="#406be1" points="407.23,-2258.54 407.23,-2273.46 316.18,-2284 187.4,-2284 96.34,-2273.46 96.34,-2258.54 187.4,-2248 316.18,-2248 407.23,-2258.54"/>
<polygon fill="none" stroke="#406be1" points="411.23,-2254.98 411.23,-2277.02 316.41,-2288 187.17,-2288 92.34,-2277.02 92.34,-2254.98 187.17,-2244 316.41,-2244 411.23,-2254.98"/>
<polygon fill="none" stroke="#406be1" points="415.23,-2251.42 415.23,-2280.58 316.64,-2292 186.94,-2292 88.34,-2280.58 88.34,-2251.42 186.94,-2240 316.64,-2240 415.23,-2251.42"/>
<text text-anchor="middle" x="251.79" y="-2262.3" font-family="Times-Roman" font-size="14.00" fill="#ffffff">firefox&#45;beta&#45;bin&#45;77.0b7 (3.25 MiB)</text>
</g>
<!-- N49&#45;&gt;N20 -->
<g id="edge31" class="edge">
<title>N49&#45;&gt;N20</title>
<path fill="none" stroke="black" d="M251.79,-2239.68C251.79,-2237.23 251.79,-2234.78 251.79,-2232.33"/>
<polygon fill="black" stroke="black" points="255.29,-2232.25 251.79,-2222.25 248.29,-2232.25 255.29,-2232.25"/>
</g>
<!-- N2&#45;&gt;N29 -->
<g id="edge32" class="edge">
<title>N2&#45;&gt;N29</title>
<path fill="none" stroke="black" d="M376.35,-1444.06C408.97,-1449.18 444.1,-1455 476.46,-1461 500.24,-1465.41 525.87,-1470.67 549.6,-1475.76"/>
<polygon fill="black" stroke="black" points="549.13,-1479.23 559.64,-1477.92 550.6,-1472.39 549.13,-1479.23"/>
</g>
<!-- N1 -->
<g id="node42" class="node">
<title>N1</title>
<polygon fill="#3dddeb" stroke="#3dddeb" points="371.47,-2958.54 371.47,-2973.46 301.36,-2984 202.21,-2984 132.11,-2973.46 132.11,-2958.54 202.21,-2948 301.36,-2948 371.47,-2958.54"/>
<polygon fill="none" stroke="#3dddeb" points="375.47,-2955.1 375.47,-2976.9 301.66,-2988 201.92,-2988 128.1,-2976.9 128.1,-2955.1 201.92,-2944 301.66,-2944 375.47,-2955.1"/>
<polygon fill="none" stroke="#3dddeb" points="379.48,-2951.66 379.48,-2980.34 301.96,-2992 201.62,-2992 124.1,-2980.34 124.1,-2951.66 201.62,-2940 301.96,-2940 379.48,-2951.66"/>
<text text-anchor="middle" x="251.79" y="-2962.3" font-family="Times-Roman" font-size="14.00" fill="#000000">elixir&#45;1.10.3 (271.33 MiB)</text>
</g>
<!-- N50 -->
<g id="node43" class="node">
<title>N50</title>
<polygon fill="#4071e1" stroke="#4071e1" points="353.8,-858.54 353.8,-873.46 294.04,-884 209.53,-884 149.78,-873.46 149.78,-858.54 209.53,-848 294.04,-848 353.8,-858.54"/>
<polygon fill="none" stroke="#4071e1" points="357.8,-855.19 357.8,-876.81 294.39,-888 209.18,-888 145.78,-876.81 145.78,-855.19 209.18,-844 294.39,-844 357.8,-855.19"/>
<polygon fill="none" stroke="#4071e1" points="361.8,-851.83 361.8,-880.17 294.74,-892 208.83,-892 141.78,-880.17 141.78,-851.83 208.83,-840 294.74,-840 361.8,-851.83"/>
<text text-anchor="middle" x="251.79" y="-862.3" font-family="Times-Roman" font-size="14.00" fill="#ffffff">piper&#45;0.4 (12.98 MiB)</text>
</g>
<!-- N50&#45;&gt;N34 -->
<g id="edge33" class="edge">
<title>N50&#45;&gt;N34</title>
<path fill="none" stroke="black" d="M362.04,-866C412.61,-866 472.7,-866 524.01,-866"/>
<polygon fill="black" stroke="black" points="524.14,-869.5 534.14,-866 524.14,-862.5 524.14,-869.5"/>
</g>
</g>
</svg>
