<?xml version="1.0" encoding="UTF-8" standalone="no"?>
<!DOCTYPE svg PUBLIC "-//W3C//DTD SVG 1.1//EN"
 "http://www.w3.org/Graphics/SVG/1.1/DTD/svg11.dtd">
<!-- Generated by graphviz version 2.43.0 (0)
 -->
<!-- Title: nixstore Pages: 1 -->
<svg width="771pt" height="3000pt"
 viewBox="0.00 0.00 770.80 3000.00" xmlns="http://www.w3.org/2000/svg" xmlns:xlink="http://www.w3.org/1999/xlink">
<g id="graph0" class="graph" transform="scale(1 1) rotate(0) translate(4 2996)">
<title>nixstore</title>
<polygon fill="white" stroke="transparent" points="-4,4 -4,-2996 766.8,-2996 766.8,4 -4,4"/>
<!-- N51 -->
<g id="node1" class="node">
<title>N51</title>
<polygon fill="#fe0000" stroke="#fe0000" points="356.75,-18.54 356.75,-33.46 291.56,-44 199.36,-44 134.16,-33.46 134.16,-18.54 199.36,-8 291.56,-8 356.75,-18.54"/>
<polygon fill="none" stroke="#fe0000" points="360.76,-15.14 360.76,-36.86 291.88,-48 199.04,-48 130.16,-36.86 130.16,-15.14 199.04,-4 291.88,-4 360.76,-15.14"/>
<polygon fill="none" stroke="#fe0000" points="364.76,-11.74 364.76,-40.26 292.2,-52 198.71,-52 126.15,-40.26 126.15,-11.74 198.71,0 292.2,0 364.76,-11.74"/>
<text text-anchor="middle" x="245.46" y="-22.3" font-family="Roboto" font-size="14.00" fill="#000000">{filtered out} (2.59 GiB)</text>
</g>
<!-- N37 -->
<g id="node2" class="node">
<title>N37</title>
<polygon fill="#4091e3" stroke="#4091e3" points="365.56,-1138.54 365.56,-1153.46 295.21,-1164 195.71,-1164 125.35,-1153.46 125.35,-1138.54 195.71,-1128 295.21,-1128 365.56,-1138.54"/>
<polygon fill="none" stroke="#4091e3" points="369.56,-1135.1 369.56,-1156.9 295.5,-1168 195.41,-1168 121.36,-1156.9 121.36,-1135.1 195.41,-1124 295.5,-1124 369.56,-1135.1"/>
<polygon fill="none" stroke="#4091e3" points="373.55,-1131.65 373.55,-1160.35 295.8,-1172 195.11,-1172 117.36,-1160.35 117.36,-1131.65 195.11,-1120 295.8,-1120 373.55,-1131.65"/>
<text text-anchor="middle" x="245.46" y="-1142.3" font-family="Roboto" font-size="14.00" fill="#ffffff">polybar&#45;3.4.3 (77.25 MiB)</text>
</g>
<!-- N29 -->
<g id="node44" class="node">
<title>N29</title>
<polygon fill="#3fade6" stroke="#3fade6" points="708.8,-884 553.8,-884 553.8,-848 708.8,-848 708.8,-884"/>
<text text-anchor="middle" x="631.3" y="-862.3" font-family="Roboto" font-size="14.00" fill="#ffffff">gcc&#45;9.3.0 (144.24 MiB)</text>
</g>
<!-- N37&#45;&gt;N29 -->
<g id="edge1" class="edge">
<title>N37&#45;&gt;N29</title>
<path fill="none" stroke="black" d="M373.69,-1142.94C404.98,-1137.64 437.12,-1127.98 463.8,-1111 547.39,-1057.8 599.46,-945.92 620.12,-893.81"/>
<polygon fill="black" stroke="black" points="623.48,-894.81 623.83,-884.22 616.95,-892.28 623.48,-894.81"/>
</g>
<!-- N38 -->
<g id="node3" class="node">
<title>N38</title>
<polygon fill="#4097e4" stroke="#4097e4" points="388.09,-508.54 388.09,-523.46 304.54,-534 186.38,-534 102.83,-523.46 102.83,-508.54 186.38,-498 304.54,-498 388.09,-508.54"/>
<polygon fill="none" stroke="#4097e4" points="392.08,-505.02 392.08,-526.98 304.79,-538 186.13,-538 98.83,-526.98 98.83,-505.02 186.13,-494 304.79,-494 392.08,-505.02"/>
<polygon fill="none" stroke="#4097e4" points="396.08,-501.49 396.08,-530.51 305.04,-542 185.88,-542 94.84,-530.51 94.84,-501.49 185.88,-490 305.04,-490 396.08,-501.49"/>
<text text-anchor="middle" x="245.46" y="-512.3" font-family="Roboto" font-size="14.00" fill="#ffffff">virt&#45;manager&#45;2.2.1 (90.53 MiB)</text>
</g>
<!-- N35 -->
<g id="node45" class="node">
<title>N35</title>
<polygon fill="#39f2c7" stroke="#39f2c7" points="726.8,-429 535.8,-429 535.8,-393 726.8,-393 726.8,-429"/>
<text text-anchor="middle" x="631.3" y="-407.3" font-family="Roboto" font-size="14.00" fill="#000000">libGL&#45;1.3.1&#45;dev (483.06 MiB)</text>
</g>
<!-- N38&#45;&gt;N35 -->
<g id="edge2" class="edge">
<title>N38&#45;&gt;N35</title>
<path fill="none" stroke="black" d="M380.61,-499.54C408.38,-494.7 437.25,-488.6 463.8,-481 506.06,-468.9 551.95,-449.07 584.84,-433.6"/>
<polygon fill="black" stroke="black" points="586.65,-436.61 594.18,-429.15 583.64,-430.29 586.65,-436.61"/>
</g>
<!-- N28 -->
<g id="node4" class="node">
<title>N28</title>
<polygon fill="#fed901" stroke="#fed901" points="339.51,-1348.54 339.51,-1363.46 284.42,-1374 206.5,-1374 151.4,-1363.46 151.4,-1348.54 206.5,-1338 284.42,-1338 339.51,-1348.54"/>
<polygon fill="none" stroke="#fed901" points="343.5,-1345.24 343.5,-1366.76 284.79,-1378 206.12,-1378 147.41,-1366.76 147.41,-1345.24 206.12,-1334 284.79,-1334 343.5,-1345.24"/>
<polygon fill="none" stroke="#fed901" points="347.49,-1341.93 347.49,-1370.07 285.17,-1382 205.74,-1382 143.42,-1370.07 143.42,-1341.93 205.74,-1330 285.17,-1330 347.49,-1341.93"/>
<text text-anchor="middle" x="245.46" y="-1352.3" font-family="Roboto" font-size="14.00" fill="#000000">wine&#45;5.0 (1.71 GiB)</text>
</g>
<!-- N33 -->
<g id="node46" class="node">
<title>N33</title>
<polygon fill="#3beee4" stroke="#3beee4" points="720.8,-1382 541.8,-1382 541.8,-1346 720.8,-1346 720.8,-1382"/>
<text text-anchor="middle" x="631.3" y="-1360.3" font-family="Roboto" font-size="14.00" fill="#000000">gnutls&#45;3.6.14 (376.85 MiB)</text>
</g>
<!-- N28&#45;&gt;N33 -->
<g id="edge3" class="edge">
<title>N28&#45;&gt;N33</title>
<path fill="none" stroke="black" d="M347.56,-1358.11C404.45,-1359.29 475.17,-1360.77 531.66,-1361.94"/>
<polygon fill="black" stroke="black" points="531.6,-1365.44 541.67,-1362.15 531.75,-1358.45 531.6,-1365.44"/>
</g>
<!-- N34 -->
<g id="node47" class="node">
<title>N34</title>
<polygon fill="#3fabe6" stroke="#3fabe6" points="762.8,-1312 499.8,-1312 499.8,-1276 762.8,-1276 762.8,-1312"/>
<text text-anchor="middle" x="631.3" y="-1290.3" font-family="Roboto" font-size="14.00" fill="#ffffff">wine&#45;gecko&#45;2.47.1&#45;x86.msi (139.24 MiB)</text>
</g>
<!-- N28&#45;&gt;N34 -->
<g id="edge4" class="edge">
<title>N28&#45;&gt;N34</title>
<path fill="none" stroke="black" d="M341.41,-1340.73C379.46,-1334.61 423.71,-1327.48 463.8,-1321 478.5,-1318.62 493.94,-1316.13 509.23,-1313.65"/>
<polygon fill="black" stroke="black" points="509.94,-1317.08 519.25,-1312.03 508.82,-1310.17 509.94,-1317.08"/>
</g>
<!-- N27 -->
<g id="node5" class="node">
<title>N27</title>
<polygon fill="#3ec1e8" stroke="#3ec1e8" points="429.18,-1628.54 429.18,-1643.46 321.56,-1654 169.36,-1654 61.74,-1643.46 61.74,-1628.54 169.36,-1618 321.56,-1618 429.18,-1628.54"/>
<polygon fill="none" stroke="#3ec1e8" points="433.18,-1624.92 433.18,-1647.08 321.75,-1658 169.16,-1658 57.74,-1647.08 57.74,-1624.92 169.16,-1614 321.75,-1614 433.18,-1624.92"/>
<polygon fill="none" stroke="#3ec1e8" points="437.18,-1621.29 437.18,-1650.71 321.95,-1662 168.97,-1662 53.73,-1650.71 53.73,-1621.29 168.97,-1610 321.95,-1610 437.18,-1621.29"/>
<text text-anchor="middle" x="245.46" y="-1632.3" font-family="Roboto" font-size="14.00" fill="#000000">tor&#45;browser&#45;bundle&#45;bin&#45;9.5 (200.07 MiB)</text>
</g>
<!-- N25 -->
<g id="node7" class="node">
<title>N25</title>
<polygon fill="#3ec4e8" stroke="#3ec4e8" points="392.52,-1488.54 392.52,-1503.46 306.37,-1514 184.54,-1514 98.4,-1503.46 98.4,-1488.54 184.54,-1478 306.37,-1478 392.52,-1488.54"/>
<polygon fill="none" stroke="#3ec4e8" points="396.52,-1485 396.52,-1507 306.61,-1518 184.3,-1518 94.4,-1507 94.4,-1485 184.3,-1474 306.61,-1474 396.52,-1485"/>
<polygon fill="none" stroke="#3ec4e8" points="400.52,-1481.46 400.52,-1510.54 306.86,-1522 184.06,-1522 90.4,-1510.54 90.4,-1481.46 184.06,-1470 306.86,-1470 400.52,-1481.46"/>
<text text-anchor="middle" x="245.46" y="-1492.3" font-family="Roboto" font-size="14.00" fill="#000000">glibc&#45;locales&#45;2.30 (209.50 MiB)</text>
</g>
<!-- N27&#45;&gt;N25 -->
<g id="edge5" class="edge">
<title>N27&#45;&gt;N25</title>
<path fill="none" stroke="black" d="M91.94,-1617.47C69.93,-1613.06 47.76,-1607.64 27.11,-1601 18.6,-1598.26 13.81,-1599.61 9.11,-1592 -3.04,-1572.34 -3.04,-1559.66 9.11,-1540 25.13,-1514.08 51.23,-1499.37 80.36,-1491.58"/>
<polygon fill="black" stroke="black" points="81.43,-1494.92 90.34,-1489.19 79.81,-1488.11 81.43,-1494.92"/>
</g>
<!-- N26 -->
<g id="node6" class="node">
<title>N26</title>
<polygon fill="#38f4aa" stroke="#38f4aa" points="410.61,-1208.54 410.61,-1223.46 313.86,-1234 177.05,-1234 80.31,-1223.46 80.31,-1208.54 177.05,-1198 313.86,-1198 410.61,-1208.54"/>
<polygon fill="none" stroke="#38f4aa" points="414.6,-1204.96 414.6,-1227.04 314.08,-1238 176.83,-1238 76.31,-1227.04 76.31,-1204.96 176.83,-1194 314.08,-1194 414.6,-1204.96"/>
<polygon fill="none" stroke="#38f4aa" points="418.6,-1201.37 418.6,-1230.63 314.3,-1242 176.62,-1242 72.32,-1230.63 72.32,-1201.37 176.62,-1190 314.3,-1190 418.6,-1201.37"/>
<text text-anchor="middle" x="245.46" y="-1212.3" font-family="Roboto" font-size="14.00" fill="#000000">kodi&#45;with&#45;plugins&#45;18.5 (564.74 MiB)</text>
</g>
<!-- N32 -->
<g id="node48" class="node">
<title>N32</title>
<polygon fill="#3dd0e9" stroke="#3dd0e9" points="718.8,-1242 543.8,-1242 543.8,-1206 718.8,-1206 718.8,-1242"/>
<text text-anchor="middle" x="631.3" y="-1220.3" font-family="Roboto" font-size="14.00" fill="#000000">glxinfo&#45;8.4.0 (244.34 MiB)</text>
</g>
<!-- N26&#45;&gt;N32 -->
<g id="edge6" class="edge">
<title>N26&#45;&gt;N32</title>
<path fill="none" stroke="black" d="M418.73,-1219.59C458.09,-1220.41 498.57,-1221.25 533.44,-1221.98"/>
<polygon fill="black" stroke="black" points="533.53,-1225.48 543.6,-1222.19 533.68,-1218.49 533.53,-1225.48"/>
</g>
<!-- N24 -->
<g id="node8" class="node">
<title>N24</title>
<polygon fill="#38f4af" stroke="#38f4af" points="386.77,-438.54 386.77,-453.46 303.99,-464 186.92,-464 104.15,-453.46 104.15,-438.54 186.92,-428 303.99,-428 386.77,-438.54"/>
<polygon fill="none" stroke="#38f4af" points="390.76,-435.02 390.76,-456.98 304.24,-468 186.67,-468 100.15,-456.98 100.15,-435.02 186.67,-424 304.24,-424 390.76,-435.02"/>
<polygon fill="none" stroke="#38f4af" points="394.76,-431.5 394.76,-460.5 304.5,-472 186.42,-472 96.15,-460.5 96.15,-431.5 186.42,-420 304.5,-420 394.76,-431.5"/>
<text text-anchor="middle" x="245.46" y="-442.3" font-family="Roboto" font-size="14.00" fill="#000000">wesnoth&#45;1.14.11 (552.64 MiB)</text>
</g>
<!-- N24&#45;&gt;N35 -->
<g id="edge7" class="edge">
<title>N24&#45;&gt;N35</title>
<path fill="none" stroke="black" d="M394.86,-432.47C438.52,-428.49 485.36,-424.22 525.66,-420.54"/>
<polygon fill="black" stroke="black" points="526.12,-424.01 535.76,-419.62 525.49,-417.04 526.12,-424.01"/>
</g>
<!-- N39 -->
<g id="node9" class="node">
<title>N39</title>
<polygon fill="#4088e3" stroke="#4088e3" points="406.65,-578.54 406.65,-593.46 312.23,-604 178.69,-604 84.26,-593.46 84.26,-578.54 178.69,-568 312.23,-568 406.65,-578.54"/>
<polygon fill="none" stroke="#4088e3" points="410.65,-574.97 410.65,-597.03 312.45,-608 178.46,-608 80.26,-597.03 80.26,-574.97 178.46,-564 312.45,-564 410.65,-574.97"/>
<polygon fill="none" stroke="#4088e3" points="414.66,-571.39 414.66,-600.61 312.67,-612 178.24,-612 76.26,-600.61 76.26,-571.39 178.24,-560 312.67,-560 414.66,-571.39"/>
<text text-anchor="middle" x="245.46" y="-582.3" font-family="Roboto" font-size="14.00" fill="#ffffff">dwarf&#45;fortress&#45;0.47.04 (57.50 MiB)</text>
</g>
<!-- N39&#45;&gt;N29 -->
<g id="edge8" class="edge">
<title>N39&#45;&gt;N29</title>
<path fill="none" stroke="black" d="M414.77,-598.78C432.09,-604.23 448.81,-611.46 463.8,-621 547.39,-674.2 599.46,-786.08 620.12,-838.19"/>
<polygon fill="black" stroke="black" points="616.95,-839.72 623.83,-847.78 623.48,-837.19 616.95,-839.72"/>
</g>
<!-- N39&#45;&gt;N35 -->
<g id="edge9" class="edge">
<title>N39&#45;&gt;N35</title>
<path fill="none" stroke="black" d="M406.41,-570.44C426.22,-565.57 445.82,-559.23 463.8,-551 523.31,-523.75 578.56,-469.23 608.04,-436.85"/>
<polygon fill="black" stroke="black" points="610.89,-438.91 614.96,-429.13 605.68,-434.24 610.89,-438.91"/>
</g>
<!-- N23 -->
<g id="node10" class="node">
<title>N23</title>
<polygon fill="#34f956" stroke="#34f956" points="391.62,-1698.54 391.62,-1713.46 306,-1724 184.91,-1724 99.29,-1713.46 99.29,-1698.54 184.91,-1688 306,-1688 391.62,-1698.54"/>
<polygon fill="none" stroke="#34f956" points="395.61,-1695.01 395.61,-1716.99 306.24,-1728 184.67,-1728 95.3,-1716.99 95.3,-1695.01 184.67,-1684 306.24,-1684 395.61,-1695.01"/>
<polygon fill="none" stroke="#34f956" points="399.61,-1691.47 399.61,-1720.53 306.49,-1732 184.42,-1732 91.3,-1720.53 91.3,-1691.47 184.42,-1680 306.49,-1680 399.61,-1691.47"/>
<text text-anchor="middle" x="245.46" y="-1702.3" font-family="Roboto" font-size="14.00" fill="#000000">openjdk&#45;11.0.6&#45;ga (702.45 MiB)</text>
</g>
<!-- N22 -->
<g id="node11" class="node">
<title>N22</title>
<polygon fill="#3ce5ec" stroke="#3ce5ec" points="438.88,-1768.54 438.88,-1783.46 325.58,-1794 165.34,-1794 52.03,-1783.46 52.03,-1768.54 165.34,-1758 325.58,-1758 438.88,-1768.54"/>
<polygon fill="none" stroke="#3ce5ec" points="442.88,-1764.9 442.88,-1787.1 325.76,-1798 165.15,-1798 48.04,-1787.1 48.04,-1764.9 165.15,-1754 325.76,-1754 442.88,-1764.9"/>
<polygon fill="none" stroke="#3ce5ec" points="446.88,-1761.25 446.88,-1790.75 325.95,-1802 164.97,-1802 44.04,-1790.75 44.04,-1761.25 164.97,-1750 325.95,-1750 446.88,-1761.25"/>
<text text-anchor="middle" x="245.46" y="-1772.3" font-family="Roboto" font-size="14.00" fill="#000000">google&#45;chrome&#45;83.0.4103.97 (311.74 MiB)</text>
</g>
<!-- N21 -->
<g id="node12" class="node">
<title>N21</title>
<polygon fill="#3eb8e7" stroke="#3eb8e7" points="386.34,-1838.54 386.34,-1853.46 303.81,-1864 187.1,-1864 104.57,-1853.46 104.57,-1838.54 187.1,-1828 303.81,-1828 386.34,-1838.54"/>
<polygon fill="none" stroke="#3eb8e7" points="390.35,-1835.02 390.35,-1856.98 304.07,-1868 186.84,-1868 100.57,-1856.98 100.57,-1835.02 186.84,-1824 304.07,-1824 390.35,-1835.02"/>
<polygon fill="none" stroke="#3eb8e7" points="394.35,-1831.5 394.35,-1860.5 304.32,-1872 186.59,-1872 96.56,-1860.5 96.56,-1831.5 186.59,-1820 304.32,-1820 394.35,-1831.5"/>
<text text-anchor="middle" x="245.46" y="-1842.3" font-family="Roboto" font-size="14.00" fill="#000000">mongodb&#45;3.4.24 (174.58 MiB)</text>
</g>
<!-- N20 -->
<g id="node13" class="node">
<title>N20</title>
<polygon fill="#3af0d4" stroke="#3af0d4" points="358.07,-1908.54 358.07,-1923.46 292.1,-1934 198.81,-1934 132.84,-1923.46 132.84,-1908.54 198.81,-1898 292.1,-1898 358.07,-1908.54"/>
<polygon fill="none" stroke="#3af0d4" points="362.07,-1905.13 362.07,-1926.87 292.42,-1938 198.49,-1938 128.84,-1926.87 128.84,-1905.13 198.49,-1894 292.42,-1894 362.07,-1905.13"/>
<polygon fill="none" stroke="#3af0d4" points="366.07,-1901.72 366.07,-1930.28 292.74,-1942 198.17,-1942 124.84,-1930.28 124.84,-1901.72 198.17,-1890 292.74,-1890 366.07,-1901.72"/>
<text text-anchor="middle" x="245.46" y="-1912.3" font-family="Roboto" font-size="14.00" fill="#000000">cura&#45;4.4.0 (439.84 MiB)</text>
</g>
<!-- N19 -->
<g id="node14" class="node">
<title>N19</title>
<polygon fill="#fea800" stroke="#fea800" points="376.16,-1278.54 376.16,-1293.46 299.6,-1304 191.32,-1304 114.75,-1293.46 114.75,-1278.54 191.32,-1268 299.6,-1268 376.16,-1278.54"/>
<polygon fill="none" stroke="#fea800" points="380.16,-1275.06 380.16,-1296.94 299.87,-1308 191.04,-1308 110.75,-1296.94 110.75,-1275.06 191.04,-1264 299.87,-1264 380.16,-1275.06"/>
<polygon fill="none" stroke="#fea800" points="384.16,-1271.57 384.16,-1300.43 300.15,-1312 190.77,-1312 106.76,-1300.43 106.76,-1271.57 190.77,-1260 300.15,-1260 384.16,-1271.57"/>
<text text-anchor="middle" x="245.46" y="-1282.3" font-family="Roboto" font-size="14.00" fill="#000000">playonlinux&#45;4.3.4 (2.09 GiB)</text>
</g>
<!-- N19&#45;&gt;N34 -->
<g id="edge11" class="edge">
<title>N19&#45;&gt;N34</title>
<path fill="none" stroke="black" d="M384.22,-1288.87C418.47,-1289.59 455.22,-1290.35 489.61,-1291.07"/>
<polygon fill="black" stroke="black" points="489.65,-1294.57 499.72,-1291.28 489.79,-1287.57 489.65,-1294.57"/>
</g>
<!-- N19&#45;&gt;N32 -->
<g id="edge10" class="edge">
<title>N19&#45;&gt;N32</title>
<path fill="none" stroke="black" d="M358.43,-1267.99C392.28,-1262.54 429.56,-1256.53 463.8,-1251 486.34,-1247.36 510.59,-1243.43 533.42,-1239.73"/>
<polygon fill="black" stroke="black" points="534.15,-1243.16 543.46,-1238.1 533.03,-1236.25 534.15,-1243.16"/>
</g>
<!-- N18 -->
<g id="node15" class="node">
<title>N18</title>
<polygon fill="#3ddfeb" stroke="#3ddfeb" points="377.06,-158.54 377.06,-173.46 299.97,-184 190.95,-184 113.85,-173.46 113.85,-158.54 190.95,-148 299.97,-148 377.06,-158.54"/>
<polygon fill="none" stroke="#3ddfeb" points="381.06,-155.05 381.06,-176.95 300.24,-188 190.67,-188 109.85,-176.95 109.85,-155.05 190.67,-144 300.24,-144 381.06,-155.05"/>
<polygon fill="none" stroke="#3ddfeb" points="385.06,-151.56 385.06,-180.44 300.51,-192 190.4,-192 105.85,-180.44 105.85,-151.56 190.4,-140 300.51,-140 385.06,-151.56"/>
<text text-anchor="middle" x="245.46" y="-162.3" font-family="Roboto" font-size="14.00" fill="#000000">blender&#45;2.83.0 (294.30 MiB)</text>
</g>
<!-- N36 -->
<g id="node49" class="node">
<title>N36</title>
<polygon fill="#3fade6" stroke="#3fade6" points="706.8,-184 555.8,-184 555.8,-148 706.8,-148 706.8,-184"/>
<text text-anchor="middle" x="631.3" y="-162.3" font-family="Roboto" font-size="14.00" fill="#ffffff">lapack&#45;3 (143.49 MiB)</text>
</g>
<!-- N18&#45;&gt;N36 -->
<g id="edge12" class="edge">
<title>N18&#45;&gt;N36</title>
<path fill="none" stroke="black" d="M385.03,-166C438.75,-166 498.52,-166 545.61,-166"/>
<polygon fill="black" stroke="black" points="545.77,-169.5 555.77,-166 545.77,-162.5 545.77,-169.5"/>
</g>
<!-- N17 -->
<g id="node16" class="node">
<title>N17</title>
<polygon fill="#3dd1e9" stroke="#3dd1e9" points="357.18,-1978.54 357.18,-1993.46 291.73,-2004 199.18,-2004 133.74,-1993.46 133.74,-1978.54 199.18,-1968 291.73,-1968 357.18,-1978.54"/>
<polygon fill="none" stroke="#3dd1e9" points="361.17,-1975.14 361.17,-1996.86 292.05,-2008 198.86,-2008 129.74,-1996.86 129.74,-1975.14 198.86,-1964 292.05,-1964 361.17,-1975.14"/>
<polygon fill="none" stroke="#3dd1e9" points="365.17,-1971.73 365.17,-2000.27 292.37,-2012 198.54,-2012 125.75,-2000.27 125.75,-1971.73 198.54,-1960 292.37,-1960 365.17,-1971.73"/>
<text text-anchor="middle" x="245.46" y="-1982.3" font-family="Roboto" font-size="14.00" fill="#000000">X11&#45;fonts (249.44 MiB)</text>
</g>
<!-- N16 -->
<g id="node17" class="node">
<title>N16</title>
<polygon fill="#3fb4e6" stroke="#3fb4e6" points="383.23,-88.54 383.23,-103.46 302.53,-114 188.39,-114 107.68,-103.46 107.68,-88.54 188.39,-78 302.53,-78 383.23,-88.54"/>
<polygon fill="none" stroke="#3fb4e6" points="387.23,-85.03 387.23,-106.97 302.79,-118 188.13,-118 103.68,-106.97 103.68,-85.03 188.13,-74 302.79,-74 387.23,-85.03"/>
<polygon fill="none" stroke="#3fb4e6" points="391.23,-81.52 391.23,-110.48 303.04,-122 187.87,-122 99.69,-110.48 99.69,-81.52 187.87,-70 303.04,-70 391.23,-81.52"/>
<text text-anchor="middle" x="245.46" y="-92.3" font-family="Roboto" font-size="14.00" fill="#ffffff">inkscape&#45;0.92.5 (162.57 MiB)</text>
</g>
<!-- N16&#45;&gt;N36 -->
<g id="edge13" class="edge">
<title>N16&#45;&gt;N36</title>
<path fill="none" stroke="black" d="M364.79,-114.01C396.96,-119.19 431.77,-125.06 463.8,-131 490.46,-135.94 519.4,-141.84 545.56,-147.37"/>
<polygon fill="black" stroke="black" points="544.93,-150.82 555.44,-149.47 546.39,-143.97 544.93,-150.82"/>
</g>
<!-- N40 -->
<g id="node18" class="node">
<title>N40</title>
<polygon fill="#4083e2" stroke="#4083e2" points="419.89,-1558.54 419.89,-1573.46 317.71,-1584 173.2,-1584 71.02,-1573.46 71.02,-1558.54 173.2,-1548 317.71,-1548 419.89,-1558.54"/>
<polygon fill="none" stroke="#4083e2" points="423.89,-1554.94 423.89,-1577.06 317.92,-1588 173,-1588 67.02,-1577.06 67.02,-1554.94 173,-1544 317.92,-1544 423.89,-1554.94"/>
<polygon fill="none" stroke="#4083e2" points="427.89,-1551.33 427.89,-1580.67 318.12,-1592 172.79,-1592 63.02,-1580.67 63.02,-1551.33 172.79,-1540 318.12,-1540 427.89,-1551.33"/>
<text text-anchor="middle" x="245.46" y="-1562.3" font-family="Roboto" font-size="14.00" fill="#ffffff">openra&#45;release&#45;20190314 (47.51 MiB)</text>
</g>
<!-- N31 -->
<g id="node50" class="node">
<title>N31</title>
<polygon fill="#3de2eb" stroke="#3de2eb" points="728.8,-1514 533.8,-1514 533.8,-1478 728.8,-1478 728.8,-1514"/>
<text text-anchor="middle" x="631.3" y="-1492.3" font-family="Roboto" font-size="14.00" fill="#000000">mono&#45;5.20.1.27 (304.81 MiB)</text>
</g>
<!-- N40&#45;&gt;N31 -->
<g id="edge14" class="edge">
<title>N40&#45;&gt;N31</title>
<path fill="none" stroke="black" d="M376.79,-1546.05C405.49,-1541.36 435.71,-1536.21 463.8,-1531 488.05,-1526.5 514.19,-1521.21 538.42,-1516.13"/>
<polygon fill="black" stroke="black" points="539.25,-1519.53 548.31,-1514.04 537.8,-1512.68 539.25,-1519.53"/>
</g>
<!-- N15 -->
<g id="node19" class="node">
<title>N15</title>
<polygon fill="#3ceee7" stroke="#3ceee7" points="352.32,-2048.54 352.32,-2063.46 289.72,-2074 201.19,-2074 138.59,-2063.46 138.59,-2048.54 201.19,-2038 289.72,-2038 352.32,-2048.54"/>
<polygon fill="none" stroke="#3ceee7" points="356.32,-2045.16 356.32,-2066.84 290.06,-2078 200.86,-2078 134.59,-2066.84 134.59,-2045.16 200.86,-2034 290.06,-2034 356.32,-2045.16"/>
<polygon fill="none" stroke="#3ceee7" points="360.32,-2041.78 360.32,-2070.22 290.39,-2082 200.52,-2082 130.6,-2070.22 130.6,-2041.78 200.52,-2030 290.39,-2030 360.32,-2041.78"/>
<text text-anchor="middle" x="245.46" y="-2052.3" font-family="Roboto" font-size="14.00" fill="#000000">ino&#45;0.3.6 (365.79 MiB)</text>
</g>
<!-- N41 -->
<g id="node20" class="node">
<title>N41</title>
<polygon fill="#4073e1" stroke="#4073e1" points="374.42,-2188.54 374.42,-2203.46 298.88,-2214 192.04,-2214 116.49,-2203.46 116.49,-2188.54 192.04,-2178 298.88,-2178 374.42,-2188.54"/>
<polygon fill="none" stroke="#4073e1" points="378.43,-2185.06 378.43,-2206.94 299.15,-2218 191.76,-2218 112.49,-2206.94 112.49,-2185.06 191.76,-2174 299.15,-2174 378.43,-2185.06"/>
<polygon fill="none" stroke="#4073e1" points="382.44,-2181.58 382.44,-2210.42 299.43,-2222 191.48,-2222 108.48,-2210.42 108.48,-2181.58 191.48,-2170 299.43,-2170 382.44,-2181.58"/>
<text text-anchor="middle" x="245.46" y="-2192.3" font-family="Roboto" font-size="14.00" fill="#ffffff">nomacs&#45;3.14.2 (17.37 MiB)</text>
</g>
<!-- N30 -->
<g id="node51" class="node">
<title>N30</title>
<polygon fill="#3f9be4" stroke="#3f9be4" points="716.3,-2179 546.3,-2179 546.3,-2143 716.3,-2143 716.3,-2179"/>
<text text-anchor="middle" x="631.3" y="-2157.3" font-family="Roboto" font-size="14.00" fill="#ffffff">opencv&#45;4.3.0 (98.60 MiB)</text>
</g>
<!-- N41&#45;&gt;N30 -->
<g id="edge15" class="edge">
<title>N41&#45;&gt;N30</title>
<path fill="none" stroke="black" d="M382.33,-2183.61C433.16,-2178.98 489.74,-2173.82 536.01,-2169.6"/>
<polygon fill="black" stroke="black" points="536.38,-2173.08 546.02,-2168.68 535.74,-2166.11 536.38,-2173.08"/>
</g>
<!-- N14 -->
<g id="node21" class="node">
<title>N14</title>
<polygon fill="#c3fe2a" stroke="#c3fe2a" points="348.36,-1418.54 348.36,-1433.46 288.08,-1444 202.83,-1444 142.55,-1433.46 142.55,-1418.54 202.83,-1408 288.08,-1408 348.36,-1418.54"/>
<polygon fill="none" stroke="#c3fe2a" points="352.37,-1415.18 352.37,-1436.82 288.43,-1448 202.48,-1448 138.54,-1436.82 138.54,-1415.18 202.48,-1404 288.43,-1404 352.37,-1415.18"/>
<polygon fill="none" stroke="#c3fe2a" points="356.38,-1411.82 356.38,-1440.18 288.78,-1452 202.14,-1452 134.54,-1440.18 134.54,-1411.82 202.14,-1400 288.78,-1400 356.38,-1411.82"/>
<text text-anchor="middle" x="245.46" y="-1422.3" font-family="Roboto" font-size="14.00" fill="#000000">steam (1016.27 MiB)</text>
</g>
<!-- N14&#45;&gt;N25 -->
<g id="edge16" class="edge">
<title>N14&#45;&gt;N25</title>
<path fill="none" stroke="black" d="M245.46,-1452.25C245.46,-1454.7 245.46,-1457.15 245.46,-1459.6"/>
<polygon fill="black" stroke="black" points="241.96,-1459.68 245.46,-1469.68 248.96,-1459.68 241.96,-1459.68"/>
</g>
<!-- N14&#45;&gt;N33 -->
<g id="edge18" class="edge">
<title>N14&#45;&gt;N33</title>
<path fill="none" stroke="black" d="M346,-1409.99C383,-1404.04 425.32,-1397.22 463.8,-1391 485.74,-1387.46 509.3,-1383.64 531.59,-1380.03"/>
<polygon fill="black" stroke="black" points="532.42,-1383.44 541.73,-1378.38 531.3,-1376.53 532.42,-1383.44"/>
</g>
<!-- N14&#45;&gt;N31 -->
<g id="edge17" class="edge">
<title>N14&#45;&gt;N31</title>
<path fill="none" stroke="black" d="M349.18,-1441.51C385.46,-1447.27 426.5,-1454.08 463.8,-1461 488.05,-1465.5 514.19,-1470.79 538.42,-1475.87"/>
<polygon fill="black" stroke="black" points="537.8,-1479.32 548.31,-1477.96 539.25,-1472.47 537.8,-1479.32"/>
</g>
<!-- N42 -->
<g id="node22" class="node">
<title>N42</title>
<polygon fill="#4169e1" stroke="#4169e1" points="369.99,-368.54 369.99,-383.46 297.04,-394 193.87,-394 120.92,-383.46 120.92,-368.54 193.87,-358 297.04,-358 369.99,-368.54"/>
<polygon fill="none" stroke="#4169e1" points="373.99,-365.08 373.99,-386.92 297.33,-398 193.59,-398 116.92,-386.92 116.92,-365.08 193.59,-354 297.33,-354 373.99,-365.08"/>
<polygon fill="none" stroke="#4169e1" points="377.99,-361.62 377.99,-390.38 297.62,-402 193.3,-402 112.92,-390.38 112.92,-361.62 193.3,-350 297.62,-350 377.99,-361.62"/>
<text text-anchor="middle" x="245.46" y="-372.3" font-family="Roboto" font-size="14.00" fill="#ffffff">arandr&#45;0.1.10 (204.32 KiB)</text>
</g>
<!-- N42&#45;&gt;N35 -->
<g id="edge19" class="edge">
<title>N42&#45;&gt;N35</title>
<path fill="none" stroke="black" d="M378.02,-388C426.14,-392.38 479.89,-397.29 525.38,-401.43"/>
<polygon fill="black" stroke="black" points="525.28,-404.94 535.55,-402.36 525.91,-397.97 525.28,-404.94"/>
</g>
<!-- N13 -->
<g id="node23" class="node">
<title>N13</title>
<polygon fill="#fe9a00" stroke="#fe9a00" points="427.86,-1068.54 427.86,-1083.46 321.01,-1094 169.9,-1094 63.06,-1083.46 63.06,-1068.54 169.9,-1058 321.01,-1058 427.86,-1068.54"/>
<polygon fill="none" stroke="#fe9a00" points="431.86,-1064.92 431.86,-1087.08 321.21,-1098 169.71,-1098 59.05,-1087.08 59.05,-1064.92 169.71,-1054 321.21,-1054 431.86,-1064.92"/>
<polygon fill="none" stroke="#fe9a00" points="435.87,-1061.3 435.87,-1090.7 321.4,-1102 169.51,-1102 55.05,-1090.7 55.05,-1061.3 169.51,-1050 321.4,-1050 435.87,-1061.3"/>
<text text-anchor="middle" x="245.46" y="-1072.3" font-family="Roboto" font-size="14.00" fill="#000000">xmonad&#45;with&#45;packages&#45;8.8.3 (2.17 GiB)</text>
</g>
<!-- N13&#45;&gt;N29 -->
<g id="edge20" class="edge">
<title>N13&#45;&gt;N29</title>
<path fill="none" stroke="black" d="M417.55,-1059.46C433.66,-1054.67 449.35,-1048.62 463.8,-1041 531.12,-1005.53 586.66,-932.42 613.29,-892.85"/>
<polygon fill="black" stroke="black" points="616.54,-894.29 619.13,-884.02 610.7,-890.43 616.54,-894.29"/>
</g>
<!-- N12 -->
<g id="node24" class="node">
<title>N12</title>
<polygon fill="#3ebae7" stroke="#3ebae7" points="422.11,-2258.54 422.11,-2273.46 318.63,-2284 172.29,-2284 68.81,-2273.46 68.81,-2258.54 172.29,-2248 318.63,-2248 422.11,-2258.54"/>
<polygon fill="none" stroke="#3ebae7" points="426.11,-2254.93 426.11,-2277.07 318.83,-2288 172.08,-2288 64.81,-2277.07 64.81,-2254.93 172.08,-2244 318.83,-2244 426.11,-2254.93"/>
<polygon fill="none" stroke="#3ebae7" points="430.11,-2251.32 430.11,-2280.68 319.03,-2292 171.88,-2292 60.8,-2280.68 60.8,-2251.32 171.88,-2240 319.03,-2240 430.11,-2251.32"/>
<text text-anchor="middle" x="245.46" y="-2262.3" font-family="Roboto" font-size="14.00" fill="#000000">firefox&#45;unwrapped&#45;77.0.1 (181.32 MiB)</text>
</g>
<!-- N11 -->
<g id="node25" class="node">
<title>N11</title>
<polygon fill="#3fb0e6" stroke="#3fb0e6" points="374.42,-2398.54 374.42,-2413.46 298.88,-2424 192.04,-2424 116.49,-2413.46 116.49,-2398.54 192.04,-2388 298.88,-2388 374.42,-2398.54"/>
<polygon fill="none" stroke="#3fb0e6" points="378.43,-2395.06 378.43,-2416.94 299.15,-2428 191.76,-2428 112.49,-2416.94 112.49,-2395.06 191.76,-2384 299.15,-2384 378.43,-2395.06"/>
<polygon fill="none" stroke="#3fb0e6" points="382.44,-2391.58 382.44,-2420.42 299.43,-2432 191.48,-2432 108.48,-2420.42 108.48,-2391.58 191.48,-2380 299.43,-2380 382.44,-2391.58"/>
<text text-anchor="middle" x="245.46" y="-2402.3" font-family="Roboto" font-size="14.00" fill="#ffffff">fritzing&#45;0.9.3b (151.31 MiB)</text>
</g>
<!-- N43 -->
<g id="node26" class="node">
<title>N43</title>
<polygon fill="#4074e1" stroke="#4074e1" points="352.32,-998.54 352.32,-1013.46 289.72,-1024 201.19,-1024 138.59,-1013.46 138.59,-998.54 201.19,-988 289.72,-988 352.32,-998.54"/>
<polygon fill="none" stroke="#4074e1" points="356.32,-995.16 356.32,-1016.84 290.06,-1028 200.86,-1028 134.59,-1016.84 134.59,-995.16 200.86,-984 290.06,-984 356.32,-995.16"/>
<polygon fill="none" stroke="#4074e1" points="360.32,-991.78 360.32,-1020.22 290.39,-1032 200.52,-1032 130.6,-1020.22 130.6,-991.78 200.52,-980 290.39,-980 360.32,-991.78"/>
<text text-anchor="middle" x="245.46" y="-1002.3" font-family="Roboto" font-size="14.00" fill="#ffffff">ruby&#45;2.7.1 (18.95 MiB)</text>
</g>
<!-- N43&#45;&gt;N29 -->
<g id="edge21" class="edge">
<title>N43&#45;&gt;N29</title>
<path fill="none" stroke="black" d="M360.39,-996.44C394.4,-991.26 431.27,-983.29 463.8,-971 515.45,-951.49 568.22,-914.79 600.13,-890.36"/>
<polygon fill="black" stroke="black" points="602.41,-893.02 608.17,-884.13 598.12,-887.49 602.41,-893.02"/>
</g>
<!-- N44 -->
<g id="node27" class="node">
<title>N44</title>
<polygon fill="#406be1" stroke="#406be1" points="362.92,-928.54 362.92,-943.46 294.11,-954 196.8,-954 127.99,-943.46 127.99,-928.54 196.8,-918 294.11,-918 362.92,-928.54"/>
<polygon fill="none" stroke="#406be1" points="366.92,-925.11 366.92,-946.89 294.42,-958 196.5,-958 123.99,-946.89 123.99,-925.11 196.5,-914 294.42,-914 366.92,-925.11"/>
<polygon fill="none" stroke="#406be1" points="370.92,-921.68 370.92,-950.32 294.72,-962 196.19,-962 119.99,-950.32 119.99,-921.68 196.19,-910 294.72,-910 370.92,-921.68"/>
<text text-anchor="middle" x="245.46" y="-932.3" font-family="Roboto" font-size="14.00" fill="#ffffff">nethack&#45;3.6.6 (4.58 MiB)</text>
</g>
<!-- N44&#45;&gt;N29 -->
<g id="edge22" class="edge">
<title>N44&#45;&gt;N29</title>
<path fill="none" stroke="black" d="M356.09,-919.39C390.61,-913.88 428.85,-907.48 463.8,-901 489.82,-896.17 518.03,-890.44 543.7,-885.02"/>
<polygon fill="black" stroke="black" points="544.72,-888.38 553.78,-882.88 543.27,-881.53 544.72,-888.38"/>
</g>
<!-- N10 -->
<g id="node28" class="node">
<title>N10</title>
<polygon fill="#3fa9e5" stroke="#3fa9e5" points="371.31,-228.54 371.31,-243.46 297.59,-254 193.33,-254 119.6,-243.46 119.6,-228.54 193.33,-218 297.59,-218 371.31,-228.54"/>
<polygon fill="none" stroke="#3fa9e5" points="375.31,-225.08 375.31,-246.92 297.87,-258 193.04,-258 115.6,-246.92 115.6,-225.08 193.04,-214 297.87,-214 375.31,-225.08"/>
<polygon fill="none" stroke="#3fa9e5" points="379.31,-221.61 379.31,-250.39 298.16,-262 192.76,-262 111.61,-250.39 111.61,-221.61 192.76,-210 298.16,-210 379.31,-221.61"/>
<text text-anchor="middle" x="245.46" y="-232.3" font-family="Roboto" font-size="14.00" fill="#ffffff">gimp&#45;2.10.20 (135.01 MiB)</text>
</g>
<!-- N10&#45;&gt;N35 -->
<g id="edge23" class="edge">
<title>N10&#45;&gt;N35</title>
<path fill="none" stroke="black" d="M379.4,-245.8C408.1,-251.07 437.65,-259.03 463.8,-271 523.31,-298.25 578.56,-352.77 608.04,-385.15"/>
<polygon fill="black" stroke="black" points="605.68,-387.76 614.96,-392.87 610.89,-383.09 605.68,-387.76"/>
</g>
<!-- N10&#45;&gt;N36 -->
<g id="edge24" class="edge">
<title>N10&#45;&gt;N36</title>
<path fill="none" stroke="black" d="M360,-218.76C393.49,-213.39 430.17,-207.24 463.8,-201 490.46,-196.06 519.4,-190.16 545.56,-184.63"/>
<polygon fill="black" stroke="black" points="546.39,-188.03 555.44,-182.53 544.93,-181.18 546.39,-188.03"/>
</g>
<!-- N9 -->
<g id="node29" class="node">
<title>N9</title>
<polygon fill="#3fb6e7" stroke="#3fb6e7" points="388.98,-858.54 388.98,-873.46 304.91,-884 186.01,-884 101.93,-873.46 101.93,-858.54 186.01,-848 304.91,-848 388.98,-858.54"/>
<polygon fill="none" stroke="#3fb6e7" points="392.98,-855.01 392.98,-876.99 305.16,-888 185.76,-888 97.93,-876.99 97.93,-855.01 185.76,-844 305.16,-844 392.98,-855.01"/>
<polygon fill="none" stroke="#3fb6e7" points="396.98,-851.48 396.98,-880.52 305.41,-892 185.51,-892 93.93,-880.52 93.93,-851.48 185.51,-840 305.41,-840 396.98,-851.48"/>
<text text-anchor="middle" x="245.46" y="-862.3" font-family="Roboto" font-size="14.00" fill="#000000">upwork&#45;5.3.3.862 (168.58 MiB)</text>
</g>
<!-- N9&#45;&gt;N29 -->
<g id="edge25" class="edge">
<title>N9&#45;&gt;N29</title>
<path fill="none" stroke="black" d="M397.06,-866C446.74,-866 500.3,-866 543.55,-866"/>
<polygon fill="black" stroke="black" points="543.74,-869.5 553.74,-866 543.74,-862.5 543.74,-869.5"/>
</g>
<!-- N45 -->
<g id="node30" class="node">
<title>N45</title>
<polygon fill="#4085e2" stroke="#4085e2" points="365.56,-788.54 365.56,-803.46 295.21,-814 195.71,-814 125.35,-803.46 125.35,-788.54 195.71,-778 295.21,-778 365.56,-788.54"/>
<polygon fill="none" stroke="#4085e2" points="369.56,-785.1 369.56,-806.9 295.5,-818 195.41,-818 121.36,-806.9 121.36,-785.1 195.41,-774 295.5,-774 369.56,-785.1"/>
<polygon fill="none" stroke="#4085e2" points="373.55,-781.65 373.55,-810.35 295.8,-822 195.11,-822 117.36,-810.35 117.36,-781.65 195.11,-770 295.8,-770 373.55,-781.65"/>
<text text-anchor="middle" x="245.46" y="-792.3" font-family="Roboto" font-size="14.00" fill="#ffffff">neovim&#45;0.4.3 (51.20 MiB)</text>
</g>
<!-- N45&#45;&gt;N29 -->
<g id="edge26" class="edge">
<title>N45&#45;&gt;N29</title>
<path fill="none" stroke="black" d="M357.48,-812.84C391.64,-818.3 429.32,-824.6 463.8,-831 489.82,-835.83 518.03,-841.56 543.7,-846.98"/>
<polygon fill="black" stroke="black" points="543.27,-850.47 553.78,-849.12 544.72,-843.62 543.27,-850.47"/>
</g>
<!-- N46 -->
<g id="node31" class="node">
<title>N46</title>
<polygon fill="#4070e1" stroke="#4070e1" points="347.47,-298.54 347.47,-313.46 287.71,-324 203.2,-324 143.44,-313.46 143.44,-298.54 203.2,-288 287.71,-288 347.47,-298.54"/>
<polygon fill="none" stroke="#4070e1" points="351.47,-295.19 351.47,-316.81 288.06,-328 202.85,-328 139.44,-316.81 139.44,-295.19 202.85,-284 288.06,-284 351.47,-295.19"/>
<polygon fill="none" stroke="#4070e1" points="355.47,-291.83 355.47,-320.17 288.41,-332 202.5,-332 135.44,-320.17 135.44,-291.83 202.5,-280 288.41,-280 355.47,-291.83"/>
<text text-anchor="middle" x="245.46" y="-302.3" font-family="Roboto" font-size="14.00" fill="#ffffff">piper&#45;0.5 (13.12 MiB)</text>
</g>
<!-- N46&#45;&gt;N35 -->
<g id="edge27" class="edge">
<title>N46&#45;&gt;N35</title>
<path fill="none" stroke="black" d="M355.64,-318.39C390.58,-323.73 429.17,-331.09 463.8,-341 506.06,-353.1 551.95,-372.93 584.84,-388.4"/>
<polygon fill="black" stroke="black" points="583.64,-391.71 594.18,-392.85 586.65,-385.39 583.64,-391.71"/>
</g>
<!-- N47 -->
<g id="node32" class="node">
<title>N47</title>
<polygon fill="#406be1" stroke="#406be1" points="360.71,-2328.54 360.71,-2343.46 293.2,-2354 197.72,-2354 130.2,-2343.46 130.2,-2328.54 197.72,-2318 293.2,-2318 360.71,-2328.54"/>
<polygon fill="none" stroke="#406be1" points="364.71,-2325.12 364.71,-2346.88 293.51,-2358 197.41,-2358 126.21,-2346.88 126.21,-2325.12 197.41,-2314 293.51,-2314 364.71,-2325.12"/>
<polygon fill="none" stroke="#406be1" points="368.7,-2321.7 368.7,-2350.3 293.82,-2362 197.1,-2362 122.21,-2350.3 122.21,-2321.7 197.1,-2310 293.82,-2310 368.7,-2321.7"/>
<text text-anchor="middle" x="245.46" y="-2332.3" font-family="Roboto" font-size="14.00" fill="#ffffff">firefox&#45;77.0.1 (3.60 MiB)</text>
</g>
<!-- N47&#45;&gt;N12 -->
<g id="edge28" class="edge">
<title>N47&#45;&gt;N12</title>
<path fill="none" stroke="black" d="M245.46,-2309.68C245.46,-2307.23 245.46,-2304.78 245.46,-2302.33"/>
<polygon fill="black" stroke="black" points="248.96,-2302.25 245.46,-2292.25 241.96,-2302.25 248.96,-2302.25"/>
</g>
<!-- N8 -->
<g id="node33" class="node">
<title>N8</title>
<polygon fill="#3dd7ea" stroke="#3dd7ea" points="425.64,-2468.54 425.64,-2483.46 320.09,-2494 170.82,-2494 65.27,-2483.46 65.27,-2468.54 170.82,-2458 320.09,-2458 425.64,-2468.54"/>
<polygon fill="none" stroke="#3dd7ea" points="429.64,-2464.92 429.64,-2487.08 320.29,-2498 170.62,-2498 61.27,-2487.08 61.27,-2464.92 170.62,-2454 320.29,-2454 429.64,-2464.92"/>
<polygon fill="none" stroke="#3dd7ea" points="433.65,-2461.3 433.65,-2490.7 320.49,-2502 170.42,-2502 57.27,-2490.7 57.27,-2461.3 170.42,-2450 320.49,-2450 433.65,-2461.3"/>
<text text-anchor="middle" x="245.46" y="-2472.3" font-family="Roboto" font-size="14.00" fill="#000000">qemu&#45;host&#45;cpu&#45;only&#45;5.0.0 (266.47 MiB)</text>
</g>
<!-- N48 -->
<g id="node34" class="node">
<title>N48</title>
<polygon fill="#4074e1" stroke="#4074e1" points="385.45,-718.54 385.45,-733.46 303.44,-744 187.47,-744 105.47,-733.46 105.47,-718.54 187.47,-708 303.44,-708 385.45,-718.54"/>
<polygon fill="none" stroke="#4074e1" points="389.45,-715.03 389.45,-736.97 303.7,-748 187.21,-748 101.47,-736.97 101.47,-715.03 187.21,-704 303.7,-704 389.45,-715.03"/>
<polygon fill="none" stroke="#4074e1" points="393.45,-711.51 393.45,-740.49 303.95,-752 186.96,-752 97.47,-740.49 97.47,-711.51 186.96,-700 303.95,-700 393.45,-711.51"/>
<text text-anchor="middle" x="245.46" y="-722.3" font-family="Roboto" font-size="14.00" fill="#ffffff">solargraph&#45;0.38.6 (18.37 MiB)</text>
</g>
<!-- N48&#45;&gt;N29 -->
<g id="edge29" class="edge">
<title>N48&#45;&gt;N29</title>
<path fill="none" stroke="black" d="M390.94,-740.89C415.7,-745.8 440.83,-752.32 463.8,-761 515.45,-780.51 568.22,-817.21 600.13,-841.64"/>
<polygon fill="black" stroke="black" points="598.12,-844.51 608.17,-847.87 602.41,-838.98 598.12,-844.51"/>
</g>
<!-- N49 -->
<g id="node35" class="node">
<title>N49</title>
<polygon fill="#3f98e4" stroke="#3f98e4" points="392.52,-648.54 392.52,-663.46 306.37,-674 184.54,-674 98.4,-663.46 98.4,-648.54 184.54,-638 306.37,-638 392.52,-648.54"/>
<polygon fill="none" stroke="#3f98e4" points="396.52,-645 396.52,-667 306.61,-678 184.3,-678 94.4,-667 94.4,-645 184.3,-634 306.61,-634 396.52,-645"/>
<polygon fill="none" stroke="#3f98e4" points="400.52,-641.46 400.52,-670.54 306.86,-682 184.06,-682 90.4,-670.54 90.4,-641.46 184.06,-630 306.86,-630 400.52,-641.46"/>
<text text-anchor="middle" x="245.46" y="-652.3" font-family="Roboto" font-size="14.00" fill="#ffffff">stepmania&#45;5.1.0&#45;b2 (93.34 MiB)</text>
</g>
<!-- N49&#45;&gt;N29 -->
<g id="edge30" class="edge">
<title>N49&#45;&gt;N29</title>
<path fill="none" stroke="black" d="M400.76,-668.02C422.69,-673.35 444.36,-680.76 463.8,-691 531.12,-726.47 586.66,-799.58 613.29,-839.15"/>
<polygon fill="black" stroke="black" points="610.7,-841.57 619.13,-847.98 616.54,-837.71 610.7,-841.57"/>
</g>
<!-- N7 -->
<g id="node36" class="node">
<title>N7</title>
<polygon fill="#3fb4e6" stroke="#3fb4e6" points="374.85,-2538.54 374.85,-2553.46 299.05,-2564 191.86,-2564 116.07,-2553.46 116.07,-2538.54 191.86,-2528 299.05,-2528 374.85,-2538.54"/>
<polygon fill="none" stroke="#3fb4e6" points="378.84,-2535.06 378.84,-2556.94 299.33,-2568 191.59,-2568 112.07,-2556.94 112.07,-2535.06 191.59,-2524 299.33,-2524 378.84,-2535.06"/>
<polygon fill="none" stroke="#3fb4e6" points="382.84,-2531.58 382.84,-2560.42 299.6,-2572 191.31,-2572 108.07,-2560.42 108.07,-2531.58 191.31,-2520 299.6,-2520 382.84,-2531.58"/>
<text text-anchor="middle" x="245.46" y="-2542.3" font-family="Roboto" font-size="14.00" fill="#ffffff">gzdoom&#45;4.3.3 (163.52 MiB)</text>
</g>
<!-- N6 -->
<g id="node37" class="node">
<title>N6</title>
<polygon fill="#3ce4ec" stroke="#3ce4ec" points="365.14,-2608.54 365.14,-2623.46 295.03,-2634 195.88,-2634 125.78,-2623.46 125.78,-2608.54 195.88,-2598 295.03,-2598 365.14,-2608.54"/>
<polygon fill="none" stroke="#3ce4ec" points="369.14,-2605.1 369.14,-2626.9 295.33,-2638 195.58,-2638 121.77,-2626.9 121.77,-2605.1 195.58,-2594 295.33,-2594 369.14,-2605.1"/>
<polygon fill="none" stroke="#3ce4ec" points="373.14,-2601.66 373.14,-2630.34 295.63,-2642 195.28,-2642 117.77,-2630.34 117.77,-2601.66 195.28,-2590 295.63,-2590 373.14,-2601.66"/>
<text text-anchor="middle" x="245.46" y="-2612.3" font-family="Roboto" font-size="14.00" fill="#000000">elixir&#45;1.10.3 (309.97 MiB)</text>
</g>
<!-- N50 -->
<g id="node38" class="node">
<title>N50</title>
<polygon fill="#4094e4" stroke="#4094e4" points="360.71,-2118.54 360.71,-2133.46 293.2,-2144 197.72,-2144 130.2,-2133.46 130.2,-2118.54 197.72,-2108 293.2,-2108 360.71,-2118.54"/>
<polygon fill="none" stroke="#4094e4" points="364.71,-2115.12 364.71,-2136.88 293.51,-2148 197.41,-2148 126.21,-2136.88 126.21,-2115.12 197.41,-2104 293.51,-2104 364.71,-2115.12"/>
<polygon fill="none" stroke="#4094e4" points="368.7,-2111.7 368.7,-2140.3 293.82,-2152 197.1,-2152 122.21,-2140.3 122.21,-2111.7 197.1,-2100 293.82,-2100 368.7,-2111.7"/>
<text text-anchor="middle" x="245.46" y="-2122.3" font-family="Roboto" font-size="14.00" fill="#ffffff">hunter&#45;1.3.5 (83.67 MiB)</text>
</g>
<!-- N50&#45;&gt;N30 -->
<g id="edge31" class="edge">
<title>N50&#45;&gt;N30</title>
<path fill="none" stroke="black" d="M368.96,-2137.17C423.05,-2142.1 485.64,-2147.81 536,-2152.4"/>
<polygon fill="black" stroke="black" points="535.95,-2155.91 546.23,-2153.33 536.59,-2148.94 535.95,-2155.91"/>
</g>
<!-- N5 -->
<g id="node39" class="node">
<title>N5</title>
<polygon fill="#38f4b0" stroke="#38f4b0" points="377.48,-2678.54 377.48,-2693.46 300.14,-2704 190.77,-2704 113.43,-2693.46 113.43,-2678.54 190.77,-2668 300.14,-2668 377.48,-2678.54"/>
<polygon fill="none" stroke="#38f4b0" points="381.48,-2675.05 381.48,-2696.95 300.41,-2708 190.5,-2708 109.44,-2696.95 109.44,-2675.05 190.5,-2664 300.41,-2664 381.48,-2675.05"/>
<polygon fill="none" stroke="#38f4b0" points="385.47,-2671.56 385.47,-2700.44 300.69,-2712 190.23,-2712 105.44,-2700.44 105.44,-2671.56 190.23,-2660 300.69,-2660 385.47,-2671.56"/>
<text text-anchor="middle" x="245.46" y="-2682.3" font-family="Roboto" font-size="14.00" fill="#000000">arduino&#45;1.8.12 (549.80 MiB)</text>
</g>
<!-- N4 -->
<g id="node40" class="node">
<title>N4</title>
<polygon fill="#3dd9ea" stroke="#3dd9ea" points="455.65,-2748.54 455.65,-2763.46 332.52,-2774 158.39,-2774 35.26,-2763.46 35.26,-2748.54 158.39,-2738 332.52,-2738 455.65,-2748.54"/>
<polygon fill="none" stroke="#3dd9ea" points="459.65,-2744.87 459.65,-2767.13 332.69,-2778 158.22,-2778 31.27,-2767.13 31.27,-2744.87 158.22,-2734 332.69,-2734 459.65,-2744.87"/>
<polygon fill="none" stroke="#3dd9ea" points="463.65,-2741.2 463.65,-2770.8 332.86,-2782 158.05,-2782 27.27,-2770.8 27.27,-2741.2 158.05,-2730 332.86,-2730 463.65,-2741.2"/>
<text text-anchor="middle" x="245.46" y="-2752.3" font-family="Roboto" font-size="14.00" fill="#000000">spotify&#45;1.1.26.501.gbe11e53b&#45;15 (272.57 MiB)</text>
</g>
<!-- N3 -->
<g id="node41" class="node">
<title>N3</title>
<polygon fill="#affe2e" stroke="#affe2e" points="388.09,-2818.54 388.09,-2833.46 304.54,-2844 186.38,-2844 102.83,-2833.46 102.83,-2818.54 186.38,-2808 304.54,-2808 388.09,-2818.54"/>
<polygon fill="none" stroke="#affe2e" points="392.08,-2815.02 392.08,-2836.98 304.79,-2848 186.13,-2848 98.83,-2836.98 98.83,-2815.02 186.13,-2804 304.79,-2804 392.08,-2815.02"/>
<polygon fill="none" stroke="#affe2e" points="396.08,-2811.49 396.08,-2840.51 305.04,-2852 185.88,-2852 94.84,-2840.51 94.84,-2811.49 185.88,-2800 305.04,-2800 396.08,-2811.49"/>
<text text-anchor="middle" x="245.46" y="-2822.3" font-family="Roboto" font-size="14.00" fill="#000000">xonotic&#45;sdl&#45;0.8.2 (895.35 MiB)</text>
</g>
<!-- N2 -->
<g id="node42" class="node">
<title>N2</title>
<polygon fill="#3face6" stroke="#3face6" points="367.35,-2888.54 367.35,-2903.46 295.95,-2914 194.97,-2914 123.56,-2903.46 123.56,-2888.54 194.97,-2878 295.95,-2878 367.35,-2888.54"/>
<polygon fill="none" stroke="#3face6" points="371.36,-2885.09 371.36,-2906.91 296.24,-2918 194.67,-2918 119.55,-2906.91 119.55,-2885.09 194.67,-2874 296.24,-2874 371.36,-2885.09"/>
<polygon fill="none" stroke="#3face6" points="375.37,-2881.64 375.37,-2910.36 296.54,-2922 194.38,-2922 115.55,-2910.36 115.55,-2881.64 194.38,-2870 296.54,-2870 375.37,-2881.64"/>
<text text-anchor="middle" x="245.46" y="-2892.3" font-family="Roboto" font-size="14.00" fill="#ffffff">astroid&#45;0.15 (142.88 MiB)</text>
</g>
<!-- N1 -->
<g id="node43" class="node">
<title>N1</title>
<polygon fill="#3ec9e9" stroke="#3ec9e9" points="443.73,-2958.54 443.73,-2973.46 327.58,-2984 163.33,-2984 47.18,-2973.46 47.18,-2958.54 163.33,-2948 327.58,-2948 443.73,-2958.54"/>
<polygon fill="none" stroke="#3ec9e9" points="447.73,-2954.89 447.73,-2977.11 327.77,-2988 163.15,-2988 43.18,-2977.11 43.18,-2954.89 163.15,-2944 327.77,-2944 447.73,-2954.89"/>
<polygon fill="none" stroke="#3ec9e9" points="451.73,-2951.24 451.73,-2980.76 327.95,-2992 162.97,-2992 39.19,-2980.76 39.19,-2951.24 162.97,-2940 327.95,-2940 451.73,-2951.24"/>
<text text-anchor="middle" x="245.46" y="-2962.3" font-family="Roboto" font-size="14.00" fill="#000000">papirus&#45;icon&#45;theme&#45;20200602 (223.66 MiB)</text>
</g>
</g>
</svg>
