<?xml version="1.0" encoding="UTF-8" standalone="no"?>
<!DOCTYPE svg PUBLIC "-//W3C//DTD SVG 1.1//EN"
 "http://www.w3.org/Graphics/SVG/1.1/DTD/svg11.dtd">
<!-- Generated by graphviz version 2.43.0 (0)
 -->
<!-- Title: nixstore Pages: 1 -->
<svg width="735pt" height="3140pt"
 viewBox="0.00 0.00 735.46 3140.00" xmlns="http://www.w3.org/2000/svg" xmlns:xlink="http://www.w3.org/1999/xlink">
<g id="graph0" class="graph" transform="scale(1 1) rotate(0) translate(4 3136)">
<title>nixstore</title>
<polygon fill="white" stroke="transparent" points="-4,4 -4,-3136 731.46,-3136 731.46,4 -4,4"/>
<!-- N52 -->
<g id="node1" class="node">
<title>N52</title>
<polygon fill="#fe0000" stroke="#fe0000" points="363.08,-18.54 363.08,-33.46 297.89,-44 205.69,-44 140.49,-33.46 140.49,-18.54 205.69,-8 297.89,-8 363.08,-18.54"/>
<polygon fill="none" stroke="#fe0000" points="367.09,-15.14 367.09,-36.86 298.21,-48 205.37,-48 136.49,-36.86 136.49,-15.14 205.37,-4 298.21,-4 367.09,-15.14"/>
<polygon fill="none" stroke="#fe0000" points="371.09,-11.74 371.09,-40.26 298.53,-52 205.04,-52 132.48,-40.26 132.48,-11.74 205.04,0 298.53,0 371.09,-11.74"/>
<text text-anchor="middle" x="251.79" y="-22.3" font-family="Times-Roman" font-size="14.00" fill="#000000">{filtered out} (2.32 GiB)</text>
</g>
<!-- N40 -->
<g id="node2" class="node">
<title>N40</title>
<polygon fill="#3dd2ea" stroke="#3dd2ea" points="400.17,-928.54 400.17,-943.46 313.25,-954 190.33,-954 103.41,-943.46 103.41,-928.54 190.33,-918 313.25,-918 400.17,-928.54"/>
<polygon fill="none" stroke="#3dd2ea" points="404.16,-925 404.16,-947 313.49,-958 190.09,-958 99.41,-947 99.41,-925 190.09,-914 313.49,-914 404.16,-925"/>
<polygon fill="none" stroke="#3dd2ea" points="408.16,-921.46 408.16,-950.54 313.73,-962 189.85,-962 95.41,-950.54 95.41,-921.46 189.85,-910 313.73,-910 408.16,-921.46"/>
<text text-anchor="middle" x="251.79" y="-932.3" font-family="Times-Roman" font-size="14.00" fill="#000000">virt&#45;manager&#45;2.2.1 (224.77 MiB)</text>
</g>
<!-- N35 -->
<g id="node46" class="node">
<title>N35</title>
<polygon fill="#38f4b0" stroke="#38f4b0" points="715.46,-1059 524.46,-1059 524.46,-1023 715.46,-1023 715.46,-1059"/>
<text text-anchor="middle" x="619.96" y="-1037.3" font-family="Times-Roman" font-size="14.00" fill="#000000">libGL&#45;1.3.1&#45;dev (493.23 MiB)</text>
</g>
<!-- N40&#45;&gt;N35 -->
<g id="edge1" class="edge">
<title>N40&#45;&gt;N35</title>
<path fill="none" stroke="black" d="M396.86,-951.99C423.66,-956.8 451.16,-963.01 476.46,-971 513.07,-982.56 552.01,-1002.26 579.92,-1017.82"/>
<polygon fill="black" stroke="black" points="578.52,-1021.04 588.95,-1022.92 581.96,-1014.95 578.52,-1021.04"/>
</g>
<!-- N32 -->
<g id="node3" class="node">
<title>N32</title>
<polygon fill="#36f787" stroke="#36f787" points="393.1,-1208.54 393.1,-1223.46 310.32,-1234 193.26,-1234 110.48,-1223.46 110.48,-1208.54 193.26,-1198 310.32,-1198 393.1,-1208.54"/>
<polygon fill="none" stroke="#36f787" points="397.1,-1205.02 397.1,-1226.98 310.57,-1238 193,-1238 106.48,-1226.98 106.48,-1205.02 193,-1194 310.57,-1194 397.1,-1205.02"/>
<polygon fill="none" stroke="#36f787" points="401.09,-1201.5 401.09,-1230.5 310.83,-1242 192.75,-1242 102.48,-1230.5 102.48,-1201.5 192.75,-1190 310.83,-1190 401.09,-1201.5"/>
<text text-anchor="middle" x="251.79" y="-1212.3" font-family="Times-Roman" font-size="14.00" fill="#000000">wesnoth&#45;1.14.11 (571.35 MiB)</text>
</g>
<!-- N32&#45;&gt;N35 -->
<g id="edge2" class="edge">
<title>N32&#45;&gt;N35</title>
<path fill="none" stroke="black" d="M401.23,-1206.04C427.19,-1200.62 453.29,-1192.65 476.46,-1181 529.94,-1154.11 576.07,-1099.85 600.47,-1067.35"/>
<polygon fill="black" stroke="black" points="603.36,-1069.31 606.47,-1059.19 597.73,-1065.16 603.36,-1069.31"/>
</g>
<!-- N41 -->
<g id="node4" class="node">
<title>N41</title>
<polygon fill="#407fe2" stroke="#407fe2" points="371.9,-578.54 371.9,-593.46 301.54,-604 202.04,-604 131.68,-593.46 131.68,-578.54 202.04,-568 301.54,-568 371.9,-578.54"/>
<polygon fill="none" stroke="#407fe2" points="375.89,-575.1 375.89,-596.9 301.84,-608 201.74,-608 127.69,-596.9 127.69,-575.1 201.74,-564 301.84,-564 375.89,-575.1"/>
<polygon fill="none" stroke="#407fe2" points="379.88,-571.65 379.88,-600.35 302.13,-612 201.44,-612 123.69,-600.35 123.69,-571.65 201.44,-560 302.13,-560 379.88,-571.65"/>
<text text-anchor="middle" x="251.79" y="-582.3" font-family="Times-Roman" font-size="14.00" fill="#ffffff">polybar&#45;3.4.3 (35.38 MiB)</text>
</g>
<!-- N36 -->
<g id="node47" class="node">
<title>N36</title>
<polygon fill="#3fb0e6" stroke="#3fb0e6" points="697.46,-534 542.46,-534 542.46,-498 697.46,-498 697.46,-534"/>
<text text-anchor="middle" x="619.96" y="-512.3" font-family="Times-Roman" font-size="14.00" fill="#ffffff">gcc&#45;9.3.0 (136.80 MiB)</text>
</g>
<!-- N41&#45;&gt;N36 -->
<g id="edge3" class="edge">
<title>N41&#45;&gt;N36</title>
<path fill="none" stroke="black" d="M368.35,-569.85C403.21,-564.46 441.49,-558.02 476.46,-551 497.49,-546.78 520.09,-541.55 540.96,-536.44"/>
<polygon fill="black" stroke="black" points="541.87,-539.82 550.74,-534.02 540.19,-533.02 541.87,-539.82"/>
</g>
<!-- N42 -->
<g id="node5" class="node">
<title>N42</title>
<polygon fill="#4086e2" stroke="#4086e2" points="426.22,-1558.54 426.22,-1573.46 324.04,-1584 179.54,-1584 77.35,-1573.46 77.35,-1558.54 179.54,-1548 324.04,-1548 426.22,-1558.54"/>
<polygon fill="none" stroke="#4086e2" points="430.22,-1554.94 430.22,-1577.06 324.25,-1588 179.33,-1588 73.36,-1577.06 73.36,-1554.94 179.33,-1544 324.25,-1544 430.22,-1554.94"/>
<polygon fill="none" stroke="#4086e2" points="434.22,-1551.33 434.22,-1580.67 324.45,-1592 179.12,-1592 69.36,-1580.67 69.36,-1551.33 179.12,-1540 324.45,-1540 434.22,-1551.33"/>
<text text-anchor="middle" x="251.79" y="-1562.3" font-family="Times-Roman" font-size="14.00" fill="#ffffff">openra&#45;release&#45;20190314 (47.51 MiB)</text>
</g>
<!-- N38 -->
<g id="node48" class="node">
<title>N38</title>
<polygon fill="#3beee1" stroke="#3beee1" points="717.46,-1549 522.46,-1549 522.46,-1513 717.46,-1513 717.46,-1549"/>
<text text-anchor="middle" x="619.96" y="-1527.3" font-family="Times-Roman" font-size="14.00" fill="#000000">mono&#45;5.20.1.27 (349.63 MiB)</text>
</g>
<!-- N42&#45;&gt;N38 -->
<g id="edge4" class="edge">
<title>N42&#45;&gt;N38</title>
<path fill="none" stroke="black" d="M420.87,-1549.93C451.99,-1546.96 483.68,-1543.93 512.33,-1541.19"/>
<polygon fill="black" stroke="black" points="512.71,-1544.67 522.33,-1540.24 512.05,-1537.7 512.71,-1544.67"/>
</g>
<!-- N31 -->
<g id="node6" class="node">
<title>N31</title>
<polygon fill="#3cedec" stroke="#3cedec" points="378.54,-1768.54 378.54,-1783.46 304.29,-1794 199.29,-1794 125.04,-1783.46 125.04,-1768.54 199.29,-1758 304.29,-1758 378.54,-1768.54"/>
<polygon fill="none" stroke="#3cedec" points="382.54,-1765.07 382.54,-1786.93 304.57,-1798 199,-1798 121.03,-1786.93 121.03,-1765.07 199,-1754 304.57,-1754 382.54,-1765.07"/>
<polygon fill="none" stroke="#3cedec" points="386.55,-1761.6 386.55,-1790.4 304.86,-1802 198.72,-1802 117.03,-1790.4 117.03,-1761.6 198.72,-1750 304.86,-1750 386.55,-1761.6"/>
<text text-anchor="middle" x="251.79" y="-1772.3" font-family="Times-Roman" font-size="14.00" fill="#000000">arduino&#45;1.8.9 (306.72 MiB)</text>
</g>
<!-- N34 -->
<g id="node49" class="node">
<title>N34</title>
<polygon fill="#3ecbe9" stroke="#3ecbe9" points="727.46,-1724 512.46,-1724 512.46,-1688 727.46,-1688 727.46,-1724"/>
<text text-anchor="middle" x="619.96" y="-1702.3" font-family="Times-Roman" font-size="14.00" fill="#000000">openjdk&#45;8u242&#45;b08 (204.96 MiB)</text>
</g>
<!-- N31&#45;&gt;N34 -->
<g id="edge5" class="edge">
<title>N31&#45;&gt;N34</title>
<path fill="none" stroke="black" d="M371.24,-1759.4C405.31,-1754.1 442.46,-1747.82 476.46,-1741 497.49,-1736.78 520.09,-1731.55 540.96,-1726.44"/>
<polygon fill="black" stroke="black" points="541.87,-1729.82 550.74,-1724.02 540.19,-1723.02 541.87,-1729.82"/>
</g>
<!-- N43 -->
<g id="node7" class="node">
<title>N43</title>
<polygon fill="#406ce1" stroke="#406ce1" points="369.26,-508.54 369.26,-523.46 300.45,-534 203.13,-534 134.32,-523.46 134.32,-508.54 203.13,-498 300.45,-498 369.26,-508.54"/>
<polygon fill="none" stroke="#406ce1" points="373.26,-505.11 373.26,-526.89 300.75,-538 202.83,-538 130.32,-526.89 130.32,-505.11 202.83,-494 300.75,-494 373.26,-505.11"/>
<polygon fill="none" stroke="#406ce1" points="377.25,-501.68 377.25,-530.32 301.05,-542 202.52,-542 126.32,-530.32 126.32,-501.68 202.52,-490 301.05,-490 377.25,-501.68"/>
<text text-anchor="middle" x="251.79" y="-512.3" font-family="Times-Roman" font-size="14.00" fill="#ffffff">nethack&#45;3.6.6 (4.58 MiB)</text>
</g>
<!-- N43&#45;&gt;N36 -->
<g id="edge6" class="edge">
<title>N43&#45;&gt;N36</title>
<path fill="none" stroke="black" d="M377.27,-516C428.16,-516 485.8,-516 532.02,-516"/>
<polygon fill="black" stroke="black" points="532.31,-519.5 542.31,-516 532.31,-512.5 532.31,-519.5"/>
</g>
<!-- N30 -->
<g id="node8" class="node">
<title>N30</title>
<polygon fill="#3de2eb" stroke="#3de2eb" points="461.98,-1838.54 461.98,-1853.46 338.85,-1864 164.72,-1864 41.59,-1853.46 41.59,-1838.54 164.72,-1828 338.85,-1828 461.98,-1838.54"/>
<polygon fill="none" stroke="#3de2eb" points="465.98,-1834.87 465.98,-1857.13 339.02,-1868 164.55,-1868 37.6,-1857.13 37.6,-1834.87 164.55,-1824 339.02,-1824 465.98,-1834.87"/>
<polygon fill="none" stroke="#3de2eb" points="469.98,-1831.2 469.98,-1860.8 339.2,-1872 164.38,-1872 33.6,-1860.8 33.6,-1831.2 164.38,-1820 339.2,-1820 469.98,-1831.2"/>
<text text-anchor="middle" x="251.79" y="-1842.3" font-family="Times-Roman" font-size="14.00" fill="#000000">spotify&#45;1.1.26.501.gbe11e53b&#45;15 (272.32 MiB)</text>
</g>
<!-- N29 -->
<g id="node9" class="node">
<title>N29</title>
<polygon fill="#3ecce9" stroke="#3ecce9" points="398.85,-1348.54 398.85,-1363.46 312.7,-1374 190.87,-1374 104.73,-1363.46 104.73,-1348.54 190.87,-1338 312.7,-1338 398.85,-1348.54"/>
<polygon fill="none" stroke="#3ecce9" points="402.85,-1345 402.85,-1367 312.95,-1378 190.63,-1378 100.73,-1367 100.73,-1345 190.63,-1334 312.95,-1334 402.85,-1345"/>
<polygon fill="none" stroke="#3ecce9" points="406.85,-1341.46 406.85,-1370.54 313.19,-1382 190.39,-1382 96.73,-1370.54 96.73,-1341.46 190.39,-1330 313.19,-1330 406.85,-1341.46"/>
<text text-anchor="middle" x="251.79" y="-1352.3" font-family="Times-Roman" font-size="14.00" fill="#000000">glibc&#45;locales&#45;2.30 (209.50 MiB)</text>
</g>
<!-- N28 -->
<g id="node10" class="node">
<title>N28</title>
<polygon fill="#fed600" stroke="#fed600" points="369.26,-1278.54 369.26,-1293.46 300.45,-1304 203.13,-1304 134.32,-1293.46 134.32,-1278.54 203.13,-1268 300.45,-1268 369.26,-1278.54"/>
<polygon fill="none" stroke="#fed600" points="373.26,-1275.11 373.26,-1296.89 300.75,-1308 202.83,-1308 130.32,-1296.89 130.32,-1275.11 202.83,-1264 300.75,-1264 373.26,-1275.11"/>
<polygon fill="none" stroke="#fed600" points="377.25,-1271.68 377.25,-1300.32 301.05,-1312 202.52,-1312 126.32,-1300.32 126.32,-1271.68 202.52,-1260 301.05,-1260 377.25,-1271.68"/>
<text text-anchor="middle" x="251.79" y="-1282.3" font-family="Times-Roman" font-size="14.00" fill="#000000">wine&#45;wow&#45;5.0 (1.55 GiB)</text>
</g>
<!-- N28&#45;&gt;N35 -->
<g id="edge7" class="edge">
<title>N28&#45;&gt;N35</title>
<path fill="none" stroke="black" d="M377.31,-1284.53C411.49,-1279.49 447.17,-1269.57 476.46,-1251 546.33,-1206.72 590.35,-1114.46 608.87,-1068.39"/>
<polygon fill="black" stroke="black" points="612.15,-1069.63 612.53,-1059.04 605.63,-1067.07 612.15,-1069.63"/>
</g>
<!-- N37 -->
<g id="node50" class="node">
<title>N37</title>
<polygon fill="#3fb0e6" stroke="#3fb0e6" points="695.96,-1382 543.96,-1382 543.96,-1346 695.96,-1346 695.96,-1382"/>
<text text-anchor="middle" x="619.96" y="-1360.3" font-family="Times-Roman" font-size="14.00" fill="#ffffff">glu&#45;9.0.1 (135.38 MiB)</text>
</g>
<!-- N28&#45;&gt;N37 -->
<g id="edge8" class="edge">
<title>N28&#45;&gt;N37</title>
<path fill="none" stroke="black" d="M370.9,-1301.37C405.14,-1306.66 442.45,-1313.25 476.46,-1321 502.71,-1326.98 531.19,-1335.22 555.74,-1342.88"/>
<polygon fill="black" stroke="black" points="554.71,-1346.22 565.3,-1345.89 556.82,-1339.55 554.71,-1346.22"/>
</g>
<!-- N27 -->
<g id="node11" class="node">
<title>N27</title>
<polygon fill="#3ecde9" stroke="#3ecde9" points="389.56,-158.54 389.56,-173.46 308.86,-184 194.72,-184 114.01,-173.46 114.01,-158.54 194.72,-148 308.86,-148 389.56,-158.54"/>
<polygon fill="none" stroke="#3ecde9" points="393.56,-155.03 393.56,-176.97 309.12,-188 194.46,-188 110.02,-176.97 110.02,-155.03 194.46,-144 309.12,-144 393.56,-155.03"/>
<polygon fill="none" stroke="#3ecde9" points="397.56,-151.52 397.56,-180.48 309.38,-192 194.2,-192 106.02,-180.48 106.02,-151.52 194.2,-140 309.38,-140 397.56,-151.52"/>
<text text-anchor="middle" x="251.79" y="-162.3" font-family="Times-Roman" font-size="14.00" fill="#000000">inkscape&#45;0.92.5 (210.93 MiB)</text>
</g>
<!-- N39 -->
<g id="node51" class="node">
<title>N39</title>
<polygon fill="#3fb3e6" stroke="#3fb3e6" points="695.46,-184 544.46,-184 544.46,-148 695.46,-148 695.46,-184"/>
<text text-anchor="middle" x="619.96" y="-162.3" font-family="Times-Roman" font-size="14.00" fill="#ffffff">lapack&#45;3 (143.49 MiB)</text>
</g>
<!-- N27&#45;&gt;N39 -->
<g id="edge9" class="edge">
<title>N27&#45;&gt;N39</title>
<path fill="none" stroke="black" d="M397.77,-166C444,-166 493.62,-166 534.13,-166"/>
<polygon fill="black" stroke="black" points="534.22,-169.5 544.22,-166 534.22,-162.5 534.22,-169.5"/>
</g>
<!-- N26 -->
<g id="node12" class="node">
<title>N26</title>
<polygon fill="#3fa9e5" stroke="#3fa9e5" points="401.06,-1908.54 401.06,-1923.46 313.62,-1934 189.96,-1934 102.51,-1923.46 102.51,-1908.54 189.96,-1898 313.62,-1898 401.06,-1908.54"/>
<polygon fill="none" stroke="#3fa9e5" points="405.07,-1905 405.07,-1927 313.86,-1938 189.72,-1938 98.51,-1927 98.51,-1905 189.72,-1894 313.86,-1894 405.07,-1905"/>
<polygon fill="none" stroke="#3fa9e5" points="409.07,-1901.45 409.07,-1930.55 314.1,-1942 189.48,-1942 94.51,-1930.55 94.51,-1901.45 189.48,-1890 314.1,-1890 409.07,-1901.45"/>
<text text-anchor="middle" x="251.79" y="-1912.3" font-family="Times-Roman" font-size="14.00" fill="#ffffff">wireshark&#45;cli&#45;3.2.4 (120.45 MiB)</text>
</g>
<!-- N44 -->
<g id="node13" class="node">
<title>N44</title>
<polygon fill="#408ae3" stroke="#408ae3" points="412.98,-858.54 412.98,-873.46 318.56,-884 185.02,-884 90.59,-873.46 90.59,-858.54 185.02,-848 318.56,-848 412.98,-858.54"/>
<polygon fill="none" stroke="#408ae3" points="416.99,-854.97 416.99,-877.03 318.78,-888 184.8,-888 86.59,-877.03 86.59,-854.97 184.8,-844 318.78,-844 416.99,-854.97"/>
<polygon fill="none" stroke="#408ae3" points="420.99,-851.39 420.99,-880.61 319,-892 184.57,-892 82.59,-880.61 82.59,-851.39 184.57,-840 319,-840 420.99,-851.39"/>
<text text-anchor="middle" x="251.79" y="-862.3" font-family="Times-Roman" font-size="14.00" fill="#ffffff">dwarf&#45;fortress&#45;0.47.04 (55.65 MiB)</text>
</g>
<!-- N44&#45;&gt;N35 -->
<g id="edge10" class="edge">
<title>N44&#45;&gt;N35</title>
<path fill="none" stroke="black" d="M420.97,-880.6C440.25,-885.66 459.17,-892.3 476.46,-901 529.94,-927.89 576.07,-982.15 600.47,-1014.65"/>
<polygon fill="black" stroke="black" points="597.73,-1016.84 606.47,-1022.81 603.36,-1012.69 597.73,-1016.84"/>
</g>
<!-- N44&#45;&gt;N36 -->
<g id="edge11" class="edge">
<title>N44&#45;&gt;N36</title>
<path fill="none" stroke="black" d="M420.97,-858.5C440.95,-852.34 460.04,-843.5 476.46,-831 571.96,-758.32 605.21,-607.03 615.19,-544.25"/>
<polygon fill="black" stroke="black" points="618.67,-544.69 616.7,-534.28 611.75,-543.64 618.67,-544.69"/>
</g>
<!-- N45 -->
<g id="node14" class="node">
<title>N45</title>
<polygon fill="#3f9de4" stroke="#3f9de4" points="398.85,-438.54 398.85,-453.46 312.7,-464 190.87,-464 104.73,-453.46 104.73,-438.54 190.87,-428 312.7,-428 398.85,-438.54"/>
<polygon fill="none" stroke="#3f9de4" points="402.85,-435 402.85,-457 312.95,-468 190.63,-468 100.73,-457 100.73,-435 190.63,-424 312.95,-424 402.85,-435"/>
<polygon fill="none" stroke="#3f9de4" points="406.85,-431.46 406.85,-460.54 313.19,-472 190.39,-472 96.73,-460.54 96.73,-431.46 190.39,-420 313.19,-420 406.85,-431.46"/>
<text text-anchor="middle" x="251.79" y="-442.3" font-family="Times-Roman" font-size="14.00" fill="#ffffff">stepmania&#45;5.1.0&#45;b2 (93.37 MiB)</text>
</g>
<!-- N45&#45;&gt;N36 -->
<g id="edge12" class="edge">
<title>N45&#45;&gt;N36</title>
<path fill="none" stroke="black" d="M379.7,-463.92C411.39,-468.93 445.25,-474.74 476.46,-481 497.49,-485.22 520.09,-490.45 540.96,-495.56"/>
<polygon fill="black" stroke="black" points="540.19,-498.98 550.74,-497.98 541.87,-492.18 540.19,-498.98"/>
</g>
<!-- N25 -->
<g id="node15" class="node">
<title>N25</title>
<polygon fill="#37f5a5" stroke="#37f5a5" points="364.4,-2118.54 364.4,-2133.46 298.43,-2144 205.14,-2144 139.17,-2133.46 139.17,-2118.54 205.14,-2108 298.43,-2108 364.4,-2118.54"/>
<polygon fill="none" stroke="#37f5a5" points="368.4,-2115.13 368.4,-2136.87 298.75,-2148 204.82,-2148 135.17,-2136.87 135.17,-2115.13 204.82,-2104 298.75,-2104 368.4,-2115.13"/>
<polygon fill="none" stroke="#37f5a5" points="372.41,-2111.72 372.41,-2140.28 299.07,-2152 204.51,-2152 131.17,-2140.28 131.17,-2111.72 204.51,-2100 299.07,-2100 372.41,-2111.72"/>
<text text-anchor="middle" x="251.79" y="-2122.3" font-family="Times-Roman" font-size="14.00" fill="#000000">cura&#45;4.4.0 (517.29 MiB)</text>
</g>
<!-- N33 -->
<g id="node52" class="node">
<title>N33</title>
<polygon fill="#3fb0e6" stroke="#3fb0e6" points="708.96,-2074 530.96,-2074 530.96,-2038 708.96,-2038 708.96,-2074"/>
<text text-anchor="middle" x="619.96" y="-2052.3" font-family="Times-Roman" font-size="14.00" fill="#ffffff">bash&#45;4.4&#45;p23 (136.81 MiB)</text>
</g>
<!-- N25&#45;&gt;N33 -->
<g id="edge13" class="edge">
<title>N25&#45;&gt;N33</title>
<path fill="none" stroke="black" d="M364.62,-2110.42C400.46,-2104.92 440.24,-2098.27 476.46,-2091 497.49,-2086.78 520.09,-2081.55 540.96,-2076.44"/>
<polygon fill="black" stroke="black" points="541.87,-2079.82 550.74,-2074.02 540.19,-2073.02 541.87,-2079.82"/>
</g>
<!-- N24 -->
<g id="node16" class="node">
<title>N24</title>
<polygon fill="#3ecfe9" stroke="#3ecfe9" points="468.63,-2188.54 468.63,-2203.46 341.61,-2214 161.97,-2214 34.94,-2203.46 34.94,-2188.54 161.97,-2178 341.61,-2178 468.63,-2188.54"/>
<polygon fill="none" stroke="#3ecfe9" points="472.64,-2184.86 472.64,-2207.14 341.77,-2218 161.8,-2218 30.94,-2207.14 30.94,-2184.86 161.8,-2174 341.77,-2174 472.64,-2184.86"/>
<polygon fill="none" stroke="#3ecfe9" points="476.64,-2181.18 476.64,-2210.82 341.94,-2222 161.64,-2222 26.94,-2210.82 26.94,-2181.18 161.64,-2170 341.94,-2170 476.64,-2181.18"/>
<text text-anchor="middle" x="251.79" y="-2192.3" font-family="Times-Roman" font-size="14.00" fill="#000000">firefox&#45;beta&#45;bin&#45;unwrapped&#45;77.0b7 (217.24 MiB)</text>
</g>
<!-- N23 -->
<g id="node17" class="node">
<title>N23</title>
<polygon fill="#3befdf" stroke="#3befdf" points="361.76,-368.54 361.76,-383.46 297.34,-394 206.24,-394 141.81,-383.46 141.81,-368.54 206.24,-358 297.34,-358 361.76,-368.54"/>
<polygon fill="none" stroke="#3befdf" points="365.77,-365.15 365.77,-386.85 297.67,-398 205.91,-398 137.81,-386.85 137.81,-365.15 205.91,-354 297.67,-354 365.77,-365.15"/>
<polygon fill="none" stroke="#3befdf" points="369.78,-361.75 369.78,-390.25 297.99,-402 205.58,-402 133.8,-390.25 133.8,-361.75 205.58,-350 297.99,-350 369.78,-361.75"/>
<text text-anchor="middle" x="251.79" y="-372.3" font-family="Times-Roman" font-size="14.00" fill="#000000">go&#45;1.14.2 (357.45 MiB)</text>
</g>
<!-- N23&#45;&gt;N36 -->
<g id="edge14" class="edge">
<title>N23&#45;&gt;N36</title>
<path fill="none" stroke="black" d="M369.76,-383.59C405.02,-388.69 443.18,-397.12 476.46,-411 521.9,-429.95 566.27,-466.3 593.12,-490.85"/>
<polygon fill="black" stroke="black" points="590.83,-493.5 600.54,-497.75 595.6,-488.37 590.83,-493.5"/>
</g>
<!-- N22 -->
<g id="node18" class="node">
<title>N22</title>
<polygon fill="#3de0eb" stroke="#3de0eb" points="380.75,-88.54 380.75,-103.46 305.21,-114 198.37,-114 122.82,-103.46 122.82,-88.54 198.37,-78 305.21,-78 380.75,-88.54"/>
<polygon fill="none" stroke="#3de0eb" points="384.76,-85.06 384.76,-106.94 305.49,-118 198.09,-118 118.82,-106.94 118.82,-85.06 198.09,-74 305.49,-74 384.76,-85.06"/>
<polygon fill="none" stroke="#3de0eb" points="388.77,-81.58 388.77,-110.42 305.76,-122 197.81,-122 114.81,-110.42 114.81,-81.58 197.81,-70 305.76,-70 388.77,-81.58"/>
<text text-anchor="middle" x="251.79" y="-92.3" font-family="Times-Roman" font-size="14.00" fill="#000000">blender&#45;2.82a (264.92 MiB)</text>
</g>
<!-- N22&#45;&gt;N39 -->
<g id="edge15" class="edge">
<title>N22&#45;&gt;N39</title>
<path fill="none" stroke="black" d="M372.4,-112.78C406.15,-118.04 442.84,-124.25 476.46,-131 497.49,-135.22 520.09,-140.45 540.96,-145.56"/>
<polygon fill="black" stroke="black" points="540.19,-148.98 550.74,-147.98 541.87,-142.18 540.19,-148.98"/>
</g>
<!-- N21 -->
<g id="node19" class="node">
<title>N21</title>
<polygon fill="#3ec2e8" stroke="#3ec2e8" points="416.52,-2328.54 416.52,-2343.46 320.02,-2354 183.56,-2354 87.06,-2343.46 87.06,-2328.54 183.56,-2318 320.02,-2318 416.52,-2328.54"/>
<polygon fill="none" stroke="#3ec2e8" points="420.52,-2324.96 420.52,-2347.04 320.24,-2358 183.34,-2358 83.06,-2347.04 83.06,-2324.96 183.34,-2314 320.24,-2314 420.52,-2324.96"/>
<polygon fill="none" stroke="#3ec2e8" points="424.52,-2321.37 424.52,-2350.63 320.46,-2362 183.12,-2362 79.05,-2350.63 79.05,-2321.37 183.12,-2310 320.46,-2310 424.52,-2321.37"/>
<text text-anchor="middle" x="251.79" y="-2332.3" font-family="Times-Roman" font-size="14.00" fill="#000000">thunderbird&#45;bin&#45;68.8.1 (181.53 MiB)</text>
</g>
<!-- N20 -->
<g id="node20" class="node">
<title>N20</title>
<polygon fill="#3ebde7" stroke="#3ebde7" points="395.31,-298.54 395.31,-313.46 311.24,-324 192.34,-324 108.26,-313.46 108.26,-298.54 192.34,-288 311.24,-288 395.31,-298.54"/>
<polygon fill="none" stroke="#3ebde7" points="399.31,-295.01 399.31,-316.99 311.49,-328 192.09,-328 104.26,-316.99 104.26,-295.01 192.09,-284 311.49,-284 399.31,-295.01"/>
<polygon fill="none" stroke="#3ebde7" points="403.31,-291.48 403.31,-320.52 311.74,-332 191.84,-332 100.26,-320.52 100.26,-291.48 191.84,-280 311.74,-280 403.31,-291.48"/>
<text text-anchor="middle" x="251.79" y="-302.3" font-family="Times-Roman" font-size="14.00" fill="#000000">upwork&#45;5.3.3.862 (168.58 MiB)</text>
</g>
<!-- N20&#45;&gt;N36 -->
<g id="edge16" class="edge">
<title>N20&#45;&gt;N36</title>
<path fill="none" stroke="black" d="M403.53,-314.13C428.99,-319.76 454.31,-328.28 476.46,-341 538.11,-376.41 583.96,-449.54 605.43,-489.13"/>
<polygon fill="black" stroke="black" points="602.35,-490.78 610.12,-497.97 608.53,-487.5 602.35,-490.78"/>
</g>
<!-- N19 -->
<g id="node21" class="node">
<title>N19</title>
<polygon fill="#3ddfeb" stroke="#3ddfeb" points="431.97,-2398.54 431.97,-2413.46 326.42,-2424 177.15,-2424 71.6,-2413.46 71.6,-2398.54 177.15,-2388 326.42,-2388 431.97,-2398.54"/>
<polygon fill="none" stroke="#3ddfeb" points="435.97,-2394.92 435.97,-2417.08 326.62,-2428 176.95,-2428 67.6,-2417.08 67.6,-2394.92 176.95,-2384 326.62,-2384 435.97,-2394.92"/>
<polygon fill="none" stroke="#3ddfeb" points="439.98,-2391.3 439.98,-2420.7 326.82,-2432 176.75,-2432 63.6,-2420.7 63.6,-2391.3 176.75,-2380 326.82,-2380 439.98,-2391.3"/>
<text text-anchor="middle" x="251.79" y="-2402.3" font-family="Times-Roman" font-size="14.00" fill="#000000">qemu&#45;host&#45;cpu&#45;only&#45;4.2.0 (263.29 MiB)</text>
</g>
<!-- N18 -->
<g id="node22" class="node">
<title>N18</title>
<polygon fill="#3ecae9" stroke="#3ecae9" points="373.68,-2468.54 373.68,-2483.46 302.28,-2494 201.3,-2494 129.89,-2483.46 129.89,-2468.54 201.3,-2458 302.28,-2458 373.68,-2468.54"/>
<polygon fill="none" stroke="#3ecae9" points="377.69,-2465.09 377.69,-2486.91 302.57,-2498 201,-2498 125.89,-2486.91 125.89,-2465.09 201,-2454 302.57,-2454 377.69,-2465.09"/>
<polygon fill="none" stroke="#3ecae9" points="381.7,-2461.64 381.7,-2490.36 302.87,-2502 200.71,-2502 121.88,-2490.36 121.88,-2461.64 200.71,-2450 302.87,-2450 381.7,-2461.64"/>
<text text-anchor="middle" x="251.79" y="-2472.3" font-family="Times-Roman" font-size="14.00" fill="#000000">astroid&#45;0.15 (202.72 MiB)</text>
</g>
<!-- N17 -->
<g id="node23" class="node">
<title>N17</title>
<polygon fill="#3ec9e9" stroke="#3ec9e9" points="442.99,-1418.54 442.99,-1433.46 330.99,-1444 172.59,-1444 60.58,-1433.46 60.58,-1418.54 172.59,-1408 330.99,-1408 442.99,-1418.54"/>
<polygon fill="none" stroke="#3ec9e9" points="446.99,-1414.9 446.99,-1437.1 331.18,-1448 172.4,-1448 56.59,-1437.1 56.59,-1414.9 172.4,-1404 331.18,-1404 446.99,-1414.9"/>
<polygon fill="none" stroke="#3ec9e9" points="450.99,-1411.26 450.99,-1440.74 331.36,-1452 172.21,-1452 52.59,-1440.74 52.59,-1411.26 172.21,-1400 331.36,-1400 450.99,-1411.26"/>
<text text-anchor="middle" x="251.79" y="-1422.3" font-family="Times-Roman" font-size="14.00" fill="#000000">tor&#45;browser&#45;bundle&#45;bin&#45;9.0.9 (199.27 MiB)</text>
</g>
<!-- N17&#45;&gt;N29 -->
<g id="edge17" class="edge">
<title>N17&#45;&gt;N29</title>
<path fill="none" stroke="black" d="M251.79,-1399.68C251.79,-1397.23 251.79,-1394.78 251.79,-1392.33"/>
<polygon fill="black" stroke="black" points="255.29,-1392.25 251.79,-1382.25 248.29,-1392.25 255.29,-1392.25"/>
</g>
<!-- N46 -->
<g id="node24" class="node">
<title>N46</title>
<polygon fill="#4073e1" stroke="#4073e1" points="379.86,-998.54 379.86,-1013.46 304.84,-1024 198.74,-1024 123.72,-1013.46 123.72,-998.54 198.74,-988 304.84,-988 379.86,-998.54"/>
<polygon fill="none" stroke="#4073e1" points="383.86,-995.07 383.86,-1016.93 305.12,-1028 198.46,-1028 119.72,-1016.93 119.72,-995.07 198.46,-984 305.12,-984 383.86,-995.07"/>
<polygon fill="none" stroke="#4073e1" points="387.86,-991.59 387.86,-1020.41 305.4,-1032 198.18,-1032 115.72,-1020.41 115.72,-991.59 198.18,-980 305.4,-980 387.86,-991.59"/>
<text text-anchor="middle" x="251.79" y="-1002.3" font-family="Times-Roman" font-size="14.00" fill="#ffffff">tigervnc&#45;1.10.1 (15.56 MiB)</text>
</g>
<!-- N46&#45;&gt;N35 -->
<g id="edge18" class="edge">
<title>N46&#45;&gt;N35</title>
<path fill="none" stroke="black" d="M387.84,-1018.91C429.56,-1022.9 474.86,-1027.23 514.21,-1030.99"/>
<polygon fill="black" stroke="black" points="514.06,-1034.49 524.35,-1031.96 514.72,-1027.52 514.06,-1034.49"/>
</g>
<!-- N47 -->
<g id="node25" class="node">
<title>N47</title>
<polygon fill="#4169e1" stroke="#4169e1" points="383.82,-1698.54 383.82,-1713.46 306.48,-1724 197.1,-1724 119.76,-1713.46 119.76,-1698.54 197.1,-1688 306.48,-1688 383.82,-1698.54"/>
<polygon fill="none" stroke="#4169e1" points="387.81,-1695.05 387.81,-1716.95 306.75,-1728 196.83,-1728 115.77,-1716.95 115.77,-1695.05 196.83,-1684 306.75,-1684 387.81,-1695.05"/>
<polygon fill="none" stroke="#4169e1" points="391.8,-1691.56 391.8,-1720.44 307.02,-1732 196.56,-1732 111.77,-1720.44 111.77,-1691.56 196.56,-1680 307.02,-1680 391.8,-1691.56"/>
<text text-anchor="middle" x="251.79" y="-1702.3" font-family="Times-Roman" font-size="14.00" fill="#ffffff">libreoffice&#45;6.4.3.2 (3.55 KiB)</text>
</g>
<!-- N3 -->
<g id="node42" class="node">
<title>N3</title>
<polygon fill="#37f5a3" stroke="#37f5a3" points="396.63,-1628.54 396.63,-1643.46 311.78,-1654 191.79,-1654 106.95,-1643.46 106.95,-1628.54 191.79,-1618 311.78,-1618 396.63,-1628.54"/>
<polygon fill="none" stroke="#37f5a3" points="400.63,-1625.01 400.63,-1646.99 312.03,-1658 191.55,-1658 102.95,-1646.99 102.95,-1625.01 191.55,-1614 312.03,-1614 400.63,-1625.01"/>
<polygon fill="none" stroke="#37f5a3" points="404.63,-1621.48 404.63,-1650.52 312.28,-1662 191.3,-1662 98.95,-1650.52 98.95,-1621.48 191.3,-1610 312.28,-1610 404.63,-1621.48"/>
<text text-anchor="middle" x="251.79" y="-1632.3" font-family="Times-Roman" font-size="14.00" fill="#000000">libreoffice&#45;6.4.3.2 (521.56 MiB)</text>
</g>
<!-- N47&#45;&gt;N3 -->
<g id="edge19" class="edge">
<title>N47&#45;&gt;N3</title>
<path fill="none" stroke="black" d="M251.79,-1679.68C251.79,-1677.23 251.79,-1674.78 251.79,-1672.33"/>
<polygon fill="black" stroke="black" points="255.29,-1672.25 251.79,-1662.25 248.29,-1672.25 255.29,-1672.25"/>
</g>
<!-- N16 -->
<g id="node26" class="node">
<title>N16</title>
<polygon fill="#3cedec" stroke="#3cedec" points="445.21,-2538.54 445.21,-2553.46 331.91,-2564 171.67,-2564 58.37,-2553.46 58.37,-2538.54 171.67,-2528 331.91,-2528 445.21,-2538.54"/>
<polygon fill="none" stroke="#3cedec" points="449.21,-2534.9 449.21,-2557.1 332.09,-2568 171.48,-2568 54.37,-2557.1 54.37,-2534.9 171.48,-2524 332.09,-2524 449.21,-2534.9"/>
<polygon fill="none" stroke="#3cedec" points="453.21,-2531.25 453.21,-2560.75 332.28,-2572 171.3,-2572 50.37,-2560.75 50.37,-2531.25 171.3,-2520 332.28,-2520 453.21,-2531.25"/>
<text text-anchor="middle" x="251.79" y="-2542.3" font-family="Times-Roman" font-size="14.00" fill="#000000">google&#45;chrome&#45;83.0.4103.61 (305.72 MiB)</text>
</g>
<!-- N48 -->
<g id="node27" class="node">
<title>N48</title>
<polygon fill="#4088e3" stroke="#4088e3" points="371.9,-228.54 371.9,-243.46 301.54,-254 202.04,-254 131.68,-243.46 131.68,-228.54 202.04,-218 301.54,-218 371.9,-228.54"/>
<polygon fill="none" stroke="#4088e3" points="375.89,-225.1 375.89,-246.9 301.84,-258 201.74,-258 127.69,-246.9 127.69,-225.1 201.74,-214 301.84,-214 375.89,-225.1"/>
<polygon fill="none" stroke="#4088e3" points="379.88,-221.65 379.88,-250.35 302.13,-262 201.44,-262 123.69,-250.35 123.69,-221.65 201.44,-210 302.13,-210 379.88,-221.65"/>
<text text-anchor="middle" x="251.79" y="-232.3" font-family="Times-Roman" font-size="14.00" fill="#ffffff">neovim&#45;0.4.3 (51.60 MiB)</text>
</g>
<!-- N48&#45;&gt;N36 -->
<g id="edge20" class="edge">
<title>N48&#45;&gt;N36</title>
<path fill="none" stroke="black" d="M379.91,-236.44C413.56,-241.54 448.31,-251.76 476.46,-271 554.56,-324.39 595.73,-435.76 611.38,-487.92"/>
<polygon fill="black" stroke="black" points="608.11,-489.2 614.26,-497.82 614.83,-487.24 608.11,-489.2"/>
</g>
<!-- N15 -->
<g id="node28" class="node">
<title>N15</title>
<polygon fill="#3fb6e7" stroke="#3fb6e7" points="380.75,-2048.54 380.75,-2063.46 305.21,-2074 198.37,-2074 122.82,-2063.46 122.82,-2048.54 198.37,-2038 305.21,-2038 380.75,-2048.54"/>
<polygon fill="none" stroke="#3fb6e7" points="384.76,-2045.06 384.76,-2066.94 305.49,-2078 198.09,-2078 118.82,-2066.94 118.82,-2045.06 198.09,-2034 305.49,-2034 384.76,-2045.06"/>
<polygon fill="none" stroke="#3fb6e7" points="388.77,-2041.58 388.77,-2070.42 305.76,-2082 197.81,-2082 114.81,-2070.42 114.81,-2041.58 197.81,-2030 305.76,-2030 388.77,-2041.58"/>
<text text-anchor="middle" x="251.79" y="-2052.3" font-family="Times-Roman" font-size="14.00" fill="#000000">fritzing&#45;0.9.3b (151.31 MiB)</text>
</g>
<!-- N15&#45;&gt;N33 -->
<g id="edge21" class="edge">
<title>N15&#45;&gt;N33</title>
<path fill="none" stroke="black" d="M388.62,-2056C432.43,-2056 480.12,-2056 520.68,-2056"/>
<polygon fill="black" stroke="black" points="520.83,-2059.5 530.83,-2056 520.83,-2052.5 520.83,-2059.5"/>
</g>
<!-- N14 -->
<g id="node29" class="node">
<title>N14</title>
<polygon fill="#3fabe6" stroke="#3fabe6" points="403.7,-2608.54 403.7,-2623.46 314.71,-2634 188.86,-2634 99.88,-2623.46 99.88,-2608.54 188.86,-2598 314.71,-2598 403.7,-2608.54"/>
<polygon fill="none" stroke="#3fabe6" points="407.7,-2604.99 407.7,-2627.01 314.95,-2638 188.63,-2638 95.88,-2627.01 95.88,-2604.99 188.63,-2594 314.95,-2594 407.7,-2604.99"/>
<polygon fill="none" stroke="#3fabe6" points="411.7,-2601.44 411.7,-2630.56 315.18,-2642 188.39,-2642 91.88,-2630.56 91.88,-2601.44 188.39,-2590 315.18,-2590 411.7,-2601.44"/>
<text text-anchor="middle" x="251.79" y="-2612.3" font-family="Times-Roman" font-size="14.00" fill="#ffffff">fbreader&#45;qt4&#45;0.99.6 (124.04 MiB)</text>
</g>
<!-- N13 -->
<g id="node30" class="node">
<title>N13</title>
<polygon fill="#f7fe1c" stroke="#f7fe1c" points="337.02,-1488.54 337.02,-1503.46 287.09,-1514 216.48,-1514 166.55,-1503.46 166.55,-1488.54 216.48,-1478 287.09,-1478 337.02,-1488.54"/>
<polygon fill="none" stroke="#f7fe1c" points="341.03,-1485.3 341.03,-1506.7 287.51,-1518 216.06,-1518 162.55,-1506.7 162.55,-1485.3 216.06,-1474 287.51,-1474 341.03,-1485.3"/>
<polygon fill="none" stroke="#f7fe1c" points="345.03,-1482.06 345.03,-1509.94 287.93,-1522 215.65,-1522 158.54,-1509.94 158.54,-1482.06 215.65,-1470 287.93,-1470 345.03,-1482.06"/>
<text text-anchor="middle" x="251.79" y="-1492.3" font-family="Times-Roman" font-size="14.00" fill="#000000">steam (1.22 GiB)</text>
</g>
<!-- N13&#45;&gt;N29 -->
<g id="edge22" class="edge">
<title>N13&#45;&gt;N29</title>
<path fill="none" stroke="black" d="M158.48,-1488C117.5,-1482.83 69.23,-1474.45 27.11,-1461 18.59,-1458.28 13.81,-1459.61 9.11,-1452 -3.04,-1432.34 -3.04,-1419.66 9.11,-1400 26.35,-1372.11 54.99,-1356.97 86.67,-1349.44"/>
<polygon fill="black" stroke="black" points="87.53,-1352.84 96.59,-1347.34 86.08,-1345.99 87.53,-1352.84"/>
</g>
<!-- N13&#45;&gt;N38 -->
<g id="edge24" class="edge">
<title>N13&#45;&gt;N38</title>
<path fill="none" stroke="black" d="M345.19,-1504.83C396.04,-1509.69 459.39,-1515.75 512.33,-1520.81"/>
<polygon fill="black" stroke="black" points="512.15,-1524.31 522.43,-1521.77 512.81,-1517.34 512.15,-1524.31"/>
</g>
<!-- N13&#45;&gt;N37 -->
<g id="edge23" class="edge">
<title>N13&#45;&gt;N37</title>
<path fill="none" stroke="black" d="M344.98,-1490.78C386.31,-1486.14 434.98,-1477.4 476.46,-1461 519.85,-1443.85 563.23,-1411.62 590.53,-1389.04"/>
<polygon fill="black" stroke="black" points="593.06,-1391.48 598.47,-1382.37 588.56,-1386.12 593.06,-1391.48"/>
</g>
<!-- N49 -->
<g id="node31" class="node">
<title>N49</title>
<polygon fill="#4069e1" stroke="#4069e1" points="376.32,-1138.54 376.32,-1153.46 303.37,-1164 200.2,-1164 127.25,-1153.46 127.25,-1138.54 200.2,-1128 303.37,-1128 376.32,-1138.54"/>
<polygon fill="none" stroke="#4069e1" points="380.32,-1135.08 380.32,-1156.92 303.66,-1168 199.92,-1168 123.25,-1156.92 123.25,-1135.08 199.92,-1124 303.66,-1124 380.32,-1135.08"/>
<polygon fill="none" stroke="#4069e1" points="384.32,-1131.62 384.32,-1160.38 303.95,-1172 199.63,-1172 119.25,-1160.38 119.25,-1131.62 199.63,-1120 303.95,-1120 384.32,-1131.62"/>
<text text-anchor="middle" x="251.79" y="-1142.3" font-family="Times-Roman" font-size="14.00" fill="#ffffff">arandr&#45;0.1.10 (203.91 KiB)</text>
</g>
<!-- N49&#45;&gt;N35 -->
<g id="edge25" class="edge">
<title>N49&#45;&gt;N35</title>
<path fill="none" stroke="black" d="M384.42,-1132.16C415.04,-1127.09 447.23,-1120.23 476.46,-1111 513.07,-1099.44 552.01,-1079.74 579.92,-1064.18"/>
<polygon fill="black" stroke="black" points="581.96,-1067.05 588.95,-1059.08 578.52,-1060.96 581.96,-1067.05"/>
</g>
<!-- N12 -->
<g id="node32" class="node">
<title>N12</title>
<polygon fill="#3fb2e6" stroke="#3fb2e6" points="377.64,-788.54 377.64,-803.46 303.92,-814 199.66,-814 125.93,-803.46 125.93,-788.54 199.66,-778 303.92,-778 377.64,-788.54"/>
<polygon fill="none" stroke="#3fb2e6" points="381.64,-785.08 381.64,-806.92 304.2,-818 199.37,-818 121.94,-806.92 121.94,-785.08 199.37,-774 304.2,-774 381.64,-785.08"/>
<polygon fill="none" stroke="#3fb2e6" points="385.64,-781.61 385.64,-810.39 304.49,-822 199.09,-822 117.94,-810.39 117.94,-781.61 199.09,-770 304.49,-770 385.64,-781.61"/>
<text text-anchor="middle" x="251.79" y="-792.3" font-family="Times-Roman" font-size="14.00" fill="#ffffff">gimp&#45;2.10.18 (140.30 MiB)</text>
</g>
<!-- N12&#45;&gt;N35 -->
<g id="edge26" class="edge">
<title>N12&#45;&gt;N35</title>
<path fill="none" stroke="black" d="M385.76,-798.81C417.31,-804.19 449.57,-813.96 476.46,-831 546.33,-875.28 590.35,-967.54 608.87,-1013.61"/>
<polygon fill="black" stroke="black" points="605.63,-1014.93 612.53,-1022.96 612.15,-1012.37 605.63,-1014.93"/>
</g>
<!-- N12&#45;&gt;N39 -->
<g id="edge27" class="edge">
<title>N12&#45;&gt;N39</title>
<path fill="none" stroke="black" d="M385.87,-802.28C419.47,-797.21 452.71,-785.32 476.46,-761 519.07,-717.38 498.86,-548.43 512.46,-489 538.08,-377.11 586.2,-248.89 607.88,-193.67"/>
<polygon fill="black" stroke="black" points="611.19,-194.81 611.61,-184.23 604.68,-192.24 611.19,-194.81"/>
</g>
<!-- N11 -->
<g id="node33" class="node">
<title>N11</title>
<polygon fill="#3cedeb" stroke="#3cedeb" points="358.65,-2678.54 358.65,-2693.46 296.05,-2704 207.52,-2704 144.92,-2693.46 144.92,-2678.54 207.52,-2668 296.05,-2668 358.65,-2678.54"/>
<polygon fill="none" stroke="#3cedeb" points="362.65,-2675.16 362.65,-2696.84 296.39,-2708 207.19,-2708 140.92,-2696.84 140.92,-2675.16 207.19,-2664 296.39,-2664 362.65,-2675.16"/>
<polygon fill="none" stroke="#3cedeb" points="366.65,-2671.78 366.65,-2700.22 296.72,-2712 206.85,-2712 136.93,-2700.22 136.93,-2671.78 206.85,-2660 296.72,-2660 366.65,-2671.78"/>
<text text-anchor="middle" x="251.79" y="-2682.3" font-family="Times-Roman" font-size="14.00" fill="#000000">ino&#45;0.3.6 (310.71 MiB)</text>
</g>
<!-- N10 -->
<g id="node34" class="node">
<title>N10</title>
<polygon fill="#d1fe28" stroke="#d1fe28" points="369.26,-718.54 369.26,-733.46 300.45,-744 203.13,-744 134.32,-733.46 134.32,-718.54 203.13,-708 300.45,-708 369.26,-718.54"/>
<polygon fill="none" stroke="#d1fe28" points="373.26,-715.11 373.26,-736.89 300.75,-748 202.83,-748 130.32,-736.89 130.32,-715.11 202.83,-704 300.75,-704 373.26,-715.11"/>
<polygon fill="none" stroke="#d1fe28" points="377.25,-711.68 377.25,-740.32 301.05,-752 202.52,-752 126.32,-740.32 126.32,-711.68 202.52,-700 301.05,-700 377.25,-711.68"/>
<text text-anchor="middle" x="251.79" y="-722.3" font-family="Times-Roman" font-size="14.00" fill="#000000">unar&#45;1.10.7 (991.39 MiB)</text>
</g>
<!-- N10&#45;&gt;N36 -->
<g id="edge28" class="edge">
<title>N10&#45;&gt;N36</title>
<path fill="none" stroke="black" d="M377.46,-722.69C411.28,-717.58 446.73,-708.08 476.46,-691 538.11,-655.59 583.96,-582.46 605.43,-542.87"/>
<polygon fill="black" stroke="black" points="608.53,-544.5 610.12,-534.03 602.35,-541.22 608.53,-544.5"/>
</g>
<!-- N9 -->
<g id="node35" class="node">
<title>N9</title>
<polygon fill="#3dd1e9" stroke="#3dd1e9" points="450.06,-2748.54 450.06,-2763.46 333.92,-2774 169.66,-2774 53.51,-2763.46 53.51,-2748.54 169.66,-2738 333.92,-2738 450.06,-2748.54"/>
<polygon fill="none" stroke="#3dd1e9" points="454.06,-2744.89 454.06,-2767.11 334.1,-2778 169.48,-2778 49.52,-2767.11 49.52,-2744.89 169.48,-2734 334.1,-2734 454.06,-2744.89"/>
<polygon fill="none" stroke="#3dd1e9" points="458.06,-2741.24 458.06,-2770.76 334.28,-2782 169.3,-2782 45.52,-2770.76 45.52,-2741.24 169.3,-2730 334.28,-2730 458.06,-2741.24"/>
<text text-anchor="middle" x="251.79" y="-2752.3" font-family="Times-Roman" font-size="14.00" fill="#000000">papirus&#45;icon&#45;theme&#45;20200430 (221.53 MiB)</text>
</g>
<!-- N8 -->
<g id="node36" class="node">
<title>N8</title>
<polygon fill="#fe6400" stroke="#fe6400" points="434.19,-648.54 434.19,-663.46 327.34,-674 176.24,-674 69.39,-663.46 69.39,-648.54 176.24,-638 327.34,-638 434.19,-648.54"/>
<polygon fill="none" stroke="#fe6400" points="438.19,-644.92 438.19,-667.08 327.54,-678 176.04,-678 65.38,-667.08 65.38,-644.92 176.04,-634 327.54,-634 438.19,-644.92"/>
<polygon fill="none" stroke="#fe6400" points="442.2,-641.3 442.2,-670.7 327.74,-682 175.84,-682 61.38,-670.7 61.38,-641.3 175.84,-630 327.74,-630 442.2,-641.3"/>
<text text-anchor="middle" x="251.79" y="-652.3" font-family="Times-Roman" font-size="14.00" fill="#000000">xmonad&#45;with&#45;packages&#45;8.8.3 (2.17 GiB)</text>
</g>
<!-- N8&#45;&gt;N36 -->
<g id="edge29" class="edge">
<title>N8&#45;&gt;N36</title>
<path fill="none" stroke="black" d="M419.56,-639.04C439.13,-634.39 458.51,-628.49 476.46,-621 521.9,-602.05 566.27,-565.7 593.12,-541.15"/>
<polygon fill="black" stroke="black" points="595.6,-543.63 600.54,-534.25 590.83,-538.5 595.6,-543.63"/>
</g>
<!-- N7 -->
<g id="node37" class="node">
<title>N7</title>
<polygon fill="#c1fe2b" stroke="#c1fe2b" points="394.42,-2818.54 394.42,-2833.46 310.87,-2844 192.71,-2844 109.16,-2833.46 109.16,-2818.54 192.71,-2808 310.87,-2808 394.42,-2818.54"/>
<polygon fill="none" stroke="#c1fe2b" points="398.41,-2815.02 398.41,-2836.98 311.12,-2848 192.46,-2848 105.17,-2836.98 105.17,-2815.02 192.46,-2804 311.12,-2804 398.41,-2815.02"/>
<polygon fill="none" stroke="#c1fe2b" points="402.41,-2811.49 402.41,-2840.51 311.37,-2852 192.21,-2852 101.17,-2840.51 101.17,-2811.49 192.21,-2800 311.37,-2800 402.41,-2811.49"/>
<text text-anchor="middle" x="251.79" y="-2822.3" font-family="Times-Roman" font-size="14.00" fill="#000000">xonotic&#45;sdl&#45;0.8.2 (895.35 MiB)</text>
</g>
<!-- N6 -->
<g id="node38" class="node">
<title>N6</title>
<polygon fill="#3fa4e5" stroke="#3fa4e5" points="386.03,-2888.54 386.03,-2903.46 307.39,-2914 196.18,-2914 117.55,-2903.46 117.55,-2888.54 196.18,-2878 307.39,-2878 386.03,-2888.54"/>
<polygon fill="none" stroke="#3fa4e5" points="390.03,-2885.04 390.03,-2906.96 307.66,-2918 195.92,-2918 113.55,-2906.96 113.55,-2885.04 195.92,-2874 307.66,-2874 390.03,-2885.04"/>
<polygon fill="none" stroke="#3fa4e5" points="394.02,-2881.54 394.02,-2910.46 307.93,-2922 195.65,-2922 109.55,-2910.46 109.55,-2881.54 195.65,-2870 307.93,-2870 394.02,-2881.54"/>
<text text-anchor="middle" x="251.79" y="-2892.3" font-family="Times-Roman" font-size="14.00" fill="#ffffff">nomacs&#45;3.14.2 (108.73 MiB)</text>
</g>
<!-- N5 -->
<g id="node39" class="node">
<title>N5</title>
<polygon fill="#3fb6e7" stroke="#3fb6e7" points="371.9,-2958.54 371.9,-2973.46 301.54,-2984 202.04,-2984 131.68,-2973.46 131.68,-2958.54 202.04,-2948 301.54,-2948 371.9,-2958.54"/>
<polygon fill="none" stroke="#3fb6e7" points="375.89,-2955.1 375.89,-2976.9 301.84,-2988 201.74,-2988 127.69,-2976.9 127.69,-2955.1 201.74,-2944 301.84,-2944 375.89,-2955.1"/>
<polygon fill="none" stroke="#3fb6e7" points="379.88,-2951.65 379.88,-2980.35 302.13,-2992 201.44,-2992 123.69,-2980.35 123.69,-2951.65 201.44,-2940 302.13,-2940 379.88,-2951.65"/>
<text text-anchor="middle" x="251.79" y="-2962.3" font-family="Times-Roman" font-size="14.00" fill="#000000">emacs&#45;26.3 (151.74 MiB)</text>
</g>
<!-- N4 -->
<g id="node40" class="node">
<title>N4</title>
<polygon fill="#3ebbe7" stroke="#3ebbe7" points="381.18,-3028.54 381.18,-3043.46 305.38,-3054 198.19,-3054 122.4,-3043.46 122.4,-3028.54 198.19,-3018 305.38,-3018 381.18,-3028.54"/>
<polygon fill="none" stroke="#3ebbe7" points="385.18,-3025.06 385.18,-3046.94 305.66,-3058 197.92,-3058 118.4,-3046.94 118.4,-3025.06 197.92,-3014 305.66,-3014 385.18,-3025.06"/>
<polygon fill="none" stroke="#3ebbe7" points="389.17,-3021.58 389.17,-3050.42 305.94,-3062 197.64,-3062 114.4,-3050.42 114.4,-3021.58 197.64,-3010 305.94,-3010 389.17,-3021.58"/>
<text text-anchor="middle" x="251.79" y="-3032.3" font-family="Times-Roman" font-size="14.00" fill="#000000">gzdoom&#45;4.3.3 (163.52 MiB)</text>
</g>
<!-- N50 -->
<g id="node41" class="node">
<title>N50</title>
<polygon fill="#406be1" stroke="#406be1" points="407.23,-2258.54 407.23,-2273.46 316.18,-2284 187.4,-2284 96.34,-2273.46 96.34,-2258.54 187.4,-2248 316.18,-2248 407.23,-2258.54"/>
<polygon fill="none" stroke="#406be1" points="411.23,-2254.98 411.23,-2277.02 316.41,-2288 187.17,-2288 92.34,-2277.02 92.34,-2254.98 187.17,-2244 316.41,-2244 411.23,-2254.98"/>
<polygon fill="none" stroke="#406be1" points="415.23,-2251.42 415.23,-2280.58 316.64,-2292 186.94,-2292 88.34,-2280.58 88.34,-2251.42 186.94,-2240 316.64,-2240 415.23,-2251.42"/>
<text text-anchor="middle" x="251.79" y="-2262.3" font-family="Times-Roman" font-size="14.00" fill="#ffffff">firefox&#45;beta&#45;bin&#45;77.0b7 (3.25 MiB)</text>
</g>
<!-- N50&#45;&gt;N24 -->
<g id="edge30" class="edge">
<title>N50&#45;&gt;N24</title>
<path fill="none" stroke="black" d="M251.79,-2239.68C251.79,-2237.23 251.79,-2234.78 251.79,-2232.33"/>
<polygon fill="black" stroke="black" points="255.29,-2232.25 251.79,-2222.25 248.29,-2232.25 255.29,-2232.25"/>
</g>
<!-- N3&#45;&gt;N34 -->
<g id="edge31" class="edge">
<title>N3&#45;&gt;N34</title>
<path fill="none" stroke="black" d="M378.82,-1653.79C410.77,-1658.83 444.96,-1664.68 476.46,-1671 497.49,-1675.22 520.09,-1680.45 540.96,-1685.56"/>
<polygon fill="black" stroke="black" points="540.19,-1688.98 550.74,-1687.98 541.87,-1682.18 540.19,-1688.98"/>
</g>
<!-- N2 -->
<g id="node43" class="node">
<title>N2</title>
<polygon fill="#3de2eb" stroke="#3de2eb" points="371.47,-3098.54 371.47,-3113.46 301.36,-3124 202.21,-3124 132.11,-3113.46 132.11,-3098.54 202.21,-3088 301.36,-3088 371.47,-3098.54"/>
<polygon fill="none" stroke="#3de2eb" points="375.47,-3095.1 375.47,-3116.9 301.66,-3128 201.92,-3128 128.1,-3116.9 128.1,-3095.1 201.92,-3084 301.66,-3084 375.47,-3095.1"/>
<polygon fill="none" stroke="#3de2eb" points="379.48,-3091.66 379.48,-3120.34 301.96,-3132 201.62,-3132 124.1,-3120.34 124.1,-3091.66 201.62,-3080 301.96,-3080 379.48,-3091.66"/>
<text text-anchor="middle" x="251.79" y="-3102.3" font-family="Times-Roman" font-size="14.00" fill="#000000">elixir&#45;1.10.3 (271.33 MiB)</text>
</g>
<!-- N1 -->
<g id="node44" class="node">
<title>N1</title>
<polygon fill="#35f876" stroke="#35f876" points="416.94,-1978.54 416.94,-1993.46 320.2,-2004 183.38,-2004 86.64,-1993.46 86.64,-1978.54 183.38,-1968 320.2,-1968 416.94,-1978.54"/>
<polygon fill="none" stroke="#35f876" points="420.93,-1974.96 420.93,-1997.04 320.41,-2008 183.16,-2008 82.64,-1997.04 82.64,-1974.96 183.16,-1964 320.41,-1964 420.93,-1974.96"/>
<polygon fill="none" stroke="#35f876" points="424.93,-1971.37 424.93,-2000.63 320.63,-2012 182.95,-2012 78.65,-2000.63 78.65,-1971.37 182.95,-1960 320.63,-1960 424.93,-1971.37"/>
<text text-anchor="middle" x="251.79" y="-1982.3" font-family="Times-Roman" font-size="14.00" fill="#000000">kodi&#45;with&#45;plugins&#45;18.5 (594.74 MiB)</text>
</g>
<!-- N1&#45;&gt;N33 -->
<g id="edge32" class="edge">
<title>N1&#45;&gt;N33</title>
<path fill="none" stroke="black" d="M385.89,-2004.91C415.77,-2009.69 447.27,-2015.14 476.46,-2021 497.49,-2025.22 520.09,-2030.45 540.96,-2035.56"/>
<polygon fill="black" stroke="black" points="540.19,-2038.98 550.74,-2037.98 541.87,-2032.18 540.19,-2038.98"/>
</g>
<!-- N51 -->
<g id="node45" class="node">
<title>N51</title>
<polygon fill="#4071e1" stroke="#4071e1" points="353.8,-1068.54 353.8,-1083.46 294.04,-1094 209.53,-1094 149.78,-1083.46 149.78,-1068.54 209.53,-1058 294.04,-1058 353.8,-1068.54"/>
<polygon fill="none" stroke="#4071e1" points="357.8,-1065.19 357.8,-1086.81 294.39,-1098 209.18,-1098 145.78,-1086.81 145.78,-1065.19 209.18,-1054 294.39,-1054 357.8,-1065.19"/>
<polygon fill="none" stroke="#4071e1" points="361.8,-1061.83 361.8,-1090.17 294.74,-1102 208.83,-1102 141.78,-1090.17 141.78,-1061.83 208.83,-1050 294.74,-1050 361.8,-1061.83"/>
<text text-anchor="middle" x="251.79" y="-1072.3" font-family="Times-Roman" font-size="14.00" fill="#ffffff">piper&#45;0.4 (12.98 MiB)</text>
</g>
<!-- N51&#45;&gt;N35 -->
<g id="edge33" class="edge">
<title>N51&#45;&gt;N35</title>
<path fill="none" stroke="black" d="M362.16,-1065.55C410.36,-1060.94 466.75,-1055.55 514.39,-1051"/>
<polygon fill="black" stroke="black" points="514.79,-1054.47 524.41,-1050.04 514.13,-1047.5 514.79,-1054.47"/>
</g>
</g>
</svg>
