<?xml version="1.0" encoding="UTF-8" standalone="no"?>
<!DOCTYPE svg PUBLIC "-//W3C//DTD SVG 1.1//EN"
 "http://www.w3.org/Graphics/SVG/1.1/DTD/svg11.dtd">
<!-- Generated by graphviz version 2.43.0 (0)
 -->
<!-- Title: nixstore Pages: 1 -->
<svg width="776pt" height="2650pt"
 viewBox="0.00 0.00 776.46 2650.00" xmlns="http://www.w3.org/2000/svg" xmlns:xlink="http://www.w3.org/1999/xlink">
<g id="graph0" class="graph" transform="scale(1 1) rotate(0) translate(4 2646)">
<title>nixstore</title>
<polygon fill="white" stroke="transparent" points="-4,4 -4,-2646 772.46,-2646 772.46,4 -4,4"/>
<!-- N44 -->
<g id="node1" class="node">
<title>N44</title>
<polygon fill="#fe0000" stroke="#fe0000" points="363.08,-18.54 363.08,-33.46 297.89,-44 205.69,-44 140.49,-33.46 140.49,-18.54 205.69,-8 297.89,-8 363.08,-18.54"/>
<polygon fill="none" stroke="#fe0000" points="367.09,-15.14 367.09,-36.86 298.21,-48 205.37,-48 136.49,-36.86 136.49,-15.14 205.37,-4 298.21,-4 367.09,-15.14"/>
<polygon fill="none" stroke="#fe0000" points="371.09,-11.74 371.09,-40.26 298.53,-52 205.04,-52 132.48,-40.26 132.48,-11.74 205.04,0 298.53,0 371.09,-11.74"/>
<text text-anchor="middle" x="251.79" y="-22.3" font-family="Roboto" font-size="14.00" fill="#000000">{filtered out} (2.47 GiB)</text>
</g>
<!-- N32 -->
<g id="node2" class="node">
<title>N32</title>
<polygon fill="#3ec7e8" stroke="#3ec7e8" points="400.17,-508.54 400.17,-523.46 313.25,-534 190.33,-534 103.41,-523.46 103.41,-508.54 190.33,-498 313.25,-498 400.17,-508.54"/>
<polygon fill="none" stroke="#3ec7e8" points="404.16,-505 404.16,-527 313.49,-538 190.09,-538 99.41,-527 99.41,-505 190.09,-494 313.49,-494 404.16,-505"/>
<polygon fill="none" stroke="#3ec7e8" points="408.16,-501.46 408.16,-530.54 313.73,-542 189.85,-542 95.41,-530.54 95.41,-501.46 189.85,-490 313.73,-490 408.16,-501.46"/>
<text text-anchor="middle" x="251.79" y="-512.3" font-family="Roboto" font-size="14.00" fill="#000000">virt&#45;manager&#45;2.2.1 (207.55 MiB)</text>
</g>
<!-- N26 -->
<g id="node39" class="node">
<title>N26</title>
<polygon fill="#38f4ac" stroke="#38f4ac" points="739.46,-394 541.46,-394 541.46,-358 739.46,-358 739.46,-394"/>
<text text-anchor="middle" x="640.46" y="-372.3" font-family="Roboto" font-size="14.00" fill="#000000">cairo&#45;1.16.0&#45;dev (535.52 MiB)</text>
</g>
<!-- N32&#45;&gt;N26 -->
<g id="edge1" class="edge">
<title>N32&#45;&gt;N26</title>
<path fill="none" stroke="black" d="M404.82,-500.98C429.23,-496.09 453.87,-489.6 476.46,-481 527.29,-461.65 578.89,-424.9 610.03,-400.43"/>
<polygon fill="black" stroke="black" points="612.24,-403.15 617.88,-394.18 607.88,-397.67 612.24,-403.15"/>
</g>
<!-- N33 -->
<g id="node3" class="node">
<title>N33</title>
<polygon fill="#3fa9e5" stroke="#3fa9e5" points="377.64,-928.54 377.64,-943.46 303.92,-954 199.66,-954 125.93,-943.46 125.93,-928.54 199.66,-918 303.92,-918 377.64,-928.54"/>
<polygon fill="none" stroke="#3fa9e5" points="381.64,-925.08 381.64,-946.92 304.2,-958 199.37,-958 121.94,-946.92 121.94,-925.08 199.37,-914 304.2,-914 381.64,-925.08"/>
<polygon fill="none" stroke="#3fa9e5" points="385.64,-921.61 385.64,-950.39 304.49,-962 199.09,-962 117.94,-950.39 117.94,-921.61 199.09,-910 304.49,-910 385.64,-921.61"/>
<text text-anchor="middle" x="251.79" y="-932.3" font-family="Roboto" font-size="14.00" fill="#ffffff">neovim&#45;0.4.3 (128.65 MiB)</text>
</g>
<!-- N29 -->
<g id="node40" class="node">
<title>N29</title>
<polygon fill="#3face6" stroke="#3face6" points="717.96,-779 562.96,-779 562.96,-743 717.96,-743 717.96,-779"/>
<text text-anchor="middle" x="640.46" y="-757.3" font-family="Roboto" font-size="14.00" fill="#ffffff">gcc&#45;9.3.0 (136.80 MiB)</text>
</g>
<!-- N33&#45;&gt;N29 -->
<g id="edge2" class="edge">
<title>N33&#45;&gt;N29</title>
<path fill="none" stroke="black" d="M385.86,-927.5C416.58,-922.22 448.45,-913.93 476.46,-901 535.17,-873.91 589.09,-819.33 617.81,-786.9"/>
<polygon fill="black" stroke="black" points="620.62,-789 624.55,-779.17 615.34,-784.4 620.62,-789"/>
</g>
<!-- N34 -->
<g id="node4" class="node">
<title>N34</title>
<polygon fill="#406be1" stroke="#406be1" points="367.04,-858.54 367.04,-873.46 299.53,-884 204.05,-884 136.53,-873.46 136.53,-858.54 204.05,-848 299.53,-848 367.04,-858.54"/>
<polygon fill="none" stroke="#406be1" points="371.04,-855.12 371.04,-876.88 299.84,-888 203.74,-888 132.54,-876.88 132.54,-855.12 203.74,-844 299.84,-844 371.04,-855.12"/>
<polygon fill="none" stroke="#406be1" points="375.03,-851.7 375.03,-880.3 300.15,-892 203.43,-892 128.54,-880.3 128.54,-851.7 203.43,-840 300.15,-840 375.03,-851.7"/>
<text text-anchor="middle" x="251.79" y="-862.3" font-family="Roboto" font-size="14.00" fill="#ffffff">polybar&#45;3.4.3 (3.34 MiB)</text>
</g>
<!-- N34&#45;&gt;N29 -->
<g id="edge3" class="edge">
<title>N34&#45;&gt;N29</title>
<path fill="none" stroke="black" d="M375.31,-852.48C408.5,-847.29 444.17,-840.3 476.46,-831 518.08,-819.01 563.16,-799.08 595.34,-783.54"/>
<polygon fill="black" stroke="black" points="597.02,-786.61 604.48,-779.08 593.95,-780.32 597.02,-786.61"/>
</g>
<!-- N25 -->
<g id="node5" class="node">
<title>N25</title>
<polygon fill="#37f59d" stroke="#37f59d" points="396.63,-998.54 396.63,-1013.46 311.78,-1024 191.79,-1024 106.95,-1013.46 106.95,-998.54 191.79,-988 311.78,-988 396.63,-998.54"/>
<polygon fill="none" stroke="#37f59d" points="400.63,-995.01 400.63,-1016.99 312.03,-1028 191.55,-1028 102.95,-1016.99 102.95,-995.01 191.55,-984 312.03,-984 400.63,-995.01"/>
<polygon fill="none" stroke="#37f59d" points="404.63,-991.48 404.63,-1020.52 312.28,-1032 191.3,-1032 98.95,-1020.52 98.95,-991.48 191.3,-980 312.28,-980 404.63,-991.48"/>
<text text-anchor="middle" x="251.79" y="-1002.3" font-family="Roboto" font-size="14.00" fill="#000000">libreoffice&#45;6.4.3.2 (569.54 MiB)</text>
</g>
<!-- N30 -->
<g id="node41" class="node">
<title>N30</title>
<polygon fill="#3ec6e8" stroke="#3ec6e8" points="747.96,-1094 532.96,-1094 532.96,-1058 747.96,-1058 747.96,-1094"/>
<text text-anchor="middle" x="640.46" y="-1072.3" font-family="Roboto" font-size="14.00" fill="#000000">openjdk&#45;8u242&#45;b08 (205.15 MiB)</text>
</g>
<!-- N25&#45;&gt;N30 -->
<g id="edge4" class="edge">
<title>N25&#45;&gt;N30</title>
<path fill="none" stroke="black" d="M376.35,-1024.06C408.97,-1029.18 444.1,-1035 476.46,-1041 500.24,-1045.41 525.87,-1050.67 549.6,-1055.76"/>
<polygon fill="black" stroke="black" points="549.13,-1059.23 559.64,-1057.92 550.6,-1052.39 549.13,-1059.23"/>
</g>
<!-- N24 -->
<g id="node6" class="node">
<title>N24</title>
<polygon fill="#3ec4e8" stroke="#3ec4e8" points="435.51,-1348.54 435.51,-1363.46 327.89,-1374 175.69,-1374 68.07,-1363.46 68.07,-1348.54 175.69,-1338 327.89,-1338 435.51,-1348.54"/>
<polygon fill="none" stroke="#3ec4e8" points="439.51,-1344.92 439.51,-1367.08 328.08,-1378 175.49,-1378 64.07,-1367.08 64.07,-1344.92 175.49,-1334 328.08,-1334 439.51,-1344.92"/>
<polygon fill="none" stroke="#3ec4e8" points="443.51,-1341.29 443.51,-1370.71 328.28,-1382 175.3,-1382 60.07,-1370.71 60.07,-1341.29 175.3,-1330 328.28,-1330 443.51,-1341.29"/>
<text text-anchor="middle" x="251.79" y="-1352.3" font-family="Roboto" font-size="14.00" fill="#000000">tor&#45;browser&#45;bundle&#45;bin&#45;9.5 (198.17 MiB)</text>
</g>
<!-- N22 -->
<g id="node8" class="node">
<title>N22</title>
<polygon fill="#3ec7e8" stroke="#3ec7e8" points="398.85,-1208.54 398.85,-1223.46 312.7,-1234 190.87,-1234 104.73,-1223.46 104.73,-1208.54 190.87,-1198 312.7,-1198 398.85,-1208.54"/>
<polygon fill="none" stroke="#3ec7e8" points="402.85,-1205 402.85,-1227 312.95,-1238 190.63,-1238 100.73,-1227 100.73,-1205 190.63,-1194 312.95,-1194 402.85,-1205"/>
<polygon fill="none" stroke="#3ec7e8" points="406.85,-1201.46 406.85,-1230.54 313.19,-1242 190.39,-1242 96.73,-1230.54 96.73,-1201.46 190.39,-1190 313.19,-1190 406.85,-1201.46"/>
<text text-anchor="middle" x="251.79" y="-1212.3" font-family="Roboto" font-size="14.00" fill="#000000">glibc&#45;locales&#45;2.30 (209.50 MiB)</text>
</g>
<!-- N24&#45;&gt;N22 -->
<g id="edge5" class="edge">
<title>N24&#45;&gt;N22</title>
<path fill="none" stroke="black" d="M94.43,-1337.84C71.58,-1333.38 48.55,-1327.84 27.11,-1321 18.59,-1318.28 13.81,-1319.61 9.11,-1312 -3.04,-1292.34 -3.04,-1279.66 9.11,-1260 26.35,-1232.11 54.99,-1216.97 86.67,-1209.44"/>
<polygon fill="black" stroke="black" points="87.53,-1212.84 96.59,-1207.34 86.08,-1205.99 87.53,-1212.84"/>
</g>
<!-- N23 -->
<g id="node7" class="node">
<title>N23</title>
<polygon fill="#3ce8ec" stroke="#3ce8ec" points="378.54,-1138.54 378.54,-1153.46 304.29,-1164 199.29,-1164 125.04,-1153.46 125.04,-1138.54 199.29,-1128 304.29,-1128 378.54,-1138.54"/>
<polygon fill="none" stroke="#3ce8ec" points="382.54,-1135.07 382.54,-1156.93 304.57,-1168 199,-1168 121.03,-1156.93 121.03,-1135.07 199,-1124 304.57,-1124 382.54,-1135.07"/>
<polygon fill="none" stroke="#3ce8ec" points="386.55,-1131.6 386.55,-1160.4 304.86,-1172 198.72,-1172 117.03,-1160.4 117.03,-1131.6 198.72,-1120 304.86,-1120 386.55,-1131.6"/>
<text text-anchor="middle" x="251.79" y="-1142.3" font-family="Roboto" font-size="14.00" fill="#000000">arduino&#45;1.8.9 (310.06 MiB)</text>
</g>
<!-- N23&#45;&gt;N30 -->
<g id="edge6" class="edge">
<title>N23&#45;&gt;N30</title>
<path fill="none" stroke="black" d="M369.09,-1129.07C403.71,-1123.69 441.68,-1117.45 476.46,-1111 500.24,-1106.59 525.87,-1101.33 549.6,-1096.24"/>
<polygon fill="black" stroke="black" points="550.6,-1099.61 559.64,-1094.08 549.13,-1092.77 550.6,-1099.61"/>
</g>
<!-- N21 -->
<g id="node9" class="node">
<title>N21</title>
<polygon fill="#3ec3e8" stroke="#3ec3e8" points="416.52,-1418.54 416.52,-1433.46 320.02,-1444 183.56,-1444 87.06,-1433.46 87.06,-1418.54 183.56,-1408 320.02,-1408 416.52,-1418.54"/>
<polygon fill="none" stroke="#3ec3e8" points="420.52,-1414.96 420.52,-1437.04 320.24,-1448 183.34,-1448 83.06,-1437.04 83.06,-1414.96 183.34,-1404 320.24,-1404 420.52,-1414.96"/>
<polygon fill="none" stroke="#3ec3e8" points="424.52,-1411.37 424.52,-1440.63 320.46,-1452 183.12,-1452 79.05,-1440.63 79.05,-1411.37 183.12,-1400 320.46,-1400 424.52,-1411.37"/>
<text text-anchor="middle" x="251.79" y="-1422.3" font-family="Roboto" font-size="14.00" fill="#000000">thunderbird&#45;bin&#45;68.9.0 (195.76 MiB)</text>
</g>
<!-- N20 -->
<g id="node10" class="node">
<title>N20</title>
<polygon fill="#3ec1e8" stroke="#3ec1e8" points="389.56,-158.54 389.56,-173.46 308.86,-184 194.72,-184 114.01,-173.46 114.01,-158.54 194.72,-148 308.86,-148 389.56,-158.54"/>
<polygon fill="none" stroke="#3ec1e8" points="393.56,-155.03 393.56,-176.97 309.12,-188 194.46,-188 110.02,-176.97 110.02,-155.03 194.46,-144 309.12,-144 393.56,-155.03"/>
<polygon fill="none" stroke="#3ec1e8" points="397.56,-151.52 397.56,-180.48 309.38,-192 194.2,-192 106.02,-180.48 106.02,-151.52 194.2,-140 309.38,-140 397.56,-151.52"/>
<text text-anchor="middle" x="251.79" y="-162.3" font-family="Roboto" font-size="14.00" fill="#000000">inkscape&#45;0.92.5 (190.75 MiB)</text>
</g>
<!-- N31 -->
<g id="node42" class="node">
<title>N31</title>
<polygon fill="#3fafe6" stroke="#3fafe6" points="715.96,-184 564.96,-184 564.96,-148 715.96,-148 715.96,-184"/>
<text text-anchor="middle" x="640.46" y="-162.3" font-family="Roboto" font-size="14.00" fill="#ffffff">lapack&#45;3 (143.49 MiB)</text>
</g>
<!-- N20&#45;&gt;N31 -->
<g id="edge7" class="edge">
<title>N20&#45;&gt;N31</title>
<path fill="none" stroke="black" d="M397.6,-166C450.52,-166 508.63,-166 554.62,-166"/>
<polygon fill="black" stroke="black" points="554.84,-169.5 564.84,-166 554.84,-162.5 554.84,-169.5"/>
</g>
<!-- N19 -->
<g id="node11" class="node">
<title>N19</title>
<polygon fill="#3ec1e8" stroke="#3ec1e8" points="380.75,-1628.54 380.75,-1643.46 305.21,-1654 198.37,-1654 122.82,-1643.46 122.82,-1628.54 198.37,-1618 305.21,-1618 380.75,-1628.54"/>
<polygon fill="none" stroke="#3ec1e8" points="384.76,-1625.06 384.76,-1646.94 305.49,-1658 198.09,-1658 118.82,-1646.94 118.82,-1625.06 198.09,-1614 305.49,-1614 384.76,-1625.06"/>
<polygon fill="none" stroke="#3ec1e8" points="388.77,-1621.58 388.77,-1650.42 305.76,-1662 197.81,-1662 114.81,-1650.42 114.81,-1621.58 197.81,-1610 305.76,-1610 388.77,-1621.58"/>
<text text-anchor="middle" x="251.79" y="-1632.3" font-family="Roboto" font-size="14.00" fill="#000000">fritzing&#45;0.9.3b (190.99 MiB)</text>
</g>
<!-- N28 -->
<g id="node43" class="node">
<title>N28</title>
<polygon fill="#3fa0e5" stroke="#3fa0e5" points="729.46,-1584 551.46,-1584 551.46,-1548 729.46,-1548 729.46,-1584"/>
<text text-anchor="middle" x="640.46" y="-1562.3" font-family="Roboto" font-size="14.00" fill="#ffffff">bash&#45;4.4&#45;p23 (105.39 MiB)</text>
</g>
<!-- N19&#45;&gt;N28 -->
<g id="edge8" class="edge">
<title>N19&#45;&gt;N28</title>
<path fill="none" stroke="black" d="M369.96,-1618.94C404.34,-1613.59 441.97,-1607.4 476.46,-1601 500.24,-1596.59 525.87,-1591.33 549.6,-1586.24"/>
<polygon fill="black" stroke="black" points="550.6,-1589.61 559.64,-1584.08 549.13,-1582.77 550.6,-1589.61"/>
</g>
<!-- N35 -->
<g id="node12" class="node">
<title>N35</title>
<polygon fill="#4169e1" stroke="#4169e1" points="383.82,-1068.54 383.82,-1083.46 306.48,-1094 197.1,-1094 119.76,-1083.46 119.76,-1068.54 197.1,-1058 306.48,-1058 383.82,-1068.54"/>
<polygon fill="none" stroke="#4169e1" points="387.81,-1065.05 387.81,-1086.95 306.75,-1098 196.83,-1098 115.77,-1086.95 115.77,-1065.05 196.83,-1054 306.75,-1054 387.81,-1065.05"/>
<polygon fill="none" stroke="#4169e1" points="391.8,-1061.56 391.8,-1090.44 307.02,-1102 196.56,-1102 111.77,-1090.44 111.77,-1061.56 196.56,-1050 307.02,-1050 391.8,-1061.56"/>
<text text-anchor="middle" x="251.79" y="-1072.3" font-family="Roboto" font-size="14.00" fill="#ffffff">libreoffice&#45;6.4.3.2 (3.55 KiB)</text>
</g>
<!-- N35&#45;&gt;N25 -->
<g id="edge9" class="edge">
<title>N35&#45;&gt;N25</title>
<path fill="none" stroke="black" d="M251.79,-1049.68C251.79,-1047.23 251.79,-1044.78 251.79,-1042.33"/>
<polygon fill="black" stroke="black" points="255.29,-1042.25 251.79,-1032.25 248.29,-1042.25 255.29,-1042.25"/>
</g>
<!-- N18 -->
<g id="node13" class="node">
<title>N18</title>
<polygon fill="#3ddaea" stroke="#3ddaea" points="431.97,-1698.54 431.97,-1713.46 326.42,-1724 177.15,-1724 71.6,-1713.46 71.6,-1698.54 177.15,-1688 326.42,-1688 431.97,-1698.54"/>
<polygon fill="none" stroke="#3ddaea" points="435.97,-1694.92 435.97,-1717.08 326.62,-1728 176.95,-1728 67.6,-1717.08 67.6,-1694.92 176.95,-1684 326.62,-1684 435.97,-1694.92"/>
<polygon fill="none" stroke="#3ddaea" points="439.98,-1691.3 439.98,-1720.7 326.82,-1732 176.75,-1732 63.6,-1720.7 63.6,-1691.3 176.75,-1680 326.82,-1680 439.98,-1691.3"/>
<text text-anchor="middle" x="251.79" y="-1702.3" font-family="Roboto" font-size="14.00" fill="#000000">qemu&#45;host&#45;cpu&#45;only&#45;4.2.0 (263.68 MiB)</text>
</g>
<!-- N36 -->
<g id="node14" class="node">
<title>N36</title>
<polygon fill="#3f9ae4" stroke="#3f9ae4" points="398.85,-788.54 398.85,-803.46 312.7,-814 190.87,-814 104.73,-803.46 104.73,-788.54 190.87,-778 312.7,-778 398.85,-788.54"/>
<polygon fill="none" stroke="#3f9ae4" points="402.85,-785 402.85,-807 312.95,-818 190.63,-818 100.73,-807 100.73,-785 190.63,-774 312.95,-774 402.85,-785"/>
<polygon fill="none" stroke="#3f9ae4" points="406.85,-781.46 406.85,-810.54 313.19,-822 190.39,-822 96.73,-810.54 96.73,-781.46 190.39,-770 313.19,-770 406.85,-781.46"/>
<text text-anchor="middle" x="251.79" y="-792.3" font-family="Roboto" font-size="14.00" fill="#ffffff">stepmania&#45;5.1.0&#45;b2 (93.37 MiB)</text>
</g>
<!-- N36&#45;&gt;N29 -->
<g id="edge10" class="edge">
<title>N36&#45;&gt;N29</title>
<path fill="none" stroke="black" d="M407,-782.04C456.59,-777.55 509.77,-772.74 552.73,-768.85"/>
<polygon fill="black" stroke="black" points="553.22,-772.32 562.86,-767.93 552.58,-765.35 553.22,-772.32"/>
</g>
<!-- N17 -->
<g id="node15" class="node">
<title>N17</title>
<polygon fill="#3ebee7" stroke="#3ebee7" points="398.85,-438.54 398.85,-453.46 312.7,-464 190.87,-464 104.73,-453.46 104.73,-438.54 190.87,-428 312.7,-428 398.85,-438.54"/>
<polygon fill="none" stroke="#3ebee7" points="402.85,-435 402.85,-457 312.95,-468 190.63,-468 100.73,-457 100.73,-435 190.63,-424 312.95,-424 402.85,-435"/>
<polygon fill="none" stroke="#3ebee7" points="406.85,-431.46 406.85,-460.54 313.19,-472 190.39,-472 96.73,-460.54 96.73,-431.46 190.39,-420 313.19,-420 406.85,-431.46"/>
<text text-anchor="middle" x="251.79" y="-442.3" font-family="Roboto" font-size="14.00" fill="#000000">wireshark&#45;qt&#45;3.2.4 (182.71 MiB)</text>
</g>
<!-- N17&#45;&gt;N26 -->
<g id="edge11" class="edge">
<title>N17&#45;&gt;N26</title>
<path fill="none" stroke="black" d="M377.23,-427.8C409.6,-422.72 444.39,-416.95 476.46,-411 500.24,-406.59 525.87,-401.33 549.6,-396.24"/>
<polygon fill="black" stroke="black" points="550.6,-399.61 559.64,-394.08 549.13,-392.77 550.6,-399.61"/>
</g>
<!-- N16 -->
<g id="node16" class="node">
<title>N16</title>
<polygon fill="#3ec5e8" stroke="#3ec5e8" points="468.63,-1768.54 468.63,-1783.46 341.61,-1794 161.97,-1794 34.94,-1783.46 34.94,-1768.54 161.97,-1758 341.61,-1758 468.63,-1768.54"/>
<polygon fill="none" stroke="#3ec5e8" points="472.64,-1764.86 472.64,-1787.14 341.77,-1798 161.8,-1798 30.94,-1787.14 30.94,-1764.86 161.8,-1754 341.77,-1754 472.64,-1764.86"/>
<polygon fill="none" stroke="#3ec5e8" points="476.64,-1761.18 476.64,-1790.82 341.94,-1802 161.64,-1802 26.94,-1790.82 26.94,-1761.18 161.64,-1750 341.94,-1750 476.64,-1761.18"/>
<text text-anchor="middle" x="251.79" y="-1772.3" font-family="Roboto" font-size="14.00" fill="#000000">firefox&#45;beta&#45;bin&#45;unwrapped&#45;77.0b7 (203.80 MiB)</text>
</g>
<!-- N38 -->
<g id="node17" class="node">
<title>N38</title>
<polygon fill="#406ae1" stroke="#406ae1" points="412.09,-2048.54 412.09,-2063.46 318.19,-2074 185.39,-2074 91.49,-2063.46 91.49,-2048.54 185.39,-2038 318.19,-2038 412.09,-2048.54"/>
<polygon fill="none" stroke="#406ae1" points="416.08,-2044.97 416.08,-2067.03 318.41,-2078 185.17,-2078 87.49,-2067.03 87.49,-2044.97 185.17,-2034 318.41,-2034 416.08,-2044.97"/>
<polygon fill="none" stroke="#406ae1" points="420.08,-2041.39 420.08,-2070.61 318.63,-2082 184.94,-2082 83.5,-2070.61 83.5,-2041.39 184.94,-2030 318.63,-2030 420.08,-2041.39"/>
<text text-anchor="middle" x="251.79" y="-2052.3" font-family="Roboto" font-size="14.00" fill="#ffffff">nvidia&#45;settings&#45;390.132 (1.67 MiB)</text>
</g>
<!-- N37 -->
<g id="node24" class="node">
<title>N37</title>
<polygon fill="#4084e2" stroke="#4084e2" points="442.58,-1978.54 442.58,-1993.46 330.81,-2004 172.76,-2004 61,-1993.46 61,-1978.54 172.76,-1968 330.81,-1968 442.58,-1978.54"/>
<polygon fill="none" stroke="#4084e2" points="446.58,-1974.9 446.58,-1997.1 331,-2008 172.57,-2008 57,-1997.1 57,-1974.9 172.57,-1964 331,-1964 446.58,-1974.9"/>
<polygon fill="none" stroke="#4084e2" points="450.58,-1971.26 450.58,-2000.74 331.19,-2012 172.38,-2012 53,-2000.74 53,-1971.26 172.38,-1960 331.19,-1960 450.58,-1971.26"/>
<text text-anchor="middle" x="251.79" y="-1982.3" font-family="Roboto" font-size="14.00" fill="#ffffff">nvidia&#45;x11&#45;390.132&#45;5.4.44&#45;bin (46.91 MiB)</text>
</g>
<!-- N38&#45;&gt;N37 -->
<g id="edge12" class="edge">
<title>N38&#45;&gt;N37</title>
<path fill="none" stroke="black" d="M251.79,-2029.68C251.79,-2027.23 251.79,-2024.78 251.79,-2022.33"/>
<polygon fill="black" stroke="black" points="255.29,-2022.25 251.79,-2012.25 248.29,-2022.25 255.29,-2022.25"/>
</g>
<!-- N15 -->
<g id="node18" class="node">
<title>N15</title>
<polygon fill="#3ddfeb" stroke="#3ddfeb" points="458.03,-2118.54 458.03,-2133.46 337.22,-2144 166.36,-2144 45.55,-2133.46 45.55,-2118.54 166.36,-2108 337.22,-2108 458.03,-2118.54"/>
<polygon fill="none" stroke="#3ddfeb" points="462.03,-2114.88 462.03,-2137.12 337.39,-2148 166.19,-2148 41.54,-2137.12 41.54,-2114.88 166.19,-2104 337.39,-2104 462.03,-2114.88"/>
<polygon fill="none" stroke="#3ddfeb" points="466.04,-2111.21 466.04,-2140.79 337.57,-2152 166.01,-2152 37.54,-2140.79 37.54,-2111.21 166.01,-2100 337.57,-2100 466.04,-2111.21"/>
<text text-anchor="middle" x="251.79" y="-2122.3" font-family="Roboto" font-size="14.00" fill="#000000">spotifywm&#45;unstable&#45;2016&#45;11&#45;28 (279.08 MiB)</text>
</g>
<!-- N14 -->
<g id="node19" class="node">
<title>N14</title>
<polygon fill="#3ddaea" stroke="#3ddaea" points="380.75,-88.54 380.75,-103.46 305.21,-114 198.37,-114 122.82,-103.46 122.82,-88.54 198.37,-78 305.21,-78 380.75,-88.54"/>
<polygon fill="none" stroke="#3ddaea" points="384.76,-85.06 384.76,-106.94 305.49,-118 198.09,-118 118.82,-106.94 118.82,-85.06 198.09,-74 305.49,-74 384.76,-85.06"/>
<polygon fill="none" stroke="#3ddaea" points="388.77,-81.58 388.77,-110.42 305.76,-122 197.81,-122 114.81,-110.42 114.81,-81.58 197.81,-70 305.76,-70 388.77,-81.58"/>
<text text-anchor="middle" x="251.79" y="-92.3" font-family="Roboto" font-size="14.00" fill="#000000">blender&#45;2.82a (264.92 MiB)</text>
</g>
<!-- N14&#45;&gt;N31 -->
<g id="edge13" class="edge">
<title>N14&#45;&gt;N31</title>
<path fill="none" stroke="black" d="M369.96,-113.06C404.34,-118.41 441.97,-124.6 476.46,-131 501.96,-135.73 529.58,-141.44 554.71,-146.86"/>
<polygon fill="black" stroke="black" points="554.06,-150.3 564.58,-149 555.55,-143.46 554.06,-150.3"/>
</g>
<!-- N13 -->
<g id="node20" class="node">
<title>N13</title>
<polygon fill="#3eb9e7" stroke="#3eb9e7" points="395.31,-718.54 395.31,-733.46 311.24,-744 192.34,-744 108.26,-733.46 108.26,-718.54 192.34,-708 311.24,-708 395.31,-718.54"/>
<polygon fill="none" stroke="#3eb9e7" points="399.31,-715.01 399.31,-736.99 311.49,-748 192.09,-748 104.26,-736.99 104.26,-715.01 192.09,-704 311.49,-704 399.31,-715.01"/>
<polygon fill="none" stroke="#3eb9e7" points="403.31,-711.48 403.31,-740.52 311.74,-752 191.84,-752 100.26,-740.52 100.26,-711.48 191.84,-700 311.74,-700 403.31,-711.48"/>
<text text-anchor="middle" x="251.79" y="-722.3" font-family="Roboto" font-size="14.00" fill="#000000">upwork&#45;5.3.3.862 (168.58 MiB)</text>
</g>
<!-- N13&#45;&gt;N29 -->
<g id="edge14" class="edge">
<title>N13&#45;&gt;N29</title>
<path fill="none" stroke="black" d="M403.39,-739.63C454.05,-744.22 508.83,-749.18 552.86,-753.16"/>
<polygon fill="black" stroke="black" points="552.67,-756.66 562.94,-754.07 553.3,-749.69 552.67,-756.66"/>
</g>
<!-- N12 -->
<g id="node21" class="node">
<title>N12</title>
<polygon fill="#34f955" stroke="#34f955" points="416.94,-1558.54 416.94,-1573.46 320.2,-1584 183.38,-1584 86.64,-1573.46 86.64,-1558.54 183.38,-1548 320.2,-1548 416.94,-1558.54"/>
<polygon fill="none" stroke="#34f955" points="420.93,-1554.96 420.93,-1577.04 320.41,-1588 183.16,-1588 82.64,-1577.04 82.64,-1554.96 183.16,-1544 320.41,-1544 420.93,-1554.96"/>
<polygon fill="none" stroke="#34f955" points="424.93,-1551.37 424.93,-1580.63 320.63,-1592 182.95,-1592 78.65,-1580.63 78.65,-1551.37 182.95,-1540 320.63,-1540 424.93,-1551.37"/>
<text text-anchor="middle" x="251.79" y="-1562.3" font-family="Roboto" font-size="14.00" fill="#000000">kodi&#45;with&#45;plugins&#45;18.5 (672.20 MiB)</text>
</g>
<!-- N12&#45;&gt;N28 -->
<g id="edge15" class="edge">
<title>N12&#45;&gt;N28</title>
<path fill="none" stroke="black" d="M425.21,-1566C464.89,-1566 505.76,-1566 541.03,-1566"/>
<polygon fill="black" stroke="black" points="541.31,-1569.5 551.31,-1566 541.31,-1562.5 541.31,-1569.5"/>
</g>
<!-- N11 -->
<g id="node22" class="node">
<title>N11</title>
<polygon fill="#3ec5e8" stroke="#3ec5e8" points="373.68,-2188.54 373.68,-2203.46 302.28,-2214 201.3,-2214 129.89,-2203.46 129.89,-2188.54 201.3,-2178 302.28,-2178 373.68,-2188.54"/>
<polygon fill="none" stroke="#3ec5e8" points="377.69,-2185.09 377.69,-2206.91 302.57,-2218 201,-2218 125.89,-2206.91 125.89,-2185.09 201,-2174 302.57,-2174 377.69,-2185.09"/>
<polygon fill="none" stroke="#3ec5e8" points="381.7,-2181.64 381.7,-2210.36 302.87,-2222 200.71,-2222 121.88,-2210.36 121.88,-2181.64 200.71,-2170 302.87,-2170 381.7,-2181.64"/>
<text text-anchor="middle" x="251.79" y="-2192.3" font-family="Roboto" font-size="14.00" fill="#000000">astroid&#45;0.15 (202.14 MiB)</text>
</g>
<!-- N10 -->
<g id="node23" class="node">
<title>N10</title>
<polygon fill="#3befd9" stroke="#3befd9" points="364.4,-1488.54 364.4,-1503.46 298.43,-1514 205.14,-1514 139.17,-1503.46 139.17,-1488.54 205.14,-1478 298.43,-1478 364.4,-1488.54"/>
<polygon fill="none" stroke="#3befd9" points="368.4,-1485.13 368.4,-1506.87 298.75,-1518 204.82,-1518 135.17,-1506.87 135.17,-1485.13 204.82,-1474 298.75,-1474 368.4,-1485.13"/>
<polygon fill="none" stroke="#3befd9" points="372.41,-1481.72 372.41,-1510.28 299.07,-1522 204.51,-1522 131.17,-1510.28 131.17,-1481.72 204.51,-1470 299.07,-1470 372.41,-1481.72"/>
<text text-anchor="middle" x="251.79" y="-1492.3" font-family="Roboto" font-size="14.00" fill="#000000">cura&#45;4.4.0 (400.17 MiB)</text>
</g>
<!-- N10&#45;&gt;N28 -->
<g id="edge16" class="edge">
<title>N10&#45;&gt;N28</title>
<path fill="none" stroke="black" d="M362.5,-1511.91C398.85,-1517.51 439.46,-1524.14 476.46,-1531 500.24,-1535.41 525.87,-1540.67 549.6,-1545.76"/>
<polygon fill="black" stroke="black" points="549.13,-1549.23 559.64,-1547.92 550.6,-1542.39 549.13,-1549.23"/>
</g>
<!-- N27 -->
<g id="node44" class="node">
<title>N27</title>
<polygon fill="#3fafe6" stroke="#3fafe6" points="768.46,-1969 512.46,-1969 512.46,-1933 768.46,-1933 768.46,-1969"/>
<text text-anchor="middle" x="640.46" y="-1947.3" font-family="Roboto" font-size="14.00" fill="#ffffff">nvidia&#45;x11&#45;390.132&#45;5.4.44 (142.84 MiB)</text>
</g>
<!-- N37&#45;&gt;N27 -->
<g id="edge17" class="edge">
<title>N37&#45;&gt;N27</title>
<path fill="none" stroke="black" d="M433.67,-1969.63C456.68,-1967.54 479.93,-1965.44 502.1,-1963.43"/>
<polygon fill="black" stroke="black" points="502.57,-1966.91 512.21,-1962.52 501.93,-1959.93 502.57,-1966.91"/>
</g>
<!-- N9 -->
<g id="node25" class="node">
<title>N9</title>
<polygon fill="#fed600" stroke="#fed600" points="337.02,-1278.54 337.02,-1293.46 287.09,-1304 216.48,-1304 166.55,-1293.46 166.55,-1278.54 216.48,-1268 287.09,-1268 337.02,-1278.54"/>
<polygon fill="none" stroke="#fed600" points="341.03,-1275.3 341.03,-1296.7 287.51,-1308 216.06,-1308 162.55,-1296.7 162.55,-1275.3 216.06,-1264 287.51,-1264 341.03,-1275.3"/>
<polygon fill="none" stroke="#fed600" points="345.03,-1272.06 345.03,-1299.94 287.93,-1312 215.65,-1312 158.54,-1299.94 158.54,-1272.06 215.65,-1260 287.93,-1260 345.03,-1272.06"/>
<text text-anchor="middle" x="251.79" y="-1282.3" font-family="Roboto" font-size="14.00" fill="#000000">steam (1.65 GiB)</text>
</g>
<!-- N9&#45;&gt;N22 -->
<g id="edge18" class="edge">
<title>N9&#45;&gt;N22</title>
<path fill="none" stroke="black" d="M251.79,-1259.68C251.79,-1257.23 251.79,-1254.78 251.79,-1252.33"/>
<polygon fill="black" stroke="black" points="255.29,-1252.25 251.79,-1242.25 248.29,-1252.25 255.29,-1252.25"/>
</g>
<!-- N39 -->
<g id="node26" class="node">
<title>N39</title>
<polygon fill="#4069e1" stroke="#4069e1" points="376.32,-368.54 376.32,-383.46 303.37,-394 200.2,-394 127.25,-383.46 127.25,-368.54 200.2,-358 303.37,-358 376.32,-368.54"/>
<polygon fill="none" stroke="#4069e1" points="380.32,-365.08 380.32,-386.92 303.66,-398 199.92,-398 123.25,-386.92 123.25,-365.08 199.92,-354 303.66,-354 380.32,-365.08"/>
<polygon fill="none" stroke="#4069e1" points="384.32,-361.62 384.32,-390.38 303.95,-402 199.63,-402 119.25,-390.38 119.25,-361.62 199.63,-350 303.95,-350 384.32,-361.62"/>
<text text-anchor="middle" x="251.79" y="-372.3" font-family="Roboto" font-size="14.00" fill="#ffffff">arandr&#45;0.1.10 (203.91 KiB)</text>
</g>
<!-- N39&#45;&gt;N26 -->
<g id="edge19" class="edge">
<title>N39&#45;&gt;N26</title>
<path fill="none" stroke="black" d="M384.51,-376C432.22,-376 485.53,-376 531.01,-376"/>
<polygon fill="black" stroke="black" points="531.19,-379.5 541.19,-376 531.19,-372.5 531.19,-379.5"/>
</g>
<!-- N8 -->
<g id="node27" class="node">
<title>N8</title>
<polygon fill="#3fb2e6" stroke="#3fb2e6" points="377.64,-228.54 377.64,-243.46 303.92,-254 199.66,-254 125.93,-243.46 125.93,-228.54 199.66,-218 303.92,-218 377.64,-228.54"/>
<polygon fill="none" stroke="#3fb2e6" points="381.64,-225.08 381.64,-246.92 304.2,-258 199.37,-258 121.94,-246.92 121.94,-225.08 199.37,-214 304.2,-214 381.64,-225.08"/>
<polygon fill="none" stroke="#3fb2e6" points="385.64,-221.61 385.64,-250.39 304.49,-262 199.09,-262 117.94,-250.39 117.94,-221.61 199.09,-210 304.49,-210 385.64,-221.61"/>
<text text-anchor="middle" x="251.79" y="-232.3" font-family="Roboto" font-size="14.00" fill="#ffffff">gimp&#45;2.10.18 (150.63 MiB)</text>
</g>
<!-- N8&#45;&gt;N26 -->
<g id="edge20" class="edge">
<title>N8&#45;&gt;N26</title>
<path fill="none" stroke="black" d="M385.86,-247.51C416.26,-252.68 448,-260.16 476.46,-271 527.29,-290.35 578.89,-327.1 610.03,-351.57"/>
<polygon fill="black" stroke="black" points="607.88,-354.33 617.88,-357.82 612.24,-348.85 607.88,-354.33"/>
</g>
<!-- N8&#45;&gt;N31 -->
<g id="edge21" class="edge">
<title>N8&#45;&gt;N31</title>
<path fill="none" stroke="black" d="M368.8,-219.12C403.5,-213.73 441.59,-207.47 476.46,-201 501.96,-196.27 529.58,-190.56 554.71,-185.14"/>
<polygon fill="black" stroke="black" points="555.55,-188.54 564.58,-183 554.06,-181.7 555.55,-188.54"/>
</g>
<!-- N7 -->
<g id="node28" class="node">
<title>N7</title>
<polygon fill="#3ce8ec" stroke="#3ce8ec" points="358.65,-2258.54 358.65,-2273.46 296.05,-2284 207.52,-2284 144.92,-2273.46 144.92,-2258.54 207.52,-2248 296.05,-2248 358.65,-2258.54"/>
<polygon fill="none" stroke="#3ce8ec" points="362.65,-2255.16 362.65,-2276.84 296.39,-2288 207.19,-2288 140.92,-2276.84 140.92,-2255.16 207.19,-2244 296.39,-2244 362.65,-2255.16"/>
<polygon fill="none" stroke="#3ce8ec" points="366.65,-2251.78 366.65,-2280.22 296.72,-2292 206.85,-2292 136.93,-2280.22 136.93,-2251.78 206.85,-2240 296.72,-2240 366.65,-2251.78"/>
<text text-anchor="middle" x="251.79" y="-2262.3" font-family="Roboto" font-size="14.00" fill="#000000">ino&#45;0.3.6 (310.71 MiB)</text>
</g>
<!-- N40 -->
<g id="node29" class="node">
<title>N40</title>
<polygon fill="#4069e1" stroke="#4069e1" points="442.58,-1908.54 442.58,-1923.46 330.81,-1934 172.76,-1934 61,-1923.46 61,-1908.54 172.76,-1898 330.81,-1898 442.58,-1908.54"/>
<polygon fill="none" stroke="#4069e1" points="446.58,-1904.9 446.58,-1927.1 331,-1938 172.57,-1938 57,-1927.1 57,-1904.9 172.57,-1894 331,-1894 446.58,-1904.9"/>
<polygon fill="none" stroke="#4069e1" points="450.58,-1901.26 450.58,-1930.74 331.19,-1942 172.38,-1942 53,-1930.74 53,-1901.26 172.38,-1890 331.19,-1890 450.58,-1901.26"/>
<text text-anchor="middle" x="251.79" y="-1912.3" font-family="Roboto" font-size="14.00" fill="#ffffff">nvidia&#45;persistenced&#45;390.132 (107.70 KiB)</text>
</g>
<!-- N40&#45;&gt;N27 -->
<g id="edge22" class="edge">
<title>N40&#45;&gt;N27</title>
<path fill="none" stroke="black" d="M433.67,-1932.37C456.68,-1934.46 479.93,-1936.56 502.1,-1938.57"/>
<polygon fill="black" stroke="black" points="501.93,-1942.07 512.21,-1939.48 502.57,-1935.09 501.93,-1942.07"/>
</g>
<!-- N6 -->
<g id="node30" class="node">
<title>N6</title>
<polygon fill="#3ecce9" stroke="#3ecce9" points="450.06,-2328.54 450.06,-2343.46 333.92,-2354 169.66,-2354 53.51,-2343.46 53.51,-2328.54 169.66,-2318 333.92,-2318 450.06,-2328.54"/>
<polygon fill="none" stroke="#3ecce9" points="454.06,-2324.89 454.06,-2347.11 334.1,-2358 169.48,-2358 49.52,-2347.11 49.52,-2324.89 169.48,-2314 334.1,-2314 454.06,-2324.89"/>
<polygon fill="none" stroke="#3ecce9" points="458.06,-2321.24 458.06,-2350.76 334.28,-2362 169.3,-2362 45.52,-2350.76 45.52,-2321.24 169.3,-2310 334.28,-2310 458.06,-2321.24"/>
<text text-anchor="middle" x="251.79" y="-2332.3" font-family="Roboto" font-size="14.00" fill="#000000">papirus&#45;icon&#45;theme&#45;20200430 (221.53 MiB)</text>
</g>
<!-- N41 -->
<g id="node31" class="node">
<title>N41</title>
<polygon fill="#406be1" stroke="#406be1" points="383.82,-648.54 383.82,-663.46 306.48,-674 197.1,-674 119.76,-663.46 119.76,-648.54 197.1,-638 306.48,-638 383.82,-648.54"/>
<polygon fill="none" stroke="#406be1" points="387.81,-645.05 387.81,-666.95 306.75,-678 196.83,-678 115.77,-666.95 115.77,-645.05 196.83,-634 306.75,-634 387.81,-645.05"/>
<polygon fill="none" stroke="#406be1" points="391.8,-641.56 391.8,-670.44 307.02,-682 196.56,-682 111.77,-670.44 111.77,-641.56 196.56,-630 307.02,-630 391.8,-641.56"/>
<text text-anchor="middle" x="251.79" y="-652.3" font-family="Roboto" font-size="14.00" fill="#ffffff">neovim&#45;qt&#45;0.2.15 (3.81 MiB)</text>
</g>
<!-- N41&#45;&gt;N29 -->
<g id="edge23" class="edge">
<title>N41&#45;&gt;N29</title>
<path fill="none" stroke="black" d="M386.16,-671.27C416.18,-676.25 447.66,-682.71 476.46,-691 518.08,-702.99 563.16,-722.92 595.34,-738.46"/>
<polygon fill="black" stroke="black" points="593.95,-741.68 604.48,-742.92 597.02,-735.39 593.95,-741.68"/>
</g>
<!-- N5 -->
<g id="node32" class="node">
<title>N5</title>
<polygon fill="#3fa1e5" stroke="#3fa1e5" points="386.03,-2398.54 386.03,-2413.46 307.39,-2424 196.18,-2424 117.55,-2413.46 117.55,-2398.54 196.18,-2388 307.39,-2388 386.03,-2398.54"/>
<polygon fill="none" stroke="#3fa1e5" points="390.03,-2395.04 390.03,-2416.96 307.66,-2428 195.92,-2428 113.55,-2416.96 113.55,-2395.04 195.92,-2384 307.66,-2384 390.03,-2395.04"/>
<polygon fill="none" stroke="#3fa1e5" points="394.02,-2391.54 394.02,-2420.46 307.93,-2432 195.65,-2432 109.55,-2420.46 109.55,-2391.54 195.65,-2380 307.93,-2380 394.02,-2391.54"/>
<text text-anchor="middle" x="251.79" y="-2402.3" font-family="Roboto" font-size="14.00" fill="#ffffff">nomacs&#45;3.14.2 (108.73 MiB)</text>
</g>
<!-- N4 -->
<g id="node33" class="node">
<title>N4</title>
<polygon fill="#fe8800" stroke="#fe8800" points="434.19,-578.54 434.19,-593.46 327.34,-604 176.24,-604 69.39,-593.46 69.39,-578.54 176.24,-568 327.34,-568 434.19,-578.54"/>
<polygon fill="none" stroke="#fe8800" points="438.19,-574.92 438.19,-597.08 327.54,-608 176.04,-608 65.38,-597.08 65.38,-574.92 176.04,-564 327.54,-564 438.19,-574.92"/>
<polygon fill="none" stroke="#fe8800" points="442.2,-571.3 442.2,-600.7 327.74,-612 175.84,-612 61.38,-600.7 61.38,-571.3 175.84,-560 327.74,-560 442.2,-571.3"/>
<text text-anchor="middle" x="251.79" y="-582.3" font-family="Roboto" font-size="14.00" fill="#000000">xmonad&#45;with&#45;packages&#45;8.8.3 (2.17 GiB)</text>
</g>
<!-- N4&#45;&gt;N29 -->
<g id="edge24" class="edge">
<title>N4&#45;&gt;N29</title>
<path fill="none" stroke="black" d="M423.66,-602.57C441.92,-607.31 459.87,-613.34 476.46,-621 535.17,-648.09 589.09,-702.67 617.81,-735.1"/>
<polygon fill="black" stroke="black" points="615.34,-737.6 624.55,-742.83 620.62,-733 615.34,-737.6"/>
</g>
<!-- N3 -->
<g id="node34" class="node">
<title>N3</title>
<polygon fill="#3fb7e7" stroke="#3fb7e7" points="381.18,-2468.54 381.18,-2483.46 305.38,-2494 198.19,-2494 122.4,-2483.46 122.4,-2468.54 198.19,-2458 305.38,-2458 381.18,-2468.54"/>
<polygon fill="none" stroke="#3fb7e7" points="385.18,-2465.06 385.18,-2486.94 305.66,-2498 197.92,-2498 118.4,-2486.94 118.4,-2465.06 197.92,-2454 305.66,-2454 385.18,-2465.06"/>
<polygon fill="none" stroke="#3fb7e7" points="389.17,-2461.58 389.17,-2490.42 305.94,-2502 197.64,-2502 114.4,-2490.42 114.4,-2461.58 197.64,-2450 305.94,-2450 389.17,-2461.58"/>
<text text-anchor="middle" x="251.79" y="-2472.3" font-family="Roboto" font-size="14.00" fill="#000000">gzdoom&#45;4.3.3 (163.52 MiB)</text>
</g>
<!-- N42 -->
<g id="node35" class="node">
<title>N42</title>
<polygon fill="#406be1" stroke="#406be1" points="407.23,-1838.54 407.23,-1853.46 316.18,-1864 187.4,-1864 96.34,-1853.46 96.34,-1838.54 187.4,-1828 316.18,-1828 407.23,-1838.54"/>
<polygon fill="none" stroke="#406be1" points="411.23,-1834.98 411.23,-1857.02 316.41,-1868 187.17,-1868 92.34,-1857.02 92.34,-1834.98 187.17,-1824 316.41,-1824 411.23,-1834.98"/>
<polygon fill="none" stroke="#406be1" points="415.23,-1831.42 415.23,-1860.58 316.64,-1872 186.94,-1872 88.34,-1860.58 88.34,-1831.42 186.94,-1820 316.64,-1820 415.23,-1831.42"/>
<text text-anchor="middle" x="251.79" y="-1842.3" font-family="Roboto" font-size="14.00" fill="#ffffff">firefox&#45;beta&#45;bin&#45;77.0b7 (3.25 MiB)</text>
</g>
<!-- N42&#45;&gt;N16 -->
<g id="edge25" class="edge">
<title>N42&#45;&gt;N16</title>
<path fill="none" stroke="black" d="M251.79,-1819.68C251.79,-1817.23 251.79,-1814.78 251.79,-1812.33"/>
<polygon fill="black" stroke="black" points="255.29,-1812.25 251.79,-1802.25 248.29,-1812.25 255.29,-1812.25"/>
</g>
<!-- N2 -->
<g id="node36" class="node">
<title>N2</title>
<polygon fill="#3ddceb" stroke="#3ddceb" points="371.47,-2538.54 371.47,-2553.46 301.36,-2564 202.21,-2564 132.11,-2553.46 132.11,-2538.54 202.21,-2528 301.36,-2528 371.47,-2538.54"/>
<polygon fill="none" stroke="#3ddceb" points="375.47,-2535.1 375.47,-2556.9 301.66,-2568 201.92,-2568 128.1,-2556.9 128.1,-2535.1 201.92,-2524 301.66,-2524 375.47,-2535.1"/>
<polygon fill="none" stroke="#3ddceb" points="379.48,-2531.66 379.48,-2560.34 301.96,-2572 201.62,-2572 124.1,-2560.34 124.1,-2531.66 201.62,-2520 301.96,-2520 379.48,-2531.66"/>
<text text-anchor="middle" x="251.79" y="-2542.3" font-family="Roboto" font-size="14.00" fill="#000000">elixir&#45;1.10.3 (271.33 MiB)</text>
</g>
<!-- N43 -->
<g id="node37" class="node">
<title>N43</title>
<polygon fill="#4071e1" stroke="#4071e1" points="353.8,-298.54 353.8,-313.46 294.04,-324 209.53,-324 149.78,-313.46 149.78,-298.54 209.53,-288 294.04,-288 353.8,-298.54"/>
<polygon fill="none" stroke="#4071e1" points="357.8,-295.19 357.8,-316.81 294.39,-328 209.18,-328 145.78,-316.81 145.78,-295.19 209.18,-284 294.39,-284 357.8,-295.19"/>
<polygon fill="none" stroke="#4071e1" points="361.8,-291.83 361.8,-320.17 294.74,-332 208.83,-332 141.78,-320.17 141.78,-291.83 208.83,-280 294.74,-280 361.8,-291.83"/>
<text text-anchor="middle" x="251.79" y="-302.3" font-family="Roboto" font-size="14.00" fill="#ffffff">piper&#45;0.4 (12.98 MiB)</text>
</g>
<!-- N43&#45;&gt;N26 -->
<g id="edge26" class="edge">
<title>N43&#45;&gt;N26</title>
<path fill="none" stroke="black" d="M357.12,-321.08C394.81,-326.86 437.62,-333.8 476.46,-341 500.24,-345.41 525.87,-350.67 549.6,-355.76"/>
<polygon fill="black" stroke="black" points="549.13,-359.23 559.64,-357.92 550.6,-352.39 549.13,-359.23"/>
</g>
<!-- N1 -->
<g id="node38" class="node">
<title>N1</title>
<polygon fill="#3ce7ec" stroke="#3ce7ec" points="445.21,-2608.54 445.21,-2623.46 331.91,-2634 171.67,-2634 58.37,-2623.46 58.37,-2608.54 171.67,-2598 331.91,-2598 445.21,-2608.54"/>
<polygon fill="none" stroke="#3ce7ec" points="449.21,-2604.9 449.21,-2627.1 332.09,-2638 171.48,-2638 54.37,-2627.1 54.37,-2604.9 171.48,-2594 332.09,-2594 449.21,-2604.9"/>
<polygon fill="none" stroke="#3ce7ec" points="453.21,-2601.25 453.21,-2630.75 332.28,-2642 171.3,-2642 50.37,-2630.75 50.37,-2601.25 171.3,-2590 332.28,-2590 453.21,-2601.25"/>
<text text-anchor="middle" x="251.79" y="-2612.3" font-family="Roboto" font-size="14.00" fill="#000000">google&#45;chrome&#45;83.0.4103.97 (305.43 MiB)</text>
</g>
</g>
</svg>
