<?xml version="1.0" encoding="UTF-8" standalone="no"?>
<!DOCTYPE svg PUBLIC "-//W3C//DTD SVG 1.1//EN"
 "http://www.w3.org/Graphics/SVG/1.1/DTD/svg11.dtd">
<!-- Generated by graphviz version 2.43.0 (0)
 -->
<!-- Title: nixstore Pages: 1 -->
<svg width="980pt" height="2720pt"
 viewBox="0.00 0.00 979.82 2720.00" xmlns="http://www.w3.org/2000/svg" xmlns:xlink="http://www.w3.org/1999/xlink">
<g id="graph0" class="graph" transform="scale(1 1) rotate(0) translate(4 2716)">
<title>nixstore</title>
<polygon fill="white" stroke="transparent" points="-4,4 -4,-2716 975.82,-2716 975.82,4 -4,4"/>
<!-- N47 -->
<g id="node1" class="node">
<title>N47</title>
<polygon fill="#ff0000" stroke="#ff0000" points="379.26,-18.54 379.26,-33.46 314.07,-44 221.87,-44 156.68,-33.46 156.68,-18.54 221.87,-8 314.07,-8 379.26,-18.54"/>
<polygon fill="none" stroke="#ff0000" points="383.27,-15.14 383.27,-36.86 314.39,-48 221.55,-48 152.67,-36.86 152.67,-15.14 221.55,-4 314.39,-4 383.27,-15.14"/>
<polygon fill="none" stroke="#ff0000" points="387.27,-11.74 387.27,-40.26 314.71,-52 221.22,-52 148.66,-40.26 148.66,-11.74 221.22,0 314.71,0 387.27,-11.74"/>
<text text-anchor="middle" x="267.97" y="-22.3" font-family="Roboto" font-size="14.00" fill="#000000">{filtered out} (2.30 GiB)</text>
</g>
<!-- N37 -->
<g id="node2" class="node">
<title>N37</title>
<polygon fill="#4169e1" stroke="#4169e1" points="400,-998.54 400,-1013.46 322.66,-1024 213.28,-1024 135.94,-1013.46 135.94,-998.54 213.28,-988 322.66,-988 400,-998.54"/>
<polygon fill="none" stroke="#4169e1" points="403.99,-995.05 403.99,-1016.95 322.93,-1028 213.01,-1028 131.95,-1016.95 131.95,-995.05 213.01,-984 322.93,-984 403.99,-995.05"/>
<polygon fill="none" stroke="#4169e1" points="407.98,-991.56 407.98,-1020.44 323.2,-1032 212.74,-1032 127.96,-1020.44 127.96,-991.56 212.74,-980 323.2,-980 407.98,-991.56"/>
<text text-anchor="middle" x="267.97" y="-1002.3" font-family="Roboto" font-size="14.00" fill="#ffffff">libreoffice&#45;7.0.4.2 (3.55 KiB)</text>
</g>
<!-- N5 -->
<g id="node34" class="node">
<title>N5</title>
<polygon fill="#ffcf00" stroke="#ffcf00" points="400.89,-928.54 400.89,-943.46 323.03,-954 212.91,-954 135.05,-943.46 135.05,-928.54 212.91,-918 323.03,-918 400.89,-928.54"/>
<polygon fill="none" stroke="#ffcf00" points="404.89,-925.05 404.89,-946.95 323.3,-958 212.64,-958 131.05,-946.95 131.05,-925.05 212.64,-914 323.3,-914 404.89,-925.05"/>
<polygon fill="none" stroke="#ffcf00" points="408.89,-921.55 408.89,-950.45 323.57,-962 212.37,-962 127.05,-950.45 127.05,-921.55 212.37,-910 323.57,-910 408.89,-921.55"/>
<text text-anchor="middle" x="267.97" y="-932.3" font-family="Roboto" font-size="14.00" fill="#000000">libreoffice&#45;7.0.4.2 (1.60 GiB)</text>
</g>
<!-- N37&#45;&gt;N5 -->
<g id="edge1" class="edge">
<title>N37&#45;&gt;N5</title>
<path fill="none" stroke="black" d="M267.97,-979.68C267.97,-977.23 267.97,-974.78 267.97,-972.33"/>
<polygon fill="black" stroke="black" points="271.47,-972.25 267.97,-962.25 264.47,-972.25 271.47,-972.25"/>
</g>
<!-- N28 -->
<g id="node3" class="node">
<title>N28</title>
<polygon fill="#409fe5" stroke="#409fe5" points="415.03,-1068.54 415.03,-1083.46 328.88,-1094 207.06,-1094 120.91,-1083.46 120.91,-1068.54 207.06,-1058 328.88,-1058 415.03,-1068.54"/>
<polygon fill="none" stroke="#409fe5" points="419.03,-1065 419.03,-1087 329.13,-1098 206.81,-1098 116.91,-1087 116.91,-1065 206.81,-1054 329.13,-1054 419.03,-1065"/>
<polygon fill="none" stroke="#409fe5" points="423.03,-1061.46 423.03,-1090.54 329.37,-1102 206.57,-1102 112.91,-1090.54 112.91,-1061.46 206.57,-1050 329.37,-1050 423.03,-1061.46"/>
<text text-anchor="middle" x="267.97" y="-1072.3" font-family="Roboto" font-size="14.00" fill="#ffffff">fbreader&#45;qt4&#45;0.99.6 (96.25 MiB)</text>
</g>
<!-- N27 -->
<g id="node4" class="node">
<title>N27</title>
<polygon fill="#3ed9eb" stroke="#3ed9eb" points="400,-298.54 400,-313.46 322.66,-324 213.28,-324 135.94,-313.46 135.94,-298.54 213.28,-288 322.66,-288 400,-298.54"/>
<polygon fill="none" stroke="#3ed9eb" points="403.99,-295.05 403.99,-316.95 322.93,-328 213.01,-328 131.95,-316.95 131.95,-295.05 213.01,-284 322.93,-284 403.99,-295.05"/>
<polygon fill="none" stroke="#3ed9eb" points="407.98,-291.56 407.98,-320.44 323.2,-332 212.74,-332 127.96,-320.44 127.96,-291.56 212.74,-280 323.2,-280 407.98,-291.56"/>
<text text-anchor="middle" x="267.97" y="-302.3" font-family="Roboto" font-size="14.00" fill="#000000">inkscape&#45;1.0.1 (240.20 MiB)</text>
</g>
<!-- N35 -->
<g id="node40" class="node">
<title>N35</title>
<polygon fill="#3fb0e7" stroke="#3fb0e7" points="719.82,-359 582.82,-359 582.82,-323 719.82,-323 719.82,-359"/>
<text text-anchor="middle" x="651.32" y="-337.3" font-family="Roboto" font-size="14.00" fill="#ffffff">blas&#45;3 (134.34 MiB)</text>
</g>
<!-- N27&#45;&gt;N35 -->
<g id="edge2" class="edge">
<title>N27&#45;&gt;N35</title>
<path fill="none" stroke="black" d="M408,-318.76C463.43,-323.85 525.15,-329.51 572.44,-333.85"/>
<polygon fill="black" stroke="black" points="572.33,-337.36 582.6,-334.78 572.97,-330.39 572.33,-337.36"/>
</g>
<!-- N26 -->
<g id="node5" class="node">
<title>N26</title>
<polygon fill="#3debed" stroke="#3debed" points="463.61,-1138.54 463.61,-1153.46 349.01,-1164 186.93,-1164 72.33,-1153.46 72.33,-1138.54 186.93,-1128 349.01,-1128 463.61,-1138.54"/>
<polygon fill="none" stroke="#3debed" points="467.61,-1134.9 467.61,-1157.1 349.19,-1168 186.75,-1168 68.33,-1157.1 68.33,-1134.9 186.75,-1124 349.19,-1124 467.61,-1134.9"/>
<polygon fill="none" stroke="#3debed" points="471.61,-1131.25 471.61,-1160.75 349.37,-1172 186.56,-1172 64.33,-1160.75 64.33,-1131.25 186.56,-1120 349.37,-1120 471.61,-1131.25"/>
<text text-anchor="middle" x="267.97" y="-1142.3" font-family="Roboto" font-size="14.00" fill="#000000">spotify&#45;1.1.46.916.g416cacf1 (294.64 MiB)</text>
</g>
<!-- N38 -->
<g id="node6" class="node">
<title>N38</title>
<polygon fill="#4176e2" stroke="#4176e2" points="396.04,-228.54 396.04,-243.46 321.02,-254 214.92,-254 139.9,-243.46 139.9,-228.54 214.92,-218 321.02,-218 396.04,-228.54"/>
<polygon fill="none" stroke="#4176e2" points="400.04,-225.07 400.04,-246.93 321.3,-258 214.64,-258 135.9,-246.93 135.9,-225.07 214.64,-214 321.3,-214 400.04,-225.07"/>
<polygon fill="none" stroke="#4176e2" points="404.04,-221.59 404.04,-250.41 321.58,-262 214.36,-262 131.9,-250.41 131.9,-221.59 214.36,-210 321.58,-210 404.04,-221.59"/>
<text text-anchor="middle" x="267.97" y="-232.3" font-family="Roboto" font-size="14.00" fill="#ffffff">tigervnc&#45;1.10.1 (19.21 MiB)</text>
</g>
<!-- N30 -->
<g id="node41" class="node">
<title>N30</title>
<polygon fill="#38f5ad" stroke="#38f5ad" points="751.32,-219 551.32,-219 551.32,-183 751.32,-183 751.32,-219"/>
<text text-anchor="middle" x="651.32" y="-197.3" font-family="Roboto" font-size="14.00" fill="#000000">expat&#45;2.2.10&#45;dev (496.64 MiB)</text>
</g>
<!-- N38&#45;&gt;N30 -->
<g id="edge3" class="edge">
<title>N38&#45;&gt;N30</title>
<path fill="none" stroke="black" d="M404.23,-223.59C449.04,-219.47 498.32,-214.95 540.94,-211.04"/>
<polygon fill="black" stroke="black" points="541.42,-214.51 551.05,-210.11 540.78,-207.54 541.42,-214.51"/>
</g>
<!-- N25 -->
<g id="node7" class="node">
<title>N25</title>
<polygon fill="#3fc1e8" stroke="#3fc1e8" points="410.17,-1208.54 410.17,-1223.46 326.87,-1234 209.07,-1234 125.76,-1223.46 125.76,-1208.54 209.07,-1198 326.87,-1198 410.17,-1208.54"/>
<polygon fill="none" stroke="#3fc1e8" points="414.18,-1205.02 414.18,-1226.98 327.12,-1238 208.81,-1238 121.76,-1226.98 121.76,-1205.02 208.81,-1194 327.12,-1194 414.18,-1205.02"/>
<polygon fill="none" stroke="#3fc1e8" points="418.18,-1201.49 418.18,-1230.51 327.38,-1242 208.56,-1242 117.76,-1230.51 117.76,-1201.49 208.56,-1190 327.38,-1190 418.18,-1201.49"/>
<text text-anchor="middle" x="267.97" y="-1212.3" font-family="Roboto" font-size="14.00" fill="#000000">fritzing&#45;0.9.4&#45;498 (176.43 MiB)</text>
</g>
<!-- N24 -->
<g id="node8" class="node">
<title>N24</title>
<polygon fill="#3fafe6" stroke="#3fafe6" points="412.81,-1278.54 412.81,-1293.46 327.96,-1304 207.97,-1304 123.13,-1293.46 123.13,-1278.54 207.97,-1268 327.96,-1268 412.81,-1278.54"/>
<polygon fill="none" stroke="#3fafe6" points="416.81,-1275.01 416.81,-1296.99 328.21,-1308 207.73,-1308 119.13,-1296.99 119.13,-1275.01 207.73,-1264 328.21,-1264 416.81,-1275.01"/>
<polygon fill="none" stroke="#3fafe6" points="420.81,-1271.48 420.81,-1300.52 328.46,-1312 207.48,-1312 115.13,-1300.52 115.13,-1271.48 207.48,-1260 328.46,-1260 420.81,-1271.48"/>
<text text-anchor="middle" x="267.97" y="-1282.3" font-family="Roboto" font-size="14.00" fill="#ffffff">prusa&#45;slicer&#45;2.2.0 (131.65 MiB)</text>
</g>
<!-- N23 -->
<g id="node9" class="node">
<title>N23</title>
<polygon fill="#3fade6" stroke="#3fade6" points="438.45,-1348.54 438.45,-1363.46 338.58,-1374 197.35,-1374 97.49,-1363.46 97.49,-1348.54 197.35,-1338 338.58,-1338 438.45,-1348.54"/>
<polygon fill="none" stroke="#3fade6" points="442.45,-1344.94 442.45,-1367.06 338.79,-1378 197.14,-1378 93.48,-1367.06 93.48,-1344.94 197.14,-1334 338.79,-1334 442.45,-1344.94"/>
<polygon fill="none" stroke="#3fade6" points="446.46,-1341.35 446.46,-1370.65 339.01,-1382 196.93,-1382 89.48,-1370.65 89.48,-1341.35 196.93,-1330 339.01,-1330 446.46,-1341.35"/>
<text text-anchor="middle" x="267.97" y="-1352.3" font-family="Roboto" font-size="14.00" fill="#ffffff">telegram&#45;desktop&#45;2.5.1 (128.13 MiB)</text>
</g>
<!-- N39 -->
<g id="node10" class="node">
<title>N39</title>
<polygon fill="#416ce1" stroke="#416ce1" points="374.84,-1488.54 374.84,-1503.46 312.23,-1514 223.7,-1514 161.1,-1503.46 161.1,-1488.54 223.7,-1478 312.23,-1478 374.84,-1488.54"/>
<polygon fill="none" stroke="#416ce1" points="378.83,-1485.16 378.83,-1506.84 312.57,-1518 223.37,-1518 157.1,-1506.84 157.1,-1485.16 223.37,-1474 312.57,-1474 378.83,-1485.16"/>
<polygon fill="none" stroke="#416ce1" points="382.83,-1481.78 382.83,-1510.22 312.9,-1522 223.03,-1522 153.11,-1510.22 153.11,-1481.78 223.03,-1470 312.9,-1470 382.83,-1481.78"/>
<text text-anchor="middle" x="267.97" y="-1492.3" font-family="Roboto" font-size="14.00" fill="#ffffff">firefox&#45;84.0 (4.06 MiB)</text>
</g>
<!-- N1 -->
<g id="node39" class="node">
<title>N1</title>
<polygon fill="#3ec7e9" stroke="#3ec7e9" points="436.23,-1418.54 436.23,-1433.46 337.67,-1444 198.27,-1444 99.71,-1433.46 99.71,-1418.54 198.27,-1408 337.67,-1408 436.23,-1418.54"/>
<polygon fill="none" stroke="#3ec7e9" points="440.24,-1414.95 440.24,-1437.05 337.88,-1448 198.06,-1448 95.7,-1437.05 95.7,-1414.95 198.06,-1404 337.88,-1404 440.24,-1414.95"/>
<polygon fill="none" stroke="#3ec7e9" points="444.24,-1411.35 444.24,-1440.65 338.09,-1452 197.84,-1452 91.7,-1440.65 91.7,-1411.35 197.84,-1400 338.09,-1400 444.24,-1411.35"/>
<text text-anchor="middle" x="267.97" y="-1422.3" font-family="Roboto" font-size="14.00" fill="#000000">firefox&#45;unwrapped&#45;84.0 (192.03 MiB)</text>
</g>
<!-- N39&#45;&gt;N1 -->
<g id="edge4" class="edge">
<title>N39&#45;&gt;N1</title>
<path fill="none" stroke="black" d="M267.97,-1469.68C267.97,-1467.23 267.97,-1464.78 267.97,-1462.33"/>
<polygon fill="black" stroke="black" points="271.47,-1462.25 267.97,-1452.25 264.47,-1462.25 271.47,-1462.25"/>
</g>
<!-- N22 -->
<g id="node11" class="node">
<title>N22</title>
<polygon fill="#3de1ec" stroke="#3de1ec" points="461.39,-1558.54 461.39,-1573.46 348.09,-1584 187.85,-1584 74.55,-1573.46 74.55,-1558.54 187.85,-1548 348.09,-1548 461.39,-1558.54"/>
<polygon fill="none" stroke="#3de1ec" points="465.39,-1554.9 465.39,-1577.1 348.27,-1588 187.66,-1588 70.55,-1577.1 70.55,-1554.9 187.66,-1544 348.27,-1544 465.39,-1554.9"/>
<polygon fill="none" stroke="#3de1ec" points="469.39,-1551.25 469.39,-1580.75 348.46,-1592 187.48,-1592 66.55,-1580.75 66.55,-1551.25 187.48,-1540 348.46,-1540 469.39,-1551.25"/>
<text text-anchor="middle" x="267.97" y="-1562.3" font-family="Roboto" font-size="14.00" fill="#000000">google&#45;chrome&#45;87.0.4280.88 (263.97 MiB)</text>
</g>
<!-- N40 -->
<g id="node12" class="node">
<title>N40</title>
<polygon fill="#416fe1" stroke="#416fe1" points="485.23,-1698.54 485.23,-1713.46 357.96,-1724 177.98,-1724 50.71,-1713.46 50.71,-1698.54 177.98,-1688 357.96,-1688 485.23,-1698.54"/>
<polygon fill="none" stroke="#416fe1" points="489.23,-1694.86 489.23,-1717.14 358.13,-1728 177.81,-1728 46.71,-1717.14 46.71,-1694.86 177.81,-1684 358.13,-1684 489.23,-1694.86"/>
<polygon fill="none" stroke="#416fe1" points="493.23,-1691.18 493.23,-1720.82 358.29,-1732 177.65,-1732 42.71,-1720.82 42.71,-1691.18 177.65,-1680 358.29,-1680 493.23,-1691.18"/>
<text text-anchor="middle" x="267.97" y="-1702.3" font-family="Roboto" font-size="14.00" fill="#ffffff">papirus&#45;maia&#45;icon&#45;theme&#45;2019&#45;07&#45;26 (8.96 MiB)</text>
</g>
<!-- N6 -->
<g id="node32" class="node">
<title>N6</title>
<polygon fill="#3ed6ea" stroke="#3ed6ea" points="466.24,-1628.54 466.24,-1643.46 350.1,-1654 185.84,-1654 69.69,-1643.46 69.69,-1628.54 185.84,-1618 350.1,-1618 466.24,-1628.54"/>
<polygon fill="none" stroke="#3ed6ea" points="470.24,-1624.89 470.24,-1647.11 350.28,-1658 185.66,-1658 65.7,-1647.11 65.7,-1624.89 185.66,-1614 350.28,-1614 470.24,-1624.89"/>
<polygon fill="none" stroke="#3ed6ea" points="474.24,-1621.24 474.24,-1650.76 350.46,-1662 185.48,-1662 61.7,-1650.76 61.7,-1621.24 185.48,-1610 350.46,-1610 474.24,-1621.24"/>
<text text-anchor="middle" x="267.97" y="-1632.3" font-family="Roboto" font-size="14.00" fill="#000000">papirus&#45;icon&#45;theme&#45;20200801 (233.60 MiB)</text>
</g>
<!-- N40&#45;&gt;N6 -->
<g id="edge5" class="edge">
<title>N40&#45;&gt;N6</title>
<path fill="none" stroke="black" d="M267.97,-1679.68C267.97,-1677.23 267.97,-1674.78 267.97,-1672.33"/>
<polygon fill="black" stroke="black" points="271.47,-1672.25 267.97,-1662.25 264.47,-1672.25 271.47,-1672.25"/>
</g>
<!-- N41 -->
<g id="node13" class="node">
<title>N41</title>
<polygon fill="#4183e3" stroke="#4183e3" points="384.54,-438.54 384.54,-453.46 316.26,-464 219.68,-464 151.39,-453.46 151.39,-438.54 219.68,-428 316.26,-428 384.54,-438.54"/>
<polygon fill="none" stroke="#4183e3" points="388.54,-435.11 388.54,-456.89 316.56,-468 219.38,-468 147.4,-456.89 147.4,-435.11 219.38,-424 316.56,-424 388.54,-435.11"/>
<polygon fill="none" stroke="#4183e3" points="392.53,-431.68 392.53,-460.32 316.87,-472 219.07,-472 143.41,-460.32 143.41,-431.68 219.07,-420 316.87,-420 392.53,-431.68"/>
<text text-anchor="middle" x="267.97" y="-442.3" font-family="Roboto" font-size="14.00" fill="#ffffff">astroid&#45;0.15 (41.48 MiB)</text>
</g>
<!-- N34 -->
<g id="node42" class="node">
<title>N34</title>
<polygon fill="#40a4e5" stroke="#40a4e5" points="751.32,-499 551.32,-499 551.32,-463 751.32,-463 751.32,-499"/>
<text text-anchor="middle" x="651.32" y="-477.3" font-family="Roboto" font-size="14.00" fill="#ffffff">webkitgtk&#45;2.30.3 (106.99 MiB)</text>
</g>
<!-- N41&#45;&gt;N34 -->
<g id="edge6" class="edge">
<title>N41&#45;&gt;N34</title>
<path fill="none" stroke="black" d="M392.78,-457.36C440.6,-461.75 494.84,-466.73 541.17,-470.98"/>
<polygon fill="black" stroke="black" points="540.96,-474.48 551.24,-471.91 541.6,-467.51 540.96,-474.48"/>
</g>
<!-- N21 -->
<g id="node14" class="node">
<title>N21</title>
<polygon fill="#3ed9eb" stroke="#3ed9eb" points="389.86,-1768.54 389.86,-1783.46 318.46,-1794 217.48,-1794 146.07,-1783.46 146.07,-1768.54 217.48,-1758 318.46,-1758 389.86,-1768.54"/>
<polygon fill="none" stroke="#3ed9eb" points="393.87,-1765.09 393.87,-1786.91 318.75,-1798 217.18,-1798 142.07,-1786.91 142.07,-1765.09 217.18,-1754 318.75,-1754 393.87,-1765.09"/>
<polygon fill="none" stroke="#3ed9eb" points="397.88,-1761.64 397.88,-1790.36 319.05,-1802 216.89,-1802 138.06,-1790.36 138.06,-1761.64 216.89,-1750 319.05,-1750 397.88,-1761.64"/>
<text text-anchor="middle" x="267.97" y="-1772.3" font-family="Roboto" font-size="14.00" fill="#000000">zeal&#45;0.6.999 (240.58 MiB)</text>
</g>
<!-- N20 -->
<g id="node15" class="node">
<title>N20</title>
<polygon fill="#39f4b4" stroke="#39f4b4" points="433.12,-1978.54 433.12,-1993.46 336.38,-2004 199.56,-2004 102.82,-1993.46 102.82,-1978.54 199.56,-1968 336.38,-1968 433.12,-1978.54"/>
<polygon fill="none" stroke="#39f4b4" points="437.11,-1974.96 437.11,-1997.04 336.59,-2008 199.34,-2008 98.82,-1997.04 98.82,-1974.96 199.34,-1964 336.59,-1964 437.11,-1974.96"/>
<polygon fill="none" stroke="#39f4b4" points="441.11,-1971.37 441.11,-2000.63 336.81,-2012 199.13,-2012 94.83,-2000.63 94.83,-1971.37 199.13,-1960 336.81,-1960 441.11,-1971.37"/>
<text text-anchor="middle" x="267.97" y="-1982.3" font-family="Roboto" font-size="14.00" fill="#000000">kodi&#45;with&#45;plugins&#45;18.9 (480.29 MiB)</text>
</g>
<!-- N32 -->
<g id="node43" class="node">
<title>N32</title>
<polygon fill="#3faee6" stroke="#3faee6" points="742.32,-1934 560.32,-1934 560.32,-1898 742.32,-1898 742.32,-1934"/>
<text text-anchor="middle" x="651.32" y="-1912.3" font-family="Roboto" font-size="14.00" fill="#ffffff">python3&#45;3.8.5 (129.47 MiB)</text>
</g>
<!-- N20&#45;&gt;N32 -->
<g id="edge7" class="edge">
<title>N20&#45;&gt;N32</title>
<path fill="none" stroke="black" d="M409.19,-1967.88C441.99,-1963 476.72,-1957.3 508.82,-1951 529.83,-1946.88 552.41,-1941.66 573.22,-1936.52"/>
<polygon fill="black" stroke="black" points="574.11,-1939.9 582.97,-1934.08 572.42,-1933.11 574.11,-1939.9"/>
</g>
<!-- N19 -->
<g id="node16" class="node">
<title>N19</title>
<polygon fill="#e1ff24" stroke="#e1ff24" points="396.04,-508.54 396.04,-523.46 321.02,-534 214.92,-534 139.9,-523.46 139.9,-508.54 214.92,-498 321.02,-498 396.04,-508.54"/>
<polygon fill="none" stroke="#e1ff24" points="400.04,-505.07 400.04,-526.93 321.3,-538 214.64,-538 135.9,-526.93 135.9,-505.07 214.64,-494 321.3,-494 400.04,-505.07"/>
<polygon fill="none" stroke="#e1ff24" points="404.04,-501.59 404.04,-530.41 321.58,-542 214.36,-542 131.9,-530.41 131.9,-501.59 214.36,-490 321.58,-490 404.04,-501.59"/>
<text text-anchor="middle" x="267.97" y="-512.3" font-family="Roboto" font-size="14.00" fill="#000000">bookworm&#45;1.1.2 (1.06 GiB)</text>
</g>
<!-- N19&#45;&gt;N34 -->
<g id="edge9" class="edge">
<title>N19&#45;&gt;N34</title>
<path fill="none" stroke="black" d="M404.23,-503.59C449.04,-499.47 498.32,-494.95 540.94,-491.04"/>
<polygon fill="black" stroke="black" points="541.42,-494.51 551.05,-490.11 540.78,-487.54 541.42,-494.51"/>
</g>
<!-- N31 -->
<g id="node44" class="node">
<title>N31</title>
<polygon fill="#3fb1e7" stroke="#3fb1e7" points="728.82,-674 573.82,-674 573.82,-638 728.82,-638 728.82,-674"/>
<text text-anchor="middle" x="651.32" y="-652.3" font-family="Roboto" font-size="14.00" fill="#ffffff">gcc&#45;9.3.0 (137.40 MiB)</text>
</g>
<!-- N19&#45;&gt;N31 -->
<g id="edge8" class="edge">
<title>N19&#45;&gt;N31</title>
<path fill="none" stroke="black" d="M404.05,-523.89C439.1,-529.1 476.15,-537.51 508.82,-551 554.12,-569.7 598.13,-606.11 624.73,-630.75"/>
<polygon fill="black" stroke="black" points="622.4,-633.36 632.09,-637.67 627.2,-628.26 622.4,-633.36"/>
</g>
<!-- N18 -->
<g id="node17" class="node">
<title>N18</title>
<polygon fill="#36f87a" stroke="#36f87a" points="464.93,-1838.54 464.93,-1853.46 349.55,-1864 186.39,-1864 71.01,-1853.46 71.01,-1838.54 186.39,-1828 349.55,-1828 464.93,-1838.54"/>
<polygon fill="none" stroke="#36f87a" points="468.92,-1834.89 468.92,-1857.11 349.73,-1868 186.2,-1868 67.01,-1857.11 67.01,-1834.89 186.2,-1824 349.73,-1824 468.92,-1834.89"/>
<polygon fill="none" stroke="#36f87a" points="472.92,-1831.24 472.92,-1860.76 349.92,-1872 186.02,-1872 63.01,-1860.76 63.01,-1831.24 186.02,-1820 349.92,-1820 472.92,-1831.24"/>
<text text-anchor="middle" x="267.97" y="-1842.3" font-family="Roboto" font-size="14.00" fill="#000000">tor&#45;browser&#45;bundle&#45;bin&#45;10.0.7 (584.90 MiB)</text>
</g>
<!-- N33 -->
<g id="node45" class="node">
<title>N33</title>
<polygon fill="#3ecfea" stroke="#3ecfea" points="971.82,-1899 793.82,-1899 793.82,-1863 971.82,-1863 971.82,-1899"/>
<text text-anchor="middle" x="882.82" y="-1877.3" font-family="Roboto" font-size="14.00" fill="#000000">bash&#45;4.4&#45;p23 (212.70 MiB)</text>
</g>
<!-- N18&#45;&gt;N33 -->
<g id="edge10" class="edge">
<title>N18&#45;&gt;N33</title>
<path fill="none" stroke="black" d="M473.04,-1857.65C577.5,-1863.62 699.88,-1870.61 783.33,-1875.37"/>
<polygon fill="black" stroke="black" points="783.38,-1878.88 793.56,-1875.96 783.78,-1871.89 783.38,-1878.88"/>
</g>
<!-- N17 -->
<g id="node18" class="node">
<title>N17</title>
<polygon fill="#59fb33" stroke="#59fb33" points="500.69,-2048.54 500.69,-2063.46 364.36,-2074 171.57,-2074 35.25,-2063.46 35.25,-2048.54 171.57,-2038 364.36,-2038 500.69,-2048.54"/>
<polygon fill="none" stroke="#59fb33" points="504.68,-2044.84 504.68,-2067.16 364.52,-2078 171.42,-2078 31.25,-2067.16 31.25,-2044.84 171.42,-2034 364.52,-2034 504.68,-2044.84"/>
<polygon fill="none" stroke="#59fb33" points="508.68,-2041.14 508.68,-2070.86 364.67,-2082 171.27,-2082 27.26,-2070.86 27.26,-2041.14 171.27,-2030 364.67,-2030 508.68,-2041.14"/>
<text text-anchor="middle" x="267.97" y="-2052.3" font-family="Roboto" font-size="14.00" fill="#000000">gcc&#45;arm&#45;embedded&#45;9&#45;2020&#45;q2&#45;update (670.68 MiB)</text>
</g>
<!-- N42 -->
<g id="node19" class="node">
<title>N42</title>
<polygon fill="#4089e3" stroke="#4089e3" points="388.08,-648.54 388.08,-663.46 317.72,-674 218.22,-674 147.86,-663.46 147.86,-648.54 218.22,-638 317.72,-638 388.08,-648.54"/>
<polygon fill="none" stroke="#4089e3" points="392.07,-645.1 392.07,-666.9 318.02,-678 217.92,-678 143.87,-666.9 143.87,-645.1 217.92,-634 318.02,-634 392.07,-645.1"/>
<polygon fill="none" stroke="#4089e3" points="396.06,-641.65 396.06,-670.35 318.31,-682 217.62,-682 139.87,-670.35 139.87,-641.65 217.62,-630 318.31,-630 396.06,-641.65"/>
<text text-anchor="middle" x="267.97" y="-652.3" font-family="Roboto" font-size="14.00" fill="#ffffff">neovim&#45;0.4.4 (51.87 MiB)</text>
</g>
<!-- N42&#45;&gt;N31 -->
<g id="edge11" class="edge">
<title>N42&#45;&gt;N31</title>
<path fill="none" stroke="black" d="M396.22,-656C451.24,-656 514.2,-656 563.69,-656"/>
<polygon fill="black" stroke="black" points="563.72,-659.5 573.72,-656 563.72,-652.5 563.72,-659.5"/>
</g>
<!-- N16 -->
<g id="node20" class="node">
<title>N16</title>
<polygon fill="#3fbde8" stroke="#3fbde8" points="383.22,-2258.54 383.22,-2273.46 315.71,-2284 220.23,-2284 152.71,-2273.46 152.71,-2258.54 220.23,-2248 315.71,-2248 383.22,-2258.54"/>
<polygon fill="none" stroke="#3fbde8" points="387.22,-2255.12 387.22,-2276.88 316.02,-2288 219.92,-2288 148.72,-2276.88 148.72,-2255.12 219.92,-2244 316.02,-2244 387.22,-2255.12"/>
<polygon fill="none" stroke="#3fbde8" points="391.21,-2251.7 391.21,-2280.3 316.33,-2292 219.61,-2292 144.72,-2280.3 144.72,-2251.7 219.61,-2240 316.33,-2240 391.21,-2251.7"/>
<text text-anchor="middle" x="267.97" y="-2262.3" font-family="Roboto" font-size="14.00" fill="#000000">platformio (166.20 MiB)</text>
</g>
<!-- N12 -->
<g id="node25" class="node">
<title>N12</title>
<polygon fill="#3ecfea" stroke="#3ecfea" points="427.85,-2118.54 427.85,-2133.46 334.19,-2144 201.75,-2144 108.09,-2133.46 108.09,-2118.54 201.75,-2108 334.19,-2108 427.85,-2118.54"/>
<polygon fill="none" stroke="#3ecfea" points="431.85,-2114.97 431.85,-2137.03 334.42,-2148 201.52,-2148 104.09,-2137.03 104.09,-2114.97 201.52,-2104 334.42,-2104 431.85,-2114.97"/>
<polygon fill="none" stroke="#3ecfea" points="435.85,-2111.4 435.85,-2140.6 334.64,-2152 201.3,-2152 100.08,-2140.6 100.08,-2111.4 201.3,-2100 334.64,-2100 435.85,-2111.4"/>
<text text-anchor="middle" x="267.97" y="-2122.3" font-family="Roboto" font-size="14.00" fill="#000000">glibc&#45;locales&#45;2.32&#45;10 (214.79 MiB)</text>
</g>
<!-- N16&#45;&gt;N12 -->
<g id="edge12" class="edge">
<title>N16&#45;&gt;N12</title>
<path fill="none" stroke="black" d="M151.11,-2281.34C96.79,-2281.16 37.93,-2268.63 9.11,-2222 -3.04,-2202.34 -3.04,-2189.66 9.11,-2170 13.81,-2162.39 18.58,-2163.68 27.11,-2161 50.06,-2153.8 74.7,-2148.08 99.16,-2143.52"/>
<polygon fill="black" stroke="black" points="100.03,-2146.92 109.25,-2141.7 98.79,-2140.03 100.03,-2146.92"/>
</g>
<!-- N36 -->
<g id="node46" class="node">
<title>N36</title>
<polygon fill="#3fbce8" stroke="#3fbce8" points="757.82,-2249 544.82,-2249 544.82,-2213 757.82,-2213 757.82,-2249"/>
<text text-anchor="middle" x="651.32" y="-2227.3" font-family="Roboto" font-size="14.00" fill="#000000">glibc&#45;multi&#45;2.32&#45;10 (163.70 MiB)</text>
</g>
<!-- N16&#45;&gt;N36 -->
<g id="edge13" class="edge">
<title>N16&#45;&gt;N36</title>
<path fill="none" stroke="black" d="M391.47,-2254.76C437.33,-2250.55 489.26,-2245.78 534.5,-2241.63"/>
<polygon fill="black" stroke="black" points="535,-2245.1 544.64,-2240.7 534.36,-2238.13 535,-2245.1"/>
</g>
<!-- N15 -->
<g id="node21" class="node">
<title>N15</title>
<polygon fill="#3fb4e7" stroke="#3fb4e7" points="387.65,-2328.54 387.65,-2343.46 317.54,-2354 218.39,-2354 148.29,-2343.46 148.29,-2328.54 218.39,-2318 317.54,-2318 387.65,-2328.54"/>
<polygon fill="none" stroke="#3fb4e7" points="391.65,-2325.1 391.65,-2346.9 317.84,-2358 218.1,-2358 144.28,-2346.9 144.28,-2325.1 218.1,-2314 317.84,-2314 391.65,-2325.1"/>
<polygon fill="none" stroke="#3fb4e7" points="395.66,-2321.66 395.66,-2350.34 318.14,-2362 217.8,-2362 140.28,-2350.34 140.28,-2321.66 217.8,-2310 318.14,-2310 395.66,-2321.66"/>
<text text-anchor="middle" x="267.97" y="-2332.3" font-family="Roboto" font-size="14.00" fill="#ffffff">vlc&#45;3.0.11.1 (142.91 MiB)</text>
</g>
<!-- N43 -->
<g id="node22" class="node">
<title>N43</title>
<polygon fill="#4173e2" stroke="#4173e2" points="377.94,-158.54 377.94,-173.46 313.52,-184 222.42,-184 158,-173.46 158,-158.54 222.42,-148 313.52,-148 377.94,-158.54"/>
<polygon fill="none" stroke="#4173e2" points="381.95,-155.15 381.95,-176.85 313.85,-188 222.09,-188 153.99,-176.85 153.99,-155.15 222.09,-144 313.85,-144 381.95,-155.15"/>
<polygon fill="none" stroke="#4173e2" points="385.96,-151.75 385.96,-180.25 314.17,-192 221.76,-192 149.98,-180.25 149.98,-151.75 221.76,-140 314.17,-140 385.96,-151.75"/>
<text text-anchor="middle" x="267.97" y="-162.3" font-family="Roboto" font-size="14.00" fill="#ffffff">piper&#45;0.5.1 (14.64 MiB)</text>
</g>
<!-- N43&#45;&gt;N30 -->
<g id="edge14" class="edge">
<title>N43&#45;&gt;N30</title>
<path fill="none" stroke="black" d="M385.72,-176.72C435.1,-181.25 492.3,-186.5 540.86,-190.95"/>
<polygon fill="black" stroke="black" points="540.8,-194.46 551.08,-191.89 541.44,-187.49 540.8,-194.46"/>
</g>
<!-- N14 -->
<g id="node23" class="node">
<title>N14</title>
<polygon fill="#39f4b5" stroke="#39f4b5" points="380.58,-1908.54 380.58,-1923.46 314.61,-1934 221.32,-1934 155.35,-1923.46 155.35,-1908.54 221.32,-1898 314.61,-1898 380.58,-1908.54"/>
<polygon fill="none" stroke="#39f4b5" points="384.58,-1905.13 384.58,-1926.87 314.93,-1938 221,-1938 151.35,-1926.87 151.35,-1905.13 221,-1894 314.93,-1894 384.58,-1905.13"/>
<polygon fill="none" stroke="#39f4b5" points="388.59,-1901.72 388.59,-1930.28 315.25,-1942 220.69,-1942 147.35,-1930.28 147.35,-1901.72 220.69,-1890 315.25,-1890 388.59,-1901.72"/>
<text text-anchor="middle" x="267.97" y="-1912.3" font-family="Roboto" font-size="14.00" fill="#000000">cura&#45;4.7.1 (478.28 MiB)</text>
</g>
<!-- N14&#45;&gt;N32 -->
<g id="edge15" class="edge">
<title>N14&#45;&gt;N32</title>
<path fill="none" stroke="black" d="M388.59,-1916C440.49,-1916 500.6,-1916 550.11,-1916"/>
<polygon fill="black" stroke="black" points="550.19,-1919.5 560.19,-1916 550.19,-1912.5 550.19,-1919.5"/>
</g>
<!-- N13 -->
<g id="node24" class="node">
<title>N13</title>
<polygon fill="#fff615" stroke="#fff615" points="353.2,-2188.54 353.2,-2203.46 303.27,-2214 232.66,-2214 182.73,-2203.46 182.73,-2188.54 232.66,-2178 303.27,-2178 353.2,-2188.54"/>
<polygon fill="none" stroke="#fff615" points="357.21,-2185.3 357.21,-2206.7 303.69,-2218 232.24,-2218 178.73,-2206.7 178.73,-2185.3 232.24,-2174 303.69,-2174 357.21,-2185.3"/>
<polygon fill="none" stroke="#fff615" points="361.21,-2182.06 361.21,-2209.94 304.11,-2222 231.83,-2222 174.72,-2209.94 174.72,-2182.06 231.83,-2170 304.11,-2170 361.21,-2182.06"/>
<text text-anchor="middle" x="267.97" y="-2192.3" font-family="Roboto" font-size="14.00" fill="#000000">steam (1.33 GiB)</text>
</g>
<!-- N13&#45;&gt;N12 -->
<g id="edge16" class="edge">
<title>N13&#45;&gt;N12</title>
<path fill="none" stroke="black" d="M267.97,-2169.68C267.97,-2167.23 267.97,-2164.78 267.97,-2162.33"/>
<polygon fill="black" stroke="black" points="271.47,-2162.25 267.97,-2152.25 264.47,-2162.25 271.47,-2162.25"/>
</g>
<!-- N13&#45;&gt;N36 -->
<g id="edge17" class="edge">
<title>N13&#45;&gt;N36</title>
<path fill="none" stroke="black" d="M361.28,-2204.47C413.37,-2209.25 478.94,-2215.27 534.46,-2220.37"/>
<polygon fill="black" stroke="black" points="534.43,-2223.88 544.71,-2221.31 535.07,-2216.91 534.43,-2223.88"/>
</g>
<!-- N11 -->
<g id="node26" class="node">
<title>N11</title>
<polygon fill="#ff6300" stroke="#ff6300" points="455.22,-578.54 455.22,-593.46 345.53,-604 190.41,-604 80.72,-593.46 80.72,-578.54 190.41,-568 345.53,-568 455.22,-578.54"/>
<polygon fill="none" stroke="#ff6300" points="459.22,-574.91 459.22,-597.09 345.72,-608 190.21,-608 76.71,-597.09 76.71,-574.91 190.21,-564 345.72,-564 459.22,-574.91"/>
<polygon fill="none" stroke="#ff6300" points="463.23,-571.28 463.23,-600.72 345.92,-612 190.02,-612 72.71,-600.72 72.71,-571.28 190.02,-560 345.92,-560 463.23,-571.28"/>
<text text-anchor="middle" x="267.97" y="-582.3" font-family="Roboto" font-size="14.00" fill="#000000">xmonad&#45;with&#45;packages&#45;8.10.2 (2.16 GiB)</text>
</g>
<!-- N11&#45;&gt;N31 -->
<g id="edge18" class="edge">
<title>N11&#45;&gt;N31</title>
<path fill="none" stroke="black" d="M416.82,-605.26C447.33,-609.88 479.2,-615.19 508.82,-621 529.83,-625.12 552.41,-630.34 573.22,-635.48"/>
<polygon fill="black" stroke="black" points="572.42,-638.89 582.97,-637.92 574.11,-632.1 572.42,-638.89"/>
</g>
<!-- N10 -->
<g id="node27" class="node">
<title>N10</title>
<polygon fill="#3debed" stroke="#3debed" points="438.45,-2398.54 438.45,-2413.46 338.58,-2424 197.35,-2424 97.49,-2413.46 97.49,-2398.54 197.35,-2388 338.58,-2388 438.45,-2398.54"/>
<polygon fill="none" stroke="#3debed" points="442.45,-2394.94 442.45,-2417.06 338.79,-2428 197.14,-2428 93.48,-2417.06 93.48,-2394.94 197.14,-2384 338.79,-2384 442.45,-2394.94"/>
<polygon fill="none" stroke="#3debed" points="446.46,-2391.35 446.46,-2420.65 339.01,-2432 196.93,-2432 89.48,-2420.65 89.48,-2391.35 196.93,-2380 339.01,-2380 446.46,-2391.35"/>
<text text-anchor="middle" x="267.97" y="-2402.3" font-family="Roboto" font-size="14.00" fill="#000000">skypeforlinux&#45;8.66.0.74 (296.10 MiB)</text>
</g>
<!-- N44 -->
<g id="node28" class="node">
<title>N44</title>
<polygon fill="#416ce1" stroke="#416ce1" points="385.44,-788.54 385.44,-803.46 316.63,-814 219.31,-814 150.5,-803.46 150.5,-788.54 219.31,-778 316.63,-778 385.44,-788.54"/>
<polygon fill="none" stroke="#416ce1" points="389.44,-785.11 389.44,-806.89 316.93,-818 219.01,-818 146.5,-806.89 146.5,-785.11 219.01,-774 316.93,-774 389.44,-785.11"/>
<polygon fill="none" stroke="#416ce1" points="393.44,-781.68 393.44,-810.32 317.23,-822 218.7,-822 142.5,-810.32 142.5,-781.68 218.7,-770 317.23,-770 393.44,-781.68"/>
<text text-anchor="middle" x="267.97" y="-792.3" font-family="Roboto" font-size="14.00" fill="#ffffff">nethack&#45;3.6.6 (4.61 MiB)</text>
</g>
<!-- N44&#45;&gt;N31 -->
<g id="edge19" class="edge">
<title>N44&#45;&gt;N31</title>
<path fill="none" stroke="black" d="M393.48,-789.59C431.55,-784.55 472.85,-775.86 508.82,-761 554.12,-742.3 598.13,-705.89 624.73,-681.25"/>
<polygon fill="black" stroke="black" points="627.2,-683.74 632.09,-674.33 622.4,-678.64 627.2,-683.74"/>
</g>
<!-- N9 -->
<g id="node29" class="node">
<title>N9</title>
<polygon fill="#3ecae9" stroke="#3ecae9" points="379.69,-2468.54 379.69,-2483.46 314.24,-2494 221.69,-2494 156.25,-2483.46 156.25,-2468.54 221.69,-2458 314.24,-2458 379.69,-2468.54"/>
<polygon fill="none" stroke="#3ecae9" points="383.68,-2465.14 383.68,-2486.86 314.56,-2498 221.37,-2498 152.25,-2486.86 152.25,-2465.14 221.37,-2454 314.56,-2454 383.68,-2465.14"/>
<polygon fill="none" stroke="#3ecae9" points="387.68,-2461.73 387.68,-2490.27 314.88,-2502 221.05,-2502 148.26,-2490.27 148.26,-2461.73 221.05,-2450 314.88,-2450 387.68,-2461.73"/>
<text text-anchor="middle" x="267.97" y="-2472.3" font-family="Roboto" font-size="14.00" fill="#000000">X11&#45;fonts (200.99 MiB)</text>
</g>
<!-- N8 -->
<g id="node30" class="node">
<title>N8</title>
<polygon fill="#3fbee8" stroke="#3fbee8" points="411.49,-718.54 411.49,-733.46 327.42,-744 208.52,-744 124.44,-733.46 124.44,-718.54 208.52,-708 327.42,-708 411.49,-718.54"/>
<polygon fill="none" stroke="#3fbee8" points="415.49,-715.01 415.49,-736.99 327.67,-748 208.27,-748 120.44,-736.99 120.44,-715.01 208.27,-704 327.67,-704 415.49,-715.01"/>
<polygon fill="none" stroke="#3fbee8" points="419.49,-711.48 419.49,-740.52 327.92,-752 208.02,-752 116.44,-740.52 116.44,-711.48 208.02,-700 327.92,-700 419.49,-711.48"/>
<text text-anchor="middle" x="267.97" y="-722.3" font-family="Roboto" font-size="14.00" fill="#000000">upwork&#45;5.3.3.862 (168.29 MiB)</text>
</g>
<!-- N8&#45;&gt;N31 -->
<g id="edge20" class="edge">
<title>N8&#45;&gt;N31</title>
<path fill="none" stroke="black" d="M401.01,-709.09C436.16,-703.95 474.03,-697.82 508.82,-691 529.83,-686.88 552.41,-681.66 573.22,-676.52"/>
<polygon fill="black" stroke="black" points="574.11,-679.9 582.97,-674.08 572.42,-673.11 574.11,-679.9"/>
</g>
<!-- N7 -->
<g id="node31" class="node">
<title>N7</title>
<polygon fill="#3fbbe8" stroke="#3fbbe8" points="393.82,-368.54 393.82,-383.46 320.1,-394 215.84,-394 142.11,-383.46 142.11,-368.54 215.84,-358 320.1,-358 393.82,-368.54"/>
<polygon fill="none" stroke="#3fbbe8" points="397.82,-365.08 397.82,-386.92 320.38,-398 215.55,-398 138.12,-386.92 138.12,-365.08 215.55,-354 320.38,-354 397.82,-365.08"/>
<polygon fill="none" stroke="#3fbbe8" points="401.82,-361.61 401.82,-390.39 320.67,-402 215.27,-402 134.12,-390.39 134.12,-361.61 215.27,-350 320.67,-350 401.82,-361.61"/>
<text text-anchor="middle" x="267.97" y="-372.3" font-family="Roboto" font-size="14.00" fill="#000000">gimp&#45;2.10.22 (161.29 MiB)</text>
</g>
<!-- N7&#45;&gt;N35 -->
<g id="edge23" class="edge">
<title>N7&#45;&gt;N35</title>
<path fill="none" stroke="black" d="M402.08,-363.78C459.05,-358.55 523.59,-352.63 572.58,-348.14"/>
<polygon fill="black" stroke="black" points="573.15,-351.6 582.79,-347.2 572.51,-344.63 573.15,-351.6"/>
</g>
<!-- N7&#45;&gt;N30 -->
<g id="edge21" class="edge">
<title>N7&#45;&gt;N30</title>
<path fill="none" stroke="black" d="M402.02,-371.69C438.08,-366.56 476.15,-357.29 508.82,-341 536.72,-327.1 595.54,-263.29 627.87,-226.8"/>
<polygon fill="black" stroke="black" points="630.74,-228.84 634.72,-219.03 625.49,-224.21 630.74,-228.84"/>
</g>
<!-- N7&#45;&gt;N31 -->
<g id="edge22" class="edge">
<title>N7&#45;&gt;N31</title>
<path fill="none" stroke="black" d="M402.03,-370.82C439.92,-375.47 478.97,-386.85 508.82,-411 544.58,-439.92 523.29,-467.37 544.82,-508 569.03,-553.68 605.46,-601.5 628.56,-630.02"/>
<polygon fill="black" stroke="black" points="625.94,-632.35 634.98,-637.88 631.36,-627.92 625.94,-632.35"/>
</g>
<!-- N45 -->
<g id="node33" class="node">
<title>N45</title>
<polygon fill="#4169e1" stroke="#4169e1" points="392.5,-88.54 392.5,-103.46 319.55,-114 216.38,-114 143.43,-103.46 143.43,-88.54 216.38,-78 319.55,-78 392.5,-88.54"/>
<polygon fill="none" stroke="#4169e1" points="396.5,-85.08 396.5,-106.92 319.84,-118 216.1,-118 139.43,-106.92 139.43,-85.08 216.1,-74 319.84,-74 396.5,-85.08"/>
<polygon fill="none" stroke="#4169e1" points="400.51,-81.62 400.51,-110.38 320.13,-122 215.81,-122 135.43,-110.38 135.43,-81.62 215.81,-70 320.13,-70 400.51,-81.62"/>
<text text-anchor="middle" x="267.97" y="-92.3" font-family="Roboto" font-size="14.00" fill="#ffffff">arandr&#45;0.1.10 (205.52 KiB)</text>
</g>
<!-- N45&#45;&gt;N30 -->
<g id="edge24" class="edge">
<title>N45&#45;&gt;N30</title>
<path fill="none" stroke="black" d="M400.72,-107.65C436.31,-112.83 474.47,-120.29 508.82,-131 545.38,-142.39 584.18,-162.2 611.88,-177.84"/>
<polygon fill="black" stroke="black" points="610.42,-181.04 620.84,-182.97 613.9,-174.96 610.42,-181.04"/>
</g>
<!-- N29 -->
<g id="node47" class="node">
<title>N29</title>
<polygon fill="#3fb1e7" stroke="#3fb1e7" points="740.32,-919 562.32,-919 562.32,-883 740.32,-883 740.32,-919"/>
<text text-anchor="middle" x="651.32" y="-897.3" font-family="Roboto" font-size="14.00" fill="#ffffff">opencv&#45;4.3.0 (136.31 MiB)</text>
</g>
<!-- N5&#45;&gt;N29 -->
<g id="edge25" class="edge">
<title>N5&#45;&gt;N29</title>
<path fill="none" stroke="black" d="M409.08,-923.14C456.58,-918.78 508.6,-914.01 552.14,-910.01"/>
<polygon fill="black" stroke="black" points="552.51,-913.49 562.15,-909.09 551.87,-906.52 552.51,-913.49"/>
</g>
<!-- N4 -->
<g id="node35" class="node">
<title>N4</title>
<polygon fill="#3ddceb" stroke="#3ddceb" points="396.04,-2538.54 396.04,-2553.46 321.02,-2564 214.92,-2564 139.9,-2553.46 139.9,-2538.54 214.92,-2528 321.02,-2528 396.04,-2538.54"/>
<polygon fill="none" stroke="#3ddceb" points="400.04,-2535.07 400.04,-2556.93 321.3,-2568 214.64,-2568 135.9,-2556.93 135.9,-2535.07 214.64,-2524 321.3,-2524 400.04,-2535.07"/>
<polygon fill="none" stroke="#3ddceb" points="404.04,-2531.59 404.04,-2560.41 321.58,-2572 214.36,-2572 131.9,-2560.41 131.9,-2531.59 214.36,-2520 321.58,-2520 404.04,-2531.59"/>
<text text-anchor="middle" x="267.97" y="-2542.3" font-family="Roboto" font-size="14.00" fill="#000000">calibre&#45;4.23.0 (250.09 MiB)</text>
</g>
<!-- N3 -->
<g id="node36" class="node">
<title>N3</title>
<polygon fill="#c7ff2a" stroke="#c7ff2a" points="415.92,-2608.54 415.92,-2623.46 329.25,-2634 206.68,-2634 120.01,-2623.46 120.01,-2608.54 206.68,-2598 329.25,-2598 415.92,-2608.54"/>
<polygon fill="none" stroke="#c7ff2a" points="419.93,-2605 419.93,-2627 329.5,-2638 206.44,-2638 116.01,-2627 116.01,-2605 206.44,-2594 329.5,-2594 419.93,-2605"/>
<polygon fill="none" stroke="#c7ff2a" points="423.94,-2601.46 423.94,-2630.54 329.74,-2642 206.2,-2642 112,-2630.54 112,-2601.46 206.2,-2590 329.74,-2590 423.94,-2601.46"/>
<text text-anchor="middle" x="267.97" y="-2612.3" font-family="Roboto" font-size="14.00" fill="#000000">clang&#45;tools&#45;11.0.0 (920.48 MiB)</text>
</g>
<!-- N46 -->
<g id="node37" class="node">
<title>N46</title>
<polygon fill="#416fe1" stroke="#416fe1" points="407.06,-858.54 407.06,-873.46 325.58,-884 210.35,-884 128.87,-873.46 128.87,-858.54 210.35,-848 325.58,-848 407.06,-858.54"/>
<polygon fill="none" stroke="#416fe1" points="411.06,-855.03 411.06,-876.97 325.84,-888 210.1,-888 124.88,-876.97 124.88,-855.03 210.1,-844 325.84,-844 411.06,-855.03"/>
<polygon fill="none" stroke="#416fe1" points="415.05,-851.51 415.05,-880.49 326.1,-892 209.84,-892 120.89,-880.49 120.89,-851.51 209.84,-840 326.1,-840 415.05,-851.51"/>
<text text-anchor="middle" x="267.97" y="-862.3" font-family="Roboto" font-size="14.00" fill="#ffffff">nomacs&#45;3.17.2206 (8.73 MiB)</text>
</g>
<!-- N46&#45;&gt;N31 -->
<g id="edge27" class="edge">
<title>N46&#45;&gt;N31</title>
<path fill="none" stroke="black" d="M415.17,-862.18C447.54,-856.66 480.58,-847.09 508.82,-831 570.29,-795.98 615.6,-722.95 636.85,-683.2"/>
<polygon fill="black" stroke="black" points="640.09,-684.57 641.61,-674.09 633.88,-681.33 640.09,-684.57"/>
</g>
<!-- N46&#45;&gt;N29 -->
<g id="edge26" class="edge">
<title>N46&#45;&gt;N29</title>
<path fill="none" stroke="black" d="M415.32,-879.43C461.12,-883.63 510.52,-888.17 552.16,-891.99"/>
<polygon fill="black" stroke="black" points="552.02,-895.49 562.3,-892.92 552.66,-888.52 552.02,-895.49"/>
</g>
<!-- N2 -->
<g id="node38" class="node">
<title>N2</title>
<polygon fill="#3ceded" stroke="#3ceded" points="387.65,-2678.54 387.65,-2693.46 317.54,-2704 218.39,-2704 148.29,-2693.46 148.29,-2678.54 218.39,-2668 317.54,-2668 387.65,-2678.54"/>
<polygon fill="none" stroke="#3ceded" points="391.65,-2675.1 391.65,-2696.9 317.84,-2708 218.1,-2708 144.28,-2696.9 144.28,-2675.1 218.1,-2664 317.84,-2664 391.65,-2675.1"/>
<polygon fill="none" stroke="#3ceded" points="395.66,-2671.66 395.66,-2700.34 318.14,-2712 217.8,-2712 140.28,-2700.34 140.28,-2671.66 217.8,-2660 318.14,-2660 395.66,-2671.66"/>
<text text-anchor="middle" x="267.97" y="-2682.3" font-family="Roboto" font-size="14.00" fill="#000000">elixir&#45;1.11.2 (301.72 MiB)</text>
</g>
<!-- N32&#45;&gt;N33 -->
<g id="edge28" class="edge">
<title>N32&#45;&gt;N33</title>
<path fill="none" stroke="black" d="M742.37,-1902.27C755.91,-1900.2 769.93,-1898.06 783.63,-1895.97"/>
<polygon fill="black" stroke="black" points="784.18,-1899.43 793.54,-1894.46 783.13,-1892.51 784.18,-1899.43"/>
</g>
</g>
</svg>
