<?xml version="1.0" encoding="UTF-8" standalone="no"?>
<!DOCTYPE svg PUBLIC "-//W3C//DTD SVG 1.1//EN"
 "http://www.w3.org/Graphics/SVG/1.1/DTD/svg11.dtd">
<!-- Generated by graphviz version 2.43.0 (0)
 -->
<!-- Title: nixstore Pages: 1 -->
<svg width="824pt" height="3420pt"
 viewBox="0.00 0.00 824.01 3420.00" xmlns="http://www.w3.org/2000/svg" xmlns:xlink="http://www.w3.org/1999/xlink">
<g id="graph0" class="graph" transform="scale(1 1) rotate(0) translate(4 3416)">
<title>nixstore</title>
<polygon fill="white" stroke="transparent" points="-4,4 -4,-3416 820.01,-3416 820.01,4 -4,4"/>
<!-- N60 -->
<g id="node1" class="node">
<title>N60</title>
<polygon fill="#fe6100" stroke="#fe6100" points="394.71,-18.54 394.71,-33.46 329.52,-44 237.32,-44 172.12,-33.46 172.12,-18.54 237.32,-8 329.52,-8 394.71,-18.54"/>
<polygon fill="none" stroke="#fe6100" points="398.72,-15.14 398.72,-36.86 329.84,-48 237,-48 168.12,-36.86 168.12,-15.14 237,-4 329.84,-4 398.72,-15.14"/>
<polygon fill="none" stroke="#fe6100" points="402.72,-11.74 402.72,-40.26 330.16,-52 236.67,-52 164.11,-40.26 164.11,-11.74 236.67,0 330.16,0 402.72,-11.74"/>
<text text-anchor="middle" x="283.42" y="-22.3" font-family="Roboto" font-size="14.00" fill="#000000">{filtered out} (2.04 GiB)</text>
</g>
<!-- N30 -->
<g id="node2" class="node">
<title>N30</title>
<polygon fill="#38f3b7" stroke="#38f3b7" points="407.95,-1138.54 407.95,-1153.46 335,-1164 231.83,-1164 158.88,-1153.46 158.88,-1138.54 231.83,-1128 335,-1128 407.95,-1138.54"/>
<polygon fill="none" stroke="#38f3b7" points="411.95,-1135.08 411.95,-1156.92 335.29,-1168 231.55,-1168 154.88,-1156.92 154.88,-1135.08 231.55,-1124 335.29,-1124 411.95,-1135.08"/>
<polygon fill="none" stroke="#38f3b7" points="415.95,-1131.62 415.95,-1160.38 335.58,-1172 231.26,-1172 150.88,-1160.38 150.88,-1131.62 231.26,-1120 335.58,-1120 415.95,-1131.62"/>
<text text-anchor="middle" x="283.42" y="-1142.3" font-family="Roboto" font-size="14.00" fill="#000000">inkscape&#45;1.0 (445.47 MiB)</text>
</g>
<!-- N41 -->
<g id="node50" class="node">
<title>N41</title>
<polygon fill="#3fb7e7" stroke="#3fb7e7" points="760.51,-1094 623.51,-1094 623.51,-1058 760.51,-1058 760.51,-1094"/>
<text text-anchor="middle" x="692.01" y="-1072.3" font-family="Roboto" font-size="14.00" fill="#000000">blas&#45;3 (144.29 MiB)</text>
</g>
<!-- N30&#45;&gt;N41 -->
<g id="edge1" class="edge">
<title>N30&#45;&gt;N41</title>
<path fill="none" stroke="black" d="M408.14,-1130.4C447.8,-1124.89 491.85,-1118.25 532.01,-1111 558.53,-1106.21 587.35,-1100.14 613.08,-1094.4"/>
<polygon fill="black" stroke="black" points="614.16,-1097.74 623.15,-1092.13 612.63,-1090.91 614.16,-1097.74"/>
</g>
<!-- N42 -->
<g id="node3" class="node">
<title>N42</title>
<polygon fill="#407be2" stroke="#407be2" points="405.31,-928.54 405.31,-943.46 333.91,-954 232.93,-954 161.52,-943.46 161.52,-928.54 232.93,-918 333.91,-918 405.31,-928.54"/>
<polygon fill="none" stroke="#407be2" points="409.32,-925.09 409.32,-946.91 334.2,-958 232.63,-958 157.52,-946.91 157.52,-925.09 232.63,-914 334.2,-914 409.32,-925.09"/>
<polygon fill="none" stroke="#407be2" points="413.33,-921.64 413.33,-950.36 334.5,-962 232.34,-962 153.51,-950.36 153.51,-921.64 232.34,-910 334.5,-910 413.33,-921.64"/>
<text text-anchor="middle" x="283.42" y="-932.3" font-family="Roboto" font-size="14.00" fill="#ffffff">arandr&#45;0.1.10 (26.95 MiB)</text>
</g>
<!-- N39 -->
<g id="node51" class="node">
<title>N39</title>
<polygon fill="#36f693" stroke="#36f693" points="787.51,-814 596.51,-814 596.51,-778 787.51,-778 787.51,-814"/>
<text text-anchor="middle" x="692.01" y="-792.3" font-family="Roboto" font-size="14.00" fill="#000000">libGL&#45;1.3.2&#45;dev (516.59 MiB)</text>
</g>
<!-- N42&#45;&gt;N39 -->
<g id="edge2" class="edge">
<title>N42&#45;&gt;N39</title>
<path fill="none" stroke="black" d="M413.4,-928.69C452.41,-923.6 494.76,-915.11 532.01,-901 581.78,-882.15 631.79,-845.53 662.08,-820.91"/>
<polygon fill="black" stroke="black" points="664.6,-823.37 670.09,-814.31 660.14,-817.97 664.6,-823.37"/>
</g>
<!-- N29 -->
<g id="node4" class="node">
<title>N29</title>
<polygon fill="#3dd8ea" stroke="#3dd8ea" points="481.69,-1208.54 481.69,-1223.46 365.55,-1234 201.29,-1234 85.14,-1223.46 85.14,-1208.54 201.29,-1198 365.55,-1198 481.69,-1208.54"/>
<polygon fill="none" stroke="#3dd8ea" points="485.69,-1204.89 485.69,-1227.11 365.73,-1238 201.11,-1238 81.15,-1227.11 81.15,-1204.89 201.11,-1194 365.73,-1194 485.69,-1204.89"/>
<polygon fill="none" stroke="#3dd8ea" points="489.69,-1201.24 489.69,-1230.76 365.91,-1242 200.93,-1242 77.15,-1230.76 77.15,-1201.24 200.93,-1190 365.91,-1190 489.69,-1201.24"/>
<text text-anchor="middle" x="283.42" y="-1212.3" font-family="Roboto" font-size="14.00" fill="#000000">papirus&#45;icon&#45;theme&#45;20200801 (227.27 MiB)</text>
</g>
<!-- N43 -->
<g id="node5" class="node">
<title>N43</title>
<polygon fill="#3f9ee4" stroke="#3f9ee4" points="426.05,-858.54 426.05,-873.46 342.5,-884 224.34,-884 140.79,-873.46 140.79,-858.54 224.34,-848 342.5,-848 426.05,-858.54"/>
<polygon fill="none" stroke="#3f9ee4" points="430.04,-855.02 430.04,-876.98 342.75,-888 224.09,-888 136.79,-876.98 136.79,-855.02 224.09,-844 342.75,-844 430.04,-855.02"/>
<polygon fill="none" stroke="#3f9ee4" points="434.04,-851.49 434.04,-880.51 343,-892 223.84,-892 132.8,-880.51 132.8,-851.49 223.84,-840 343,-840 434.04,-851.49"/>
<text text-anchor="middle" x="283.42" y="-862.3" font-family="Roboto" font-size="14.00" fill="#ffffff">virt&#45;manager&#45;2.2.1 (88.71 MiB)</text>
</g>
<!-- N43&#45;&gt;N39 -->
<g id="edge3" class="edge">
<title>N43&#45;&gt;N39</title>
<path fill="none" stroke="black" d="M416.42,-849.24C453.88,-843.97 494.63,-837.75 532.01,-831 555.74,-826.72 581.31,-821.4 604.87,-816.22"/>
<polygon fill="black" stroke="black" points="605.82,-819.59 614.82,-814.01 604.3,-812.76 605.82,-819.59"/>
</g>
<!-- N44 -->
<g id="node6" class="node">
<title>N44</title>
<polygon fill="#3fa3e5" stroke="#3fa3e5" points="428.26,-1418.54 428.26,-1433.46 343.41,-1444 223.42,-1444 138.57,-1433.46 138.57,-1418.54 223.42,-1408 343.41,-1408 428.26,-1418.54"/>
<polygon fill="none" stroke="#3fa3e5" points="432.26,-1415.01 432.26,-1436.99 343.66,-1448 223.17,-1448 134.58,-1436.99 134.58,-1415.01 223.17,-1404 343.66,-1404 432.26,-1415.01"/>
<polygon fill="none" stroke="#3fa3e5" points="436.26,-1411.48 436.26,-1440.52 343.91,-1452 222.93,-1452 130.58,-1440.52 130.58,-1411.48 222.93,-1400 343.91,-1400 436.26,-1411.48"/>
<text text-anchor="middle" x="283.42" y="-1422.3" font-family="Roboto" font-size="14.00" fill="#ffffff">nomacs&#45;3.16.224 (100.50 MiB)</text>
</g>
<!-- N40 -->
<g id="node52" class="node">
<title>N40</title>
<polygon fill="#3faee6" stroke="#3faee6" points="781.01,-1409 603.01,-1409 603.01,-1373 781.01,-1373 781.01,-1409"/>
<text text-anchor="middle" x="692.01" y="-1387.3" font-family="Roboto" font-size="14.00" fill="#ffffff">opencv&#45;4.3.0 (122.67 MiB)</text>
</g>
<!-- N44&#45;&gt;N40 -->
<g id="edge4" class="edge">
<title>N44&#45;&gt;N40</title>
<path fill="none" stroke="black" d="M436.4,-1412.92C488.72,-1408.41 545.9,-1403.49 592.79,-1399.45"/>
<polygon fill="black" stroke="black" points="593.28,-1402.93 602.94,-1398.58 592.68,-1395.95 593.28,-1402.93"/>
</g>
<!-- N45 -->
<g id="node7" class="node">
<title>N45</title>
<polygon fill="#3fb1e6" stroke="#3fb1e6" points="409.27,-508.54 409.27,-523.46 335.55,-534 231.29,-534 157.56,-523.46 157.56,-508.54 231.29,-498 335.55,-498 409.27,-508.54"/>
<polygon fill="none" stroke="#3fb1e6" points="413.27,-505.08 413.27,-526.92 335.83,-538 231,-538 153.57,-526.92 153.57,-505.08 231,-494 335.83,-494 413.27,-505.08"/>
<polygon fill="none" stroke="#3fb1e6" points="417.27,-501.61 417.27,-530.39 336.12,-542 230.72,-542 149.57,-530.39 149.57,-501.61 230.72,-490 336.12,-490 417.27,-501.61"/>
<text text-anchor="middle" x="283.42" y="-512.3" font-family="Roboto" font-size="14.00" fill="#ffffff">neovim&#45;0.4.4 (130.45 MiB)</text>
</g>
<!-- N31 -->
<g id="node53" class="node">
<title>N31</title>
<polygon fill="#3fb4e6" stroke="#3fb4e6" points="769.51,-394 614.51,-394 614.51,-358 769.51,-358 769.51,-394"/>
<text text-anchor="middle" x="692.01" y="-372.3" font-family="Roboto" font-size="14.00" fill="#ffffff">gcc&#45;9.3.0 (136.79 MiB)</text>
</g>
<!-- N45&#45;&gt;N31 -->
<g id="edge5" class="edge">
<title>N45&#45;&gt;N31</title>
<path fill="none" stroke="black" d="M417.56,-508.13C455.4,-502.99 496.08,-494.61 532.01,-481 581.78,-462.15 631.79,-425.53 662.08,-400.91"/>
<polygon fill="black" stroke="black" points="664.6,-403.37 670.09,-394.31 660.14,-397.97 664.6,-403.37"/>
</g>
<!-- N46 -->
<g id="node8" class="node">
<title>N46</title>
<polygon fill="#4075e1" stroke="#4075e1" points="411.49,-788.54 411.49,-803.46 336.47,-814 230.37,-814 155.35,-803.46 155.35,-788.54 230.37,-778 336.47,-778 411.49,-788.54"/>
<polygon fill="none" stroke="#4075e1" points="415.49,-785.07 415.49,-806.93 336.75,-818 230.09,-818 151.35,-806.93 151.35,-785.07 230.09,-774 336.75,-774 415.49,-785.07"/>
<polygon fill="none" stroke="#4075e1" points="419.49,-781.59 419.49,-810.41 337.03,-822 229.81,-822 147.35,-810.41 147.35,-781.59 229.81,-770 337.03,-770 419.49,-781.59"/>
<text text-anchor="middle" x="283.42" y="-792.3" font-family="Roboto" font-size="14.00" fill="#ffffff">tigervnc&#45;1.10.1 (17.65 MiB)</text>
</g>
<!-- N46&#45;&gt;N39 -->
<g id="edge6" class="edge">
<title>N46&#45;&gt;N39</title>
<path fill="none" stroke="black" d="M419.53,-796C473.9,-796 535.64,-796 586.49,-796"/>
<polygon fill="black" stroke="black" points="586.51,-799.5 596.51,-796 586.51,-792.5 586.51,-799.5"/>
</g>
<!-- N28 -->
<g id="node9" class="node">
<title>N28</title>
<polygon fill="#3ce6ec" stroke="#3ce6ec" points="463.6,-1488.54 463.6,-1503.46 358.05,-1514 208.78,-1514 103.23,-1503.46 103.23,-1488.54 208.78,-1478 358.05,-1478 463.6,-1488.54"/>
<polygon fill="none" stroke="#3ce6ec" points="467.6,-1484.92 467.6,-1507.08 358.25,-1518 208.58,-1518 99.23,-1507.08 99.23,-1484.92 208.58,-1474 358.25,-1474 467.6,-1484.92"/>
<polygon fill="none" stroke="#3ce6ec" points="471.61,-1481.3 471.61,-1510.7 358.45,-1522 208.38,-1522 95.23,-1510.7 95.23,-1481.3 208.38,-1470 358.45,-1470 471.61,-1481.3"/>
<text text-anchor="middle" x="283.42" y="-1492.3" font-family="Roboto" font-size="14.00" fill="#000000">qemu&#45;host&#45;cpu&#45;only&#45;5.0.0 (266.52 MiB)</text>
</g>
<!-- N27 -->
<g id="node10" class="node">
<title>N27</title>
<polygon fill="#3ec3e8" stroke="#3ec3e8" points="524.1,-1558.54 524.1,-1573.46 383.11,-1584 183.72,-1584 42.73,-1573.46 42.73,-1558.54 183.72,-1548 383.11,-1548 524.1,-1558.54"/>
<polygon fill="none" stroke="#3ec3e8" points="528.11,-1554.83 528.11,-1577.17 383.26,-1588 183.57,-1588 38.73,-1577.17 38.73,-1554.83 183.57,-1544 383.26,-1544 528.11,-1554.83"/>
<polygon fill="none" stroke="#3ec3e8" points="532.11,-1551.12 532.11,-1580.88 383.41,-1592 183.42,-1592 34.73,-1580.88 34.73,-1551.12 183.42,-1540 383.41,-1540 532.11,-1551.12"/>
<text text-anchor="middle" x="283.42" y="-1562.3" font-family="Roboto" font-size="14.00" fill="#000000">google&#45;play&#45;music&#45;desktop&#45;player&#45;4.7.1 (173.67 MiB)</text>
</g>
<!-- N26 -->
<g id="node11" class="node">
<title>N26</title>
<polygon fill="#3eb8e7" stroke="#3eb8e7" points="428.26,-1628.54 428.26,-1643.46 343.41,-1654 223.42,-1654 138.57,-1643.46 138.57,-1628.54 223.42,-1618 343.41,-1618 428.26,-1628.54"/>
<polygon fill="none" stroke="#3eb8e7" points="432.26,-1625.01 432.26,-1646.99 343.66,-1658 223.17,-1658 134.58,-1646.99 134.58,-1625.01 223.17,-1614 343.66,-1614 432.26,-1625.01"/>
<polygon fill="none" stroke="#3eb8e7" points="436.26,-1621.48 436.26,-1650.52 343.91,-1662 222.93,-1662 130.58,-1650.52 130.58,-1621.48 222.93,-1610 343.91,-1610 436.26,-1621.48"/>
<text text-anchor="middle" x="283.42" y="-1632.3" font-family="Roboto" font-size="14.00" fill="#000000">prusa&#45;slicer&#45;2.2.0 (147.24 MiB)</text>
</g>
<!-- N25 -->
<g id="node12" class="node">
<title>N25</title>
<polygon fill="#3dd1e9" stroke="#3dd1e9" points="430.48,-1698.54 430.48,-1713.46 344.33,-1724 222.5,-1724 136.36,-1713.46 136.36,-1698.54 222.5,-1688 344.33,-1688 430.48,-1698.54"/>
<polygon fill="none" stroke="#3dd1e9" points="434.48,-1695 434.48,-1717 344.58,-1728 222.26,-1728 132.36,-1717 132.36,-1695 222.26,-1684 344.58,-1684 434.48,-1695"/>
<polygon fill="none" stroke="#3dd1e9" points="438.48,-1691.46 438.48,-1720.54 344.82,-1732 222.02,-1732 128.36,-1720.54 128.36,-1691.46 222.02,-1680 344.82,-1680 438.48,-1691.46"/>
<text text-anchor="middle" x="283.42" y="-1702.3" font-family="Roboto" font-size="14.00" fill="#000000">glibc&#45;locales&#45;2.31 (209.56 MiB)</text>
</g>
<!-- N47 -->
<g id="node13" class="node">
<title>N47</title>
<polygon fill="#4169e1" stroke="#4169e1" points="468.45,-2258.54 468.45,-2273.46 360.06,-2284 206.77,-2284 98.38,-2273.46 98.38,-2258.54 206.77,-2248 360.06,-2248 468.45,-2258.54"/>
<polygon fill="none" stroke="#4169e1" points="472.45,-2254.91 472.45,-2277.09 360.26,-2288 206.58,-2288 94.38,-2277.09 94.38,-2254.91 206.58,-2244 360.26,-2244 472.45,-2254.91"/>
<polygon fill="none" stroke="#4169e1" points="476.45,-2251.28 476.45,-2280.72 360.45,-2292 206.39,-2292 90.38,-2280.72 90.38,-2251.28 206.39,-2240 360.45,-2240 476.45,-2251.28"/>
<text text-anchor="middle" x="283.42" y="-2262.3" font-family="Roboto" font-size="14.00" fill="#ffffff">nvidia&#45;persistenced&#45;450.57 (115.81 KiB)</text>
</g>
<!-- N34 -->
<g id="node54" class="node">
<title>N34</title>
<polygon fill="#3beee2" stroke="#3beee2" points="816.01,-2214 568.01,-2214 568.01,-2178 816.01,-2178 816.01,-2214"/>
<text text-anchor="middle" x="692.01" y="-2192.3" font-family="Roboto" font-size="14.00" fill="#000000">nvidia&#45;x11&#45;450.57&#45;5.4.57 (322.13 MiB)</text>
</g>
<!-- N47&#45;&gt;N34 -->
<g id="edge7" class="edge">
<title>N47&#45;&gt;N34</title>
<path fill="none" stroke="black" d="M432.33,-2246.97C465.22,-2242.22 499.86,-2236.8 532.01,-2231 555.74,-2226.72 581.31,-2221.4 604.87,-2216.22"/>
<polygon fill="black" stroke="black" points="605.82,-2219.59 614.82,-2214.01 604.3,-2212.76 605.82,-2219.59"/>
</g>
<!-- N24 -->
<g id="node14" class="node">
<title>N24</title>
<polygon fill="#3ec3e8" stroke="#3ec3e8" points="395.14,-2328.54 395.14,-2343.46 329.69,-2354 237.14,-2354 171.7,-2343.46 171.7,-2328.54 237.14,-2318 329.69,-2318 395.14,-2328.54"/>
<polygon fill="none" stroke="#3ec3e8" points="399.13,-2325.14 399.13,-2346.86 330.01,-2358 236.82,-2358 167.7,-2346.86 167.7,-2325.14 236.82,-2314 330.01,-2314 399.13,-2325.14"/>
<polygon fill="none" stroke="#3ec3e8" points="403.13,-2321.73 403.13,-2350.27 330.33,-2362 236.5,-2362 163.71,-2350.27 163.71,-2321.73 236.5,-2310 330.33,-2310 403.13,-2321.73"/>
<text text-anchor="middle" x="283.42" y="-2332.3" font-family="Roboto" font-size="14.00" fill="#000000">X11&#45;fonts (173.71 MiB)</text>
</g>
<!-- N48 -->
<g id="node15" class="node">
<title>N48</title>
<polygon fill="#406de1" stroke="#406de1" points="394.71,-2468.54 394.71,-2483.46 329.52,-2494 237.32,-2494 172.12,-2483.46 172.12,-2468.54 237.32,-2458 329.52,-2458 394.71,-2468.54"/>
<polygon fill="none" stroke="#406de1" points="398.72,-2465.14 398.72,-2486.86 329.84,-2498 237,-2498 168.12,-2486.86 168.12,-2465.14 237,-2454 329.84,-2454 398.72,-2465.14"/>
<polygon fill="none" stroke="#406de1" points="402.72,-2461.74 402.72,-2490.26 330.16,-2502 236.67,-2502 164.11,-2490.26 164.11,-2461.74 236.67,-2450 330.16,-2450 402.72,-2461.74"/>
<text text-anchor="middle" x="283.42" y="-2472.3" font-family="Roboto" font-size="14.00" fill="#ffffff">zeal&#45;0.6.999 (5.67 MiB)</text>
</g>
<!-- N36 -->
<g id="node55" class="node">
<title>N36</title>
<polygon fill="#3ebee7" stroke="#3ebee7" points="813.01,-2459 571.01,-2459 571.01,-2423 813.01,-2423 813.01,-2459"/>
<text text-anchor="middle" x="692.01" y="-2437.3" font-family="Roboto" font-size="14.00" fill="#000000">qtwebengine&#45;5.12.7&#45;bin (161.78 MiB)</text>
</g>
<!-- N48&#45;&gt;N36 -->
<g id="edge8" class="edge">
<title>N48&#45;&gt;N36</title>
<path fill="none" stroke="black" d="M402.84,-2465.81C452.4,-2461.54 510.17,-2456.57 560.91,-2452.2"/>
<polygon fill="black" stroke="black" points="561.29,-2455.68 570.96,-2451.33 560.69,-2448.71 561.29,-2455.68"/>
</g>
<!-- N23 -->
<g id="node16" class="node">
<title>N23</title>
<polygon fill="#fe9a00" stroke="#fe9a00" points="377.47,-1838.54 377.47,-1853.46 322.38,-1864 244.46,-1864 189.36,-1853.46 189.36,-1838.54 244.46,-1828 322.38,-1828 377.47,-1838.54"/>
<polygon fill="none" stroke="#fe9a00" points="381.46,-1835.24 381.46,-1856.76 322.75,-1868 244.08,-1868 185.37,-1856.76 185.37,-1835.24 244.08,-1824 322.75,-1824 381.46,-1835.24"/>
<polygon fill="none" stroke="#fe9a00" points="385.45,-1831.93 385.45,-1860.07 323.13,-1872 243.7,-1872 181.38,-1860.07 181.38,-1831.93 243.7,-1820 323.13,-1820 385.45,-1831.93"/>
<text text-anchor="middle" x="283.42" y="-1842.3" font-family="Roboto" font-size="14.00" fill="#000000">wine&#45;5.0 (1.82 GiB)</text>
</g>
<!-- N37 -->
<g id="node56" class="node">
<title>N37</title>
<polygon fill="#3cede8" stroke="#3cede8" points="787.51,-1907 596.51,-1907 596.51,-1871 787.51,-1871 787.51,-1907"/>
<text text-anchor="middle" x="692.01" y="-1885.3" font-family="Roboto" font-size="14.00" fill="#000000">freetype&#45;2.10.2 (300.54 MiB)</text>
</g>
<!-- N23&#45;&gt;N37 -->
<g id="edge9" class="edge">
<title>N23&#45;&gt;N37</title>
<path fill="none" stroke="black" d="M385.71,-1856.71C446.76,-1863.17 524.37,-1871.38 586.06,-1877.9"/>
<polygon fill="black" stroke="black" points="585.9,-1881.4 596.21,-1878.97 586.63,-1874.44 585.9,-1881.4"/>
</g>
<!-- N38 -->
<g id="node57" class="node">
<title>N38</title>
<polygon fill="#3faae5" stroke="#3faae5" points="774.01,-1802 610.01,-1802 610.01,-1766 774.01,-1766 774.01,-1802"/>
<text text-anchor="middle" x="692.01" y="-1780.3" font-family="Roboto" font-size="14.00" fill="#ffffff">perl&#45;5.30.3 (114.44 MiB)</text>
</g>
<!-- N23&#45;&gt;N38 -->
<g id="edge10" class="edge">
<title>N23&#45;&gt;N38</title>
<path fill="none" stroke="black" d="M385.7,-1832.33C430.57,-1826.11 483.97,-1818.47 532.01,-1811 553.97,-1807.59 577.58,-1803.69 599.73,-1799.95"/>
<polygon fill="black" stroke="black" points="600.51,-1803.36 609.79,-1798.24 599.34,-1796.46 600.51,-1803.36"/>
</g>
<!-- N22 -->
<g id="node17" class="node">
<title>N22</title>
<polygon fill="#eafe21" stroke="#eafe21" points="411.49,-158.54 411.49,-173.46 336.47,-184 230.37,-184 155.35,-173.46 155.35,-158.54 230.37,-148 336.47,-148 411.49,-158.54"/>
<polygon fill="none" stroke="#eafe21" points="415.49,-155.07 415.49,-176.93 336.75,-188 230.09,-188 151.35,-176.93 151.35,-155.07 230.09,-144 336.75,-144 415.49,-155.07"/>
<polygon fill="none" stroke="#eafe21" points="419.49,-151.59 419.49,-180.41 337.03,-192 229.81,-192 147.35,-180.41 147.35,-151.59 229.81,-140 337.03,-140 419.49,-151.59"/>
<text text-anchor="middle" x="283.42" y="-162.3" font-family="Roboto" font-size="14.00" fill="#000000">bookworm&#45;1.1.2 (1.06 GiB)</text>
</g>
<!-- N22&#45;&gt;N31 -->
<g id="edge11" class="edge">
<title>N22&#45;&gt;N31</title>
<path fill="none" stroke="black" d="M419.77,-168.22C457.76,-173.24 497.96,-182.97 532.01,-201 597.98,-235.92 650.45,-309.52 675.32,-349.24"/>
<polygon fill="black" stroke="black" points="672.41,-351.18 680.62,-357.87 678.37,-347.52 672.41,-351.18"/>
</g>
<!-- N33 -->
<g id="node58" class="node">
<title>N33</title>
<polygon fill="#3fa4e5" stroke="#3fa4e5" points="792.01,-149 592.01,-149 592.01,-113 792.01,-113 792.01,-149"/>
<text text-anchor="middle" x="692.01" y="-127.3" font-family="Roboto" font-size="14.00" fill="#ffffff">webkitgtk&#45;2.28.3 (102.31 MiB)</text>
</g>
<!-- N22&#45;&gt;N33 -->
<g id="edge12" class="edge">
<title>N22&#45;&gt;N33</title>
<path fill="none" stroke="black" d="M419.53,-154.37C472.17,-149.84 531.71,-144.71 581.59,-140.42"/>
<polygon fill="black" stroke="black" points="582.1,-143.89 591.76,-139.54 581.5,-136.91 582.1,-143.89"/>
</g>
<!-- N21 -->
<g id="node18" class="node">
<title>N21</title>
<polygon fill="#3ebae7" stroke="#3ebae7" points="409.27,-998.54 409.27,-1013.46 335.55,-1024 231.29,-1024 157.56,-1013.46 157.56,-998.54 231.29,-988 335.55,-988 409.27,-998.54"/>
<polygon fill="none" stroke="#3ebae7" points="413.27,-995.08 413.27,-1016.92 335.83,-1028 231,-1028 153.57,-1016.92 153.57,-995.08 231,-984 335.83,-984 413.27,-995.08"/>
<polygon fill="none" stroke="#3ebae7" points="417.27,-991.61 417.27,-1020.39 336.12,-1032 230.72,-1032 149.57,-1020.39 149.57,-991.61 230.72,-980 336.12,-980 417.27,-991.61"/>
<text text-anchor="middle" x="283.42" y="-1002.3" font-family="Roboto" font-size="14.00" fill="#000000">gimp&#45;2.10.20 (150.45 MiB)</text>
</g>
<!-- N21&#45;&gt;N41 -->
<g id="edge14" class="edge">
<title>N21&#45;&gt;N41</title>
<path fill="none" stroke="black" d="M408.77,-1021.69C448.27,-1027.18 492.07,-1033.79 532.01,-1041 558.53,-1045.79 587.35,-1051.86 613.08,-1057.6"/>
<polygon fill="black" stroke="black" points="612.63,-1061.09 623.15,-1059.87 614.16,-1054.26 612.63,-1061.09"/>
</g>
<!-- N21&#45;&gt;N39 -->
<g id="edge13" class="edge">
<title>N21&#45;&gt;N39</title>
<path fill="none" stroke="black" d="M417.52,-1004.08C456.17,-999.14 497.29,-989.38 532.01,-971 597.98,-936.08 650.45,-862.48 675.32,-822.76"/>
<polygon fill="black" stroke="black" points="678.37,-824.48 680.62,-814.13 672.41,-820.82 678.37,-824.48"/>
</g>
<!-- N20 -->
<g id="node19" class="node">
<title>N20</title>
<polygon fill="#35f778" stroke="#35f778" points="424.73,-718.54 424.73,-733.46 341.95,-744 224.89,-744 142.11,-733.46 142.11,-718.54 224.89,-708 341.95,-708 424.73,-718.54"/>
<polygon fill="none" stroke="#35f778" points="428.72,-715.02 428.72,-736.98 342.2,-748 224.63,-748 138.11,-736.98 138.11,-715.02 224.63,-704 342.2,-704 428.72,-715.02"/>
<polygon fill="none" stroke="#35f778" points="432.72,-711.5 432.72,-740.5 342.46,-752 224.38,-752 134.11,-740.5 134.11,-711.5 224.38,-700 342.46,-700 432.72,-711.5"/>
<text text-anchor="middle" x="283.42" y="-722.3" font-family="Roboto" font-size="14.00" fill="#000000">wesnoth&#45;1.14.13 (555.74 MiB)</text>
</g>
<!-- N20&#45;&gt;N39 -->
<g id="edge15" class="edge">
<title>N20&#45;&gt;N39</title>
<path fill="none" stroke="black" d="M415.78,-742.67C453.41,-747.96 494.42,-754.22 532.01,-761 555.74,-765.28 581.31,-770.6 604.87,-775.78"/>
<polygon fill="black" stroke="black" points="604.3,-779.24 614.82,-777.99 605.82,-772.41 604.3,-779.24"/>
</g>
<!-- N19 -->
<g id="node20" class="node">
<title>N19</title>
<polygon fill="#fe0000" stroke="#fe0000" points="465.82,-438.54 465.82,-453.46 358.97,-464 207.86,-464 101.02,-453.46 101.02,-438.54 207.86,-428 358.97,-428 465.82,-438.54"/>
<polygon fill="none" stroke="#fe0000" points="469.82,-434.92 469.82,-457.08 359.17,-468 207.67,-468 97.01,-457.08 97.01,-434.92 207.67,-424 359.17,-424 469.82,-434.92"/>
<polygon fill="none" stroke="#fe0000" points="473.83,-431.3 473.83,-460.7 359.37,-472 207.47,-472 93.01,-460.7 93.01,-431.3 207.47,-420 359.37,-420 473.83,-431.3"/>
<text text-anchor="middle" x="283.42" y="-442.3" font-family="Roboto" font-size="14.00" fill="#000000">xmonad&#45;with&#45;packages&#45;8.8.4 (2.17 GiB)</text>
</g>
<!-- N19&#45;&gt;N31 -->
<g id="edge16" class="edge">
<title>N19&#45;&gt;N31</title>
<path fill="none" stroke="black" d="M431.67,-427.07C464.76,-422.29 499.65,-416.84 532.01,-411 555.74,-406.72 581.31,-401.4 604.87,-396.22"/>
<polygon fill="black" stroke="black" points="605.82,-399.59 614.82,-394.01 604.3,-392.76 605.82,-399.59"/>
</g>
<!-- N49 -->
<g id="node21" class="node">
<title>N49</title>
<polygon fill="#406be1" stroke="#406be1" points="390.28,-2608.54 390.28,-2623.46 327.68,-2634 239.15,-2634 176.55,-2623.46 176.55,-2608.54 239.15,-2598 327.68,-2598 390.28,-2608.54"/>
<polygon fill="none" stroke="#406be1" points="394.28,-2605.16 394.28,-2626.84 328.02,-2638 238.82,-2638 172.55,-2626.84 172.55,-2605.16 238.82,-2594 328.02,-2594 394.28,-2605.16"/>
<polygon fill="none" stroke="#406be1" points="398.28,-2601.78 398.28,-2630.22 328.35,-2642 238.48,-2642 168.56,-2630.22 168.56,-2601.78 238.48,-2590 328.35,-2590 398.28,-2601.78"/>
<text text-anchor="middle" x="283.42" y="-2612.3" font-family="Roboto" font-size="14.00" fill="#ffffff">firefox&#45;79.0 (3.60 MiB)</text>
</g>
<!-- N13 -->
<g id="node32" class="node">
<title>N13</title>
<polygon fill="#3ec8e8" stroke="#3ec8e8" points="451.68,-2538.54 451.68,-2553.46 353.11,-2564 213.72,-2564 115.15,-2553.46 115.15,-2538.54 213.72,-2528 353.11,-2528 451.68,-2538.54"/>
<polygon fill="none" stroke="#3ec8e8" points="455.68,-2534.95 455.68,-2557.05 353.33,-2568 213.51,-2568 111.15,-2557.05 111.15,-2534.95 213.51,-2524 353.33,-2524 455.68,-2534.95"/>
<polygon fill="none" stroke="#3ec8e8" points="459.69,-2531.35 459.69,-2560.65 353.54,-2572 213.29,-2572 107.15,-2560.65 107.15,-2531.35 213.29,-2520 353.54,-2520 459.69,-2531.35"/>
<text text-anchor="middle" x="283.42" y="-2542.3" font-family="Roboto" font-size="14.00" fill="#000000">firefox&#45;unwrapped&#45;79.0 (185.12 MiB)</text>
</g>
<!-- N49&#45;&gt;N13 -->
<g id="edge17" class="edge">
<title>N49&#45;&gt;N13</title>
<path fill="none" stroke="black" d="M283.42,-2589.68C283.42,-2587.23 283.42,-2584.78 283.42,-2582.33"/>
<polygon fill="black" stroke="black" points="286.92,-2582.25 283.42,-2572.25 279.92,-2582.25 286.92,-2582.25"/>
</g>
<!-- N50 -->
<g id="node22" class="node">
<title>N50</title>
<polygon fill="#3fa0e5" stroke="#3fa0e5" points="430.48,-368.54 430.48,-383.46 344.33,-394 222.5,-394 136.36,-383.46 136.36,-368.54 222.5,-358 344.33,-358 430.48,-368.54"/>
<polygon fill="none" stroke="#3fa0e5" points="434.48,-365 434.48,-387 344.58,-398 222.26,-398 132.36,-387 132.36,-365 222.26,-354 344.58,-354 434.48,-365"/>
<polygon fill="none" stroke="#3fa0e5" points="438.48,-361.46 438.48,-390.54 344.82,-402 222.02,-402 128.36,-390.54 128.36,-361.46 222.02,-350 344.82,-350 438.48,-361.46"/>
<text text-anchor="middle" x="283.42" y="-372.3" font-family="Roboto" font-size="14.00" fill="#ffffff">stepmania&#45;5.1.0&#45;b2 (93.84 MiB)</text>
</g>
<!-- N50&#45;&gt;N31 -->
<g id="edge18" class="edge">
<title>N50&#45;&gt;N31</title>
<path fill="none" stroke="black" d="M438.71,-376C494.82,-376 556.22,-376 604.4,-376"/>
<polygon fill="black" stroke="black" points="604.47,-379.5 614.47,-376 604.47,-372.5 604.47,-379.5"/>
</g>
<!-- N18 -->
<g id="node23" class="node">
<title>N18</title>
<polygon fill="#3faae5" stroke="#3faae5" points="411.49,-2398.54 411.49,-2413.46 336.47,-2424 230.37,-2424 155.35,-2413.46 155.35,-2398.54 230.37,-2388 336.47,-2388 411.49,-2398.54"/>
<polygon fill="none" stroke="#3faae5" points="415.49,-2395.07 415.49,-2416.93 336.75,-2428 230.09,-2428 151.35,-2416.93 151.35,-2395.07 230.09,-2384 336.75,-2384 415.49,-2395.07"/>
<polygon fill="none" stroke="#3faae5" points="419.49,-2391.59 419.49,-2420.41 337.03,-2432 229.81,-2432 147.35,-2420.41 147.35,-2391.59 229.81,-2380 337.03,-2380 419.49,-2391.59"/>
<text text-anchor="middle" x="283.42" y="-2402.3" font-family="Roboto" font-size="14.00" fill="#ffffff">calibre&#45;4.22.0 (114.33 MiB)</text>
</g>
<!-- N18&#45;&gt;N36 -->
<g id="edge19" class="edge">
<title>N18&#45;&gt;N36</title>
<path fill="none" stroke="black" d="M419.53,-2417.63C464.96,-2421.54 515.54,-2425.9 560.61,-2429.78"/>
<polygon fill="black" stroke="black" points="560.48,-2433.28 570.74,-2430.65 561.08,-2426.3 560.48,-2433.28"/>
</g>
<!-- N17 -->
<g id="node24" class="node">
<title>N17</title>
<polygon fill="#3cebec" stroke="#3cebec" points="493.61,-2678.54 493.61,-2693.46 370.48,-2704 196.35,-2704 73.22,-2693.46 73.22,-2678.54 196.35,-2668 370.48,-2668 493.61,-2678.54"/>
<polygon fill="none" stroke="#3cebec" points="497.61,-2674.87 497.61,-2697.13 370.65,-2708 196.18,-2708 69.23,-2697.13 69.23,-2674.87 196.18,-2664 370.65,-2664 497.61,-2674.87"/>
<polygon fill="none" stroke="#3cebec" points="501.61,-2671.2 501.61,-2700.8 370.82,-2712 196.01,-2712 65.23,-2700.8 65.23,-2671.2 196.01,-2660 370.82,-2660 501.61,-2671.2"/>
<text text-anchor="middle" x="283.42" y="-2682.3" font-family="Roboto" font-size="14.00" fill="#000000">spotify&#45;1.1.26.501.gbe11e53b&#45;15 (279.06 MiB)</text>
</g>
<!-- N51 -->
<g id="node25" class="node">
<title>N51</title>
<polygon fill="#3ebae7" stroke="#3ebae7" points="404.42,-1348.54 404.42,-1363.46 333.54,-1374 233.3,-1374 162.42,-1363.46 162.42,-1348.54 233.3,-1338 333.54,-1338 404.42,-1348.54"/>
<polygon fill="none" stroke="#3ebae7" points="408.42,-1345.1 408.42,-1366.9 333.83,-1378 233,-1378 158.42,-1366.9 158.42,-1345.1 233,-1334 333.83,-1334 408.42,-1345.1"/>
<polygon fill="none" stroke="#3ebae7" points="412.42,-1341.65 412.42,-1370.35 334.13,-1382 232.71,-1382 154.42,-1370.35 154.42,-1341.65 232.71,-1330 334.13,-1330 412.42,-1341.65"/>
<text text-anchor="middle" x="283.42" y="-1352.3" font-family="Roboto" font-size="14.00" fill="#000000">hunter&#45;1.3.5 (150.96 MiB)</text>
</g>
<!-- N51&#45;&gt;N40 -->
<g id="edge20" class="edge">
<title>N51&#45;&gt;N40</title>
<path fill="none" stroke="black" d="M412.51,-1367.03C470.68,-1372.03 538.41,-1377.86 592.51,-1382.52"/>
<polygon fill="black" stroke="black" points="592.53,-1386.04 602.8,-1383.41 593.13,-1379.06 592.53,-1386.04"/>
</g>
<!-- N52 -->
<g id="node26" class="node">
<title>N52</title>
<polygon fill="#4084e2" stroke="#4084e2" points="457.85,-2048.54 457.85,-2063.46 355.67,-2074 211.16,-2074 108.98,-2063.46 108.98,-2048.54 211.16,-2038 355.67,-2038 457.85,-2048.54"/>
<polygon fill="none" stroke="#4084e2" points="461.85,-2044.94 461.85,-2067.06 355.88,-2078 210.96,-2078 104.98,-2067.06 104.98,-2044.94 210.96,-2034 355.88,-2034 461.85,-2044.94"/>
<polygon fill="none" stroke="#4084e2" points="465.85,-2041.33 465.85,-2070.67 356.08,-2082 210.75,-2082 100.99,-2070.67 100.99,-2041.33 210.75,-2030 356.08,-2030 465.85,-2041.33"/>
<text text-anchor="middle" x="283.42" y="-2052.3" font-family="Roboto" font-size="14.00" fill="#ffffff">openra&#45;release&#45;20190314 (40.77 MiB)</text>
</g>
<!-- N35 -->
<g id="node59" class="node">
<title>N35</title>
<polygon fill="#3cede7" stroke="#3cede7" points="789.51,-2039 594.51,-2039 594.51,-2003 789.51,-2003 789.51,-2039"/>
<text text-anchor="middle" x="692.01" y="-2017.3" font-family="Roboto" font-size="14.00" fill="#000000">mono&#45;5.20.1.27 (304.80 MiB)</text>
</g>
<!-- N52&#45;&gt;N35 -->
<g id="edge21" class="edge">
<title>N52&#45;&gt;N35</title>
<path fill="none" stroke="black" d="M460.98,-2040.8C502.98,-2037.19 546.54,-2033.44 584.3,-2030.19"/>
<polygon fill="black" stroke="black" points="584.61,-2033.67 594.28,-2029.33 584.01,-2026.7 584.61,-2033.67"/>
</g>
<!-- N53 -->
<g id="node27" class="node">
<title>N53</title>
<polygon fill="#406fe1" stroke="#406fe1" points="500.68,-1278.54 500.68,-1293.46 373.41,-1304 193.42,-1304 66.16,-1293.46 66.16,-1278.54 193.42,-1268 373.41,-1268 500.68,-1278.54"/>
<polygon fill="none" stroke="#406fe1" points="504.68,-1274.86 504.68,-1297.14 373.58,-1308 193.26,-1308 62.16,-1297.14 62.16,-1274.86 193.26,-1264 373.58,-1264 504.68,-1274.86"/>
<polygon fill="none" stroke="#406fe1" points="508.68,-1271.18 508.68,-1300.82 373.74,-1312 193.09,-1312 58.16,-1300.82 58.16,-1271.18 193.09,-1260 373.74,-1260 508.68,-1271.18"/>
<text text-anchor="middle" x="283.42" y="-1282.3" font-family="Roboto" font-size="14.00" fill="#ffffff">papirus&#45;maia&#45;icon&#45;theme&#45;2019&#45;07&#45;26 (8.96 MiB)</text>
</g>
<!-- N53&#45;&gt;N29 -->
<g id="edge22" class="edge">
<title>N53&#45;&gt;N29</title>
<path fill="none" stroke="black" d="M283.42,-1259.68C283.42,-1257.23 283.42,-1254.78 283.42,-1252.33"/>
<polygon fill="black" stroke="black" points="286.92,-1252.25 283.42,-1242.25 279.92,-1252.25 286.92,-1252.25"/>
</g>
<!-- N54 -->
<g id="node28" class="node">
<title>N54</title>
<polygon fill="#4089e3" stroke="#4089e3" points="468.45,-2118.54 468.45,-2133.46 360.06,-2144 206.77,-2144 98.38,-2133.46 98.38,-2118.54 206.77,-2108 360.06,-2108 468.45,-2118.54"/>
<polygon fill="none" stroke="#4089e3" points="472.45,-2114.91 472.45,-2137.09 360.26,-2148 206.58,-2148 94.38,-2137.09 94.38,-2114.91 206.58,-2104 360.26,-2104 472.45,-2114.91"/>
<polygon fill="none" stroke="#4089e3" points="476.45,-2111.28 476.45,-2140.72 360.45,-2152 206.39,-2152 90.38,-2140.72 90.38,-2111.28 206.39,-2100 360.45,-2100 476.45,-2111.28"/>
<text text-anchor="middle" x="283.42" y="-2122.3" font-family="Roboto" font-size="14.00" fill="#ffffff">nvidia&#45;x11&#45;450.57&#45;5.4.57&#45;bin (50.73 MiB)</text>
</g>
<!-- N54&#45;&gt;N34 -->
<g id="edge23" class="edge">
<title>N54&#45;&gt;N34</title>
<path fill="none" stroke="black" d="M432.33,-2145.03C465.22,-2149.78 499.86,-2155.2 532.01,-2161 555.74,-2165.28 581.31,-2170.6 604.87,-2175.78"/>
<polygon fill="black" stroke="black" points="604.3,-2179.24 614.82,-2177.99 605.82,-2172.41 604.3,-2179.24"/>
</g>
<!-- N16 -->
<g id="node29" class="node">
<title>N16</title>
<polygon fill="#3cedea" stroke="#3cedea" points="453.9,-2748.54 453.9,-2763.46 354.03,-2774 212.8,-2774 112.94,-2763.46 112.94,-2748.54 212.8,-2738 354.03,-2738 453.9,-2748.54"/>
<polygon fill="none" stroke="#3cedea" points="457.9,-2744.94 457.9,-2767.06 354.24,-2778 212.59,-2778 108.93,-2767.06 108.93,-2744.94 212.59,-2734 354.24,-2734 457.9,-2744.94"/>
<polygon fill="none" stroke="#3cedea" points="461.91,-2741.35 461.91,-2770.65 354.46,-2782 212.38,-2782 104.93,-2770.65 104.93,-2741.35 212.38,-2730 354.46,-2730 461.91,-2741.35"/>
<text text-anchor="middle" x="283.42" y="-2752.3" font-family="Roboto" font-size="14.00" fill="#000000">skypeforlinux&#45;8.63.0.76 (293.89 MiB)</text>
</g>
<!-- N15 -->
<g id="node30" class="node">
<title>N15</title>
<polygon fill="#d8fe26" stroke="#d8fe26" points="431.37,-2818.54 431.37,-2833.46 344.7,-2844 222.13,-2844 135.46,-2833.46 135.46,-2818.54 222.13,-2808 344.7,-2808 431.37,-2818.54"/>
<polygon fill="none" stroke="#d8fe26" points="435.38,-2815 435.38,-2837 344.95,-2848 221.89,-2848 131.46,-2837 131.46,-2815 221.89,-2804 344.95,-2804 435.38,-2815"/>
<polygon fill="none" stroke="#d8fe26" points="439.39,-2811.46 439.39,-2840.54 345.19,-2852 221.65,-2852 127.45,-2840.54 127.45,-2811.46 221.65,-2800 345.19,-2800 439.39,-2811.46"/>
<text text-anchor="middle" x="283.42" y="-2822.3" font-family="Roboto" font-size="14.00" fill="#000000">clang&#45;tools&#45;10.0.1 (967.19 MiB)</text>
</g>
<!-- N14 -->
<g id="node31" class="node">
<title>N14</title>
<polygon fill="#3de2eb" stroke="#3de2eb" points="415.02,-1068.54 415.02,-1083.46 337.93,-1094 228.91,-1094 151.81,-1083.46 151.81,-1068.54 228.91,-1058 337.93,-1058 415.02,-1068.54"/>
<polygon fill="none" stroke="#3de2eb" points="419.02,-1065.05 419.02,-1086.95 338.2,-1098 228.63,-1098 147.81,-1086.95 147.81,-1065.05 228.63,-1054 338.2,-1054 419.02,-1065.05"/>
<polygon fill="none" stroke="#3de2eb" points="423.02,-1061.56 423.02,-1090.44 338.47,-1102 228.36,-1102 143.81,-1090.44 143.81,-1061.56 228.36,-1050 338.47,-1050 423.02,-1061.56"/>
<text text-anchor="middle" x="283.42" y="-1072.3" font-family="Roboto" font-size="14.00" fill="#000000">blender&#45;2.83.3 (255.53 MiB)</text>
</g>
<!-- N14&#45;&gt;N41 -->
<g id="edge24" class="edge">
<title>N14&#45;&gt;N41</title>
<path fill="none" stroke="black" d="M423.21,-1076C486.75,-1076 559.67,-1076 613.36,-1076"/>
<polygon fill="black" stroke="black" points="613.49,-1079.5 623.49,-1076 613.49,-1072.5 613.49,-1079.5"/>
</g>
<!-- N12 -->
<g id="node33" class="node">
<title>N12</title>
<polygon fill="#3cede8" stroke="#3cede8" points="403.1,-2888.54 403.1,-2903.46 332.99,-2914 233.84,-2914 163.74,-2903.46 163.74,-2888.54 233.84,-2878 332.99,-2878 403.1,-2888.54"/>
<polygon fill="none" stroke="#3cede8" points="407.1,-2885.1 407.1,-2906.9 333.29,-2918 233.54,-2918 159.73,-2906.9 159.73,-2885.1 233.54,-2874 333.29,-2874 407.1,-2885.1"/>
<polygon fill="none" stroke="#3cede8" points="411.11,-2881.66 411.11,-2910.34 333.59,-2922 233.24,-2922 155.73,-2910.34 155.73,-2881.66 233.24,-2870 333.59,-2870 411.11,-2881.66"/>
<text text-anchor="middle" x="283.42" y="-2892.3" font-family="Roboto" font-size="14.00" fill="#000000">elixir&#45;1.10.4 (301.48 MiB)</text>
</g>
<!-- N11 -->
<g id="node34" class="node">
<title>N11</title>
<polygon fill="#3ecae9" stroke="#3ecae9" points="412.38,-3028.54 412.38,-3043.46 336.84,-3054 230,-3054 154.45,-3043.46 154.45,-3028.54 230,-3018 336.84,-3018 412.38,-3028.54"/>
<polygon fill="none" stroke="#3ecae9" points="416.39,-3025.06 416.39,-3046.94 337.12,-3058 229.72,-3058 150.45,-3046.94 150.45,-3025.06 229.72,-3014 337.12,-3014 416.39,-3025.06"/>
<polygon fill="none" stroke="#3ecae9" points="420.4,-3021.58 420.4,-3050.42 337.39,-3062 229.44,-3062 146.44,-3050.42 146.44,-3021.58 229.44,-3010 337.39,-3010 420.4,-3021.58"/>
<text text-anchor="middle" x="283.42" y="-3032.3" font-family="Roboto" font-size="14.00" fill="#000000">fritzing&#45;0.9.3b (190.99 MiB)</text>
</g>
<!-- N32 -->
<g id="node60" class="node">
<title>N32</title>
<polygon fill="#3fb4e6" stroke="#3fb4e6" points="781.01,-3019 603.01,-3019 603.01,-2983 781.01,-2983 781.01,-3019"/>
<text text-anchor="middle" x="692.01" y="-2997.3" font-family="Roboto" font-size="14.00" fill="#ffffff">bash&#45;4.4&#45;p23 (136.98 MiB)</text>
</g>
<!-- N11&#45;&gt;N32 -->
<g id="edge25" class="edge">
<title>N11&#45;&gt;N32</title>
<path fill="none" stroke="black" d="M420.37,-3024.3C476.75,-3019.44 540.92,-3013.92 592.62,-3009.47"/>
<polygon fill="black" stroke="black" points="593.13,-3012.94 602.79,-3008.59 592.53,-3005.96 593.13,-3012.94"/>
</g>
<!-- N55 -->
<g id="node35" class="node">
<title>N55</title>
<polygon fill="#4084e2" stroke="#4084e2" points="399.99,-88.54 399.99,-103.46 331.7,-114 235.13,-114 166.84,-103.46 166.84,-88.54 235.13,-78 331.7,-78 399.99,-88.54"/>
<polygon fill="none" stroke="#4084e2" points="403.98,-85.11 403.98,-106.89 332.01,-118 234.83,-118 162.85,-106.89 162.85,-85.11 234.83,-74 332.01,-74 403.98,-85.11"/>
<polygon fill="none" stroke="#4084e2" points="407.98,-81.68 407.98,-110.32 332.32,-122 234.52,-122 158.86,-110.32 158.86,-81.68 234.52,-70 332.32,-70 407.98,-81.68"/>
<text text-anchor="middle" x="283.42" y="-92.3" font-family="Roboto" font-size="14.00" fill="#ffffff">astroid&#45;0.15 (41.11 MiB)</text>
</g>
<!-- N55&#45;&gt;N33 -->
<g id="edge26" class="edge">
<title>N55&#45;&gt;N33</title>
<path fill="none" stroke="black" d="M408.07,-106.64C463.38,-111.4 528.03,-116.97 581.57,-121.58"/>
<polygon fill="black" stroke="black" points="581.51,-125.09 591.77,-122.46 582.11,-118.11 581.51,-125.09"/>
</g>
<!-- N10 -->
<g id="node36" class="node">
<title>N10</title>
<polygon fill="#3ec0e8" stroke="#3ec0e8" points="412.81,-3098.54 412.81,-3113.46 337.01,-3124 229.82,-3124 154.03,-3113.46 154.03,-3098.54 229.82,-3088 337.01,-3088 412.81,-3098.54"/>
<polygon fill="none" stroke="#3ec0e8" points="416.8,-3095.06 416.8,-3116.94 337.29,-3128 229.55,-3128 150.03,-3116.94 150.03,-3095.06 229.55,-3084 337.29,-3084 416.8,-3095.06"/>
<polygon fill="none" stroke="#3ec0e8" points="420.8,-3091.58 420.8,-3120.42 337.57,-3132 229.27,-3132 146.03,-3120.42 146.03,-3091.58 229.27,-3080 337.57,-3080 420.8,-3091.58"/>
<text text-anchor="middle" x="283.42" y="-3102.3" font-family="Roboto" font-size="14.00" fill="#000000">gzdoom&#45;4.4.2 (165.31 MiB)</text>
</g>
<!-- N9 -->
<g id="node37" class="node">
<title>N9</title>
<polygon fill="#c1fe2b" stroke="#c1fe2b" points="380.58,-1978.54 380.58,-1993.46 323.66,-2004 243.17,-2004 186.26,-1993.46 186.26,-1978.54 243.17,-1968 323.66,-1968 380.58,-1978.54"/>
<polygon fill="none" stroke="#c1fe2b" points="384.58,-1975.22 384.58,-1996.78 324.03,-2008 242.81,-2008 182.26,-1996.78 182.26,-1975.22 242.81,-1964 324.03,-1964 384.58,-1975.22"/>
<polygon fill="none" stroke="#c1fe2b" points="388.58,-1971.89 388.58,-2000.11 324.4,-2012 242.44,-2012 178.25,-2000.11 178.25,-1971.89 242.44,-1960 324.4,-1960 388.58,-1971.89"/>
<text text-anchor="middle" x="283.42" y="-1982.3" font-family="Roboto" font-size="14.00" fill="#000000">steam (842.60 MiB)</text>
</g>
<!-- N9&#45;&gt;N25 -->
<g id="edge27" class="edge">
<title>N9&#45;&gt;N25</title>
<path fill="none" stroke="black" d="M186.73,-2001.71C125.13,-2005.49 50.73,-1996.87 16.82,-1942 -5.61,-1905.71 -5.61,-1786.29 16.82,-1750 39.92,-1712.62 81.81,-1696.71 125.64,-1691.55"/>
<polygon fill="black" stroke="black" points="126.01,-1695.03 135.61,-1690.56 125.31,-1688.07 126.01,-1695.03"/>
</g>
<!-- N9&#45;&gt;N37 -->
<g id="edge29" class="edge">
<title>N9&#45;&gt;N37</title>
<path fill="none" stroke="black" d="M388.78,-1976.67C433.37,-1971.3 485.71,-1963.12 532.01,-1951 570.33,-1940.97 611.98,-1924.51 643.04,-1911.07"/>
<polygon fill="black" stroke="black" points="644.56,-1914.22 652.32,-1907 641.76,-1907.81 644.56,-1914.22"/>
</g>
<!-- N9&#45;&gt;N35 -->
<g id="edge28" class="edge">
<title>N9&#45;&gt;N35</title>
<path fill="none" stroke="black" d="M388.6,-1994.97C448.54,-2000.13 523.7,-2006.6 584.1,-2011.8"/>
<polygon fill="black" stroke="black" points="584.17,-2015.32 594.43,-2012.69 584.77,-2008.34 584.17,-2015.32"/>
</g>
<!-- N56 -->
<g id="node38" class="node">
<title>N56</title>
<polygon fill="#406ae1" stroke="#406ae1" points="438.86,-2188.54 438.86,-2203.46 347.81,-2214 219.03,-2214 127.97,-2203.46 127.97,-2188.54 219.03,-2178 347.81,-2178 438.86,-2188.54"/>
<polygon fill="none" stroke="#406ae1" points="442.86,-2184.98 442.86,-2207.02 348.04,-2218 218.8,-2218 123.97,-2207.02 123.97,-2184.98 218.8,-2174 348.04,-2174 442.86,-2184.98"/>
<polygon fill="none" stroke="#406ae1" points="446.86,-2181.42 446.86,-2210.58 348.27,-2222 218.57,-2222 119.97,-2210.58 119.97,-2181.42 218.57,-2170 348.27,-2170 446.86,-2181.42"/>
<text text-anchor="middle" x="283.42" y="-2192.3" font-family="Roboto" font-size="14.00" fill="#ffffff">nvidia&#45;settings&#45;450.57 (1.57 MiB)</text>
</g>
<!-- N56&#45;&gt;N54 -->
<g id="edge30" class="edge">
<title>N56&#45;&gt;N54</title>
<path fill="none" stroke="black" d="M283.42,-2169.68C283.42,-2167.23 283.42,-2164.78 283.42,-2162.33"/>
<polygon fill="black" stroke="black" points="286.92,-2162.25 283.42,-2152.25 279.92,-2162.25 286.92,-2162.25"/>
</g>
<!-- N8 -->
<g id="node39" class="node">
<title>N8</title>
<polygon fill="#3fa8e5" stroke="#3fa8e5" points="398.67,-1768.54 398.67,-1783.46 331.16,-1794 235.68,-1794 168.16,-1783.46 168.16,-1768.54 235.68,-1758 331.16,-1758 398.67,-1768.54"/>
<polygon fill="none" stroke="#3fa8e5" points="402.67,-1765.12 402.67,-1786.88 331.47,-1798 235.37,-1798 164.17,-1786.88 164.17,-1765.12 235.37,-1754 331.47,-1754 402.67,-1765.12"/>
<polygon fill="none" stroke="#3fa8e5" points="406.66,-1761.7 406.66,-1790.3 331.78,-1802 235.06,-1802 160.17,-1790.3 160.17,-1761.7 235.06,-1750 331.78,-1750 406.66,-1761.7"/>
<text text-anchor="middle" x="283.42" y="-1772.3" font-family="Roboto" font-size="14.00" fill="#ffffff">platformio (110.91 MiB)</text>
</g>
<!-- N8&#45;&gt;N25 -->
<g id="edge31" class="edge">
<title>N8&#45;&gt;N25</title>
<path fill="none" stroke="black" d="M283.42,-1749.68C283.42,-1747.23 283.42,-1744.78 283.42,-1742.33"/>
<polygon fill="black" stroke="black" points="286.92,-1742.25 283.42,-1732.25 279.92,-1742.25 286.92,-1742.25"/>
</g>
<!-- N8&#45;&gt;N38 -->
<g id="edge32" class="edge">
<title>N8&#45;&gt;N38</title>
<path fill="none" stroke="black" d="M406.69,-1778.41C468.68,-1779.63 542.7,-1781.08 599.67,-1782.2"/>
<polygon fill="black" stroke="black" points="599.67,-1785.7 609.74,-1782.4 599.81,-1778.7 599.67,-1785.7"/>
</g>
<!-- N7 -->
<g id="node40" class="node">
<title>N7</title>
<polygon fill="#7efc31" stroke="#7efc31" points="448.57,-2958.54 448.57,-2973.46 351.83,-2984 215.01,-2984 118.27,-2973.46 118.27,-2958.54 215.01,-2948 351.83,-2948 448.57,-2958.54"/>
<polygon fill="none" stroke="#7efc31" points="452.56,-2954.96 452.56,-2977.04 352.04,-2988 214.79,-2988 114.27,-2977.04 114.27,-2954.96 214.79,-2944 352.04,-2944 452.56,-2954.96"/>
<polygon fill="none" stroke="#7efc31" points="456.56,-2951.37 456.56,-2980.63 352.26,-2992 214.58,-2992 110.28,-2980.63 110.28,-2951.37 214.58,-2940 352.26,-2940 456.56,-2951.37"/>
<text text-anchor="middle" x="283.42" y="-2962.3" font-family="Roboto" font-size="14.00" fill="#000000">kodi&#45;with&#45;plugins&#45;18.5 (672.27 MiB)</text>
</g>
<!-- N7&#45;&gt;N32 -->
<g id="edge33" class="edge">
<title>N7&#45;&gt;N32</title>
<path fill="none" stroke="black" d="M455.67,-2980.74C502.49,-2984.77 551.63,-2989 592.83,-2992.55"/>
<polygon fill="black" stroke="black" points="592.59,-2996.04 602.85,-2993.41 593.19,-2989.07 592.59,-2996.04"/>
</g>
<!-- N6 -->
<g id="node41" class="node">
<title>N6</title>
<polygon fill="#3fb1e6" stroke="#3fb1e6" points="394.71,-3168.54 394.71,-3183.46 329.52,-3194 237.32,-3194 172.12,-3183.46 172.12,-3168.54 237.32,-3158 329.52,-3158 394.71,-3168.54"/>
<polygon fill="none" stroke="#3fb1e6" points="398.72,-3165.14 398.72,-3186.86 329.84,-3198 237,-3198 168.12,-3186.86 168.12,-3165.14 237,-3154 329.84,-3154 398.72,-3165.14"/>
<polygon fill="none" stroke="#3fb1e6" points="402.72,-3161.74 402.72,-3190.26 330.16,-3202 236.67,-3202 164.11,-3190.26 164.11,-3161.74 236.67,-3150 330.16,-3150 402.72,-3161.74"/>
<text text-anchor="middle" x="283.42" y="-3172.3" font-family="Roboto" font-size="14.00" fill="#ffffff">vlc&#45;3.0.11 (131.04 MiB)</text>
</g>
<!-- N5 -->
<g id="node42" class="node">
<title>N5</title>
<polygon fill="#3ecce9" stroke="#3ecce9" points="474.62,-1908.54 474.62,-1923.46 362.62,-1934 204.22,-1934 92.21,-1923.46 92.21,-1908.54 204.22,-1898 362.62,-1898 474.62,-1908.54"/>
<polygon fill="none" stroke="#3ecce9" points="478.62,-1904.9 478.62,-1927.1 362.81,-1938 204.03,-1938 88.21,-1927.1 88.21,-1904.9 204.03,-1894 362.81,-1894 478.62,-1904.9"/>
<polygon fill="none" stroke="#3ecce9" points="482.62,-1901.26 482.62,-1930.74 362.99,-1942 203.84,-1942 84.22,-1930.74 84.22,-1901.26 203.84,-1890 362.99,-1890 482.62,-1901.26"/>
<text text-anchor="middle" x="283.42" y="-1912.3" font-family="Roboto" font-size="14.00" fill="#000000">tor&#45;browser&#45;bundle&#45;bin&#45;9.5.3 (196.12 MiB)</text>
</g>
<!-- N5&#45;&gt;N25 -->
<g id="edge34" class="edge">
<title>N5&#45;&gt;N25</title>
<path fill="none" stroke="black" d="M84.13,-1921.66C56.59,-1912.69 32.42,-1897.24 16.82,-1872 2.57,-1848.94 2.57,-1773.06 16.82,-1750 39.92,-1712.62 81.81,-1696.71 125.64,-1691.55"/>
<polygon fill="black" stroke="black" points="126.01,-1695.03 135.61,-1690.56 125.31,-1688.07 126.01,-1695.03"/>
</g>
<!-- N57 -->
<g id="node43" class="node">
<title>N57</title>
<polygon fill="#406ce1" stroke="#406ce1" points="400.89,-298.54 400.89,-313.46 332.07,-324 234.76,-324 165.95,-313.46 165.95,-298.54 234.76,-288 332.07,-288 400.89,-298.54"/>
<polygon fill="none" stroke="#406ce1" points="404.88,-295.11 404.88,-316.89 332.38,-328 234.46,-328 161.95,-316.89 161.95,-295.11 234.46,-284 332.38,-284 404.88,-295.11"/>
<polygon fill="none" stroke="#406ce1" points="408.88,-291.68 408.88,-320.32 332.68,-332 234.15,-332 157.95,-320.32 157.95,-291.68 234.15,-280 332.68,-280 408.88,-291.68"/>
<text text-anchor="middle" x="283.42" y="-302.3" font-family="Roboto" font-size="14.00" fill="#ffffff">nethack&#45;3.6.6 (4.58 MiB)</text>
</g>
<!-- N57&#45;&gt;N31 -->
<g id="edge35" class="edge">
<title>N57&#45;&gt;N31</title>
<path fill="none" stroke="black" d="M404.35,-321.08C444.99,-326.68 490.57,-333.52 532.01,-341 555.74,-345.28 581.31,-350.6 604.87,-355.78"/>
<polygon fill="black" stroke="black" points="604.3,-359.24 614.82,-357.99 605.82,-352.41 604.3,-359.24"/>
</g>
<!-- N4 -->
<g id="node44" class="node">
<title>N4</title>
<polygon fill="#35f875" stroke="#35f875" points="415.45,-3238.54 415.45,-3253.46 338.11,-3264 228.73,-3264 151.39,-3253.46 151.39,-3238.54 228.73,-3228 338.11,-3228 415.45,-3238.54"/>
<polygon fill="none" stroke="#35f875" points="419.44,-3235.05 419.44,-3256.95 338.38,-3268 228.46,-3268 147.4,-3256.95 147.4,-3235.05 228.46,-3224 338.38,-3224 419.44,-3235.05"/>
<polygon fill="none" stroke="#35f875" points="423.43,-3231.56 423.43,-3260.44 338.65,-3272 228.19,-3272 143.4,-3260.44 143.4,-3231.56 228.19,-3220 338.65,-3220 423.43,-3231.56"/>
<text text-anchor="middle" x="283.42" y="-3242.3" font-family="Roboto" font-size="14.00" fill="#000000">arduino&#45;1.8.12 (559.66 MiB)</text>
</g>
<!-- N58 -->
<g id="node45" class="node">
<title>N58</title>
<polygon fill="#4072e1" stroke="#4072e1" points="393.39,-648.54 393.39,-663.46 328.97,-674 237.87,-674 173.44,-663.46 173.44,-648.54 237.87,-638 328.97,-638 393.39,-648.54"/>
<polygon fill="none" stroke="#4072e1" points="397.4,-645.15 397.4,-666.85 329.3,-678 237.54,-678 169.44,-666.85 169.44,-645.15 237.54,-634 329.3,-634 397.4,-645.15"/>
<polygon fill="none" stroke="#4072e1" points="401.41,-641.75 401.41,-670.25 329.62,-682 237.21,-682 165.43,-670.25 165.43,-641.75 237.21,-630 329.62,-630 401.41,-641.75"/>
<text text-anchor="middle" x="283.42" y="-652.3" font-family="Roboto" font-size="14.00" fill="#ffffff">piper&#45;0.5.1 (13.11 MiB)</text>
</g>
<!-- N58&#45;&gt;N39 -->
<g id="edge36" class="edge">
<title>N58&#45;&gt;N39</title>
<path fill="none" stroke="black" d="M401.4,-661.84C443.59,-666.7 490.91,-675.43 532.01,-691 581.78,-709.85 631.79,-746.47 662.08,-771.09"/>
<polygon fill="black" stroke="black" points="660.14,-774.03 670.09,-777.69 664.6,-768.63 660.14,-774.03"/>
</g>
<!-- N3 -->
<g id="node46" class="node">
<title>N3</title>
<polygon fill="#3dddeb" stroke="#3dddeb" points="482.59,-3308.54 482.59,-3323.46 365.92,-3334 200.92,-3334 84.24,-3323.46 84.24,-3308.54 200.92,-3298 365.92,-3298 482.59,-3308.54"/>
<polygon fill="none" stroke="#3dddeb" points="486.59,-3304.89 486.59,-3327.11 366.1,-3338 200.74,-3338 80.24,-3327.11 80.24,-3304.89 200.74,-3294 366.1,-3294 486.59,-3304.89"/>
<polygon fill="none" stroke="#3dddeb" points="490.59,-3301.23 490.59,-3330.77 366.28,-3342 200.56,-3342 76.24,-3330.77 76.24,-3301.23 200.56,-3290 366.28,-3290 490.59,-3301.23"/>
<text text-anchor="middle" x="283.42" y="-3312.3" font-family="Roboto" font-size="14.00" fill="#000000">google&#45;chrome&#45;84.0.4147.105 (241.29 MiB)</text>
</g>
<!-- N59 -->
<g id="node47" class="node">
<title>N59</title>
<polygon fill="#4083e2" stroke="#4083e2" points="444.61,-578.54 444.61,-593.46 350.19,-604 216.65,-604 122.22,-593.46 122.22,-578.54 216.65,-568 350.19,-568 444.61,-578.54"/>
<polygon fill="none" stroke="#4083e2" points="448.62,-574.97 448.62,-597.03 350.41,-608 216.43,-608 118.22,-597.03 118.22,-574.97 216.43,-564 350.41,-564 448.62,-574.97"/>
<polygon fill="none" stroke="#4083e2" points="452.62,-571.39 452.62,-600.61 350.63,-612 216.2,-612 114.22,-600.61 114.22,-571.39 216.2,-560 350.63,-560 452.62,-571.39"/>
<text text-anchor="middle" x="283.42" y="-582.3" font-family="Roboto" font-size="14.00" fill="#ffffff">dwarf&#45;fortress&#45;0.47.04 (40.47 MiB)</text>
</g>
<!-- N59&#45;&gt;N39 -->
<g id="edge38" class="edge">
<title>N59&#45;&gt;N39</title>
<path fill="none" stroke="black" d="M452.54,-593.73C480.14,-599.45 507.65,-608.1 532.01,-621 597.98,-655.92 650.45,-729.52 675.32,-769.24"/>
<polygon fill="black" stroke="black" points="672.41,-771.18 680.62,-777.87 678.37,-767.52 672.41,-771.18"/>
</g>
<!-- N59&#45;&gt;N31 -->
<g id="edge37" class="edge">
<title>N59&#45;&gt;N31</title>
<path fill="none" stroke="black" d="M452.54,-578.27C480.14,-572.55 507.65,-563.9 532.01,-551 597.98,-516.08 650.45,-442.48 675.32,-402.76"/>
<polygon fill="black" stroke="black" points="678.37,-404.48 680.62,-394.13 672.41,-400.82 678.37,-404.48"/>
</g>
<!-- N2 -->
<g id="node48" class="node">
<title>N2</title>
<polygon fill="#cbfe29" stroke="#cbfe29" points="426.05,-3378.54 426.05,-3393.46 342.5,-3404 224.34,-3404 140.79,-3393.46 140.79,-3378.54 224.34,-3368 342.5,-3368 426.05,-3378.54"/>
<polygon fill="none" stroke="#cbfe29" points="430.04,-3375.02 430.04,-3396.98 342.75,-3408 224.09,-3408 136.79,-3396.98 136.79,-3375.02 224.09,-3364 342.75,-3364 430.04,-3375.02"/>
<polygon fill="none" stroke="#cbfe29" points="434.04,-3371.49 434.04,-3400.51 343,-3412 223.84,-3412 132.8,-3400.51 132.8,-3371.49 223.84,-3360 343,-3360 434.04,-3371.49"/>
<text text-anchor="middle" x="283.42" y="-3382.3" font-family="Roboto" font-size="14.00" fill="#000000">xonotic&#45;sdl&#45;0.8.2 (895.35 MiB)</text>
</g>
<!-- N1 -->
<g id="node49" class="node">
<title>N1</title>
<polygon fill="#3ec1e8" stroke="#3ec1e8" points="426.94,-228.54 426.94,-243.46 342.87,-254 223.97,-254 139.89,-243.46 139.89,-228.54 223.97,-218 342.87,-218 426.94,-228.54"/>
<polygon fill="none" stroke="#3ec1e8" points="430.94,-225.01 430.94,-246.99 343.12,-258 223.72,-258 135.89,-246.99 135.89,-225.01 223.72,-214 343.12,-214 430.94,-225.01"/>
<polygon fill="none" stroke="#3ec1e8" points="434.94,-221.48 434.94,-250.52 343.37,-262 223.47,-262 131.89,-250.52 131.89,-221.48 223.47,-210 343.37,-210 434.94,-221.48"/>
<text text-anchor="middle" x="283.42" y="-232.3" font-family="Roboto" font-size="14.00" fill="#000000">upwork&#45;5.3.3.862 (168.29 MiB)</text>
</g>
<!-- N1&#45;&gt;N31 -->
<g id="edge39" class="edge">
<title>N1&#45;&gt;N31</title>
<path fill="none" stroke="black" d="M435.05,-246.45C467.7,-251.69 501.56,-259.47 532.01,-271 581.78,-289.85 631.79,-326.47 662.08,-351.09"/>
<polygon fill="black" stroke="black" points="660.14,-354.03 670.09,-357.69 664.6,-348.63 660.14,-354.03"/>
</g>
</g>
</svg>
