<?xml version="1.0" encoding="UTF-8" standalone="no"?>
<!DOCTYPE svg PUBLIC "-//W3C//DTD SVG 1.1//EN"
 "http://www.w3.org/Graphics/SVG/1.1/DTD/svg11.dtd">
<!-- Generated by graphviz version 2.43.0 (0)
 -->
<!-- Title: nixstore Pages: 1 -->
<svg width="771pt" height="3280pt"
 viewBox="0.00 0.00 770.80 3280.00" xmlns="http://www.w3.org/2000/svg" xmlns:xlink="http://www.w3.org/1999/xlink">
<g id="graph0" class="graph" transform="scale(1 1) rotate(0) translate(4 3276)">
<title>nixstore</title>
<polygon fill="white" stroke="transparent" points="-4,4 -4,-3276 766.8,-3276 766.8,4 -4,4"/>
<!-- N56 -->
<g id="node1" class="node">
<title>N56</title>
<polygon fill="#fe0000" stroke="#fe0000" points="356.75,-18.54 356.75,-33.46 291.56,-44 199.36,-44 134.16,-33.46 134.16,-18.54 199.36,-8 291.56,-8 356.75,-18.54"/>
<polygon fill="none" stroke="#fe0000" points="360.76,-15.14 360.76,-36.86 291.88,-48 199.04,-48 130.16,-36.86 130.16,-15.14 199.04,-4 291.88,-4 360.76,-15.14"/>
<polygon fill="none" stroke="#fe0000" points="364.76,-11.74 364.76,-40.26 292.2,-52 198.71,-52 126.15,-40.26 126.15,-11.74 198.71,0 292.2,0 364.76,-11.74"/>
<text text-anchor="middle" x="245.46" y="-22.3" font-family="Roboto" font-size="14.00" fill="#000000">{filtered out} (2.23 GiB)</text>
</g>
<!-- N31 -->
<g id="node2" class="node">
<title>N31</title>
<polygon fill="#3befdb" stroke="#3befdb" points="388.98,-998.54 388.98,-1013.46 304.91,-1024 186.01,-1024 101.93,-1013.46 101.93,-998.54 186.01,-988 304.91,-988 388.98,-998.54"/>
<polygon fill="none" stroke="#3befdb" points="392.98,-995.01 392.98,-1016.99 305.16,-1028 185.76,-1028 97.93,-1016.99 97.93,-995.01 185.76,-984 305.16,-984 392.98,-995.01"/>
<polygon fill="none" stroke="#3befdb" points="396.98,-991.48 396.98,-1020.52 305.41,-1032 185.51,-1032 93.93,-1020.52 93.93,-991.48 185.51,-980 305.41,-980 396.98,-991.48"/>
<text text-anchor="middle" x="245.46" y="-1002.3" font-family="Roboto" font-size="14.00" fill="#000000">upwork&#45;5.3.3.862 (358.12 MiB)</text>
</g>
<!-- N36 -->
<g id="node48" class="node">
<title>N36</title>
<polygon fill="#3fb5e7" stroke="#3fb5e7" points="708.8,-849 553.8,-849 553.8,-813 708.8,-813 708.8,-849"/>
<text text-anchor="middle" x="631.3" y="-827.3" font-family="Roboto" font-size="14.00" fill="#ffffff">gcc&#45;9.3.0 (144.24 MiB)</text>
</g>
<!-- N31&#45;&gt;N36 -->
<g id="edge1" class="edge">
<title>N31&#45;&gt;N36</title>
<path fill="none" stroke="black" d="M397.2,-992.59C420.13,-987.48 443.04,-980.51 463.8,-971 523.31,-943.75 578.56,-889.23 608.04,-856.85"/>
<polygon fill="black" stroke="black" points="610.89,-858.91 614.96,-849.13 605.68,-854.24 610.89,-858.91"/>
</g>
<!-- N30 -->
<g id="node3" class="node">
<title>N30</title>
<polygon fill="#3af0d5" stroke="#3af0d5" points="377.06,-158.54 377.06,-173.46 299.97,-184 190.95,-184 113.85,-173.46 113.85,-158.54 190.95,-148 299.97,-148 377.06,-158.54"/>
<polygon fill="none" stroke="#3af0d5" points="381.06,-155.05 381.06,-176.95 300.24,-188 190.67,-188 109.85,-176.95 109.85,-155.05 190.67,-144 300.24,-144 381.06,-155.05"/>
<polygon fill="none" stroke="#3af0d5" points="385.06,-151.56 385.06,-180.44 300.51,-192 190.4,-192 105.85,-180.44 105.85,-151.56 190.4,-140 300.51,-140 385.06,-151.56"/>
<text text-anchor="middle" x="245.46" y="-162.3" font-family="Roboto" font-size="14.00" fill="#000000">blender&#45;2.83.0 (375.18 MiB)</text>
</g>
<!-- N40 -->
<g id="node49" class="node">
<title>N40</title>
<polygon fill="#3fb5e7" stroke="#3fb5e7" points="706.8,-184 555.8,-184 555.8,-148 706.8,-148 706.8,-184"/>
<text text-anchor="middle" x="631.3" y="-162.3" font-family="Roboto" font-size="14.00" fill="#ffffff">lapack&#45;3 (143.80 MiB)</text>
</g>
<!-- N30&#45;&gt;N40 -->
<g id="edge2" class="edge">
<title>N30&#45;&gt;N40</title>
<path fill="none" stroke="black" d="M385.03,-166C438.75,-166 498.52,-166 545.61,-166"/>
<polygon fill="black" stroke="black" points="545.77,-169.5 555.77,-166 545.77,-162.5 545.77,-169.5"/>
</g>
<!-- N29 -->
<g id="node4" class="node">
<title>N29</title>
<polygon fill="#3cede9" stroke="#3cede9" points="415.94,-1068.54 415.94,-1083.46 316.07,-1094 174.84,-1094 74.98,-1083.46 74.98,-1068.54 174.84,-1058 316.07,-1058 415.94,-1068.54"/>
<polygon fill="none" stroke="#3cede9" points="419.94,-1064.94 419.94,-1087.06 316.28,-1098 174.63,-1098 70.97,-1087.06 70.97,-1064.94 174.63,-1054 316.28,-1054 419.94,-1064.94"/>
<polygon fill="none" stroke="#3cede9" points="423.95,-1061.35 423.95,-1090.65 316.49,-1102 174.42,-1102 66.97,-1090.65 66.97,-1061.35 174.42,-1050 316.49,-1050 423.95,-1061.35"/>
<text text-anchor="middle" x="245.46" y="-1072.3" font-family="Roboto" font-size="14.00" fill="#000000">skypeforlinux&#45;8.60.0.76 (308.38 MiB)</text>
</g>
<!-- N28 -->
<g id="node5" class="node">
<title>N28</title>
<polygon fill="#81fc31" stroke="#81fc31" points="391.62,-1138.54 391.62,-1153.46 306,-1164 184.91,-1164 99.29,-1153.46 99.29,-1138.54 184.91,-1128 306,-1128 391.62,-1138.54"/>
<polygon fill="none" stroke="#81fc31" points="395.61,-1135.01 395.61,-1156.99 306.24,-1168 184.67,-1168 95.3,-1156.99 95.3,-1135.01 184.67,-1124 306.24,-1124 395.61,-1135.01"/>
<polygon fill="none" stroke="#81fc31" points="399.61,-1131.47 399.61,-1160.53 306.49,-1172 184.42,-1172 91.3,-1160.53 91.3,-1131.47 184.42,-1120 306.49,-1120 399.61,-1131.47"/>
<text text-anchor="middle" x="245.46" y="-1142.3" font-family="Roboto" font-size="14.00" fill="#000000">openjdk&#45;11.0.7&#45;ga (695.82 MiB)</text>
</g>
<!-- N27 -->
<g id="node6" class="node">
<title>N27</title>
<polygon fill="#3faee6" stroke="#3faee6" points="390.3,-1208.54 390.3,-1223.46 305.45,-1234 185.46,-1234 100.61,-1223.46 100.61,-1208.54 185.46,-1198 305.45,-1198 390.3,-1208.54"/>
<polygon fill="none" stroke="#3faee6" points="394.3,-1205.01 394.3,-1226.99 305.7,-1238 185.21,-1238 96.62,-1226.99 96.62,-1205.01 185.21,-1194 305.7,-1194 394.3,-1205.01"/>
<polygon fill="none" stroke="#3faee6" points="398.3,-1201.48 398.3,-1230.52 305.95,-1242 184.97,-1242 92.62,-1230.52 92.62,-1201.48 184.97,-1190 305.95,-1190 398.3,-1201.48"/>
<text text-anchor="middle" x="245.46" y="-1212.3" font-family="Roboto" font-size="14.00" fill="#ffffff">prusa&#45;slicer&#45;2.2.0 (127.96 MiB)</text>
</g>
<!-- N41 -->
<g id="node7" class="node">
<title>N41</title>
<polygon fill="#4082e2" stroke="#4082e2" points="365.56,-1348.54 365.56,-1363.46 295.21,-1374 195.71,-1374 125.35,-1363.46 125.35,-1348.54 195.71,-1338 295.21,-1338 365.56,-1348.54"/>
<polygon fill="none" stroke="#4082e2" points="369.56,-1345.1 369.56,-1366.9 295.5,-1378 195.41,-1378 121.36,-1366.9 121.36,-1345.1 195.41,-1334 295.5,-1334 369.56,-1345.1"/>
<polygon fill="none" stroke="#4082e2" points="373.55,-1341.65 373.55,-1370.35 295.8,-1382 195.11,-1382 117.36,-1370.35 117.36,-1341.65 195.11,-1330 295.8,-1330 373.55,-1341.65"/>
<text text-anchor="middle" x="245.46" y="-1352.3" font-family="Roboto" font-size="14.00" fill="#ffffff">firefox&#45;77.0.1 (38.90 MiB)</text>
</g>
<!-- N6 -->
<g id="node41" class="node">
<title>N6</title>
<polygon fill="#3ec4e8" stroke="#3ec4e8" points="422.11,-1278.54 422.11,-1293.46 318.63,-1304 172.29,-1304 68.81,-1293.46 68.81,-1278.54 172.29,-1268 318.63,-1268 422.11,-1278.54"/>
<polygon fill="none" stroke="#3ec4e8" points="426.11,-1274.93 426.11,-1297.07 318.83,-1308 172.08,-1308 64.81,-1297.07 64.81,-1274.93 172.08,-1264 318.83,-1264 426.11,-1274.93"/>
<polygon fill="none" stroke="#3ec4e8" points="430.11,-1271.32 430.11,-1300.68 319.03,-1312 171.88,-1312 60.8,-1300.68 60.8,-1271.32 171.88,-1260 319.03,-1260 430.11,-1271.32"/>
<text text-anchor="middle" x="245.46" y="-1282.3" font-family="Roboto" font-size="14.00" fill="#000000">firefox&#45;unwrapped&#45;77.0.1 (181.35 MiB)</text>
</g>
<!-- N41&#45;&gt;N6 -->
<g id="edge3" class="edge">
<title>N41&#45;&gt;N6</title>
<path fill="none" stroke="black" d="M245.46,-1329.68C245.46,-1327.23 245.46,-1324.78 245.46,-1322.33"/>
<polygon fill="black" stroke="black" points="248.96,-1322.25 245.46,-1312.25 241.96,-1322.25 248.96,-1322.25"/>
</g>
<!-- N26 -->
<g id="node8" class="node">
<title>N26</title>
<polygon fill="#3dd4ea" stroke="#3dd4ea" points="443.73,-1418.54 443.73,-1433.46 327.58,-1444 163.33,-1444 47.18,-1433.46 47.18,-1418.54 163.33,-1408 327.58,-1408 443.73,-1418.54"/>
<polygon fill="none" stroke="#3dd4ea" points="447.73,-1414.89 447.73,-1437.11 327.77,-1448 163.15,-1448 43.18,-1437.11 43.18,-1414.89 163.15,-1404 327.77,-1404 447.73,-1414.89"/>
<polygon fill="none" stroke="#3dd4ea" points="451.73,-1411.24 451.73,-1440.76 327.95,-1452 162.97,-1452 39.19,-1440.76 39.19,-1411.24 162.97,-1400 327.95,-1400 451.73,-1411.24"/>
<text text-anchor="middle" x="245.46" y="-1422.3" font-family="Roboto" font-size="14.00" fill="#000000">papirus&#45;icon&#45;theme&#45;20200602 (223.66 MiB)</text>
</g>
<!-- N25 -->
<g id="node9" class="node">
<title>N25</title>
<polygon fill="#3cedea" stroke="#3cedea" points="365.14,-1488.54 365.14,-1503.46 295.03,-1514 195.88,-1514 125.78,-1503.46 125.78,-1488.54 195.88,-1478 295.03,-1478 365.14,-1488.54"/>
<polygon fill="none" stroke="#3cedea" points="369.14,-1485.1 369.14,-1506.9 295.33,-1518 195.58,-1518 121.77,-1506.9 121.77,-1485.1 195.58,-1474 295.33,-1474 369.14,-1485.1"/>
<polygon fill="none" stroke="#3cedea" points="373.14,-1481.66 373.14,-1510.34 295.63,-1522 195.28,-1522 117.77,-1510.34 117.77,-1481.66 195.28,-1470 295.63,-1470 373.14,-1481.66"/>
<text text-anchor="middle" x="245.46" y="-1492.3" font-family="Roboto" font-size="14.00" fill="#000000">elixir&#45;1.10.3 (301.46 MiB)</text>
</g>
<!-- N24 -->
<g id="node10" class="node">
<title>N24</title>
<polygon fill="#3ebbe7" stroke="#3ebbe7" points="367.35,-1558.54 367.35,-1573.46 295.95,-1584 194.97,-1584 123.56,-1573.46 123.56,-1558.54 194.97,-1548 295.95,-1548 367.35,-1558.54"/>
<polygon fill="none" stroke="#3ebbe7" points="371.36,-1555.09 371.36,-1576.91 296.24,-1588 194.67,-1588 119.55,-1576.91 119.55,-1555.09 194.67,-1544 296.24,-1544 371.36,-1555.09"/>
<polygon fill="none" stroke="#3ebbe7" points="375.37,-1551.64 375.37,-1580.36 296.54,-1592 194.38,-1592 115.55,-1580.36 115.55,-1551.64 194.38,-1540 296.54,-1540 375.37,-1551.64"/>
<text text-anchor="middle" x="245.46" y="-1562.3" font-family="Roboto" font-size="14.00" fill="#000000">astroid&#45;0.15 (158.35 MiB)</text>
</g>
<!-- N23 -->
<g id="node11" class="node">
<title>N23</title>
<polygon fill="#feaa00" stroke="#feaa00" points="339.51,-1768.54 339.51,-1783.46 284.42,-1794 206.5,-1794 151.4,-1783.46 151.4,-1768.54 206.5,-1758 284.42,-1758 339.51,-1768.54"/>
<polygon fill="none" stroke="#feaa00" points="343.5,-1765.24 343.5,-1786.76 284.79,-1798 206.12,-1798 147.41,-1786.76 147.41,-1765.24 206.12,-1754 284.79,-1754 343.5,-1765.24"/>
<polygon fill="none" stroke="#feaa00" points="347.49,-1761.93 347.49,-1790.07 285.17,-1802 205.74,-1802 143.42,-1790.07 143.42,-1761.93 205.74,-1750 285.17,-1750 347.49,-1761.93"/>
<text text-anchor="middle" x="245.46" y="-1772.3" font-family="Roboto" font-size="14.00" fill="#000000">wine&#45;5.0 (1.79 GiB)</text>
</g>
<!-- N38 -->
<g id="node50" class="node">
<title>N38</title>
<polygon fill="#3cedeb" stroke="#3cedeb" points="742.3,-1802 520.3,-1802 520.3,-1766 742.3,-1766 742.3,-1802"/>
<text text-anchor="middle" x="631.3" y="-1780.3" font-family="Roboto" font-size="14.00" fill="#000000">fontconfig&#45;2.12.6&#45;lib (297.68 MiB)</text>
</g>
<!-- N23&#45;&gt;N38 -->
<g id="edge4" class="edge">
<title>N23&#45;&gt;N38</title>
<path fill="none" stroke="black" d="M347.56,-1778.11C397.33,-1779.14 457.68,-1780.4 509.83,-1781.49"/>
<polygon fill="black" stroke="black" points="510.08,-1784.99 520.15,-1781.7 510.22,-1778 510.08,-1784.99"/>
</g>
<!-- N39 -->
<g id="node51" class="node">
<title>N39</title>
<polygon fill="#3fb3e6" stroke="#3fb3e6" points="762.8,-1732 499.8,-1732 499.8,-1696 762.8,-1696 762.8,-1732"/>
<text text-anchor="middle" x="631.3" y="-1710.3" font-family="Roboto" font-size="14.00" fill="#ffffff">wine&#45;gecko&#45;2.47.1&#45;x86.msi (139.24 MiB)</text>
</g>
<!-- N23&#45;&gt;N39 -->
<g id="edge5" class="edge">
<title>N23&#45;&gt;N39</title>
<path fill="none" stroke="black" d="M341.41,-1760.73C379.46,-1754.61 423.71,-1747.48 463.8,-1741 478.5,-1738.62 493.94,-1736.13 509.23,-1733.65"/>
<polygon fill="black" stroke="black" points="509.94,-1737.08 519.25,-1732.03 508.82,-1730.17 509.94,-1737.08"/>
</g>
<!-- N22 -->
<g id="node12" class="node">
<title>N22</title>
<polygon fill="#bdfe2c" stroke="#bdfe2c" points="342.61,-1838.54 342.61,-1853.46 285.7,-1864 205.21,-1864 148.3,-1853.46 148.3,-1838.54 205.21,-1828 285.7,-1828 342.61,-1838.54"/>
<polygon fill="none" stroke="#bdfe2c" points="346.62,-1835.22 346.62,-1856.78 286.07,-1868 204.84,-1868 144.3,-1856.78 144.3,-1835.22 204.84,-1824 286.07,-1824 346.62,-1835.22"/>
<polygon fill="none" stroke="#bdfe2c" points="350.62,-1831.89 350.62,-1860.11 286.44,-1872 204.48,-1872 140.29,-1860.11 140.29,-1831.89 204.48,-1820 286.44,-1820 350.62,-1831.89"/>
<text text-anchor="middle" x="245.46" y="-1842.3" font-family="Roboto" font-size="14.00" fill="#000000">steam (841.77 MiB)</text>
</g>
<!-- N2 -->
<g id="node46" class="node">
<title>N2</title>
<polygon fill="#3ecfe9" stroke="#3ecfe9" points="392.52,-1908.54 392.52,-1923.46 306.37,-1934 184.54,-1934 98.4,-1923.46 98.4,-1908.54 184.54,-1898 306.37,-1898 392.52,-1908.54"/>
<polygon fill="none" stroke="#3ecfe9" points="396.52,-1905 396.52,-1927 306.61,-1938 184.3,-1938 94.4,-1927 94.4,-1905 184.3,-1894 306.61,-1894 396.52,-1905"/>
<polygon fill="none" stroke="#3ecfe9" points="400.52,-1901.46 400.52,-1930.54 306.86,-1942 184.06,-1942 90.4,-1930.54 90.4,-1901.46 184.06,-1890 306.86,-1890 400.52,-1901.46"/>
<text text-anchor="middle" x="245.46" y="-1912.3" font-family="Roboto" font-size="14.00" fill="#000000">glibc&#45;locales&#45;2.30 (209.50 MiB)</text>
</g>
<!-- N22&#45;&gt;N2 -->
<g id="edge6" class="edge">
<title>N22&#45;&gt;N2</title>
<path fill="none" stroke="black" d="M245.46,-1872.25C245.46,-1874.7 245.46,-1877.15 245.46,-1879.6"/>
<polygon fill="black" stroke="black" points="241.96,-1879.68 245.46,-1889.68 248.96,-1879.68 241.96,-1879.68"/>
</g>
<!-- N22&#45;&gt;N38 -->
<g id="edge8" class="edge">
<title>N22&#45;&gt;N38</title>
<path fill="none" stroke="black" d="M343.02,-1830.47C380.71,-1824.41 424.28,-1817.39 463.8,-1811 478.74,-1808.59 494.43,-1806.05 509.97,-1803.53"/>
<polygon fill="black" stroke="black" points="510.83,-1806.94 520.14,-1801.88 509.71,-1800.03 510.83,-1806.94"/>
</g>
<!-- N35 -->
<g id="node52" class="node">
<title>N35</title>
<polygon fill="#3cede9" stroke="#3cede9" points="728.8,-1934 533.8,-1934 533.8,-1898 728.8,-1898 728.8,-1934"/>
<text text-anchor="middle" x="631.3" y="-1912.3" font-family="Roboto" font-size="14.00" fill="#000000">mono&#45;5.20.1.27 (307.36 MiB)</text>
</g>
<!-- N22&#45;&gt;N35 -->
<g id="edge7" class="edge">
<title>N22&#45;&gt;N35</title>
<path fill="none" stroke="black" d="M345.9,-1861C382.97,-1866.85 425.38,-1873.87 463.8,-1881 488.05,-1885.5 514.19,-1890.79 538.42,-1895.87"/>
<polygon fill="black" stroke="black" points="537.8,-1899.32 548.31,-1897.96 539.25,-1892.47 537.8,-1899.32"/>
</g>
<!-- N21 -->
<g id="node13" class="node">
<title>N21</title>
<polygon fill="#c6fe2a" stroke="#c6fe2a" points="388.09,-2118.54 388.09,-2133.46 304.54,-2144 186.38,-2144 102.83,-2133.46 102.83,-2118.54 186.38,-2108 304.54,-2108 388.09,-2118.54"/>
<polygon fill="none" stroke="#c6fe2a" points="392.08,-2115.02 392.08,-2136.98 304.79,-2148 186.13,-2148 98.83,-2136.98 98.83,-2115.02 186.13,-2104 304.79,-2104 392.08,-2115.02"/>
<polygon fill="none" stroke="#c6fe2a" points="396.08,-2111.49 396.08,-2140.51 305.04,-2152 185.88,-2152 94.84,-2140.51 94.84,-2111.49 185.88,-2100 305.04,-2100 396.08,-2111.49"/>
<text text-anchor="middle" x="245.46" y="-2122.3" font-family="Roboto" font-size="14.00" fill="#000000">xonotic&#45;sdl&#45;0.8.2 (895.35 MiB)</text>
</g>
<!-- N42 -->
<g id="node14" class="node">
<title>N42</title>
<polygon fill="#406ce1" stroke="#406ce1" points="362.92,-928.54 362.92,-943.46 294.11,-954 196.8,-954 127.99,-943.46 127.99,-928.54 196.8,-918 294.11,-918 362.92,-928.54"/>
<polygon fill="none" stroke="#406ce1" points="366.92,-925.11 366.92,-946.89 294.42,-958 196.5,-958 123.99,-946.89 123.99,-925.11 196.5,-914 294.42,-914 366.92,-925.11"/>
<polygon fill="none" stroke="#406ce1" points="370.92,-921.68 370.92,-950.32 294.72,-962 196.19,-962 119.99,-950.32 119.99,-921.68 196.19,-910 294.72,-910 370.92,-921.68"/>
<text text-anchor="middle" x="245.46" y="-932.3" font-family="Roboto" font-size="14.00" fill="#ffffff">nethack&#45;3.6.6 (4.58 MiB)</text>
</g>
<!-- N42&#45;&gt;N36 -->
<g id="edge9" class="edge">
<title>N42&#45;&gt;N36</title>
<path fill="none" stroke="black" d="M369.43,-921.43C400.54,-916.32 433.67,-909.63 463.8,-901 506.06,-888.9 551.95,-869.07 584.84,-853.6"/>
<polygon fill="black" stroke="black" points="586.65,-856.61 594.18,-849.15 583.64,-850.29 586.65,-856.61"/>
</g>
<!-- N20 -->
<g id="node15" class="node">
<title>N20</title>
<polygon fill="#3fb3e6" stroke="#3fb3e6" points="356.75,-2188.54 356.75,-2203.46 291.56,-2214 199.36,-2214 134.16,-2203.46 134.16,-2188.54 199.36,-2178 291.56,-2178 356.75,-2188.54"/>
<polygon fill="none" stroke="#3fb3e6" points="360.76,-2185.14 360.76,-2206.86 291.88,-2218 199.04,-2218 130.16,-2206.86 130.16,-2185.14 199.04,-2174 291.88,-2174 360.76,-2185.14"/>
<polygon fill="none" stroke="#3fb3e6" points="364.76,-2181.74 364.76,-2210.26 292.2,-2222 198.71,-2222 126.15,-2210.26 126.15,-2181.74 198.71,-2170 292.2,-2170 364.76,-2181.74"/>
<text text-anchor="middle" x="245.46" y="-2192.3" font-family="Roboto" font-size="14.00" fill="#ffffff">vlc&#45;3.0.11 (139.72 MiB)</text>
</g>
<!-- N19 -->
<g id="node16" class="node">
<title>N19</title>
<polygon fill="#3ddeeb" stroke="#3ddeeb" points="357.18,-2258.54 357.18,-2273.46 291.73,-2284 199.18,-2284 133.74,-2273.46 133.74,-2258.54 199.18,-2248 291.73,-2248 357.18,-2258.54"/>
<polygon fill="none" stroke="#3ddeeb" points="361.17,-2255.14 361.17,-2276.86 292.05,-2288 198.86,-2288 129.74,-2276.86 129.74,-2255.14 198.86,-2244 292.05,-2244 361.17,-2255.14"/>
<polygon fill="none" stroke="#3ddeeb" points="365.17,-2251.73 365.17,-2280.27 292.37,-2292 198.54,-2292 125.75,-2280.27 125.75,-2251.73 198.54,-2240 292.37,-2240 365.17,-2251.73"/>
<text text-anchor="middle" x="245.46" y="-2262.3" font-family="Roboto" font-size="14.00" fill="#000000">X11&#45;fonts (249.44 MiB)</text>
</g>
<!-- N18 -->
<g id="node17" class="node">
<title>N18</title>
<polygon fill="#3ec2e8" stroke="#3ec2e8" points="386.34,-2328.54 386.34,-2343.46 303.81,-2354 187.1,-2354 104.57,-2343.46 104.57,-2328.54 187.1,-2318 303.81,-2318 386.34,-2328.54"/>
<polygon fill="none" stroke="#3ec2e8" points="390.35,-2325.02 390.35,-2346.98 304.07,-2358 186.84,-2358 100.57,-2346.98 100.57,-2325.02 186.84,-2314 304.07,-2314 390.35,-2325.02"/>
<polygon fill="none" stroke="#3ec2e8" points="394.35,-2321.5 394.35,-2350.5 304.32,-2362 186.59,-2362 96.56,-2350.5 96.56,-2321.5 186.59,-2310 304.32,-2310 394.35,-2321.5"/>
<text text-anchor="middle" x="245.46" y="-2332.3" font-family="Roboto" font-size="14.00" fill="#000000">mongodb&#45;3.4.24 (174.69 MiB)</text>
</g>
<!-- N17 -->
<g id="node18" class="node">
<title>N17</title>
<polygon fill="#fe4000" stroke="#fe4000" points="427.86,-858.54 427.86,-873.46 321.01,-884 169.9,-884 63.06,-873.46 63.06,-858.54 169.9,-848 321.01,-848 427.86,-858.54"/>
<polygon fill="none" stroke="#fe4000" points="431.86,-854.92 431.86,-877.08 321.21,-888 169.71,-888 59.05,-877.08 59.05,-854.92 169.71,-844 321.21,-844 431.86,-854.92"/>
<polygon fill="none" stroke="#fe4000" points="435.87,-851.3 435.87,-880.7 321.4,-892 169.51,-892 55.05,-880.7 55.05,-851.3 169.51,-840 321.4,-840 435.87,-851.3"/>
<text text-anchor="middle" x="245.46" y="-862.3" font-family="Roboto" font-size="14.00" fill="#000000">xmonad&#45;with&#45;packages&#45;8.8.3 (2.18 GiB)</text>
</g>
<!-- N17&#45;&gt;N36 -->
<g id="edge10" class="edge">
<title>N17&#45;&gt;N36</title>
<path fill="none" stroke="black" d="M422.37,-849.96C464.56,-846.11 507.79,-842.17 543.82,-838.89"/>
<polygon fill="black" stroke="black" points="544.15,-842.37 553.79,-837.98 543.51,-835.4 544.15,-842.37"/>
</g>
<!-- N16 -->
<g id="node19" class="node">
<title>N16</title>
<polygon fill="#3ebde7" stroke="#3ebde7" points="374.85,-2398.54 374.85,-2413.46 299.05,-2424 191.86,-2424 116.07,-2413.46 116.07,-2398.54 191.86,-2388 299.05,-2388 374.85,-2398.54"/>
<polygon fill="none" stroke="#3ebde7" points="378.84,-2395.06 378.84,-2416.94 299.33,-2428 191.59,-2428 112.07,-2416.94 112.07,-2395.06 191.59,-2384 299.33,-2384 378.84,-2395.06"/>
<polygon fill="none" stroke="#3ebde7" points="382.84,-2391.58 382.84,-2420.42 299.6,-2432 191.31,-2432 108.07,-2420.42 108.07,-2391.58 191.31,-2380 299.6,-2380 382.84,-2391.58"/>
<text text-anchor="middle" x="245.46" y="-2402.3" font-family="Roboto" font-size="14.00" fill="#000000">gzdoom&#45;4.3.3 (163.52 MiB)</text>
</g>
<!-- N43 -->
<g id="node20" class="node">
<title>N43</title>
<polygon fill="#4074e1" stroke="#4074e1" points="373.53,-578.54 373.53,-593.46 298.5,-604 192.41,-604 117.39,-593.46 117.39,-578.54 192.41,-568 298.5,-568 373.53,-578.54"/>
<polygon fill="none" stroke="#4074e1" points="377.53,-575.07 377.53,-596.93 298.78,-608 192.13,-608 113.39,-596.93 113.39,-575.07 192.13,-564 298.78,-564 377.53,-575.07"/>
<polygon fill="none" stroke="#4074e1" points="381.53,-571.59 381.53,-600.41 299.06,-612 191.85,-612 109.39,-600.41 109.39,-571.59 191.85,-560 299.06,-560 381.53,-571.59"/>
<text text-anchor="middle" x="245.46" y="-582.3" font-family="Roboto" font-size="14.00" fill="#ffffff">tigervnc&#45;1.10.1 (16.09 MiB)</text>
</g>
<!-- N37 -->
<g id="node53" class="node">
<title>N37</title>
<polygon fill="#38f4ac" stroke="#38f4ac" points="726.8,-464 535.8,-464 535.8,-428 726.8,-428 726.8,-464"/>
<text text-anchor="middle" x="631.3" y="-442.3" font-family="Roboto" font-size="14.00" fill="#000000">libGL&#45;1.3.1&#45;dev (482.85 MiB)</text>
</g>
<!-- N43&#45;&gt;N37 -->
<g id="edge11" class="edge">
<title>N43&#45;&gt;N37</title>
<path fill="none" stroke="black" d="M381.71,-572.87C409.41,-567.79 437.97,-560.76 463.8,-551 515.45,-531.49 568.22,-494.79 600.13,-470.36"/>
<polygon fill="black" stroke="black" points="602.41,-473.02 608.17,-464.13 598.12,-467.49 602.41,-473.02"/>
</g>
<!-- N44 -->
<g id="node21" class="node">
<title>N44</title>
<polygon fill="#3f9fe4" stroke="#3f9fe4" points="392.52,-788.54 392.52,-803.46 306.37,-814 184.54,-814 98.4,-803.46 98.4,-788.54 184.54,-778 306.37,-778 392.52,-788.54"/>
<polygon fill="none" stroke="#3f9fe4" points="396.52,-785 396.52,-807 306.61,-818 184.3,-818 94.4,-807 94.4,-785 184.3,-774 306.61,-774 396.52,-785"/>
<polygon fill="none" stroke="#3f9fe4" points="400.52,-781.46 400.52,-810.54 306.86,-822 184.06,-822 90.4,-810.54 90.4,-781.46 184.06,-770 306.86,-770 400.52,-781.46"/>
<text text-anchor="middle" x="245.46" y="-792.3" font-family="Roboto" font-size="14.00" fill="#ffffff">stepmania&#45;5.1.0&#45;b2 (93.35 MiB)</text>
</g>
<!-- N44&#45;&gt;N36 -->
<g id="edge12" class="edge">
<title>N44&#45;&gt;N36</title>
<path fill="none" stroke="black" d="M400.65,-810.06C449.37,-814.5 501.48,-819.25 543.72,-823.11"/>
<polygon fill="black" stroke="black" points="543.4,-826.59 553.68,-824.01 544.04,-819.62 543.4,-826.59"/>
</g>
<!-- N45 -->
<g id="node22" class="node">
<title>N45</title>
<polygon fill="#4083e2" stroke="#4083e2" points="419.89,-1978.54 419.89,-1993.46 317.71,-2004 173.2,-2004 71.02,-1993.46 71.02,-1978.54 173.2,-1968 317.71,-1968 419.89,-1978.54"/>
<polygon fill="none" stroke="#4083e2" points="423.89,-1974.94 423.89,-1997.06 317.92,-2008 173,-2008 67.02,-1997.06 67.02,-1974.94 173,-1964 317.92,-1964 423.89,-1974.94"/>
<polygon fill="none" stroke="#4083e2" points="427.89,-1971.33 427.89,-2000.67 318.12,-2012 172.79,-2012 63.02,-2000.67 63.02,-1971.33 172.79,-1960 318.12,-1960 427.89,-1971.33"/>
<text text-anchor="middle" x="245.46" y="-1982.3" font-family="Roboto" font-size="14.00" fill="#ffffff">openra&#45;release&#45;20190314 (40.77 MiB)</text>
</g>
<!-- N45&#45;&gt;N35 -->
<g id="edge13" class="edge">
<title>N45&#45;&gt;N35</title>
<path fill="none" stroke="black" d="M376.79,-1966.05C405.49,-1961.36 435.71,-1956.21 463.8,-1951 488.05,-1946.5 514.19,-1941.21 538.42,-1936.13"/>
<polygon fill="black" stroke="black" points="539.25,-1939.53 548.31,-1934.04 537.8,-1932.68 539.25,-1939.53"/>
</g>
<!-- N15 -->
<g id="node23" class="node">
<title>N15</title>
<polygon fill="#3cede9" stroke="#3cede9" points="444.63,-2468.54 444.63,-2483.46 327.96,-2494 162.96,-2494 46.28,-2483.46 46.28,-2468.54 162.96,-2458 327.96,-2458 444.63,-2468.54"/>
<polygon fill="none" stroke="#3cede9" points="448.63,-2464.89 448.63,-2487.11 328.14,-2498 162.78,-2498 42.28,-2487.11 42.28,-2464.89 162.78,-2454 328.14,-2454 448.63,-2464.89"/>
<polygon fill="none" stroke="#3cede9" points="452.63,-2461.23 452.63,-2490.77 328.32,-2502 162.6,-2502 38.28,-2490.77 38.28,-2461.23 162.6,-2450 328.32,-2450 452.63,-2461.23"/>
<text text-anchor="middle" x="245.46" y="-2472.3" font-family="Roboto" font-size="14.00" fill="#000000">google&#45;chrome&#45;83.0.4103.106 (307.24 MiB)</text>
</g>
<!-- N46 -->
<g id="node24" class="node">
<title>N46</title>
<polygon fill="#4075e1" stroke="#4075e1" points="374.42,-2608.54 374.42,-2623.46 298.88,-2634 192.04,-2634 116.49,-2623.46 116.49,-2608.54 192.04,-2598 298.88,-2598 374.42,-2608.54"/>
<polygon fill="none" stroke="#4075e1" points="378.43,-2605.06 378.43,-2626.94 299.15,-2638 191.76,-2638 112.49,-2626.94 112.49,-2605.06 191.76,-2594 299.15,-2594 378.43,-2605.06"/>
<polygon fill="none" stroke="#4075e1" points="382.44,-2601.58 382.44,-2630.42 299.43,-2642 191.48,-2642 108.48,-2630.42 108.48,-2601.58 191.48,-2590 299.43,-2590 382.44,-2601.58"/>
<text text-anchor="middle" x="245.46" y="-2612.3" font-family="Roboto" font-size="14.00" fill="#ffffff">nomacs&#45;3.14.2 (17.37 MiB)</text>
</g>
<!-- N34 -->
<g id="node54" class="node">
<title>N34</title>
<polygon fill="#3fa1e5" stroke="#3fa1e5" points="716.3,-2599 546.3,-2599 546.3,-2563 716.3,-2563 716.3,-2599"/>
<text text-anchor="middle" x="631.3" y="-2577.3" font-family="Roboto" font-size="14.00" fill="#ffffff">opencv&#45;4.3.0 (98.60 MiB)</text>
</g>
<!-- N46&#45;&gt;N34 -->
<g id="edge14" class="edge">
<title>N46&#45;&gt;N34</title>
<path fill="none" stroke="black" d="M382.33,-2603.61C433.16,-2598.98 489.74,-2593.82 536.01,-2589.6"/>
<polygon fill="black" stroke="black" points="536.38,-2593.08 546.02,-2588.68 535.74,-2586.11 536.38,-2593.08"/>
</g>
<!-- N14 -->
<g id="node25" class="node">
<title>N14</title>
<polygon fill="#35f77d" stroke="#35f77d" points="410.61,-1628.54 410.61,-1643.46 313.86,-1654 177.05,-1654 80.31,-1643.46 80.31,-1628.54 177.05,-1618 313.86,-1618 410.61,-1628.54"/>
<polygon fill="none" stroke="#35f77d" points="414.6,-1624.96 414.6,-1647.04 314.08,-1658 176.83,-1658 76.31,-1647.04 76.31,-1624.96 176.83,-1614 314.08,-1614 414.6,-1624.96"/>
<polygon fill="none" stroke="#35f77d" points="418.6,-1621.37 418.6,-1650.63 314.3,-1662 176.62,-1662 72.32,-1650.63 72.32,-1621.37 176.62,-1610 314.3,-1610 418.6,-1621.37"/>
<text text-anchor="middle" x="245.46" y="-1632.3" font-family="Roboto" font-size="14.00" fill="#000000">kodi&#45;with&#45;plugins&#45;18.5 (564.77 MiB)</text>
</g>
<!-- N32 -->
<g id="node55" class="node">
<title>N32</title>
<polygon fill="#3dd0e9" stroke="#3dd0e9" points="718.8,-1662 543.8,-1662 543.8,-1626 718.8,-1626 718.8,-1662"/>
<text text-anchor="middle" x="631.3" y="-1640.3" font-family="Roboto" font-size="14.00" fill="#000000">glxinfo&#45;8.4.0 (212.92 MiB)</text>
</g>
<!-- N14&#45;&gt;N32 -->
<g id="edge15" class="edge">
<title>N14&#45;&gt;N32</title>
<path fill="none" stroke="black" d="M418.73,-1639.59C458.09,-1640.41 498.57,-1641.25 533.44,-1641.98"/>
<polygon fill="black" stroke="black" points="533.53,-1645.48 543.6,-1642.19 533.68,-1638.49 533.53,-1645.48"/>
</g>
<!-- N13 -->
<g id="node26" class="node">
<title>N13</title>
<polygon fill="#3ce4ec" stroke="#3ce4ec" points="425.64,-2678.54 425.64,-2693.46 320.09,-2704 170.82,-2704 65.27,-2693.46 65.27,-2678.54 170.82,-2668 320.09,-2668 425.64,-2678.54"/>
<polygon fill="none" stroke="#3ce4ec" points="429.64,-2674.92 429.64,-2697.08 320.29,-2708 170.62,-2708 61.27,-2697.08 61.27,-2674.92 170.62,-2664 320.29,-2664 429.64,-2674.92"/>
<polygon fill="none" stroke="#3ce4ec" points="433.65,-2671.3 433.65,-2700.7 320.49,-2712 170.42,-2712 57.27,-2700.7 57.27,-2671.3 170.42,-2660 320.49,-2660 433.65,-2671.3"/>
<text text-anchor="middle" x="245.46" y="-2682.3" font-family="Roboto" font-size="14.00" fill="#000000">qemu&#45;host&#45;cpu&#45;only&#45;5.0.0 (267.68 MiB)</text>
</g>
<!-- N47 -->
<g id="node27" class="node">
<title>N47</title>
<polygon fill="#4075e1" stroke="#4075e1" points="347.47,-508.54 347.47,-523.46 287.71,-534 203.2,-534 143.44,-523.46 143.44,-508.54 203.2,-498 287.71,-498 347.47,-508.54"/>
<polygon fill="none" stroke="#4075e1" points="351.47,-505.19 351.47,-526.81 288.06,-538 202.85,-538 139.44,-526.81 139.44,-505.19 202.85,-494 288.06,-494 351.47,-505.19"/>
<polygon fill="none" stroke="#4075e1" points="355.47,-501.83 355.47,-530.17 288.41,-542 202.5,-542 135.44,-530.17 135.44,-501.83 202.5,-490 288.41,-490 355.47,-501.83"/>
<text text-anchor="middle" x="245.46" y="-512.3" font-family="Roboto" font-size="14.00" fill="#ffffff">piper&#45;0.5 (18.54 MiB)</text>
</g>
<!-- N47&#45;&gt;N37 -->
<g id="edge16" class="edge">
<title>N47&#45;&gt;N37</title>
<path fill="none" stroke="black" d="M348.63,-500.57C385.05,-494.8 426.32,-487.95 463.8,-481 488.05,-476.5 514.19,-471.21 538.42,-466.13"/>
<polygon fill="black" stroke="black" points="539.25,-469.53 548.31,-464.04 537.8,-462.68 539.25,-469.53"/>
</g>
<!-- N48 -->
<g id="node28" class="node">
<title>N48</title>
<polygon fill="#408be3" stroke="#408be3" points="406.65,-648.54 406.65,-663.46 312.23,-674 178.69,-674 84.26,-663.46 84.26,-648.54 178.69,-638 312.23,-638 406.65,-648.54"/>
<polygon fill="none" stroke="#408be3" points="410.65,-644.97 410.65,-667.03 312.45,-678 178.46,-678 80.26,-667.03 80.26,-644.97 178.46,-634 312.45,-634 410.65,-644.97"/>
<polygon fill="none" stroke="#408be3" points="414.66,-641.39 414.66,-670.61 312.67,-682 178.24,-682 76.26,-670.61 76.26,-641.39 178.24,-630 312.67,-630 414.66,-641.39"/>
<text text-anchor="middle" x="245.46" y="-652.3" font-family="Roboto" font-size="14.00" fill="#ffffff">dwarf&#45;fortress&#45;0.47.04 (55.59 MiB)</text>
</g>
<!-- N48&#45;&gt;N36 -->
<g id="edge17" class="edge">
<title>N48&#45;&gt;N36</title>
<path fill="none" stroke="black" d="M406.41,-671.56C426.22,-676.43 445.82,-682.77 463.8,-691 523.31,-718.25 578.56,-772.77 608.04,-805.15"/>
<polygon fill="black" stroke="black" points="605.68,-807.76 614.96,-812.87 610.89,-803.09 605.68,-807.76"/>
</g>
<!-- N48&#45;&gt;N37 -->
<g id="edge18" class="edge">
<title>N48&#45;&gt;N37</title>
<path fill="none" stroke="black" d="M412.17,-641.01C430.16,-635.99 447.74,-629.46 463.8,-621 531.12,-585.53 586.66,-512.42 613.29,-472.85"/>
<polygon fill="black" stroke="black" points="616.54,-474.29 619.13,-464.02 610.7,-470.43 616.54,-474.29"/>
</g>
<!-- N12 -->
<g id="node29" class="node">
<title>N12</title>
<polygon fill="#3ec8e8" stroke="#3ec8e8" points="374.42,-2748.54 374.42,-2763.46 298.88,-2774 192.04,-2774 116.49,-2763.46 116.49,-2748.54 192.04,-2738 298.88,-2738 374.42,-2748.54"/>
<polygon fill="none" stroke="#3ec8e8" points="378.43,-2745.06 378.43,-2766.94 299.15,-2778 191.76,-2778 112.49,-2766.94 112.49,-2745.06 191.76,-2734 299.15,-2734 378.43,-2745.06"/>
<polygon fill="none" stroke="#3ec8e8" points="382.44,-2741.58 382.44,-2770.42 299.43,-2782 191.48,-2782 108.48,-2770.42 108.48,-2741.58 191.48,-2730 299.43,-2730 382.44,-2741.58"/>
<text text-anchor="middle" x="245.46" y="-2752.3" font-family="Roboto" font-size="14.00" fill="#000000">fritzing&#45;0.9.3b (190.99 MiB)</text>
</g>
<!-- N49 -->
<g id="node30" class="node">
<title>N49</title>
<polygon fill="#408ae3" stroke="#408ae3" points="388.09,-438.54 388.09,-453.46 304.54,-464 186.38,-464 102.83,-453.46 102.83,-438.54 186.38,-428 304.54,-428 388.09,-438.54"/>
<polygon fill="none" stroke="#408ae3" points="392.08,-435.02 392.08,-456.98 304.79,-468 186.13,-468 98.83,-456.98 98.83,-435.02 186.13,-424 304.79,-424 392.08,-435.02"/>
<polygon fill="none" stroke="#408ae3" points="396.08,-431.49 396.08,-460.51 305.04,-472 185.88,-472 94.84,-460.51 94.84,-431.49 185.88,-420 305.04,-420 396.08,-431.49"/>
<text text-anchor="middle" x="245.46" y="-442.3" font-family="Roboto" font-size="14.00" fill="#ffffff">virt&#45;manager&#45;2.2.1 (53.66 MiB)</text>
</g>
<!-- N49&#45;&gt;N37 -->
<g id="edge19" class="edge">
<title>N49&#45;&gt;N37</title>
<path fill="none" stroke="black" d="M396.24,-446C439.39,-446 485.54,-446 525.36,-446"/>
<polygon fill="black" stroke="black" points="525.61,-449.5 535.61,-446 525.61,-442.5 525.61,-449.5"/>
</g>
<!-- N11 -->
<g id="node31" class="node">
<title>N11</title>
<polygon fill="#36f786" stroke="#36f786" points="386.77,-368.54 386.77,-383.46 303.99,-394 186.92,-394 104.15,-383.46 104.15,-368.54 186.92,-358 303.99,-358 386.77,-368.54"/>
<polygon fill="none" stroke="#36f786" points="390.76,-365.02 390.76,-386.98 304.24,-398 186.67,-398 100.15,-386.98 100.15,-365.02 186.67,-354 304.24,-354 390.76,-365.02"/>
<polygon fill="none" stroke="#36f786" points="394.76,-361.5 394.76,-390.5 304.5,-402 186.42,-402 96.15,-390.5 96.15,-361.5 186.42,-350 304.5,-350 394.76,-361.5"/>
<text text-anchor="middle" x="245.46" y="-372.3" font-family="Roboto" font-size="14.00" fill="#000000">wesnoth&#45;1.14.12 (552.42 MiB)</text>
</g>
<!-- N11&#45;&gt;N37 -->
<g id="edge20" class="edge">
<title>N11&#45;&gt;N37</title>
<path fill="none" stroke="black" d="M365.92,-394.19C397.78,-399.33 432.14,-405.13 463.8,-411 488.05,-415.5 514.19,-420.79 538.42,-425.87"/>
<polygon fill="black" stroke="black" points="537.8,-429.32 548.31,-427.96 539.25,-422.47 537.8,-429.32"/>
</g>
<!-- N50 -->
<g id="node32" class="node">
<title>N50</title>
<polygon fill="#4089e3" stroke="#4089e3" points="430.49,-2818.54 430.49,-2833.46 322.1,-2844 168.81,-2844 60.42,-2833.46 60.42,-2818.54 168.81,-2808 322.1,-2808 430.49,-2818.54"/>
<polygon fill="none" stroke="#4089e3" points="434.49,-2814.91 434.49,-2837.09 322.3,-2848 168.62,-2848 56.42,-2837.09 56.42,-2814.91 168.62,-2804 322.3,-2804 434.49,-2814.91"/>
<polygon fill="none" stroke="#4089e3" points="438.49,-2811.28 438.49,-2840.72 322.49,-2852 168.42,-2852 52.42,-2840.72 52.42,-2811.28 168.42,-2800 322.49,-2800 438.49,-2811.28"/>
<text text-anchor="middle" x="245.46" y="-2822.3" font-family="Roboto" font-size="14.00" fill="#ffffff">nvidia&#45;x11&#45;440.82&#45;5.4.47&#45;bin (50.53 MiB)</text>
</g>
<!-- N33 -->
<g id="node56" class="node">
<title>N33</title>
<polygon fill="#3cede9" stroke="#3cede9" points="755.3,-2914 507.3,-2914 507.3,-2878 755.3,-2878 755.3,-2914"/>
<text text-anchor="middle" x="631.3" y="-2892.3" font-family="Roboto" font-size="14.00" fill="#000000">nvidia&#45;x11&#45;440.82&#45;5.4.47 (308.09 MiB)</text>
</g>
<!-- N50&#45;&gt;N33 -->
<g id="edge21" class="edge">
<title>N50&#45;&gt;N33</title>
<path fill="none" stroke="black" d="M379.96,-2846.47C407.72,-2851.02 436.74,-2855.98 463.8,-2861 488.05,-2865.5 514.19,-2870.79 538.42,-2875.87"/>
<polygon fill="black" stroke="black" points="537.8,-2879.32 548.31,-2877.96 539.25,-2872.47 537.8,-2879.32"/>
</g>
<!-- N51 -->
<g id="node33" class="node">
<title>N51</title>
<polygon fill="#4169e1" stroke="#4169e1" points="430.49,-2958.54 430.49,-2973.46 322.1,-2984 168.81,-2984 60.42,-2973.46 60.42,-2958.54 168.81,-2948 322.1,-2948 430.49,-2958.54"/>
<polygon fill="none" stroke="#4169e1" points="434.49,-2954.91 434.49,-2977.09 322.3,-2988 168.62,-2988 56.42,-2977.09 56.42,-2954.91 168.62,-2944 322.3,-2944 434.49,-2954.91"/>
<polygon fill="none" stroke="#4169e1" points="438.49,-2951.28 438.49,-2980.72 322.49,-2992 168.42,-2992 52.42,-2980.72 52.42,-2951.28 168.42,-2940 322.49,-2940 438.49,-2951.28"/>
<text text-anchor="middle" x="245.46" y="-2962.3" font-family="Roboto" font-size="14.00" fill="#ffffff">nvidia&#45;persistenced&#45;440.82 (115.81 KiB)</text>
</g>
<!-- N51&#45;&gt;N33 -->
<g id="edge22" class="edge">
<title>N51&#45;&gt;N33</title>
<path fill="none" stroke="black" d="M379.96,-2945.53C407.72,-2940.98 436.74,-2936.02 463.8,-2931 488.05,-2926.5 514.19,-2921.21 538.42,-2916.13"/>
<polygon fill="black" stroke="black" points="539.25,-2919.53 548.31,-2914.04 537.8,-2912.68 539.25,-2919.53"/>
</g>
<!-- N10 -->
<g id="node34" class="node">
<title>N10</title>
<polygon fill="#3ebbe7" stroke="#3ebbe7" points="383.23,-88.54 383.23,-103.46 302.53,-114 188.39,-114 107.68,-103.46 107.68,-88.54 188.39,-78 302.53,-78 383.23,-88.54"/>
<polygon fill="none" stroke="#3ebbe7" points="387.23,-85.03 387.23,-106.97 302.79,-118 188.13,-118 103.68,-106.97 103.68,-85.03 188.13,-74 302.79,-74 387.23,-85.03"/>
<polygon fill="none" stroke="#3ebbe7" points="391.23,-81.52 391.23,-110.48 303.04,-122 187.87,-122 99.69,-110.48 99.69,-81.52 187.87,-70 303.04,-70 391.23,-81.52"/>
<text text-anchor="middle" x="245.46" y="-92.3" font-family="Roboto" font-size="14.00" fill="#000000">inkscape&#45;0.92.5 (157.50 MiB)</text>
</g>
<!-- N10&#45;&gt;N40 -->
<g id="edge23" class="edge">
<title>N10&#45;&gt;N40</title>
<path fill="none" stroke="black" d="M364.79,-114.01C396.96,-119.19 431.77,-125.06 463.8,-131 490.46,-135.94 519.4,-141.84 545.56,-147.37"/>
<polygon fill="black" stroke="black" points="544.93,-150.82 555.44,-149.47 546.39,-143.97 544.93,-150.82"/>
</g>
<!-- N9 -->
<g id="node35" class="node">
<title>N9</title>
<polygon fill="#3ecae9" stroke="#3ecae9" points="429.18,-2048.54 429.18,-2063.46 321.56,-2074 169.36,-2074 61.74,-2063.46 61.74,-2048.54 169.36,-2038 321.56,-2038 429.18,-2048.54"/>
<polygon fill="none" stroke="#3ecae9" points="433.18,-2044.92 433.18,-2067.08 321.75,-2078 169.16,-2078 57.74,-2067.08 57.74,-2044.92 169.16,-2034 321.75,-2034 433.18,-2044.92"/>
<polygon fill="none" stroke="#3ecae9" points="437.18,-2041.29 437.18,-2070.71 321.95,-2082 168.97,-2082 53.73,-2070.71 53.73,-2041.29 168.97,-2030 321.95,-2030 437.18,-2041.29"/>
<text text-anchor="middle" x="245.46" y="-2052.3" font-family="Roboto" font-size="14.00" fill="#000000">tor&#45;browser&#45;bundle&#45;bin&#45;9.5 (196.15 MiB)</text>
</g>
<!-- N9&#45;&gt;N2 -->
<g id="edge24" class="edge">
<title>N9&#45;&gt;N2</title>
<path fill="none" stroke="black" d="M91.94,-2037.47C69.93,-2033.06 47.76,-2027.64 27.11,-2021 18.6,-2018.26 13.81,-2019.61 9.11,-2012 -3.04,-1992.34 -3.04,-1979.66 9.11,-1960 25.13,-1934.08 51.23,-1919.37 80.36,-1911.58"/>
<polygon fill="black" stroke="black" points="81.43,-1914.92 90.34,-1909.19 79.81,-1908.11 81.43,-1914.92"/>
</g>
<!-- N8 -->
<g id="node36" class="node">
<title>N8</title>
<polygon fill="#3de3ec" stroke="#3de3ec" points="384.55,-3028.54 384.55,-3043.46 303.07,-3054 187.84,-3054 106.36,-3043.46 106.36,-3028.54 187.84,-3018 303.07,-3018 384.55,-3028.54"/>
<polygon fill="none" stroke="#3de3ec" points="388.55,-3025.03 388.55,-3046.97 303.33,-3058 187.59,-3058 102.37,-3046.97 102.37,-3025.03 187.59,-3014 303.33,-3014 388.55,-3025.03"/>
<polygon fill="none" stroke="#3de3ec" points="392.54,-3021.51 392.54,-3050.49 303.59,-3062 187.33,-3062 98.37,-3050.49 98.37,-3021.51 187.33,-3010 303.59,-3010 392.54,-3021.51"/>
<text text-anchor="middle" x="245.46" y="-3032.3" font-family="Roboto" font-size="14.00" fill="#000000">docker&#45;19.03.11 (266.19 MiB)</text>
</g>
<!-- N7 -->
<g id="node37" class="node">
<title>N7</title>
<polygon fill="#fe6500" stroke="#fe6500" points="376.16,-1698.54 376.16,-1713.46 299.6,-1724 191.32,-1724 114.75,-1713.46 114.75,-1698.54 191.32,-1688 299.6,-1688 376.16,-1698.54"/>
<polygon fill="none" stroke="#fe6500" points="380.16,-1695.06 380.16,-1716.94 299.87,-1728 191.04,-1728 110.75,-1716.94 110.75,-1695.06 191.04,-1684 299.87,-1684 380.16,-1695.06"/>
<polygon fill="none" stroke="#fe6500" points="384.16,-1691.57 384.16,-1720.43 300.15,-1732 190.77,-1732 106.76,-1720.43 106.76,-1691.57 190.77,-1680 300.15,-1680 384.16,-1691.57"/>
<text text-anchor="middle" x="245.46" y="-1702.3" font-family="Roboto" font-size="14.00" fill="#000000">playonlinux&#45;4.3.4 (2.09 GiB)</text>
</g>
<!-- N7&#45;&gt;N39 -->
<g id="edge26" class="edge">
<title>N7&#45;&gt;N39</title>
<path fill="none" stroke="black" d="M384.22,-1708.87C418.47,-1709.59 455.22,-1710.35 489.61,-1711.07"/>
<polygon fill="black" stroke="black" points="489.65,-1714.57 499.72,-1711.28 489.79,-1707.57 489.65,-1714.57"/>
</g>
<!-- N7&#45;&gt;N32 -->
<g id="edge25" class="edge">
<title>N7&#45;&gt;N32</title>
<path fill="none" stroke="black" d="M358.43,-1687.99C392.28,-1682.54 429.56,-1676.53 463.8,-1671 486.34,-1667.36 510.59,-1663.43 533.42,-1659.73"/>
<polygon fill="black" stroke="black" points="534.15,-1663.16 543.46,-1658.1 533.03,-1656.25 534.15,-1663.16"/>
</g>
<!-- N52 -->
<g id="node38" class="node">
<title>N52</title>
<polygon fill="#3f9ae4" stroke="#3f9ae4" points="360.71,-2538.54 360.71,-2553.46 293.2,-2564 197.72,-2564 130.2,-2553.46 130.2,-2538.54 197.72,-2528 293.2,-2528 360.71,-2538.54"/>
<polygon fill="none" stroke="#3f9ae4" points="364.71,-2535.12 364.71,-2556.88 293.51,-2568 197.41,-2568 126.21,-2556.88 126.21,-2535.12 197.41,-2524 293.51,-2524 364.71,-2535.12"/>
<polygon fill="none" stroke="#3f9ae4" points="368.7,-2531.7 368.7,-2560.3 293.82,-2572 197.1,-2572 122.21,-2560.3 122.21,-2531.7 197.1,-2520 293.82,-2520 368.7,-2531.7"/>
<text text-anchor="middle" x="245.46" y="-2542.3" font-family="Roboto" font-size="14.00" fill="#ffffff">hunter&#45;1.3.5 (84.89 MiB)</text>
</g>
<!-- N52&#45;&gt;N34 -->
<g id="edge27" class="edge">
<title>N52&#45;&gt;N34</title>
<path fill="none" stroke="black" d="M368.96,-2557.17C423.05,-2562.1 485.64,-2567.81 536,-2572.4"/>
<polygon fill="black" stroke="black" points="535.95,-2575.91 546.23,-2573.33 536.59,-2568.94 535.95,-2575.91"/>
</g>
<!-- N53 -->
<g id="node39" class="node">
<title>N53</title>
<polygon fill="#4089e3" stroke="#4089e3" points="365.56,-718.54 365.56,-733.46 295.21,-744 195.71,-744 125.35,-733.46 125.35,-718.54 195.71,-708 295.21,-708 365.56,-718.54"/>
<polygon fill="none" stroke="#4089e3" points="369.56,-715.1 369.56,-736.9 295.5,-748 195.41,-748 121.36,-736.9 121.36,-715.1 195.41,-704 295.5,-704 369.56,-715.1"/>
<polygon fill="none" stroke="#4089e3" points="373.55,-711.65 373.55,-740.35 295.8,-752 195.11,-752 117.36,-740.35 117.36,-711.65 195.11,-700 295.8,-700 373.55,-711.65"/>
<text text-anchor="middle" x="245.46" y="-722.3" font-family="Roboto" font-size="14.00" fill="#ffffff">neovim&#45;0.4.3 (51.22 MiB)</text>
</g>
<!-- N53&#45;&gt;N36 -->
<g id="edge28" class="edge">
<title>N53&#45;&gt;N36</title>
<path fill="none" stroke="black" d="M370.86,-740.81C401.55,-745.89 434.13,-752.51 463.8,-761 506.06,-773.1 551.95,-792.93 584.84,-808.4"/>
<polygon fill="black" stroke="black" points="583.64,-811.71 594.18,-812.85 586.65,-805.39 583.64,-811.71"/>
</g>
<!-- N54 -->
<g id="node40" class="node">
<title>N54</title>
<polygon fill="#406ae1" stroke="#406ae1" points="400.9,-2888.54 400.9,-2903.46 309.84,-2914 181.07,-2914 90.01,-2903.46 90.01,-2888.54 181.07,-2878 309.84,-2878 400.9,-2888.54"/>
<polygon fill="none" stroke="#406ae1" points="404.9,-2884.98 404.9,-2907.02 310.08,-2918 180.84,-2918 86.01,-2907.02 86.01,-2884.98 180.84,-2874 310.08,-2874 404.9,-2884.98"/>
<polygon fill="none" stroke="#406ae1" points="408.9,-2881.42 408.9,-2910.58 310.31,-2922 180.61,-2922 82.01,-2910.58 82.01,-2881.42 180.61,-2870 310.31,-2870 408.9,-2881.42"/>
<text text-anchor="middle" x="245.46" y="-2892.3" font-family="Roboto" font-size="14.00" fill="#ffffff">nvidia&#45;settings&#45;440.82 (1.70 MiB)</text>
</g>
<!-- N54&#45;&gt;N50 -->
<g id="edge29" class="edge">
<title>N54&#45;&gt;N50</title>
<path fill="none" stroke="black" d="M245.46,-2869.68C245.46,-2867.23 245.46,-2864.78 245.46,-2862.33"/>
<polygon fill="black" stroke="black" points="248.96,-2862.25 245.46,-2852.25 241.96,-2862.25 248.96,-2862.25"/>
</g>
<!-- N5 -->
<g id="node42" class="node">
<title>N5</title>
<polygon fill="#3ce6ec" stroke="#3ce6ec" points="455.65,-3098.54 455.65,-3113.46 332.52,-3124 158.39,-3124 35.26,-3113.46 35.26,-3098.54 158.39,-3088 332.52,-3088 455.65,-3098.54"/>
<polygon fill="none" stroke="#3ce6ec" points="459.65,-3094.87 459.65,-3117.13 332.69,-3128 158.22,-3128 31.27,-3117.13 31.27,-3094.87 158.22,-3084 332.69,-3084 459.65,-3094.87"/>
<polygon fill="none" stroke="#3ce6ec" points="463.65,-3091.2 463.65,-3120.8 332.86,-3132 158.05,-3132 27.27,-3120.8 27.27,-3091.2 158.05,-3080 332.86,-3080 463.65,-3091.2"/>
<text text-anchor="middle" x="245.46" y="-3102.3" font-family="Roboto" font-size="14.00" fill="#000000">spotify&#45;1.1.26.501.gbe11e53b&#45;15 (272.57 MiB)</text>
</g>
<!-- N55 -->
<g id="node43" class="node">
<title>N55</title>
<polygon fill="#4069e1" stroke="#4069e1" points="369.99,-298.54 369.99,-313.46 297.04,-324 193.87,-324 120.92,-313.46 120.92,-298.54 193.87,-288 297.04,-288 369.99,-298.54"/>
<polygon fill="none" stroke="#4069e1" points="373.99,-295.08 373.99,-316.92 297.33,-328 193.59,-328 116.92,-316.92 116.92,-295.08 193.59,-284 297.33,-284 373.99,-295.08"/>
<polygon fill="none" stroke="#4069e1" points="377.99,-291.62 377.99,-320.38 297.62,-332 193.3,-332 112.92,-320.38 112.92,-291.62 193.3,-280 297.62,-280 377.99,-291.62"/>
<text text-anchor="middle" x="245.46" y="-302.3" font-family="Roboto" font-size="14.00" fill="#ffffff">arandr&#45;0.1.10 (204.32 KiB)</text>
</g>
<!-- N55&#45;&gt;N37 -->
<g id="edge30" class="edge">
<title>N55&#45;&gt;N37</title>
<path fill="none" stroke="black" d="M377.98,-318.46C406.83,-323.58 436.81,-330.8 463.8,-341 515.45,-360.51 568.22,-397.21 600.13,-421.64"/>
<polygon fill="black" stroke="black" points="598.12,-424.51 608.17,-427.87 602.41,-418.98 598.12,-424.51"/>
</g>
<!-- N4 -->
<g id="node44" class="node">
<title>N4</title>
<polygon fill="#36f788" stroke="#36f788" points="377.48,-3168.54 377.48,-3183.46 300.14,-3194 190.77,-3194 113.43,-3183.46 113.43,-3168.54 190.77,-3158 300.14,-3158 377.48,-3168.54"/>
<polygon fill="none" stroke="#36f788" points="381.48,-3165.05 381.48,-3186.95 300.41,-3198 190.5,-3198 109.44,-3186.95 109.44,-3165.05 190.5,-3154 300.41,-3154 381.48,-3165.05"/>
<polygon fill="none" stroke="#36f788" points="385.47,-3161.56 385.47,-3190.44 300.69,-3202 190.23,-3202 105.44,-3190.44 105.44,-3161.56 190.23,-3150 300.69,-3150 385.47,-3161.56"/>
<text text-anchor="middle" x="245.46" y="-3172.3" font-family="Roboto" font-size="14.00" fill="#000000">arduino&#45;1.8.12 (549.82 MiB)</text>
</g>
<!-- N3 -->
<g id="node45" class="node">
<title>N3</title>
<polygon fill="#3af0d8" stroke="#3af0d8" points="352.32,-3238.54 352.32,-3253.46 289.72,-3264 201.19,-3264 138.59,-3253.46 138.59,-3238.54 201.19,-3228 289.72,-3228 352.32,-3238.54"/>
<polygon fill="none" stroke="#3af0d8" points="356.32,-3235.16 356.32,-3256.84 290.06,-3268 200.86,-3268 134.59,-3256.84 134.59,-3235.16 200.86,-3224 290.06,-3224 356.32,-3235.16"/>
<polygon fill="none" stroke="#3af0d8" points="360.32,-3231.78 360.32,-3260.22 290.39,-3272 200.52,-3272 130.6,-3260.22 130.6,-3231.78 200.52,-3220 290.39,-3220 360.32,-3231.78"/>
<text text-anchor="middle" x="245.46" y="-3242.3" font-family="Roboto" font-size="14.00" fill="#000000">ino&#45;0.3.6 (365.73 MiB)</text>
</g>
<!-- N1 -->
<g id="node47" class="node">
<title>N1</title>
<polygon fill="#3fb1e6" stroke="#3fb1e6" points="371.31,-228.54 371.31,-243.46 297.59,-254 193.33,-254 119.6,-243.46 119.6,-228.54 193.33,-218 297.59,-218 371.31,-228.54"/>
<polygon fill="none" stroke="#3fb1e6" points="375.31,-225.08 375.31,-246.92 297.87,-258 193.04,-258 115.6,-246.92 115.6,-225.08 193.04,-214 297.87,-214 375.31,-225.08"/>
<polygon fill="none" stroke="#3fb1e6" points="379.31,-221.61 379.31,-250.39 298.16,-262 192.76,-262 111.61,-250.39 111.61,-221.61 192.76,-210 298.16,-210 379.31,-221.61"/>
<text text-anchor="middle" x="245.46" y="-232.3" font-family="Roboto" font-size="14.00" fill="#ffffff">gimp&#45;2.10.20 (135.01 MiB)</text>
</g>
<!-- N1&#45;&gt;N40 -->
<g id="edge32" class="edge">
<title>N1&#45;&gt;N40</title>
<path fill="none" stroke="black" d="M360,-218.76C393.49,-213.39 430.17,-207.24 463.8,-201 490.46,-196.06 519.4,-190.16 545.56,-184.63"/>
<polygon fill="black" stroke="black" points="546.39,-188.03 555.44,-182.53 544.93,-181.18 546.39,-188.03"/>
</g>
<!-- N1&#45;&gt;N37 -->
<g id="edge31" class="edge">
<title>N1&#45;&gt;N37</title>
<path fill="none" stroke="black" d="M379.31,-243.44C408.31,-248.82 438.02,-257.41 463.8,-271 531.12,-306.47 586.66,-379.58 613.29,-419.15"/>
<polygon fill="black" stroke="black" points="610.7,-421.57 619.13,-427.98 616.54,-417.71 610.7,-421.57"/>
</g>
</g>
</svg>
