<?xml version="1.0" encoding="UTF-8" standalone="no"?>
<!DOCTYPE svg PUBLIC "-//W3C//DTD SVG 1.1//EN"
 "http://www.w3.org/Graphics/SVG/1.1/DTD/svg11.dtd">
<!-- Generated by graphviz version 2.43.0 (0)
 -->
<!-- Title: nixstore Pages: 1 -->
<svg width="749pt" height="2230pt"
 viewBox="0.00 0.00 749.35 2230.00" xmlns="http://www.w3.org/2000/svg" xmlns:xlink="http://www.w3.org/1999/xlink">
<g id="graph0" class="graph" transform="scale(1 1) rotate(0) translate(4 2226)">
<title>nixstore</title>
<polygon fill="white" stroke="transparent" points="-4,4 -4,-2226 745.35,-2226 745.35,4 -4,4"/>
<!-- N37 -->
<g id="node1" class="node">
<title>N37</title>
<polygon fill="#fe0000" stroke="#fe0000" points="335.97,-18.54 335.97,-33.46 270.78,-44 178.58,-44 113.38,-33.46 113.38,-18.54 178.58,-8 270.78,-8 335.97,-18.54"/>
<polygon fill="none" stroke="#fe0000" points="339.97,-15.14 339.97,-36.86 271.1,-48 178.25,-48 109.38,-36.86 109.38,-15.14 178.25,-4 271.1,-4 339.97,-15.14"/>
<polygon fill="none" stroke="#fe0000" points="343.98,-11.74 343.98,-40.26 271.42,-52 177.93,-52 105.37,-40.26 105.37,-11.74 177.93,0 271.42,0 343.98,-11.74"/>
<text text-anchor="middle" x="224.68" y="-22.3" font-family="Roboto" font-size="14.00" fill="#000000">{filtered out} (2.22 GiB)</text>
</g>
<!-- N26 -->
<g id="node2" class="node">
<title>N26</title>
<polygon fill="#3ecfe9" stroke="#3ecfe9" points="373.05,-438.54 373.05,-453.46 286.14,-464 163.22,-464 76.3,-453.46 76.3,-438.54 163.22,-428 286.14,-428 373.05,-438.54"/>
<polygon fill="none" stroke="#3ecfe9" points="377.05,-435 377.05,-457 286.38,-468 162.97,-468 72.3,-457 72.3,-435 162.97,-424 286.38,-424 377.05,-435"/>
<polygon fill="none" stroke="#3ecfe9" points="381.05,-431.46 381.05,-460.54 286.62,-472 162.73,-472 68.3,-460.54 68.3,-431.46 162.73,-420 286.62,-420 381.05,-431.46"/>
<text text-anchor="middle" x="224.68" y="-442.3" font-family="Roboto" font-size="14.00" fill="#000000">virt&#45;manager&#45;2.2.1 (207.55 MiB)</text>
</g>
<!-- N21 -->
<g id="node33" class="node">
<title>N21</title>
<polygon fill="#36f68e" stroke="#36f68e" points="712.35,-359 514.35,-359 514.35,-323 712.35,-323 712.35,-359"/>
<text text-anchor="middle" x="613.35" y="-337.3" font-family="Roboto" font-size="14.00" fill="#000000">cairo&#45;1.16.0&#45;dev (535.52 MiB)</text>
</g>
<!-- N26&#45;&gt;N21 -->
<g id="edge1" class="edge">
<title>N26&#45;&gt;N21</title>
<path fill="none" stroke="black" d="M365.86,-429.58C393.8,-424.77 422.72,-418.67 449.35,-411 490.97,-399.01 536.05,-379.08 568.23,-363.54"/>
<polygon fill="black" stroke="black" points="569.91,-366.61 577.36,-359.08 566.84,-360.32 569.91,-366.61"/>
</g>
<!-- N27 -->
<g id="node3" class="node">
<title>N27</title>
<polygon fill="#4080e2" stroke="#4080e2" points="344.78,-788.54 344.78,-803.46 274.43,-814 174.93,-814 104.57,-803.46 104.57,-788.54 174.93,-778 274.43,-778 344.78,-788.54"/>
<polygon fill="none" stroke="#4080e2" points="348.78,-785.1 348.78,-806.9 274.72,-818 174.63,-818 100.57,-806.9 100.57,-785.1 174.63,-774 274.72,-774 348.78,-785.1"/>
<polygon fill="none" stroke="#4080e2" points="352.77,-781.65 352.77,-810.35 275.02,-822 174.33,-822 96.58,-810.35 96.58,-781.65 174.33,-770 275.02,-770 352.77,-781.65"/>
<text text-anchor="middle" x="224.68" y="-792.3" font-family="Roboto" font-size="14.00" fill="#ffffff">polybar&#45;3.4.3 (35.54 MiB)</text>
</g>
<!-- N24 -->
<g id="node34" class="node">
<title>N24</title>
<polygon fill="#3fb3e6" stroke="#3fb3e6" points="690.85,-674 535.85,-674 535.85,-638 690.85,-638 690.85,-674"/>
<text text-anchor="middle" x="613.35" y="-652.3" font-family="Roboto" font-size="14.00" fill="#ffffff">gcc&#45;9.3.0 (136.80 MiB)</text>
</g>
<!-- N27&#45;&gt;N24 -->
<g id="edge2" class="edge">
<title>N27&#45;&gt;N24</title>
<path fill="none" stroke="black" d="M352.87,-785.46C385.04,-780.27 419.05,-772.54 449.35,-761 500.18,-741.65 551.77,-704.9 582.92,-680.43"/>
<polygon fill="black" stroke="black" points="585.12,-683.15 590.77,-674.18 580.76,-677.67 585.12,-683.15"/>
</g>
<!-- N20 -->
<g id="node4" class="node">
<title>N20</title>
<polygon fill="#3dd4ea" stroke="#3dd4ea" points="408.39,-928.54 408.39,-943.46 300.77,-954 148.58,-954 40.96,-943.46 40.96,-928.54 148.58,-918 300.77,-918 408.39,-928.54"/>
<polygon fill="none" stroke="#3dd4ea" points="412.4,-924.92 412.4,-947.08 300.97,-958 148.38,-958 36.95,-947.08 36.95,-924.92 148.38,-914 300.97,-914 412.4,-924.92"/>
<polygon fill="none" stroke="#3dd4ea" points="416.4,-921.29 416.4,-950.71 301.17,-962 148.19,-962 32.95,-950.71 32.95,-921.29 148.19,-910 301.17,-910 416.4,-921.29"/>
<text text-anchor="middle" x="224.68" y="-932.3" font-family="Roboto" font-size="14.00" fill="#000000">tor&#45;browser&#45;bundle&#45;bin&#45;9.5 (222.12 MiB)</text>
</g>
<!-- N18 -->
<g id="node8" class="node">
<title>N18</title>
<polygon fill="#3dd0e9" stroke="#3dd0e9" points="371.73,-858.54 371.73,-873.46 285.59,-884 163.76,-884 77.62,-873.46 77.62,-858.54 163.76,-848 285.59,-848 371.73,-858.54"/>
<polygon fill="none" stroke="#3dd0e9" points="375.73,-855 375.73,-877 285.83,-888 163.52,-888 73.62,-877 73.62,-855 163.52,-844 285.83,-844 375.73,-855"/>
<polygon fill="none" stroke="#3dd0e9" points="379.74,-851.46 379.74,-880.54 286.08,-892 163.27,-892 69.62,-880.54 69.62,-851.46 163.27,-840 286.08,-840 379.74,-851.46"/>
<text text-anchor="middle" x="224.68" y="-862.3" font-family="Roboto" font-size="14.00" fill="#000000">glibc&#45;locales&#45;2.30 (209.50 MiB)</text>
</g>
<!-- N20&#45;&gt;N18 -->
<g id="edge3" class="edge">
<title>N20&#45;&gt;N18</title>
<path fill="none" stroke="black" d="M224.68,-909.68C224.68,-907.23 224.68,-904.78 224.68,-902.33"/>
<polygon fill="black" stroke="black" points="228.18,-902.25 224.68,-892.25 221.18,-902.25 228.18,-902.25"/>
</g>
<!-- N19 -->
<g id="node5" class="node">
<title>N19</title>
<polygon fill="#37f59c" stroke="#37f59c" points="351.43,-998.54 351.43,-1013.46 277.18,-1024 172.17,-1024 97.93,-1013.46 97.93,-998.54 172.17,-988 277.18,-988 351.43,-998.54"/>
<polygon fill="none" stroke="#37f59c" points="355.43,-995.07 355.43,-1016.93 277.46,-1028 171.89,-1028 93.92,-1016.93 93.92,-995.07 171.89,-984 277.46,-984 355.43,-995.07"/>
<polygon fill="none" stroke="#37f59c" points="359.43,-991.6 359.43,-1020.4 277.74,-1032 171.61,-1032 89.92,-1020.4 89.92,-991.6 171.61,-980 277.74,-980 359.43,-991.6"/>
<text text-anchor="middle" x="224.68" y="-1002.3" font-family="Roboto" font-size="14.00" fill="#000000">arduino&#45;1.8.9 (511.63 MiB)</text>
</g>
<!-- N28 -->
<g id="node6" class="node">
<title>N28</title>
<polygon fill="#406ce1" stroke="#406ce1" points="342.14,-718.54 342.14,-733.46 273.33,-744 176.02,-744 107.21,-733.46 107.21,-718.54 176.02,-708 273.33,-708 342.14,-718.54"/>
<polygon fill="none" stroke="#406ce1" points="346.14,-715.11 346.14,-736.89 273.64,-748 175.71,-748 103.21,-736.89 103.21,-715.11 175.71,-704 273.64,-704 346.14,-715.11"/>
<polygon fill="none" stroke="#406ce1" points="350.14,-711.68 350.14,-740.32 273.94,-752 175.41,-752 99.21,-740.32 99.21,-711.68 175.41,-700 273.94,-700 350.14,-711.68"/>
<text text-anchor="middle" x="224.68" y="-722.3" font-family="Roboto" font-size="14.00" fill="#ffffff">nethack&#45;3.6.6 (4.58 MiB)</text>
</g>
<!-- N28&#45;&gt;N24 -->
<g id="edge4" class="edge">
<title>N28&#45;&gt;N24</title>
<path fill="none" stroke="black" d="M337.67,-709.74C373.43,-704.21 413.12,-697.72 449.35,-691 474.24,-686.38 501.14,-680.84 525.78,-675.54"/>
<polygon fill="black" stroke="black" points="526.8,-678.9 535.83,-673.36 525.31,-672.06 526.8,-678.9"/>
</g>
<!-- N29 -->
<g id="node7" class="node">
<title>N29</title>
<polygon fill="#3fa0e5" stroke="#3fa0e5" points="344.78,-648.54 344.78,-663.46 274.43,-674 174.93,-674 104.57,-663.46 104.57,-648.54 174.93,-638 274.43,-638 344.78,-648.54"/>
<polygon fill="none" stroke="#3fa0e5" points="348.78,-645.1 348.78,-666.9 274.72,-678 174.63,-678 100.57,-666.9 100.57,-645.1 174.63,-634 274.72,-634 348.78,-645.1"/>
<polygon fill="none" stroke="#3fa0e5" points="352.77,-641.65 352.77,-670.35 275.02,-682 174.33,-682 96.58,-670.35 96.58,-641.65 174.33,-630 275.02,-630 352.77,-641.65"/>
<text text-anchor="middle" x="224.68" y="-652.3" font-family="Roboto" font-size="14.00" fill="#ffffff">neovim&#45;0.4.3 (96.24 MiB)</text>
</g>
<!-- N29&#45;&gt;N24 -->
<g id="edge5" class="edge">
<title>N29&#45;&gt;N24</title>
<path fill="none" stroke="black" d="M352.82,-656C409.35,-656 474.47,-656 525.33,-656"/>
<polygon fill="black" stroke="black" points="525.63,-659.5 535.63,-656 525.63,-652.5 525.63,-659.5"/>
</g>
<!-- N17 -->
<g id="node9" class="node">
<title>N17</title>
<polygon fill="#3dd0e9" stroke="#3dd0e9" points="362.45,-158.54 362.45,-173.46 281.74,-184 167.61,-184 86.9,-173.46 86.9,-158.54 167.61,-148 281.74,-148 362.45,-158.54"/>
<polygon fill="none" stroke="#3dd0e9" points="366.45,-155.03 366.45,-176.97 282,-188 167.35,-188 82.9,-176.97 82.9,-155.03 167.35,-144 282,-144 366.45,-155.03"/>
<polygon fill="none" stroke="#3dd0e9" points="370.44,-151.52 370.44,-180.48 282.26,-192 167.09,-192 78.91,-180.48 78.91,-151.52 167.09,-140 282.26,-140 370.44,-151.52"/>
<text text-anchor="middle" x="224.68" y="-162.3" font-family="Roboto" font-size="14.00" fill="#000000">inkscape&#45;0.92.5 (210.71 MiB)</text>
</g>
<!-- N25 -->
<g id="node35" class="node">
<title>N25</title>
<polygon fill="#3fb6e7" stroke="#3fb6e7" points="688.85,-184 537.85,-184 537.85,-148 688.85,-148 688.85,-184"/>
<text text-anchor="middle" x="613.35" y="-162.3" font-family="Roboto" font-size="14.00" fill="#ffffff">lapack&#45;3 (143.49 MiB)</text>
</g>
<!-- N17&#45;&gt;N25 -->
<g id="edge6" class="edge">
<title>N17&#45;&gt;N25</title>
<path fill="none" stroke="black" d="M370.48,-166C423.41,-166 481.52,-166 527.51,-166"/>
<polygon fill="black" stroke="black" points="527.73,-169.5 537.73,-166 527.73,-162.5 527.73,-169.5"/>
</g>
<!-- N16 -->
<g id="node10" class="node">
<title>N16</title>
<polygon fill="#3fa8e5" stroke="#3fa8e5" points="395.58,-1068.54 395.58,-1083.46 295.46,-1094 153.89,-1094 53.78,-1083.46 53.78,-1068.54 153.89,-1058 295.46,-1058 395.58,-1068.54"/>
<polygon fill="none" stroke="#3fa8e5" points="399.57,-1064.94 399.57,-1087.06 295.67,-1098 153.68,-1098 49.78,-1087.06 49.78,-1064.94 153.68,-1054 295.67,-1054 399.57,-1064.94"/>
<polygon fill="none" stroke="#3fa8e5" points="403.57,-1061.34 403.57,-1090.66 295.88,-1102 153.47,-1102 45.78,-1090.66 45.78,-1061.34 153.47,-1050 295.88,-1050 403.57,-1061.34"/>
<text text-anchor="middle" x="224.68" y="-1072.3" font-family="Roboto" font-size="14.00" fill="#ffffff">mpv&#45;with&#45;scripts&#45;0.32.0 (112.96 MiB)</text>
</g>
<!-- N15 -->
<g id="node11" class="node">
<title>N15</title>
<polygon fill="#3eb9e7" stroke="#3eb9e7" points="353.64,-1208.54 353.64,-1223.46 278.09,-1234 171.26,-1234 95.71,-1223.46 95.71,-1208.54 171.26,-1198 278.09,-1198 353.64,-1208.54"/>
<polygon fill="none" stroke="#3eb9e7" points="357.65,-1205.06 357.65,-1226.94 278.37,-1238 170.98,-1238 91.7,-1226.94 91.7,-1205.06 170.98,-1194 278.37,-1194 357.65,-1205.06"/>
<polygon fill="none" stroke="#3eb9e7" points="361.65,-1201.58 361.65,-1230.42 278.65,-1242 170.7,-1242 87.7,-1230.42 87.7,-1201.58 170.7,-1190 278.65,-1190 361.65,-1201.58"/>
<text text-anchor="middle" x="224.68" y="-1212.3" font-family="Roboto" font-size="14.00" fill="#000000">fritzing&#45;0.9.3b (151.31 MiB)</text>
</g>
<!-- N23 -->
<g id="node36" class="node">
<title>N23</title>
<polygon fill="#3fb6e7" stroke="#3fb6e7" points="702.35,-1199 524.35,-1199 524.35,-1163 702.35,-1163 702.35,-1199"/>
<text text-anchor="middle" x="613.35" y="-1177.3" font-family="Roboto" font-size="14.00" fill="#000000">bash&#45;4.4&#45;p23 (145.06 MiB)</text>
</g>
<!-- N15&#45;&gt;N23 -->
<g id="edge7" class="edge">
<title>N15&#45;&gt;N23</title>
<path fill="none" stroke="black" d="M361.46,-1203.71C411.74,-1199.16 467.73,-1194.09 514.04,-1189.9"/>
<polygon fill="black" stroke="black" points="514.43,-1193.38 524.07,-1188.99 513.8,-1186.41 514.43,-1193.38"/>
</g>
<!-- N14 -->
<g id="node12" class="node">
<title>N14</title>
<polygon fill="#3de3ec" stroke="#3de3ec" points="404.86,-1278.54 404.86,-1293.46 299.31,-1304 150.04,-1304 44.49,-1293.46 44.49,-1278.54 150.04,-1268 299.31,-1268 404.86,-1278.54"/>
<polygon fill="none" stroke="#3de3ec" points="408.86,-1274.92 408.86,-1297.08 299.51,-1308 149.84,-1308 40.49,-1297.08 40.49,-1274.92 149.84,-1264 299.51,-1264 408.86,-1274.92"/>
<polygon fill="none" stroke="#3de3ec" points="412.86,-1271.3 412.86,-1300.7 299.71,-1312 149.64,-1312 36.49,-1300.7 36.49,-1271.3 149.64,-1260 299.71,-1260 412.86,-1271.3"/>
<text text-anchor="middle" x="224.68" y="-1282.3" font-family="Roboto" font-size="14.00" fill="#000000">qemu&#45;host&#45;cpu&#45;only&#45;4.2.0 (263.68 MiB)</text>
</g>
<!-- N13 -->
<g id="node13" class="node">
<title>N13</title>
<polygon fill="#3dd3ea" stroke="#3dd3ea" points="441.52,-1348.54 441.52,-1363.46 314.5,-1374 134.86,-1374 7.83,-1363.46 7.83,-1348.54 134.86,-1338 314.5,-1338 441.52,-1348.54"/>
<polygon fill="none" stroke="#3dd3ea" points="445.52,-1344.86 445.52,-1367.14 314.66,-1378 134.69,-1378 3.83,-1367.14 3.83,-1344.86 134.69,-1334 314.66,-1334 445.52,-1344.86"/>
<polygon fill="none" stroke="#3dd3ea" points="449.53,-1341.18 449.53,-1370.82 314.83,-1382 134.52,-1382 -0.18,-1370.82 -0.18,-1341.18 134.52,-1330 314.83,-1330 449.53,-1341.18"/>
<text text-anchor="middle" x="224.68" y="-1352.3" font-family="Roboto" font-size="14.00" fill="#000000">firefox&#45;beta&#45;bin&#45;unwrapped&#45;77.0b7 (217.99 MiB)</text>
</g>
<!-- N31 -->
<g id="node14" class="node">
<title>N31</title>
<polygon fill="#406ae1" stroke="#406ae1" points="384.97,-1628.54 384.97,-1643.46 291.07,-1654 158.28,-1654 64.38,-1643.46 64.38,-1628.54 158.28,-1618 291.07,-1618 384.97,-1628.54"/>
<polygon fill="none" stroke="#406ae1" points="388.97,-1624.97 388.97,-1647.03 291.3,-1658 158.05,-1658 60.38,-1647.03 60.38,-1624.97 158.05,-1614 291.3,-1614 388.97,-1624.97"/>
<polygon fill="none" stroke="#406ae1" points="392.97,-1621.39 392.97,-1650.61 291.52,-1662 157.83,-1662 56.38,-1650.61 56.38,-1621.39 157.83,-1610 291.52,-1610 392.97,-1621.39"/>
<text text-anchor="middle" x="224.68" y="-1632.3" font-family="Roboto" font-size="14.00" fill="#ffffff">nvidia&#45;settings&#45;390.132 (1.67 MiB)</text>
</g>
<!-- N30 -->
<g id="node20" class="node">
<title>N30</title>
<polygon fill="#4087e3" stroke="#4087e3" points="415.46,-1558.54 415.46,-1573.46 303.7,-1584 145.65,-1584 33.89,-1573.46 33.89,-1558.54 145.65,-1548 303.7,-1548 415.46,-1558.54"/>
<polygon fill="none" stroke="#4087e3" points="419.47,-1554.9 419.47,-1577.1 303.89,-1588 145.46,-1588 29.89,-1577.1 29.89,-1554.9 145.46,-1544 303.89,-1544 419.47,-1554.9"/>
<polygon fill="none" stroke="#4087e3" points="423.47,-1551.26 423.47,-1580.74 304.08,-1592 145.27,-1592 25.88,-1580.74 25.88,-1551.26 145.27,-1540 304.08,-1540 423.47,-1551.26"/>
<text text-anchor="middle" x="224.68" y="-1562.3" font-family="Roboto" font-size="14.00" fill="#ffffff">nvidia&#45;x11&#45;390.132&#45;5.4.44&#45;bin (46.91 MiB)</text>
</g>
<!-- N31&#45;&gt;N30 -->
<g id="edge8" class="edge">
<title>N31&#45;&gt;N30</title>
<path fill="none" stroke="black" d="M224.68,-1609.68C224.68,-1607.23 224.68,-1604.78 224.68,-1602.33"/>
<polygon fill="black" stroke="black" points="228.18,-1602.25 224.68,-1592.25 221.18,-1602.25 228.18,-1602.25"/>
</g>
<!-- N12 -->
<g id="node15" class="node">
<title>N12</title>
<polygon fill="#3ce9ec" stroke="#3ce9ec" points="430.92,-1698.54 430.92,-1713.46 310.1,-1724 139.25,-1724 18.43,-1713.46 18.43,-1698.54 139.25,-1688 310.1,-1688 430.92,-1698.54"/>
<polygon fill="none" stroke="#3ce9ec" points="434.92,-1694.88 434.92,-1717.12 310.28,-1728 139.07,-1728 14.43,-1717.12 14.43,-1694.88 139.07,-1684 310.28,-1684 434.92,-1694.88"/>
<polygon fill="none" stroke="#3ce9ec" points="438.92,-1691.21 438.92,-1720.79 310.45,-1732 138.9,-1732 10.43,-1720.79 10.43,-1691.21 138.9,-1680 310.45,-1680 438.92,-1691.21"/>
<text text-anchor="middle" x="224.68" y="-1702.3" font-family="Roboto" font-size="14.00" fill="#000000">spotifywm&#45;unstable&#45;2016&#45;11&#45;28 (279.08 MiB)</text>
</g>
<!-- N11 -->
<g id="node16" class="node">
<title>N11</title>
<polygon fill="#3ce4ec" stroke="#3ce4ec" points="353.64,-88.54 353.64,-103.46 278.09,-114 171.26,-114 95.71,-103.46 95.71,-88.54 171.26,-78 278.09,-78 353.64,-88.54"/>
<polygon fill="none" stroke="#3ce4ec" points="357.65,-85.06 357.65,-106.94 278.37,-118 170.98,-118 91.7,-106.94 91.7,-85.06 170.98,-74 278.37,-74 357.65,-85.06"/>
<polygon fill="none" stroke="#3ce4ec" points="361.65,-81.58 361.65,-110.42 278.65,-122 170.7,-122 87.7,-110.42 87.7,-81.58 170.7,-70 278.65,-70 361.65,-81.58"/>
<text text-anchor="middle" x="224.68" y="-92.3" font-family="Roboto" font-size="14.00" fill="#000000">blender&#45;2.82a (264.92 MiB)</text>
</g>
<!-- N11&#45;&gt;N25 -->
<g id="edge9" class="edge">
<title>N11&#45;&gt;N25</title>
<path fill="none" stroke="black" d="M342.85,-113.06C377.23,-118.41 414.86,-124.6 449.35,-131 474.85,-135.73 502.47,-141.44 527.6,-146.86"/>
<polygon fill="black" stroke="black" points="526.95,-150.3 537.47,-149 528.44,-143.46 526.95,-150.3"/>
</g>
<!-- N10 -->
<g id="node17" class="node">
<title>N10</title>
<polygon fill="#3ecde9" stroke="#3ecde9" points="346.57,-1768.54 346.57,-1783.46 275.17,-1794 174.18,-1794 102.78,-1783.46 102.78,-1768.54 174.18,-1758 275.17,-1758 346.57,-1768.54"/>
<polygon fill="none" stroke="#3ecde9" points="350.58,-1765.09 350.58,-1786.91 275.46,-1798 173.89,-1798 98.77,-1786.91 98.77,-1765.09 173.89,-1754 275.46,-1754 350.58,-1765.09"/>
<polygon fill="none" stroke="#3ecde9" points="354.58,-1761.64 354.58,-1790.36 275.76,-1802 173.6,-1802 94.77,-1790.36 94.77,-1761.64 173.6,-1750 275.76,-1750 354.58,-1761.64"/>
<text text-anchor="middle" x="224.68" y="-1772.3" font-family="Roboto" font-size="14.00" fill="#000000">astroid&#45;0.15 (202.72 MiB)</text>
</g>
<!-- N9 -->
<g id="node18" class="node">
<title>N9</title>
<polygon fill="#38f4ad" stroke="#38f4ad" points="337.29,-1138.54 337.29,-1153.46 271.32,-1164 178.03,-1164 112.06,-1153.46 112.06,-1138.54 178.03,-1128 271.32,-1128 337.29,-1138.54"/>
<polygon fill="none" stroke="#38f4ad" points="341.29,-1135.13 341.29,-1156.87 271.64,-1168 177.71,-1168 108.06,-1156.87 108.06,-1135.13 177.71,-1124 271.64,-1124 341.29,-1135.13"/>
<polygon fill="none" stroke="#38f4ad" points="345.29,-1131.72 345.29,-1160.28 271.96,-1172 177.39,-1172 104.06,-1160.28 104.06,-1131.72 177.39,-1120 271.96,-1120 345.29,-1131.72"/>
<text text-anchor="middle" x="224.68" y="-1142.3" font-family="Roboto" font-size="14.00" fill="#000000">cura&#45;4.4.0 (477.62 MiB)</text>
</g>
<!-- N9&#45;&gt;N23 -->
<g id="edge10" class="edge">
<title>N9&#45;&gt;N23</title>
<path fill="none" stroke="black" d="M345.37,-1156.83C399.54,-1161.74 462.78,-1167.46 514.11,-1172.11"/>
<polygon fill="black" stroke="black" points="513.93,-1175.61 524.21,-1173.02 514.56,-1168.63 513.93,-1175.61"/>
</g>
<!-- N8 -->
<g id="node19" class="node">
<title>N8</title>
<polygon fill="#3ddfeb" stroke="#3ddfeb" points="336.4,-1838.54 336.4,-1853.46 270.95,-1864 178.4,-1864 112.96,-1853.46 112.96,-1838.54 178.4,-1828 270.95,-1828 336.4,-1838.54"/>
<polygon fill="none" stroke="#3ddfeb" points="340.39,-1835.14 340.39,-1856.86 271.27,-1868 178.08,-1868 108.96,-1856.86 108.96,-1835.14 178.08,-1824 271.27,-1824 340.39,-1835.14"/>
<polygon fill="none" stroke="#3ddfeb" points="344.39,-1831.73 344.39,-1860.27 271.59,-1872 177.76,-1872 104.96,-1860.27 104.96,-1831.73 177.76,-1820 271.59,-1820 344.39,-1831.73"/>
<text text-anchor="middle" x="224.68" y="-1842.3" font-family="Roboto" font-size="14.00" fill="#000000">X11&#45;fonts (250.60 MiB)</text>
</g>
<!-- N22 -->
<g id="node37" class="node">
<title>N22</title>
<polygon fill="#3fb5e7" stroke="#3fb5e7" points="741.35,-1549 485.35,-1549 485.35,-1513 741.35,-1513 741.35,-1549"/>
<text text-anchor="middle" x="613.35" y="-1527.3" font-family="Roboto" font-size="14.00" fill="#ffffff">nvidia&#45;x11&#45;390.132&#45;5.4.44 (142.84 MiB)</text>
</g>
<!-- N30&#45;&gt;N22 -->
<g id="edge11" class="edge">
<title>N30&#45;&gt;N22</title>
<path fill="none" stroke="black" d="M406.56,-1549.63C429.57,-1547.54 452.82,-1545.44 474.99,-1543.43"/>
<polygon fill="black" stroke="black" points="475.45,-1546.91 485.1,-1542.52 474.82,-1539.93 475.45,-1546.91"/>
</g>
<!-- N32 -->
<g id="node21" class="node">
<title>N32</title>
<polygon fill="#4069e1" stroke="#4069e1" points="349.21,-368.54 349.21,-383.46 276.26,-394 173.09,-394 100.14,-383.46 100.14,-368.54 173.09,-358 276.26,-358 349.21,-368.54"/>
<polygon fill="none" stroke="#4069e1" points="353.21,-365.08 353.21,-386.92 276.55,-398 172.8,-398 96.14,-386.92 96.14,-365.08 172.8,-354 276.55,-354 353.21,-365.08"/>
<polygon fill="none" stroke="#4069e1" points="357.21,-361.62 357.21,-390.38 276.84,-402 172.52,-402 92.14,-390.38 92.14,-361.62 172.52,-350 276.84,-350 357.21,-361.62"/>
<text text-anchor="middle" x="224.68" y="-372.3" font-family="Roboto" font-size="14.00" fill="#ffffff">arandr&#45;0.1.10 (203.91 KiB)</text>
</g>
<!-- N32&#45;&gt;N21 -->
<g id="edge12" class="edge">
<title>N32&#45;&gt;N21</title>
<path fill="none" stroke="black" d="M357.4,-364.08C405.11,-359.76 458.42,-354.93 503.9,-350.82"/>
<polygon fill="black" stroke="black" points="504.44,-354.28 514.08,-349.89 503.81,-347.31 504.44,-354.28"/>
</g>
<!-- N7 -->
<g id="node22" class="node">
<title>N7</title>
<polygon fill="#3ebbe7" stroke="#3ebbe7" points="350.53,-228.54 350.53,-243.46 276.81,-254 172.54,-254 98.82,-243.46 98.82,-228.54 172.54,-218 276.81,-218 350.53,-228.54"/>
<polygon fill="none" stroke="#3ebbe7" points="354.53,-225.08 354.53,-246.92 277.09,-258 172.26,-258 94.82,-246.92 94.82,-225.08 172.26,-214 277.09,-214 354.53,-225.08"/>
<polygon fill="none" stroke="#3ebbe7" points="358.53,-221.61 358.53,-250.39 277.38,-262 171.98,-262 90.83,-250.39 90.83,-221.61 171.98,-210 277.38,-210 358.53,-221.61"/>
<text text-anchor="middle" x="224.68" y="-232.3" font-family="Roboto" font-size="14.00" fill="#000000">gimp&#45;2.10.18 (155.51 MiB)</text>
</g>
<!-- N7&#45;&gt;N21 -->
<g id="edge13" class="edge">
<title>N7&#45;&gt;N21</title>
<path fill="none" stroke="black" d="M356.1,-250.78C387,-255.83 419.61,-262.43 449.35,-271 490.97,-282.99 536.05,-302.92 568.23,-318.46"/>
<polygon fill="black" stroke="black" points="566.84,-321.68 577.36,-322.92 569.91,-315.39 566.84,-321.68"/>
</g>
<!-- N7&#45;&gt;N25 -->
<g id="edge14" class="edge">
<title>N7&#45;&gt;N25</title>
<path fill="none" stroke="black" d="M341.69,-219.12C376.39,-213.73 414.47,-207.47 449.35,-201 474.85,-196.27 502.47,-190.56 527.6,-185.14"/>
<polygon fill="black" stroke="black" points="528.44,-188.54 537.47,-183 526.95,-181.7 528.44,-188.54"/>
</g>
<!-- N6 -->
<g id="node23" class="node">
<title>N6</title>
<polygon fill="#3cede7" stroke="#3cede7" points="331.54,-1908.54 331.54,-1923.46 268.94,-1934 180.41,-1934 117.81,-1923.46 117.81,-1908.54 180.41,-1898 268.94,-1898 331.54,-1908.54"/>
<polygon fill="none" stroke="#3cede7" points="335.54,-1905.16 335.54,-1926.84 269.28,-1938 180.08,-1938 113.81,-1926.84 113.81,-1905.16 180.08,-1894 269.28,-1894 335.54,-1905.16"/>
<polygon fill="none" stroke="#3cede7" points="339.54,-1901.78 339.54,-1930.22 269.61,-1942 179.74,-1942 109.81,-1930.22 109.81,-1901.78 179.74,-1890 269.61,-1890 339.54,-1901.78"/>
<text text-anchor="middle" x="224.68" y="-1912.3" font-family="Roboto" font-size="14.00" fill="#000000">ino&#45;0.3.6 (310.71 MiB)</text>
</g>
<!-- N33 -->
<g id="node24" class="node">
<title>N33</title>
<polygon fill="#4169e1" stroke="#4169e1" points="415.46,-1488.54 415.46,-1503.46 303.7,-1514 145.65,-1514 33.89,-1503.46 33.89,-1488.54 145.65,-1478 303.7,-1478 415.46,-1488.54"/>
<polygon fill="none" stroke="#4169e1" points="419.47,-1484.9 419.47,-1507.1 303.89,-1518 145.46,-1518 29.89,-1507.1 29.89,-1484.9 145.46,-1474 303.89,-1474 419.47,-1484.9"/>
<polygon fill="none" stroke="#4169e1" points="423.47,-1481.26 423.47,-1510.74 304.08,-1522 145.27,-1522 25.88,-1510.74 25.88,-1481.26 145.27,-1470 304.08,-1470 423.47,-1481.26"/>
<text text-anchor="middle" x="224.68" y="-1492.3" font-family="Roboto" font-size="14.00" fill="#ffffff">nvidia&#45;persistenced&#45;390.132 (107.70 KiB)</text>
</g>
<!-- N33&#45;&gt;N22 -->
<g id="edge15" class="edge">
<title>N33&#45;&gt;N22</title>
<path fill="none" stroke="black" d="M406.56,-1512.37C429.57,-1514.46 452.82,-1516.56 474.99,-1518.57"/>
<polygon fill="black" stroke="black" points="474.82,-1522.07 485.1,-1519.48 475.45,-1515.09 474.82,-1522.07"/>
</g>
<!-- N5 -->
<g id="node25" class="node">
<title>N5</title>
<polygon fill="#3dd4ea" stroke="#3dd4ea" points="422.95,-1978.54 422.95,-1993.46 306.8,-2004 142.55,-2004 26.4,-1993.46 26.4,-1978.54 142.55,-1968 306.8,-1968 422.95,-1978.54"/>
<polygon fill="none" stroke="#3dd4ea" points="426.95,-1974.89 426.95,-1997.11 306.98,-2008 142.37,-2008 22.4,-1997.11 22.4,-1974.89 142.37,-1964 306.98,-1964 426.95,-1974.89"/>
<polygon fill="none" stroke="#3dd4ea" points="430.95,-1971.24 430.95,-2000.76 307.17,-2012 142.19,-2012 18.41,-2000.76 18.41,-1971.24 142.19,-1960 307.17,-1960 430.95,-1971.24"/>
<text text-anchor="middle" x="224.68" y="-1982.3" font-family="Roboto" font-size="14.00" fill="#000000">papirus&#45;icon&#45;theme&#45;20200430 (221.53 MiB)</text>
</g>
<!-- N4 -->
<g id="node26" class="node">
<title>N4</title>
<polygon fill="#3ebde7" stroke="#3ebde7" points="368.2,-2048.54 368.2,-2063.46 284.13,-2074 165.23,-2074 81.15,-2063.46 81.15,-2048.54 165.23,-2038 284.13,-2038 368.2,-2048.54"/>
<polygon fill="none" stroke="#3ebde7" points="372.2,-2045.01 372.2,-2066.99 284.38,-2078 164.98,-2078 77.15,-2066.99 77.15,-2045.01 164.98,-2034 284.38,-2034 372.2,-2045.01"/>
<polygon fill="none" stroke="#3ebde7" points="376.2,-2041.48 376.2,-2070.52 284.63,-2082 164.73,-2082 73.15,-2070.52 73.15,-2041.48 164.73,-2030 284.63,-2030 376.2,-2041.48"/>
<text text-anchor="middle" x="224.68" y="-2052.3" font-family="Roboto" font-size="14.00" fill="#000000">upwork&#45;5.3.3&#45;883 (161.57 MiB)</text>
</g>
<!-- N34 -->
<g id="node27" class="node">
<title>N34</title>
<polygon fill="#406be1" stroke="#406be1" points="356.7,-578.54 356.7,-593.46 279.36,-604 169.99,-604 92.65,-593.46 92.65,-578.54 169.99,-568 279.36,-568 356.7,-578.54"/>
<polygon fill="none" stroke="#406be1" points="360.7,-575.05 360.7,-596.95 279.63,-608 169.72,-608 88.66,-596.95 88.66,-575.05 169.72,-564 279.63,-564 360.7,-575.05"/>
<polygon fill="none" stroke="#406be1" points="364.69,-571.56 364.69,-600.44 279.9,-612 169.45,-612 84.66,-600.44 84.66,-571.56 169.45,-560 279.9,-560 364.69,-571.56"/>
<text text-anchor="middle" x="224.68" y="-582.3" font-family="Roboto" font-size="14.00" fill="#ffffff">neovim&#45;qt&#45;0.2.15 (3.81 MiB)</text>
</g>
<!-- N34&#45;&gt;N24 -->
<g id="edge16" class="edge">
<title>N34&#45;&gt;N24</title>
<path fill="none" stroke="black" d="M344.29,-603.29C378.28,-608.59 415.34,-614.69 449.35,-621 474.24,-625.62 501.14,-631.16 525.78,-636.46"/>
<polygon fill="black" stroke="black" points="525.31,-639.94 535.83,-638.64 526.8,-633.1 525.31,-639.94"/>
</g>
<!-- N3 -->
<g id="node28" class="node">
<title>N3</title>
<polygon fill="#3fa6e5" stroke="#3fa6e5" points="358.92,-2118.54 358.92,-2133.46 280.28,-2144 169.07,-2144 90.43,-2133.46 90.43,-2118.54 169.07,-2108 280.28,-2108 358.92,-2118.54"/>
<polygon fill="none" stroke="#3fa6e5" points="362.91,-2115.04 362.91,-2136.96 280.55,-2148 168.8,-2148 86.44,-2136.96 86.44,-2115.04 168.8,-2104 280.55,-2104 362.91,-2115.04"/>
<polygon fill="none" stroke="#3fa6e5" points="366.91,-2111.54 366.91,-2140.46 280.81,-2152 168.54,-2152 82.44,-2140.46 82.44,-2111.54 168.54,-2100 280.81,-2100 366.91,-2111.54"/>
<text text-anchor="middle" x="224.68" y="-2122.3" font-family="Roboto" font-size="14.00" fill="#ffffff">nomacs&#45;3.14.2 (108.73 MiB)</text>
</g>
<!-- N2 -->
<g id="node29" class="node">
<title>N2</title>
<polygon fill="#fe3800" stroke="#fe3800" points="407.08,-508.54 407.08,-523.46 300.23,-534 149.12,-534 42.27,-523.46 42.27,-508.54 149.12,-498 300.23,-498 407.08,-508.54"/>
<polygon fill="none" stroke="#fe3800" points="411.08,-504.92 411.08,-527.08 300.43,-538 148.93,-538 38.27,-527.08 38.27,-504.92 148.93,-494 300.43,-494 411.08,-504.92"/>
<polygon fill="none" stroke="#fe3800" points="415.09,-501.3 415.09,-530.7 300.62,-542 148.73,-542 34.27,-530.7 34.27,-501.3 148.73,-490 300.62,-490 415.09,-501.3"/>
<text text-anchor="middle" x="224.68" y="-512.3" font-family="Roboto" font-size="14.00" fill="#000000">xmonad&#45;with&#45;packages&#45;8.8.3 (2.17 GiB)</text>
</g>
<!-- N2&#45;&gt;N24 -->
<g id="edge17" class="edge">
<title>N2&#45;&gt;N24</title>
<path fill="none" stroke="black" d="M388.73,-533.34C409.48,-537.91 430.16,-543.69 449.35,-551 500.18,-570.35 551.77,-607.1 582.92,-631.57"/>
<polygon fill="black" stroke="black" points="580.76,-634.33 590.77,-637.82 585.12,-628.85 580.76,-634.33"/>
</g>
<!-- N35 -->
<g id="node30" class="node">
<title>N35</title>
<polygon fill="#406be1" stroke="#406be1" points="380.12,-1418.54 380.12,-1433.46 289.06,-1444 160.29,-1444 69.23,-1433.46 69.23,-1418.54 160.29,-1408 289.06,-1408 380.12,-1418.54"/>
<polygon fill="none" stroke="#406be1" points="384.12,-1414.98 384.12,-1437.02 289.29,-1448 160.06,-1448 65.23,-1437.02 65.23,-1414.98 160.06,-1404 289.29,-1404 384.12,-1414.98"/>
<polygon fill="none" stroke="#406be1" points="388.12,-1411.42 388.12,-1440.58 289.52,-1452 159.83,-1452 61.23,-1440.58 61.23,-1411.42 159.83,-1400 289.52,-1400 388.12,-1411.42"/>
<text text-anchor="middle" x="224.68" y="-1422.3" font-family="Roboto" font-size="14.00" fill="#ffffff">firefox&#45;beta&#45;bin&#45;77.0b7 (3.25 MiB)</text>
</g>
<!-- N35&#45;&gt;N13 -->
<g id="edge18" class="edge">
<title>N35&#45;&gt;N13</title>
<path fill="none" stroke="black" d="M224.68,-1399.68C224.68,-1397.23 224.68,-1394.78 224.68,-1392.33"/>
<polygon fill="black" stroke="black" points="228.18,-1392.25 224.68,-1382.25 221.18,-1392.25 228.18,-1392.25"/>
</g>
<!-- N1 -->
<g id="node31" class="node">
<title>N1</title>
<polygon fill="#3cede8" stroke="#3cede8" points="344.36,-2188.54 344.36,-2203.46 274.25,-2214 175.1,-2214 104.99,-2203.46 104.99,-2188.54 175.1,-2178 274.25,-2178 344.36,-2188.54"/>
<polygon fill="none" stroke="#3cede8" points="348.36,-2185.1 348.36,-2206.9 274.55,-2218 174.8,-2218 100.99,-2206.9 100.99,-2185.1 174.8,-2174 274.55,-2174 348.36,-2185.1"/>
<polygon fill="none" stroke="#3cede8" points="352.36,-2181.66 352.36,-2210.34 274.85,-2222 174.5,-2222 96.99,-2210.34 96.99,-2181.66 174.5,-2170 274.85,-2170 352.36,-2181.66"/>
<text text-anchor="middle" x="224.68" y="-2192.3" font-family="Roboto" font-size="14.00" fill="#000000">elixir&#45;1.10.3 (309.97 MiB)</text>
</g>
<!-- N36 -->
<g id="node32" class="node">
<title>N36</title>
<polygon fill="#4072e1" stroke="#4072e1" points="326.69,-298.54 326.69,-313.46 266.93,-324 182.42,-324 122.66,-313.46 122.66,-298.54 182.42,-288 266.93,-288 326.69,-298.54"/>
<polygon fill="none" stroke="#4072e1" points="330.69,-295.19 330.69,-316.81 267.28,-328 182.07,-328 118.66,-316.81 118.66,-295.19 182.07,-284 267.28,-284 330.69,-295.19"/>
<polygon fill="none" stroke="#4072e1" points="334.69,-291.83 334.69,-320.17 267.63,-332 181.72,-332 114.66,-320.17 114.66,-291.83 181.72,-280 267.63,-280 334.69,-291.83"/>
<text text-anchor="middle" x="224.68" y="-302.3" font-family="Roboto" font-size="14.00" fill="#ffffff">piper&#45;0.4 (12.98 MiB)</text>
</g>
<!-- N36&#45;&gt;N21 -->
<g id="edge19" class="edge">
<title>N36&#45;&gt;N21</title>
<path fill="none" stroke="black" d="M334.93,-315.89C387.91,-320.68 451.34,-326.43 504.18,-331.21"/>
<polygon fill="black" stroke="black" points="503.98,-334.7 514.25,-332.12 504.61,-327.73 503.98,-334.7"/>
</g>
</g>
</svg>
