<?xml version="1.0" encoding="UTF-8" standalone="no"?>
<!DOCTYPE svg PUBLIC "-//W3C//DTD SVG 1.1//EN"
 "http://www.w3.org/Graphics/SVG/1.1/DTD/svg11.dtd">
<!-- Generated by graphviz version 2.43.0 (0)
 -->
<!-- Title: nixstore Pages: 1 -->
<svg width="771pt" height="3280pt"
 viewBox="0.00 0.00 770.80 3280.00" xmlns="http://www.w3.org/2000/svg" xmlns:xlink="http://www.w3.org/1999/xlink">
<g id="graph0" class="graph" transform="scale(1 1) rotate(0) translate(4 3276)">
<title>nixstore</title>
<polygon fill="white" stroke="transparent" points="-4,4 -4,-3276 766.8,-3276 766.8,4 -4,4"/>
<!-- N56 -->
<g id="node1" class="node">
<title>N56</title>
<polygon fill="#fe0000" stroke="#fe0000" points="356.75,-18.54 356.75,-33.46 291.56,-44 199.36,-44 134.16,-33.46 134.16,-18.54 199.36,-8 291.56,-8 356.75,-18.54"/>
<polygon fill="none" stroke="#fe0000" points="360.76,-15.14 360.76,-36.86 291.88,-48 199.04,-48 130.16,-36.86 130.16,-15.14 199.04,-4 291.88,-4 360.76,-15.14"/>
<polygon fill="none" stroke="#fe0000" points="364.76,-11.74 364.76,-40.26 292.2,-52 198.71,-52 126.15,-40.26 126.15,-11.74 198.71,0 292.2,0 364.76,-11.74"/>
<text text-anchor="middle" x="245.46" y="-22.3" font-family="Roboto" font-size="14.00" fill="#000000">{filtered out} (2.53 GiB)</text>
</g>
<!-- N30 -->
<g id="node2" class="node">
<title>N30</title>
<polygon fill="#fecb00" stroke="#fecb00" points="339.51,-228.54 339.51,-243.46 284.42,-254 206.5,-254 151.4,-243.46 151.4,-228.54 206.5,-218 284.42,-218 339.51,-228.54"/>
<polygon fill="none" stroke="#fecb00" points="343.5,-225.24 343.5,-246.76 284.79,-258 206.12,-258 147.41,-246.76 147.41,-225.24 206.12,-214 284.79,-214 343.5,-225.24"/>
<polygon fill="none" stroke="#fecb00" points="347.49,-221.93 347.49,-250.07 285.17,-262 205.74,-262 143.42,-250.07 143.42,-221.93 205.74,-210 285.17,-210 347.49,-221.93"/>
<text text-anchor="middle" x="245.46" y="-232.3" font-family="Roboto" font-size="14.00" fill="#000000">wine&#45;5.0 (1.79 GiB)</text>
</g>
<!-- N36 -->
<g id="node48" class="node">
<title>N36</title>
<polygon fill="#3de2eb" stroke="#3de2eb" points="720.8,-262 541.8,-262 541.8,-226 720.8,-226 720.8,-262"/>
<text text-anchor="middle" x="631.3" y="-240.3" font-family="Roboto" font-size="14.00" fill="#000000">gnutls&#45;3.6.14 (297.42 MiB)</text>
</g>
<!-- N30&#45;&gt;N36 -->
<g id="edge1" class="edge">
<title>N30&#45;&gt;N36</title>
<path fill="none" stroke="black" d="M347.56,-238.11C404.45,-239.29 475.17,-240.77 531.66,-241.94"/>
<polygon fill="black" stroke="black" points="531.6,-245.44 541.67,-242.15 531.75,-238.45 531.6,-245.44"/>
</g>
<!-- N37 -->
<g id="node49" class="node">
<title>N37</title>
<polygon fill="#3face6" stroke="#3face6" points="762.8,-192 499.8,-192 499.8,-156 762.8,-156 762.8,-192"/>
<text text-anchor="middle" x="631.3" y="-170.3" font-family="Roboto" font-size="14.00" fill="#ffffff">wine&#45;gecko&#45;2.47.1&#45;x86.msi (139.24 MiB)</text>
</g>
<!-- N30&#45;&gt;N37 -->
<g id="edge2" class="edge">
<title>N30&#45;&gt;N37</title>
<path fill="none" stroke="black" d="M341.41,-220.73C379.46,-214.61 423.71,-207.48 463.8,-201 478.5,-198.62 493.94,-196.13 509.23,-193.65"/>
<polygon fill="black" stroke="black" points="509.94,-197.08 519.25,-192.03 508.82,-190.17 509.94,-197.08"/>
</g>
<!-- N29 -->
<g id="node3" class="node">
<title>N29</title>
<polygon fill="#3ec3e8" stroke="#3ec3e8" points="429.18,-508.54 429.18,-523.46 321.56,-534 169.36,-534 61.74,-523.46 61.74,-508.54 169.36,-498 321.56,-498 429.18,-508.54"/>
<polygon fill="none" stroke="#3ec3e8" points="433.18,-504.92 433.18,-527.08 321.75,-538 169.16,-538 57.74,-527.08 57.74,-504.92 169.16,-494 321.75,-494 433.18,-504.92"/>
<polygon fill="none" stroke="#3ec3e8" points="437.18,-501.29 437.18,-530.71 321.95,-542 168.97,-542 53.73,-530.71 53.73,-501.29 168.97,-490 321.95,-490 437.18,-501.29"/>
<text text-anchor="middle" x="245.46" y="-512.3" font-family="Roboto" font-size="14.00" fill="#000000">tor&#45;browser&#45;bundle&#45;bin&#45;9.5 (200.07 MiB)</text>
</g>
<!-- N27 -->
<g id="node5" class="node">
<title>N27</title>
<polygon fill="#3ec6e8" stroke="#3ec6e8" points="392.52,-368.54 392.52,-383.46 306.37,-394 184.54,-394 98.4,-383.46 98.4,-368.54 184.54,-358 306.37,-358 392.52,-368.54"/>
<polygon fill="none" stroke="#3ec6e8" points="396.52,-365 396.52,-387 306.61,-398 184.3,-398 94.4,-387 94.4,-365 184.3,-354 306.61,-354 396.52,-365"/>
<polygon fill="none" stroke="#3ec6e8" points="400.52,-361.46 400.52,-390.54 306.86,-402 184.06,-402 90.4,-390.54 90.4,-361.46 184.06,-350 306.86,-350 400.52,-361.46"/>
<text text-anchor="middle" x="245.46" y="-372.3" font-family="Roboto" font-size="14.00" fill="#000000">glibc&#45;locales&#45;2.30 (209.50 MiB)</text>
</g>
<!-- N29&#45;&gt;N27 -->
<g id="edge3" class="edge">
<title>N29&#45;&gt;N27</title>
<path fill="none" stroke="black" d="M91.94,-497.47C69.93,-493.06 47.76,-487.64 27.11,-481 18.6,-478.26 13.81,-479.61 9.11,-472 -3.04,-452.34 -3.04,-439.66 9.11,-420 25.13,-394.08 51.23,-379.37 80.36,-371.58"/>
<polygon fill="black" stroke="black" points="81.43,-374.92 90.34,-369.19 79.81,-368.11 81.43,-374.92"/>
</g>
<!-- N28 -->
<g id="node4" class="node">
<title>N28</title>
<polygon fill="#3ebce7" stroke="#3ebce7" points="356.75,-578.54 356.75,-593.46 291.56,-604 199.36,-604 134.16,-593.46 134.16,-578.54 199.36,-568 291.56,-568 356.75,-578.54"/>
<polygon fill="none" stroke="#3ebce7" points="360.76,-575.14 360.76,-596.86 291.88,-608 199.04,-608 130.16,-596.86 130.16,-575.14 199.04,-564 291.88,-564 360.76,-575.14"/>
<polygon fill="none" stroke="#3ebce7" points="364.76,-571.74 364.76,-600.26 292.2,-612 198.71,-612 126.15,-600.26 126.15,-571.74 198.71,-560 292.2,-560 364.76,-571.74"/>
<text text-anchor="middle" x="245.46" y="-582.3" font-family="Roboto" font-size="14.00" fill="#000000">vlc&#45;3.0.11 (182.39 MiB)</text>
</g>
<!-- N40 -->
<g id="node6" class="node">
<title>N40</title>
<polygon fill="#4089e3" stroke="#4089e3" points="388.09,-1068.54 388.09,-1083.46 304.54,-1094 186.38,-1094 102.83,-1083.46 102.83,-1068.54 186.38,-1058 304.54,-1058 388.09,-1068.54"/>
<polygon fill="none" stroke="#4089e3" points="392.08,-1065.02 392.08,-1086.98 304.79,-1098 186.13,-1098 98.83,-1086.98 98.83,-1065.02 186.13,-1054 304.79,-1054 392.08,-1065.02"/>
<polygon fill="none" stroke="#4089e3" points="396.08,-1061.49 396.08,-1090.51 305.04,-1102 185.88,-1102 94.84,-1090.51 94.84,-1061.49 185.88,-1050 305.04,-1050 396.08,-1061.49"/>
<text text-anchor="middle" x="245.46" y="-1072.3" font-family="Roboto" font-size="14.00" fill="#ffffff">virt&#45;manager&#45;2.2.1 (58.46 MiB)</text>
</g>
<!-- N38 -->
<g id="node50" class="node">
<title>N38</title>
<polygon fill="#39f2c4" stroke="#39f2c4" points="726.8,-989 535.8,-989 535.8,-953 726.8,-953 726.8,-989"/>
<text text-anchor="middle" x="631.3" y="-967.3" font-family="Roboto" font-size="14.00" fill="#000000">libGL&#45;1.3.1&#45;dev (482.99 MiB)</text>
</g>
<!-- N40&#45;&gt;N38 -->
<g id="edge4" class="edge">
<title>N40&#45;&gt;N38</title>
<path fill="none" stroke="black" d="M380.61,-1059.54C408.38,-1054.7 437.25,-1048.6 463.8,-1041 506.06,-1028.9 551.95,-1009.07 584.84,-993.6"/>
<polygon fill="black" stroke="black" points="586.65,-996.61 594.18,-989.15 583.64,-990.29 586.65,-996.61"/>
</g>
<!-- N41 -->
<g id="node7" class="node">
<title>N41</title>
<polygon fill="#4098e4" stroke="#4098e4" points="406.65,-1138.54 406.65,-1153.46 312.23,-1164 178.69,-1164 84.26,-1153.46 84.26,-1138.54 178.69,-1128 312.23,-1128 406.65,-1138.54"/>
<polygon fill="none" stroke="#4098e4" points="410.65,-1134.97 410.65,-1157.03 312.45,-1168 178.46,-1168 80.26,-1157.03 80.26,-1134.97 178.46,-1124 312.45,-1124 410.65,-1134.97"/>
<polygon fill="none" stroke="#4098e4" points="414.66,-1131.39 414.66,-1160.61 312.67,-1172 178.24,-1172 76.26,-1160.61 76.26,-1131.39 178.24,-1120 312.67,-1120 414.66,-1131.39"/>
<text text-anchor="middle" x="245.46" y="-1142.3" font-family="Roboto" font-size="14.00" fill="#ffffff">dwarf&#45;fortress&#45;0.47.04 (89.38 MiB)</text>
</g>
<!-- N41&#45;&gt;N38 -->
<g id="edge6" class="edge">
<title>N41&#45;&gt;N38</title>
<path fill="none" stroke="black" d="M406.41,-1130.44C426.22,-1125.57 445.82,-1119.23 463.8,-1111 523.31,-1083.75 578.56,-1029.23 608.04,-996.85"/>
<polygon fill="black" stroke="black" points="610.89,-998.91 614.96,-989.13 605.68,-994.24 610.89,-998.91"/>
</g>
<!-- N33 -->
<g id="node51" class="node">
<title>N33</title>
<polygon fill="#3fabe6" stroke="#3fabe6" points="708.8,-1409 553.8,-1409 553.8,-1373 708.8,-1373 708.8,-1409"/>
<text text-anchor="middle" x="631.3" y="-1387.3" font-family="Roboto" font-size="14.00" fill="#ffffff">gcc&#45;9.3.0 (136.83 MiB)</text>
</g>
<!-- N41&#45;&gt;N33 -->
<g id="edge5" class="edge">
<title>N41&#45;&gt;N33</title>
<path fill="none" stroke="black" d="M414.65,-1160.07C431.9,-1165.29 448.63,-1172.11 463.8,-1181 539.32,-1225.25 593.76,-1317.87 617.32,-1363.87"/>
<polygon fill="black" stroke="black" points="614.26,-1365.58 621.87,-1372.94 620.52,-1362.44 614.26,-1365.58"/>
</g>
<!-- N26 -->
<g id="node8" class="node">
<title>N26</title>
<polygon fill="#3dd9ea" stroke="#3dd9ea" points="384.55,-1698.54 384.55,-1713.46 303.07,-1724 187.84,-1724 106.36,-1713.46 106.36,-1698.54 187.84,-1688 303.07,-1688 384.55,-1698.54"/>
<polygon fill="none" stroke="#3dd9ea" points="388.55,-1695.03 388.55,-1716.97 303.33,-1728 187.59,-1728 102.37,-1716.97 102.37,-1695.03 187.59,-1684 303.33,-1684 388.55,-1695.03"/>
<polygon fill="none" stroke="#3dd9ea" points="392.54,-1691.51 392.54,-1720.49 303.59,-1732 187.33,-1732 98.37,-1720.49 98.37,-1691.51 187.33,-1680 303.59,-1680 392.54,-1691.51"/>
<text text-anchor="middle" x="245.46" y="-1702.3" font-family="Roboto" font-size="14.00" fill="#000000">docker&#45;19.03.11 (269.00 MiB)</text>
</g>
<!-- N25 -->
<g id="node9" class="node">
<title>N25</title>
<polygon fill="#34f944" stroke="#34f944" points="391.62,-1768.54 391.62,-1783.46 306,-1794 184.91,-1794 99.29,-1783.46 99.29,-1768.54 184.91,-1758 306,-1758 391.62,-1768.54"/>
<polygon fill="none" stroke="#34f944" points="395.61,-1765.01 395.61,-1786.99 306.24,-1798 184.67,-1798 95.3,-1786.99 95.3,-1765.01 184.67,-1754 306.24,-1754 395.61,-1765.01"/>
<polygon fill="none" stroke="#34f944" points="399.61,-1761.47 399.61,-1790.53 306.49,-1802 184.42,-1802 91.3,-1790.53 91.3,-1761.47 184.42,-1750 306.49,-1750 399.61,-1761.47"/>
<text text-anchor="middle" x="245.46" y="-1772.3" font-family="Roboto" font-size="14.00" fill="#000000">openjdk&#45;11.0.6&#45;ga (701.86 MiB)</text>
</g>
<!-- N24 -->
<g id="node10" class="node">
<title>N24</title>
<polygon fill="#3eb9e7" stroke="#3eb9e7" points="386.34,-1838.54 386.34,-1853.46 303.81,-1864 187.1,-1864 104.57,-1853.46 104.57,-1838.54 187.1,-1828 303.81,-1828 386.34,-1838.54"/>
<polygon fill="none" stroke="#3eb9e7" points="390.35,-1835.02 390.35,-1856.98 304.07,-1868 186.84,-1868 100.57,-1856.98 100.57,-1835.02 186.84,-1824 304.07,-1824 390.35,-1835.02"/>
<polygon fill="none" stroke="#3eb9e7" points="394.35,-1831.5 394.35,-1860.5 304.32,-1872 186.59,-1872 96.56,-1860.5 96.56,-1831.5 186.59,-1820 304.32,-1820 394.35,-1831.5"/>
<text text-anchor="middle" x="245.46" y="-1842.3" font-family="Roboto" font-size="14.00" fill="#000000">mongodb&#45;3.4.24 (174.63 MiB)</text>
</g>
<!-- N42 -->
<g id="node11" class="node">
<title>N42</title>
<polygon fill="#4085e2" stroke="#4085e2" points="430.49,-1908.54 430.49,-1923.46 322.1,-1934 168.81,-1934 60.42,-1923.46 60.42,-1908.54 168.81,-1898 322.1,-1898 430.49,-1908.54"/>
<polygon fill="none" stroke="#4085e2" points="434.49,-1904.91 434.49,-1927.09 322.3,-1938 168.62,-1938 56.42,-1927.09 56.42,-1904.91 168.62,-1894 322.3,-1894 434.49,-1904.91"/>
<polygon fill="none" stroke="#4085e2" points="438.49,-1901.28 438.49,-1930.72 322.49,-1942 168.42,-1942 52.42,-1930.72 52.42,-1901.28 168.42,-1890 322.49,-1890 438.49,-1901.28"/>
<text text-anchor="middle" x="245.46" y="-1912.3" font-family="Roboto" font-size="14.00" fill="#ffffff">nvidia&#45;x11&#45;440.82&#45;5.4.46&#45;bin (50.53 MiB)</text>
</g>
<!-- N32 -->
<g id="node52" class="node">
<title>N32</title>
<polygon fill="#3ce5ec" stroke="#3ce5ec" points="755.3,-2004 507.3,-2004 507.3,-1968 755.3,-1968 755.3,-2004"/>
<text text-anchor="middle" x="631.3" y="-1982.3" font-family="Roboto" font-size="14.00" fill="#000000">nvidia&#45;x11&#45;440.82&#45;5.4.46 (308.03 MiB)</text>
</g>
<!-- N42&#45;&gt;N32 -->
<g id="edge7" class="edge">
<title>N42&#45;&gt;N32</title>
<path fill="none" stroke="black" d="M379.96,-1936.47C407.72,-1941.02 436.74,-1945.98 463.8,-1951 488.05,-1955.5 514.19,-1960.79 538.42,-1965.87"/>
<polygon fill="black" stroke="black" points="537.8,-1969.32 548.31,-1967.96 539.25,-1962.47 537.8,-1969.32"/>
</g>
<!-- N23 -->
<g id="node12" class="node">
<title>N23</title>
<polygon fill="#a0fe2f" stroke="#a0fe2f" points="342.61,-298.54 342.61,-313.46 285.7,-324 205.21,-324 148.3,-313.46 148.3,-298.54 205.21,-288 285.7,-288 342.61,-298.54"/>
<polygon fill="none" stroke="#a0fe2f" points="346.62,-295.22 346.62,-316.78 286.07,-328 204.84,-328 144.3,-316.78 144.3,-295.22 204.84,-284 286.07,-284 346.62,-295.22"/>
<polygon fill="none" stroke="#a0fe2f" points="350.62,-291.89 350.62,-320.11 286.44,-332 204.48,-332 140.29,-320.11 140.29,-291.89 204.48,-280 286.44,-280 350.62,-291.89"/>
<text text-anchor="middle" x="245.46" y="-302.3" font-family="Roboto" font-size="14.00" fill="#000000">steam (840.50 MiB)</text>
</g>
<!-- N23&#45;&gt;N27 -->
<g id="edge8" class="edge">
<title>N23&#45;&gt;N27</title>
<path fill="none" stroke="black" d="M245.46,-332.25C245.46,-334.7 245.46,-337.15 245.46,-339.6"/>
<polygon fill="black" stroke="black" points="241.96,-339.68 245.46,-349.68 248.96,-339.68 241.96,-339.68"/>
</g>
<!-- N23&#45;&gt;N36 -->
<g id="edge10" class="edge">
<title>N23&#45;&gt;N36</title>
<path fill="none" stroke="black" d="M343.02,-290.47C380.71,-284.41 424.28,-277.39 463.8,-271 485.74,-267.46 509.3,-263.64 531.59,-260.03"/>
<polygon fill="black" stroke="black" points="532.42,-263.44 541.73,-258.38 531.3,-256.53 532.42,-263.44"/>
</g>
<!-- N34 -->
<g id="node53" class="node">
<title>N34</title>
<polygon fill="#3ce4ec" stroke="#3ce4ec" points="728.8,-394 533.8,-394 533.8,-358 728.8,-358 728.8,-394"/>
<text text-anchor="middle" x="631.3" y="-372.3" font-family="Roboto" font-size="14.00" fill="#000000">mono&#45;5.20.1.27 (304.81 MiB)</text>
</g>
<!-- N23&#45;&gt;N34 -->
<g id="edge9" class="edge">
<title>N23&#45;&gt;N34</title>
<path fill="none" stroke="black" d="M345.9,-321C382.97,-326.85 425.38,-333.87 463.8,-341 488.05,-345.5 514.19,-350.79 538.42,-355.87"/>
<polygon fill="black" stroke="black" points="537.8,-359.32 548.31,-357.96 539.25,-352.47 537.8,-359.32"/>
</g>
<!-- N22 -->
<g id="node13" class="node">
<title>N22</title>
<polygon fill="#3de1eb" stroke="#3de1eb" points="377.06,-718.54 377.06,-733.46 299.97,-744 190.95,-744 113.85,-733.46 113.85,-718.54 190.95,-708 299.97,-708 377.06,-718.54"/>
<polygon fill="none" stroke="#3de1eb" points="381.06,-715.05 381.06,-736.95 300.24,-748 190.67,-748 109.85,-736.95 109.85,-715.05 190.67,-704 300.24,-704 381.06,-715.05"/>
<polygon fill="none" stroke="#3de1eb" points="385.06,-711.56 385.06,-740.44 300.51,-752 190.4,-752 105.85,-740.44 105.85,-711.56 190.4,-700 300.51,-700 385.06,-711.56"/>
<text text-anchor="middle" x="245.46" y="-722.3" font-family="Roboto" font-size="14.00" fill="#000000">blender&#45;2.83.0 (294.30 MiB)</text>
</g>
<!-- N39 -->
<g id="node54" class="node">
<title>N39</title>
<polygon fill="#3faee6" stroke="#3faee6" points="706.8,-744 555.8,-744 555.8,-708 706.8,-708 706.8,-744"/>
<text text-anchor="middle" x="631.3" y="-722.3" font-family="Roboto" font-size="14.00" fill="#ffffff">lapack&#45;3 (143.49 MiB)</text>
</g>
<!-- N22&#45;&gt;N39 -->
<g id="edge11" class="edge">
<title>N22&#45;&gt;N39</title>
<path fill="none" stroke="black" d="M385.03,-726C438.75,-726 498.52,-726 545.61,-726"/>
<polygon fill="black" stroke="black" points="545.77,-729.5 555.77,-726 545.77,-722.5 545.77,-729.5"/>
</g>
<!-- N21 -->
<g id="node14" class="node">
<title>N21</title>
<polygon fill="#3ce6ec" stroke="#3ce6ec" points="444.63,-2118.54 444.63,-2133.46 327.96,-2144 162.96,-2144 46.28,-2133.46 46.28,-2118.54 162.96,-2108 327.96,-2108 444.63,-2118.54"/>
<polygon fill="none" stroke="#3ce6ec" points="448.63,-2114.89 448.63,-2137.11 328.14,-2148 162.78,-2148 42.28,-2137.11 42.28,-2114.89 162.78,-2104 328.14,-2104 448.63,-2114.89"/>
<polygon fill="none" stroke="#3ce6ec" points="452.63,-2111.23 452.63,-2140.77 328.32,-2152 162.6,-2152 38.28,-2140.77 38.28,-2111.23 162.6,-2100 328.32,-2100 452.63,-2111.23"/>
<text text-anchor="middle" x="245.46" y="-2122.3" font-family="Roboto" font-size="14.00" fill="#000000">google&#45;chrome&#45;83.0.4103.106 (310.27 MiB)</text>
</g>
<!-- N20 -->
<g id="node15" class="node">
<title>N20</title>
<polygon fill="#3dd3ea" stroke="#3dd3ea" points="357.18,-2188.54 357.18,-2203.46 291.73,-2214 199.18,-2214 133.74,-2203.46 133.74,-2188.54 199.18,-2178 291.73,-2178 357.18,-2188.54"/>
<polygon fill="none" stroke="#3dd3ea" points="361.17,-2185.14 361.17,-2206.86 292.05,-2218 198.86,-2218 129.74,-2206.86 129.74,-2185.14 198.86,-2174 292.05,-2174 361.17,-2185.14"/>
<polygon fill="none" stroke="#3dd3ea" points="365.17,-2181.73 365.17,-2210.27 292.37,-2222 198.54,-2222 125.75,-2210.27 125.75,-2181.73 198.54,-2170 292.37,-2170 365.17,-2181.73"/>
<text text-anchor="middle" x="245.46" y="-2192.3" font-family="Roboto" font-size="14.00" fill="#000000">X11&#45;fonts (249.44 MiB)</text>
</g>
<!-- N19 -->
<g id="node16" class="node">
<title>N19</title>
<polygon fill="#3ce6ec" stroke="#3ce6ec" points="365.14,-2258.54 365.14,-2273.46 295.03,-2284 195.88,-2284 125.78,-2273.46 125.78,-2258.54 195.88,-2248 295.03,-2248 365.14,-2258.54"/>
<polygon fill="none" stroke="#3ce6ec" points="369.14,-2255.1 369.14,-2276.9 295.33,-2288 195.58,-2288 121.77,-2276.9 121.77,-2255.1 195.58,-2244 295.33,-2244 369.14,-2255.1"/>
<polygon fill="none" stroke="#3ce6ec" points="373.14,-2251.66 373.14,-2280.34 295.63,-2292 195.28,-2292 117.77,-2280.34 117.77,-2251.66 195.28,-2240 295.63,-2240 373.14,-2251.66"/>
<text text-anchor="middle" x="245.46" y="-2262.3" font-family="Roboto" font-size="14.00" fill="#000000">elixir&#45;1.10.3 (309.97 MiB)</text>
</g>
<!-- N18 -->
<g id="node17" class="node">
<title>N18</title>
<polygon fill="#3fa3e5" stroke="#3fa3e5" points="390.3,-2328.54 390.3,-2343.46 305.45,-2354 185.46,-2354 100.61,-2343.46 100.61,-2328.54 185.46,-2318 305.45,-2318 390.3,-2328.54"/>
<polygon fill="none" stroke="#3fa3e5" points="394.3,-2325.01 394.3,-2346.99 305.7,-2358 185.21,-2358 96.62,-2346.99 96.62,-2325.01 185.21,-2314 305.7,-2314 394.3,-2325.01"/>
<polygon fill="none" stroke="#3fa3e5" points="398.3,-2321.48 398.3,-2350.52 305.95,-2362 184.97,-2362 92.62,-2350.52 92.62,-2321.48 184.97,-2310 305.95,-2310 398.3,-2321.48"/>
<text text-anchor="middle" x="245.46" y="-2332.3" font-family="Roboto" font-size="14.00" fill="#ffffff">prusa&#45;slicer&#45;2.2.0 (116.63 MiB)</text>
</g>
<!-- N17 -->
<g id="node18" class="node">
<title>N17</title>
<polygon fill="#3fb5e7" stroke="#3fb5e7" points="383.23,-648.54 383.23,-663.46 302.53,-674 188.39,-674 107.68,-663.46 107.68,-648.54 188.39,-638 302.53,-638 383.23,-648.54"/>
<polygon fill="none" stroke="#3fb5e7" points="387.23,-645.03 387.23,-666.97 302.79,-678 188.13,-678 103.68,-666.97 103.68,-645.03 188.13,-634 302.79,-634 387.23,-645.03"/>
<polygon fill="none" stroke="#3fb5e7" points="391.23,-641.52 391.23,-670.48 303.04,-682 187.87,-682 99.69,-670.48 99.69,-641.52 187.87,-630 303.04,-630 391.23,-641.52"/>
<text text-anchor="middle" x="245.46" y="-652.3" font-family="Roboto" font-size="14.00" fill="#ffffff">inkscape&#45;0.92.5 (162.84 MiB)</text>
</g>
<!-- N17&#45;&gt;N39 -->
<g id="edge12" class="edge">
<title>N17&#45;&gt;N39</title>
<path fill="none" stroke="black" d="M364.79,-674.01C396.96,-679.19 431.77,-685.06 463.8,-691 490.46,-695.94 519.4,-701.84 545.56,-707.37"/>
<polygon fill="black" stroke="black" points="544.93,-710.82 555.44,-709.47 546.39,-703.97 544.93,-710.82"/>
</g>
<!-- N16 -->
<g id="node19" class="node">
<title>N16</title>
<polygon fill="#3beee5" stroke="#3beee5" points="352.32,-2398.54 352.32,-2413.46 289.72,-2424 201.19,-2424 138.59,-2413.46 138.59,-2398.54 201.19,-2388 289.72,-2388 352.32,-2398.54"/>
<polygon fill="none" stroke="#3beee5" points="356.32,-2395.16 356.32,-2416.84 290.06,-2428 200.86,-2428 134.59,-2416.84 134.59,-2395.16 200.86,-2384 290.06,-2384 356.32,-2395.16"/>
<polygon fill="none" stroke="#3beee5" points="360.32,-2391.78 360.32,-2420.22 290.39,-2432 200.52,-2432 130.6,-2420.22 130.6,-2391.78 200.52,-2380 290.39,-2380 360.32,-2391.78"/>
<text text-anchor="middle" x="245.46" y="-2402.3" font-family="Roboto" font-size="14.00" fill="#000000">ino&#45;0.3.6 (365.79 MiB)</text>
</g>
<!-- N15 -->
<g id="node20" class="node">
<title>N15</title>
<polygon fill="#38f4aa" stroke="#38f4aa" points="386.77,-998.54 386.77,-1013.46 303.99,-1024 186.92,-1024 104.15,-1013.46 104.15,-998.54 186.92,-988 303.99,-988 386.77,-998.54"/>
<polygon fill="none" stroke="#38f4aa" points="390.76,-995.02 390.76,-1016.98 304.24,-1028 186.67,-1028 100.15,-1016.98 100.15,-995.02 186.67,-984 304.24,-984 390.76,-995.02"/>
<polygon fill="none" stroke="#38f4aa" points="394.76,-991.5 394.76,-1020.5 304.5,-1032 186.42,-1032 96.15,-1020.5 96.15,-991.5 186.42,-980 304.5,-980 394.76,-991.5"/>
<text text-anchor="middle" x="245.46" y="-1002.3" font-family="Roboto" font-size="14.00" fill="#000000">wesnoth&#45;1.14.12 (552.42 MiB)</text>
</g>
<!-- N15&#45;&gt;N38 -->
<g id="edge13" class="edge">
<title>N15&#45;&gt;N38</title>
<path fill="none" stroke="black" d="M394.86,-992.47C438.52,-988.49 485.36,-984.22 525.66,-980.54"/>
<polygon fill="black" stroke="black" points="526.12,-984.01 535.76,-979.62 525.49,-977.04 526.12,-984.01"/>
</g>
<!-- N43 -->
<g id="node21" class="node">
<title>N43</title>
<polygon fill="#4073e1" stroke="#4073e1" points="374.42,-2538.54 374.42,-2553.46 298.88,-2564 192.04,-2564 116.49,-2553.46 116.49,-2538.54 192.04,-2528 298.88,-2528 374.42,-2538.54"/>
<polygon fill="none" stroke="#4073e1" points="378.43,-2535.06 378.43,-2556.94 299.15,-2568 191.76,-2568 112.49,-2556.94 112.49,-2535.06 191.76,-2524 299.15,-2524 378.43,-2535.06"/>
<polygon fill="none" stroke="#4073e1" points="382.44,-2531.58 382.44,-2560.42 299.43,-2572 191.48,-2572 108.48,-2560.42 108.48,-2531.58 191.48,-2520 299.43,-2520 382.44,-2531.58"/>
<text text-anchor="middle" x="245.46" y="-2542.3" font-family="Roboto" font-size="14.00" fill="#ffffff">nomacs&#45;3.14.2 (17.37 MiB)</text>
</g>
<!-- N35 -->
<g id="node55" class="node">
<title>N35</title>
<polygon fill="#3f9ce4" stroke="#3f9ce4" points="716.3,-2529 546.3,-2529 546.3,-2493 716.3,-2493 716.3,-2529"/>
<text text-anchor="middle" x="631.3" y="-2507.3" font-family="Roboto" font-size="14.00" fill="#ffffff">opencv&#45;4.3.0 (98.60 MiB)</text>
</g>
<!-- N43&#45;&gt;N35 -->
<g id="edge14" class="edge">
<title>N43&#45;&gt;N35</title>
<path fill="none" stroke="black" d="M382.33,-2533.61C433.16,-2528.98 489.74,-2523.82 536.01,-2519.6"/>
<polygon fill="black" stroke="black" points="536.38,-2523.08 546.02,-2518.68 535.74,-2516.11 536.38,-2523.08"/>
</g>
<!-- N44 -->
<g id="node22" class="node">
<title>N44</title>
<polygon fill="#4069e1" stroke="#4069e1" points="369.99,-928.54 369.99,-943.46 297.04,-954 193.87,-954 120.92,-943.46 120.92,-928.54 193.87,-918 297.04,-918 369.99,-928.54"/>
<polygon fill="none" stroke="#4069e1" points="373.99,-925.08 373.99,-946.92 297.33,-958 193.59,-958 116.92,-946.92 116.92,-925.08 193.59,-914 297.33,-914 373.99,-925.08"/>
<polygon fill="none" stroke="#4069e1" points="377.99,-921.62 377.99,-950.38 297.62,-962 193.3,-962 112.92,-950.38 112.92,-921.62 193.3,-910 297.62,-910 377.99,-921.62"/>
<text text-anchor="middle" x="245.46" y="-932.3" font-family="Roboto" font-size="14.00" fill="#ffffff">arandr&#45;0.1.10 (204.32 KiB)</text>
</g>
<!-- N44&#45;&gt;N38 -->
<g id="edge15" class="edge">
<title>N44&#45;&gt;N38</title>
<path fill="none" stroke="black" d="M378.02,-948C426.14,-952.38 479.89,-957.29 525.38,-961.43"/>
<polygon fill="black" stroke="black" points="525.28,-964.94 535.55,-962.36 525.91,-957.97 525.28,-964.94"/>
</g>
<!-- N14 -->
<g id="node23" class="node">
<title>N14</title>
<polygon fill="#fe9200" stroke="#fe9200" points="427.86,-1628.54 427.86,-1643.46 321.01,-1654 169.9,-1654 63.06,-1643.46 63.06,-1628.54 169.9,-1618 321.01,-1618 427.86,-1628.54"/>
<polygon fill="none" stroke="#fe9200" points="431.86,-1624.92 431.86,-1647.08 321.21,-1658 169.71,-1658 59.05,-1647.08 59.05,-1624.92 169.71,-1614 321.21,-1614 431.86,-1624.92"/>
<polygon fill="none" stroke="#fe9200" points="435.87,-1621.3 435.87,-1650.7 321.4,-1662 169.51,-1662 55.05,-1650.7 55.05,-1621.3 169.51,-1610 321.4,-1610 435.87,-1621.3"/>
<text text-anchor="middle" x="245.46" y="-1632.3" font-family="Roboto" font-size="14.00" fill="#000000">xmonad&#45;with&#45;packages&#45;8.8.3 (2.17 GiB)</text>
</g>
<!-- N14&#45;&gt;N33 -->
<g id="edge16" class="edge">
<title>N14&#45;&gt;N33</title>
<path fill="none" stroke="black" d="M421.37,-1619.8C436.24,-1614.9 450.61,-1608.73 463.8,-1601 539.32,-1556.75 593.76,-1464.13 617.32,-1418.13"/>
<polygon fill="black" stroke="black" points="620.52,-1419.56 621.87,-1409.06 614.26,-1416.42 620.52,-1419.56"/>
</g>
<!-- N45 -->
<g id="node24" class="node">
<title>N45</title>
<polygon fill="#4080e2" stroke="#4080e2" points="419.89,-438.54 419.89,-453.46 317.71,-464 173.2,-464 71.02,-453.46 71.02,-438.54 173.2,-428 317.71,-428 419.89,-438.54"/>
<polygon fill="none" stroke="#4080e2" points="423.89,-434.94 423.89,-457.06 317.92,-468 173,-468 67.02,-457.06 67.02,-434.94 173,-424 317.92,-424 423.89,-434.94"/>
<polygon fill="none" stroke="#4080e2" points="427.89,-431.33 427.89,-460.67 318.12,-472 172.79,-472 63.02,-460.67 63.02,-431.33 172.79,-420 318.12,-420 427.89,-431.33"/>
<text text-anchor="middle" x="245.46" y="-442.3" font-family="Roboto" font-size="14.00" fill="#ffffff">openra&#45;release&#45;20190314 (40.77 MiB)</text>
</g>
<!-- N45&#45;&gt;N34 -->
<g id="edge17" class="edge">
<title>N45&#45;&gt;N34</title>
<path fill="none" stroke="black" d="M376.79,-426.05C405.49,-421.36 435.71,-416.21 463.8,-411 488.05,-406.5 514.19,-401.21 538.42,-396.13"/>
<polygon fill="black" stroke="black" points="539.25,-399.53 548.31,-394.04 537.8,-392.68 539.25,-399.53"/>
</g>
<!-- N46 -->
<g id="node25" class="node">
<title>N46</title>
<polygon fill="#406ae1" stroke="#406ae1" points="400.9,-1978.54 400.9,-1993.46 309.84,-2004 181.07,-2004 90.01,-1993.46 90.01,-1978.54 181.07,-1968 309.84,-1968 400.9,-1978.54"/>
<polygon fill="none" stroke="#406ae1" points="404.9,-1974.98 404.9,-1997.02 310.08,-2008 180.84,-2008 86.01,-1997.02 86.01,-1974.98 180.84,-1964 310.08,-1964 404.9,-1974.98"/>
<polygon fill="none" stroke="#406ae1" points="408.9,-1971.42 408.9,-2000.58 310.31,-2012 180.61,-2012 82.01,-2000.58 82.01,-1971.42 180.61,-1960 310.31,-1960 408.9,-1971.42"/>
<text text-anchor="middle" x="245.46" y="-1982.3" font-family="Roboto" font-size="14.00" fill="#ffffff">nvidia&#45;settings&#45;440.82 (1.70 MiB)</text>
</g>
<!-- N46&#45;&gt;N42 -->
<g id="edge18" class="edge">
<title>N46&#45;&gt;N42</title>
<path fill="none" stroke="black" d="M245.46,-1959.68C245.46,-1957.23 245.46,-1954.78 245.46,-1952.33"/>
<polygon fill="black" stroke="black" points="248.96,-1952.25 245.46,-1942.25 241.96,-1952.25 248.96,-1952.25"/>
</g>
<!-- N13 -->
<g id="node26" class="node">
<title>N13</title>
<polygon fill="#3ebce7" stroke="#3ebce7" points="422.11,-2608.54 422.11,-2623.46 318.63,-2634 172.29,-2634 68.81,-2623.46 68.81,-2608.54 172.29,-2598 318.63,-2598 422.11,-2608.54"/>
<polygon fill="none" stroke="#3ebce7" points="426.11,-2604.93 426.11,-2627.07 318.83,-2638 172.08,-2638 64.81,-2627.07 64.81,-2604.93 172.08,-2594 318.83,-2594 426.11,-2604.93"/>
<polygon fill="none" stroke="#3ebce7" points="430.11,-2601.32 430.11,-2630.68 319.03,-2642 171.88,-2642 60.8,-2630.68 60.8,-2601.32 171.88,-2590 319.03,-2590 430.11,-2601.32"/>
<text text-anchor="middle" x="245.46" y="-2612.3" font-family="Roboto" font-size="14.00" fill="#000000">firefox&#45;unwrapped&#45;77.0.1 (181.32 MiB)</text>
</g>
<!-- N12 -->
<g id="node27" class="node">
<title>N12</title>
<polygon fill="#3de2eb" stroke="#3de2eb" points="374.42,-2748.54 374.42,-2763.46 298.88,-2774 192.04,-2774 116.49,-2763.46 116.49,-2748.54 192.04,-2738 298.88,-2738 374.42,-2748.54"/>
<polygon fill="none" stroke="#3de2eb" points="378.43,-2745.06 378.43,-2766.94 299.15,-2778 191.76,-2778 112.49,-2766.94 112.49,-2745.06 191.76,-2734 299.15,-2734 378.43,-2745.06"/>
<polygon fill="none" stroke="#3de2eb" points="382.44,-2741.58 382.44,-2770.42 299.43,-2782 191.48,-2782 108.48,-2770.42 108.48,-2741.58 191.48,-2730 299.43,-2730 382.44,-2741.58"/>
<text text-anchor="middle" x="245.46" y="-2752.3" font-family="Roboto" font-size="14.00" fill="#000000">fritzing&#45;0.9.3b (296.41 MiB)</text>
</g>
<!-- N47 -->
<g id="node28" class="node">
<title>N47</title>
<polygon fill="#4074e1" stroke="#4074e1" points="352.32,-1558.54 352.32,-1573.46 289.72,-1584 201.19,-1584 138.59,-1573.46 138.59,-1558.54 201.19,-1548 289.72,-1548 352.32,-1558.54"/>
<polygon fill="none" stroke="#4074e1" points="356.32,-1555.16 356.32,-1576.84 290.06,-1588 200.86,-1588 134.59,-1576.84 134.59,-1555.16 200.86,-1544 290.06,-1544 356.32,-1555.16"/>
<polygon fill="none" stroke="#4074e1" points="360.32,-1551.78 360.32,-1580.22 290.39,-1592 200.52,-1592 130.6,-1580.22 130.6,-1551.78 200.52,-1540 290.39,-1540 360.32,-1551.78"/>
<text text-anchor="middle" x="245.46" y="-1562.3" font-family="Roboto" font-size="14.00" fill="#ffffff">ruby&#45;2.7.1 (18.95 MiB)</text>
</g>
<!-- N47&#45;&gt;N33 -->
<g id="edge19" class="edge">
<title>N47&#45;&gt;N33</title>
<path fill="none" stroke="black" d="M360.41,-1559.34C394.77,-1554.28 431.83,-1545.64 463.8,-1531 523.31,-1503.75 578.56,-1449.23 608.04,-1416.85"/>
<polygon fill="black" stroke="black" points="610.89,-1418.91 614.96,-1409.13 605.68,-1414.24 610.89,-1418.91"/>
</g>
<!-- N48 -->
<g id="node29" class="node">
<title>N48</title>
<polygon fill="#406be1" stroke="#406be1" points="362.92,-1488.54 362.92,-1503.46 294.11,-1514 196.8,-1514 127.99,-1503.46 127.99,-1488.54 196.8,-1478 294.11,-1478 362.92,-1488.54"/>
<polygon fill="none" stroke="#406be1" points="366.92,-1485.11 366.92,-1506.89 294.42,-1518 196.5,-1518 123.99,-1506.89 123.99,-1485.11 196.5,-1474 294.42,-1474 366.92,-1485.11"/>
<polygon fill="none" stroke="#406be1" points="370.92,-1481.68 370.92,-1510.32 294.72,-1522 196.19,-1522 119.99,-1510.32 119.99,-1481.68 196.19,-1470 294.72,-1470 370.92,-1481.68"/>
<text text-anchor="middle" x="245.46" y="-1492.3" font-family="Roboto" font-size="14.00" fill="#ffffff">nethack&#45;3.6.6 (4.58 MiB)</text>
</g>
<!-- N48&#45;&gt;N33 -->
<g id="edge20" class="edge">
<title>N48&#45;&gt;N33</title>
<path fill="none" stroke="black" d="M369.43,-1481.43C400.54,-1476.32 433.67,-1469.63 463.8,-1461 506.06,-1448.9 551.95,-1429.07 584.84,-1413.6"/>
<polygon fill="black" stroke="black" points="586.65,-1416.61 594.18,-1409.15 583.64,-1410.29 586.65,-1416.61"/>
</g>
<!-- N11 -->
<g id="node30" class="node">
<title>N11</title>
<polygon fill="#3faae6" stroke="#3faae6" points="371.31,-788.54 371.31,-803.46 297.59,-814 193.33,-814 119.6,-803.46 119.6,-788.54 193.33,-778 297.59,-778 371.31,-788.54"/>
<polygon fill="none" stroke="#3faae6" points="375.31,-785.08 375.31,-806.92 297.87,-818 193.04,-818 115.6,-806.92 115.6,-785.08 193.04,-774 297.87,-774 375.31,-785.08"/>
<polygon fill="none" stroke="#3faae6" points="379.31,-781.61 379.31,-810.39 298.16,-822 192.76,-822 111.61,-810.39 111.61,-781.61 192.76,-770 298.16,-770 379.31,-781.61"/>
<text text-anchor="middle" x="245.46" y="-792.3" font-family="Roboto" font-size="14.00" fill="#ffffff">gimp&#45;2.10.20 (135.01 MiB)</text>
</g>
<!-- N11&#45;&gt;N38 -->
<g id="edge21" class="edge">
<title>N11&#45;&gt;N38</title>
<path fill="none" stroke="black" d="M379.4,-805.8C408.1,-811.07 437.65,-819.03 463.8,-831 523.31,-858.25 578.56,-912.77 608.04,-945.15"/>
<polygon fill="black" stroke="black" points="605.68,-947.76 614.96,-952.87 610.89,-943.09 605.68,-947.76"/>
</g>
<!-- N11&#45;&gt;N39 -->
<g id="edge22" class="edge">
<title>N11&#45;&gt;N39</title>
<path fill="none" stroke="black" d="M360,-778.76C393.49,-773.39 430.17,-767.24 463.8,-761 490.46,-756.06 519.4,-750.16 545.56,-744.63"/>
<polygon fill="black" stroke="black" points="546.39,-748.03 555.44,-742.53 544.93,-741.18 546.39,-748.03"/>
</g>
<!-- N10 -->
<g id="node31" class="node">
<title>N10</title>
<polygon fill="#3fb7e7" stroke="#3fb7e7" points="388.98,-1418.54 388.98,-1433.46 304.91,-1444 186.01,-1444 101.93,-1433.46 101.93,-1418.54 186.01,-1408 304.91,-1408 388.98,-1418.54"/>
<polygon fill="none" stroke="#3fb7e7" points="392.98,-1415.01 392.98,-1436.99 305.16,-1448 185.76,-1448 97.93,-1436.99 97.93,-1415.01 185.76,-1404 305.16,-1404 392.98,-1415.01"/>
<polygon fill="none" stroke="#3fb7e7" points="396.98,-1411.48 396.98,-1440.52 305.41,-1452 185.51,-1452 93.93,-1440.52 93.93,-1411.48 185.51,-1400 305.41,-1400 396.98,-1411.48"/>
<text text-anchor="middle" x="245.46" y="-1422.3" font-family="Roboto" font-size="14.00" fill="#000000">upwork&#45;5.3.3.862 (168.58 MiB)</text>
</g>
<!-- N10&#45;&gt;N33 -->
<g id="edge23" class="edge">
<title>N10&#45;&gt;N33</title>
<path fill="none" stroke="black" d="M397.06,-1412.27C446.74,-1407.74 500.3,-1402.85 543.55,-1398.91"/>
<polygon fill="black" stroke="black" points="544.1,-1402.37 553.74,-1397.98 543.47,-1395.4 544.1,-1402.37"/>
</g>
<!-- N49 -->
<g id="node32" class="node">
<title>N49</title>
<polygon fill="#4086e2" stroke="#4086e2" points="365.56,-1348.54 365.56,-1363.46 295.21,-1374 195.71,-1374 125.35,-1363.46 125.35,-1348.54 195.71,-1338 295.21,-1338 365.56,-1348.54"/>
<polygon fill="none" stroke="#4086e2" points="369.56,-1345.1 369.56,-1366.9 295.5,-1378 195.41,-1378 121.36,-1366.9 121.36,-1345.1 195.41,-1334 295.5,-1334 369.56,-1345.1"/>
<polygon fill="none" stroke="#4086e2" points="373.55,-1341.65 373.55,-1370.35 295.8,-1382 195.11,-1382 117.36,-1370.35 117.36,-1341.65 195.11,-1330 295.8,-1330 373.55,-1341.65"/>
<text text-anchor="middle" x="245.46" y="-1352.3" font-family="Roboto" font-size="14.00" fill="#ffffff">neovim&#45;0.4.3 (51.20 MiB)</text>
</g>
<!-- N49&#45;&gt;N33 -->
<g id="edge24" class="edge">
<title>N49&#45;&gt;N33</title>
<path fill="none" stroke="black" d="M373.74,-1367.61C429.48,-1372.69 493.45,-1378.52 543.57,-1383.09"/>
<polygon fill="black" stroke="black" points="543.45,-1386.59 553.72,-1384.02 544.08,-1379.62 543.45,-1386.59"/>
</g>
<!-- N50 -->
<g id="node33" class="node">
<title>N50</title>
<polygon fill="#4071e1" stroke="#4071e1" points="347.47,-858.54 347.47,-873.46 287.71,-884 203.2,-884 143.44,-873.46 143.44,-858.54 203.2,-848 287.71,-848 347.47,-858.54"/>
<polygon fill="none" stroke="#4071e1" points="351.47,-855.19 351.47,-876.81 288.06,-888 202.85,-888 139.44,-876.81 139.44,-855.19 202.85,-844 288.06,-844 351.47,-855.19"/>
<polygon fill="none" stroke="#4071e1" points="355.47,-851.83 355.47,-880.17 288.41,-892 202.5,-892 135.44,-880.17 135.44,-851.83 202.5,-840 288.41,-840 355.47,-851.83"/>
<text text-anchor="middle" x="245.46" y="-862.3" font-family="Roboto" font-size="14.00" fill="#ffffff">piper&#45;0.5 (13.12 MiB)</text>
</g>
<!-- N50&#45;&gt;N38 -->
<g id="edge25" class="edge">
<title>N50&#45;&gt;N38</title>
<path fill="none" stroke="black" d="M355.64,-878.39C390.58,-883.73 429.17,-891.09 463.8,-901 506.06,-913.1 551.95,-932.93 584.84,-948.4"/>
<polygon fill="black" stroke="black" points="583.64,-951.71 594.18,-952.85 586.65,-945.39 583.64,-951.71"/>
</g>
<!-- N51 -->
<g id="node34" class="node">
<title>N51</title>
<polygon fill="#406be1" stroke="#406be1" points="360.71,-2678.54 360.71,-2693.46 293.2,-2704 197.72,-2704 130.2,-2693.46 130.2,-2678.54 197.72,-2668 293.2,-2668 360.71,-2678.54"/>
<polygon fill="none" stroke="#406be1" points="364.71,-2675.12 364.71,-2696.88 293.51,-2708 197.41,-2708 126.21,-2696.88 126.21,-2675.12 197.41,-2664 293.51,-2664 364.71,-2675.12"/>
<polygon fill="none" stroke="#406be1" points="368.7,-2671.7 368.7,-2700.3 293.82,-2712 197.1,-2712 122.21,-2700.3 122.21,-2671.7 197.1,-2660 293.82,-2660 368.7,-2671.7"/>
<text text-anchor="middle" x="245.46" y="-2682.3" font-family="Roboto" font-size="14.00" fill="#ffffff">firefox&#45;77.0.1 (3.60 MiB)</text>
</g>
<!-- N51&#45;&gt;N13 -->
<g id="edge26" class="edge">
<title>N51&#45;&gt;N13</title>
<path fill="none" stroke="black" d="M245.46,-2659.68C245.46,-2657.23 245.46,-2654.78 245.46,-2652.33"/>
<polygon fill="black" stroke="black" points="248.96,-2652.25 245.46,-2642.25 241.96,-2652.25 248.96,-2652.25"/>
</g>
<!-- N9 -->
<g id="node35" class="node">
<title>N9</title>
<polygon fill="#3dd9ea" stroke="#3dd9ea" points="425.64,-2818.54 425.64,-2833.46 320.09,-2844 170.82,-2844 65.27,-2833.46 65.27,-2818.54 170.82,-2808 320.09,-2808 425.64,-2818.54"/>
<polygon fill="none" stroke="#3dd9ea" points="429.64,-2814.92 429.64,-2837.08 320.29,-2848 170.62,-2848 61.27,-2837.08 61.27,-2814.92 170.62,-2804 320.29,-2804 429.64,-2814.92"/>
<polygon fill="none" stroke="#3dd9ea" points="433.65,-2811.3 433.65,-2840.7 320.49,-2852 170.42,-2852 57.27,-2840.7 57.27,-2811.3 170.42,-2800 320.49,-2800 433.65,-2811.3"/>
<text text-anchor="middle" x="245.46" y="-2822.3" font-family="Roboto" font-size="14.00" fill="#000000">qemu&#45;host&#45;cpu&#45;only&#45;5.0.0 (266.47 MiB)</text>
</g>
<!-- N52 -->
<g id="node36" class="node">
<title>N52</title>
<polygon fill="#4074e1" stroke="#4074e1" points="385.45,-1278.54 385.45,-1293.46 303.44,-1304 187.47,-1304 105.47,-1293.46 105.47,-1278.54 187.47,-1268 303.44,-1268 385.45,-1278.54"/>
<polygon fill="none" stroke="#4074e1" points="389.45,-1275.03 389.45,-1296.97 303.7,-1308 187.21,-1308 101.47,-1296.97 101.47,-1275.03 187.21,-1264 303.7,-1264 389.45,-1275.03"/>
<polygon fill="none" stroke="#4074e1" points="393.45,-1271.51 393.45,-1300.49 303.95,-1312 186.96,-1312 97.47,-1300.49 97.47,-1271.51 186.96,-1260 303.95,-1260 393.45,-1271.51"/>
<text text-anchor="middle" x="245.46" y="-1282.3" font-family="Roboto" font-size="14.00" fill="#ffffff">solargraph&#45;0.38.6 (18.37 MiB)</text>
</g>
<!-- N52&#45;&gt;N33 -->
<g id="edge27" class="edge">
<title>N52&#45;&gt;N33</title>
<path fill="none" stroke="black" d="M379.74,-1302.31C407.78,-1307.18 436.98,-1313.32 463.8,-1321 506.06,-1333.1 551.95,-1352.93 584.84,-1368.4"/>
<polygon fill="black" stroke="black" points="583.64,-1371.71 594.18,-1372.85 586.65,-1365.39 583.64,-1371.71"/>
</g>
<!-- N53 -->
<g id="node37" class="node">
<title>N53</title>
<polygon fill="#3f99e4" stroke="#3f99e4" points="392.52,-1208.54 392.52,-1223.46 306.37,-1234 184.54,-1234 98.4,-1223.46 98.4,-1208.54 184.54,-1198 306.37,-1198 392.52,-1208.54"/>
<polygon fill="none" stroke="#3f99e4" points="396.52,-1205 396.52,-1227 306.61,-1238 184.3,-1238 94.4,-1227 94.4,-1205 184.3,-1194 306.61,-1194 396.52,-1205"/>
<polygon fill="none" stroke="#3f99e4" points="400.52,-1201.46 400.52,-1230.54 306.86,-1242 184.06,-1242 90.4,-1230.54 90.4,-1201.46 184.06,-1190 306.86,-1190 400.52,-1201.46"/>
<text text-anchor="middle" x="245.46" y="-1212.3" font-family="Roboto" font-size="14.00" fill="#ffffff">stepmania&#45;5.1.0&#45;b2 (93.34 MiB)</text>
</g>
<!-- N53&#45;&gt;N33 -->
<g id="edge28" class="edge">
<title>N53&#45;&gt;N33</title>
<path fill="none" stroke="black" d="M400.66,-1230.19C422.42,-1235.22 444.08,-1241.97 463.8,-1251 523.31,-1278.25 578.56,-1332.77 608.04,-1365.15"/>
<polygon fill="black" stroke="black" points="605.68,-1367.76 614.96,-1372.87 610.89,-1363.09 605.68,-1367.76"/>
</g>
<!-- N8 -->
<g id="node38" class="node">
<title>N8</title>
<polygon fill="#3fb5e7" stroke="#3fb5e7" points="374.85,-2888.54 374.85,-2903.46 299.05,-2914 191.86,-2914 116.07,-2903.46 116.07,-2888.54 191.86,-2878 299.05,-2878 374.85,-2888.54"/>
<polygon fill="none" stroke="#3fb5e7" points="378.84,-2885.06 378.84,-2906.94 299.33,-2918 191.59,-2918 112.07,-2906.94 112.07,-2885.06 191.59,-2874 299.33,-2874 378.84,-2885.06"/>
<polygon fill="none" stroke="#3fb5e7" points="382.84,-2881.58 382.84,-2910.42 299.6,-2922 191.31,-2922 108.07,-2910.42 108.07,-2881.58 191.31,-2870 299.6,-2870 382.84,-2881.58"/>
<text text-anchor="middle" x="245.46" y="-2892.3" font-family="Roboto" font-size="14.00" fill="#ffffff">gzdoom&#45;4.3.3 (163.52 MiB)</text>
</g>
<!-- N7 -->
<g id="node39" class="node">
<title>N7</title>
<polygon fill="#38f3b6" stroke="#38f3b6" points="410.61,-88.54 410.61,-103.46 313.86,-114 177.05,-114 80.31,-103.46 80.31,-88.54 177.05,-78 313.86,-78 410.61,-88.54"/>
<polygon fill="none" stroke="#38f3b6" points="414.6,-84.96 414.6,-107.04 314.08,-118 176.83,-118 76.31,-107.04 76.31,-84.96 176.83,-74 314.08,-74 414.6,-84.96"/>
<polygon fill="none" stroke="#38f3b6" points="418.6,-81.37 418.6,-110.63 314.3,-122 176.62,-122 72.32,-110.63 72.32,-81.37 176.62,-70 314.3,-70 418.6,-81.37"/>
<text text-anchor="middle" x="245.46" y="-92.3" font-family="Roboto" font-size="14.00" fill="#000000">kodi&#45;with&#45;plugins&#45;18.5 (522.63 MiB)</text>
</g>
<!-- N31 -->
<g id="node56" class="node">
<title>N31</title>
<polygon fill="#3fb0e6" stroke="#3fb0e6" points="718.8,-122 543.8,-122 543.8,-86 718.8,-86 718.8,-122"/>
<text text-anchor="middle" x="631.3" y="-100.3" font-family="Roboto" font-size="14.00" fill="#ffffff">glxinfo&#45;8.4.0 (149.64 MiB)</text>
</g>
<!-- N7&#45;&gt;N31 -->
<g id="edge29" class="edge">
<title>N7&#45;&gt;N31</title>
<path fill="none" stroke="black" d="M418.73,-99.59C458.09,-100.41 498.57,-101.25 533.44,-101.98"/>
<polygon fill="black" stroke="black" points="533.53,-105.48 543.6,-102.19 533.68,-98.49 533.53,-105.48"/>
</g>
<!-- N54 -->
<g id="node40" class="node">
<title>N54</title>
<polygon fill="#4095e4" stroke="#4095e4" points="360.71,-2468.54 360.71,-2483.46 293.2,-2494 197.72,-2494 130.2,-2483.46 130.2,-2468.54 197.72,-2458 293.2,-2458 360.71,-2468.54"/>
<polygon fill="none" stroke="#4095e4" points="364.71,-2465.12 364.71,-2486.88 293.51,-2498 197.41,-2498 126.21,-2486.88 126.21,-2465.12 197.41,-2454 293.51,-2454 364.71,-2465.12"/>
<polygon fill="none" stroke="#4095e4" points="368.7,-2461.7 368.7,-2490.3 293.82,-2502 197.1,-2502 122.21,-2490.3 122.21,-2461.7 197.1,-2450 293.82,-2450 368.7,-2461.7"/>
<text text-anchor="middle" x="245.46" y="-2472.3" font-family="Roboto" font-size="14.00" fill="#ffffff">hunter&#45;1.3.5 (83.67 MiB)</text>
</g>
<!-- N54&#45;&gt;N35 -->
<g id="edge30" class="edge">
<title>N54&#45;&gt;N35</title>
<path fill="none" stroke="black" d="M368.96,-2487.17C423.05,-2492.1 485.64,-2497.81 536,-2502.4"/>
<polygon fill="black" stroke="black" points="535.95,-2505.91 546.23,-2503.33 536.59,-2498.94 535.95,-2505.91"/>
</g>
<!-- N6 -->
<g id="node41" class="node">
<title>N6</title>
<polygon fill="#38f4ab" stroke="#38f4ab" points="377.48,-2958.54 377.48,-2973.46 300.14,-2984 190.77,-2984 113.43,-2973.46 113.43,-2958.54 190.77,-2948 300.14,-2948 377.48,-2958.54"/>
<polygon fill="none" stroke="#38f4ab" points="381.48,-2955.05 381.48,-2976.95 300.41,-2988 190.5,-2988 109.44,-2976.95 109.44,-2955.05 190.5,-2944 300.41,-2944 381.48,-2955.05"/>
<polygon fill="none" stroke="#38f4ab" points="385.47,-2951.56 385.47,-2980.44 300.69,-2992 190.23,-2992 105.44,-2980.44 105.44,-2951.56 190.23,-2940 300.69,-2940 385.47,-2951.56"/>
<text text-anchor="middle" x="245.46" y="-2962.3" font-family="Roboto" font-size="14.00" fill="#000000">arduino&#45;1.8.12 (549.80 MiB)</text>
</g>
<!-- N5 -->
<g id="node42" class="node">
<title>N5</title>
<polygon fill="#3ddaeb" stroke="#3ddaeb" points="455.65,-3028.54 455.65,-3043.46 332.52,-3054 158.39,-3054 35.26,-3043.46 35.26,-3028.54 158.39,-3018 332.52,-3018 455.65,-3028.54"/>
<polygon fill="none" stroke="#3ddaeb" points="459.65,-3024.87 459.65,-3047.13 332.69,-3058 158.22,-3058 31.27,-3047.13 31.27,-3024.87 158.22,-3014 332.69,-3014 459.65,-3024.87"/>
<polygon fill="none" stroke="#3ddaeb" points="463.65,-3021.2 463.65,-3050.8 332.86,-3062 158.05,-3062 27.27,-3050.8 27.27,-3021.2 158.05,-3010 332.86,-3010 463.65,-3021.2"/>
<text text-anchor="middle" x="245.46" y="-3032.3" font-family="Roboto" font-size="14.00" fill="#000000">spotify&#45;1.1.26.501.gbe11e53b&#45;15 (272.57 MiB)</text>
</g>
<!-- N4 -->
<g id="node43" class="node">
<title>N4</title>
<polygon fill="#b2fe2e" stroke="#b2fe2e" points="388.09,-3098.54 388.09,-3113.46 304.54,-3124 186.38,-3124 102.83,-3113.46 102.83,-3098.54 186.38,-3088 304.54,-3088 388.09,-3098.54"/>
<polygon fill="none" stroke="#b2fe2e" points="392.08,-3095.02 392.08,-3116.98 304.79,-3128 186.13,-3128 98.83,-3116.98 98.83,-3095.02 186.13,-3084 304.79,-3084 392.08,-3095.02"/>
<polygon fill="none" stroke="#b2fe2e" points="396.08,-3091.49 396.08,-3120.51 305.04,-3132 185.88,-3132 94.84,-3120.51 94.84,-3091.49 185.88,-3080 305.04,-3080 396.08,-3091.49"/>
<text text-anchor="middle" x="245.46" y="-3102.3" font-family="Roboto" font-size="14.00" fill="#000000">xonotic&#45;sdl&#45;0.8.2 (895.35 MiB)</text>
</g>
<!-- N55 -->
<g id="node44" class="node">
<title>N55</title>
<polygon fill="#4169e1" stroke="#4169e1" points="430.49,-2048.54 430.49,-2063.46 322.1,-2074 168.81,-2074 60.42,-2063.46 60.42,-2048.54 168.81,-2038 322.1,-2038 430.49,-2048.54"/>
<polygon fill="none" stroke="#4169e1" points="434.49,-2044.91 434.49,-2067.09 322.3,-2078 168.62,-2078 56.42,-2067.09 56.42,-2044.91 168.62,-2034 322.3,-2034 434.49,-2044.91"/>
<polygon fill="none" stroke="#4169e1" points="438.49,-2041.28 438.49,-2070.72 322.49,-2082 168.42,-2082 52.42,-2070.72 52.42,-2041.28 168.42,-2030 322.49,-2030 438.49,-2041.28"/>
<text text-anchor="middle" x="245.46" y="-2052.3" font-family="Roboto" font-size="14.00" fill="#ffffff">nvidia&#45;persistenced&#45;440.82 (115.81 KiB)</text>
</g>
<!-- N55&#45;&gt;N32 -->
<g id="edge31" class="edge">
<title>N55&#45;&gt;N32</title>
<path fill="none" stroke="black" d="M379.96,-2035.53C407.72,-2030.98 436.74,-2026.02 463.8,-2021 488.05,-2016.5 514.19,-2011.21 538.42,-2006.13"/>
<polygon fill="black" stroke="black" points="539.25,-2009.53 548.31,-2004.04 537.8,-2002.68 539.25,-2009.53"/>
</g>
<!-- N3 -->
<g id="node45" class="node">
<title>N3</title>
<polygon fill="#3faee6" stroke="#3faee6" points="367.35,-3168.54 367.35,-3183.46 295.95,-3194 194.97,-3194 123.56,-3183.46 123.56,-3168.54 194.97,-3158 295.95,-3158 367.35,-3168.54"/>
<polygon fill="none" stroke="#3faee6" points="371.36,-3165.09 371.36,-3186.91 296.24,-3198 194.67,-3198 119.55,-3186.91 119.55,-3165.09 194.67,-3154 296.24,-3154 371.36,-3165.09"/>
<polygon fill="none" stroke="#3faee6" points="375.37,-3161.64 375.37,-3190.36 296.54,-3202 194.38,-3202 115.55,-3190.36 115.55,-3161.64 194.38,-3150 296.54,-3150 375.37,-3161.64"/>
<text text-anchor="middle" x="245.46" y="-3172.3" font-family="Roboto" font-size="14.00" fill="#ffffff">astroid&#45;0.15 (142.88 MiB)</text>
</g>
<!-- N2 -->
<g id="node46" class="node">
<title>N2</title>
<polygon fill="#fea000" stroke="#fea000" points="376.16,-158.54 376.16,-173.46 299.6,-184 191.32,-184 114.75,-173.46 114.75,-158.54 191.32,-148 299.6,-148 376.16,-158.54"/>
<polygon fill="none" stroke="#fea000" points="380.16,-155.06 380.16,-176.94 299.87,-188 191.04,-188 110.75,-176.94 110.75,-155.06 191.04,-144 299.87,-144 380.16,-155.06"/>
<polygon fill="none" stroke="#fea000" points="384.16,-151.57 384.16,-180.43 300.15,-192 190.77,-192 106.76,-180.43 106.76,-151.57 190.77,-140 300.15,-140 384.16,-151.57"/>
<text text-anchor="middle" x="245.46" y="-162.3" font-family="Roboto" font-size="14.00" fill="#000000">playonlinux&#45;4.3.4 (2.09 GiB)</text>
</g>
<!-- N2&#45;&gt;N37 -->
<g id="edge33" class="edge">
<title>N2&#45;&gt;N37</title>
<path fill="none" stroke="black" d="M384.22,-168.87C418.47,-169.59 455.22,-170.35 489.61,-171.07"/>
<polygon fill="black" stroke="black" points="489.65,-174.57 499.72,-171.28 489.79,-167.57 489.65,-174.57"/>
</g>
<!-- N2&#45;&gt;N31 -->
<g id="edge32" class="edge">
<title>N2&#45;&gt;N31</title>
<path fill="none" stroke="black" d="M358.43,-147.99C392.28,-142.54 429.56,-136.53 463.8,-131 486.34,-127.36 510.59,-123.43 533.42,-119.73"/>
<polygon fill="black" stroke="black" points="534.15,-123.16 543.46,-118.1 533.03,-116.25 534.15,-123.16"/>
</g>
<!-- N1 -->
<g id="node47" class="node">
<title>N1</title>
<polygon fill="#3ecbe9" stroke="#3ecbe9" points="443.73,-3238.54 443.73,-3253.46 327.58,-3264 163.33,-3264 47.18,-3253.46 47.18,-3238.54 163.33,-3228 327.58,-3228 443.73,-3238.54"/>
<polygon fill="none" stroke="#3ecbe9" points="447.73,-3234.89 447.73,-3257.11 327.77,-3268 163.15,-3268 43.18,-3257.11 43.18,-3234.89 163.15,-3224 327.77,-3224 447.73,-3234.89"/>
<polygon fill="none" stroke="#3ecbe9" points="451.73,-3231.24 451.73,-3260.76 327.95,-3272 162.97,-3272 39.19,-3260.76 39.19,-3231.24 162.97,-3220 327.95,-3220 451.73,-3231.24"/>
<text text-anchor="middle" x="245.46" y="-3242.3" font-family="Roboto" font-size="14.00" fill="#000000">papirus&#45;icon&#45;theme&#45;20200602 (223.66 MiB)</text>
</g>
</g>
</svg>
