<?xml version="1.0" encoding="UTF-8" standalone="no"?>
<!DOCTYPE svg PUBLIC "-//W3C//DTD SVG 1.1//EN"
 "http://www.w3.org/Graphics/SVG/1.1/DTD/svg11.dtd">
<!-- Generated by graphviz version 2.43.0 (0)
 -->
<!-- Title: nixstore Pages: 1 -->
<svg width="772pt" height="3280pt"
 viewBox="0.00 0.00 772.38 3280.00" xmlns="http://www.w3.org/2000/svg" xmlns:xlink="http://www.w3.org/1999/xlink">
<g id="graph0" class="graph" transform="scale(1 1) rotate(0) translate(4 3276)">
<title>nixstore</title>
<polygon fill="white" stroke="transparent" points="-4,4 -4,-3276 768.38,-3276 768.38,4 -4,4"/>
<!-- N57 -->
<g id="node1" class="node">
<title>N57</title>
<polygon fill="#fe2900" stroke="#fe2900" points="358.33,-18.54 358.33,-33.46 293.13,-44 200.93,-44 135.74,-33.46 135.74,-18.54 200.93,-8 293.13,-8 358.33,-18.54"/>
<polygon fill="none" stroke="#fe2900" points="362.33,-15.14 362.33,-36.86 293.46,-48 200.61,-48 131.74,-36.86 131.74,-15.14 200.61,-4 293.46,-4 362.33,-15.14"/>
<polygon fill="none" stroke="#fe2900" points="366.34,-11.74 366.34,-40.26 293.78,-52 200.29,-52 127.73,-40.26 127.73,-11.74 200.29,0 293.78,0 366.34,-11.74"/>
<text text-anchor="middle" x="247.03" y="-22.3" font-family="Roboto" font-size="14.00" fill="#000000">{filtered out} (2.15 GiB)</text>
</g>
<!-- N30 -->
<g id="node2" class="node">
<title>N30</title>
<polygon fill="#3af0d8" stroke="#3af0d8" points="390.56,-928.54 390.56,-943.46 306.48,-954 187.58,-954 103.51,-943.46 103.51,-928.54 187.58,-918 306.48,-918 390.56,-928.54"/>
<polygon fill="none" stroke="#3af0d8" points="394.56,-925.01 394.56,-946.99 306.73,-958 187.33,-958 99.51,-946.99 99.51,-925.01 187.33,-914 306.73,-914 394.56,-925.01"/>
<polygon fill="none" stroke="#3af0d8" points="398.56,-921.48 398.56,-950.52 306.98,-962 187.08,-962 95.51,-950.52 95.51,-921.48 187.08,-910 306.98,-910 398.56,-921.48"/>
<text text-anchor="middle" x="247.03" y="-932.3" font-family="Roboto" font-size="14.00" fill="#000000">upwork&#45;5.3.3.862 (358.12 MiB)</text>
</g>
<!-- N35 -->
<g id="node48" class="node">
<title>N35</title>
<polygon fill="#3fb7e7" stroke="#3fb7e7" points="710.38,-954 555.38,-954 555.38,-918 710.38,-918 710.38,-954"/>
<text text-anchor="middle" x="632.88" y="-932.3" font-family="Roboto" font-size="14.00" fill="#000000">gcc&#45;9.3.0 (144.24 MiB)</text>
</g>
<!-- N30&#45;&gt;N35 -->
<g id="edge1" class="edge">
<title>N30&#45;&gt;N35</title>
<path fill="none" stroke="black" d="M398.64,-936C448.32,-936 501.88,-936 545.13,-936"/>
<polygon fill="black" stroke="black" points="545.32,-939.5 555.32,-936 545.32,-932.5 545.32,-939.5"/>
</g>
<!-- N29 -->
<g id="node3" class="node">
<title>N29</title>
<polygon fill="#3af0d2" stroke="#3af0d2" points="378.64,-158.54 378.64,-173.46 301.55,-184 192.52,-184 115.43,-173.46 115.43,-158.54 192.52,-148 301.55,-148 378.64,-158.54"/>
<polygon fill="none" stroke="#3af0d2" points="382.64,-155.05 382.64,-176.95 301.82,-188 192.25,-188 111.43,-176.95 111.43,-155.05 192.25,-144 301.82,-144 382.64,-155.05"/>
<polygon fill="none" stroke="#3af0d2" points="386.64,-151.56 386.64,-180.44 302.09,-192 191.98,-192 107.43,-180.44 107.43,-151.56 191.98,-140 302.09,-140 386.64,-151.56"/>
<text text-anchor="middle" x="247.03" y="-162.3" font-family="Roboto" font-size="14.00" fill="#000000">blender&#45;2.83.0 (375.18 MiB)</text>
</g>
<!-- N40 -->
<g id="node49" class="node">
<title>N40</title>
<polygon fill="#3fb7e7" stroke="#3fb7e7" points="708.38,-184 557.38,-184 557.38,-148 708.38,-148 708.38,-184"/>
<text text-anchor="middle" x="632.88" y="-162.3" font-family="Roboto" font-size="14.00" fill="#000000">lapack&#45;3 (143.80 MiB)</text>
</g>
<!-- N29&#45;&gt;N40 -->
<g id="edge2" class="edge">
<title>N29&#45;&gt;N40</title>
<path fill="none" stroke="black" d="M386.61,-166C440.33,-166 500.1,-166 547.19,-166"/>
<polygon fill="black" stroke="black" points="547.34,-169.5 557.34,-166 547.34,-162.5 547.34,-169.5"/>
</g>
<!-- N28 -->
<g id="node4" class="node">
<title>N28</title>
<polygon fill="#3ceee6" stroke="#3ceee6" points="417.51,-1208.54 417.51,-1223.46 317.65,-1234 176.42,-1234 76.55,-1223.46 76.55,-1208.54 176.42,-1198 317.65,-1198 417.51,-1208.54"/>
<polygon fill="none" stroke="#3ceee6" points="421.52,-1204.94 421.52,-1227.06 317.86,-1238 176.21,-1238 72.55,-1227.06 72.55,-1204.94 176.21,-1194 317.86,-1194 421.52,-1204.94"/>
<polygon fill="none" stroke="#3ceee6" points="425.52,-1201.35 425.52,-1230.65 318.07,-1242 176,-1242 68.54,-1230.65 68.54,-1201.35 176,-1190 318.07,-1190 425.52,-1201.35"/>
<text text-anchor="middle" x="247.03" y="-1212.3" font-family="Roboto" font-size="14.00" fill="#000000">skypeforlinux&#45;8.60.0.76 (308.38 MiB)</text>
</g>
<!-- N27 -->
<g id="node5" class="node">
<title>N27</title>
<polygon fill="#8ffd30" stroke="#8ffd30" points="393.2,-1278.54 393.2,-1293.46 307.58,-1304 186.49,-1304 100.87,-1293.46 100.87,-1278.54 186.49,-1268 307.58,-1268 393.2,-1278.54"/>
<polygon fill="none" stroke="#8ffd30" points="397.19,-1275.01 397.19,-1296.99 307.82,-1308 186.25,-1308 96.88,-1296.99 96.88,-1275.01 186.25,-1264 307.82,-1264 397.19,-1275.01"/>
<polygon fill="none" stroke="#8ffd30" points="401.19,-1271.47 401.19,-1300.53 308.07,-1312 186,-1312 92.88,-1300.53 92.88,-1271.47 186,-1260 308.07,-1260 401.19,-1271.47"/>
<text text-anchor="middle" x="247.03" y="-1282.3" font-family="Roboto" font-size="14.00" fill="#000000">openjdk&#45;11.0.7&#45;ga (695.82 MiB)</text>
</g>
<!-- N41 -->
<g id="node6" class="node">
<title>N41</title>
<polygon fill="#3fa2e5" stroke="#3fa2e5" points="367.14,-858.54 367.14,-873.46 296.78,-884 197.28,-884 126.93,-873.46 126.93,-858.54 197.28,-848 296.78,-848 367.14,-858.54"/>
<polygon fill="none" stroke="#3fa2e5" points="371.14,-855.1 371.14,-876.9 297.08,-888 196.99,-888 122.93,-876.9 122.93,-855.1 196.99,-844 297.08,-844 371.14,-855.1"/>
<polygon fill="none" stroke="#3fa2e5" points="375.13,-851.65 375.13,-880.35 297.38,-892 196.69,-892 118.94,-880.35 118.94,-851.65 196.69,-840 297.38,-840 375.13,-851.65"/>
<text text-anchor="middle" x="247.03" y="-862.3" font-family="Roboto" font-size="14.00" fill="#ffffff">neovim&#45;0.4.3 (98.09 MiB)</text>
</g>
<!-- N41&#45;&gt;N35 -->
<g id="edge3" class="edge">
<title>N41&#45;&gt;N35</title>
<path fill="none" stroke="black" d="M359.06,-882.84C393.22,-888.3 430.9,-894.6 465.38,-901 491.4,-905.83 519.61,-911.56 545.28,-916.98"/>
<polygon fill="black" stroke="black" points="544.85,-920.47 555.36,-919.12 546.3,-913.62 544.85,-920.47"/>
</g>
<!-- N26 -->
<g id="node7" class="node">
<title>N26</title>
<polygon fill="#3fb0e6" stroke="#3fb0e6" points="391.88,-1348.54 391.88,-1363.46 307.03,-1374 187.04,-1374 102.19,-1363.46 102.19,-1348.54 187.04,-1338 307.03,-1338 391.88,-1348.54"/>
<polygon fill="none" stroke="#3fb0e6" points="395.88,-1345.01 395.88,-1366.99 307.28,-1378 186.79,-1378 98.19,-1366.99 98.19,-1345.01 186.79,-1334 307.28,-1334 395.88,-1345.01"/>
<polygon fill="none" stroke="#3fb0e6" points="399.87,-1341.48 399.87,-1370.52 307.52,-1382 186.54,-1382 94.2,-1370.52 94.2,-1341.48 186.54,-1330 307.52,-1330 399.87,-1341.48"/>
<text text-anchor="middle" x="247.03" y="-1352.3" font-family="Roboto" font-size="14.00" fill="#ffffff">prusa&#45;slicer&#45;2.2.0 (127.96 MiB)</text>
</g>
<!-- N42 -->
<g id="node8" class="node">
<title>N42</title>
<polygon fill="#4083e2" stroke="#4083e2" points="367.14,-1488.54 367.14,-1503.46 296.78,-1514 197.28,-1514 126.93,-1503.46 126.93,-1488.54 197.28,-1478 296.78,-1478 367.14,-1488.54"/>
<polygon fill="none" stroke="#4083e2" points="371.14,-1485.1 371.14,-1506.9 297.08,-1518 196.99,-1518 122.93,-1506.9 122.93,-1485.1 196.99,-1474 297.08,-1474 371.14,-1485.1"/>
<polygon fill="none" stroke="#4083e2" points="375.13,-1481.65 375.13,-1510.35 297.38,-1522 196.69,-1522 118.94,-1510.35 118.94,-1481.65 196.69,-1470 297.38,-1470 375.13,-1481.65"/>
<text text-anchor="middle" x="247.03" y="-1492.3" font-family="Roboto" font-size="14.00" fill="#ffffff">firefox&#45;77.0.1 (38.90 MiB)</text>
</g>
<!-- N5 -->
<g id="node42" class="node">
<title>N5</title>
<polygon fill="#3ec6e8" stroke="#3ec6e8" points="423.68,-1418.54 423.68,-1433.46 320.2,-1444 173.86,-1444 70.38,-1433.46 70.38,-1418.54 173.86,-1408 320.2,-1408 423.68,-1418.54"/>
<polygon fill="none" stroke="#3ec6e8" points="427.69,-1414.93 427.69,-1437.07 320.41,-1448 173.66,-1448 66.38,-1437.07 66.38,-1414.93 173.66,-1404 320.41,-1404 427.69,-1414.93"/>
<polygon fill="none" stroke="#3ec6e8" points="431.69,-1411.32 431.69,-1440.68 320.61,-1452 173.46,-1452 62.38,-1440.68 62.38,-1411.32 173.46,-1400 320.61,-1400 431.69,-1411.32"/>
<text text-anchor="middle" x="247.03" y="-1422.3" font-family="Roboto" font-size="14.00" fill="#000000">firefox&#45;unwrapped&#45;77.0.1 (181.35 MiB)</text>
</g>
<!-- N42&#45;&gt;N5 -->
<g id="edge4" class="edge">
<title>N42&#45;&gt;N5</title>
<path fill="none" stroke="black" d="M247.03,-1469.68C247.03,-1467.23 247.03,-1464.78 247.03,-1462.33"/>
<polygon fill="black" stroke="black" points="250.53,-1462.25 247.03,-1452.25 243.53,-1462.25 250.53,-1462.25"/>
</g>
<!-- N25 -->
<g id="node9" class="node">
<title>N25</title>
<polygon fill="#3dd7ea" stroke="#3dd7ea" points="445.31,-1558.54 445.31,-1573.46 329.16,-1584 164.91,-1584 48.76,-1573.46 48.76,-1558.54 164.91,-1548 329.16,-1548 445.31,-1558.54"/>
<polygon fill="none" stroke="#3dd7ea" points="449.31,-1554.89 449.31,-1577.11 329.34,-1588 164.73,-1588 44.76,-1577.11 44.76,-1554.89 164.73,-1544 329.34,-1544 449.31,-1554.89"/>
<polygon fill="none" stroke="#3dd7ea" points="453.3,-1551.24 453.3,-1580.76 329.52,-1592 164.54,-1592 40.76,-1580.76 40.76,-1551.24 164.54,-1540 329.52,-1540 453.3,-1551.24"/>
<text text-anchor="middle" x="247.03" y="-1562.3" font-family="Roboto" font-size="14.00" fill="#000000">papirus&#45;icon&#45;theme&#45;20200602 (223.66 MiB)</text>
</g>
<!-- N24 -->
<g id="node10" class="node">
<title>N24</title>
<polygon fill="#35f871" stroke="#35f871" points="412.18,-2048.54 412.18,-2063.46 315.44,-2074 178.63,-2074 81.88,-2063.46 81.88,-2048.54 178.63,-2038 315.44,-2038 412.18,-2048.54"/>
<polygon fill="none" stroke="#35f871" points="416.18,-2044.96 416.18,-2067.04 315.66,-2078 178.41,-2078 77.89,-2067.04 77.89,-2044.96 178.41,-2034 315.66,-2034 416.18,-2044.96"/>
<polygon fill="none" stroke="#35f871" points="420.18,-2041.37 420.18,-2070.63 315.88,-2082 178.19,-2082 73.89,-2070.63 73.89,-2041.37 178.19,-2030 315.88,-2030 420.18,-2041.37"/>
<text text-anchor="middle" x="247.03" y="-2052.3" font-family="Roboto" font-size="14.00" fill="#000000">kodi&#45;with&#45;plugins&#45;18.5 (564.77 MiB)</text>
</g>
<!-- N31 -->
<g id="node50" class="node">
<title>N31</title>
<polygon fill="#3ddeeb" stroke="#3ddeeb" points="720.38,-2039 545.38,-2039 545.38,-2003 720.38,-2003 720.38,-2039"/>
<text text-anchor="middle" x="632.88" y="-2017.3" font-family="Roboto" font-size="14.00" fill="#000000">glxinfo&#45;8.4.0 (244.34 MiB)</text>
</g>
<!-- N24&#45;&gt;N31 -->
<g id="edge5" class="edge">
<title>N24&#45;&gt;N31</title>
<path fill="none" stroke="black" d="M415,-2040.78C456.02,-2037.03 498.6,-2033.15 535.05,-2029.83"/>
<polygon fill="black" stroke="black" points="535.52,-2033.3 545.16,-2028.91 534.88,-2026.33 535.52,-2033.3"/>
</g>
<!-- N23 -->
<g id="node11" class="node">
<title>N23</title>
<polygon fill="#3cede8" stroke="#3cede8" points="366.72,-2118.54 366.72,-2133.46 296.61,-2144 197.46,-2144 127.35,-2133.46 127.35,-2118.54 197.46,-2108 296.61,-2108 366.72,-2118.54"/>
<polygon fill="none" stroke="#3cede8" points="370.72,-2115.1 370.72,-2136.9 296.91,-2148 197.16,-2148 123.35,-2136.9 123.35,-2115.1 197.16,-2104 296.91,-2104 370.72,-2115.1"/>
<polygon fill="none" stroke="#3cede8" points="374.72,-2111.66 374.72,-2140.34 297.21,-2152 196.86,-2152 119.35,-2140.34 119.35,-2111.66 196.86,-2100 297.21,-2100 374.72,-2111.66"/>
<text text-anchor="middle" x="247.03" y="-2122.3" font-family="Roboto" font-size="14.00" fill="#000000">elixir&#45;1.10.3 (301.46 MiB)</text>
</g>
<!-- N43 -->
<g id="node12" class="node">
<title>N43</title>
<polygon fill="#408ce3" stroke="#408ce3" points="363.61,-648.54 363.61,-663.46 295.32,-674 198.75,-674 130.46,-663.46 130.46,-648.54 198.75,-638 295.32,-638 363.61,-648.54"/>
<polygon fill="none" stroke="#408ce3" points="367.6,-645.11 367.6,-666.89 295.63,-678 198.44,-678 126.47,-666.89 126.47,-645.11 198.44,-634 295.63,-634 367.6,-645.11"/>
<polygon fill="none" stroke="#408ce3" points="371.59,-641.68 371.59,-670.32 295.93,-682 198.14,-682 122.47,-670.32 122.47,-641.68 198.14,-630 295.93,-630 371.59,-641.68"/>
<text text-anchor="middle" x="247.03" y="-652.3" font-family="Roboto" font-size="14.00" fill="#ffffff">astroid&#45;0.15 (55.96 MiB)</text>
</g>
<!-- N37 -->
<g id="node51" class="node">
<title>N37</title>
<polygon fill="#3fa4e5" stroke="#3fa4e5" points="732.88,-744 532.88,-744 532.88,-708 732.88,-708 732.88,-744"/>
<text text-anchor="middle" x="632.88" y="-722.3" font-family="Roboto" font-size="14.00" fill="#ffffff">webkitgtk&#45;2.28.2 (102.39 MiB)</text>
</g>
<!-- N43&#45;&gt;N37 -->
<g id="edge6" class="edge">
<title>N43&#45;&gt;N37</title>
<path fill="none" stroke="black" d="M357.38,-672.57C391.99,-678.09 430.34,-684.5 465.38,-691 489.63,-695.5 515.77,-700.79 539.99,-705.87"/>
<polygon fill="black" stroke="black" points="539.38,-709.32 549.89,-707.96 540.82,-702.47 539.38,-709.32"/>
</g>
<!-- N22 -->
<g id="node13" class="node">
<title>N22</title>
<polygon fill="#fea200" stroke="#fea200" points="341.09,-1908.54 341.09,-1923.46 285.99,-1934 208.08,-1934 152.98,-1923.46 152.98,-1908.54 208.08,-1898 285.99,-1898 341.09,-1908.54"/>
<polygon fill="none" stroke="#fea200" points="345.08,-1905.24 345.08,-1926.76 286.37,-1938 207.7,-1938 148.99,-1926.76 148.99,-1905.24 207.7,-1894 286.37,-1894 345.08,-1905.24"/>
<polygon fill="none" stroke="#fea200" points="349.07,-1901.93 349.07,-1930.07 286.75,-1942 207.32,-1942 145,-1930.07 145,-1901.93 207.32,-1890 286.75,-1890 349.07,-1901.93"/>
<text text-anchor="middle" x="247.03" y="-1912.3" font-family="Roboto" font-size="14.00" fill="#000000">wine&#45;5.0 (1.79 GiB)</text>
</g>
<!-- N38 -->
<g id="node52" class="node">
<title>N38</title>
<polygon fill="#3cede9" stroke="#3cede9" points="743.88,-1872 521.88,-1872 521.88,-1836 743.88,-1836 743.88,-1872"/>
<text text-anchor="middle" x="632.88" y="-1850.3" font-family="Roboto" font-size="14.00" fill="#000000">fontconfig&#45;2.12.6&#45;lib (297.68 MiB)</text>
</g>
<!-- N22&#45;&gt;N38 -->
<g id="edge7" class="edge">
<title>N22&#45;&gt;N38</title>
<path fill="none" stroke="black" d="M342.99,-1900.73C381.04,-1894.61 425.29,-1887.48 465.38,-1881 480.32,-1878.59 496.01,-1876.05 511.55,-1873.53"/>
<polygon fill="black" stroke="black" points="512.41,-1876.94 521.72,-1871.88 511.29,-1870.03 512.41,-1876.94"/>
</g>
<!-- N39 -->
<g id="node53" class="node">
<title>N39</title>
<polygon fill="#3fb5e7" stroke="#3fb5e7" points="764.38,-1942 501.38,-1942 501.38,-1906 764.38,-1906 764.38,-1942"/>
<text text-anchor="middle" x="632.88" y="-1920.3" font-family="Roboto" font-size="14.00" fill="#ffffff">wine&#45;gecko&#45;2.47.1&#45;x86.msi (139.24 MiB)</text>
</g>
<!-- N22&#45;&gt;N39 -->
<g id="edge8" class="edge">
<title>N22&#45;&gt;N39</title>
<path fill="none" stroke="black" d="M349.14,-1918.11C392.49,-1919.01 443.88,-1920.08 490.87,-1921.06"/>
<polygon fill="black" stroke="black" points="491.07,-1924.57 501.14,-1921.28 491.22,-1917.57 491.07,-1924.57"/>
</g>
<!-- N21 -->
<g id="node14" class="node">
<title>N21</title>
<polygon fill="#c1fe2b" stroke="#c1fe2b" points="344.19,-1838.54 344.19,-1853.46 287.28,-1864 206.79,-1864 149.88,-1853.46 149.88,-1838.54 206.79,-1828 287.28,-1828 344.19,-1838.54"/>
<polygon fill="none" stroke="#c1fe2b" points="348.2,-1835.22 348.2,-1856.78 287.65,-1868 206.42,-1868 145.87,-1856.78 145.87,-1835.22 206.42,-1824 287.65,-1824 348.2,-1835.22"/>
<polygon fill="none" stroke="#c1fe2b" points="352.2,-1831.89 352.2,-1860.11 288.01,-1872 206.05,-1872 141.87,-1860.11 141.87,-1831.89 206.05,-1820 288.01,-1820 352.2,-1831.89"/>
<text text-anchor="middle" x="247.03" y="-1842.3" font-family="Roboto" font-size="14.00" fill="#000000">steam (841.77 MiB)</text>
</g>
<!-- N2 -->
<g id="node46" class="node">
<title>N2</title>
<polygon fill="#3dd1e9" stroke="#3dd1e9" points="394.09,-1628.54 394.09,-1643.46 307.95,-1654 186.12,-1654 99.98,-1643.46 99.98,-1628.54 186.12,-1618 307.95,-1618 394.09,-1628.54"/>
<polygon fill="none" stroke="#3dd1e9" points="398.09,-1625 398.09,-1647 308.19,-1658 185.88,-1658 95.98,-1647 95.98,-1625 185.88,-1614 308.19,-1614 398.09,-1625"/>
<polygon fill="none" stroke="#3dd1e9" points="402.09,-1621.46 402.09,-1650.54 308.44,-1662 185.63,-1662 91.97,-1650.54 91.97,-1621.46 185.63,-1610 308.44,-1610 402.09,-1621.46"/>
<text text-anchor="middle" x="247.03" y="-1632.3" font-family="Roboto" font-size="14.00" fill="#000000">glibc&#45;locales&#45;2.30 (209.50 MiB)</text>
</g>
<!-- N21&#45;&gt;N2 -->
<g id="edge9" class="edge">
<title>N21&#45;&gt;N2</title>
<path fill="none" stroke="black" d="M141.95,-1858.05C91.94,-1857.24 37.35,-1845.14 10.69,-1802 -3.56,-1778.94 -3.56,-1703.06 10.69,-1680 26.71,-1654.08 52.81,-1639.37 81.94,-1631.58"/>
<polygon fill="black" stroke="black" points="83.01,-1634.92 91.92,-1629.19 81.38,-1628.11 83.01,-1634.92"/>
</g>
<!-- N21&#45;&gt;N38 -->
<g id="edge11" class="edge">
<title>N21&#45;&gt;N38</title>
<path fill="none" stroke="black" d="M352.16,-1848.17C401.39,-1849.2 460.43,-1850.43 511.56,-1851.49"/>
<polygon fill="black" stroke="black" points="511.61,-1854.99 521.68,-1851.7 511.75,-1848 511.61,-1854.99"/>
</g>
<!-- N34 -->
<g id="node54" class="node">
<title>N34</title>
<polygon fill="#3ceee7" stroke="#3ceee7" points="730.38,-1802 535.38,-1802 535.38,-1766 730.38,-1766 730.38,-1802"/>
<text text-anchor="middle" x="632.88" y="-1780.3" font-family="Roboto" font-size="14.00" fill="#000000">mono&#45;5.20.1.27 (307.36 MiB)</text>
</g>
<!-- N21&#45;&gt;N34 -->
<g id="edge10" class="edge">
<title>N21&#45;&gt;N34</title>
<path fill="none" stroke="black" d="M344.6,-1830.47C382.29,-1824.41 425.86,-1817.39 465.38,-1811 484.67,-1807.88 505.21,-1804.56 525.05,-1801.34"/>
<polygon fill="black" stroke="black" points="525.72,-1804.78 535.03,-1799.72 524.6,-1797.87 525.72,-1804.78"/>
</g>
<!-- N20 -->
<g id="node15" class="node">
<title>N20</title>
<polygon fill="#cbfe29" stroke="#cbfe29" points="389.66,-2188.54 389.66,-2203.46 306.11,-2214 187.96,-2214 104.41,-2203.46 104.41,-2188.54 187.96,-2178 306.11,-2178 389.66,-2188.54"/>
<polygon fill="none" stroke="#cbfe29" points="393.66,-2185.02 393.66,-2206.98 306.36,-2218 187.7,-2218 100.41,-2206.98 100.41,-2185.02 187.7,-2174 306.36,-2174 393.66,-2185.02"/>
<polygon fill="none" stroke="#cbfe29" points="397.65,-2181.49 397.65,-2210.51 306.61,-2222 187.45,-2222 96.42,-2210.51 96.42,-2181.49 187.45,-2170 306.61,-2170 397.65,-2181.49"/>
<text text-anchor="middle" x="247.03" y="-2192.3" font-family="Roboto" font-size="14.00" fill="#000000">xonotic&#45;sdl&#45;0.8.2 (895.35 MiB)</text>
</g>
<!-- N44 -->
<g id="node16" class="node">
<title>N44</title>
<polygon fill="#406ce1" stroke="#406ce1" points="364.5,-1138.54 364.5,-1153.46 295.69,-1164 198.38,-1164 129.57,-1153.46 129.57,-1138.54 198.38,-1128 295.69,-1128 364.5,-1138.54"/>
<polygon fill="none" stroke="#406ce1" points="368.5,-1135.11 368.5,-1156.89 296,-1168 198.07,-1168 125.57,-1156.89 125.57,-1135.11 198.07,-1124 296,-1124 368.5,-1135.11"/>
<polygon fill="none" stroke="#406ce1" points="372.5,-1131.68 372.5,-1160.32 296.3,-1172 197.77,-1172 121.57,-1160.32 121.57,-1131.68 197.77,-1120 296.3,-1120 372.5,-1131.68"/>
<text text-anchor="middle" x="247.03" y="-1142.3" font-family="Roboto" font-size="14.00" fill="#ffffff">nethack&#45;3.6.6 (4.58 MiB)</text>
</g>
<!-- N44&#45;&gt;N35 -->
<g id="edge12" class="edge">
<title>N44&#45;&gt;N35</title>
<path fill="none" stroke="black" d="M372.64,-1140.01C404.21,-1134.77 437.15,-1125.88 465.38,-1111 532.7,-1075.53 588.23,-1002.42 614.87,-962.85"/>
<polygon fill="black" stroke="black" points="618.12,-964.29 620.71,-954.02 612.28,-960.43 618.12,-964.29"/>
</g>
<!-- N19 -->
<g id="node17" class="node">
<title>N19</title>
<polygon fill="#3fb5e7" stroke="#3fb5e7" points="358.33,-2258.54 358.33,-2273.46 293.13,-2284 200.93,-2284 135.74,-2273.46 135.74,-2258.54 200.93,-2248 293.13,-2248 358.33,-2258.54"/>
<polygon fill="none" stroke="#3fb5e7" points="362.33,-2255.14 362.33,-2276.86 293.46,-2288 200.61,-2288 131.74,-2276.86 131.74,-2255.14 200.61,-2244 293.46,-2244 362.33,-2255.14"/>
<polygon fill="none" stroke="#3fb5e7" points="366.34,-2251.74 366.34,-2280.26 293.78,-2292 200.29,-2292 127.73,-2280.26 127.73,-2251.74 200.29,-2240 293.78,-2240 366.34,-2251.74"/>
<text text-anchor="middle" x="247.03" y="-2262.3" font-family="Roboto" font-size="14.00" fill="#ffffff">vlc&#45;3.0.11 (139.72 MiB)</text>
</g>
<!-- N18 -->
<g id="node18" class="node">
<title>N18</title>
<polygon fill="#e0fe24" stroke="#e0fe24" points="391.88,-788.54 391.88,-803.46 307.03,-814 187.04,-814 102.19,-803.46 102.19,-788.54 187.04,-778 307.03,-778 391.88,-788.54"/>
<polygon fill="none" stroke="#e0fe24" points="395.88,-785.01 395.88,-806.99 307.28,-818 186.79,-818 98.19,-806.99 98.19,-785.01 186.79,-774 307.28,-774 395.88,-785.01"/>
<polygon fill="none" stroke="#e0fe24" points="399.87,-781.48 399.87,-810.52 307.52,-822 186.54,-822 94.2,-810.52 94.2,-781.48 186.54,-770 307.52,-770 399.87,-781.48"/>
<text text-anchor="middle" x="247.03" y="-792.3" font-family="Roboto" font-size="14.00" fill="#000000">bookworm&#45;1.1.2 (1018.77 MiB)</text>
</g>
<!-- N18&#45;&gt;N35 -->
<g id="edge13" class="edge">
<title>N18&#45;&gt;N35</title>
<path fill="none" stroke="black" d="M394.25,-811.24C418.45,-816.1 442.94,-822.53 465.38,-831 517.03,-850.51 569.8,-887.21 601.71,-911.64"/>
<polygon fill="black" stroke="black" points="599.7,-914.51 609.75,-917.87 603.99,-908.98 599.7,-914.51"/>
</g>
<!-- N18&#45;&gt;N37 -->
<g id="edge14" class="edge">
<title>N18&#45;&gt;N37</title>
<path fill="none" stroke="black" d="M368.92,-777.58C400.38,-772.5 434.19,-766.79 465.38,-761 489.63,-756.5 515.77,-751.21 539.99,-746.13"/>
<polygon fill="black" stroke="black" points="540.82,-749.53 549.89,-744.04 539.38,-742.68 540.82,-749.53"/>
</g>
<!-- N17 -->
<g id="node19" class="node">
<title>N17</title>
<polygon fill="#3ec4e8" stroke="#3ec4e8" points="387.92,-2328.54 387.92,-2343.46 305.39,-2354 188.68,-2354 106.15,-2343.46 106.15,-2328.54 188.68,-2318 305.39,-2318 387.92,-2328.54"/>
<polygon fill="none" stroke="#3ec4e8" points="391.93,-2325.02 391.93,-2346.98 305.65,-2358 188.42,-2358 102.14,-2346.98 102.14,-2325.02 188.42,-2314 305.65,-2314 391.93,-2325.02"/>
<polygon fill="none" stroke="#3ec4e8" points="395.93,-2321.5 395.93,-2350.5 305.9,-2362 188.17,-2362 98.14,-2350.5 98.14,-2321.5 188.17,-2310 305.9,-2310 395.93,-2321.5"/>
<text text-anchor="middle" x="247.03" y="-2332.3" font-family="Roboto" font-size="14.00" fill="#000000">mongodb&#45;3.4.24 (174.69 MiB)</text>
</g>
<!-- N16 -->
<g id="node20" class="node">
<title>N16</title>
<polygon fill="#fe0000" stroke="#fe0000" points="429.43,-1068.54 429.43,-1083.46 322.59,-1094 171.48,-1094 64.63,-1083.46 64.63,-1068.54 171.48,-1058 322.59,-1058 429.43,-1068.54"/>
<polygon fill="none" stroke="#fe0000" points="433.44,-1064.92 433.44,-1087.08 322.78,-1098 171.28,-1098 60.63,-1087.08 60.63,-1064.92 171.28,-1054 322.78,-1054 433.44,-1064.92"/>
<polygon fill="none" stroke="#fe0000" points="437.44,-1061.3 437.44,-1090.7 322.98,-1102 171.09,-1102 56.62,-1090.7 56.62,-1061.3 171.09,-1050 322.98,-1050 437.44,-1061.3"/>
<text text-anchor="middle" x="247.03" y="-1072.3" font-family="Roboto" font-size="14.00" fill="#000000">xmonad&#45;with&#45;packages&#45;8.8.3 (2.18 GiB)</text>
</g>
<!-- N16&#45;&gt;N35 -->
<g id="edge15" class="edge">
<title>N16&#45;&gt;N35</title>
<path fill="none" stroke="black" d="M406.41,-1058.19C426.59,-1053.69 446.7,-1048.06 465.38,-1041 517.03,-1021.49 569.8,-984.79 601.71,-960.36"/>
<polygon fill="black" stroke="black" points="603.99,-963.02 609.75,-954.13 599.7,-957.49 603.99,-963.02"/>
</g>
<!-- N15 -->
<g id="node21" class="node">
<title>N15</title>
<polygon fill="#3ebfe8" stroke="#3ebfe8" points="376.42,-2398.54 376.42,-2413.46 300.63,-2424 193.44,-2424 117.65,-2413.46 117.65,-2398.54 193.44,-2388 300.63,-2388 376.42,-2398.54"/>
<polygon fill="none" stroke="#3ebfe8" points="380.42,-2395.06 380.42,-2416.94 300.91,-2428 193.16,-2428 113.65,-2416.94 113.65,-2395.06 193.16,-2384 300.91,-2384 380.42,-2395.06"/>
<polygon fill="none" stroke="#3ebfe8" points="384.42,-2391.58 384.42,-2420.42 301.18,-2432 192.89,-2432 109.65,-2420.42 109.65,-2391.58 192.89,-2380 301.18,-2380 384.42,-2391.58"/>
<text text-anchor="middle" x="247.03" y="-2402.3" font-family="Roboto" font-size="14.00" fill="#000000">gzdoom&#45;4.3.3 (163.52 MiB)</text>
</g>
<!-- N45 -->
<g id="node22" class="node">
<title>N45</title>
<polygon fill="#4074e1" stroke="#4074e1" points="375.1,-368.54 375.1,-383.46 300.08,-394 193.99,-394 118.96,-383.46 118.96,-368.54 193.99,-358 300.08,-358 375.1,-368.54"/>
<polygon fill="none" stroke="#4074e1" points="379.1,-365.07 379.1,-386.93 300.36,-398 193.71,-398 114.96,-386.93 114.96,-365.07 193.71,-354 300.36,-354 379.1,-365.07"/>
<polygon fill="none" stroke="#4074e1" points="383.11,-361.59 383.11,-390.41 300.64,-402 193.43,-402 110.96,-390.41 110.96,-361.59 193.43,-350 300.64,-350 383.11,-361.59"/>
<text text-anchor="middle" x="247.03" y="-372.3" font-family="Roboto" font-size="14.00" fill="#ffffff">tigervnc&#45;1.10.1 (15.93 MiB)</text>
</g>
<!-- N36 -->
<g id="node55" class="node">
<title>N36</title>
<polygon fill="#37f5a6" stroke="#37f5a6" points="728.38,-464 537.38,-464 537.38,-428 728.38,-428 728.38,-464"/>
<text text-anchor="middle" x="632.88" y="-442.3" font-family="Roboto" font-size="14.00" fill="#000000">libGL&#45;1.3.1&#45;dev (482.85 MiB)</text>
</g>
<!-- N45&#45;&gt;N36 -->
<g id="edge16" class="edge">
<title>N45&#45;&gt;N36</title>
<path fill="none" stroke="black" d="M362.42,-393.37C395.68,-398.71 432.03,-404.81 465.38,-411 489.63,-415.5 515.77,-420.79 539.99,-425.87"/>
<polygon fill="black" stroke="black" points="539.38,-429.32 549.89,-427.96 540.82,-422.47 539.38,-429.32"/>
</g>
<!-- N46 -->
<g id="node23" class="node">
<title>N46</title>
<polygon fill="#3fa0e5" stroke="#3fa0e5" points="394.09,-998.54 394.09,-1013.46 307.95,-1024 186.12,-1024 99.98,-1013.46 99.98,-998.54 186.12,-988 307.95,-988 394.09,-998.54"/>
<polygon fill="none" stroke="#3fa0e5" points="398.09,-995 398.09,-1017 308.19,-1028 185.88,-1028 95.98,-1017 95.98,-995 185.88,-984 308.19,-984 398.09,-995"/>
<polygon fill="none" stroke="#3fa0e5" points="402.09,-991.46 402.09,-1020.54 308.44,-1032 185.63,-1032 91.97,-1020.54 91.97,-991.46 185.63,-980 308.44,-980 402.09,-991.46"/>
<text text-anchor="middle" x="247.03" y="-1002.3" font-family="Roboto" font-size="14.00" fill="#ffffff">stepmania&#45;5.1.0&#45;b2 (93.35 MiB)</text>
</g>
<!-- N46&#45;&gt;N35 -->
<g id="edge17" class="edge">
<title>N46&#45;&gt;N35</title>
<path fill="none" stroke="black" d="M369.77,-987.44C400.99,-982.4 434.47,-976.73 465.38,-971 491.4,-966.17 519.61,-960.44 545.28,-955.02"/>
<polygon fill="black" stroke="black" points="546.3,-958.38 555.36,-952.88 544.85,-951.53 546.3,-958.38"/>
</g>
<!-- N47 -->
<g id="node24" class="node">
<title>N47</title>
<polygon fill="#4084e2" stroke="#4084e2" points="421.47,-1768.54 421.47,-1783.46 319.29,-1794 174.78,-1794 72.6,-1783.46 72.6,-1768.54 174.78,-1758 319.29,-1758 421.47,-1768.54"/>
<polygon fill="none" stroke="#4084e2" points="425.47,-1764.94 425.47,-1787.06 319.49,-1798 174.58,-1798 68.6,-1787.06 68.6,-1764.94 174.58,-1754 319.49,-1754 425.47,-1764.94"/>
<polygon fill="none" stroke="#4084e2" points="429.47,-1761.33 429.47,-1790.67 319.7,-1802 174.37,-1802 64.6,-1790.67 64.6,-1761.33 174.37,-1750 319.7,-1750 429.47,-1761.33"/>
<text text-anchor="middle" x="247.03" y="-1772.3" font-family="Roboto" font-size="14.00" fill="#ffffff">openra&#45;release&#45;20190314 (40.77 MiB)</text>
</g>
<!-- N47&#45;&gt;N34 -->
<g id="edge18" class="edge">
<title>N47&#45;&gt;N34</title>
<path fill="none" stroke="black" d="M429.56,-1779.78C462.17,-1780.46 495.19,-1781.15 524.83,-1781.77"/>
<polygon fill="black" stroke="black" points="525.09,-1785.28 535.16,-1781.98 525.24,-1778.28 525.09,-1785.28"/>
</g>
<!-- N14 -->
<g id="node25" class="node">
<title>N14</title>
<polygon fill="#3ceee7" stroke="#3ceee7" points="446.21,-2468.54 446.21,-2483.46 329.53,-2494 164.53,-2494 47.86,-2483.46 47.86,-2468.54 164.53,-2458 329.53,-2458 446.21,-2468.54"/>
<polygon fill="none" stroke="#3ceee7" points="450.21,-2464.89 450.21,-2487.11 329.71,-2498 164.35,-2498 43.86,-2487.11 43.86,-2464.89 164.35,-2454 329.71,-2454 450.21,-2464.89"/>
<polygon fill="none" stroke="#3ceee7" points="454.21,-2461.23 454.21,-2490.77 329.9,-2502 164.17,-2502 39.86,-2490.77 39.86,-2461.23 164.17,-2450 329.9,-2450 454.21,-2461.23"/>
<text text-anchor="middle" x="247.03" y="-2472.3" font-family="Roboto" font-size="14.00" fill="#000000">google&#45;chrome&#45;83.0.4103.106 (307.24 MiB)</text>
</g>
<!-- N48 -->
<g id="node26" class="node">
<title>N48</title>
<polygon fill="#4075e1" stroke="#4075e1" points="376,-2608.54 376,-2623.46 300.45,-2634 193.62,-2634 118.07,-2623.46 118.07,-2608.54 193.62,-2598 300.45,-2598 376,-2608.54"/>
<polygon fill="none" stroke="#4075e1" points="380.01,-2605.06 380.01,-2626.94 300.73,-2638 193.34,-2638 114.06,-2626.94 114.06,-2605.06 193.34,-2594 300.73,-2594 380.01,-2605.06"/>
<polygon fill="none" stroke="#4075e1" points="384.01,-2601.58 384.01,-2630.42 301.01,-2642 193.06,-2642 110.06,-2630.42 110.06,-2601.58 193.06,-2590 301.01,-2590 384.01,-2601.58"/>
<text text-anchor="middle" x="247.03" y="-2612.3" font-family="Roboto" font-size="14.00" fill="#ffffff">nomacs&#45;3.14.2 (17.37 MiB)</text>
</g>
<!-- N33 -->
<g id="node56" class="node">
<title>N33</title>
<polygon fill="#3fa2e5" stroke="#3fa2e5" points="717.88,-2599 547.88,-2599 547.88,-2563 717.88,-2563 717.88,-2599"/>
<text text-anchor="middle" x="632.88" y="-2577.3" font-family="Roboto" font-size="14.00" fill="#ffffff">opencv&#45;4.3.0 (98.60 MiB)</text>
</g>
<!-- N48&#45;&gt;N33 -->
<g id="edge19" class="edge">
<title>N48&#45;&gt;N33</title>
<path fill="none" stroke="black" d="M383.9,-2603.61C434.74,-2598.98 491.32,-2593.82 537.59,-2589.6"/>
<polygon fill="black" stroke="black" points="537.96,-2593.08 547.6,-2588.68 537.32,-2586.11 537.96,-2593.08"/>
</g>
<!-- N13 -->
<g id="node27" class="node">
<title>N13</title>
<polygon fill="#3ce6ec" stroke="#3ce6ec" points="427.22,-2678.54 427.22,-2693.46 321.67,-2704 172.4,-2704 66.85,-2693.46 66.85,-2678.54 172.4,-2668 321.67,-2668 427.22,-2678.54"/>
<polygon fill="none" stroke="#3ce6ec" points="431.22,-2674.92 431.22,-2697.08 321.87,-2708 172.2,-2708 62.85,-2697.08 62.85,-2674.92 172.2,-2664 321.87,-2664 431.22,-2674.92"/>
<polygon fill="none" stroke="#3ce6ec" points="435.22,-2671.3 435.22,-2700.7 322.07,-2712 172,-2712 58.85,-2700.7 58.85,-2671.3 172,-2660 322.07,-2660 435.22,-2671.3"/>
<text text-anchor="middle" x="247.03" y="-2682.3" font-family="Roboto" font-size="14.00" fill="#000000">qemu&#45;host&#45;cpu&#45;only&#45;5.0.0 (267.68 MiB)</text>
</g>
<!-- N49 -->
<g id="node28" class="node">
<title>N49</title>
<polygon fill="#4076e1" stroke="#4076e1" points="349.05,-298.54 349.05,-313.46 289.29,-324 204.78,-324 145.02,-313.46 145.02,-298.54 204.78,-288 289.29,-288 349.05,-298.54"/>
<polygon fill="none" stroke="#4076e1" points="353.05,-295.19 353.05,-316.81 289.64,-328 204.43,-328 141.02,-316.81 141.02,-295.19 204.43,-284 289.64,-284 353.05,-295.19"/>
<polygon fill="none" stroke="#4076e1" points="357.05,-291.83 357.05,-320.17 289.99,-332 204.08,-332 137.02,-320.17 137.02,-291.83 204.08,-280 289.99,-280 357.05,-291.83"/>
<text text-anchor="middle" x="247.03" y="-302.3" font-family="Roboto" font-size="14.00" fill="#ffffff">piper&#45;0.5 (18.54 MiB)</text>
</g>
<!-- N49&#45;&gt;N36 -->
<g id="edge20" class="edge">
<title>N49&#45;&gt;N36</title>
<path fill="none" stroke="black" d="M357.22,-314.85C392.52,-320 431.32,-328.14 465.38,-341 517.03,-360.51 569.8,-397.21 601.71,-421.64"/>
<polygon fill="black" stroke="black" points="599.7,-424.51 609.75,-427.87 603.99,-418.98 599.7,-424.51"/>
</g>
<!-- N12 -->
<g id="node29" class="node">
<title>N12</title>
<polygon fill="#3cede8" stroke="#3cede8" points="358.75,-2748.54 358.75,-2763.46 293.31,-2774 200.76,-2774 135.31,-2763.46 135.31,-2748.54 200.76,-2738 293.31,-2738 358.75,-2748.54"/>
<polygon fill="none" stroke="#3cede8" points="362.75,-2745.14 362.75,-2766.86 293.63,-2778 200.44,-2778 131.32,-2766.86 131.32,-2745.14 200.44,-2734 293.63,-2734 362.75,-2745.14"/>
<polygon fill="none" stroke="#3cede8" points="366.74,-2741.73 366.74,-2770.27 293.95,-2782 200.12,-2782 127.32,-2770.27 127.32,-2741.73 200.12,-2730 293.95,-2730 366.74,-2741.73"/>
<text text-anchor="middle" x="247.03" y="-2752.3" font-family="Roboto" font-size="14.00" fill="#000000">X11&#45;fonts (304.00 MiB)</text>
</g>
<!-- N50 -->
<g id="node30" class="node">
<title>N50</title>
<polygon fill="#408be3" stroke="#408be3" points="408.23,-718.54 408.23,-733.46 313.8,-744 180.27,-744 85.84,-733.46 85.84,-718.54 180.27,-708 313.8,-708 408.23,-718.54"/>
<polygon fill="none" stroke="#408be3" points="412.23,-714.97 412.23,-737.03 314.03,-748 180.04,-748 81.84,-737.03 81.84,-714.97 180.04,-704 314.03,-704 412.23,-714.97"/>
<polygon fill="none" stroke="#408be3" points="416.23,-711.39 416.23,-740.61 314.25,-752 179.82,-752 77.83,-740.61 77.83,-711.39 179.82,-700 314.25,-700 416.23,-711.39"/>
<text text-anchor="middle" x="247.03" y="-722.3" font-family="Roboto" font-size="14.00" fill="#ffffff">dwarf&#45;fortress&#45;0.47.04 (54.32 MiB)</text>
</g>
<!-- N50&#45;&gt;N35 -->
<g id="edge21" class="edge">
<title>N50&#45;&gt;N35</title>
<path fill="none" stroke="black" d="M413.75,-740.99C431.73,-746.01 449.32,-752.54 465.38,-761 532.7,-796.47 588.23,-869.58 614.87,-909.15"/>
<polygon fill="black" stroke="black" points="612.28,-911.57 620.71,-917.98 618.12,-907.71 612.28,-911.57"/>
</g>
<!-- N50&#45;&gt;N36 -->
<g id="edge22" class="edge">
<title>N50&#45;&gt;N36</title>
<path fill="none" stroke="black" d="M416.35,-713.22C433.67,-707.77 450.39,-700.54 465.38,-691 548.96,-637.8 601.04,-525.92 621.69,-473.81"/>
<polygon fill="black" stroke="black" points="625.06,-474.81 625.41,-464.22 618.53,-472.28 625.06,-474.81"/>
</g>
<!-- N51 -->
<g id="node31" class="node">
<title>N51</title>
<polygon fill="#408be3" stroke="#408be3" points="389.66,-578.54 389.66,-593.46 306.11,-604 187.96,-604 104.41,-593.46 104.41,-578.54 187.96,-568 306.11,-568 389.66,-578.54"/>
<polygon fill="none" stroke="#408be3" points="393.66,-575.02 393.66,-596.98 306.36,-608 187.7,-608 100.41,-596.98 100.41,-575.02 187.7,-564 306.36,-564 393.66,-575.02"/>
<polygon fill="none" stroke="#408be3" points="397.65,-571.49 397.65,-600.51 306.61,-612 187.45,-612 96.42,-600.51 96.42,-571.49 187.45,-560 306.61,-560 397.65,-571.49"/>
<text text-anchor="middle" x="247.03" y="-582.3" font-family="Roboto" font-size="14.00" fill="#ffffff">virt&#45;manager&#45;2.2.1 (53.66 MiB)</text>
</g>
<!-- N51&#45;&gt;N36 -->
<g id="edge23" class="edge">
<title>N51&#45;&gt;N36</title>
<path fill="none" stroke="black" d="M393.38,-570.94C417.86,-566.05 442.67,-559.58 465.38,-551 517.03,-531.49 569.8,-494.79 601.71,-470.36"/>
<polygon fill="black" stroke="black" points="603.99,-473.02 609.75,-464.13 599.7,-467.49 603.99,-473.02"/>
</g>
<!-- N11 -->
<g id="node32" class="node">
<title>N11</title>
<polygon fill="#35f77c" stroke="#35f77c" points="388.34,-508.54 388.34,-523.46 305.57,-534 188.5,-534 105.72,-523.46 105.72,-508.54 188.5,-498 305.57,-498 388.34,-508.54"/>
<polygon fill="none" stroke="#35f77c" points="392.34,-505.02 392.34,-526.98 305.82,-538 188.25,-538 101.73,-526.98 101.73,-505.02 188.25,-494 305.82,-494 392.34,-505.02"/>
<polygon fill="none" stroke="#35f77c" points="396.34,-501.5 396.34,-530.5 306.07,-542 188,-542 97.73,-530.5 97.73,-501.5 188,-490 306.07,-490 396.34,-501.5"/>
<text text-anchor="middle" x="247.03" y="-512.3" font-family="Roboto" font-size="14.00" fill="#000000">wesnoth&#45;1.14.12 (551.77 MiB)</text>
</g>
<!-- N11&#45;&gt;N36 -->
<g id="edge24" class="edge">
<title>N11&#45;&gt;N36</title>
<path fill="none" stroke="black" d="M367.5,-497.81C399.36,-492.67 433.72,-486.87 465.38,-481 489.63,-476.5 515.77,-471.21 539.99,-466.13"/>
<polygon fill="black" stroke="black" points="540.82,-469.53 549.89,-464.04 539.38,-462.68 540.82,-469.53"/>
</g>
<!-- N52 -->
<g id="node33" class="node">
<title>N52</title>
<polygon fill="#4089e3" stroke="#4089e3" points="432.07,-2818.54 432.07,-2833.46 323.68,-2844 170.39,-2844 62,-2833.46 62,-2818.54 170.39,-2808 323.68,-2808 432.07,-2818.54"/>
<polygon fill="none" stroke="#4089e3" points="436.07,-2814.91 436.07,-2837.09 323.87,-2848 170.2,-2848 58,-2837.09 58,-2814.91 170.2,-2804 323.87,-2804 436.07,-2814.91"/>
<polygon fill="none" stroke="#4089e3" points="440.07,-2811.28 440.07,-2840.72 324.07,-2852 170,-2852 54,-2840.72 54,-2811.28 170,-2800 324.07,-2800 440.07,-2811.28"/>
<text text-anchor="middle" x="247.03" y="-2822.3" font-family="Roboto" font-size="14.00" fill="#ffffff">nvidia&#45;x11&#45;440.82&#45;5.4.47&#45;bin (50.53 MiB)</text>
</g>
<!-- N32 -->
<g id="node57" class="node">
<title>N32</title>
<polygon fill="#3ceee7" stroke="#3ceee7" points="756.88,-2914 508.88,-2914 508.88,-2878 756.88,-2878 756.88,-2914"/>
<text text-anchor="middle" x="632.88" y="-2892.3" font-family="Roboto" font-size="14.00" fill="#000000">nvidia&#45;x11&#45;440.82&#45;5.4.47 (308.09 MiB)</text>
</g>
<!-- N52&#45;&gt;N32 -->
<g id="edge25" class="edge">
<title>N52&#45;&gt;N32</title>
<path fill="none" stroke="black" d="M381.54,-2846.47C409.29,-2851.02 438.32,-2855.98 465.38,-2861 489.63,-2865.5 515.77,-2870.79 539.99,-2875.87"/>
<polygon fill="black" stroke="black" points="539.38,-2879.32 549.89,-2877.96 540.82,-2872.47 539.38,-2879.32"/>
</g>
<!-- N53 -->
<g id="node34" class="node">
<title>N53</title>
<polygon fill="#4169e1" stroke="#4169e1" points="432.07,-2958.54 432.07,-2973.46 323.68,-2984 170.39,-2984 62,-2973.46 62,-2958.54 170.39,-2948 323.68,-2948 432.07,-2958.54"/>
<polygon fill="none" stroke="#4169e1" points="436.07,-2954.91 436.07,-2977.09 323.87,-2988 170.2,-2988 58,-2977.09 58,-2954.91 170.2,-2944 323.87,-2944 436.07,-2954.91"/>
<polygon fill="none" stroke="#4169e1" points="440.07,-2951.28 440.07,-2980.72 324.07,-2992 170,-2992 54,-2980.72 54,-2951.28 170,-2940 324.07,-2940 440.07,-2951.28"/>
<text text-anchor="middle" x="247.03" y="-2962.3" font-family="Roboto" font-size="14.00" fill="#ffffff">nvidia&#45;persistenced&#45;440.82 (115.81 KiB)</text>
</g>
<!-- N53&#45;&gt;N32 -->
<g id="edge26" class="edge">
<title>N53&#45;&gt;N32</title>
<path fill="none" stroke="black" d="M381.54,-2945.53C409.29,-2940.98 438.32,-2936.02 465.38,-2931 489.63,-2926.5 515.77,-2921.21 539.99,-2916.13"/>
<polygon fill="black" stroke="black" points="540.82,-2919.53 549.89,-2914.04 539.38,-2912.68 540.82,-2919.53"/>
</g>
<!-- N10 -->
<g id="node35" class="node">
<title>N10</title>
<polygon fill="#3ebbe7" stroke="#3ebbe7" points="384.81,-88.54 384.81,-103.46 304.1,-114 189.97,-114 109.26,-103.46 109.26,-88.54 189.97,-78 304.1,-78 384.81,-88.54"/>
<polygon fill="none" stroke="#3ebbe7" points="388.81,-85.03 388.81,-106.97 304.36,-118 189.71,-118 105.26,-106.97 105.26,-85.03 189.71,-74 304.36,-74 388.81,-85.03"/>
<polygon fill="none" stroke="#3ebbe7" points="392.8,-81.52 392.8,-110.48 304.62,-122 189.45,-122 101.26,-110.48 101.26,-81.52 189.45,-70 304.62,-70 392.8,-81.52"/>
<text text-anchor="middle" x="247.03" y="-92.3" font-family="Roboto" font-size="14.00" fill="#000000">inkscape&#45;0.92.5 (153.11 MiB)</text>
</g>
<!-- N10&#45;&gt;N40 -->
<g id="edge27" class="edge">
<title>N10&#45;&gt;N40</title>
<path fill="none" stroke="black" d="M366.37,-114.01C398.54,-119.19 433.34,-125.06 465.38,-131 492.03,-135.94 520.97,-141.84 547.14,-147.37"/>
<polygon fill="black" stroke="black" points="546.51,-150.82 557.02,-149.47 547.96,-143.97 546.51,-150.82"/>
</g>
<!-- N9 -->
<g id="node36" class="node">
<title>N9</title>
<polygon fill="#3ecce9" stroke="#3ecce9" points="430.75,-1698.54 430.75,-1713.46 323.13,-1724 170.94,-1724 63.32,-1713.46 63.32,-1698.54 170.94,-1688 323.13,-1688 430.75,-1698.54"/>
<polygon fill="none" stroke="#3ecce9" points="434.75,-1694.92 434.75,-1717.08 323.33,-1728 170.74,-1728 59.31,-1717.08 59.31,-1694.92 170.74,-1684 323.33,-1684 434.75,-1694.92"/>
<polygon fill="none" stroke="#3ecce9" points="438.76,-1691.29 438.76,-1720.71 323.52,-1732 170.54,-1732 55.31,-1720.71 55.31,-1691.29 170.54,-1680 323.52,-1680 438.76,-1691.29"/>
<text text-anchor="middle" x="247.03" y="-1702.3" font-family="Roboto" font-size="14.00" fill="#000000">tor&#45;browser&#45;bundle&#45;bin&#45;9.5 (196.15 MiB)</text>
</g>
<!-- N9&#45;&gt;N2 -->
<g id="edge28" class="edge">
<title>N9&#45;&gt;N2</title>
<path fill="none" stroke="black" d="M247.03,-1679.68C247.03,-1677.23 247.03,-1674.78 247.03,-1672.33"/>
<polygon fill="black" stroke="black" points="250.53,-1672.25 247.03,-1662.25 243.53,-1672.25 250.53,-1672.25"/>
</g>
<!-- N8 -->
<g id="node37" class="node">
<title>N8</title>
<polygon fill="#3ce6ec" stroke="#3ce6ec" points="386.13,-3028.54 386.13,-3043.46 304.65,-3054 189.42,-3054 107.94,-3043.46 107.94,-3028.54 189.42,-3018 304.65,-3018 386.13,-3028.54"/>
<polygon fill="none" stroke="#3ce6ec" points="390.12,-3025.03 390.12,-3046.97 304.91,-3058 189.16,-3058 103.95,-3046.97 103.95,-3025.03 189.16,-3014 304.91,-3014 390.12,-3025.03"/>
<polygon fill="none" stroke="#3ce6ec" points="394.12,-3021.51 394.12,-3050.49 305.16,-3062 188.91,-3062 99.95,-3050.49 99.95,-3021.51 188.91,-3010 305.16,-3010 394.12,-3021.51"/>
<text text-anchor="middle" x="247.03" y="-3032.3" font-family="Roboto" font-size="14.00" fill="#000000">docker&#45;19.03.11 (266.19 MiB)</text>
</g>
<!-- N7 -->
<g id="node38" class="node">
<title>N7</title>
<polygon fill="#fe5000" stroke="#fe5000" points="377.74,-1978.54 377.74,-1993.46 301.18,-2004 192.89,-2004 116.33,-1993.46 116.33,-1978.54 192.89,-1968 301.18,-1968 377.74,-1978.54"/>
<polygon fill="none" stroke="#fe5000" points="381.74,-1975.06 381.74,-1996.94 301.45,-2008 192.62,-2008 112.33,-1996.94 112.33,-1975.06 192.62,-1964 301.45,-1964 381.74,-1975.06"/>
<polygon fill="none" stroke="#fe5000" points="385.73,-1971.57 385.73,-2000.43 301.72,-2012 192.35,-2012 108.33,-2000.43 108.33,-1971.57 192.35,-1960 301.72,-1960 385.73,-1971.57"/>
<text text-anchor="middle" x="247.03" y="-1982.3" font-family="Roboto" font-size="14.00" fill="#000000">playonlinux&#45;4.3.4 (2.09 GiB)</text>
</g>
<!-- N7&#45;&gt;N31 -->
<g id="edge29" class="edge">
<title>N7&#45;&gt;N31</title>
<path fill="none" stroke="black" d="M385.8,-1998.56C435.27,-2003.07 489.98,-2008.06 535.22,-2012.19"/>
<polygon fill="black" stroke="black" points="535.04,-2015.68 545.32,-2013.11 535.68,-2008.71 535.04,-2015.68"/>
</g>
<!-- N7&#45;&gt;N39 -->
<g id="edge30" class="edge">
<title>N7&#45;&gt;N39</title>
<path fill="none" stroke="black" d="M360,-1967.99C393.86,-1962.54 431.14,-1956.53 465.38,-1951 480.08,-1948.62 495.51,-1946.13 510.81,-1943.65"/>
<polygon fill="black" stroke="black" points="511.51,-1947.08 520.83,-1942.03 510.39,-1940.17 511.51,-1947.08"/>
</g>
<!-- N54 -->
<g id="node39" class="node">
<title>N54</title>
<polygon fill="#3f9ce4" stroke="#3f9ce4" points="362.29,-2538.54 362.29,-2553.46 294.77,-2564 199.29,-2564 131.78,-2553.46 131.78,-2538.54 199.29,-2528 294.77,-2528 362.29,-2538.54"/>
<polygon fill="none" stroke="#3f9ce4" points="366.28,-2535.12 366.28,-2556.88 295.08,-2568 198.98,-2568 127.78,-2556.88 127.78,-2535.12 198.98,-2524 295.08,-2524 366.28,-2535.12"/>
<polygon fill="none" stroke="#3f9ce4" points="370.28,-2531.7 370.28,-2560.3 295.39,-2572 198.67,-2572 123.79,-2560.3 123.79,-2531.7 198.67,-2520 295.39,-2520 370.28,-2531.7"/>
<text text-anchor="middle" x="247.03" y="-2542.3" font-family="Roboto" font-size="14.00" fill="#ffffff">hunter&#45;1.3.5 (84.89 MiB)</text>
</g>
<!-- N54&#45;&gt;N33 -->
<g id="edge31" class="edge">
<title>N54&#45;&gt;N33</title>
<path fill="none" stroke="black" d="M370.54,-2557.17C424.63,-2562.1 487.21,-2567.81 537.58,-2572.4"/>
<polygon fill="black" stroke="black" points="537.53,-2575.91 547.81,-2573.33 538.17,-2568.94 537.53,-2575.91"/>
</g>
<!-- N6 -->
<g id="node40" class="node">
<title>N6</title>
<polygon fill="#3ecae9" stroke="#3ecae9" points="376,-3098.54 376,-3113.46 300.45,-3124 193.62,-3124 118.07,-3113.46 118.07,-3098.54 193.62,-3088 300.45,-3088 376,-3098.54"/>
<polygon fill="none" stroke="#3ecae9" points="380.01,-3095.06 380.01,-3116.94 300.73,-3128 193.34,-3128 114.06,-3116.94 114.06,-3095.06 193.34,-3084 300.73,-3084 380.01,-3095.06"/>
<polygon fill="none" stroke="#3ecae9" points="384.01,-3091.58 384.01,-3120.42 301.01,-3132 193.06,-3132 110.06,-3120.42 110.06,-3091.58 193.06,-3080 301.01,-3080 384.01,-3091.58"/>
<text text-anchor="middle" x="247.03" y="-3102.3" font-family="Roboto" font-size="14.00" fill="#000000">fritzing&#45;0.9.3b (190.99 MiB)</text>
</g>
<!-- N55 -->
<g id="node41" class="node">
<title>N55</title>
<polygon fill="#406ae1" stroke="#406ae1" points="402.48,-2888.54 402.48,-2903.46 311.42,-2914 182.65,-2914 91.59,-2903.46 91.59,-2888.54 182.65,-2878 311.42,-2878 402.48,-2888.54"/>
<polygon fill="none" stroke="#406ae1" points="406.48,-2884.98 406.48,-2907.02 311.65,-2918 182.42,-2918 87.59,-2907.02 87.59,-2884.98 182.42,-2874 311.65,-2874 406.48,-2884.98"/>
<polygon fill="none" stroke="#406ae1" points="410.48,-2881.42 410.48,-2910.58 311.88,-2922 182.19,-2922 83.59,-2910.58 83.59,-2881.42 182.19,-2870 311.88,-2870 410.48,-2881.42"/>
<text text-anchor="middle" x="247.03" y="-2892.3" font-family="Roboto" font-size="14.00" fill="#ffffff">nvidia&#45;settings&#45;440.82 (1.70 MiB)</text>
</g>
<!-- N55&#45;&gt;N52 -->
<g id="edge32" class="edge">
<title>N55&#45;&gt;N52</title>
<path fill="none" stroke="black" d="M247.03,-2869.68C247.03,-2867.23 247.03,-2864.78 247.03,-2862.33"/>
<polygon fill="black" stroke="black" points="250.53,-2862.25 247.03,-2852.25 243.53,-2862.25 250.53,-2862.25"/>
</g>
<!-- N4 -->
<g id="node43" class="node">
<title>N4</title>
<polygon fill="#3ce8ec" stroke="#3ce8ec" points="457.23,-3168.54 457.23,-3183.46 334.1,-3194 159.97,-3194 36.84,-3183.46 36.84,-3168.54 159.97,-3158 334.1,-3158 457.23,-3168.54"/>
<polygon fill="none" stroke="#3ce8ec" points="461.23,-3164.87 461.23,-3187.13 334.27,-3198 159.8,-3198 32.84,-3187.13 32.84,-3164.87 159.8,-3154 334.27,-3154 461.23,-3164.87"/>
<polygon fill="none" stroke="#3ce8ec" points="465.22,-3161.2 465.22,-3190.8 334.44,-3202 159.63,-3202 28.85,-3190.8 28.85,-3161.2 159.63,-3150 334.44,-3150 465.22,-3161.2"/>
<text text-anchor="middle" x="247.03" y="-3172.3" font-family="Roboto" font-size="14.00" fill="#000000">spotify&#45;1.1.26.501.gbe11e53b&#45;15 (272.32 MiB)</text>
</g>
<!-- N56 -->
<g id="node44" class="node">
<title>N56</title>
<polygon fill="#4069e1" stroke="#4069e1" points="371.57,-438.54 371.57,-453.46 298.62,-464 195.45,-464 122.5,-453.46 122.5,-438.54 195.45,-428 298.62,-428 371.57,-438.54"/>
<polygon fill="none" stroke="#4069e1" points="375.57,-435.08 375.57,-456.92 298.91,-468 195.16,-468 118.5,-456.92 118.5,-435.08 195.16,-424 298.91,-424 375.57,-435.08"/>
<polygon fill="none" stroke="#4069e1" points="379.57,-431.62 379.57,-460.38 299.19,-472 194.87,-472 114.5,-460.38 114.5,-431.62 194.87,-420 299.19,-420 379.57,-431.62"/>
<text text-anchor="middle" x="247.03" y="-442.3" font-family="Roboto" font-size="14.00" fill="#ffffff">arandr&#45;0.1.10 (204.32 KiB)</text>
</g>
<!-- N56&#45;&gt;N36 -->
<g id="edge33" class="edge">
<title>N56&#45;&gt;N36</title>
<path fill="none" stroke="black" d="M379.59,-446C427.71,-446 481.47,-446 526.96,-446"/>
<polygon fill="black" stroke="black" points="527.13,-449.5 537.13,-446 527.13,-442.5 527.13,-449.5"/>
</g>
<!-- N3 -->
<g id="node45" class="node">
<title>N3</title>
<polygon fill="#35f77d" stroke="#35f77d" points="379.06,-3238.54 379.06,-3253.46 301.72,-3264 192.35,-3264 115.01,-3253.46 115.01,-3238.54 192.35,-3228 301.72,-3228 379.06,-3238.54"/>
<polygon fill="none" stroke="#35f77d" points="383.05,-3235.05 383.05,-3256.95 301.99,-3268 192.08,-3268 111.01,-3256.95 111.01,-3235.05 192.08,-3224 301.99,-3224 383.05,-3235.05"/>
<polygon fill="none" stroke="#35f77d" points="387.05,-3231.56 387.05,-3260.44 302.26,-3272 191.81,-3272 107.02,-3260.44 107.02,-3231.56 191.81,-3220 302.26,-3220 387.05,-3231.56"/>
<text text-anchor="middle" x="247.03" y="-3242.3" font-family="Roboto" font-size="14.00" fill="#000000">arduino&#45;1.8.12 (549.82 MiB)</text>
</g>
<!-- N1 -->
<g id="node47" class="node">
<title>N1</title>
<polygon fill="#3fb3e6" stroke="#3fb3e6" points="372.89,-228.54 372.89,-243.46 299.16,-254 194.9,-254 121.18,-243.46 121.18,-228.54 194.9,-218 299.16,-218 372.89,-228.54"/>
<polygon fill="none" stroke="#3fb3e6" points="376.89,-225.08 376.89,-246.92 299.45,-258 194.62,-258 117.18,-246.92 117.18,-225.08 194.62,-214 299.45,-214 376.89,-225.08"/>
<polygon fill="none" stroke="#3fb3e6" points="380.88,-221.61 380.88,-250.39 299.73,-262 194.33,-262 113.18,-250.39 113.18,-221.61 194.33,-210 299.73,-210 380.88,-221.61"/>
<text text-anchor="middle" x="247.03" y="-232.3" font-family="Roboto" font-size="14.00" fill="#ffffff">gimp&#45;2.10.20 (135.01 MiB)</text>
</g>
<!-- N1&#45;&gt;N40 -->
<g id="edge35" class="edge">
<title>N1&#45;&gt;N40</title>
<path fill="none" stroke="black" d="M361.58,-218.76C395.06,-213.39 431.75,-207.24 465.38,-201 492.03,-196.06 520.97,-190.16 547.14,-184.63"/>
<polygon fill="black" stroke="black" points="547.96,-188.03 557.02,-182.53 546.51,-181.18 547.96,-188.03"/>
</g>
<!-- N1&#45;&gt;N36 -->
<g id="edge34" class="edge">
<title>N1&#45;&gt;N36</title>
<path fill="none" stroke="black" d="M380.89,-243.44C409.89,-248.82 439.6,-257.41 465.38,-271 532.7,-306.47 588.23,-379.58 614.87,-419.15"/>
<polygon fill="black" stroke="black" points="612.28,-421.57 620.71,-427.98 618.12,-417.71 612.28,-421.57"/>
</g>
</g>
</svg>
