<?xml version="1.0" encoding="UTF-8" standalone="no"?>
<!DOCTYPE svg PUBLIC "-//W3C//DTD SVG 1.1//EN"
 "http://www.w3.org/Graphics/SVG/1.1/DTD/svg11.dtd">
<!-- Generated by graphviz version 2.43.0 (0)
 -->
<!-- Title: nixstore Pages: 1 -->
<svg width="940pt" height="3140pt"
 viewBox="0.00 0.00 940.19 3140.00" xmlns="http://www.w3.org/2000/svg" xmlns:xlink="http://www.w3.org/1999/xlink">
<g id="graph0" class="graph" transform="scale(1 1) rotate(0) translate(4 3136)">
<title>nixstore</title>
<polygon fill="white" stroke="transparent" points="-4,4 -4,-3136 936.19,-3136 936.19,4 -4,4"/>
<!-- N52 -->
<g id="node1" class="node">
<title>N52</title>
<polygon fill="#ff0000" stroke="#ff0000" points="359.89,-18.54 359.89,-33.46 294.69,-44 202.5,-44 137.3,-33.46 137.3,-18.54 202.5,-8 294.69,-8 359.89,-18.54"/>
<polygon fill="none" stroke="#ff0000" points="363.89,-15.14 363.89,-36.86 295.02,-48 202.17,-48 133.3,-36.86 133.3,-15.14 202.17,-4 295.02,-4 363.89,-15.14"/>
<polygon fill="none" stroke="#ff0000" points="367.9,-11.74 367.9,-40.26 295.34,-52 201.85,-52 129.29,-40.26 129.29,-11.74 201.85,0 295.34,0 367.9,-11.74"/>
<text text-anchor="middle" x="248.59" y="-22.3" font-family="Roboto" font-size="14.00" fill="#000000">{filtered out} (2.51 GiB)</text>
</g>
<!-- N39 -->
<g id="node2" class="node">
<title>N39</title>
<polygon fill="#3fb0e7" stroke="#3fb0e7" points="374.45,-158.54 374.45,-173.46 300.73,-184 196.46,-184 122.74,-173.46 122.74,-158.54 196.46,-148 300.73,-148 374.45,-158.54"/>
<polygon fill="none" stroke="#3fb0e7" points="378.45,-155.08 378.45,-176.92 301.01,-188 196.18,-188 118.74,-176.92 118.74,-155.08 196.18,-144 301.01,-144 378.45,-155.08"/>
<polygon fill="none" stroke="#3fb0e7" points="382.44,-151.61 382.44,-180.39 301.29,-192 195.9,-192 114.74,-180.39 114.74,-151.61 195.9,-140 301.29,-140 382.44,-151.61"/>
<text text-anchor="middle" x="248.59" y="-162.3" font-family="Roboto" font-size="14.00" fill="#ffffff">neovim&#45;0.4.4 (146.86 MiB)</text>
</g>
<!-- N35 -->
<g id="node46" class="node">
<title>N35</title>
<polygon fill="#3fafe6" stroke="#3fafe6" points="932.19,-511 777.19,-511 777.19,-475 932.19,-475 932.19,-511"/>
<text text-anchor="middle" x="854.69" y="-489.3" font-family="Roboto" font-size="14.00" fill="#ffffff">gcc&#45;9.3.0 (143.92 MiB)</text>
</g>
<!-- N39&#45;&gt;N35 -->
<g id="edge1" class="edge">
<title>N39&#45;&gt;N35</title>
<path fill="none" stroke="black" d="M345.89,-146.32C453.24,-130.14 626.78,-121.89 741.19,-207 825.62,-269.81 846.73,-405.59 851.97,-464.63"/>
<polygon fill="black" stroke="black" points="848.49,-465.03 852.78,-474.72 855.47,-464.48 848.49,-465.03"/>
</g>
<!-- N31 -->
<g id="node3" class="node">
<title>N31</title>
<polygon fill="#37f78e" stroke="#37f78e" points="413.74,-1418.54 413.74,-1433.46 317,-1444 180.19,-1444 83.44,-1433.46 83.44,-1418.54 180.19,-1408 317,-1408 413.74,-1418.54"/>
<polygon fill="none" stroke="#37f78e" points="417.74,-1414.96 417.74,-1437.04 317.22,-1448 179.97,-1448 79.45,-1437.04 79.45,-1414.96 179.97,-1404 317.22,-1404 417.74,-1414.96"/>
<polygon fill="none" stroke="#37f78e" points="421.74,-1411.37 421.74,-1440.63 317.44,-1452 179.75,-1452 75.45,-1440.63 75.45,-1411.37 179.75,-1400 317.44,-1400 421.74,-1411.37"/>
<text text-anchor="middle" x="248.59" y="-1422.3" font-family="Roboto" font-size="14.00" fill="#000000">kodi&#45;with&#45;plugins&#45;18.5 (608.10 MiB)</text>
</g>
<!-- N33 -->
<g id="node47" class="node">
<title>N33</title>
<polygon fill="#3fc4e9" stroke="#3fc4e9" points="726.19,-1409 548.19,-1409 548.19,-1373 726.19,-1373 726.19,-1409"/>
<text text-anchor="middle" x="637.19" y="-1387.3" font-family="Roboto" font-size="14.00" fill="#000000">libusb&#45;1.0.23 (201.22 MiB)</text>
</g>
<!-- N31&#45;&gt;N33 -->
<g id="edge2" class="edge">
<title>N31&#45;&gt;N33</title>
<path fill="none" stroke="black" d="M417.19,-1410.83C458.39,-1407.1 501.16,-1403.22 537.86,-1399.9"/>
<polygon fill="black" stroke="black" points="538.4,-1403.37 548.05,-1398.98 537.77,-1396.4 538.4,-1403.37"/>
</g>
<!-- N30 -->
<g id="node4" class="node">
<title>N30</title>
<polygon fill="#39f4b4" stroke="#39f4b4" points="476.04,-1488.54 476.04,-1503.46 342.81,-1514 154.38,-1514 21.15,-1503.46 21.15,-1488.54 154.38,-1478 342.81,-1478 476.04,-1488.54"/>
<polygon fill="none" stroke="#39f4b4" points="480.05,-1484.85 480.05,-1507.15 342.97,-1518 154.22,-1518 17.14,-1507.15 17.14,-1484.85 154.22,-1474 342.97,-1474 480.05,-1484.85"/>
<polygon fill="none" stroke="#39f4b4" points="484.05,-1481.15 484.05,-1510.85 343.12,-1522 154.07,-1522 13.14,-1510.85 13.14,-1481.15 154.07,-1470 343.12,-1470 484.05,-1481.15"/>
<text text-anchor="middle" x="248.59" y="-1492.3" font-family="Roboto" font-size="14.00" fill="#000000">gcc&#45;arm&#45;embedded&#45;9&#45;2019&#45;q4&#45;major (524.18 MiB)</text>
</g>
<!-- N29 -->
<g id="node5" class="node">
<title>N29</title>
<polygon fill="#3cedec" stroke="#3cedec" points="363.85,-1628.54 363.85,-1643.46 296.33,-1654 200.85,-1654 133.34,-1643.46 133.34,-1628.54 200.85,-1618 296.33,-1618 363.85,-1628.54"/>
<polygon fill="none" stroke="#3cedec" points="367.84,-1625.12 367.84,-1646.88 296.64,-1658 200.54,-1658 129.34,-1646.88 129.34,-1625.12 200.54,-1614 296.64,-1614 367.84,-1625.12"/>
<polygon fill="none" stroke="#3cedec" points="371.84,-1621.7 371.84,-1650.3 296.95,-1662 200.24,-1662 125.35,-1650.3 125.35,-1621.7 200.24,-1610 296.95,-1610 371.84,-1621.7"/>
<text text-anchor="middle" x="248.59" y="-1632.3" font-family="Roboto" font-size="14.00" fill="#000000">platformio (334.27 MiB)</text>
</g>
<!-- N13 -->
<g id="node28" class="node">
<title>N13</title>
<polygon fill="#3ec9e9" stroke="#3ec9e9" points="395.65,-1558.54 395.65,-1573.46 309.51,-1584 187.68,-1584 101.54,-1573.46 101.54,-1558.54 187.68,-1548 309.51,-1548 395.65,-1558.54"/>
<polygon fill="none" stroke="#3ec9e9" points="399.65,-1555 399.65,-1577 309.75,-1588 187.44,-1588 97.54,-1577 97.54,-1555 187.44,-1544 309.75,-1544 399.65,-1555"/>
<polygon fill="none" stroke="#3ec9e9" points="403.65,-1551.46 403.65,-1580.54 310,-1592 187.19,-1592 93.53,-1580.54 93.53,-1551.46 187.19,-1540 310,-1540 403.65,-1551.46"/>
<text text-anchor="middle" x="248.59" y="-1562.3" font-family="Roboto" font-size="14.00" fill="#000000">glibc&#45;locales&#45;2.32 (214.79 MiB)</text>
</g>
<!-- N29&#45;&gt;N13 -->
<g id="edge3" class="edge">
<title>N29&#45;&gt;N13</title>
<path fill="none" stroke="black" d="M248.59,-1609.68C248.59,-1607.23 248.59,-1604.78 248.59,-1602.33"/>
<polygon fill="black" stroke="black" points="252.09,-1602.25 248.59,-1592.25 245.09,-1602.25 252.09,-1602.25"/>
</g>
<!-- N28 -->
<g id="node6" class="node">
<title>N28</title>
<polygon fill="#3de3ec" stroke="#3de3ec" points="380.62,-1068.54 380.62,-1083.46 303.28,-1094 193.91,-1094 116.57,-1083.46 116.57,-1068.54 193.91,-1058 303.28,-1058 380.62,-1068.54"/>
<polygon fill="none" stroke="#3de3ec" points="384.61,-1065.05 384.61,-1086.95 303.55,-1098 193.64,-1098 112.57,-1086.95 112.57,-1065.05 193.64,-1054 303.55,-1054 384.61,-1065.05"/>
<polygon fill="none" stroke="#3de3ec" points="388.61,-1061.56 388.61,-1090.44 303.82,-1102 193.37,-1102 108.58,-1090.44 108.58,-1061.56 193.37,-1050 303.82,-1050 388.61,-1061.56"/>
<text text-anchor="middle" x="248.59" y="-1072.3" font-family="Roboto" font-size="14.00" fill="#000000">inkscape&#45;1.0.1 (294.69 MiB)</text>
</g>
<!-- N38 -->
<g id="node48" class="node">
<title>N38</title>
<polygon fill="#3fafe6" stroke="#3fafe6" points="712.69,-1129 561.69,-1129 561.69,-1093 712.69,-1093 712.69,-1129"/>
<text text-anchor="middle" x="637.19" y="-1107.3" font-family="Roboto" font-size="14.00" fill="#ffffff">lapack&#45;3 (142.90 MiB)</text>
</g>
<!-- N28&#45;&gt;N38 -->
<g id="edge4" class="edge">
<title>N28&#45;&gt;N38</title>
<path fill="none" stroke="black" d="M388.62,-1088.59C443.08,-1093.52 503.8,-1099.01 551.48,-1103.33"/>
<polygon fill="black" stroke="black" points="551.17,-1106.82 561.45,-1104.23 551.8,-1099.85 551.17,-1106.82"/>
</g>
<!-- N27 -->
<g id="node7" class="node">
<title>N27</title>
<polygon fill="#3de5ec" stroke="#3de5ec" points="368.28,-1698.54 368.28,-1713.46 298.17,-1724 199.02,-1724 128.91,-1713.46 128.91,-1698.54 199.02,-1688 298.17,-1688 368.28,-1698.54"/>
<polygon fill="none" stroke="#3de5ec" points="372.28,-1695.1 372.28,-1716.9 298.47,-1728 198.72,-1728 124.91,-1716.9 124.91,-1695.1 198.72,-1684 298.47,-1684 372.28,-1695.1"/>
<polygon fill="none" stroke="#3de5ec" points="376.28,-1691.66 376.28,-1720.34 298.77,-1732 198.42,-1732 120.91,-1720.34 120.91,-1691.66 198.42,-1680 298.77,-1680 376.28,-1691.66"/>
<text text-anchor="middle" x="248.59" y="-1702.3" font-family="Roboto" font-size="14.00" fill="#000000">elixir&#45;1.11.2 (302.15 MiB)</text>
</g>
<!-- N26 -->
<g id="node8" class="node">
<title>N26</title>
<polygon fill="#baff2d" stroke="#baff2d" points="396.55,-1768.54 396.55,-1783.46 309.88,-1794 187.31,-1794 100.64,-1783.46 100.64,-1768.54 187.31,-1758 309.88,-1758 396.55,-1768.54"/>
<polygon fill="none" stroke="#baff2d" points="400.56,-1765 400.56,-1787 310.12,-1798 187.07,-1798 96.63,-1787 96.63,-1765 187.07,-1754 310.12,-1754 400.56,-1765"/>
<polygon fill="none" stroke="#baff2d" points="404.56,-1761.46 404.56,-1790.54 310.37,-1802 186.82,-1802 92.63,-1790.54 92.63,-1761.46 186.82,-1750 310.37,-1750 404.56,-1761.46"/>
<text text-anchor="middle" x="248.59" y="-1772.3" font-family="Roboto" font-size="14.00" fill="#000000">clang&#45;tools&#45;11.0.0 (926.80 MiB)</text>
</g>
<!-- N25 -->
<g id="node9" class="node">
<title>N25</title>
<polygon fill="#3ddceb" stroke="#3ddceb" points="428.78,-1838.54 428.78,-1853.46 323.23,-1864 173.96,-1864 68.41,-1853.46 68.41,-1838.54 173.96,-1828 323.23,-1828 428.78,-1838.54"/>
<polygon fill="none" stroke="#3ddceb" points="432.78,-1834.92 432.78,-1857.08 323.43,-1868 173.76,-1868 64.41,-1857.08 64.41,-1834.92 173.76,-1824 323.43,-1824 432.78,-1834.92"/>
<polygon fill="none" stroke="#3ddceb" points="436.78,-1831.3 436.78,-1860.7 323.63,-1872 173.56,-1872 60.41,-1860.7 60.41,-1831.3 173.56,-1820 323.63,-1820 436.78,-1831.3"/>
<text text-anchor="middle" x="248.59" y="-1842.3" font-family="Roboto" font-size="14.00" fill="#000000">qemu&#45;host&#45;cpu&#45;only&#45;5.1.0 (273.74 MiB)</text>
</g>
<!-- N24 -->
<g id="node10" class="node">
<title>N24</title>
<polygon fill="#3fb8e7" stroke="#3fb8e7" points="374.45,-998.54 374.45,-1013.46 300.73,-1024 196.46,-1024 122.74,-1013.46 122.74,-998.54 196.46,-988 300.73,-988 374.45,-998.54"/>
<polygon fill="none" stroke="#3fb8e7" points="378.45,-995.08 378.45,-1016.92 301.01,-1028 196.18,-1028 118.74,-1016.92 118.74,-995.08 196.18,-984 301.01,-984 378.45,-995.08"/>
<polygon fill="none" stroke="#3fb8e7" points="382.44,-991.61 382.44,-1020.39 301.29,-1032 195.9,-1032 114.74,-1020.39 114.74,-991.61 195.9,-980 301.29,-980 382.44,-991.61"/>
<text text-anchor="middle" x="248.59" y="-1002.3" font-family="Roboto" font-size="14.00" fill="#000000">gimp&#45;2.10.22 (166.81 MiB)</text>
</g>
<!-- N24&#45;&gt;N35 -->
<g id="edge5" class="edge">
<title>N24&#45;&gt;N35</title>
<path fill="none" stroke="black" d="M382.68,-1012.59C494.05,-1010.47 649.12,-988.37 741.19,-893 844.13,-786.37 854.3,-593.26 854.3,-521.15"/>
<polygon fill="black" stroke="black" points="857.8,-521.01 854.23,-511.03 850.8,-521.06 857.8,-521.01"/>
</g>
<!-- N24&#45;&gt;N38 -->
<g id="edge7" class="edge">
<title>N24&#45;&gt;N38</title>
<path fill="none" stroke="black" d="M382.75,-1016.73C420.31,-1021.92 460.84,-1029.62 497.19,-1041 533.21,-1052.28 571.31,-1072.1 598.5,-1087.77"/>
<polygon fill="black" stroke="black" points="596.88,-1090.88 607.28,-1092.91 600.42,-1084.84 596.88,-1090.88"/>
</g>
<!-- N36 -->
<g id="node49" class="node">
<title>N36</title>
<polygon fill="#39f3be" stroke="#39f3be" points="737.19,-884 537.19,-884 537.19,-848 737.19,-848 737.19,-884"/>
<text text-anchor="middle" x="637.19" y="-862.3" font-family="Roboto" font-size="14.00" fill="#000000">expat&#45;2.2.10&#45;dev (497.32 MiB)</text>
</g>
<!-- N24&#45;&gt;N36 -->
<g id="edge6" class="edge">
<title>N24&#45;&gt;N36</title>
<path fill="none" stroke="black" d="M382.67,-999.67C420.71,-994.57 461.51,-985.82 497.19,-971 500.25,-969.73 564.45,-920.84 604.52,-890.23"/>
<polygon fill="black" stroke="black" points="606.85,-892.85 612.67,-884 602.6,-887.29 606.85,-892.85"/>
</g>
<!-- N23 -->
<g id="node11" class="node">
<title>N23</title>
<polygon fill="#3fbae7" stroke="#3fbae7" points="489.28,-1908.54 489.28,-1923.46 348.29,-1934 148.9,-1934 7.91,-1923.46 7.91,-1908.54 148.9,-1898 348.29,-1898 489.28,-1908.54"/>
<polygon fill="none" stroke="#3fbae7" points="493.28,-1904.83 493.28,-1927.17 348.44,-1938 148.75,-1938 3.91,-1927.17 3.91,-1904.83 148.75,-1894 348.44,-1894 493.28,-1904.83"/>
<polygon fill="none" stroke="#3fbae7" points="497.28,-1901.12 497.28,-1930.88 348.59,-1942 148.6,-1942 -0.09,-1930.88 -0.09,-1901.12 148.6,-1890 348.59,-1890 497.28,-1901.12"/>
<text text-anchor="middle" x="248.59" y="-1912.3" font-family="Roboto" font-size="14.00" fill="#000000">google&#45;play&#45;music&#45;desktop&#45;player&#45;4.7.1 (173.67 MiB)</text>
</g>
<!-- N22 -->
<g id="node12" class="node">
<title>N22</title>
<polygon fill="#39f4b3" stroke="#39f4b3" points="445.55,-1978.54 445.55,-1993.46 330.18,-2004 167.01,-2004 51.64,-1993.46 51.64,-1978.54 167.01,-1968 330.18,-1968 445.55,-1978.54"/>
<polygon fill="none" stroke="#39f4b3" points="449.55,-1974.89 449.55,-1997.11 330.36,-2008 166.83,-2008 47.64,-1997.11 47.64,-1974.89 166.83,-1964 330.36,-1964 449.55,-1974.89"/>
<polygon fill="none" stroke="#39f4b3" points="453.55,-1971.24 453.55,-2000.76 330.54,-2012 166.65,-2012 43.64,-2000.76 43.64,-1971.24 166.65,-1960 330.54,-1960 453.55,-1971.24"/>
<text text-anchor="middle" x="248.59" y="-1982.3" font-family="Roboto" font-size="14.00" fill="#000000">tor&#45;browser&#45;bundle&#45;bin&#45;10.0.4 (527.45 MiB)</text>
</g>
<!-- N40 -->
<g id="node13" class="node">
<title>N40</title>
<polygon fill="#4169e1" stroke="#4169e1" points="373.13,-718.54 373.13,-733.46 300.18,-744 197.01,-744 124.06,-733.46 124.06,-718.54 197.01,-708 300.18,-708 373.13,-718.54"/>
<polygon fill="none" stroke="#4169e1" points="377.13,-715.08 377.13,-736.92 300.47,-748 196.72,-748 120.06,-736.92 120.06,-715.08 196.72,-704 300.47,-704 377.13,-715.08"/>
<polygon fill="none" stroke="#4169e1" points="381.13,-711.62 381.13,-740.38 300.75,-752 196.43,-752 116.06,-740.38 116.06,-711.62 196.43,-700 300.75,-700 381.13,-711.62"/>
<text text-anchor="middle" x="248.59" y="-722.3" font-family="Roboto" font-size="14.00" fill="#ffffff">arandr&#45;0.1.10 (232.50 KiB)</text>
</g>
<!-- N40&#45;&gt;N36 -->
<g id="edge8" class="edge">
<title>N40&#45;&gt;N36</title>
<path fill="none" stroke="black" d="M381.39,-732.16C419.79,-737.24 461.11,-746.01 497.19,-761 541.74,-779.5 584.73,-815.71 610.82,-840.38"/>
<polygon fill="black" stroke="black" points="608.72,-843.22 618.35,-847.63 613.57,-838.17 608.72,-843.22"/>
</g>
<!-- N41 -->
<g id="node14" class="node">
<title>N41</title>
<polygon fill="#4173e2" stroke="#4173e2" points="376.66,-928.54 376.66,-943.46 301.64,-954 195.55,-954 120.53,-943.46 120.53,-928.54 195.55,-918 301.64,-918 376.66,-928.54"/>
<polygon fill="none" stroke="#4173e2" points="380.66,-925.07 380.66,-946.93 301.92,-958 195.27,-958 116.52,-946.93 116.52,-925.07 195.27,-914 301.92,-914 380.66,-925.07"/>
<polygon fill="none" stroke="#4173e2" points="384.67,-921.59 384.67,-950.41 302.2,-962 194.99,-962 112.52,-950.41 112.52,-921.59 194.99,-910 302.2,-910 384.67,-921.59"/>
<text text-anchor="middle" x="248.59" y="-932.3" font-family="Roboto" font-size="14.00" fill="#ffffff">tigervnc&#45;1.10.1 (16.99 MiB)</text>
</g>
<!-- N41&#45;&gt;N36 -->
<g id="edge9" class="edge">
<title>N41&#45;&gt;N36</title>
<path fill="none" stroke="black" d="M377.58,-920.55C416.16,-915.18 458.53,-908.58 497.19,-901 517.86,-896.95 540.06,-891.75 560.51,-886.6"/>
<polygon fill="black" stroke="black" points="561.57,-889.95 570.4,-884.09 559.85,-883.16 561.57,-889.95"/>
</g>
<!-- N21 -->
<g id="node15" class="node">
<title>N21</title>
<polygon fill="#3fc2e8" stroke="#3fc2e8" points="425.24,-2048.54 425.24,-2063.46 321.77,-2074 175.42,-2074 71.94,-2063.46 71.94,-2048.54 175.42,-2038 321.77,-2038 425.24,-2048.54"/>
<polygon fill="none" stroke="#3fc2e8" points="429.25,-2044.93 429.25,-2067.07 321.97,-2078 175.22,-2078 67.94,-2067.07 67.94,-2044.93 175.22,-2034 321.97,-2034 429.25,-2044.93"/>
<polygon fill="none" stroke="#3fc2e8" points="433.25,-2041.32 433.25,-2070.68 322.17,-2082 175.02,-2082 63.94,-2070.68 63.94,-2041.32 175.02,-2030 322.17,-2030 433.25,-2041.32"/>
<text text-anchor="middle" x="248.59" y="-2052.3" font-family="Roboto" font-size="14.00" fill="#000000">firefox&#45;unwrapped&#45;82.0.2 (195.14 MiB)</text>
</g>
<!-- N20 -->
<g id="node16" class="node">
<title>N20</title>
<polygon fill="#3ceee5" stroke="#3ceee5" points="404.04,-508.54 404.04,-523.46 312.98,-534 184.21,-534 93.15,-523.46 93.15,-508.54 184.21,-498 312.98,-498 404.04,-508.54"/>
<polygon fill="none" stroke="#3ceee5" points="408.04,-504.98 408.04,-527.02 313.21,-538 183.98,-538 89.15,-527.02 89.15,-504.98 183.98,-494 313.21,-494 408.04,-504.98"/>
<polygon fill="none" stroke="#3ceee5" points="412.04,-501.42 412.04,-530.58 313.44,-542 183.75,-542 85.15,-530.58 85.15,-501.42 183.75,-490 313.44,-490 412.04,-501.42"/>
<text text-anchor="middle" x="248.59" y="-512.3" font-family="Roboto" font-size="14.00" fill="#000000">stm32cubemx&#45;5.6.1 (363.43 MiB)</text>
</g>
<!-- N32 -->
<g id="node50" class="node">
<title>N32</title>
<polygon fill="#35f96a" stroke="#35f96a" points="741.19,-534 533.19,-534 533.19,-498 741.19,-498 741.19,-534"/>
<text text-anchor="middle" x="637.19" y="-512.3" font-family="Roboto" font-size="14.00" fill="#000000">openjdk&#45;14.0.2&#45;ga (660.72 MiB)</text>
</g>
<!-- N20&#45;&gt;N32 -->
<g id="edge10" class="edge">
<title>N20&#45;&gt;N32</title>
<path fill="none" stroke="black" d="M412.14,-516C449.45,-516 488.33,-516 523.02,-516"/>
<polygon fill="black" stroke="black" points="523.16,-519.5 533.16,-516 523.16,-512.5 523.16,-519.5"/>
</g>
<!-- N19 -->
<g id="node17" class="node">
<title>N19</title>
<polygon fill="#3faae6" stroke="#3faae6" points="393.44,-2188.54 393.44,-2203.46 308.59,-2214 188.6,-2214 103.75,-2203.46 103.75,-2188.54 188.6,-2178 308.59,-2178 393.44,-2188.54"/>
<polygon fill="none" stroke="#3faae6" points="397.44,-2185.01 397.44,-2206.99 308.84,-2218 188.35,-2218 99.75,-2206.99 99.75,-2185.01 188.35,-2174 308.84,-2174 397.44,-2185.01"/>
<polygon fill="none" stroke="#3faae6" points="401.43,-2181.48 401.43,-2210.52 309.09,-2222 188.1,-2222 95.76,-2210.52 95.76,-2181.48 188.1,-2170 309.09,-2170 401.43,-2181.48"/>
<text text-anchor="middle" x="248.59" y="-2192.3" font-family="Roboto" font-size="14.00" fill="#ffffff">prusa&#45;slicer&#45;2.2.0 (132.48 MiB)</text>
</g>
<!-- N18 -->
<g id="node18" class="node">
<title>N18</title>
<polygon fill="#3fb8e7" stroke="#3fb8e7" points="392.12,-88.54 392.12,-103.46 308.04,-114 189.14,-114 105.07,-103.46 105.07,-88.54 189.14,-78 308.04,-78 392.12,-88.54"/>
<polygon fill="none" stroke="#3fb8e7" points="396.12,-85.01 396.12,-106.99 308.29,-118 188.89,-118 101.07,-106.99 101.07,-85.01 188.89,-74 308.29,-74 396.12,-85.01"/>
<polygon fill="none" stroke="#3fb8e7" points="400.12,-81.48 400.12,-110.52 308.54,-122 188.64,-122 97.07,-110.52 97.07,-81.48 188.64,-70 308.54,-70 400.12,-81.48"/>
<text text-anchor="middle" x="248.59" y="-92.3" font-family="Roboto" font-size="14.00" fill="#000000">upwork&#45;5.3.3.862 (168.29 MiB)</text>
</g>
<!-- N18&#45;&gt;N35 -->
<g id="edge11" class="edge">
<title>N18&#45;&gt;N35</title>
<path fill="none" stroke="black" d="M346.48,-74.73C454.79,-56.94 629.57,-46.96 741.19,-136 844.62,-218.51 854.69,-395.6 854.48,-464.63"/>
<polygon fill="black" stroke="black" points="850.98,-464.71 854.37,-474.75 857.98,-464.79 850.98,-464.71"/>
</g>
<!-- N42 -->
<g id="node19" class="node">
<title>N42</title>
<polygon fill="#416ee1" stroke="#416ee1" points="387.69,-228.54 387.69,-243.46 306.21,-254 190.98,-254 109.5,-243.46 109.5,-228.54 190.98,-218 306.21,-218 387.69,-228.54"/>
<polygon fill="none" stroke="#416ee1" points="391.68,-225.03 391.68,-246.97 306.47,-258 190.72,-258 105.51,-246.97 105.51,-225.03 190.72,-214 306.47,-214 391.68,-225.03"/>
<polygon fill="none" stroke="#416ee1" points="395.68,-221.51 395.68,-250.49 306.72,-262 190.47,-262 101.51,-250.49 101.51,-221.51 190.47,-210 306.72,-210 395.68,-221.51"/>
<text text-anchor="middle" x="248.59" y="-232.3" font-family="Roboto" font-size="14.00" fill="#ffffff">nomacs&#45;3.17.2206 (8.73 MiB)</text>
</g>
<!-- N42&#45;&gt;N35 -->
<g id="edge12" class="edge">
<title>N42&#45;&gt;N35</title>
<path fill="none" stroke="black" d="M354.54,-216.06C461.07,-201.77 626.25,-196.61 741.19,-273 808.76,-317.91 837.89,-416.53 848.5,-465"/>
<polygon fill="black" stroke="black" points="845.08,-465.74 850.55,-474.81 851.93,-464.31 845.08,-465.74"/>
</g>
<!-- N37 -->
<g id="node51" class="node">
<title>N37</title>
<polygon fill="#409ce5" stroke="#409ce5" points="722.19,-318 552.19,-318 552.19,-282 722.19,-282 722.19,-318"/>
<text text-anchor="middle" x="637.19" y="-296.3" font-family="Roboto" font-size="14.00" fill="#ffffff">opencv&#45;4.3.0 (97.60 MiB)</text>
</g>
<!-- N42&#45;&gt;N37 -->
<g id="edge13" class="edge">
<title>N42&#45;&gt;N37</title>
<path fill="none" stroke="black" d="M378.99,-252.67C417.14,-258.02 458.92,-264.31 497.19,-271 512.33,-273.65 528.34,-276.72 543.89,-279.87"/>
<polygon fill="black" stroke="black" points="543.54,-283.37 554.04,-281.93 544.94,-276.51 543.54,-283.37"/>
</g>
<!-- N17 -->
<g id="node20" class="node">
<title>N17</title>
<polygon fill="#3ec5e9" stroke="#3ec5e9" points="360.31,-2258.54 360.31,-2273.46 294.87,-2284 202.32,-2284 136.87,-2273.46 136.87,-2258.54 202.32,-2248 294.87,-2248 360.31,-2258.54"/>
<polygon fill="none" stroke="#3ec5e9" points="364.31,-2255.14 364.31,-2276.86 295.19,-2288 202,-2288 132.88,-2276.86 132.88,-2255.14 202,-2244 295.19,-2244 364.31,-2255.14"/>
<polygon fill="none" stroke="#3ec5e9" points="368.31,-2251.73 368.31,-2280.27 295.51,-2292 201.68,-2292 128.88,-2280.27 128.88,-2251.73 201.68,-2240 295.51,-2240 368.31,-2251.73"/>
<text text-anchor="middle" x="248.59" y="-2262.3" font-family="Roboto" font-size="14.00" fill="#000000">X11&#45;fonts (205.09 MiB)</text>
</g>
<!-- N16 -->
<g id="node21" class="node">
<title>N16</title>
<polygon fill="#3debed" stroke="#3debed" points="447.77,-2328.54 447.77,-2343.46 331.09,-2354 166.09,-2354 49.42,-2343.46 49.42,-2328.54 166.09,-2318 331.09,-2318 447.77,-2328.54"/>
<polygon fill="none" stroke="#3debed" points="451.77,-2324.89 451.77,-2347.11 331.28,-2358 165.91,-2358 45.42,-2347.11 45.42,-2324.89 165.91,-2314 331.28,-2314 451.77,-2324.89"/>
<polygon fill="none" stroke="#3debed" points="455.77,-2321.23 455.77,-2350.77 331.46,-2362 165.73,-2362 41.42,-2350.77 41.42,-2321.23 165.73,-2310 331.46,-2310 455.77,-2321.23"/>
<text text-anchor="middle" x="248.59" y="-2332.3" font-family="Roboto" font-size="14.00" fill="#000000">google&#45;chrome&#45;86.0.4240.193 (321.93 MiB)</text>
</g>
<!-- N43 -->
<g id="node22" class="node">
<title>N43</title>
<polygon fill="#417ce2" stroke="#417ce2" points="391.22,-858.54 391.22,-873.46 307.67,-884 189.52,-884 105.97,-873.46 105.97,-858.54 189.52,-848 307.67,-848 391.22,-858.54"/>
<polygon fill="none" stroke="#417ce2" points="395.22,-855.02 395.22,-876.98 307.92,-888 189.27,-888 101.97,-876.98 101.97,-855.02 189.27,-844 307.92,-844 395.22,-855.02"/>
<polygon fill="none" stroke="#417ce2" points="399.21,-851.49 399.21,-880.51 308.17,-892 189.01,-892 97.98,-880.51 97.98,-851.49 189.01,-840 308.17,-840 399.21,-851.49"/>
<text text-anchor="middle" x="248.59" y="-862.3" font-family="Roboto" font-size="14.00" fill="#ffffff">virt&#45;manager&#45;3.1.0 (31.63 MiB)</text>
</g>
<!-- N43&#45;&gt;N36 -->
<g id="edge14" class="edge">
<title>N43&#45;&gt;N36</title>
<path fill="none" stroke="black" d="M399.34,-866C441.83,-866 487.28,-866 526.89,-866"/>
<polygon fill="black" stroke="black" points="527.09,-869.5 537.09,-866 527.09,-862.5 527.09,-869.5"/>
</g>
<!-- N44 -->
<g id="node23" class="node">
<title>N44</title>
<polygon fill="#4181e3" stroke="#4181e3" points="365.17,-368.54 365.17,-383.46 296.88,-394 200.31,-394 132.02,-383.46 132.02,-368.54 200.31,-358 296.88,-358 365.17,-368.54"/>
<polygon fill="none" stroke="#4181e3" points="369.16,-365.11 369.16,-386.89 297.19,-398 200,-398 128.03,-386.89 128.03,-365.11 200,-354 297.19,-354 369.16,-365.11"/>
<polygon fill="none" stroke="#4181e3" points="373.15,-361.68 373.15,-390.32 297.49,-402 199.7,-402 124.03,-390.32 124.03,-361.68 199.7,-350 297.49,-350 373.15,-361.68"/>
<text text-anchor="middle" x="248.59" y="-372.3" font-family="Roboto" font-size="14.00" fill="#ffffff">astroid&#45;0.15 (41.50 MiB)</text>
</g>
<!-- N34 -->
<g id="node52" class="node">
<title>N34</title>
<polygon fill="#40a0e5" stroke="#40a0e5" points="737.19,-406 537.19,-406 537.19,-370 737.19,-370 737.19,-406"/>
<text text-anchor="middle" x="637.19" y="-384.3" font-family="Roboto" font-size="14.00" fill="#ffffff">webkitgtk&#45;2.30.1 (108.15 MiB)</text>
</g>
<!-- N44&#45;&gt;N34 -->
<g id="edge15" class="edge">
<title>N44&#45;&gt;N34</title>
<path fill="none" stroke="black" d="M373.24,-379.84C422.64,-381.37 479.04,-383.12 526.91,-384.61"/>
<polygon fill="black" stroke="black" points="526.88,-388.11 536.99,-384.92 527.1,-381.11 526.88,-388.11"/>
</g>
<!-- N15 -->
<g id="node24" class="node">
<title>N15</title>
<polygon fill="#3ed0ea" stroke="#3ed0ea" points="446.87,-2398.54 446.87,-2413.46 330.72,-2424 166.47,-2424 50.32,-2413.46 50.32,-2398.54 166.47,-2388 330.72,-2388 446.87,-2398.54"/>
<polygon fill="none" stroke="#3ed0ea" points="450.87,-2394.89 450.87,-2417.11 330.9,-2428 166.29,-2428 46.32,-2417.11 46.32,-2394.89 166.29,-2384 330.9,-2384 450.87,-2394.89"/>
<polygon fill="none" stroke="#3ed0ea" points="454.86,-2391.24 454.86,-2420.76 331.08,-2432 166.1,-2432 42.32,-2420.76 42.32,-2391.24 166.1,-2380 331.08,-2380 454.86,-2391.24"/>
<text text-anchor="middle" x="248.59" y="-2402.3" font-family="Roboto" font-size="14.00" fill="#000000">papirus&#45;icon&#45;theme&#45;20200801 (235.38 MiB)</text>
</g>
<!-- N45 -->
<g id="node25" class="node">
<title>N45</title>
<polygon fill="#416fe1" stroke="#416fe1" points="465.86,-2468.54 465.86,-2483.46 338.59,-2494 158.6,-2494 31.33,-2483.46 31.33,-2468.54 158.6,-2458 338.59,-2458 465.86,-2468.54"/>
<polygon fill="none" stroke="#416fe1" points="469.86,-2464.86 469.86,-2487.14 338.75,-2498 158.44,-2498 27.33,-2487.14 27.33,-2464.86 158.44,-2454 338.75,-2454 469.86,-2464.86"/>
<polygon fill="none" stroke="#416fe1" points="473.85,-2461.18 473.85,-2490.82 338.92,-2502 158.27,-2502 23.34,-2490.82 23.34,-2461.18 158.27,-2450 338.92,-2450 473.85,-2461.18"/>
<text text-anchor="middle" x="248.59" y="-2472.3" font-family="Roboto" font-size="14.00" fill="#ffffff">papirus&#45;maia&#45;icon&#45;theme&#45;2019&#45;07&#45;26 (8.96 MiB)</text>
</g>
<!-- N45&#45;&gt;N15 -->
<g id="edge16" class="edge">
<title>N45&#45;&gt;N15</title>
<path fill="none" stroke="black" d="M248.59,-2449.68C248.59,-2447.23 248.59,-2444.78 248.59,-2442.33"/>
<polygon fill="black" stroke="black" points="252.09,-2442.25 248.59,-2432.25 245.09,-2442.25 252.09,-2442.25"/>
</g>
<!-- N14 -->
<g id="node26" class="node">
<title>N14</title>
<polygon fill="#409be5" stroke="#409be5" points="395.65,-2538.54 395.65,-2553.46 309.51,-2564 187.68,-2564 101.54,-2553.46 101.54,-2538.54 187.68,-2528 309.51,-2528 395.65,-2538.54"/>
<polygon fill="none" stroke="#409be5" points="399.65,-2535 399.65,-2557 309.75,-2568 187.44,-2568 97.54,-2557 97.54,-2535 187.44,-2524 309.75,-2524 399.65,-2535"/>
<polygon fill="none" stroke="#409be5" points="403.65,-2531.46 403.65,-2560.54 310,-2572 187.19,-2572 93.53,-2560.54 93.53,-2531.46 187.19,-2520 310,-2520 403.65,-2531.46"/>
<text text-anchor="middle" x="248.59" y="-2542.3" font-family="Roboto" font-size="14.00" fill="#ffffff">fbreader&#45;qt4&#45;0.99.6 (95.74 MiB)</text>
</g>
<!-- N46 -->
<g id="node27" class="node">
<title>N46</title>
<polygon fill="#4172e2" stroke="#4172e2" points="358.57,-788.54 358.57,-803.46 294.15,-814 203.04,-814 138.62,-803.46 138.62,-788.54 203.04,-778 294.15,-778 358.57,-788.54"/>
<polygon fill="none" stroke="#4172e2" points="362.58,-785.15 362.58,-806.85 294.47,-818 202.72,-818 134.61,-806.85 134.61,-785.15 202.72,-774 294.47,-774 362.58,-785.15"/>
<polygon fill="none" stroke="#4172e2" points="366.58,-781.75 366.58,-810.25 294.8,-822 202.39,-822 130.6,-810.25 130.6,-781.75 202.39,-770 294.8,-770 366.58,-781.75"/>
<text text-anchor="middle" x="248.59" y="-792.3" font-family="Roboto" font-size="14.00" fill="#ffffff">piper&#45;0.5.1 (14.02 MiB)</text>
</g>
<!-- N46&#45;&gt;N36 -->
<g id="edge17" class="edge">
<title>N46&#45;&gt;N36</title>
<path fill="none" stroke="black" d="M366.53,-809.93C407.96,-815.55 454.8,-822.69 497.19,-831 517.86,-835.05 540.06,-840.25 560.51,-845.4"/>
<polygon fill="black" stroke="black" points="559.85,-848.84 570.4,-847.91 561.57,-842.05 559.85,-848.84"/>
</g>
<!-- N47 -->
<g id="node29" class="node">
<title>N47</title>
<polygon fill="#416ce1" stroke="#416ce1" points="366.06,-1278.54 366.06,-1293.46 297.25,-1304 199.94,-1304 131.13,-1293.46 131.13,-1278.54 199.94,-1268 297.25,-1268 366.06,-1278.54"/>
<polygon fill="none" stroke="#416ce1" points="370.06,-1275.11 370.06,-1296.89 297.56,-1308 199.63,-1308 127.13,-1296.89 127.13,-1275.11 199.63,-1264 297.56,-1264 370.06,-1275.11"/>
<polygon fill="none" stroke="#416ce1" points="374.06,-1271.68 374.06,-1300.32 297.86,-1312 199.33,-1312 123.13,-1300.32 123.13,-1271.68 199.33,-1260 297.86,-1260 374.06,-1271.68"/>
<text text-anchor="middle" x="248.59" y="-1282.3" font-family="Roboto" font-size="14.00" fill="#ffffff">nethack&#45;3.6.6 (4.61 MiB)</text>
</g>
<!-- N47&#45;&gt;N35 -->
<g id="edge18" class="edge">
<title>N47&#45;&gt;N35</title>
<path fill="none" stroke="black" d="M374.22,-1286.56C489.58,-1279.65 655.76,-1249.25 741.19,-1138 817.49,-1038.65 845.8,-632.25 852.19,-521.17"/>
<polygon fill="black" stroke="black" points="855.69,-521.26 852.76,-511.08 848.71,-520.87 855.69,-521.26"/>
</g>
<!-- N12 -->
<g id="node30" class="node">
<title>N12</title>
<polygon fill="#3de0ec" stroke="#3de0ec" points="459.69,-2608.54 459.69,-2623.46 336.03,-2634 161.16,-2634 37.5,-2623.46 37.5,-2608.54 161.16,-2598 336.03,-2598 459.69,-2608.54"/>
<polygon fill="none" stroke="#3de0ec" points="463.69,-2604.87 463.69,-2627.13 336.2,-2638 160.99,-2638 33.5,-2627.13 33.5,-2604.87 160.99,-2594 336.2,-2594 463.69,-2604.87"/>
<polygon fill="none" stroke="#3de0ec" points="467.69,-2601.2 467.69,-2630.8 336.37,-2642 160.82,-2642 29.5,-2630.8 29.5,-2601.2 160.82,-2590 336.37,-2590 467.69,-2601.2"/>
<text text-anchor="middle" x="248.59" y="-2612.3" font-family="Roboto" font-size="14.00" fill="#000000">spotify&#45;1.1.42.622.gbd112320&#45;37 (286.61 MiB)</text>
</g>
<!-- N11 -->
<g id="node31" class="node">
<title>N11</title>
<polygon fill="#3de0ec" stroke="#3de0ec" points="376.66,-2678.54 376.66,-2693.46 301.64,-2704 195.55,-2704 120.53,-2693.46 120.53,-2678.54 195.55,-2668 301.64,-2668 376.66,-2678.54"/>
<polygon fill="none" stroke="#3de0ec" points="380.66,-2675.07 380.66,-2696.93 301.92,-2708 195.27,-2708 116.52,-2696.93 116.52,-2675.07 195.27,-2664 301.92,-2664 380.66,-2675.07"/>
<polygon fill="none" stroke="#3de0ec" points="384.67,-2671.59 384.67,-2700.41 302.2,-2712 194.99,-2712 112.52,-2700.41 112.52,-2671.59 194.99,-2660 302.2,-2660 384.67,-2671.59"/>
<text text-anchor="middle" x="248.59" y="-2682.3" font-family="Roboto" font-size="14.00" fill="#000000">calibre&#45;4.23.0 (285.03 MiB)</text>
</g>
<!-- N48 -->
<g id="node32" class="node">
<title>N48</title>
<polygon fill="#416be1" stroke="#416be1" points="363.85,-2118.54 363.85,-2133.46 296.33,-2144 200.85,-2144 133.34,-2133.46 133.34,-2118.54 200.85,-2108 296.33,-2108 363.85,-2118.54"/>
<polygon fill="none" stroke="#416be1" points="367.84,-2115.12 367.84,-2136.88 296.64,-2148 200.54,-2148 129.34,-2136.88 129.34,-2115.12 200.54,-2104 296.64,-2104 367.84,-2115.12"/>
<polygon fill="none" stroke="#416be1" points="371.84,-2111.7 371.84,-2140.3 296.95,-2152 200.24,-2152 125.35,-2140.3 125.35,-2111.7 200.24,-2100 296.95,-2100 371.84,-2111.7"/>
<text text-anchor="middle" x="248.59" y="-2122.3" font-family="Roboto" font-size="14.00" fill="#ffffff">firefox&#45;82.0.2 (3.42 MiB)</text>
</g>
<!-- N48&#45;&gt;N21 -->
<g id="edge19" class="edge">
<title>N48&#45;&gt;N21</title>
<path fill="none" stroke="black" d="M248.59,-2099.68C248.59,-2097.23 248.59,-2094.78 248.59,-2092.33"/>
<polygon fill="black" stroke="black" points="252.09,-2092.25 248.59,-2082.25 245.09,-2092.25 252.09,-2092.25"/>
</g>
<!-- N10 -->
<g id="node33" class="node">
<title>N10</title>
<polygon fill="#3fbae7" stroke="#3fbae7" points="361.21,-1208.54 361.21,-1223.46 295.24,-1234 201.95,-1234 135.98,-1223.46 135.98,-1208.54 201.95,-1198 295.24,-1198 361.21,-1208.54"/>
<polygon fill="none" stroke="#3fbae7" points="365.21,-1205.13 365.21,-1226.87 295.56,-1238 201.63,-1238 131.98,-1226.87 131.98,-1205.13 201.63,-1194 295.56,-1194 365.21,-1205.13"/>
<polygon fill="none" stroke="#3fbae7" points="369.21,-1201.72 369.21,-1230.28 295.88,-1242 201.31,-1242 127.98,-1230.28 127.98,-1201.72 201.31,-1190 295.88,-1190 369.21,-1201.72"/>
<text text-anchor="middle" x="248.59" y="-1212.3" font-family="Roboto" font-size="14.00" fill="#000000">cura&#45;4.7.1 (172.83 MiB)</text>
</g>
<!-- N10&#45;&gt;N38 -->
<g id="edge20" class="edge">
<title>N10&#45;&gt;N38</title>
<path fill="none" stroke="black" d="M369.41,-1207.03C410.56,-1201.86 456.49,-1193.75 497.19,-1181 533.21,-1169.72 571.31,-1149.9 598.5,-1134.23"/>
<polygon fill="black" stroke="black" points="600.42,-1137.16 607.28,-1129.09 596.88,-1131.12 600.42,-1137.16"/>
</g>
<!-- N9 -->
<g id="node34" class="node">
<title>N9</title>
<polygon fill="#d1ff28" stroke="#d1ff28" points="376.66,-438.54 376.66,-453.46 301.64,-464 195.55,-464 120.53,-453.46 120.53,-438.54 195.55,-428 301.64,-428 376.66,-438.54"/>
<polygon fill="none" stroke="#d1ff28" points="380.66,-435.07 380.66,-456.93 301.92,-468 195.27,-468 116.52,-456.93 116.52,-435.07 195.27,-424 301.92,-424 380.66,-435.07"/>
<polygon fill="none" stroke="#d1ff28" points="384.67,-431.59 384.67,-460.41 302.2,-472 194.99,-472 112.52,-460.41 112.52,-431.59 194.99,-420 302.2,-420 384.67,-431.59"/>
<text text-anchor="middle" x="248.59" y="-442.3" font-family="Roboto" font-size="14.00" fill="#000000">bookworm&#45;1.1.2 (1.04 GiB)</text>
</g>
<!-- N9&#45;&gt;N35 -->
<g id="edge22" class="edge">
<title>N9&#45;&gt;N35</title>
<path fill="none" stroke="black" d="M384.79,-456.52C501.64,-465.61 667.03,-478.48 766.95,-486.25"/>
<polygon fill="black" stroke="black" points="766.77,-489.75 777.01,-487.03 767.31,-482.77 766.77,-489.75"/>
</g>
<!-- N9&#45;&gt;N34 -->
<g id="edge21" class="edge">
<title>N9&#45;&gt;N34</title>
<path fill="none" stroke="black" d="M370.26,-429.52C410.64,-423.85 455.89,-417.34 497.19,-411 506.89,-409.51 516.96,-407.93 527.06,-406.31"/>
<polygon fill="black" stroke="black" points="527.83,-409.73 537.14,-404.68 526.71,-402.82 527.83,-409.73"/>
</g>
<!-- N8 -->
<g id="node35" class="node">
<title>N8</title>
<polygon fill="#3af1d2" stroke="#3af1d2" points="439.38,-2748.54 439.38,-2763.46 327.62,-2774 169.57,-2774 57.81,-2763.46 57.81,-2748.54 169.57,-2738 327.62,-2738 439.38,-2748.54"/>
<polygon fill="none" stroke="#3af1d2" points="443.38,-2744.9 443.38,-2767.1 327.81,-2778 169.38,-2778 53.8,-2767.1 53.8,-2744.9 169.38,-2734 327.81,-2734 443.38,-2744.9"/>
<polygon fill="none" stroke="#3af1d2" points="447.39,-2741.26 447.39,-2770.74 328,-2782 169.19,-2782 49.8,-2770.74 49.8,-2741.26 169.19,-2730 328,-2730 447.39,-2741.26"/>
<text text-anchor="middle" x="248.59" y="-2752.3" font-family="Roboto" font-size="14.00" fill="#000000">nvidia&#45;x11&#45;455.28&#45;5.4.77&#45;bin (436.12 MiB)</text>
</g>
<!-- N7 -->
<g id="node36" class="node">
<title>N7</title>
<polygon fill="#3de4ec" stroke="#3de4ec" points="419.07,-2888.54 419.07,-2903.46 319.21,-2914 177.98,-2914 78.11,-2903.46 78.11,-2888.54 177.98,-2878 319.21,-2878 419.07,-2888.54"/>
<polygon fill="none" stroke="#3de4ec" points="423.08,-2884.94 423.08,-2907.06 319.42,-2918 177.77,-2918 74.11,-2907.06 74.11,-2884.94 177.77,-2874 319.42,-2874 423.08,-2884.94"/>
<polygon fill="none" stroke="#3de4ec" points="427.09,-2881.35 427.09,-2910.65 319.63,-2922 177.56,-2922 70.1,-2910.65 70.1,-2881.35 177.56,-2870 319.63,-2870 427.09,-2881.35"/>
<text text-anchor="middle" x="248.59" y="-2892.3" font-family="Roboto" font-size="14.00" fill="#000000">skypeforlinux&#45;8.66.0.74 (298.85 MiB)</text>
</g>
<!-- N49 -->
<g id="node37" class="node">
<title>N49</title>
<polygon fill="#4097e4" stroke="#4097e4" points="363.85,-298.54 363.85,-313.46 296.33,-324 200.85,-324 133.34,-313.46 133.34,-298.54 200.85,-288 296.33,-288 363.85,-298.54"/>
<polygon fill="none" stroke="#4097e4" points="367.84,-295.12 367.84,-316.88 296.64,-328 200.54,-328 129.34,-316.88 129.34,-295.12 200.54,-284 296.64,-284 367.84,-295.12"/>
<polygon fill="none" stroke="#4097e4" points="371.84,-291.7 371.84,-320.3 296.95,-332 200.24,-332 125.35,-320.3 125.35,-291.7 200.24,-280 296.95,-280 371.84,-291.7"/>
<text text-anchor="middle" x="248.59" y="-302.3" font-family="Roboto" font-size="14.00" fill="#ffffff">hunter&#45;1.3.5 (85.42 MiB)</text>
</g>
<!-- N49&#45;&gt;N37 -->
<g id="edge23" class="edge">
<title>N49&#45;&gt;N37</title>
<path fill="none" stroke="black" d="M371.92,-304.1C426.87,-303.25 490.72,-302.26 541.89,-301.46"/>
<polygon fill="black" stroke="black" points="542,-304.96 551.95,-301.31 541.89,-297.96 542,-304.96"/>
</g>
<!-- N6 -->
<g id="node38" class="node">
<title>N6</title>
<polygon fill="#3fbee8" stroke="#3fbee8" points="377.56,-2958.54 377.56,-2973.46 302.01,-2984 195.18,-2984 119.63,-2973.46 119.63,-2958.54 195.18,-2948 302.01,-2948 377.56,-2958.54"/>
<polygon fill="none" stroke="#3fbee8" points="381.57,-2955.06 381.57,-2976.94 302.29,-2988 194.9,-2988 115.62,-2976.94 115.62,-2955.06 194.9,-2944 302.29,-2944 381.57,-2955.06"/>
<polygon fill="none" stroke="#3fbee8" points="385.57,-2951.58 385.57,-2980.42 302.57,-2992 194.62,-2992 111.62,-2980.42 111.62,-2951.58 194.62,-2940 302.57,-2940 385.57,-2951.58"/>
<text text-anchor="middle" x="248.59" y="-2962.3" font-family="Roboto" font-size="14.00" fill="#000000">fritzing&#45;0.9.3b (185.37 MiB)</text>
</g>
<!-- N5 -->
<g id="node39" class="node">
<title>N5</title>
<polygon fill="#3fbbe8" stroke="#3fbbe8" points="370.49,-3028.54 370.49,-3043.46 299.09,-3054 198.1,-3054 126.7,-3043.46 126.7,-3028.54 198.1,-3018 299.09,-3018 370.49,-3028.54"/>
<polygon fill="none" stroke="#3fbbe8" points="374.5,-3025.09 374.5,-3046.91 299.38,-3058 197.81,-3058 122.69,-3046.91 122.69,-3025.09 197.81,-3014 299.38,-3014 374.5,-3025.09"/>
<polygon fill="none" stroke="#3fbbe8" points="378.5,-3021.64 378.5,-3050.36 299.67,-3062 197.51,-3062 118.69,-3050.36 118.69,-3021.64 197.51,-3010 299.67,-3010 378.5,-3021.64"/>
<text text-anchor="middle" x="248.59" y="-3032.3" font-family="Roboto" font-size="14.00" fill="#000000">zeal&#45;0.6.999 (176.58 MiB)</text>
</g>
<!-- N50 -->
<g id="node40" class="node">
<title>N50</title>
<polygon fill="#416ce1" stroke="#416ce1" points="375.34,-1348.54 375.34,-1363.46 301.1,-1374 196.09,-1374 121.84,-1363.46 121.84,-1348.54 196.09,-1338 301.1,-1338 375.34,-1348.54"/>
<polygon fill="none" stroke="#416ce1" points="379.35,-1345.07 379.35,-1366.93 301.38,-1378 195.81,-1378 117.84,-1366.93 117.84,-1345.07 195.81,-1334 301.38,-1334 379.35,-1345.07"/>
<polygon fill="none" stroke="#416ce1" points="383.35,-1341.6 383.35,-1370.4 301.66,-1382 195.53,-1382 113.84,-1370.4 113.84,-1341.6 195.53,-1330 301.66,-1330 383.35,-1341.6"/>
<text text-anchor="middle" x="248.59" y="-1352.3" font-family="Roboto" font-size="14.00" fill="#ffffff">openocd&#45;0.10.0 (4.09 MiB)</text>
</g>
<!-- N50&#45;&gt;N33 -->
<g id="edge24" class="edge">
<title>N50&#45;&gt;N33</title>
<path fill="none" stroke="black" d="M383.45,-1368.12C434.16,-1372.71 490.92,-1377.85 537.78,-1382.09"/>
<polygon fill="black" stroke="black" points="537.66,-1385.59 547.93,-1383.01 538.29,-1378.62 537.66,-1385.59"/>
</g>
<!-- N51 -->
<g id="node41" class="node">
<title>N51</title>
<polygon fill="#416ae1" stroke="#416ae1" points="404.04,-2818.54 404.04,-2833.46 312.98,-2844 184.21,-2844 93.15,-2833.46 93.15,-2818.54 184.21,-2808 312.98,-2808 404.04,-2818.54"/>
<polygon fill="none" stroke="#416ae1" points="408.04,-2814.98 408.04,-2837.02 313.21,-2848 183.98,-2848 89.15,-2837.02 89.15,-2814.98 183.98,-2804 313.21,-2804 408.04,-2814.98"/>
<polygon fill="none" stroke="#416ae1" points="412.04,-2811.42 412.04,-2840.58 313.44,-2852 183.75,-2852 85.15,-2840.58 85.15,-2811.42 183.75,-2800 313.44,-2800 412.04,-2811.42"/>
<text text-anchor="middle" x="248.59" y="-2822.3" font-family="Roboto" font-size="14.00" fill="#ffffff">nvidia&#45;settings&#45;455.28 (1.57 MiB)</text>
</g>
<!-- N51&#45;&gt;N8 -->
<g id="edge25" class="edge">
<title>N51&#45;&gt;N8</title>
<path fill="none" stroke="black" d="M248.59,-2799.68C248.59,-2797.23 248.59,-2794.78 248.59,-2792.33"/>
<polygon fill="black" stroke="black" points="252.09,-2792.25 248.59,-2782.25 245.09,-2792.25 252.09,-2792.25"/>
</g>
<!-- N4 -->
<g id="node42" class="node">
<title>N4</title>
<polygon fill="#3ceee5" stroke="#3ceee5" points="380.62,-578.54 380.62,-593.46 303.28,-604 193.91,-604 116.57,-593.46 116.57,-578.54 193.91,-568 303.28,-568 380.62,-578.54"/>
<polygon fill="none" stroke="#3ceee5" points="384.61,-575.05 384.61,-596.95 303.55,-608 193.64,-608 112.57,-596.95 112.57,-575.05 193.64,-564 303.55,-564 384.61,-575.05"/>
<polygon fill="none" stroke="#3ceee5" points="388.61,-571.56 388.61,-600.44 303.82,-612 193.37,-612 108.58,-600.44 108.58,-571.56 193.37,-560 303.82,-560 388.61,-571.56"/>
<text text-anchor="middle" x="248.59" y="-582.3" font-family="Roboto" font-size="14.00" fill="#000000">arduino&#45;1.8.12 (361.71 MiB)</text>
</g>
<!-- N4&#45;&gt;N32 -->
<g id="edge26" class="edge">
<title>N4&#45;&gt;N32</title>
<path fill="none" stroke="black" d="M379.49,-570.28C417.56,-564.96 459.17,-558.45 497.19,-551 517.86,-546.95 540.06,-541.75 560.51,-536.6"/>
<polygon fill="black" stroke="black" points="561.57,-539.95 570.4,-534.09 559.85,-533.16 561.57,-539.95"/>
</g>
<!-- N3 -->
<g id="node43" class="node">
<title>N3</title>
<polygon fill="#ff8f00" stroke="#ff8f00" points="431,-648.54 431,-663.46 324.15,-674 173.04,-674 66.19,-663.46 66.19,-648.54 173.04,-638 324.15,-638 431,-648.54"/>
<polygon fill="none" stroke="#ff8f00" points="435,-644.92 435,-667.08 324.34,-678 172.84,-678 62.19,-667.08 62.19,-644.92 172.84,-634 324.34,-634 435,-644.92"/>
<polygon fill="none" stroke="#ff8f00" points="439,-641.3 439,-670.7 324.54,-682 172.65,-682 58.19,-670.7 58.19,-641.3 172.65,-630 324.54,-630 439,-641.3"/>
<text text-anchor="middle" x="248.59" y="-652.3" font-family="Roboto" font-size="14.00" fill="#000000">xmonad&#45;with&#45;packages&#45;8.8.4 (2.17 GiB)</text>
</g>
<!-- N3&#45;&gt;N35 -->
<g id="edge27" class="edge">
<title>N3&#45;&gt;N35</title>
<path fill="none" stroke="black" d="M405.85,-638C436.31,-633.34 467.88,-627.7 497.19,-621 608.17,-595.61 634.79,-583.51 741.19,-543 763,-534.69 786.68,-524.38 806.66,-515.27"/>
<polygon fill="black" stroke="black" points="808.22,-518.41 815.85,-511.05 805.3,-512.05 808.22,-518.41"/>
</g>
<!-- N2 -->
<g id="node44" class="node">
<title>N2</title>
<polygon fill="#3faae6" stroke="#3faae6" points="368.28,-3098.54 368.28,-3113.46 298.17,-3124 199.02,-3124 128.91,-3113.46 128.91,-3098.54 199.02,-3088 298.17,-3088 368.28,-3098.54"/>
<polygon fill="none" stroke="#3faae6" points="372.28,-3095.1 372.28,-3116.9 298.47,-3128 198.72,-3128 124.91,-3116.9 124.91,-3095.1 198.72,-3084 298.47,-3084 372.28,-3095.1"/>
<polygon fill="none" stroke="#3faae6" points="376.28,-3091.66 376.28,-3120.34 298.77,-3132 198.42,-3132 120.91,-3120.34 120.91,-3091.66 198.42,-3080 298.77,-3080 376.28,-3091.66"/>
<text text-anchor="middle" x="248.59" y="-3102.3" font-family="Roboto" font-size="14.00" fill="#ffffff">vlc&#45;3.0.11.1 (130.29 MiB)</text>
</g>
<!-- N1 -->
<g id="node45" class="node">
<title>N1</title>
<polygon fill="#3de3ec" stroke="#3de3ec" points="380.2,-1138.54 380.2,-1153.46 303.11,-1164 194.08,-1164 116.99,-1153.46 116.99,-1138.54 194.08,-1128 303.11,-1128 380.2,-1138.54"/>
<polygon fill="none" stroke="#3de3ec" points="384.2,-1135.05 384.2,-1156.95 303.38,-1168 193.81,-1168 112.99,-1156.95 112.99,-1135.05 193.81,-1124 303.38,-1124 384.2,-1135.05"/>
<polygon fill="none" stroke="#3de3ec" points="388.2,-1131.56 388.2,-1160.44 303.65,-1172 193.54,-1172 108.99,-1160.44 108.99,-1131.56 193.54,-1120 303.65,-1120 388.2,-1131.56"/>
<text text-anchor="middle" x="248.59" y="-1142.3" font-family="Roboto" font-size="14.00" fill="#000000">blender&#45;2.90.1 (297.47 MiB)</text>
</g>
<!-- N1&#45;&gt;N38 -->
<g id="edge28" class="edge">
<title>N1&#45;&gt;N38</title>
<path fill="none" stroke="black" d="M388.34,-1133.44C442.93,-1128.5 503.85,-1122.98 551.62,-1118.66"/>
<polygon fill="black" stroke="black" points="551.97,-1122.14 561.61,-1117.75 551.34,-1115.17 551.97,-1122.14"/>
</g>
<!-- N32&#45;&gt;N35 -->
<g id="edge29" class="edge">
<title>N32&#45;&gt;N35</title>
<path fill="none" stroke="black" d="M741.21,-505.01C749.74,-504.09 758.32,-503.18 766.73,-502.28"/>
<polygon fill="black" stroke="black" points="767.31,-505.74 776.88,-501.2 766.56,-498.78 767.31,-505.74"/>
</g>
</g>
</svg>
