<?xml version="1.0" encoding="UTF-8" standalone="no"?>
<!DOCTYPE svg PUBLIC "-//W3C//DTD SVG 1.1//EN"
 "http://www.w3.org/Graphics/SVG/1.1/DTD/svg11.dtd">
<!-- Generated by graphviz version 2.43.0 (0)
 -->
<!-- Title: nixstore Pages: 1 -->
<svg width="776pt" height="2580pt"
 viewBox="0.00 0.00 776.46 2580.00" xmlns="http://www.w3.org/2000/svg" xmlns:xlink="http://www.w3.org/1999/xlink">
<g id="graph0" class="graph" transform="scale(1 1) rotate(0) translate(4 2576)">
<title>nixstore</title>
<polygon fill="white" stroke="transparent" points="-4,4 -4,-2576 772.46,-2576 772.46,4 -4,4"/>
<!-- N43 -->
<g id="node1" class="node">
<title>N43</title>
<polygon fill="#fe0000" stroke="#fe0000" points="363.08,-18.54 363.08,-33.46 297.89,-44 205.69,-44 140.49,-33.46 140.49,-18.54 205.69,-8 297.89,-8 363.08,-18.54"/>
<polygon fill="none" stroke="#fe0000" points="367.09,-15.14 367.09,-36.86 298.21,-48 205.37,-48 136.49,-36.86 136.49,-15.14 205.37,-4 298.21,-4 367.09,-15.14"/>
<polygon fill="none" stroke="#fe0000" points="371.09,-11.74 371.09,-40.26 298.53,-52 205.04,-52 132.48,-40.26 132.48,-11.74 205.04,0 298.53,0 371.09,-11.74"/>
<text text-anchor="middle" x="251.79" y="-22.3" font-family="Roboto" font-size="14.00" fill="#000000">{filtered out} (2.44 GiB)</text>
</g>
<!-- N32 -->
<g id="node2" class="node">
<title>N32</title>
<polygon fill="#3faee6" stroke="#3faee6" points="377.64,-368.54 377.64,-383.46 303.92,-394 199.66,-394 125.93,-383.46 125.93,-368.54 199.66,-358 303.92,-358 377.64,-368.54"/>
<polygon fill="none" stroke="#3faee6" points="381.64,-365.08 381.64,-386.92 304.2,-398 199.37,-398 121.94,-386.92 121.94,-365.08 199.37,-354 304.2,-354 381.64,-365.08"/>
<polygon fill="none" stroke="#3faee6" points="385.64,-361.61 385.64,-390.39 304.49,-402 199.09,-402 117.94,-390.39 117.94,-361.61 199.09,-350 304.49,-350 385.64,-361.61"/>
<text text-anchor="middle" x="251.79" y="-372.3" font-family="Roboto" font-size="14.00" fill="#ffffff">neovim&#45;0.4.3 (138.68 MiB)</text>
</g>
<!-- N29 -->
<g id="node38" class="node">
<title>N29</title>
<polygon fill="#3fb3e6" stroke="#3fb3e6" points="717.96,-254 562.96,-254 562.96,-218 717.96,-218 717.96,-254"/>
<text text-anchor="middle" x="640.46" y="-232.3" font-family="Roboto" font-size="14.00" fill="#ffffff">gcc&#45;9.3.0 (150.32 MiB)</text>
</g>
<!-- N32&#45;&gt;N29 -->
<g id="edge1" class="edge">
<title>N32&#45;&gt;N29</title>
<path fill="none" stroke="black" d="M385.86,-364.49C416.26,-359.32 448,-351.84 476.46,-341 527.29,-321.65 578.89,-284.9 610.03,-260.43"/>
<polygon fill="black" stroke="black" points="612.24,-263.15 617.88,-254.18 607.88,-257.67 612.24,-263.15"/>
</g>
<!-- N33 -->
<g id="node3" class="node">
<title>N33</title>
<polygon fill="#3ec8e8" stroke="#3ec8e8" points="400.17,-858.54 400.17,-873.46 313.25,-884 190.33,-884 103.41,-873.46 103.41,-858.54 190.33,-848 313.25,-848 400.17,-858.54"/>
<polygon fill="none" stroke="#3ec8e8" points="404.16,-855 404.16,-877 313.49,-888 190.09,-888 99.41,-877 99.41,-855 190.09,-844 313.49,-844 404.16,-855"/>
<polygon fill="none" stroke="#3ec8e8" points="408.16,-851.46 408.16,-880.54 313.73,-892 189.85,-892 95.41,-880.54 95.41,-851.46 189.85,-840 313.73,-840 408.16,-851.46"/>
<text text-anchor="middle" x="251.79" y="-862.3" font-family="Roboto" font-size="14.00" fill="#000000">virt&#45;manager&#45;2.2.1 (207.48 MiB)</text>
</g>
<!-- N26 -->
<g id="node39" class="node">
<title>N26</title>
<polygon fill="#38f4ae" stroke="#38f4ae" points="739.46,-744 541.46,-744 541.46,-708 739.46,-708 739.46,-744"/>
<text text-anchor="middle" x="640.46" y="-722.3" font-family="Roboto" font-size="14.00" fill="#000000">cairo&#45;1.16.0&#45;dev (523.60 MiB)</text>
</g>
<!-- N33&#45;&gt;N26 -->
<g id="edge2" class="edge">
<title>N33&#45;&gt;N26</title>
<path fill="none" stroke="black" d="M404.82,-850.98C429.23,-846.09 453.87,-839.6 476.46,-831 527.29,-811.65 578.89,-774.9 610.03,-750.43"/>
<polygon fill="black" stroke="black" points="612.24,-753.15 617.88,-744.18 607.88,-747.67 612.24,-753.15"/>
</g>
<!-- N34 -->
<g id="node4" class="node">
<title>N34</title>
<polygon fill="#406be1" stroke="#406be1" points="367.04,-298.54 367.04,-313.46 299.53,-324 204.05,-324 136.53,-313.46 136.53,-298.54 204.05,-288 299.53,-288 367.04,-298.54"/>
<polygon fill="none" stroke="#406be1" points="371.04,-295.12 371.04,-316.88 299.84,-328 203.74,-328 132.54,-316.88 132.54,-295.12 203.74,-284 299.84,-284 371.04,-295.12"/>
<polygon fill="none" stroke="#406be1" points="375.03,-291.7 375.03,-320.3 300.15,-332 203.43,-332 128.54,-320.3 128.54,-291.7 203.43,-280 300.15,-280 375.03,-291.7"/>
<text text-anchor="middle" x="251.79" y="-302.3" font-family="Roboto" font-size="14.00" fill="#ffffff">polybar&#45;3.4.3 (3.34 MiB)</text>
</g>
<!-- N34&#45;&gt;N29 -->
<g id="edge3" class="edge">
<title>N34&#45;&gt;N29</title>
<path fill="none" stroke="black" d="M363.92,-289.87C399.91,-284.31 439.94,-277.77 476.46,-271 501.35,-266.38 528.26,-260.84 552.9,-255.54"/>
<polygon fill="black" stroke="black" points="553.91,-258.9 562.94,-253.36 552.43,-252.06 553.91,-258.9"/>
</g>
<!-- N25 -->
<g id="node5" class="node">
<title>N25</title>
<polygon fill="#36f691" stroke="#36f691" points="396.63,-928.54 396.63,-943.46 311.78,-954 191.79,-954 106.95,-943.46 106.95,-928.54 191.79,-918 311.78,-918 396.63,-928.54"/>
<polygon fill="none" stroke="#36f691" points="400.63,-925.01 400.63,-946.99 312.03,-958 191.55,-958 102.95,-946.99 102.95,-925.01 191.55,-914 312.03,-914 400.63,-925.01"/>
<polygon fill="none" stroke="#36f691" points="404.63,-921.48 404.63,-950.52 312.28,-962 191.3,-962 98.95,-950.52 98.95,-921.48 191.3,-910 312.28,-910 404.63,-921.48"/>
<text text-anchor="middle" x="251.79" y="-932.3" font-family="Roboto" font-size="14.00" fill="#000000">libreoffice&#45;6.4.3.2 (584.62 MiB)</text>
</g>
<!-- N30 -->
<g id="node40" class="node">
<title>N30</title>
<polygon fill="#3ec7e8" stroke="#3ec7e8" points="747.96,-1024 532.96,-1024 532.96,-988 747.96,-988 747.96,-1024"/>
<text text-anchor="middle" x="640.46" y="-1002.3" font-family="Roboto" font-size="14.00" fill="#000000">openjdk&#45;8u242&#45;b08 (205.15 MiB)</text>
</g>
<!-- N25&#45;&gt;N30 -->
<g id="edge4" class="edge">
<title>N25&#45;&gt;N30</title>
<path fill="none" stroke="black" d="M376.35,-954.06C408.97,-959.18 444.1,-965 476.46,-971 500.24,-975.41 525.87,-980.67 549.6,-985.76"/>
<polygon fill="black" stroke="black" points="549.13,-989.23 559.64,-987.92 550.6,-982.39 549.13,-989.23"/>
</g>
<!-- N24 -->
<g id="node6" class="node">
<title>N24</title>
<polygon fill="#3ec4e8" stroke="#3ec4e8" points="435.51,-1278.54 435.51,-1293.46 327.89,-1304 175.69,-1304 68.07,-1293.46 68.07,-1278.54 175.69,-1268 327.89,-1268 435.51,-1278.54"/>
<polygon fill="none" stroke="#3ec4e8" points="439.51,-1274.92 439.51,-1297.08 328.08,-1308 175.49,-1308 64.07,-1297.08 64.07,-1274.92 175.49,-1264 328.08,-1264 439.51,-1274.92"/>
<polygon fill="none" stroke="#3ec4e8" points="443.51,-1271.29 443.51,-1300.71 328.28,-1312 175.3,-1312 60.07,-1300.71 60.07,-1271.29 175.3,-1260 328.28,-1260 443.51,-1271.29"/>
<text text-anchor="middle" x="251.79" y="-1282.3" font-family="Roboto" font-size="14.00" fill="#000000">tor&#45;browser&#45;bundle&#45;bin&#45;9.5 (198.17 MiB)</text>
</g>
<!-- N22 -->
<g id="node8" class="node">
<title>N22</title>
<polygon fill="#3ec8e9" stroke="#3ec8e9" points="398.85,-1138.54 398.85,-1153.46 312.7,-1164 190.87,-1164 104.73,-1153.46 104.73,-1138.54 190.87,-1128 312.7,-1128 398.85,-1138.54"/>
<polygon fill="none" stroke="#3ec8e9" points="402.85,-1135 402.85,-1157 312.95,-1168 190.63,-1168 100.73,-1157 100.73,-1135 190.63,-1124 312.95,-1124 402.85,-1135"/>
<polygon fill="none" stroke="#3ec8e9" points="406.85,-1131.46 406.85,-1160.54 313.19,-1172 190.39,-1172 96.73,-1160.54 96.73,-1131.46 190.39,-1120 313.19,-1120 406.85,-1131.46"/>
<text text-anchor="middle" x="251.79" y="-1142.3" font-family="Roboto" font-size="14.00" fill="#000000">glibc&#45;locales&#45;2.30 (209.50 MiB)</text>
</g>
<!-- N24&#45;&gt;N22 -->
<g id="edge5" class="edge">
<title>N24&#45;&gt;N22</title>
<path fill="none" stroke="black" d="M94.43,-1267.84C71.58,-1263.38 48.55,-1257.84 27.11,-1251 18.59,-1248.28 13.81,-1249.61 9.11,-1242 -3.04,-1222.34 -3.04,-1209.66 9.11,-1190 26.35,-1162.11 54.99,-1146.97 86.67,-1139.44"/>
<polygon fill="black" stroke="black" points="87.53,-1142.84 96.59,-1137.34 86.08,-1135.99 87.53,-1142.84"/>
</g>
<!-- N23 -->
<g id="node7" class="node">
<title>N23</title>
<polygon fill="#3ceaec" stroke="#3ceaec" points="378.54,-1068.54 378.54,-1083.46 304.29,-1094 199.29,-1094 125.04,-1083.46 125.04,-1068.54 199.29,-1058 304.29,-1058 378.54,-1068.54"/>
<polygon fill="none" stroke="#3ceaec" points="382.54,-1065.07 382.54,-1086.93 304.57,-1098 199,-1098 121.03,-1086.93 121.03,-1065.07 199,-1054 304.57,-1054 382.54,-1065.07"/>
<polygon fill="none" stroke="#3ceaec" points="386.55,-1061.6 386.55,-1090.4 304.86,-1102 198.72,-1102 117.03,-1090.4 117.03,-1061.6 198.72,-1050 304.86,-1050 386.55,-1061.6"/>
<text text-anchor="middle" x="251.79" y="-1072.3" font-family="Roboto" font-size="14.00" fill="#000000">arduino&#45;1.8.9 (310.06 MiB)</text>
</g>
<!-- N23&#45;&gt;N30 -->
<g id="edge6" class="edge">
<title>N23&#45;&gt;N30</title>
<path fill="none" stroke="black" d="M369.09,-1059.07C403.71,-1053.69 441.68,-1047.45 476.46,-1041 500.24,-1036.59 525.87,-1031.33 549.6,-1026.24"/>
<polygon fill="black" stroke="black" points="550.6,-1029.61 559.64,-1024.08 549.13,-1022.77 550.6,-1029.61"/>
</g>
<!-- N21 -->
<g id="node9" class="node">
<title>N21</title>
<polygon fill="#3ec4e8" stroke="#3ec4e8" points="416.52,-1348.54 416.52,-1363.46 320.02,-1374 183.56,-1374 87.06,-1363.46 87.06,-1348.54 183.56,-1338 320.02,-1338 416.52,-1348.54"/>
<polygon fill="none" stroke="#3ec4e8" points="420.52,-1344.96 420.52,-1367.04 320.24,-1378 183.34,-1378 83.06,-1367.04 83.06,-1344.96 183.34,-1334 320.24,-1334 420.52,-1344.96"/>
<polygon fill="none" stroke="#3ec4e8" points="424.52,-1341.37 424.52,-1370.63 320.46,-1382 183.12,-1382 79.05,-1370.63 79.05,-1341.37 183.12,-1330 320.46,-1330 424.52,-1341.37"/>
<text text-anchor="middle" x="251.79" y="-1352.3" font-family="Roboto" font-size="14.00" fill="#000000">thunderbird&#45;bin&#45;68.9.0 (195.76 MiB)</text>
</g>
<!-- N20 -->
<g id="node10" class="node">
<title>N20</title>
<polygon fill="#3ec2e8" stroke="#3ec2e8" points="389.56,-508.54 389.56,-523.46 308.86,-534 194.72,-534 114.01,-523.46 114.01,-508.54 194.72,-498 308.86,-498 389.56,-508.54"/>
<polygon fill="none" stroke="#3ec2e8" points="393.56,-505.03 393.56,-526.97 309.12,-538 194.46,-538 110.02,-526.97 110.02,-505.03 194.46,-494 309.12,-494 393.56,-505.03"/>
<polygon fill="none" stroke="#3ec2e8" points="397.56,-501.52 397.56,-530.48 309.38,-542 194.2,-542 106.02,-530.48 106.02,-501.52 194.2,-490 309.38,-490 397.56,-501.52"/>
<text text-anchor="middle" x="251.79" y="-512.3" font-family="Roboto" font-size="14.00" fill="#000000">inkscape&#45;0.92.5 (190.75 MiB)</text>
</g>
<!-- N31 -->
<g id="node41" class="node">
<title>N31</title>
<polygon fill="#3fb0e6" stroke="#3fb0e6" points="715.96,-534 564.96,-534 564.96,-498 715.96,-498 715.96,-534"/>
<text text-anchor="middle" x="640.46" y="-512.3" font-family="Roboto" font-size="14.00" fill="#ffffff">lapack&#45;3 (143.49 MiB)</text>
</g>
<!-- N20&#45;&gt;N31 -->
<g id="edge7" class="edge">
<title>N20&#45;&gt;N31</title>
<path fill="none" stroke="black" d="M397.6,-516C450.52,-516 508.63,-516 554.62,-516"/>
<polygon fill="black" stroke="black" points="554.84,-519.5 564.84,-516 554.84,-512.5 554.84,-519.5"/>
</g>
<!-- N19 -->
<g id="node11" class="node">
<title>N19</title>
<polygon fill="#3ec2e8" stroke="#3ec2e8" points="380.75,-1558.54 380.75,-1573.46 305.21,-1584 198.37,-1584 122.82,-1573.46 122.82,-1558.54 198.37,-1548 305.21,-1548 380.75,-1558.54"/>
<polygon fill="none" stroke="#3ec2e8" points="384.76,-1555.06 384.76,-1576.94 305.49,-1588 198.09,-1588 118.82,-1576.94 118.82,-1555.06 198.09,-1544 305.49,-1544 384.76,-1555.06"/>
<polygon fill="none" stroke="#3ec2e8" points="388.77,-1551.58 388.77,-1580.42 305.76,-1592 197.81,-1592 114.81,-1580.42 114.81,-1551.58 197.81,-1540 305.76,-1540 388.77,-1551.58"/>
<text text-anchor="middle" x="251.79" y="-1562.3" font-family="Roboto" font-size="14.00" fill="#000000">fritzing&#45;0.9.3b (190.99 MiB)</text>
</g>
<!-- N28 -->
<g id="node42" class="node">
<title>N28</title>
<polygon fill="#3fa0e5" stroke="#3fa0e5" points="729.46,-1514 551.46,-1514 551.46,-1478 729.46,-1478 729.46,-1514"/>
<text text-anchor="middle" x="640.46" y="-1492.3" font-family="Roboto" font-size="14.00" fill="#ffffff">bash&#45;4.4&#45;p23 (105.39 MiB)</text>
</g>
<!-- N19&#45;&gt;N28 -->
<g id="edge8" class="edge">
<title>N19&#45;&gt;N28</title>
<path fill="none" stroke="black" d="M369.96,-1548.94C404.34,-1543.59 441.97,-1537.4 476.46,-1531 500.24,-1526.59 525.87,-1521.33 549.6,-1516.24"/>
<polygon fill="black" stroke="black" points="550.6,-1519.61 559.64,-1514.08 549.13,-1512.77 550.6,-1519.61"/>
</g>
<!-- N35 -->
<g id="node12" class="node">
<title>N35</title>
<polygon fill="#4169e1" stroke="#4169e1" points="383.82,-998.54 383.82,-1013.46 306.48,-1024 197.1,-1024 119.76,-1013.46 119.76,-998.54 197.1,-988 306.48,-988 383.82,-998.54"/>
<polygon fill="none" stroke="#4169e1" points="387.81,-995.05 387.81,-1016.95 306.75,-1028 196.83,-1028 115.77,-1016.95 115.77,-995.05 196.83,-984 306.75,-984 387.81,-995.05"/>
<polygon fill="none" stroke="#4169e1" points="391.8,-991.56 391.8,-1020.44 307.02,-1032 196.56,-1032 111.77,-1020.44 111.77,-991.56 196.56,-980 307.02,-980 391.8,-991.56"/>
<text text-anchor="middle" x="251.79" y="-1002.3" font-family="Roboto" font-size="14.00" fill="#ffffff">libreoffice&#45;6.4.3.2 (3.55 KiB)</text>
</g>
<!-- N35&#45;&gt;N25 -->
<g id="edge9" class="edge">
<title>N35&#45;&gt;N25</title>
<path fill="none" stroke="black" d="M251.79,-979.68C251.79,-977.23 251.79,-974.78 251.79,-972.33"/>
<polygon fill="black" stroke="black" points="255.29,-972.25 251.79,-962.25 248.29,-972.25 255.29,-972.25"/>
</g>
<!-- N18 -->
<g id="node13" class="node">
<title>N18</title>
<polygon fill="#3ddbeb" stroke="#3ddbeb" points="431.97,-1628.54 431.97,-1643.46 326.42,-1654 177.15,-1654 71.6,-1643.46 71.6,-1628.54 177.15,-1618 326.42,-1618 431.97,-1628.54"/>
<polygon fill="none" stroke="#3ddbeb" points="435.97,-1624.92 435.97,-1647.08 326.62,-1658 176.95,-1658 67.6,-1647.08 67.6,-1624.92 176.95,-1614 326.62,-1614 435.97,-1624.92"/>
<polygon fill="none" stroke="#3ddbeb" points="439.98,-1621.3 439.98,-1650.7 326.82,-1662 176.75,-1662 63.6,-1650.7 63.6,-1621.3 176.75,-1610 326.82,-1610 439.98,-1621.3"/>
<text text-anchor="middle" x="251.79" y="-1632.3" font-family="Roboto" font-size="14.00" fill="#000000">qemu&#45;host&#45;cpu&#45;only&#45;4.2.0 (263.68 MiB)</text>
</g>
<!-- N36 -->
<g id="node14" class="node">
<title>N36</title>
<polygon fill="#3f9be4" stroke="#3f9be4" points="398.85,-228.54 398.85,-243.46 312.7,-254 190.87,-254 104.73,-243.46 104.73,-228.54 190.87,-218 312.7,-218 398.85,-228.54"/>
<polygon fill="none" stroke="#3f9be4" points="402.85,-225 402.85,-247 312.95,-258 190.63,-258 100.73,-247 100.73,-225 190.63,-214 312.95,-214 402.85,-225"/>
<polygon fill="none" stroke="#3f9be4" points="406.85,-221.46 406.85,-250.54 313.19,-262 190.39,-262 96.73,-250.54 96.73,-221.46 190.39,-210 313.19,-210 406.85,-221.46"/>
<text text-anchor="middle" x="251.79" y="-232.3" font-family="Roboto" font-size="14.00" fill="#ffffff">stepmania&#45;5.1.0&#45;b2 (93.37 MiB)</text>
</g>
<!-- N36&#45;&gt;N29 -->
<g id="edge10" class="edge">
<title>N36&#45;&gt;N29</title>
<path fill="none" stroke="black" d="M407,-236C456.59,-236 509.77,-236 552.73,-236"/>
<polygon fill="black" stroke="black" points="552.86,-239.5 562.86,-236 552.86,-232.5 552.86,-239.5"/>
</g>
<!-- N17 -->
<g id="node15" class="node">
<title>N17</title>
<polygon fill="#3ebfe8" stroke="#3ebfe8" points="398.85,-788.54 398.85,-803.46 312.7,-814 190.87,-814 104.73,-803.46 104.73,-788.54 190.87,-778 312.7,-778 398.85,-788.54"/>
<polygon fill="none" stroke="#3ebfe8" points="402.85,-785 402.85,-807 312.95,-818 190.63,-818 100.73,-807 100.73,-785 190.63,-774 312.95,-774 402.85,-785"/>
<polygon fill="none" stroke="#3ebfe8" points="406.85,-781.46 406.85,-810.54 313.19,-822 190.39,-822 96.73,-810.54 96.73,-781.46 190.39,-770 313.19,-770 406.85,-781.46"/>
<text text-anchor="middle" x="251.79" y="-792.3" font-family="Roboto" font-size="14.00" fill="#000000">wireshark&#45;qt&#45;3.2.4 (182.71 MiB)</text>
</g>
<!-- N17&#45;&gt;N26 -->
<g id="edge11" class="edge">
<title>N17&#45;&gt;N26</title>
<path fill="none" stroke="black" d="M377.23,-777.8C409.6,-772.72 444.39,-766.95 476.46,-761 500.24,-756.59 525.87,-751.33 549.6,-746.24"/>
<polygon fill="black" stroke="black" points="550.6,-749.61 559.64,-744.08 549.13,-742.77 550.6,-749.61"/>
</g>
<!-- N16 -->
<g id="node16" class="node">
<title>N16</title>
<polygon fill="#3ec6e8" stroke="#3ec6e8" points="468.63,-1698.54 468.63,-1713.46 341.61,-1724 161.97,-1724 34.94,-1713.46 34.94,-1698.54 161.97,-1688 341.61,-1688 468.63,-1698.54"/>
<polygon fill="none" stroke="#3ec6e8" points="472.64,-1694.86 472.64,-1717.14 341.77,-1728 161.8,-1728 30.94,-1717.14 30.94,-1694.86 161.8,-1684 341.77,-1684 472.64,-1694.86"/>
<polygon fill="none" stroke="#3ec6e8" points="476.64,-1691.18 476.64,-1720.82 341.94,-1732 161.64,-1732 26.94,-1720.82 26.94,-1691.18 161.64,-1680 341.94,-1680 476.64,-1691.18"/>
<text text-anchor="middle" x="251.79" y="-1702.3" font-family="Roboto" font-size="14.00" fill="#000000">firefox&#45;beta&#45;bin&#45;unwrapped&#45;77.0b7 (203.80 MiB)</text>
</g>
<!-- N38 -->
<g id="node17" class="node">
<title>N38</title>
<polygon fill="#406ae1" stroke="#406ae1" points="412.09,-1978.54 412.09,-1993.46 318.19,-2004 185.39,-2004 91.49,-1993.46 91.49,-1978.54 185.39,-1968 318.19,-1968 412.09,-1978.54"/>
<polygon fill="none" stroke="#406ae1" points="416.08,-1974.97 416.08,-1997.03 318.41,-2008 185.17,-2008 87.49,-1997.03 87.49,-1974.97 185.17,-1964 318.41,-1964 416.08,-1974.97"/>
<polygon fill="none" stroke="#406ae1" points="420.08,-1971.39 420.08,-2000.61 318.63,-2012 184.94,-2012 83.5,-2000.61 83.5,-1971.39 184.94,-1960 318.63,-1960 420.08,-1971.39"/>
<text text-anchor="middle" x="251.79" y="-1982.3" font-family="Roboto" font-size="14.00" fill="#ffffff">nvidia&#45;settings&#45;390.132 (1.67 MiB)</text>
</g>
<!-- N37 -->
<g id="node24" class="node">
<title>N37</title>
<polygon fill="#4084e2" stroke="#4084e2" points="442.58,-1908.54 442.58,-1923.46 330.81,-1934 172.76,-1934 61,-1923.46 61,-1908.54 172.76,-1898 330.81,-1898 442.58,-1908.54"/>
<polygon fill="none" stroke="#4084e2" points="446.58,-1904.9 446.58,-1927.1 331,-1938 172.57,-1938 57,-1927.1 57,-1904.9 172.57,-1894 331,-1894 446.58,-1904.9"/>
<polygon fill="none" stroke="#4084e2" points="450.58,-1901.26 450.58,-1930.74 331.19,-1942 172.38,-1942 53,-1930.74 53,-1901.26 172.38,-1890 331.19,-1890 450.58,-1901.26"/>
<text text-anchor="middle" x="251.79" y="-1912.3" font-family="Roboto" font-size="14.00" fill="#ffffff">nvidia&#45;x11&#45;390.132&#45;5.4.44&#45;bin (46.91 MiB)</text>
</g>
<!-- N38&#45;&gt;N37 -->
<g id="edge12" class="edge">
<title>N38&#45;&gt;N37</title>
<path fill="none" stroke="black" d="M251.79,-1959.68C251.79,-1957.23 251.79,-1954.78 251.79,-1952.33"/>
<polygon fill="black" stroke="black" points="255.29,-1952.25 251.79,-1942.25 248.29,-1952.25 255.29,-1952.25"/>
</g>
<!-- N15 -->
<g id="node18" class="node">
<title>N15</title>
<polygon fill="#3de0eb" stroke="#3de0eb" points="458.03,-2048.54 458.03,-2063.46 337.22,-2074 166.36,-2074 45.55,-2063.46 45.55,-2048.54 166.36,-2038 337.22,-2038 458.03,-2048.54"/>
<polygon fill="none" stroke="#3de0eb" points="462.03,-2044.88 462.03,-2067.12 337.39,-2078 166.19,-2078 41.54,-2067.12 41.54,-2044.88 166.19,-2034 337.39,-2034 462.03,-2044.88"/>
<polygon fill="none" stroke="#3de0eb" points="466.04,-2041.21 466.04,-2070.79 337.57,-2082 166.01,-2082 37.54,-2070.79 37.54,-2041.21 166.01,-2030 337.57,-2030 466.04,-2041.21"/>
<text text-anchor="middle" x="251.79" y="-2052.3" font-family="Roboto" font-size="14.00" fill="#000000">spotifywm&#45;unstable&#45;2016&#45;11&#45;28 (279.08 MiB)</text>
</g>
<!-- N14 -->
<g id="node19" class="node">
<title>N14</title>
<polygon fill="#3ddbeb" stroke="#3ddbeb" points="380.75,-438.54 380.75,-453.46 305.21,-464 198.37,-464 122.82,-453.46 122.82,-438.54 198.37,-428 305.21,-428 380.75,-438.54"/>
<polygon fill="none" stroke="#3ddbeb" points="384.76,-435.06 384.76,-456.94 305.49,-468 198.09,-468 118.82,-456.94 118.82,-435.06 198.09,-424 305.49,-424 384.76,-435.06"/>
<polygon fill="none" stroke="#3ddbeb" points="388.77,-431.58 388.77,-460.42 305.76,-472 197.81,-472 114.81,-460.42 114.81,-431.58 197.81,-420 305.76,-420 388.77,-431.58"/>
<text text-anchor="middle" x="251.79" y="-442.3" font-family="Roboto" font-size="14.00" fill="#000000">blender&#45;2.82a (264.92 MiB)</text>
</g>
<!-- N14&#45;&gt;N31 -->
<g id="edge13" class="edge">
<title>N14&#45;&gt;N31</title>
<path fill="none" stroke="black" d="M369.96,-463.06C404.34,-468.41 441.97,-474.6 476.46,-481 501.96,-485.73 529.58,-491.44 554.71,-496.86"/>
<polygon fill="black" stroke="black" points="554.06,-500.3 564.58,-499 555.55,-493.46 554.06,-500.3"/>
</g>
<!-- N13 -->
<g id="node20" class="node">
<title>N13</title>
<polygon fill="#3ebae7" stroke="#3ebae7" points="395.31,-158.54 395.31,-173.46 311.24,-184 192.34,-184 108.26,-173.46 108.26,-158.54 192.34,-148 311.24,-148 395.31,-158.54"/>
<polygon fill="none" stroke="#3ebae7" points="399.31,-155.01 399.31,-176.99 311.49,-188 192.09,-188 104.26,-176.99 104.26,-155.01 192.09,-144 311.49,-144 399.31,-155.01"/>
<polygon fill="none" stroke="#3ebae7" points="403.31,-151.48 403.31,-180.52 311.74,-192 191.84,-192 100.26,-180.52 100.26,-151.48 191.84,-140 311.74,-140 403.31,-151.48"/>
<text text-anchor="middle" x="251.79" y="-162.3" font-family="Roboto" font-size="14.00" fill="#000000">upwork&#45;5.3.3.862 (168.58 MiB)</text>
</g>
<!-- N13&#45;&gt;N29 -->
<g id="edge14" class="edge">
<title>N13&#45;&gt;N29</title>
<path fill="none" stroke="black" d="M376.06,-184.02C408.76,-189.14 444,-194.98 476.46,-201 501.35,-205.62 528.26,-211.16 552.9,-216.46"/>
<polygon fill="black" stroke="black" points="552.43,-219.94 562.94,-218.64 553.91,-213.1 552.43,-219.94"/>
</g>
<!-- N12 -->
<g id="node21" class="node">
<title>N12</title>
<polygon fill="#34f94a" stroke="#34f94a" points="416.94,-1488.54 416.94,-1503.46 320.2,-1514 183.38,-1514 86.64,-1503.46 86.64,-1488.54 183.38,-1478 320.2,-1478 416.94,-1488.54"/>
<polygon fill="none" stroke="#34f94a" points="420.93,-1484.96 420.93,-1507.04 320.41,-1518 183.16,-1518 82.64,-1507.04 82.64,-1484.96 183.16,-1474 320.41,-1474 420.93,-1484.96"/>
<polygon fill="none" stroke="#34f94a" points="424.93,-1481.37 424.93,-1510.63 320.63,-1522 182.95,-1522 78.65,-1510.63 78.65,-1481.37 182.95,-1470 320.63,-1470 424.93,-1481.37"/>
<text text-anchor="middle" x="251.79" y="-1492.3" font-family="Roboto" font-size="14.00" fill="#000000">kodi&#45;with&#45;plugins&#45;18.5 (672.20 MiB)</text>
</g>
<!-- N12&#45;&gt;N28 -->
<g id="edge15" class="edge">
<title>N12&#45;&gt;N28</title>
<path fill="none" stroke="black" d="M425.21,-1496C464.89,-1496 505.76,-1496 541.03,-1496"/>
<polygon fill="black" stroke="black" points="541.31,-1499.5 551.31,-1496 541.31,-1492.5 541.31,-1499.5"/>
</g>
<!-- N11 -->
<g id="node22" class="node">
<title>N11</title>
<polygon fill="#3ec6e8" stroke="#3ec6e8" points="373.68,-2118.54 373.68,-2133.46 302.28,-2144 201.3,-2144 129.89,-2133.46 129.89,-2118.54 201.3,-2108 302.28,-2108 373.68,-2118.54"/>
<polygon fill="none" stroke="#3ec6e8" points="377.69,-2115.09 377.69,-2136.91 302.57,-2148 201,-2148 125.89,-2136.91 125.89,-2115.09 201,-2104 302.57,-2104 377.69,-2115.09"/>
<polygon fill="none" stroke="#3ec6e8" points="381.7,-2111.64 381.7,-2140.36 302.87,-2152 200.71,-2152 121.88,-2140.36 121.88,-2111.64 200.71,-2100 302.87,-2100 381.7,-2111.64"/>
<text text-anchor="middle" x="251.79" y="-2122.3" font-family="Roboto" font-size="14.00" fill="#000000">astroid&#45;0.15 (202.14 MiB)</text>
</g>
<!-- N10 -->
<g id="node23" class="node">
<title>N10</title>
<polygon fill="#3af0d8" stroke="#3af0d8" points="364.4,-1418.54 364.4,-1433.46 298.43,-1444 205.14,-1444 139.17,-1433.46 139.17,-1418.54 205.14,-1408 298.43,-1408 364.4,-1418.54"/>
<polygon fill="none" stroke="#3af0d8" points="368.4,-1415.13 368.4,-1436.87 298.75,-1448 204.82,-1448 135.17,-1436.87 135.17,-1415.13 204.82,-1404 298.75,-1404 368.4,-1415.13"/>
<polygon fill="none" stroke="#3af0d8" points="372.41,-1411.72 372.41,-1440.28 299.07,-1452 204.51,-1452 131.17,-1440.28 131.17,-1411.72 204.51,-1400 299.07,-1400 372.41,-1411.72"/>
<text text-anchor="middle" x="251.79" y="-1422.3" font-family="Roboto" font-size="14.00" fill="#000000">cura&#45;4.4.0 (400.17 MiB)</text>
</g>
<!-- N10&#45;&gt;N28 -->
<g id="edge16" class="edge">
<title>N10&#45;&gt;N28</title>
<path fill="none" stroke="black" d="M362.5,-1441.91C398.85,-1447.51 439.46,-1454.14 476.46,-1461 500.24,-1465.41 525.87,-1470.67 549.6,-1475.76"/>
<polygon fill="black" stroke="black" points="549.13,-1479.23 559.64,-1477.92 550.6,-1472.39 549.13,-1479.23"/>
</g>
<!-- N27 -->
<g id="node43" class="node">
<title>N27</title>
<polygon fill="#3fb0e6" stroke="#3fb0e6" points="768.46,-1899 512.46,-1899 512.46,-1863 768.46,-1863 768.46,-1899"/>
<text text-anchor="middle" x="640.46" y="-1877.3" font-family="Roboto" font-size="14.00" fill="#ffffff">nvidia&#45;x11&#45;390.132&#45;5.4.44 (142.84 MiB)</text>
</g>
<!-- N37&#45;&gt;N27 -->
<g id="edge17" class="edge">
<title>N37&#45;&gt;N27</title>
<path fill="none" stroke="black" d="M433.67,-1899.63C456.68,-1897.54 479.93,-1895.44 502.1,-1893.43"/>
<polygon fill="black" stroke="black" points="502.57,-1896.91 512.21,-1892.52 501.93,-1889.93 502.57,-1896.91"/>
</g>
<!-- N9 -->
<g id="node25" class="node">
<title>N9</title>
<polygon fill="#fed400" stroke="#fed400" points="337.02,-1208.54 337.02,-1223.46 287.09,-1234 216.48,-1234 166.55,-1223.46 166.55,-1208.54 216.48,-1198 287.09,-1198 337.02,-1208.54"/>
<polygon fill="none" stroke="#fed400" points="341.03,-1205.3 341.03,-1226.7 287.51,-1238 216.06,-1238 162.55,-1226.7 162.55,-1205.3 216.06,-1194 287.51,-1194 341.03,-1205.3"/>
<polygon fill="none" stroke="#fed400" points="345.03,-1202.06 345.03,-1229.94 287.93,-1242 215.65,-1242 158.54,-1229.94 158.54,-1202.06 215.65,-1190 287.93,-1190 345.03,-1202.06"/>
<text text-anchor="middle" x="251.79" y="-1212.3" font-family="Roboto" font-size="14.00" fill="#000000">steam (1.65 GiB)</text>
</g>
<!-- N9&#45;&gt;N22 -->
<g id="edge18" class="edge">
<title>N9&#45;&gt;N22</title>
<path fill="none" stroke="black" d="M251.79,-1189.68C251.79,-1187.23 251.79,-1184.78 251.79,-1182.33"/>
<polygon fill="black" stroke="black" points="255.29,-1182.25 251.79,-1172.25 248.29,-1182.25 255.29,-1182.25"/>
</g>
<!-- N39 -->
<g id="node26" class="node">
<title>N39</title>
<polygon fill="#4069e1" stroke="#4069e1" points="376.32,-718.54 376.32,-733.46 303.37,-744 200.2,-744 127.25,-733.46 127.25,-718.54 200.2,-708 303.37,-708 376.32,-718.54"/>
<polygon fill="none" stroke="#4069e1" points="380.32,-715.08 380.32,-736.92 303.66,-748 199.92,-748 123.25,-736.92 123.25,-715.08 199.92,-704 303.66,-704 380.32,-715.08"/>
<polygon fill="none" stroke="#4069e1" points="384.32,-711.62 384.32,-740.38 303.95,-752 199.63,-752 119.25,-740.38 119.25,-711.62 199.63,-700 303.95,-700 384.32,-711.62"/>
<text text-anchor="middle" x="251.79" y="-722.3" font-family="Roboto" font-size="14.00" fill="#ffffff">arandr&#45;0.1.10 (203.91 KiB)</text>
</g>
<!-- N39&#45;&gt;N26 -->
<g id="edge19" class="edge">
<title>N39&#45;&gt;N26</title>
<path fill="none" stroke="black" d="M384.51,-726C432.22,-726 485.53,-726 531.01,-726"/>
<polygon fill="black" stroke="black" points="531.19,-729.5 541.19,-726 531.19,-722.5 531.19,-729.5"/>
</g>
<!-- N8 -->
<g id="node27" class="node">
<title>N8</title>
<polygon fill="#3fb3e6" stroke="#3fb3e6" points="377.64,-578.54 377.64,-593.46 303.92,-604 199.66,-604 125.93,-593.46 125.93,-578.54 199.66,-568 303.92,-568 377.64,-578.54"/>
<polygon fill="none" stroke="#3fb3e6" points="381.64,-575.08 381.64,-596.92 304.2,-608 199.37,-608 121.94,-596.92 121.94,-575.08 199.37,-564 304.2,-564 381.64,-575.08"/>
<polygon fill="none" stroke="#3fb3e6" points="385.64,-571.61 385.64,-600.39 304.49,-612 199.09,-612 117.94,-600.39 117.94,-571.61 199.09,-560 304.49,-560 385.64,-571.61"/>
<text text-anchor="middle" x="251.79" y="-582.3" font-family="Roboto" font-size="14.00" fill="#ffffff">gimp&#45;2.10.18 (150.63 MiB)</text>
</g>
<!-- N8&#45;&gt;N26 -->
<g id="edge20" class="edge">
<title>N8&#45;&gt;N26</title>
<path fill="none" stroke="black" d="M385.86,-597.51C416.26,-602.68 448,-610.16 476.46,-621 527.29,-640.35 578.89,-677.1 610.03,-701.57"/>
<polygon fill="black" stroke="black" points="607.88,-704.33 617.88,-707.82 612.24,-698.85 607.88,-704.33"/>
</g>
<!-- N8&#45;&gt;N31 -->
<g id="edge21" class="edge">
<title>N8&#45;&gt;N31</title>
<path fill="none" stroke="black" d="M368.8,-569.12C403.5,-563.73 441.59,-557.47 476.46,-551 501.96,-546.27 529.58,-540.56 554.71,-535.14"/>
<polygon fill="black" stroke="black" points="555.55,-538.54 564.58,-533 554.06,-531.7 555.55,-538.54"/>
</g>
<!-- N7 -->
<g id="node28" class="node">
<title>N7</title>
<polygon fill="#3ceaec" stroke="#3ceaec" points="358.65,-2188.54 358.65,-2203.46 296.05,-2214 207.52,-2214 144.92,-2203.46 144.92,-2188.54 207.52,-2178 296.05,-2178 358.65,-2188.54"/>
<polygon fill="none" stroke="#3ceaec" points="362.65,-2185.16 362.65,-2206.84 296.39,-2218 207.19,-2218 140.92,-2206.84 140.92,-2185.16 207.19,-2174 296.39,-2174 362.65,-2185.16"/>
<polygon fill="none" stroke="#3ceaec" points="366.65,-2181.78 366.65,-2210.22 296.72,-2222 206.85,-2222 136.93,-2210.22 136.93,-2181.78 206.85,-2170 296.72,-2170 366.65,-2181.78"/>
<text text-anchor="middle" x="251.79" y="-2192.3" font-family="Roboto" font-size="14.00" fill="#000000">ino&#45;0.3.6 (310.71 MiB)</text>
</g>
<!-- N40 -->
<g id="node29" class="node">
<title>N40</title>
<polygon fill="#4069e1" stroke="#4069e1" points="442.58,-1838.54 442.58,-1853.46 330.81,-1864 172.76,-1864 61,-1853.46 61,-1838.54 172.76,-1828 330.81,-1828 442.58,-1838.54"/>
<polygon fill="none" stroke="#4069e1" points="446.58,-1834.9 446.58,-1857.1 331,-1868 172.57,-1868 57,-1857.1 57,-1834.9 172.57,-1824 331,-1824 446.58,-1834.9"/>
<polygon fill="none" stroke="#4069e1" points="450.58,-1831.26 450.58,-1860.74 331.19,-1872 172.38,-1872 53,-1860.74 53,-1831.26 172.38,-1820 331.19,-1820 450.58,-1831.26"/>
<text text-anchor="middle" x="251.79" y="-1842.3" font-family="Roboto" font-size="14.00" fill="#ffffff">nvidia&#45;persistenced&#45;390.132 (107.70 KiB)</text>
</g>
<!-- N40&#45;&gt;N27 -->
<g id="edge22" class="edge">
<title>N40&#45;&gt;N27</title>
<path fill="none" stroke="black" d="M433.67,-1862.37C456.68,-1864.46 479.93,-1866.56 502.1,-1868.57"/>
<polygon fill="black" stroke="black" points="501.93,-1872.07 512.21,-1869.48 502.57,-1865.09 501.93,-1872.07"/>
</g>
<!-- N6 -->
<g id="node30" class="node">
<title>N6</title>
<polygon fill="#3ecde9" stroke="#3ecde9" points="450.06,-2258.54 450.06,-2273.46 333.92,-2284 169.66,-2284 53.51,-2273.46 53.51,-2258.54 169.66,-2248 333.92,-2248 450.06,-2258.54"/>
<polygon fill="none" stroke="#3ecde9" points="454.06,-2254.89 454.06,-2277.11 334.1,-2288 169.48,-2288 49.52,-2277.11 49.52,-2254.89 169.48,-2244 334.1,-2244 454.06,-2254.89"/>
<polygon fill="none" stroke="#3ecde9" points="458.06,-2251.24 458.06,-2280.76 334.28,-2292 169.3,-2292 45.52,-2280.76 45.52,-2251.24 169.3,-2240 334.28,-2240 458.06,-2251.24"/>
<text text-anchor="middle" x="251.79" y="-2262.3" font-family="Roboto" font-size="14.00" fill="#000000">papirus&#45;icon&#45;theme&#45;20200430 (221.53 MiB)</text>
</g>
<!-- N5 -->
<g id="node31" class="node">
<title>N5</title>
<polygon fill="#3fa2e5" stroke="#3fa2e5" points="386.03,-2328.54 386.03,-2343.46 307.39,-2354 196.18,-2354 117.55,-2343.46 117.55,-2328.54 196.18,-2318 307.39,-2318 386.03,-2328.54"/>
<polygon fill="none" stroke="#3fa2e5" points="390.03,-2325.04 390.03,-2346.96 307.66,-2358 195.92,-2358 113.55,-2346.96 113.55,-2325.04 195.92,-2314 307.66,-2314 390.03,-2325.04"/>
<polygon fill="none" stroke="#3fa2e5" points="394.02,-2321.54 394.02,-2350.46 307.93,-2362 195.65,-2362 109.55,-2350.46 109.55,-2321.54 195.65,-2310 307.93,-2310 394.02,-2321.54"/>
<text text-anchor="middle" x="251.79" y="-2332.3" font-family="Roboto" font-size="14.00" fill="#ffffff">nomacs&#45;3.14.2 (108.73 MiB)</text>
</g>
<!-- N4 -->
<g id="node32" class="node">
<title>N4</title>
<polygon fill="#fe8200" stroke="#fe8200" points="434.19,-88.54 434.19,-103.46 327.34,-114 176.24,-114 69.39,-103.46 69.39,-88.54 176.24,-78 327.34,-78 434.19,-88.54"/>
<polygon fill="none" stroke="#fe8200" points="438.19,-84.92 438.19,-107.08 327.54,-118 176.04,-118 65.38,-107.08 65.38,-84.92 176.04,-74 327.54,-74 438.19,-84.92"/>
<polygon fill="none" stroke="#fe8200" points="442.2,-81.3 442.2,-110.7 327.74,-122 175.84,-122 61.38,-110.7 61.38,-81.3 175.84,-70 327.74,-70 442.2,-81.3"/>
<text text-anchor="middle" x="251.79" y="-92.3" font-family="Roboto" font-size="14.00" fill="#000000">xmonad&#45;with&#45;packages&#45;8.8.3 (2.17 GiB)</text>
</g>
<!-- N4&#45;&gt;N29 -->
<g id="edge23" class="edge">
<title>N4&#45;&gt;N29</title>
<path fill="none" stroke="black" d="M415.84,-113.34C436.59,-117.91 457.27,-123.69 476.46,-131 527.29,-150.35 578.89,-187.1 610.03,-211.57"/>
<polygon fill="black" stroke="black" points="607.88,-214.33 617.88,-217.82 612.24,-208.85 607.88,-214.33"/>
</g>
<!-- N3 -->
<g id="node33" class="node">
<title>N3</title>
<polygon fill="#3eb8e7" stroke="#3eb8e7" points="381.18,-2398.54 381.18,-2413.46 305.38,-2424 198.19,-2424 122.4,-2413.46 122.4,-2398.54 198.19,-2388 305.38,-2388 381.18,-2398.54"/>
<polygon fill="none" stroke="#3eb8e7" points="385.18,-2395.06 385.18,-2416.94 305.66,-2428 197.92,-2428 118.4,-2416.94 118.4,-2395.06 197.92,-2384 305.66,-2384 385.18,-2395.06"/>
<polygon fill="none" stroke="#3eb8e7" points="389.17,-2391.58 389.17,-2420.42 305.94,-2432 197.64,-2432 114.4,-2420.42 114.4,-2391.58 197.64,-2380 305.94,-2380 389.17,-2391.58"/>
<text text-anchor="middle" x="251.79" y="-2402.3" font-family="Roboto" font-size="14.00" fill="#000000">gzdoom&#45;4.3.3 (163.52 MiB)</text>
</g>
<!-- N41 -->
<g id="node34" class="node">
<title>N41</title>
<polygon fill="#406be1" stroke="#406be1" points="407.23,-1768.54 407.23,-1783.46 316.18,-1794 187.4,-1794 96.34,-1783.46 96.34,-1768.54 187.4,-1758 316.18,-1758 407.23,-1768.54"/>
<polygon fill="none" stroke="#406be1" points="411.23,-1764.98 411.23,-1787.02 316.41,-1798 187.17,-1798 92.34,-1787.02 92.34,-1764.98 187.17,-1754 316.41,-1754 411.23,-1764.98"/>
<polygon fill="none" stroke="#406be1" points="415.23,-1761.42 415.23,-1790.58 316.64,-1802 186.94,-1802 88.34,-1790.58 88.34,-1761.42 186.94,-1750 316.64,-1750 415.23,-1761.42"/>
<text text-anchor="middle" x="251.79" y="-1772.3" font-family="Roboto" font-size="14.00" fill="#ffffff">firefox&#45;beta&#45;bin&#45;77.0b7 (3.25 MiB)</text>
</g>
<!-- N41&#45;&gt;N16 -->
<g id="edge24" class="edge">
<title>N41&#45;&gt;N16</title>
<path fill="none" stroke="black" d="M251.79,-1749.68C251.79,-1747.23 251.79,-1744.78 251.79,-1742.33"/>
<polygon fill="black" stroke="black" points="255.29,-1742.25 251.79,-1732.25 248.29,-1742.25 255.29,-1742.25"/>
</g>
<!-- N2 -->
<g id="node35" class="node">
<title>N2</title>
<polygon fill="#3dddeb" stroke="#3dddeb" points="371.47,-2468.54 371.47,-2483.46 301.36,-2494 202.21,-2494 132.11,-2483.46 132.11,-2468.54 202.21,-2458 301.36,-2458 371.47,-2468.54"/>
<polygon fill="none" stroke="#3dddeb" points="375.47,-2465.1 375.47,-2486.9 301.66,-2498 201.92,-2498 128.1,-2486.9 128.1,-2465.1 201.92,-2454 301.66,-2454 375.47,-2465.1"/>
<polygon fill="none" stroke="#3dddeb" points="379.48,-2461.66 379.48,-2490.34 301.96,-2502 201.62,-2502 124.1,-2490.34 124.1,-2461.66 201.62,-2450 301.96,-2450 379.48,-2461.66"/>
<text text-anchor="middle" x="251.79" y="-2472.3" font-family="Roboto" font-size="14.00" fill="#000000">elixir&#45;1.10.3 (271.33 MiB)</text>
</g>
<!-- N42 -->
<g id="node36" class="node">
<title>N42</title>
<polygon fill="#4071e1" stroke="#4071e1" points="353.8,-648.54 353.8,-663.46 294.04,-674 209.53,-674 149.78,-663.46 149.78,-648.54 209.53,-638 294.04,-638 353.8,-648.54"/>
<polygon fill="none" stroke="#4071e1" points="357.8,-645.19 357.8,-666.81 294.39,-678 209.18,-678 145.78,-666.81 145.78,-645.19 209.18,-634 294.39,-634 357.8,-645.19"/>
<polygon fill="none" stroke="#4071e1" points="361.8,-641.83 361.8,-670.17 294.74,-682 208.83,-682 141.78,-670.17 141.78,-641.83 208.83,-630 294.74,-630 361.8,-641.83"/>
<text text-anchor="middle" x="251.79" y="-652.3" font-family="Roboto" font-size="14.00" fill="#ffffff">piper&#45;0.4 (12.98 MiB)</text>
</g>
<!-- N42&#45;&gt;N26 -->
<g id="edge25" class="edge">
<title>N42&#45;&gt;N26</title>
<path fill="none" stroke="black" d="M357.12,-671.08C394.81,-676.86 437.62,-683.8 476.46,-691 500.24,-695.41 525.87,-700.67 549.6,-705.76"/>
<polygon fill="black" stroke="black" points="549.13,-709.23 559.64,-707.92 550.6,-702.39 549.13,-709.23"/>
</g>
<!-- N1 -->
<g id="node37" class="node">
<title>N1</title>
<polygon fill="#3ce8ec" stroke="#3ce8ec" points="445.21,-2538.54 445.21,-2553.46 331.91,-2564 171.67,-2564 58.37,-2553.46 58.37,-2538.54 171.67,-2528 331.91,-2528 445.21,-2538.54"/>
<polygon fill="none" stroke="#3ce8ec" points="449.21,-2534.9 449.21,-2557.1 332.09,-2568 171.48,-2568 54.37,-2557.1 54.37,-2534.9 171.48,-2524 332.09,-2524 449.21,-2534.9"/>
<polygon fill="none" stroke="#3ce8ec" points="453.21,-2531.25 453.21,-2560.75 332.28,-2572 171.3,-2572 50.37,-2560.75 50.37,-2531.25 171.3,-2520 332.28,-2520 453.21,-2531.25"/>
<text text-anchor="middle" x="251.79" y="-2542.3" font-family="Roboto" font-size="14.00" fill="#000000">google&#45;chrome&#45;83.0.4103.97 (305.43 MiB)</text>
</g>
</g>
</svg>
