<?xml version="1.0" encoding="UTF-8" standalone="no"?>
<!DOCTYPE svg PUBLIC "-//W3C//DTD SVG 1.1//EN"
 "http://www.w3.org/Graphics/SVG/1.1/DTD/svg11.dtd">
<!-- Generated by graphviz version 2.43.0 (0)
 -->
<!-- Title: nixstore Pages: 1 -->
<svg width="776pt" height="3070pt"
 viewBox="0.00 0.00 776.46 3070.00" xmlns="http://www.w3.org/2000/svg" xmlns:xlink="http://www.w3.org/1999/xlink">
<g id="graph0" class="graph" transform="scale(1 1) rotate(0) translate(4 3066)">
<title>nixstore</title>
<polygon fill="white" stroke="transparent" points="-4,4 -4,-3066 772.46,-3066 772.46,4 -4,4"/>
<!-- N52 -->
<g id="node1" class="node">
<title>N52</title>
<polygon fill="#fe0000" stroke="#fe0000" points="363.08,-18.54 363.08,-33.46 297.89,-44 205.69,-44 140.49,-33.46 140.49,-18.54 205.69,-8 297.89,-8 363.08,-18.54"/>
<polygon fill="none" stroke="#fe0000" points="367.09,-15.14 367.09,-36.86 298.21,-48 205.37,-48 136.49,-36.86 136.49,-15.14 205.37,-4 298.21,-4 367.09,-15.14"/>
<polygon fill="none" stroke="#fe0000" points="371.09,-11.74 371.09,-40.26 298.53,-52 205.04,-52 132.48,-40.26 132.48,-11.74 205.04,0 298.53,0 371.09,-11.74"/>
<text text-anchor="middle" x="251.79" y="-22.3" font-family="Times-Roman" font-size="14.00" fill="#000000">{filtered out} (2.34 GiB)</text>
</g>
<!-- N38 -->
<g id="node2" class="node">
<title>N38</title>
<polygon fill="#3dd1e9" stroke="#3dd1e9" points="400.17,-928.54 400.17,-943.46 313.25,-954 190.33,-954 103.41,-943.46 103.41,-928.54 190.33,-918 313.25,-918 400.17,-928.54"/>
<polygon fill="none" stroke="#3dd1e9" points="404.16,-925 404.16,-947 313.49,-958 190.09,-958 99.41,-947 99.41,-925 190.09,-914 313.49,-914 404.16,-925"/>
<polygon fill="none" stroke="#3dd1e9" points="408.16,-921.46 408.16,-950.54 313.73,-962 189.85,-962 95.41,-950.54 95.41,-921.46 189.85,-910 313.73,-910 408.16,-921.46"/>
<text text-anchor="middle" x="251.79" y="-932.3" font-family="Times-Roman" font-size="14.00" fill="#000000">virt&#45;manager&#45;2.2.1 (224.77 MiB)</text>
</g>
<!-- N35 -->
<g id="node45" class="node">
<title>N35</title>
<polygon fill="#38f4b2" stroke="#38f4b2" points="746.46,-954 534.46,-954 534.46,-918 746.46,-918 746.46,-954"/>
<text text-anchor="middle" x="640.46" y="-932.3" font-family="Times-Roman" font-size="14.00" fill="#000000">libXfixes&#45;5.0.3&#45;dev (493.23 MiB)</text>
</g>
<!-- N38&#45;&gt;N35 -->
<g id="edge1" class="edge">
<title>N38&#45;&gt;N35</title>
<path fill="none" stroke="black" d="M408.39,-936C447.05,-936 487.79,-936 524.12,-936"/>
<polygon fill="black" stroke="black" points="524.25,-939.5 534.25,-936 524.25,-932.5 524.25,-939.5"/>
</g>
<!-- N29 -->
<g id="node3" class="node">
<title>N29</title>
<polygon fill="#36f68a" stroke="#36f68a" points="393.1,-858.54 393.1,-873.46 310.32,-884 193.26,-884 110.48,-873.46 110.48,-858.54 193.26,-848 310.32,-848 393.1,-858.54"/>
<polygon fill="none" stroke="#36f68a" points="397.1,-855.02 397.1,-876.98 310.57,-888 193,-888 106.48,-876.98 106.48,-855.02 193,-844 310.57,-844 397.1,-855.02"/>
<polygon fill="none" stroke="#36f68a" points="401.09,-851.5 401.09,-880.5 310.83,-892 192.75,-892 102.48,-880.5 102.48,-851.5 192.75,-840 310.83,-840 401.09,-851.5"/>
<text text-anchor="middle" x="251.79" y="-862.3" font-family="Times-Roman" font-size="14.00" fill="#000000">wesnoth&#45;1.14.11 (571.35 MiB)</text>
</g>
<!-- N29&#45;&gt;N35 -->
<g id="edge2" class="edge">
<title>N29&#45;&gt;N35</title>
<path fill="none" stroke="black" d="M375.18,-883.88C408.13,-889.04 443.71,-894.93 476.46,-901 500.24,-905.41 525.87,-910.67 549.6,-915.76"/>
<polygon fill="black" stroke="black" points="549.13,-919.23 559.64,-917.92 550.6,-912.39 549.13,-919.23"/>
</g>
<!-- N39 -->
<g id="node4" class="node">
<title>N39</title>
<polygon fill="#407fe2" stroke="#407fe2" points="371.9,-508.54 371.9,-523.46 301.54,-534 202.04,-534 131.68,-523.46 131.68,-508.54 202.04,-498 301.54,-498 371.9,-508.54"/>
<polygon fill="none" stroke="#407fe2" points="375.89,-505.1 375.89,-526.9 301.84,-538 201.74,-538 127.69,-526.9 127.69,-505.1 201.74,-494 301.84,-494 375.89,-505.1"/>
<polygon fill="none" stroke="#407fe2" points="379.88,-501.65 379.88,-530.35 302.13,-542 201.44,-542 123.69,-530.35 123.69,-501.65 201.44,-490 302.13,-490 379.88,-501.65"/>
<text text-anchor="middle" x="251.79" y="-512.3" font-family="Times-Roman" font-size="14.00" fill="#ffffff">polybar&#45;3.4.3 (35.38 MiB)</text>
</g>
<!-- N33 -->
<g id="node46" class="node">
<title>N33</title>
<polygon fill="#3fb0e6" stroke="#3fb0e6" points="717.96,-499 562.96,-499 562.96,-463 717.96,-463 717.96,-499"/>
<text text-anchor="middle" x="640.46" y="-477.3" font-family="Times-Roman" font-size="14.00" fill="#ffffff">gcc&#45;9.3.0 (136.80 MiB)</text>
</g>
<!-- N39&#45;&gt;N33 -->
<g id="edge3" class="edge">
<title>N39&#45;&gt;N33</title>
<path fill="none" stroke="black" d="M379.94,-504.49C436.58,-499.36 501.85,-493.46 552.76,-488.85"/>
<polygon fill="black" stroke="black" points="553.1,-492.33 562.75,-487.94 552.47,-485.36 553.1,-492.33"/>
</g>
<!-- N40 -->
<g id="node5" class="node">
<title>N40</title>
<polygon fill="#4086e2" stroke="#4086e2" points="426.22,-1418.54 426.22,-1433.46 324.04,-1444 179.54,-1444 77.35,-1433.46 77.35,-1418.54 179.54,-1408 324.04,-1408 426.22,-1418.54"/>
<polygon fill="none" stroke="#4086e2" points="430.22,-1414.94 430.22,-1437.06 324.25,-1448 179.33,-1448 73.36,-1437.06 73.36,-1414.94 179.33,-1404 324.25,-1404 430.22,-1414.94"/>
<polygon fill="none" stroke="#4086e2" points="434.22,-1411.33 434.22,-1440.67 324.45,-1452 179.12,-1452 69.36,-1440.67 69.36,-1411.33 179.12,-1400 324.45,-1400 434.22,-1411.33"/>
<text text-anchor="middle" x="251.79" y="-1422.3" font-family="Times-Roman" font-size="14.00" fill="#ffffff">openra&#45;release&#45;20190314 (47.51 MiB)</text>
</g>
<!-- N36 -->
<g id="node47" class="node">
<title>N36</title>
<polygon fill="#3beee2" stroke="#3beee2" points="737.96,-1409 542.96,-1409 542.96,-1373 737.96,-1373 737.96,-1409"/>
<text text-anchor="middle" x="640.46" y="-1387.3" font-family="Times-Roman" font-size="14.00" fill="#000000">mono&#45;5.20.1.27 (349.63 MiB)</text>
</g>
<!-- N40&#45;&gt;N36 -->
<g id="edge4" class="edge">
<title>N40&#45;&gt;N36</title>
<path fill="none" stroke="black" d="M425.21,-1410.39C461.8,-1407.08 499.4,-1403.68 532.69,-1400.66"/>
<polygon fill="black" stroke="black" points="533.24,-1404.13 542.88,-1399.74 532.61,-1397.16 533.24,-1404.13"/>
</g>
<!-- N28 -->
<g id="node6" class="node">
<title>N28</title>
<polygon fill="#3ceded" stroke="#3ceded" points="378.54,-1628.54 378.54,-1643.46 304.29,-1654 199.29,-1654 125.04,-1643.46 125.04,-1628.54 199.29,-1618 304.29,-1618 378.54,-1628.54"/>
<polygon fill="none" stroke="#3ceded" points="382.54,-1625.07 382.54,-1646.93 304.57,-1658 199,-1658 121.03,-1646.93 121.03,-1625.07 199,-1614 304.57,-1614 382.54,-1625.07"/>
<polygon fill="none" stroke="#3ceded" points="386.55,-1621.6 386.55,-1650.4 304.86,-1662 198.72,-1662 117.03,-1650.4 117.03,-1621.6 198.72,-1610 304.86,-1610 386.55,-1621.6"/>
<text text-anchor="middle" x="251.79" y="-1632.3" font-family="Times-Roman" font-size="14.00" fill="#000000">arduino&#45;1.8.9 (306.72 MiB)</text>
</g>
<!-- N31 -->
<g id="node48" class="node">
<title>N31</title>
<polygon fill="#3ecae9" stroke="#3ecae9" points="747.96,-1584 532.96,-1584 532.96,-1548 747.96,-1548 747.96,-1584"/>
<text text-anchor="middle" x="640.46" y="-1562.3" font-family="Times-Roman" font-size="14.00" fill="#000000">openjdk&#45;8u242&#45;b08 (204.96 MiB)</text>
</g>
<!-- N28&#45;&gt;N31 -->
<g id="edge5" class="edge">
<title>N28&#45;&gt;N31</title>
<path fill="none" stroke="black" d="M369.09,-1619.07C403.71,-1613.69 441.68,-1607.45 476.46,-1601 500.24,-1596.59 525.87,-1591.33 549.6,-1586.24"/>
<polygon fill="black" stroke="black" points="550.6,-1589.61 559.64,-1584.08 549.13,-1582.77 550.6,-1589.61"/>
</g>
<!-- N41 -->
<g id="node7" class="node">
<title>N41</title>
<polygon fill="#406ce1" stroke="#406ce1" points="369.26,-438.54 369.26,-453.46 300.45,-464 203.13,-464 134.32,-453.46 134.32,-438.54 203.13,-428 300.45,-428 369.26,-438.54"/>
<polygon fill="none" stroke="#406ce1" points="373.26,-435.11 373.26,-456.89 300.75,-468 202.83,-468 130.32,-456.89 130.32,-435.11 202.83,-424 300.75,-424 373.26,-435.11"/>
<polygon fill="none" stroke="#406ce1" points="377.25,-431.68 377.25,-460.32 301.05,-472 202.52,-472 126.32,-460.32 126.32,-431.68 202.52,-420 301.05,-420 377.25,-431.68"/>
<text text-anchor="middle" x="251.79" y="-442.3" font-family="Times-Roman" font-size="14.00" fill="#ffffff">nethack&#45;3.6.6 (4.58 MiB)</text>
</g>
<!-- N41&#45;&gt;N33 -->
<g id="edge6" class="edge">
<title>N41&#45;&gt;N33</title>
<path fill="none" stroke="black" d="M377.26,-457.27C434.49,-462.45 500.98,-468.47 552.69,-473.15"/>
<polygon fill="black" stroke="black" points="552.55,-476.65 562.82,-474.06 553.18,-469.68 552.55,-476.65"/>
</g>
<!-- N27 -->
<g id="node8" class="node">
<title>N27</title>
<polygon fill="#3de1eb" stroke="#3de1eb" points="461.98,-1698.54 461.98,-1713.46 338.85,-1724 164.72,-1724 41.59,-1713.46 41.59,-1698.54 164.72,-1688 338.85,-1688 461.98,-1698.54"/>
<polygon fill="none" stroke="#3de1eb" points="465.98,-1694.87 465.98,-1717.13 339.02,-1728 164.55,-1728 37.6,-1717.13 37.6,-1694.87 164.55,-1684 339.02,-1684 465.98,-1694.87"/>
<polygon fill="none" stroke="#3de1eb" points="469.98,-1691.2 469.98,-1720.8 339.2,-1732 164.38,-1732 33.6,-1720.8 33.6,-1691.2 164.38,-1680 339.2,-1680 469.98,-1691.2"/>
<text text-anchor="middle" x="251.79" y="-1702.3" font-family="Times-Roman" font-size="14.00" fill="#000000">spotify&#45;1.1.26.501.gbe11e53b&#45;15 (272.32 MiB)</text>
</g>
<!-- N26 -->
<g id="node9" class="node">
<title>N26</title>
<polygon fill="#3ecce9" stroke="#3ecce9" points="398.85,-1208.54 398.85,-1223.46 312.7,-1234 190.87,-1234 104.73,-1223.46 104.73,-1208.54 190.87,-1198 312.7,-1198 398.85,-1208.54"/>
<polygon fill="none" stroke="#3ecce9" points="402.85,-1205 402.85,-1227 312.95,-1238 190.63,-1238 100.73,-1227 100.73,-1205 190.63,-1194 312.95,-1194 402.85,-1205"/>
<polygon fill="none" stroke="#3ecce9" points="406.85,-1201.46 406.85,-1230.54 313.19,-1242 190.39,-1242 96.73,-1230.54 96.73,-1201.46 190.39,-1190 313.19,-1190 406.85,-1201.46"/>
<text text-anchor="middle" x="251.79" y="-1212.3" font-family="Times-Roman" font-size="14.00" fill="#000000">glibc&#45;locales&#45;2.30 (209.50 MiB)</text>
</g>
<!-- N25 -->
<g id="node10" class="node">
<title>N25</title>
<polygon fill="#fed801" stroke="#fed801" points="369.26,-1138.54 369.26,-1153.46 300.45,-1164 203.13,-1164 134.32,-1153.46 134.32,-1138.54 203.13,-1128 300.45,-1128 369.26,-1138.54"/>
<polygon fill="none" stroke="#fed801" points="373.26,-1135.11 373.26,-1156.89 300.75,-1168 202.83,-1168 130.32,-1156.89 130.32,-1135.11 202.83,-1124 300.75,-1124 373.26,-1135.11"/>
<polygon fill="none" stroke="#fed801" points="377.25,-1131.68 377.25,-1160.32 301.05,-1172 202.52,-1172 126.32,-1160.32 126.32,-1131.68 202.52,-1120 301.05,-1120 377.25,-1131.68"/>
<text text-anchor="middle" x="251.79" y="-1142.3" font-family="Times-Roman" font-size="14.00" fill="#000000">wine&#45;wow&#45;5.0 (1.55 GiB)</text>
</g>
<!-- N25&#45;&gt;N35 -->
<g id="edge8" class="edge">
<title>N25&#45;&gt;N35</title>
<path fill="none" stroke="black" d="M377.33,-1141.3C410.96,-1136.16 446.35,-1126.99 476.46,-1111 543.01,-1075.67 597.11,-1002.51 622.98,-962.89"/>
<polygon fill="black" stroke="black" points="626.2,-964.35 628.64,-954.04 620.3,-960.58 626.2,-964.35"/>
</g>
<!-- N34 -->
<g id="node49" class="node">
<title>N34</title>
<polygon fill="#3fafe6" stroke="#3fafe6" points="716.46,-1242 564.46,-1242 564.46,-1206 716.46,-1206 716.46,-1242"/>
<text text-anchor="middle" x="640.46" y="-1220.3" font-family="Times-Roman" font-size="14.00" fill="#ffffff">glu&#45;9.0.1 (135.38 MiB)</text>
</g>
<!-- N25&#45;&gt;N34 -->
<g id="edge7" class="edge">
<title>N25&#45;&gt;N34</title>
<path fill="none" stroke="black" d="M368.14,-1161.73C403.07,-1167.12 441.46,-1173.66 476.46,-1181 506.44,-1187.28 539.15,-1195.62 567.35,-1203.27"/>
<polygon fill="black" stroke="black" points="566.56,-1206.68 577.13,-1205.95 568.4,-1199.93 566.56,-1206.68"/>
</g>
<!-- N24 -->
<g id="node11" class="node">
<title>N24</title>
<polygon fill="#3ecce9" stroke="#3ecce9" points="389.56,-158.54 389.56,-173.46 308.86,-184 194.72,-184 114.01,-173.46 114.01,-158.54 194.72,-148 308.86,-148 389.56,-158.54"/>
<polygon fill="none" stroke="#3ecce9" points="393.56,-155.03 393.56,-176.97 309.12,-188 194.46,-188 110.02,-176.97 110.02,-155.03 194.46,-144 309.12,-144 393.56,-155.03"/>
<polygon fill="none" stroke="#3ecce9" points="397.56,-151.52 397.56,-180.48 309.38,-192 194.2,-192 106.02,-180.48 106.02,-151.52 194.2,-140 309.38,-140 397.56,-151.52"/>
<text text-anchor="middle" x="251.79" y="-162.3" font-family="Times-Roman" font-size="14.00" fill="#000000">inkscape&#45;0.92.5 (210.93 MiB)</text>
</g>
<!-- N37 -->
<g id="node50" class="node">
<title>N37</title>
<polygon fill="#3fb2e6" stroke="#3fb2e6" points="715.96,-184 564.96,-184 564.96,-148 715.96,-148 715.96,-184"/>
<text text-anchor="middle" x="640.46" y="-162.3" font-family="Times-Roman" font-size="14.00" fill="#ffffff">lapack&#45;3 (143.49 MiB)</text>
</g>
<!-- N24&#45;&gt;N37 -->
<g id="edge9" class="edge">
<title>N24&#45;&gt;N37</title>
<path fill="none" stroke="black" d="M397.6,-166C450.52,-166 508.63,-166 554.62,-166"/>
<polygon fill="black" stroke="black" points="554.84,-169.5 564.84,-166 554.84,-162.5 554.84,-169.5"/>
</g>
<!-- N23 -->
<g id="node12" class="node">
<title>N23</title>
<polygon fill="#3fa9e5" stroke="#3fa9e5" points="401.06,-1768.54 401.06,-1783.46 313.62,-1794 189.96,-1794 102.51,-1783.46 102.51,-1768.54 189.96,-1758 313.62,-1758 401.06,-1768.54"/>
<polygon fill="none" stroke="#3fa9e5" points="405.07,-1765 405.07,-1787 313.86,-1798 189.72,-1798 98.51,-1787 98.51,-1765 189.72,-1754 313.86,-1754 405.07,-1765"/>
<polygon fill="none" stroke="#3fa9e5" points="409.07,-1761.45 409.07,-1790.55 314.1,-1802 189.48,-1802 94.51,-1790.55 94.51,-1761.45 189.48,-1750 314.1,-1750 409.07,-1761.45"/>
<text text-anchor="middle" x="251.79" y="-1772.3" font-family="Times-Roman" font-size="14.00" fill="#ffffff">wireshark&#45;cli&#45;3.2.4 (120.45 MiB)</text>
</g>
<!-- N42 -->
<g id="node13" class="node">
<title>N42</title>
<polygon fill="#408ae3" stroke="#408ae3" points="412.98,-788.54 412.98,-803.46 318.56,-814 185.02,-814 90.59,-803.46 90.59,-788.54 185.02,-778 318.56,-778 412.98,-788.54"/>
<polygon fill="none" stroke="#408ae3" points="416.99,-784.97 416.99,-807.03 318.78,-818 184.8,-818 86.59,-807.03 86.59,-784.97 184.8,-774 318.78,-774 416.99,-784.97"/>
<polygon fill="none" stroke="#408ae3" points="420.99,-781.39 420.99,-810.61 319,-822 184.57,-822 82.59,-810.61 82.59,-781.39 184.57,-770 319,-770 420.99,-781.39"/>
<text text-anchor="middle" x="251.79" y="-792.3" font-family="Times-Roman" font-size="14.00" fill="#ffffff">dwarf&#45;fortress&#45;0.47.04 (55.65 MiB)</text>
</g>
<!-- N42&#45;&gt;N35 -->
<g id="edge11" class="edge">
<title>N42&#45;&gt;N35</title>
<path fill="none" stroke="black" d="M409.29,-811.93C432.23,-816.71 455.25,-822.92 476.46,-831 527.29,-850.35 578.89,-887.1 610.03,-911.57"/>
<polygon fill="black" stroke="black" points="607.88,-914.33 617.88,-917.82 612.24,-908.85 607.88,-914.33"/>
</g>
<!-- N42&#45;&gt;N33 -->
<g id="edge10" class="edge">
<title>N42&#45;&gt;N33</title>
<path fill="none" stroke="black" d="M420.95,-786.54C440.71,-780.66 459.75,-772.42 476.46,-761 567.84,-698.56 615.04,-566.71 632,-509.02"/>
<polygon fill="black" stroke="black" points="635.44,-509.72 634.81,-499.14 628.7,-507.8 635.44,-509.72"/>
</g>
<!-- N44 -->
<g id="node14" class="node">
<title>N44</title>
<polygon fill="#406ae1" stroke="#406ae1" points="412.09,-1978.54 412.09,-1993.46 318.19,-2004 185.39,-2004 91.49,-1993.46 91.49,-1978.54 185.39,-1968 318.19,-1968 412.09,-1978.54"/>
<polygon fill="none" stroke="#406ae1" points="416.08,-1974.97 416.08,-1997.03 318.41,-2008 185.17,-2008 87.49,-1997.03 87.49,-1974.97 185.17,-1964 318.41,-1964 416.08,-1974.97"/>
<polygon fill="none" stroke="#406ae1" points="420.08,-1971.39 420.08,-2000.61 318.63,-2012 184.94,-2012 83.5,-2000.61 83.5,-1971.39 184.94,-1960 318.63,-1960 420.08,-1971.39"/>
<text text-anchor="middle" x="251.79" y="-1982.3" font-family="Times-Roman" font-size="14.00" fill="#ffffff">nvidia&#45;settings&#45;390.132 (1.67 MiB)</text>
</g>
<!-- N43 -->
<g id="node19" class="node">
<title>N43</title>
<polygon fill="#4085e2" stroke="#4085e2" points="442.58,-1908.54 442.58,-1923.46 330.81,-1934 172.76,-1934 61,-1923.46 61,-1908.54 172.76,-1898 330.81,-1898 442.58,-1908.54"/>
<polygon fill="none" stroke="#4085e2" points="446.58,-1904.9 446.58,-1927.1 331,-1938 172.57,-1938 57,-1927.1 57,-1904.9 172.57,-1894 331,-1894 446.58,-1904.9"/>
<polygon fill="none" stroke="#4085e2" points="450.58,-1901.26 450.58,-1930.74 331.19,-1942 172.38,-1942 53,-1930.74 53,-1901.26 172.38,-1890 331.19,-1890 450.58,-1901.26"/>
<text text-anchor="middle" x="251.79" y="-1912.3" font-family="Times-Roman" font-size="14.00" fill="#ffffff">nvidia&#45;x11&#45;390.132&#45;5.4.43&#45;bin (46.91 MiB)</text>
</g>
<!-- N44&#45;&gt;N43 -->
<g id="edge12" class="edge">
<title>N44&#45;&gt;N43</title>
<path fill="none" stroke="black" d="M251.79,-1959.68C251.79,-1957.23 251.79,-1954.78 251.79,-1952.33"/>
<polygon fill="black" stroke="black" points="255.29,-1952.25 251.79,-1942.25 248.29,-1952.25 255.29,-1952.25"/>
</g>
<!-- N45 -->
<g id="node15" class="node">
<title>N45</title>
<polygon fill="#3f9de4" stroke="#3f9de4" points="398.85,-368.54 398.85,-383.46 312.7,-394 190.87,-394 104.73,-383.46 104.73,-368.54 190.87,-358 312.7,-358 398.85,-368.54"/>
<polygon fill="none" stroke="#3f9de4" points="402.85,-365 402.85,-387 312.95,-398 190.63,-398 100.73,-387 100.73,-365 190.63,-354 312.95,-354 402.85,-365"/>
<polygon fill="none" stroke="#3f9de4" points="406.85,-361.46 406.85,-390.54 313.19,-402 190.39,-402 96.73,-390.54 96.73,-361.46 190.39,-350 313.19,-350 406.85,-361.46"/>
<text text-anchor="middle" x="251.79" y="-372.3" font-family="Times-Roman" font-size="14.00" fill="#ffffff">stepmania&#45;5.1.0&#45;b2 (93.37 MiB)</text>
</g>
<!-- N45&#45;&gt;N33 -->
<g id="edge13" class="edge">
<title>N45&#45;&gt;N33</title>
<path fill="none" stroke="black" d="M392.38,-392.32C420.5,-397.14 449.65,-403.28 476.46,-411 518.08,-422.99 563.16,-442.92 595.34,-458.46"/>
<polygon fill="black" stroke="black" points="593.95,-461.68 604.48,-462.92 597.02,-455.39 593.95,-461.68"/>
</g>
<!-- N22 -->
<g id="node16" class="node">
<title>N22</title>
<polygon fill="#37f4a7" stroke="#37f4a7" points="364.4,-2188.54 364.4,-2203.46 298.43,-2214 205.14,-2214 139.17,-2203.46 139.17,-2188.54 205.14,-2178 298.43,-2178 364.4,-2188.54"/>
<polygon fill="none" stroke="#37f4a7" points="368.4,-2185.13 368.4,-2206.87 298.75,-2218 204.82,-2218 135.17,-2206.87 135.17,-2185.13 204.82,-2174 298.75,-2174 368.4,-2185.13"/>
<polygon fill="none" stroke="#37f4a7" points="372.41,-2181.72 372.41,-2210.28 299.07,-2222 204.51,-2222 131.17,-2210.28 131.17,-2181.72 204.51,-2170 299.07,-2170 372.41,-2181.72"/>
<text text-anchor="middle" x="251.79" y="-2192.3" font-family="Times-Roman" font-size="14.00" fill="#000000">cura&#45;4.4.0 (517.29 MiB)</text>
</g>
<!-- N30 -->
<g id="node51" class="node">
<title>N30</title>
<polygon fill="#3fb0e6" stroke="#3fb0e6" points="729.46,-2144 551.46,-2144 551.46,-2108 729.46,-2108 729.46,-2144"/>
<text text-anchor="middle" x="640.46" y="-2122.3" font-family="Times-Roman" font-size="14.00" fill="#ffffff">bash&#45;4.4&#45;p23 (136.81 MiB)</text>
</g>
<!-- N22&#45;&gt;N30 -->
<g id="edge14" class="edge">
<title>N22&#45;&gt;N30</title>
<path fill="none" stroke="black" d="M362.5,-2180.09C398.85,-2174.49 439.46,-2167.86 476.46,-2161 500.24,-2156.59 525.87,-2151.33 549.6,-2146.24"/>
<polygon fill="black" stroke="black" points="550.6,-2149.61 559.64,-2144.08 549.13,-2142.77 550.6,-2149.61"/>
</g>
<!-- N21 -->
<g id="node17" class="node">
<title>N21</title>
<polygon fill="#3ecee9" stroke="#3ecee9" points="468.63,-2258.54 468.63,-2273.46 341.61,-2284 161.97,-2284 34.94,-2273.46 34.94,-2258.54 161.97,-2248 341.61,-2248 468.63,-2258.54"/>
<polygon fill="none" stroke="#3ecee9" points="472.64,-2254.86 472.64,-2277.14 341.77,-2288 161.8,-2288 30.94,-2277.14 30.94,-2254.86 161.8,-2244 341.77,-2244 472.64,-2254.86"/>
<polygon fill="none" stroke="#3ecee9" points="476.64,-2251.18 476.64,-2280.82 341.94,-2292 161.64,-2292 26.94,-2280.82 26.94,-2251.18 161.64,-2240 341.94,-2240 476.64,-2251.18"/>
<text text-anchor="middle" x="251.79" y="-2262.3" font-family="Times-Roman" font-size="14.00" fill="#000000">firefox&#45;beta&#45;bin&#45;unwrapped&#45;77.0b7 (217.24 MiB)</text>
</g>
<!-- N20 -->
<g id="node18" class="node">
<title>N20</title>
<polygon fill="#3befe0" stroke="#3befe0" points="361.76,-298.54 361.76,-313.46 297.34,-324 206.24,-324 141.81,-313.46 141.81,-298.54 206.24,-288 297.34,-288 361.76,-298.54"/>
<polygon fill="none" stroke="#3befe0" points="365.77,-295.15 365.77,-316.85 297.67,-328 205.91,-328 137.81,-316.85 137.81,-295.15 205.91,-284 297.67,-284 365.77,-295.15"/>
<polygon fill="none" stroke="#3befe0" points="369.78,-291.75 369.78,-320.25 297.99,-332 205.58,-332 133.8,-320.25 133.8,-291.75 205.58,-280 297.99,-280 369.78,-291.75"/>
<text text-anchor="middle" x="251.79" y="-302.3" font-family="Times-Roman" font-size="14.00" fill="#000000">go&#45;1.14.2 (357.45 MiB)</text>
</g>
<!-- N20&#45;&gt;N33 -->
<g id="edge15" class="edge">
<title>N20&#45;&gt;N33</title>
<path fill="none" stroke="black" d="M369.56,-311.95C405.1,-316.97 443.45,-325.76 476.46,-341 535.17,-368.09 589.09,-422.67 617.81,-455.1"/>
<polygon fill="black" stroke="black" points="615.34,-457.6 624.55,-462.83 620.62,-453 615.34,-457.6"/>
</g>
<!-- N32 -->
<g id="node52" class="node">
<title>N32</title>
<polygon fill="#3fb2e6" stroke="#3fb2e6" points="768.46,-1899 512.46,-1899 512.46,-1863 768.46,-1863 768.46,-1899"/>
<text text-anchor="middle" x="640.46" y="-1877.3" font-family="Times-Roman" font-size="14.00" fill="#ffffff">nvidia&#45;x11&#45;390.132&#45;5.4.43 (142.84 MiB)</text>
</g>
<!-- N43&#45;&gt;N32 -->
<g id="edge16" class="edge">
<title>N43&#45;&gt;N32</title>
<path fill="none" stroke="black" d="M433.67,-1899.63C456.68,-1897.54 479.93,-1895.44 502.1,-1893.43"/>
<polygon fill="black" stroke="black" points="502.57,-1896.91 512.21,-1892.52 501.93,-1889.93 502.57,-1896.91"/>
</g>
<!-- N19 -->
<g id="node20" class="node">
<title>N19</title>
<polygon fill="#3ddfeb" stroke="#3ddfeb" points="380.75,-88.54 380.75,-103.46 305.21,-114 198.37,-114 122.82,-103.46 122.82,-88.54 198.37,-78 305.21,-78 380.75,-88.54"/>
<polygon fill="none" stroke="#3ddfeb" points="384.76,-85.06 384.76,-106.94 305.49,-118 198.09,-118 118.82,-106.94 118.82,-85.06 198.09,-74 305.49,-74 384.76,-85.06"/>
<polygon fill="none" stroke="#3ddfeb" points="388.77,-81.58 388.77,-110.42 305.76,-122 197.81,-122 114.81,-110.42 114.81,-81.58 197.81,-70 305.76,-70 388.77,-81.58"/>
<text text-anchor="middle" x="251.79" y="-92.3" font-family="Times-Roman" font-size="14.00" fill="#000000">blender&#45;2.82a (264.92 MiB)</text>
</g>
<!-- N19&#45;&gt;N37 -->
<g id="edge17" class="edge">
<title>N19&#45;&gt;N37</title>
<path fill="none" stroke="black" d="M369.96,-113.06C404.34,-118.41 441.97,-124.6 476.46,-131 501.96,-135.73 529.58,-141.44 554.71,-146.86"/>
<polygon fill="black" stroke="black" points="554.06,-150.3 564.58,-149 555.55,-143.46 554.06,-150.3"/>
</g>
<!-- N18 -->
<g id="node21" class="node">
<title>N18</title>
<polygon fill="#3ec1e8" stroke="#3ec1e8" points="416.52,-2398.54 416.52,-2413.46 320.02,-2424 183.56,-2424 87.06,-2413.46 87.06,-2398.54 183.56,-2388 320.02,-2388 416.52,-2398.54"/>
<polygon fill="none" stroke="#3ec1e8" points="420.52,-2394.96 420.52,-2417.04 320.24,-2428 183.34,-2428 83.06,-2417.04 83.06,-2394.96 183.34,-2384 320.24,-2384 420.52,-2394.96"/>
<polygon fill="none" stroke="#3ec1e8" points="424.52,-2391.37 424.52,-2420.63 320.46,-2432 183.12,-2432 79.05,-2420.63 79.05,-2391.37 183.12,-2380 320.46,-2380 424.52,-2391.37"/>
<text text-anchor="middle" x="251.79" y="-2402.3" font-family="Times-Roman" font-size="14.00" fill="#000000">thunderbird&#45;bin&#45;68.8.1 (181.53 MiB)</text>
</g>
<!-- N17 -->
<g id="node22" class="node">
<title>N17</title>
<polygon fill="#3ebce7" stroke="#3ebce7" points="395.31,-228.54 395.31,-243.46 311.24,-254 192.34,-254 108.26,-243.46 108.26,-228.54 192.34,-218 311.24,-218 395.31,-228.54"/>
<polygon fill="none" stroke="#3ebce7" points="399.31,-225.01 399.31,-246.99 311.49,-258 192.09,-258 104.26,-246.99 104.26,-225.01 192.09,-214 311.49,-214 399.31,-225.01"/>
<polygon fill="none" stroke="#3ebce7" points="403.31,-221.48 403.31,-250.52 311.74,-262 191.84,-262 100.26,-250.52 100.26,-221.48 191.84,-210 311.74,-210 403.31,-221.48"/>
<text text-anchor="middle" x="251.79" y="-232.3" font-family="Times-Roman" font-size="14.00" fill="#000000">upwork&#45;5.3.3.862 (168.58 MiB)</text>
</g>
<!-- N17&#45;&gt;N33 -->
<g id="edge18" class="edge">
<title>N17&#45;&gt;N33</title>
<path fill="none" stroke="black" d="M403.49,-243.63C429.01,-249.31 454.37,-257.97 476.46,-271 551.24,-315.11 604.14,-407.79 626.93,-453.84"/>
<polygon fill="black" stroke="black" points="623.83,-455.45 631.34,-462.92 630.12,-452.4 623.83,-455.45"/>
</g>
<!-- N16 -->
<g id="node23" class="node">
<title>N16</title>
<polygon fill="#3ddeeb" stroke="#3ddeeb" points="431.97,-2468.54 431.97,-2483.46 326.42,-2494 177.15,-2494 71.6,-2483.46 71.6,-2468.54 177.15,-2458 326.42,-2458 431.97,-2468.54"/>
<polygon fill="none" stroke="#3ddeeb" points="435.97,-2464.92 435.97,-2487.08 326.62,-2498 176.95,-2498 67.6,-2487.08 67.6,-2464.92 176.95,-2454 326.62,-2454 435.97,-2464.92"/>
<polygon fill="none" stroke="#3ddeeb" points="439.98,-2461.3 439.98,-2490.7 326.82,-2502 176.75,-2502 63.6,-2490.7 63.6,-2461.3 176.75,-2450 326.82,-2450 439.98,-2461.3"/>
<text text-anchor="middle" x="251.79" y="-2472.3" font-family="Times-Roman" font-size="14.00" fill="#000000">qemu&#45;host&#45;cpu&#45;only&#45;4.2.0 (263.29 MiB)</text>
</g>
<!-- N15 -->
<g id="node24" class="node">
<title>N15</title>
<polygon fill="#3ec9e9" stroke="#3ec9e9" points="373.68,-2538.54 373.68,-2553.46 302.28,-2564 201.3,-2564 129.89,-2553.46 129.89,-2538.54 201.3,-2528 302.28,-2528 373.68,-2538.54"/>
<polygon fill="none" stroke="#3ec9e9" points="377.69,-2535.09 377.69,-2556.91 302.57,-2568 201,-2568 125.89,-2556.91 125.89,-2535.09 201,-2524 302.57,-2524 377.69,-2535.09"/>
<polygon fill="none" stroke="#3ec9e9" points="381.7,-2531.64 381.7,-2560.36 302.87,-2572 200.71,-2572 121.88,-2560.36 121.88,-2531.64 200.71,-2520 302.87,-2520 381.7,-2531.64"/>
<text text-anchor="middle" x="251.79" y="-2542.3" font-family="Times-Roman" font-size="14.00" fill="#000000">astroid&#45;0.15 (202.72 MiB)</text>
</g>
<!-- N14 -->
<g id="node25" class="node">
<title>N14</title>
<polygon fill="#3ec8e8" stroke="#3ec8e8" points="442.99,-1278.54 442.99,-1293.46 330.99,-1304 172.59,-1304 60.58,-1293.46 60.58,-1278.54 172.59,-1268 330.99,-1268 442.99,-1278.54"/>
<polygon fill="none" stroke="#3ec8e8" points="446.99,-1274.9 446.99,-1297.1 331.18,-1308 172.4,-1308 56.59,-1297.1 56.59,-1274.9 172.4,-1264 331.18,-1264 446.99,-1274.9"/>
<polygon fill="none" stroke="#3ec8e8" points="450.99,-1271.26 450.99,-1300.74 331.36,-1312 172.21,-1312 52.59,-1300.74 52.59,-1271.26 172.21,-1260 331.36,-1260 450.99,-1271.26"/>
<text text-anchor="middle" x="251.79" y="-1282.3" font-family="Times-Roman" font-size="14.00" fill="#000000">tor&#45;browser&#45;bundle&#45;bin&#45;9.0.9 (199.27 MiB)</text>
</g>
<!-- N14&#45;&gt;N26 -->
<g id="edge19" class="edge">
<title>N14&#45;&gt;N26</title>
<path fill="none" stroke="black" d="M251.79,-1259.68C251.79,-1257.23 251.79,-1254.78 251.79,-1252.33"/>
<polygon fill="black" stroke="black" points="255.29,-1252.25 251.79,-1242.25 248.29,-1252.25 255.29,-1252.25"/>
</g>
<!-- N46 -->
<g id="node26" class="node">
<title>N46</title>
<polygon fill="#4169e1" stroke="#4169e1" points="383.82,-1558.54 383.82,-1573.46 306.48,-1584 197.1,-1584 119.76,-1573.46 119.76,-1558.54 197.1,-1548 306.48,-1548 383.82,-1558.54"/>
<polygon fill="none" stroke="#4169e1" points="387.81,-1555.05 387.81,-1576.95 306.75,-1588 196.83,-1588 115.77,-1576.95 115.77,-1555.05 196.83,-1544 306.75,-1544 387.81,-1555.05"/>
<polygon fill="none" stroke="#4169e1" points="391.8,-1551.56 391.8,-1580.44 307.02,-1592 196.56,-1592 111.77,-1580.44 111.77,-1551.56 196.56,-1540 307.02,-1540 391.8,-1551.56"/>
<text text-anchor="middle" x="251.79" y="-1562.3" font-family="Times-Roman" font-size="14.00" fill="#ffffff">libreoffice&#45;6.4.3.2 (3.55 KiB)</text>
</g>
<!-- N3 -->
<g id="node41" class="node">
<title>N3</title>
<polygon fill="#37f5a5" stroke="#37f5a5" points="396.63,-1488.54 396.63,-1503.46 311.78,-1514 191.79,-1514 106.95,-1503.46 106.95,-1488.54 191.79,-1478 311.78,-1478 396.63,-1488.54"/>
<polygon fill="none" stroke="#37f5a5" points="400.63,-1485.01 400.63,-1506.99 312.03,-1518 191.55,-1518 102.95,-1506.99 102.95,-1485.01 191.55,-1474 312.03,-1474 400.63,-1485.01"/>
<polygon fill="none" stroke="#37f5a5" points="404.63,-1481.48 404.63,-1510.52 312.28,-1522 191.3,-1522 98.95,-1510.52 98.95,-1481.48 191.3,-1470 312.28,-1470 404.63,-1481.48"/>
<text text-anchor="middle" x="251.79" y="-1492.3" font-family="Times-Roman" font-size="14.00" fill="#000000">libreoffice&#45;6.4.3.2 (521.56 MiB)</text>
</g>
<!-- N46&#45;&gt;N3 -->
<g id="edge20" class="edge">
<title>N46&#45;&gt;N3</title>
<path fill="none" stroke="black" d="M251.79,-1539.68C251.79,-1537.23 251.79,-1534.78 251.79,-1532.33"/>
<polygon fill="black" stroke="black" points="255.29,-1532.25 251.79,-1522.25 248.29,-1532.25 255.29,-1532.25"/>
</g>
<!-- N13 -->
<g id="node27" class="node">
<title>N13</title>
<polygon fill="#3ceced" stroke="#3ceced" points="445.21,-2608.54 445.21,-2623.46 331.91,-2634 171.67,-2634 58.37,-2623.46 58.37,-2608.54 171.67,-2598 331.91,-2598 445.21,-2608.54"/>
<polygon fill="none" stroke="#3ceced" points="449.21,-2604.9 449.21,-2627.1 332.09,-2638 171.48,-2638 54.37,-2627.1 54.37,-2604.9 171.48,-2594 332.09,-2594 449.21,-2604.9"/>
<polygon fill="none" stroke="#3ceced" points="453.21,-2601.25 453.21,-2630.75 332.28,-2642 171.3,-2642 50.37,-2630.75 50.37,-2601.25 171.3,-2590 332.28,-2590 453.21,-2601.25"/>
<text text-anchor="middle" x="251.79" y="-2612.3" font-family="Times-Roman" font-size="14.00" fill="#000000">google&#45;chrome&#45;83.0.4103.61 (305.72 MiB)</text>
</g>
<!-- N47 -->
<g id="node28" class="node">
<title>N47</title>
<polygon fill="#4069e1" stroke="#4069e1" points="442.58,-1838.54 442.58,-1853.46 330.81,-1864 172.76,-1864 61,-1853.46 61,-1838.54 172.76,-1828 330.81,-1828 442.58,-1838.54"/>
<polygon fill="none" stroke="#4069e1" points="446.58,-1834.9 446.58,-1857.1 331,-1868 172.57,-1868 57,-1857.1 57,-1834.9 172.57,-1824 331,-1824 446.58,-1834.9"/>
<polygon fill="none" stroke="#4069e1" points="450.58,-1831.26 450.58,-1860.74 331.19,-1872 172.38,-1872 53,-1860.74 53,-1831.26 172.38,-1820 331.19,-1820 450.58,-1831.26"/>
<text text-anchor="middle" x="251.79" y="-1842.3" font-family="Times-Roman" font-size="14.00" fill="#ffffff">nvidia&#45;persistenced&#45;390.132 (107.70 KiB)</text>
</g>
<!-- N47&#45;&gt;N32 -->
<g id="edge21" class="edge">
<title>N47&#45;&gt;N32</title>
<path fill="none" stroke="black" d="M433.67,-1862.37C456.68,-1864.46 479.93,-1866.56 502.1,-1868.57"/>
<polygon fill="black" stroke="black" points="501.93,-1872.07 512.21,-1869.48 502.57,-1865.09 501.93,-1872.07"/>
</g>
<!-- N48 -->
<g id="node29" class="node">
<title>N48</title>
<polygon fill="#4088e3" stroke="#4088e3" points="371.9,-718.54 371.9,-733.46 301.54,-744 202.04,-744 131.68,-733.46 131.68,-718.54 202.04,-708 301.54,-708 371.9,-718.54"/>
<polygon fill="none" stroke="#4088e3" points="375.89,-715.1 375.89,-736.9 301.84,-748 201.74,-748 127.69,-736.9 127.69,-715.1 201.74,-704 301.84,-704 375.89,-715.1"/>
<polygon fill="none" stroke="#4088e3" points="379.88,-711.65 379.88,-740.35 302.13,-752 201.44,-752 123.69,-740.35 123.69,-711.65 201.44,-700 302.13,-700 379.88,-711.65"/>
<text text-anchor="middle" x="251.79" y="-722.3" font-family="Times-Roman" font-size="14.00" fill="#ffffff">neovim&#45;0.4.3 (51.48 MiB)</text>
</g>
<!-- N48&#45;&gt;N33 -->
<g id="edge22" class="edge">
<title>N48&#45;&gt;N33</title>
<path fill="none" stroke="black" d="M380.05,-722.78C413.16,-717.59 447.6,-708.03 476.46,-691 551.24,-646.89 604.14,-554.21 626.93,-508.16"/>
<polygon fill="black" stroke="black" points="630.12,-509.6 631.34,-499.08 623.83,-506.55 630.12,-509.6"/>
</g>
<!-- N12 -->
<g id="node30" class="node">
<title>N12</title>
<polygon fill="#3fb5e7" stroke="#3fb5e7" points="380.75,-2118.54 380.75,-2133.46 305.21,-2144 198.37,-2144 122.82,-2133.46 122.82,-2118.54 198.37,-2108 305.21,-2108 380.75,-2118.54"/>
<polygon fill="none" stroke="#3fb5e7" points="384.76,-2115.06 384.76,-2136.94 305.49,-2148 198.09,-2148 118.82,-2136.94 118.82,-2115.06 198.09,-2104 305.49,-2104 384.76,-2115.06"/>
<polygon fill="none" stroke="#3fb5e7" points="388.77,-2111.58 388.77,-2140.42 305.76,-2152 197.81,-2152 114.81,-2140.42 114.81,-2111.58 197.81,-2100 305.76,-2100 388.77,-2111.58"/>
<text text-anchor="middle" x="251.79" y="-2122.3" font-family="Times-Roman" font-size="14.00" fill="#ffffff">fritzing&#45;0.9.3b (151.31 MiB)</text>
</g>
<!-- N12&#45;&gt;N30 -->
<g id="edge23" class="edge">
<title>N12&#45;&gt;N30</title>
<path fill="none" stroke="black" d="M388.57,-2126C438.85,-2126 494.84,-2126 541.15,-2126"/>
<polygon fill="black" stroke="black" points="541.18,-2129.5 551.18,-2126 541.18,-2122.5 541.18,-2129.5"/>
</g>
<!-- N11 -->
<g id="node31" class="node">
<title>N11</title>
<polygon fill="#f5fe1d" stroke="#f5fe1d" points="337.02,-1348.54 337.02,-1363.46 287.09,-1374 216.48,-1374 166.55,-1363.46 166.55,-1348.54 216.48,-1338 287.09,-1338 337.02,-1348.54"/>
<polygon fill="none" stroke="#f5fe1d" points="341.03,-1345.3 341.03,-1366.7 287.51,-1378 216.06,-1378 162.55,-1366.7 162.55,-1345.3 216.06,-1334 287.51,-1334 341.03,-1345.3"/>
<polygon fill="none" stroke="#f5fe1d" points="345.03,-1342.06 345.03,-1369.94 287.93,-1382 215.65,-1382 158.54,-1369.94 158.54,-1342.06 215.65,-1330 287.93,-1330 345.03,-1342.06"/>
<text text-anchor="middle" x="251.79" y="-1352.3" font-family="Times-Roman" font-size="14.00" fill="#000000">steam (1.22 GiB)</text>
</g>
<!-- N11&#45;&gt;N26 -->
<g id="edge24" class="edge">
<title>N11&#45;&gt;N26</title>
<path fill="none" stroke="black" d="M158.48,-1348C117.5,-1342.83 69.23,-1334.45 27.11,-1321 18.59,-1318.28 13.81,-1319.61 9.11,-1312 -3.04,-1292.34 -3.04,-1279.66 9.11,-1260 26.35,-1232.11 54.99,-1216.97 86.67,-1209.44"/>
<polygon fill="black" stroke="black" points="87.53,-1212.84 96.59,-1207.34 86.08,-1205.99 87.53,-1212.84"/>
</g>
<!-- N11&#45;&gt;N36 -->
<g id="edge26" class="edge">
<title>N11&#45;&gt;N36</title>
<path fill="none" stroke="black" d="M344.92,-1364.34C401.3,-1369.44 473.67,-1375.99 532.57,-1381.32"/>
<polygon fill="black" stroke="black" points="532.37,-1384.82 542.65,-1382.24 533,-1377.85 532.37,-1384.82"/>
</g>
<!-- N11&#45;&gt;N34 -->
<g id="edge25" class="edge">
<title>N11&#45;&gt;N34</title>
<path fill="none" stroke="black" d="M345.08,-1349.54C386.2,-1344.65 434.68,-1336.06 476.46,-1321 525.31,-1303.39 575.82,-1270.68 607.42,-1248.14"/>
<polygon fill="black" stroke="black" points="609.75,-1250.77 615.81,-1242.08 605.65,-1245.1 609.75,-1250.77"/>
</g>
<!-- N49 -->
<g id="node32" class="node">
<title>N49</title>
<polygon fill="#4069e1" stroke="#4069e1" points="376.32,-1068.54 376.32,-1083.46 303.37,-1094 200.2,-1094 127.25,-1083.46 127.25,-1068.54 200.2,-1058 303.37,-1058 376.32,-1068.54"/>
<polygon fill="none" stroke="#4069e1" points="380.32,-1065.08 380.32,-1086.92 303.66,-1098 199.92,-1098 123.25,-1086.92 123.25,-1065.08 199.92,-1054 303.66,-1054 380.32,-1065.08"/>
<polygon fill="none" stroke="#4069e1" points="384.32,-1061.62 384.32,-1090.38 303.95,-1102 199.63,-1102 119.25,-1090.38 119.25,-1061.62 199.63,-1050 303.95,-1050 384.32,-1061.62"/>
<text text-anchor="middle" x="251.79" y="-1072.3" font-family="Times-Roman" font-size="14.00" fill="#ffffff">arandr&#45;0.1.10 (203.91 KiB)</text>
</g>
<!-- N49&#45;&gt;N35 -->
<g id="edge27" class="edge">
<title>N49&#45;&gt;N35</title>
<path fill="none" stroke="black" d="M384.38,-1064.74C415.24,-1059.56 447.54,-1052.01 476.46,-1041 527.29,-1021.65 578.89,-984.9 610.03,-960.43"/>
<polygon fill="black" stroke="black" points="612.24,-963.15 617.88,-954.18 607.88,-957.67 612.24,-963.15"/>
</g>
<!-- N10 -->
<g id="node33" class="node">
<title>N10</title>
<polygon fill="#3fb1e6" stroke="#3fb1e6" points="377.64,-578.54 377.64,-593.46 303.92,-604 199.66,-604 125.93,-593.46 125.93,-578.54 199.66,-568 303.92,-568 377.64,-578.54"/>
<polygon fill="none" stroke="#3fb1e6" points="381.64,-575.08 381.64,-596.92 304.2,-608 199.37,-608 121.94,-596.92 121.94,-575.08 199.37,-564 304.2,-564 381.64,-575.08"/>
<polygon fill="none" stroke="#3fb1e6" points="385.64,-571.61 385.64,-600.39 304.49,-612 199.09,-612 117.94,-600.39 117.94,-571.61 199.09,-560 304.49,-560 385.64,-571.61"/>
<text text-anchor="middle" x="251.79" y="-582.3" font-family="Times-Roman" font-size="14.00" fill="#ffffff">gimp&#45;2.10.18 (140.30 MiB)</text>
</g>
<!-- N10&#45;&gt;N35 -->
<g id="edge28" class="edge">
<title>N10&#45;&gt;N35</title>
<path fill="none" stroke="black" d="M385.78,-586.37C417.77,-591.74 450.23,-602.1 476.46,-621 576.36,-692.96 619.64,-844.65 633.81,-907.65"/>
<polygon fill="black" stroke="black" points="630.44,-908.62 635.98,-917.65 637.28,-907.14 630.44,-908.62"/>
</g>
<!-- N10&#45;&gt;N37 -->
<g id="edge29" class="edge">
<title>N10&#45;&gt;N37</title>
<path fill="none" stroke="black" d="M385.7,-588.08C418.23,-582.78 450.98,-571.83 476.46,-551 512.07,-521.9 495.18,-496.61 512.46,-454 551.75,-357.15 603.22,-244.27 626.74,-193.37"/>
<polygon fill="black" stroke="black" points="630.03,-194.58 631.06,-184.03 623.68,-191.64 630.03,-194.58"/>
</g>
<!-- N9 -->
<g id="node34" class="node">
<title>N9</title>
<polygon fill="#3cedec" stroke="#3cedec" points="358.65,-2678.54 358.65,-2693.46 296.05,-2704 207.52,-2704 144.92,-2693.46 144.92,-2678.54 207.52,-2668 296.05,-2668 358.65,-2678.54"/>
<polygon fill="none" stroke="#3cedec" points="362.65,-2675.16 362.65,-2696.84 296.39,-2708 207.19,-2708 140.92,-2696.84 140.92,-2675.16 207.19,-2664 296.39,-2664 362.65,-2675.16"/>
<polygon fill="none" stroke="#3cedec" points="366.65,-2671.78 366.65,-2700.22 296.72,-2712 206.85,-2712 136.93,-2700.22 136.93,-2671.78 206.85,-2660 296.72,-2660 366.65,-2671.78"/>
<text text-anchor="middle" x="251.79" y="-2682.3" font-family="Times-Roman" font-size="14.00" fill="#000000">ino&#45;0.3.6 (310.71 MiB)</text>
</g>
<!-- N8 -->
<g id="node35" class="node">
<title>N8</title>
<polygon fill="#3dd0e9" stroke="#3dd0e9" points="450.06,-2748.54 450.06,-2763.46 333.92,-2774 169.66,-2774 53.51,-2763.46 53.51,-2748.54 169.66,-2738 333.92,-2738 450.06,-2748.54"/>
<polygon fill="none" stroke="#3dd0e9" points="454.06,-2744.89 454.06,-2767.11 334.1,-2778 169.48,-2778 49.52,-2767.11 49.52,-2744.89 169.48,-2734 334.1,-2734 454.06,-2744.89"/>
<polygon fill="none" stroke="#3dd0e9" points="458.06,-2741.24 458.06,-2770.76 334.28,-2782 169.3,-2782 45.52,-2770.76 45.52,-2741.24 169.3,-2730 334.28,-2730 458.06,-2741.24"/>
<text text-anchor="middle" x="251.79" y="-2752.3" font-family="Times-Roman" font-size="14.00" fill="#000000">papirus&#45;icon&#45;theme&#45;20200430 (221.53 MiB)</text>
</g>
<!-- N7 -->
<g id="node36" class="node">
<title>N7</title>
<polygon fill="#fe6a00" stroke="#fe6a00" points="434.19,-648.54 434.19,-663.46 327.34,-674 176.24,-674 69.39,-663.46 69.39,-648.54 176.24,-638 327.34,-638 434.19,-648.54"/>
<polygon fill="none" stroke="#fe6a00" points="438.19,-644.92 438.19,-667.08 327.54,-678 176.04,-678 65.38,-667.08 65.38,-644.92 176.04,-634 327.54,-634 438.19,-644.92"/>
<polygon fill="none" stroke="#fe6a00" points="442.2,-641.3 442.2,-670.7 327.74,-682 175.84,-682 61.38,-670.7 61.38,-641.3 175.84,-630 327.74,-630 442.2,-641.3"/>
<text text-anchor="middle" x="251.79" y="-652.3" font-family="Times-Roman" font-size="14.00" fill="#000000">xmonad&#45;with&#45;packages&#45;8.8.3 (2.17 GiB)</text>
</g>
<!-- N7&#45;&gt;N33 -->
<g id="edge30" class="edge">
<title>N7&#45;&gt;N33</title>
<path fill="none" stroke="black" d="M423.66,-639.43C441.92,-634.69 459.87,-628.66 476.46,-621 535.17,-593.91 589.09,-539.33 617.81,-506.9"/>
<polygon fill="black" stroke="black" points="620.62,-509 624.55,-499.17 615.34,-504.4 620.62,-509"/>
</g>
<!-- N6 -->
<g id="node37" class="node">
<title>N6</title>
<polygon fill="#bffe2b" stroke="#bffe2b" points="394.42,-2818.54 394.42,-2833.46 310.87,-2844 192.71,-2844 109.16,-2833.46 109.16,-2818.54 192.71,-2808 310.87,-2808 394.42,-2818.54"/>
<polygon fill="none" stroke="#bffe2b" points="398.41,-2815.02 398.41,-2836.98 311.12,-2848 192.46,-2848 105.17,-2836.98 105.17,-2815.02 192.46,-2804 311.12,-2804 398.41,-2815.02"/>
<polygon fill="none" stroke="#bffe2b" points="402.41,-2811.49 402.41,-2840.51 311.37,-2852 192.21,-2852 101.17,-2840.51 101.17,-2811.49 192.21,-2800 311.37,-2800 402.41,-2811.49"/>
<text text-anchor="middle" x="251.79" y="-2822.3" font-family="Times-Roman" font-size="14.00" fill="#000000">xonotic&#45;sdl&#45;0.8.2 (895.35 MiB)</text>
</g>
<!-- N5 -->
<g id="node38" class="node">
<title>N5</title>
<polygon fill="#3fa4e5" stroke="#3fa4e5" points="386.03,-2888.54 386.03,-2903.46 307.39,-2914 196.18,-2914 117.55,-2903.46 117.55,-2888.54 196.18,-2878 307.39,-2878 386.03,-2888.54"/>
<polygon fill="none" stroke="#3fa4e5" points="390.03,-2885.04 390.03,-2906.96 307.66,-2918 195.92,-2918 113.55,-2906.96 113.55,-2885.04 195.92,-2874 307.66,-2874 390.03,-2885.04"/>
<polygon fill="none" stroke="#3fa4e5" points="394.02,-2881.54 394.02,-2910.46 307.93,-2922 195.65,-2922 109.55,-2910.46 109.55,-2881.54 195.65,-2870 307.93,-2870 394.02,-2881.54"/>
<text text-anchor="middle" x="251.79" y="-2892.3" font-family="Times-Roman" font-size="14.00" fill="#ffffff">nomacs&#45;3.14.2 (108.73 MiB)</text>
</g>
<!-- N4 -->
<g id="node39" class="node">
<title>N4</title>
<polygon fill="#3ebae7" stroke="#3ebae7" points="381.18,-2958.54 381.18,-2973.46 305.38,-2984 198.19,-2984 122.4,-2973.46 122.4,-2958.54 198.19,-2948 305.38,-2948 381.18,-2958.54"/>
<polygon fill="none" stroke="#3ebae7" points="385.18,-2955.06 385.18,-2976.94 305.66,-2988 197.92,-2988 118.4,-2976.94 118.4,-2955.06 197.92,-2944 305.66,-2944 385.18,-2955.06"/>
<polygon fill="none" stroke="#3ebae7" points="389.17,-2951.58 389.17,-2980.42 305.94,-2992 197.64,-2992 114.4,-2980.42 114.4,-2951.58 197.64,-2940 305.94,-2940 389.17,-2951.58"/>
<text text-anchor="middle" x="251.79" y="-2962.3" font-family="Times-Roman" font-size="14.00" fill="#000000">gzdoom&#45;4.3.3 (163.52 MiB)</text>
</g>
<!-- N50 -->
<g id="node40" class="node">
<title>N50</title>
<polygon fill="#406be1" stroke="#406be1" points="407.23,-2328.54 407.23,-2343.46 316.18,-2354 187.4,-2354 96.34,-2343.46 96.34,-2328.54 187.4,-2318 316.18,-2318 407.23,-2328.54"/>
<polygon fill="none" stroke="#406be1" points="411.23,-2324.98 411.23,-2347.02 316.41,-2358 187.17,-2358 92.34,-2347.02 92.34,-2324.98 187.17,-2314 316.41,-2314 411.23,-2324.98"/>
<polygon fill="none" stroke="#406be1" points="415.23,-2321.42 415.23,-2350.58 316.64,-2362 186.94,-2362 88.34,-2350.58 88.34,-2321.42 186.94,-2310 316.64,-2310 415.23,-2321.42"/>
<text text-anchor="middle" x="251.79" y="-2332.3" font-family="Times-Roman" font-size="14.00" fill="#ffffff">firefox&#45;beta&#45;bin&#45;77.0b7 (3.25 MiB)</text>
</g>
<!-- N50&#45;&gt;N21 -->
<g id="edge31" class="edge">
<title>N50&#45;&gt;N21</title>
<path fill="none" stroke="black" d="M251.79,-2309.68C251.79,-2307.23 251.79,-2304.78 251.79,-2302.33"/>
<polygon fill="black" stroke="black" points="255.29,-2302.25 251.79,-2292.25 248.29,-2302.25 255.29,-2302.25"/>
</g>
<!-- N3&#45;&gt;N31 -->
<g id="edge32" class="edge">
<title>N3&#45;&gt;N31</title>
<path fill="none" stroke="black" d="M376.35,-1514.06C408.97,-1519.18 444.1,-1525 476.46,-1531 500.24,-1535.41 525.87,-1540.67 549.6,-1545.76"/>
<polygon fill="black" stroke="black" points="549.13,-1549.23 559.64,-1547.92 550.6,-1542.39 549.13,-1549.23"/>
</g>
<!-- N2 -->
<g id="node42" class="node">
<title>N2</title>
<polygon fill="#3de1eb" stroke="#3de1eb" points="371.47,-3028.54 371.47,-3043.46 301.36,-3054 202.21,-3054 132.11,-3043.46 132.11,-3028.54 202.21,-3018 301.36,-3018 371.47,-3028.54"/>
<polygon fill="none" stroke="#3de1eb" points="375.47,-3025.1 375.47,-3046.9 301.66,-3058 201.92,-3058 128.1,-3046.9 128.1,-3025.1 201.92,-3014 301.66,-3014 375.47,-3025.1"/>
<polygon fill="none" stroke="#3de1eb" points="379.48,-3021.66 379.48,-3050.34 301.96,-3062 201.62,-3062 124.1,-3050.34 124.1,-3021.66 201.62,-3010 301.96,-3010 379.48,-3021.66"/>
<text text-anchor="middle" x="251.79" y="-3032.3" font-family="Times-Roman" font-size="14.00" fill="#000000">elixir&#45;1.10.3 (271.33 MiB)</text>
</g>
<!-- N1 -->
<g id="node43" class="node">
<title>N1</title>
<polygon fill="#35f77b" stroke="#35f77b" points="416.94,-2048.54 416.94,-2063.46 320.2,-2074 183.38,-2074 86.64,-2063.46 86.64,-2048.54 183.38,-2038 320.2,-2038 416.94,-2048.54"/>
<polygon fill="none" stroke="#35f77b" points="420.93,-2044.96 420.93,-2067.04 320.41,-2078 183.16,-2078 82.64,-2067.04 82.64,-2044.96 183.16,-2034 320.41,-2034 420.93,-2044.96"/>
<polygon fill="none" stroke="#35f77b" points="424.93,-2041.37 424.93,-2070.63 320.63,-2082 182.95,-2082 78.65,-2070.63 78.65,-2041.37 182.95,-2030 320.63,-2030 424.93,-2041.37"/>
<text text-anchor="middle" x="251.79" y="-2052.3" font-family="Times-Roman" font-size="14.00" fill="#000000">kodi&#45;with&#45;plugins&#45;18.5 (594.74 MiB)</text>
</g>
<!-- N1&#45;&gt;N30 -->
<g id="edge33" class="edge">
<title>N1&#45;&gt;N30</title>
<path fill="none" stroke="black" d="M383.4,-2075.17C413.99,-2080.01 446.42,-2085.43 476.46,-2091 500.24,-2095.41 525.87,-2100.67 549.6,-2105.76"/>
<polygon fill="black" stroke="black" points="549.13,-2109.23 559.64,-2107.92 550.6,-2102.39 549.13,-2109.23"/>
</g>
<!-- N51 -->
<g id="node44" class="node">
<title>N51</title>
<polygon fill="#4071e1" stroke="#4071e1" points="353.8,-998.54 353.8,-1013.46 294.04,-1024 209.53,-1024 149.78,-1013.46 149.78,-998.54 209.53,-988 294.04,-988 353.8,-998.54"/>
<polygon fill="none" stroke="#4071e1" points="357.8,-995.19 357.8,-1016.81 294.39,-1028 209.18,-1028 145.78,-1016.81 145.78,-995.19 209.18,-984 294.39,-984 357.8,-995.19"/>
<polygon fill="none" stroke="#4071e1" points="361.8,-991.83 361.8,-1020.17 294.74,-1032 208.83,-1032 141.78,-1020.17 141.78,-991.83 208.83,-980 294.74,-980 361.8,-991.83"/>
<text text-anchor="middle" x="251.79" y="-1002.3" font-family="Times-Roman" font-size="14.00" fill="#ffffff">piper&#45;0.4 (12.98 MiB)</text>
</g>
<!-- N51&#45;&gt;N35 -->
<g id="edge34" class="edge">
<title>N51&#45;&gt;N35</title>
<path fill="none" stroke="black" d="M357.12,-990.92C394.81,-985.14 437.62,-978.2 476.46,-971 500.24,-966.59 525.87,-961.33 549.6,-956.24"/>
<polygon fill="black" stroke="black" points="550.6,-959.61 559.64,-954.08 549.13,-952.77 550.6,-959.61"/>
</g>
</g>
</svg>
