<?xml version="1.0" encoding="UTF-8" standalone="no"?>
<!DOCTYPE svg PUBLIC "-//W3C//DTD SVG 1.1//EN"
 "http://www.w3.org/Graphics/SVG/1.1/DTD/svg11.dtd">
<!-- Generated by graphviz version 2.43.0 (0)
 -->
<!-- Title: nixstore Pages: 1 -->
<svg width="940pt" height="3210pt"
 viewBox="0.00 0.00 940.19 3210.00" xmlns="http://www.w3.org/2000/svg" xmlns:xlink="http://www.w3.org/1999/xlink">
<g id="graph0" class="graph" transform="scale(1 1) rotate(0) translate(4 3206)">
<title>nixstore</title>
<polygon fill="white" stroke="transparent" points="-4,4 -4,-3206 936.19,-3206 936.19,4 -4,4"/>
<!-- N53 -->
<g id="node1" class="node">
<title>N53</title>
<polygon fill="#ff0000" stroke="#ff0000" points="359.89,-18.54 359.89,-33.46 294.69,-44 202.5,-44 137.3,-33.46 137.3,-18.54 202.5,-8 294.69,-8 359.89,-18.54"/>
<polygon fill="none" stroke="#ff0000" points="363.89,-15.14 363.89,-36.86 295.02,-48 202.17,-48 133.3,-36.86 133.3,-15.14 202.17,-4 295.02,-4 363.89,-15.14"/>
<polygon fill="none" stroke="#ff0000" points="367.9,-11.74 367.9,-40.26 295.34,-52 201.85,-52 129.29,-40.26 129.29,-11.74 201.85,0 295.34,0 367.9,-11.74"/>
<text text-anchor="middle" x="248.59" y="-22.3" font-family="Roboto" font-size="14.00" fill="#000000">{filtered out} (2.35 GiB)</text>
</g>
<!-- N40 -->
<g id="node2" class="node">
<title>N40</title>
<polygon fill="#3ed4ea" stroke="#3ed4ea" points="363.85,-1278.54 363.85,-1293.46 296.33,-1304 200.85,-1304 133.34,-1293.46 133.34,-1278.54 200.85,-1268 296.33,-1268 363.85,-1278.54"/>
<polygon fill="none" stroke="#3ed4ea" points="367.84,-1275.12 367.84,-1296.88 296.64,-1308 200.54,-1308 129.34,-1296.88 129.34,-1275.12 200.54,-1264 296.64,-1264 367.84,-1275.12"/>
<polygon fill="none" stroke="#3ed4ea" points="371.84,-1271.7 371.84,-1300.3 296.95,-1312 200.24,-1312 125.35,-1300.3 125.35,-1271.7 200.24,-1260 296.95,-1260 371.84,-1271.7"/>
<text text-anchor="middle" x="248.59" y="-1282.3" font-family="Roboto" font-size="14.00" fill="#000000">piper&#45;0.5.1 (233.10 MiB)</text>
</g>
<!-- N36 -->
<g id="node47" class="node">
<title>N36</title>
<polygon fill="#38f5ad" stroke="#38f5ad" points="737.19,-1234 537.19,-1234 537.19,-1198 737.19,-1198 737.19,-1234"/>
<text text-anchor="middle" x="637.19" y="-1212.3" font-family="Roboto" font-size="14.00" fill="#000000">expat&#45;2.2.10&#45;dev (507.79 MiB)</text>
</g>
<!-- N40&#45;&gt;N36 -->
<g id="edge1" class="edge">
<title>N40&#45;&gt;N36</title>
<path fill="none" stroke="black" d="M370.92,-1271.47C411.25,-1265.94 456.29,-1259.02 497.19,-1251 517.86,-1246.95 540.06,-1241.75 560.51,-1236.6"/>
<polygon fill="black" stroke="black" points="561.57,-1239.95 570.4,-1234.09 559.85,-1233.16 561.57,-1239.95"/>
</g>
<!-- N32 -->
<g id="node3" class="node">
<title>N32</title>
<polygon fill="#ff6700" stroke="#ff6700" points="435.85,-158.54 435.85,-173.46 326.16,-184 171.03,-184 61.34,-173.46 61.34,-158.54 171.03,-148 326.16,-148 435.85,-158.54"/>
<polygon fill="none" stroke="#ff6700" points="439.85,-154.91 439.85,-177.09 326.35,-188 170.84,-188 57.34,-177.09 57.34,-154.91 170.84,-144 326.35,-144 439.85,-154.91"/>
<polygon fill="none" stroke="#ff6700" points="443.85,-151.28 443.85,-180.72 326.54,-192 170.65,-192 53.34,-180.72 53.34,-151.28 170.65,-140 326.54,-140 443.85,-151.28"/>
<text text-anchor="middle" x="248.59" y="-162.3" font-family="Roboto" font-size="14.00" fill="#000000">xmonad&#45;with&#45;packages&#45;8.10.2 (2.19 GiB)</text>
</g>
<!-- N35 -->
<g id="node48" class="node">
<title>N35</title>
<polygon fill="#3fb0e7" stroke="#3fb0e7" points="932.19,-569 777.19,-569 777.19,-533 932.19,-533 932.19,-569"/>
<text text-anchor="middle" x="854.69" y="-547.3" font-family="Roboto" font-size="14.00" fill="#ffffff">gcc&#45;9.3.0 (137.35 MiB)</text>
</g>
<!-- N32&#45;&gt;N35 -->
<g id="edge2" class="edge">
<title>N32&#45;&gt;N35</title>
<path fill="none" stroke="black" d="M443.88,-157.01C543.43,-162.5 660.38,-185.96 741.19,-256 822.88,-326.8 845.47,-463.6 851.54,-522.69"/>
<polygon fill="black" stroke="black" points="848.07,-523.15 852.49,-532.78 855.04,-522.5 848.07,-523.15"/>
</g>
<!-- N41 -->
<g id="node4" class="node">
<title>N41</title>
<polygon fill="#409ee5" stroke="#409ee5" points="391.22,-1208.54 391.22,-1223.46 307.67,-1234 189.52,-1234 105.97,-1223.46 105.97,-1208.54 189.52,-1198 307.67,-1198 391.22,-1208.54"/>
<polygon fill="none" stroke="#409ee5" points="395.22,-1205.02 395.22,-1226.98 307.92,-1238 189.27,-1238 101.97,-1226.98 101.97,-1205.02 189.27,-1194 307.92,-1194 395.22,-1205.02"/>
<polygon fill="none" stroke="#409ee5" points="399.21,-1201.49 399.21,-1230.51 308.17,-1242 189.01,-1242 97.98,-1230.51 97.98,-1201.49 189.01,-1190 308.17,-1190 399.21,-1201.49"/>
<text text-anchor="middle" x="248.59" y="-1212.3" font-family="Roboto" font-size="14.00" fill="#ffffff">virt&#45;manager&#45;3.1.0 (94.84 MiB)</text>
</g>
<!-- N41&#45;&gt;N36 -->
<g id="edge3" class="edge">
<title>N41&#45;&gt;N36</title>
<path fill="none" stroke="black" d="M399.34,-1216C441.83,-1216 487.28,-1216 526.89,-1216"/>
<polygon fill="black" stroke="black" points="527.09,-1219.5 537.09,-1216 527.09,-1212.5 527.09,-1219.5"/>
</g>
<!-- N31 -->
<g id="node5" class="node">
<title>N31</title>
<polygon fill="#4afb33" stroke="#4afb33" points="481.31,-1418.54 481.31,-1433.46 344.99,-1444 152.2,-1444 15.88,-1433.46 15.88,-1418.54 152.2,-1408 344.99,-1408 481.31,-1418.54"/>
<polygon fill="none" stroke="#4afb33" points="485.31,-1414.84 485.31,-1437.16 345.14,-1448 152.05,-1448 11.88,-1437.16 11.88,-1414.84 152.05,-1404 345.14,-1404 485.31,-1414.84"/>
<polygon fill="none" stroke="#4afb33" points="489.31,-1411.14 489.31,-1440.86 345.3,-1452 151.89,-1452 7.88,-1440.86 7.88,-1411.14 151.89,-1400 345.3,-1400 489.31,-1411.14"/>
<text text-anchor="middle" x="248.59" y="-1422.3" font-family="Roboto" font-size="14.00" fill="#000000">gcc&#45;arm&#45;embedded&#45;9&#45;2020&#45;q2&#45;update (674.02 MiB)</text>
</g>
<!-- N30 -->
<g id="node6" class="node">
<title>N30</title>
<polygon fill="#3ceeeb" stroke="#3ceeeb" points="363.85,-1558.54 363.85,-1573.46 296.33,-1584 200.85,-1584 133.34,-1573.46 133.34,-1558.54 200.85,-1548 296.33,-1548 363.85,-1558.54"/>
<polygon fill="none" stroke="#3ceeeb" points="367.84,-1555.12 367.84,-1576.88 296.64,-1588 200.54,-1588 129.34,-1576.88 129.34,-1555.12 200.54,-1544 296.64,-1544 367.84,-1555.12"/>
<polygon fill="none" stroke="#3ceeeb" points="371.84,-1551.7 371.84,-1580.3 296.95,-1592 200.24,-1592 125.35,-1580.3 125.35,-1551.7 200.24,-1540 296.95,-1540 371.84,-1551.7"/>
<text text-anchor="middle" x="248.59" y="-1562.3" font-family="Roboto" font-size="14.00" fill="#000000">platformio (318.14 MiB)</text>
</g>
<!-- N12 -->
<g id="node31" class="node">
<title>N12</title>
<polygon fill="#3eceea" stroke="#3eceea" points="395.65,-1488.54 395.65,-1503.46 309.51,-1514 187.68,-1514 101.54,-1503.46 101.54,-1488.54 187.68,-1478 309.51,-1478 395.65,-1488.54"/>
<polygon fill="none" stroke="#3eceea" points="399.65,-1485 399.65,-1507 309.75,-1518 187.44,-1518 97.54,-1507 97.54,-1485 187.44,-1474 309.75,-1474 399.65,-1485"/>
<polygon fill="none" stroke="#3eceea" points="403.65,-1481.46 403.65,-1510.54 310,-1522 187.19,-1522 93.53,-1510.54 93.53,-1481.46 187.19,-1470 310,-1470 403.65,-1481.46"/>
<text text-anchor="middle" x="248.59" y="-1492.3" font-family="Roboto" font-size="14.00" fill="#000000">glibc&#45;locales&#45;2.32 (214.79 MiB)</text>
</g>
<!-- N30&#45;&gt;N12 -->
<g id="edge4" class="edge">
<title>N30&#45;&gt;N12</title>
<path fill="none" stroke="black" d="M248.59,-1539.68C248.59,-1537.23 248.59,-1534.78 248.59,-1532.33"/>
<polygon fill="black" stroke="black" points="252.09,-1532.25 248.59,-1522.25 245.09,-1532.25 252.09,-1532.25"/>
</g>
<!-- N29 -->
<g id="node7" class="node">
<title>N29</title>
<polygon fill="#3deced" stroke="#3deced" points="376.66,-1628.54 376.66,-1643.46 301.64,-1654 195.55,-1654 120.53,-1643.46 120.53,-1628.54 195.55,-1618 301.64,-1618 376.66,-1628.54"/>
<polygon fill="none" stroke="#3deced" points="380.66,-1625.07 380.66,-1646.93 301.92,-1658 195.27,-1658 116.52,-1646.93 116.52,-1625.07 195.27,-1614 301.92,-1614 380.66,-1625.07"/>
<polygon fill="none" stroke="#3deced" points="384.67,-1621.59 384.67,-1650.41 302.2,-1662 194.99,-1662 112.52,-1650.41 112.52,-1621.59 194.99,-1610 302.2,-1610 384.67,-1621.59"/>
<text text-anchor="middle" x="248.59" y="-1632.3" font-family="Roboto" font-size="14.00" fill="#000000">calibre&#45;4.23.0 (304.04 MiB)</text>
</g>
<!-- N28 -->
<g id="node8" class="node">
<title>N28</title>
<polygon fill="#3debed" stroke="#3debed" points="368.28,-1698.54 368.28,-1713.46 298.17,-1724 199.02,-1724 128.91,-1713.46 128.91,-1698.54 199.02,-1688 298.17,-1688 368.28,-1698.54"/>
<polygon fill="none" stroke="#3debed" points="372.28,-1695.1 372.28,-1716.9 298.47,-1728 198.72,-1728 124.91,-1716.9 124.91,-1695.1 198.72,-1684 298.47,-1684 372.28,-1695.1"/>
<polygon fill="none" stroke="#3debed" points="376.28,-1691.66 376.28,-1720.34 298.77,-1732 198.42,-1732 120.91,-1720.34 120.91,-1691.66 198.42,-1680 298.77,-1680 376.28,-1691.66"/>
<text text-anchor="middle" x="248.59" y="-1702.3" font-family="Roboto" font-size="14.00" fill="#000000">elixir&#45;1.11.2 (302.15 MiB)</text>
</g>
<!-- N42 -->
<g id="node9" class="node">
<title>N42</title>
<polygon fill="#40a0e5" stroke="#40a0e5" points="385.95,-1978.54 385.95,-1993.46 305.49,-2004 191.7,-2004 111.24,-1993.46 111.24,-1978.54 191.7,-1968 305.49,-1968 385.95,-1978.54"/>
<polygon fill="none" stroke="#40a0e5" points="389.95,-1975.03 389.95,-1996.97 305.75,-2008 191.44,-2008 107.24,-1996.97 107.24,-1975.03 191.44,-1964 305.75,-1964 389.95,-1975.03"/>
<polygon fill="none" stroke="#40a0e5" points="393.96,-1971.53 393.96,-2000.47 306.01,-2012 191.18,-2012 103.23,-2000.47 103.23,-1971.53 191.18,-1960 306.01,-1960 393.96,-1971.53"/>
<text text-anchor="middle" x="248.59" y="-1982.3" font-family="Roboto" font-size="14.00" fill="#ffffff">openocd&#45;0.10.0 (100.58 MiB)</text>
</g>
<!-- N33 -->
<g id="node49" class="node">
<title>N33</title>
<polygon fill="#3fade6" stroke="#3fade6" points="726.19,-1899 548.19,-1899 548.19,-1863 726.19,-1863 726.19,-1899"/>
<text text-anchor="middle" x="637.19" y="-1877.3" font-family="Roboto" font-size="14.00" fill="#ffffff">bash&#45;4.4&#45;p23 (128.83 MiB)</text>
</g>
<!-- N42&#45;&gt;N33 -->
<g id="edge5" class="edge">
<title>N42&#45;&gt;N33</title>
<path fill="none" stroke="black" d="M394.07,-1973.64C428.35,-1968.51 464.46,-1961.25 497.19,-1951 533.21,-1939.72 571.31,-1919.9 598.5,-1904.23"/>
<polygon fill="black" stroke="black" points="600.42,-1907.16 607.28,-1899.09 596.88,-1901.12 600.42,-1907.16"/>
</g>
<!-- N43 -->
<g id="node10" class="node">
<title>N43</title>
<polygon fill="#417de2" stroke="#417de2" points="393.44,-368.54 393.44,-383.46 308.59,-394 188.6,-394 103.75,-383.46 103.75,-368.54 188.6,-358 308.59,-358 393.44,-368.54"/>
<polygon fill="none" stroke="#417de2" points="397.44,-365.01 397.44,-386.99 308.84,-398 188.35,-398 99.75,-386.99 99.75,-365.01 188.35,-354 308.84,-354 397.44,-365.01"/>
<polygon fill="none" stroke="#417de2" points="401.43,-361.48 401.43,-390.52 309.09,-402 188.1,-402 95.76,-390.52 95.76,-361.48 188.1,-350 309.09,-350 401.43,-361.48"/>
<text text-anchor="middle" x="248.59" y="-372.3" font-family="Roboto" font-size="14.00" fill="#ffffff">nomacs&#45;3.17.2206 (30.86 MiB)</text>
</g>
<!-- N43&#45;&gt;N35 -->
<g id="edge6" class="edge">
<title>N43&#45;&gt;N35</title>
<path fill="none" stroke="black" d="M391.43,-391.85C426.23,-396.89 463.23,-403.23 497.19,-411 608.17,-436.39 636.62,-443.98 741.19,-489 766.82,-500.03 794.27,-515.09 815.64,-527.61"/>
<polygon fill="black" stroke="black" points="814.01,-530.71 824.4,-532.8 817.58,-524.69 814.01,-530.71"/>
</g>
<!-- N38 -->
<g id="node50" class="node">
<title>N38</title>
<polygon fill="#40a5e5" stroke="#40a5e5" points="726.19,-301 548.19,-301 548.19,-265 726.19,-265 726.19,-301"/>
<text text-anchor="middle" x="637.19" y="-279.3" font-family="Roboto" font-size="14.00" fill="#ffffff">opencv&#45;4.3.0 (110.69 MiB)</text>
</g>
<!-- N43&#45;&gt;N38 -->
<g id="edge7" class="edge">
<title>N43&#45;&gt;N38</title>
<path fill="none" stroke="black" d="M399.13,-361.13C431.77,-356.15 465.9,-349.59 497.19,-341 529.56,-332.12 564.41,-317.56 591.12,-305.25"/>
<polygon fill="black" stroke="black" points="592.64,-308.41 600.22,-301 589.67,-302.07 592.64,-308.41"/>
</g>
<!-- N27 -->
<g id="node11" class="node">
<title>N27</title>
<polygon fill="#35f959" stroke="#35f959" points="445.55,-1908.54 445.55,-1923.46 330.18,-1934 167.01,-1934 51.64,-1923.46 51.64,-1908.54 167.01,-1898 330.18,-1898 445.55,-1908.54"/>
<polygon fill="none" stroke="#35f959" points="449.55,-1904.89 449.55,-1927.11 330.36,-1938 166.83,-1938 47.64,-1927.11 47.64,-1904.89 166.83,-1894 330.36,-1894 449.55,-1904.89"/>
<polygon fill="none" stroke="#35f959" points="453.55,-1901.24 453.55,-1930.76 330.54,-1942 166.65,-1942 43.64,-1930.76 43.64,-1901.24 166.65,-1890 330.54,-1890 453.55,-1901.24"/>
<text text-anchor="middle" x="248.59" y="-1912.3" font-family="Roboto" font-size="14.00" fill="#000000">tor&#45;browser&#45;bundle&#45;bin&#45;10.0.5 (635.84 MiB)</text>
</g>
<!-- N27&#45;&gt;N33 -->
<g id="edge8" class="edge">
<title>N27&#45;&gt;N33</title>
<path fill="none" stroke="black" d="M433.27,-1899.37C469.31,-1896.11 505.79,-1892.81 537.7,-1889.92"/>
<polygon fill="black" stroke="black" points="538.24,-1893.38 547.89,-1888.99 537.61,-1886.41 538.24,-1893.38"/>
</g>
<!-- N44 -->
<g id="node12" class="node">
<title>N44</title>
<polygon fill="#416be1" stroke="#416be1" points="355.46,-2118.54 355.46,-2133.46 292.86,-2144 204.33,-2144 141.73,-2133.46 141.73,-2118.54 204.33,-2108 292.86,-2108 355.46,-2118.54"/>
<polygon fill="none" stroke="#416be1" points="359.46,-2115.16 359.46,-2136.84 293.19,-2148 203.99,-2148 137.73,-2136.84 137.73,-2115.16 203.99,-2104 293.19,-2104 359.46,-2115.16"/>
<polygon fill="none" stroke="#416be1" points="363.46,-2111.78 363.46,-2140.22 293.53,-2152 203.66,-2152 133.73,-2140.22 133.73,-2111.78 203.66,-2100 293.53,-2100 363.46,-2111.78"/>
<text text-anchor="middle" x="248.59" y="-2122.3" font-family="Roboto" font-size="14.00" fill="#ffffff">firefox&#45;83.0 (3.40 MiB)</text>
</g>
<!-- N19 -->
<g id="node22" class="node">
<title>N19</title>
<polygon fill="#3ec5e9" stroke="#3ec5e9" points="416.86,-2048.54 416.86,-2063.46 318.29,-2074 178.9,-2074 80.33,-2063.46 80.33,-2048.54 178.9,-2038 318.29,-2038 416.86,-2048.54"/>
<polygon fill="none" stroke="#3ec5e9" points="420.86,-2044.95 420.86,-2067.05 318.51,-2078 178.68,-2078 76.33,-2067.05 76.33,-2044.95 178.68,-2034 318.51,-2034 420.86,-2044.95"/>
<polygon fill="none" stroke="#3ec5e9" points="424.86,-2041.35 424.86,-2070.65 318.72,-2082 178.47,-2082 72.32,-2070.65 72.32,-2041.35 178.47,-2030 318.72,-2030 424.86,-2041.35"/>
<text text-anchor="middle" x="248.59" y="-2052.3" font-family="Roboto" font-size="14.00" fill="#000000">firefox&#45;unwrapped&#45;83.0 (190.28 MiB)</text>
</g>
<!-- N44&#45;&gt;N19 -->
<g id="edge9" class="edge">
<title>N44&#45;&gt;N19</title>
<path fill="none" stroke="black" d="M248.59,-2099.68C248.59,-2097.23 248.59,-2094.78 248.59,-2092.33"/>
<polygon fill="black" stroke="black" points="252.09,-2092.25 248.59,-2082.25 245.09,-2092.25 252.09,-2092.25"/>
</g>
<!-- N26 -->
<g id="node13" class="node">
<title>N26</title>
<polygon fill="#3fafe6" stroke="#3fafe6" points="393.44,-2188.54 393.44,-2203.46 308.59,-2214 188.6,-2214 103.75,-2203.46 103.75,-2188.54 188.6,-2178 308.59,-2178 393.44,-2188.54"/>
<polygon fill="none" stroke="#3fafe6" points="397.44,-2185.01 397.44,-2206.99 308.84,-2218 188.35,-2218 99.75,-2206.99 99.75,-2185.01 188.35,-2174 308.84,-2174 397.44,-2185.01"/>
<polygon fill="none" stroke="#3fafe6" points="401.43,-2181.48 401.43,-2210.52 309.09,-2222 188.1,-2222 95.76,-2210.52 95.76,-2181.48 188.1,-2170 309.09,-2170 401.43,-2181.48"/>
<text text-anchor="middle" x="248.59" y="-2192.3" font-family="Roboto" font-size="14.00" fill="#ffffff">prusa&#45;slicer&#45;2.2.0 (133.60 MiB)</text>
</g>
<!-- N45 -->
<g id="node14" class="node">
<title>N45</title>
<polygon fill="#4183e3" stroke="#4183e3" points="365.17,-648.54 365.17,-663.46 296.88,-674 200.31,-674 132.02,-663.46 132.02,-648.54 200.31,-638 296.88,-638 365.17,-648.54"/>
<polygon fill="none" stroke="#4183e3" points="369.16,-645.11 369.16,-666.89 297.19,-678 200,-678 128.03,-666.89 128.03,-645.11 200,-634 297.19,-634 369.16,-645.11"/>
<polygon fill="none" stroke="#4183e3" points="373.15,-641.68 373.15,-670.32 297.49,-682 199.7,-682 124.03,-670.32 124.03,-641.68 199.7,-630 297.49,-630 373.15,-641.68"/>
<text text-anchor="middle" x="248.59" y="-652.3" font-family="Roboto" font-size="14.00" fill="#ffffff">astroid&#45;0.15 (42.04 MiB)</text>
</g>
<!-- N34 -->
<g id="node51" class="node">
<title>N34</title>
<polygon fill="#40a6e6" stroke="#40a6e6" points="737.19,-680 537.19,-680 537.19,-644 737.19,-644 737.19,-680"/>
<text text-anchor="middle" x="637.19" y="-658.3" font-family="Roboto" font-size="14.00" fill="#ffffff">webkitgtk&#45;2.30.3 (112.51 MiB)</text>
</g>
<!-- N45&#45;&gt;N34 -->
<g id="edge10" class="edge">
<title>N45&#45;&gt;N34</title>
<path fill="none" stroke="black" d="M373.24,-657.92C422.64,-658.69 479.04,-659.56 526.91,-660.3"/>
<polygon fill="black" stroke="black" points="526.93,-663.8 536.99,-660.46 527.04,-656.81 526.93,-663.8"/>
</g>
<!-- N25 -->
<g id="node15" class="node">
<title>N25</title>
<polygon fill="#c4ff2b" stroke="#c4ff2b" points="396.55,-2258.54 396.55,-2273.46 309.88,-2284 187.31,-2284 100.64,-2273.46 100.64,-2258.54 187.31,-2248 309.88,-2248 396.55,-2258.54"/>
<polygon fill="none" stroke="#c4ff2b" points="400.56,-2255 400.56,-2277 310.12,-2288 187.07,-2288 96.63,-2277 96.63,-2255 187.07,-2244 310.12,-2244 400.56,-2255"/>
<polygon fill="none" stroke="#c4ff2b" points="404.56,-2251.46 404.56,-2280.54 310.37,-2292 186.82,-2292 92.63,-2280.54 92.63,-2251.46 186.82,-2240 310.37,-2240 404.56,-2251.46"/>
<text text-anchor="middle" x="248.59" y="-2262.3" font-family="Roboto" font-size="14.00" fill="#000000">clang&#45;tools&#45;11.0.0 (926.43 MiB)</text>
</g>
<!-- N46 -->
<g id="node16" class="node">
<title>N46</title>
<polygon fill="#4174e2" stroke="#4174e2" points="376.66,-1138.54 376.66,-1153.46 301.64,-1164 195.55,-1164 120.53,-1153.46 120.53,-1138.54 195.55,-1128 301.64,-1128 376.66,-1138.54"/>
<polygon fill="none" stroke="#4174e2" points="380.66,-1135.07 380.66,-1156.93 301.92,-1168 195.27,-1168 116.52,-1156.93 116.52,-1135.07 195.27,-1124 301.92,-1124 380.66,-1135.07"/>
<polygon fill="none" stroke="#4174e2" points="384.67,-1131.59 384.67,-1160.41 302.2,-1172 194.99,-1172 112.52,-1160.41 112.52,-1131.59 194.99,-1120 302.2,-1120 384.67,-1131.59"/>
<text text-anchor="middle" x="248.59" y="-1142.3" font-family="Roboto" font-size="14.00" fill="#ffffff">tigervnc&#45;1.10.1 (16.77 MiB)</text>
</g>
<!-- N46&#45;&gt;N36 -->
<g id="edge11" class="edge">
<title>N46&#45;&gt;N36</title>
<path fill="none" stroke="black" d="M377.58,-1161.45C416.16,-1166.82 458.53,-1173.42 497.19,-1181 517.86,-1185.05 540.06,-1190.25 560.51,-1195.4"/>
<polygon fill="black" stroke="black" points="559.85,-1198.84 570.4,-1197.91 561.57,-1192.05 559.85,-1198.84"/>
</g>
<!-- N24 -->
<g id="node17" class="node">
<title>N24</title>
<polygon fill="#3fb5e7" stroke="#3fb5e7" points="368.28,-2328.54 368.28,-2343.46 298.17,-2354 199.02,-2354 128.91,-2343.46 128.91,-2328.54 199.02,-2318 298.17,-2318 368.28,-2328.54"/>
<polygon fill="none" stroke="#3fb5e7" points="372.28,-2325.1 372.28,-2346.9 298.47,-2358 198.72,-2358 124.91,-2346.9 124.91,-2325.1 198.72,-2314 298.47,-2314 372.28,-2325.1"/>
<polygon fill="none" stroke="#3fb5e7" points="376.28,-2321.66 376.28,-2350.34 298.77,-2362 198.42,-2362 120.91,-2350.34 120.91,-2321.66 198.42,-2310 298.77,-2310 376.28,-2321.66"/>
<text text-anchor="middle" x="248.59" y="-2332.3" font-family="Roboto" font-size="14.00" fill="#ffffff">vlc&#45;3.0.11.1 (149.72 MiB)</text>
</g>
<!-- N23 -->
<g id="node18" class="node">
<title>N23</title>
<polygon fill="#3de9ed" stroke="#3de9ed" points="444.23,-2398.54 444.23,-2413.46 329.63,-2424 167.56,-2424 52.96,-2413.46 52.96,-2398.54 167.56,-2388 329.63,-2388 444.23,-2398.54"/>
<polygon fill="none" stroke="#3de9ed" points="448.23,-2394.9 448.23,-2417.1 329.81,-2428 167.37,-2428 48.95,-2417.1 48.95,-2394.9 167.37,-2384 329.81,-2384 448.23,-2394.9"/>
<polygon fill="none" stroke="#3de9ed" points="452.24,-2391.25 452.24,-2420.75 330,-2432 167.19,-2432 44.95,-2420.75 44.95,-2391.25 167.19,-2380 330,-2380 452.24,-2391.25"/>
<text text-anchor="middle" x="248.59" y="-2402.3" font-family="Roboto" font-size="14.00" fill="#000000">spotify&#45;1.1.46.916.g416cacf1 (294.59 MiB)</text>
</g>
<!-- N22 -->
<g id="node19" class="node">
<title>N22</title>
<polygon fill="#3ec8e9" stroke="#3ec8e9" points="361.21,-858.54 361.21,-873.46 295.24,-884 201.95,-884 135.98,-873.46 135.98,-858.54 201.95,-848 295.24,-848 361.21,-858.54"/>
<polygon fill="none" stroke="#3ec8e9" points="365.21,-855.13 365.21,-876.87 295.56,-888 201.63,-888 131.98,-876.87 131.98,-855.13 201.63,-844 295.56,-844 365.21,-855.13"/>
<polygon fill="none" stroke="#3ec8e9" points="369.21,-851.72 369.21,-880.28 295.88,-892 201.31,-892 127.98,-880.28 127.98,-851.72 201.31,-840 295.88,-840 369.21,-851.72"/>
<text text-anchor="middle" x="248.59" y="-862.3" font-family="Roboto" font-size="14.00" fill="#000000">cura&#45;4.7.1 (198.69 MiB)</text>
</g>
<!-- N39 -->
<g id="node52" class="node">
<title>N39</title>
<polygon fill="#3fafe6" stroke="#3fafe6" points="712.69,-907 561.69,-907 561.69,-871 712.69,-871 712.69,-907"/>
<text text-anchor="middle" x="637.19" y="-885.3" font-family="Roboto" font-size="14.00" fill="#ffffff">lapack&#45;3 (134.34 MiB)</text>
</g>
<!-- N22&#45;&gt;N39 -->
<g id="edge12" class="edge">
<title>N22&#45;&gt;N39</title>
<path fill="none" stroke="black" d="M369.27,-873.12C428.22,-876.63 497.93,-880.77 551.31,-883.95"/>
<polygon fill="black" stroke="black" points="551.24,-887.45 561.43,-884.55 551.65,-880.46 551.24,-887.45"/>
</g>
<!-- N21 -->
<g id="node20" class="node">
<title>N21</title>
<polygon fill="#3deced" stroke="#3deced" points="380.2,-788.54 380.2,-803.46 303.11,-814 194.08,-814 116.99,-803.46 116.99,-788.54 194.08,-778 303.11,-778 380.2,-788.54"/>
<polygon fill="none" stroke="#3deced" points="384.2,-785.05 384.2,-806.95 303.38,-818 193.81,-818 112.99,-806.95 112.99,-785.05 193.81,-774 303.38,-774 384.2,-785.05"/>
<polygon fill="none" stroke="#3deced" points="388.2,-781.56 388.2,-810.44 303.65,-822 193.54,-822 108.99,-810.44 108.99,-781.56 193.54,-770 303.65,-770 388.2,-781.56"/>
<text text-anchor="middle" x="248.59" y="-792.3" font-family="Roboto" font-size="14.00" fill="#000000">blender&#45;2.91.0 (303.95 MiB)</text>
</g>
<!-- N21&#45;&gt;N39 -->
<g id="edge13" class="edge">
<title>N21&#45;&gt;N39</title>
<path fill="none" stroke="black" d="M388.38,-809.28C424.2,-814.43 462.44,-821.46 497.19,-831 529.56,-839.88 564.41,-854.44 591.12,-866.75"/>
<polygon fill="black" stroke="black" points="589.67,-869.93 600.22,-871 592.64,-863.59 589.67,-869.93"/>
</g>
<!-- N20 -->
<g id="node21" class="node">
<title>N20</title>
<polygon fill="#3fbee8" stroke="#3fbee8" points="489.28,-2468.54 489.28,-2483.46 348.29,-2494 148.9,-2494 7.91,-2483.46 7.91,-2468.54 148.9,-2458 348.29,-2458 489.28,-2468.54"/>
<polygon fill="none" stroke="#3fbee8" points="493.28,-2464.83 493.28,-2487.17 348.44,-2498 148.75,-2498 3.91,-2487.17 3.91,-2464.83 148.75,-2454 348.44,-2454 493.28,-2464.83"/>
<polygon fill="none" stroke="#3fbee8" points="497.28,-2461.12 497.28,-2490.88 348.59,-2502 148.6,-2502 -0.09,-2490.88 -0.09,-2461.12 148.6,-2450 348.59,-2450 497.28,-2461.12"/>
<text text-anchor="middle" x="248.59" y="-2472.3" font-family="Roboto" font-size="14.00" fill="#000000">google&#45;play&#45;music&#45;desktop&#45;player&#45;4.7.1 (173.42 MiB)</text>
</g>
<!-- N18 -->
<g id="node23" class="node">
<title>N18</title>
<polygon fill="#3ecde9" stroke="#3ecde9" points="374.45,-998.54 374.45,-1013.46 300.73,-1024 196.46,-1024 122.74,-1013.46 122.74,-998.54 196.46,-988 300.73,-988 374.45,-998.54"/>
<polygon fill="none" stroke="#3ecde9" points="378.45,-995.08 378.45,-1016.92 301.01,-1028 196.18,-1028 118.74,-1016.92 118.74,-995.08 196.18,-984 301.01,-984 378.45,-995.08"/>
<polygon fill="none" stroke="#3ecde9" points="382.44,-991.61 382.44,-1020.39 301.29,-1032 195.9,-1032 114.74,-1020.39 114.74,-991.61 195.9,-980 301.29,-980 382.44,-991.61"/>
<text text-anchor="middle" x="248.59" y="-1002.3" font-family="Roboto" font-size="14.00" fill="#000000">gimp&#45;2.10.22 (213.42 MiB)</text>
</g>
<!-- N18&#45;&gt;N36 -->
<g id="edge15" class="edge">
<title>N18&#45;&gt;N36</title>
<path fill="none" stroke="black" d="M382.53,-1006.37C421.48,-1011.22 462.81,-1021.32 497.19,-1041 558.16,-1075.91 602.42,-1148.98 623.1,-1188.77"/>
<polygon fill="black" stroke="black" points="620.09,-1190.56 627.74,-1197.89 626.33,-1187.39 620.09,-1190.56"/>
</g>
<!-- N18&#45;&gt;N35 -->
<g id="edge14" class="edge">
<title>N18&#45;&gt;N35</title>
<path fill="none" stroke="black" d="M382.7,-1017.94C492.55,-1020.19 645.44,-1004.63 741.19,-916 840.27,-824.29 852.91,-647.57 853.93,-579.08"/>
<polygon fill="black" stroke="black" points="857.43,-579.08 854.01,-569.05 850.43,-579.02 857.43,-579.08"/>
</g>
<!-- N18&#45;&gt;N39 -->
<g id="edge16" class="edge">
<title>N18&#45;&gt;N39</title>
<path fill="none" stroke="black" d="M382.63,-996.91C420.38,-991.75 461.03,-983.66 497.19,-971 536.32,-957.3 576.66,-932.04 603.73,-913.16"/>
<polygon fill="black" stroke="black" points="605.9,-915.91 612.04,-907.28 601.86,-910.2 605.9,-915.91"/>
</g>
<!-- N17 -->
<g id="node24" class="node">
<title>N17</title>
<polygon fill="#3befdf" stroke="#3befdf" points="380.62,-438.54 380.62,-453.46 303.28,-464 193.91,-464 116.57,-453.46 116.57,-438.54 193.91,-428 303.28,-428 380.62,-438.54"/>
<polygon fill="none" stroke="#3befdf" points="384.61,-435.05 384.61,-456.95 303.55,-468 193.64,-468 112.57,-456.95 112.57,-435.05 193.64,-424 303.55,-424 384.61,-435.05"/>
<polygon fill="none" stroke="#3befdf" points="388.61,-431.56 388.61,-460.44 303.82,-472 193.37,-472 108.58,-460.44 108.58,-431.56 193.37,-420 303.82,-420 388.61,-431.56"/>
<text text-anchor="middle" x="248.59" y="-442.3" font-family="Roboto" font-size="14.00" fill="#000000">arduino&#45;1.8.12 (361.71 MiB)</text>
</g>
<!-- N37 -->
<g id="node53" class="node">
<title>N37</title>
<polygon fill="#34fa34" stroke="#34fa34" points="741.19,-534 533.19,-534 533.19,-498 741.19,-498 741.19,-534"/>
<text text-anchor="middle" x="637.19" y="-512.3" font-family="Roboto" font-size="14.00" fill="#000000">openjdk&#45;14.0.2&#45;ga (660.51 MiB)</text>
</g>
<!-- N17&#45;&gt;N37 -->
<g id="edge17" class="edge">
<title>N17&#45;&gt;N37</title>
<path fill="none" stroke="black" d="M379.49,-461.72C417.56,-467.04 459.17,-473.55 497.19,-481 517.86,-485.05 540.06,-490.25 560.51,-495.4"/>
<polygon fill="black" stroke="black" points="559.85,-498.84 570.4,-497.91 561.57,-492.05 559.85,-498.84"/>
</g>
<!-- N16 -->
<g id="node25" class="node">
<title>N16</title>
<polygon fill="#3deaed" stroke="#3deaed" points="419.07,-2538.54 419.07,-2553.46 319.21,-2564 177.98,-2564 78.11,-2553.46 78.11,-2538.54 177.98,-2528 319.21,-2528 419.07,-2538.54"/>
<polygon fill="none" stroke="#3deaed" points="423.08,-2534.94 423.08,-2557.06 319.42,-2568 177.77,-2568 74.11,-2557.06 74.11,-2534.94 177.77,-2524 319.42,-2524 423.08,-2534.94"/>
<polygon fill="none" stroke="#3deaed" points="427.09,-2531.35 427.09,-2560.65 319.63,-2572 177.56,-2572 70.1,-2560.65 70.1,-2531.35 177.56,-2520 319.63,-2520 427.09,-2531.35"/>
<text text-anchor="middle" x="248.59" y="-2542.3" font-family="Roboto" font-size="14.00" fill="#000000">skypeforlinux&#45;8.66.0.74 (298.85 MiB)</text>
</g>
<!-- N15 -->
<g id="node26" class="node">
<title>N15</title>
<polygon fill="#3fbce8" stroke="#3fbce8" points="392.12,-88.54 392.12,-103.46 308.04,-114 189.14,-114 105.07,-103.46 105.07,-88.54 189.14,-78 308.04,-78 392.12,-88.54"/>
<polygon fill="none" stroke="#3fbce8" points="396.12,-85.01 396.12,-106.99 308.29,-118 188.89,-118 101.07,-106.99 101.07,-85.01 188.89,-74 308.29,-74 396.12,-85.01"/>
<polygon fill="none" stroke="#3fbce8" points="400.12,-81.48 400.12,-110.52 308.54,-122 188.64,-122 97.07,-110.52 97.07,-81.48 188.64,-70 308.54,-70 400.12,-81.48"/>
<text text-anchor="middle" x="248.59" y="-92.3" font-family="Roboto" font-size="14.00" fill="#000000">upwork&#45;5.3.3.862 (168.29 MiB)</text>
</g>
<!-- N15&#45;&gt;N35 -->
<g id="edge18" class="edge">
<title>N15&#45;&gt;N35</title>
<path fill="none" stroke="black" d="M375.32,-78.35C484.83,-70.33 641.29,-77.67 741.19,-164 796.79,-212.05 836.89,-441.83 849.49,-522.74"/>
<polygon fill="black" stroke="black" points="846.05,-523.35 851.02,-532.7 852.97,-522.29 846.05,-523.35"/>
</g>
<!-- N14 -->
<g id="node27" class="node">
<title>N14</title>
<polygon fill="#3ecae9" stroke="#3ecae9" points="360.31,-2608.54 360.31,-2623.46 294.87,-2634 202.32,-2634 136.87,-2623.46 136.87,-2608.54 202.32,-2598 294.87,-2598 360.31,-2608.54"/>
<polygon fill="none" stroke="#3ecae9" points="364.31,-2605.14 364.31,-2626.86 295.19,-2638 202,-2638 132.88,-2626.86 132.88,-2605.14 202,-2594 295.19,-2594 364.31,-2605.14"/>
<polygon fill="none" stroke="#3ecae9" points="368.31,-2601.73 368.31,-2630.27 295.51,-2642 201.68,-2642 128.88,-2630.27 128.88,-2601.73 201.68,-2590 295.51,-2590 368.31,-2601.73"/>
<text text-anchor="middle" x="248.59" y="-2612.3" font-family="Roboto" font-size="14.00" fill="#000000">X11&#45;fonts (205.12 MiB)</text>
</g>
<!-- N13 -->
<g id="node28" class="node">
<title>N13</title>
<polygon fill="#3af2ca" stroke="#3af2ca" points="404.04,-508.54 404.04,-523.46 312.98,-534 184.21,-534 93.15,-523.46 93.15,-508.54 184.21,-498 312.98,-498 404.04,-508.54"/>
<polygon fill="none" stroke="#3af2ca" points="408.04,-504.98 408.04,-527.02 313.21,-538 183.98,-538 89.15,-527.02 89.15,-504.98 183.98,-494 313.21,-494 408.04,-504.98"/>
<polygon fill="none" stroke="#3af2ca" points="412.04,-501.42 412.04,-530.58 313.44,-542 183.75,-542 85.15,-530.58 85.15,-501.42 183.75,-490 313.44,-490 412.04,-501.42"/>
<text text-anchor="middle" x="248.59" y="-512.3" font-family="Roboto" font-size="14.00" fill="#000000">stm32cubemx&#45;6.0.1 (431.56 MiB)</text>
</g>
<!-- N13&#45;&gt;N37 -->
<g id="edge19" class="edge">
<title>N13&#45;&gt;N37</title>
<path fill="none" stroke="black" d="M412.14,-516C449.45,-516 488.33,-516 523.02,-516"/>
<polygon fill="black" stroke="black" points="523.16,-519.5 533.16,-516 523.16,-512.5 523.16,-519.5"/>
</g>
<!-- N47 -->
<g id="node29" class="node">
<title>N47</title>
<polygon fill="#4169e1" stroke="#4169e1" points="373.13,-1348.54 373.13,-1363.46 300.18,-1374 197.01,-1374 124.06,-1363.46 124.06,-1348.54 197.01,-1338 300.18,-1338 373.13,-1348.54"/>
<polygon fill="none" stroke="#4169e1" points="377.13,-1345.08 377.13,-1366.92 300.47,-1378 196.72,-1378 120.06,-1366.92 120.06,-1345.08 196.72,-1334 300.47,-1334 377.13,-1345.08"/>
<polygon fill="none" stroke="#4169e1" points="381.13,-1341.62 381.13,-1370.38 300.75,-1382 196.43,-1382 116.06,-1370.38 116.06,-1341.62 196.43,-1330 300.75,-1330 381.13,-1341.62"/>
<text text-anchor="middle" x="248.59" y="-1352.3" font-family="Roboto" font-size="14.00" fill="#ffffff">arandr&#45;0.1.10 (205.52 KiB)</text>
</g>
<!-- N47&#45;&gt;N36 -->
<g id="edge20" class="edge">
<title>N47&#45;&gt;N36</title>
<path fill="none" stroke="black" d="M381.39,-1349.84C419.79,-1344.76 461.11,-1335.99 497.19,-1321 541.74,-1302.5 584.73,-1266.29 610.82,-1241.62"/>
<polygon fill="black" stroke="black" points="613.57,-1243.83 618.35,-1234.37 608.72,-1238.78 613.57,-1243.83"/>
</g>
<!-- N48 -->
<g id="node30" class="node">
<title>N48</title>
<polygon fill="#416ce1" stroke="#416ce1" points="366.06,-1068.54 366.06,-1083.46 297.25,-1094 199.94,-1094 131.13,-1083.46 131.13,-1068.54 199.94,-1058 297.25,-1058 366.06,-1068.54"/>
<polygon fill="none" stroke="#416ce1" points="370.06,-1065.11 370.06,-1086.89 297.56,-1098 199.63,-1098 127.13,-1086.89 127.13,-1065.11 199.63,-1054 297.56,-1054 370.06,-1065.11"/>
<polygon fill="none" stroke="#416ce1" points="374.06,-1061.68 374.06,-1090.32 297.86,-1102 199.33,-1102 123.13,-1090.32 123.13,-1061.68 199.33,-1050 297.86,-1050 374.06,-1061.68"/>
<text text-anchor="middle" x="248.59" y="-1072.3" font-family="Roboto" font-size="14.00" fill="#ffffff">nethack&#45;3.6.6 (4.61 MiB)</text>
</g>
<!-- N48&#45;&gt;N35 -->
<g id="edge21" class="edge">
<title>N48&#45;&gt;N35</title>
<path fill="none" stroke="black" d="M374.23,-1086.2C485.71,-1088.04 645.81,-1071.53 741.19,-976 798.34,-918.76 837.97,-665.01 849.92,-579.35"/>
<polygon fill="black" stroke="black" points="853.4,-579.7 851.3,-569.31 846.47,-578.74 853.4,-579.7"/>
</g>
<!-- N11 -->
<g id="node32" class="node">
<title>N11</title>
<polygon fill="#fff615" stroke="#fff615" points="381.52,-228.54 381.52,-243.46 303.65,-254 193.54,-254 115.67,-243.46 115.67,-228.54 193.54,-218 303.65,-218 381.52,-228.54"/>
<polygon fill="none" stroke="#fff615" points="385.52,-225.05 385.52,-246.95 303.92,-258 193.27,-258 111.67,-246.95 111.67,-225.05 193.27,-214 303.92,-214 385.52,-225.05"/>
<polygon fill="none" stroke="#fff615" points="389.51,-221.55 389.51,-250.45 304.19,-262 193,-262 107.67,-250.45 107.67,-221.55 193,-210 304.19,-210 389.51,-221.55"/>
<text text-anchor="middle" x="248.59" y="-232.3" font-family="Roboto" font-size="14.00" fill="#000000">libreoffice&#45;7.0.3.1 (1.36 GiB)</text>
</g>
<!-- N11&#45;&gt;N38 -->
<g id="edge22" class="edge">
<title>N11&#45;&gt;N38</title>
<path fill="none" stroke="black" d="M379.67,-251.81C431.36,-258.1 489.83,-265.21 537.88,-271.05"/>
<polygon fill="black" stroke="black" points="537.62,-274.54 547.97,-272.27 538.46,-267.59 537.62,-274.54"/>
</g>
<!-- N10 -->
<g id="node33" class="node">
<title>N10</title>
<polygon fill="#3ed5ea" stroke="#3ed5ea" points="446.87,-2678.54 446.87,-2693.46 330.72,-2704 166.47,-2704 50.32,-2693.46 50.32,-2678.54 166.47,-2668 330.72,-2668 446.87,-2678.54"/>
<polygon fill="none" stroke="#3ed5ea" points="450.87,-2674.89 450.87,-2697.11 330.9,-2708 166.29,-2708 46.32,-2697.11 46.32,-2674.89 166.29,-2664 330.9,-2664 450.87,-2674.89"/>
<polygon fill="none" stroke="#3ed5ea" points="454.86,-2671.24 454.86,-2700.76 331.08,-2712 166.1,-2712 42.32,-2700.76 42.32,-2671.24 166.1,-2660 331.08,-2660 454.86,-2671.24"/>
<text text-anchor="middle" x="248.59" y="-2682.3" font-family="Roboto" font-size="14.00" fill="#000000">papirus&#45;icon&#45;theme&#45;20200801 (235.38 MiB)</text>
</g>
<!-- N49 -->
<g id="node34" class="node">
<title>N49</title>
<polygon fill="#4169e1" stroke="#4169e1" points="380.62,-298.54 380.62,-313.46 303.28,-324 193.91,-324 116.57,-313.46 116.57,-298.54 193.91,-288 303.28,-288 380.62,-298.54"/>
<polygon fill="none" stroke="#4169e1" points="384.61,-295.05 384.61,-316.95 303.55,-328 193.64,-328 112.57,-316.95 112.57,-295.05 193.64,-284 303.55,-284 384.61,-295.05"/>
<polygon fill="none" stroke="#4169e1" points="388.61,-291.56 388.61,-320.44 303.82,-332 193.37,-332 108.58,-320.44 108.58,-291.56 193.37,-280 303.82,-280 388.61,-291.56"/>
<text text-anchor="middle" x="248.59" y="-302.3" font-family="Roboto" font-size="14.00" fill="#ffffff">libreoffice&#45;7.0.3.1 (3.55 KiB)</text>
</g>
<!-- N49&#45;&gt;N11 -->
<g id="edge23" class="edge">
<title>N49&#45;&gt;N11</title>
<path fill="none" stroke="black" d="M248.59,-279.68C248.59,-277.23 248.59,-274.78 248.59,-272.33"/>
<polygon fill="black" stroke="black" points="252.09,-272.25 248.59,-262.25 245.09,-272.25 252.09,-272.25"/>
</g>
<!-- N50 -->
<g id="node35" class="node">
<title>N50</title>
<polygon fill="#4088e3" stroke="#4088e3" points="368.7,-578.54 368.7,-593.46 298.34,-604 198.84,-604 128.49,-593.46 128.49,-578.54 198.84,-568 298.34,-568 368.7,-578.54"/>
<polygon fill="none" stroke="#4088e3" points="372.7,-575.1 372.7,-596.9 298.64,-608 198.55,-608 124.49,-596.9 124.49,-575.1 198.55,-564 298.64,-564 372.7,-575.1"/>
<polygon fill="none" stroke="#4088e3" points="376.69,-571.65 376.69,-600.35 298.94,-612 198.25,-612 120.5,-600.35 120.5,-571.65 198.25,-560 298.94,-560 376.69,-571.65"/>
<text text-anchor="middle" x="248.59" y="-582.3" font-family="Roboto" font-size="14.00" fill="#ffffff">neovim&#45;0.4.4 (51.51 MiB)</text>
</g>
<!-- N50&#45;&gt;N35 -->
<g id="edge24" class="edge">
<title>N50&#45;&gt;N35</title>
<path fill="none" stroke="black" d="M376.97,-578.62C494.1,-571.83 664.63,-561.95 766.82,-556.03"/>
<polygon fill="black" stroke="black" points="767.32,-559.51 777.1,-555.44 766.92,-552.52 767.32,-559.51"/>
</g>
<!-- N9 -->
<g id="node36" class="node">
<title>N9</title>
<polygon fill="#409ee5" stroke="#409ee5" points="395.65,-2818.54 395.65,-2833.46 309.51,-2844 187.68,-2844 101.54,-2833.46 101.54,-2818.54 187.68,-2808 309.51,-2808 395.65,-2818.54"/>
<polygon fill="none" stroke="#409ee5" points="399.65,-2815 399.65,-2837 309.75,-2848 187.44,-2848 97.54,-2837 97.54,-2815 187.44,-2804 309.75,-2804 399.65,-2815"/>
<polygon fill="none" stroke="#409ee5" points="403.65,-2811.46 403.65,-2840.54 310,-2852 187.19,-2852 93.53,-2840.54 93.53,-2811.46 187.19,-2800 310,-2800 403.65,-2811.46"/>
<text text-anchor="middle" x="248.59" y="-2822.3" font-family="Roboto" font-size="14.00" fill="#ffffff">fbreader&#45;qt4&#45;0.99.6 (95.72 MiB)</text>
</g>
<!-- N8 -->
<g id="node37" class="node">
<title>N8</title>
<polygon fill="#3de9ed" stroke="#3de9ed" points="390.8,-1838.54 390.8,-1853.46 307.5,-1864 189.69,-1864 106.39,-1853.46 106.39,-1838.54 189.69,-1828 307.5,-1828 390.8,-1838.54"/>
<polygon fill="none" stroke="#3de9ed" points="394.8,-1835.02 394.8,-1856.98 307.75,-1868 189.44,-1868 102.39,-1856.98 102.39,-1835.02 189.44,-1824 307.75,-1824 394.8,-1835.02"/>
<polygon fill="none" stroke="#3de9ed" points="398.81,-1831.49 398.81,-1860.51 308,-1872 189.19,-1872 98.38,-1860.51 98.38,-1831.49 189.19,-1820 308,-1820 398.81,-1831.49"/>
<text text-anchor="middle" x="248.59" y="-1842.3" font-family="Roboto" font-size="14.00" fill="#000000">fritzing&#45;0.9.4&#45;498 (293.85 MiB)</text>
</g>
<!-- N8&#45;&gt;N33 -->
<g id="edge25" class="edge">
<title>N8&#45;&gt;N33</title>
<path fill="none" stroke="black" d="M398.79,-1859.51C445.53,-1863.74 495.91,-1868.3 538.18,-1872.13"/>
<polygon fill="black" stroke="black" points="537.91,-1875.62 548.18,-1873.03 538.54,-1868.64 537.91,-1875.62"/>
</g>
<!-- N51 -->
<g id="node38" class="node">
<title>N51</title>
<polygon fill="#416ae1" stroke="#416ae1" points="404.04,-2958.54 404.04,-2973.46 312.98,-2984 184.21,-2984 93.15,-2973.46 93.15,-2958.54 184.21,-2948 312.98,-2948 404.04,-2958.54"/>
<polygon fill="none" stroke="#416ae1" points="408.04,-2954.98 408.04,-2977.02 313.21,-2988 183.98,-2988 89.15,-2977.02 89.15,-2954.98 183.98,-2944 313.21,-2944 408.04,-2954.98"/>
<polygon fill="none" stroke="#416ae1" points="412.04,-2951.42 412.04,-2980.58 313.44,-2992 183.75,-2992 85.15,-2980.58 85.15,-2951.42 183.75,-2940 313.44,-2940 412.04,-2951.42"/>
<text text-anchor="middle" x="248.59" y="-2962.3" font-family="Roboto" font-size="14.00" fill="#ffffff">nvidia&#45;settings&#45;455.38 (1.57 MiB)</text>
</g>
<!-- N5 -->
<g id="node42" class="node">
<title>N5</title>
<polygon fill="#3af2c7" stroke="#3af2c7" points="439.38,-2888.54 439.38,-2903.46 327.62,-2914 169.57,-2914 57.81,-2903.46 57.81,-2888.54 169.57,-2878 327.62,-2878 439.38,-2888.54"/>
<polygon fill="none" stroke="#3af2c7" points="443.38,-2884.9 443.38,-2907.1 327.81,-2918 169.38,-2918 53.8,-2907.1 53.8,-2884.9 169.38,-2874 327.81,-2874 443.38,-2884.9"/>
<polygon fill="none" stroke="#3af2c7" points="447.39,-2881.26 447.39,-2910.74 328,-2922 169.19,-2922 49.8,-2910.74 49.8,-2881.26 169.19,-2870 328,-2870 447.39,-2881.26"/>
<text text-anchor="middle" x="248.59" y="-2892.3" font-family="Roboto" font-size="14.00" fill="#000000">nvidia&#45;x11&#45;455.38&#45;5.4.80&#45;bin (440.96 MiB)</text>
</g>
<!-- N51&#45;&gt;N5 -->
<g id="edge26" class="edge">
<title>N51&#45;&gt;N5</title>
<path fill="none" stroke="black" d="M248.59,-2939.68C248.59,-2937.23 248.59,-2934.78 248.59,-2932.33"/>
<polygon fill="black" stroke="black" points="252.09,-2932.25 248.59,-2922.25 245.09,-2932.25 252.09,-2932.25"/>
</g>
<!-- N7 -->
<g id="node39" class="node">
<title>N7</title>
<polygon fill="#dcff26" stroke="#dcff26" points="376.66,-718.54 376.66,-733.46 301.64,-744 195.55,-744 120.53,-733.46 120.53,-718.54 195.55,-708 301.64,-708 376.66,-718.54"/>
<polygon fill="none" stroke="#dcff26" points="380.66,-715.07 380.66,-736.93 301.92,-748 195.27,-748 116.52,-736.93 116.52,-715.07 195.27,-704 301.92,-704 380.66,-715.07"/>
<polygon fill="none" stroke="#dcff26" points="384.67,-711.59 384.67,-740.41 302.2,-752 194.99,-752 112.52,-740.41 112.52,-711.59 194.99,-700 302.2,-700 384.67,-711.59"/>
<text text-anchor="middle" x="248.59" y="-722.3" font-family="Roboto" font-size="14.00" fill="#000000">bookworm&#45;1.1.2 (1.04 GiB)</text>
</g>
<!-- N7&#45;&gt;N35 -->
<g id="edge28" class="edge">
<title>N7&#45;&gt;N35</title>
<path fill="none" stroke="black" d="M370.23,-742.46C474.42,-750.94 625.95,-749.14 741.19,-689 788.08,-664.53 822.55,-611.12 840.25,-578.39"/>
<polygon fill="black" stroke="black" points="843.45,-579.83 845,-569.35 837.25,-576.57 843.45,-579.83"/>
</g>
<!-- N7&#45;&gt;N34 -->
<g id="edge27" class="edge">
<title>N7&#45;&gt;N34</title>
<path fill="none" stroke="black" d="M373.9,-710.04C413.4,-704.54 457.2,-697.99 497.19,-691 512.33,-688.35 528.34,-685.28 543.89,-682.13"/>
<polygon fill="black" stroke="black" points="544.94,-685.49 554.04,-680.07 543.54,-678.63 544.94,-685.49"/>
</g>
<!-- N6 -->
<g id="node40" class="node">
<title>N6</title>
<polygon fill="#39f3bd" stroke="#39f3bd" points="413.74,-1768.54 413.74,-1783.46 317,-1794 180.19,-1794 83.44,-1783.46 83.44,-1768.54 180.19,-1758 317,-1758 413.74,-1768.54"/>
<polygon fill="none" stroke="#39f3bd" points="417.74,-1764.96 417.74,-1787.04 317.22,-1798 179.97,-1798 79.45,-1787.04 79.45,-1764.96 179.97,-1754 317.22,-1754 417.74,-1764.96"/>
<polygon fill="none" stroke="#39f3bd" points="421.74,-1761.37 421.74,-1790.63 317.44,-1802 179.75,-1802 75.45,-1790.63 75.45,-1761.37 179.75,-1750 317.44,-1750 421.74,-1761.37"/>
<text text-anchor="middle" x="248.59" y="-1772.3" font-family="Roboto" font-size="14.00" fill="#000000">kodi&#45;with&#45;plugins&#45;18.9 (467.55 MiB)</text>
</g>
<!-- N6&#45;&gt;N33 -->
<g id="edge29" class="edge">
<title>N6&#45;&gt;N33</title>
<path fill="none" stroke="black" d="M413.76,-1791.52C441.94,-1796.36 470.67,-1802.7 497.19,-1811 533.21,-1822.28 571.31,-1842.1 598.5,-1857.77"/>
<polygon fill="black" stroke="black" points="596.88,-1860.88 607.28,-1862.91 600.42,-1854.84 596.88,-1860.88"/>
</g>
<!-- N52 -->
<g id="node41" class="node">
<title>N52</title>
<polygon fill="#416fe1" stroke="#416fe1" points="465.86,-2748.54 465.86,-2763.46 338.59,-2774 158.6,-2774 31.33,-2763.46 31.33,-2748.54 158.6,-2738 338.59,-2738 465.86,-2748.54"/>
<polygon fill="none" stroke="#416fe1" points="469.86,-2744.86 469.86,-2767.14 338.75,-2778 158.44,-2778 27.33,-2767.14 27.33,-2744.86 158.44,-2734 338.75,-2734 469.86,-2744.86"/>
<polygon fill="none" stroke="#416fe1" points="473.85,-2741.18 473.85,-2770.82 338.92,-2782 158.27,-2782 23.34,-2770.82 23.34,-2741.18 158.27,-2730 338.92,-2730 473.85,-2741.18"/>
<text text-anchor="middle" x="248.59" y="-2752.3" font-family="Roboto" font-size="14.00" fill="#ffffff">papirus&#45;maia&#45;icon&#45;theme&#45;2019&#45;07&#45;26 (8.96 MiB)</text>
</g>
<!-- N52&#45;&gt;N10 -->
<g id="edge30" class="edge">
<title>N52&#45;&gt;N10</title>
<path fill="none" stroke="black" d="M248.59,-2729.68C248.59,-2727.23 248.59,-2724.78 248.59,-2722.33"/>
<polygon fill="black" stroke="black" points="252.09,-2722.25 248.59,-2712.25 245.09,-2722.25 252.09,-2722.25"/>
</g>
<!-- N4 -->
<g id="node43" class="node">
<title>N4</title>
<polygon fill="#3de0ec" stroke="#3de0ec" points="428.78,-3028.54 428.78,-3043.46 323.23,-3054 173.96,-3054 68.41,-3043.46 68.41,-3028.54 173.96,-3018 323.23,-3018 428.78,-3028.54"/>
<polygon fill="none" stroke="#3de0ec" points="432.78,-3024.92 432.78,-3047.08 323.43,-3058 173.76,-3058 64.41,-3047.08 64.41,-3024.92 173.76,-3014 323.43,-3014 432.78,-3024.92"/>
<polygon fill="none" stroke="#3de0ec" points="436.78,-3021.3 436.78,-3050.7 323.63,-3062 173.56,-3062 60.41,-3050.7 60.41,-3021.3 173.56,-3010 323.63,-3010 436.78,-3021.3"/>
<text text-anchor="middle" x="248.59" y="-3032.3" font-family="Roboto" font-size="14.00" fill="#000000">qemu&#45;host&#45;cpu&#45;only&#45;5.1.0 (267.25 MiB)</text>
</g>
<!-- N3 -->
<g id="node44" class="node">
<title>N3</title>
<polygon fill="#3fc0e8" stroke="#3fc0e8" points="370.49,-3098.54 370.49,-3113.46 299.09,-3124 198.1,-3124 126.7,-3113.46 126.7,-3098.54 198.1,-3088 299.09,-3088 370.49,-3098.54"/>
<polygon fill="none" stroke="#3fc0e8" points="374.5,-3095.09 374.5,-3116.91 299.38,-3128 197.81,-3128 122.69,-3116.91 122.69,-3095.09 197.81,-3084 299.38,-3084 374.5,-3095.09"/>
<polygon fill="none" stroke="#3fc0e8" points="378.5,-3091.64 378.5,-3120.36 299.67,-3132 197.51,-3132 118.69,-3120.36 118.69,-3091.64 197.51,-3080 299.67,-3080 378.5,-3091.64"/>
<text text-anchor="middle" x="248.59" y="-3102.3" font-family="Roboto" font-size="14.00" fill="#000000">zeal&#45;0.6.999 (176.58 MiB)</text>
</g>
<!-- N2 -->
<g id="node45" class="node">
<title>N2</title>
<polygon fill="#3ddeeb" stroke="#3ddeeb" points="442.02,-3168.54 442.02,-3183.46 328.71,-3194 168.48,-3194 55.17,-3183.46 55.17,-3168.54 168.48,-3158 328.71,-3158 442.02,-3168.54"/>
<polygon fill="none" stroke="#3ddeeb" points="446.02,-3164.9 446.02,-3187.1 328.9,-3198 168.29,-3198 51.17,-3187.1 51.17,-3164.9 168.29,-3154 328.9,-3154 446.02,-3164.9"/>
<polygon fill="none" stroke="#3ddeeb" points="450.02,-3161.25 450.02,-3190.75 329.08,-3202 168.1,-3202 47.17,-3190.75 47.17,-3161.25 168.1,-3150 329.08,-3150 450.02,-3161.25"/>
<text text-anchor="middle" x="248.59" y="-3172.3" font-family="Roboto" font-size="14.00" fill="#000000">google&#45;chrome&#45;87.0.4280.66 (260.36 MiB)</text>
</g>
<!-- N1 -->
<g id="node46" class="node">
<title>N1</title>
<polygon fill="#3fbce8" stroke="#3fbce8" points="380.62,-928.54 380.62,-943.46 303.28,-954 193.91,-954 116.57,-943.46 116.57,-928.54 193.91,-918 303.28,-918 380.62,-928.54"/>
<polygon fill="none" stroke="#3fbce8" points="384.61,-925.05 384.61,-946.95 303.55,-958 193.64,-958 112.57,-946.95 112.57,-925.05 193.64,-914 303.55,-914 384.61,-925.05"/>
<polygon fill="none" stroke="#3fbce8" points="388.61,-921.56 388.61,-950.44 303.82,-962 193.37,-962 108.58,-950.44 108.58,-921.56 193.37,-910 303.82,-910 388.61,-921.56"/>
<text text-anchor="middle" x="248.59" y="-932.3" font-family="Roboto" font-size="14.00" fill="#000000">inkscape&#45;1.0.1 (167.75 MiB)</text>
</g>
<!-- N1&#45;&gt;N39 -->
<g id="edge31" class="edge">
<title>N1&#45;&gt;N39</title>
<path fill="none" stroke="black" d="M379.13,-920.25C435.89,-913.35 500.92,-905.45 551.36,-899.31"/>
<polygon fill="black" stroke="black" points="552.07,-902.75 561.57,-898.07 551.22,-895.8 552.07,-902.75"/>
</g>
<!-- N37&#45;&gt;N35 -->
<g id="edge32" class="edge">
<title>N37&#45;&gt;N35</title>
<path fill="none" stroke="black" d="M741.21,-532.73C749.84,-534.13 758.51,-535.54 767.01,-536.92"/>
<polygon fill="black" stroke="black" points="766.45,-540.38 776.88,-538.52 767.57,-533.47 766.45,-540.38"/>
</g>
</g>
</svg>
