<?xml version="1.0" encoding="UTF-8" standalone="no"?>
<!DOCTYPE svg PUBLIC "-//W3C//DTD SVG 1.1//EN"
 "http://www.w3.org/Graphics/SVG/1.1/DTD/svg11.dtd">
<!-- Generated by graphviz version 2.43.0 (0)
 -->
<!-- Title: nixstore Pages: 1 -->
<svg width="768pt" height="2790pt"
 viewBox="0.00 0.00 768.46 2790.00" xmlns="http://www.w3.org/2000/svg" xmlns:xlink="http://www.w3.org/1999/xlink">
<g id="graph0" class="graph" transform="scale(1 1) rotate(0) translate(4 2786)">
<title>nixstore</title>
<polygon fill="white" stroke="transparent" points="-4,4 -4,-2786 764.46,-2786 764.46,4 -4,4"/>
<!-- N45 -->
<g id="node1" class="node">
<title>N45</title>
<polygon fill="#fe6700" stroke="#fe6700" points="363.08,-18.54 363.08,-33.46 297.89,-44 205.69,-44 140.49,-33.46 140.49,-18.54 205.69,-8 297.89,-8 363.08,-18.54"/>
<polygon fill="none" stroke="#fe6700" points="367.09,-15.14 367.09,-36.86 298.21,-48 205.37,-48 136.49,-36.86 136.49,-15.14 205.37,-4 298.21,-4 367.09,-15.14"/>
<polygon fill="none" stroke="#fe6700" points="371.09,-11.74 371.09,-40.26 298.53,-52 205.04,-52 132.48,-40.26 132.48,-11.74 205.04,0 298.53,0 371.09,-11.74"/>
<text text-anchor="middle" x="251.79" y="-22.3" font-family="Roboto" font-size="14.00" fill="#000000">{filtered out} (2.20 GiB)</text>
</g>
<!-- N31 -->
<g id="node2" class="node">
<title>N31</title>
<polygon fill="#3dd1e9" stroke="#3dd1e9" points="400.17,-858.54 400.17,-873.46 313.25,-884 190.33,-884 103.41,-873.46 103.41,-858.54 190.33,-848 313.25,-848 400.17,-858.54"/>
<polygon fill="none" stroke="#3dd1e9" points="404.16,-855 404.16,-877 313.49,-888 190.09,-888 99.41,-877 99.41,-855 190.09,-844 313.49,-844 404.16,-855"/>
<polygon fill="none" stroke="#3dd1e9" points="408.16,-851.46 408.16,-880.54 313.73,-892 189.85,-892 95.41,-880.54 95.41,-851.46 189.85,-840 313.73,-840 408.16,-851.46"/>
<text text-anchor="middle" x="251.79" y="-862.3" font-family="Roboto" font-size="14.00" fill="#000000">virt&#45;manager&#45;2.2.1 (226.42 MiB)</text>
</g>
<!-- N29 -->
<g id="node41" class="node">
<title>N29</title>
<polygon fill="#38f3b3" stroke="#38f3b3" points="731.96,-849 540.96,-849 540.96,-813 731.96,-813 731.96,-849"/>
<text text-anchor="middle" x="636.46" y="-827.3" font-family="Roboto" font-size="14.00" fill="#000000">libGL&#45;1.3.1&#45;dev (493.23 MiB)</text>
</g>
<!-- N31&#45;&gt;N29 -->
<g id="edge1" class="edge">
<title>N31&#45;&gt;N29</title>
<path fill="none" stroke="black" d="M408.44,-851.76C449.66,-847.99 493.17,-844.01 530.95,-840.56"/>
<polygon fill="black" stroke="black" points="531.29,-844.04 540.93,-839.65 530.65,-837.07 531.29,-844.04"/>
</g>
<!-- N25 -->
<g id="node3" class="node">
<title>N25</title>
<polygon fill="#36f68d" stroke="#36f68d" points="393.1,-788.54 393.1,-803.46 310.32,-814 193.26,-814 110.48,-803.46 110.48,-788.54 193.26,-778 310.32,-778 393.1,-788.54"/>
<polygon fill="none" stroke="#36f68d" points="397.1,-785.02 397.1,-806.98 310.57,-818 193,-818 106.48,-806.98 106.48,-785.02 193,-774 310.57,-774 397.1,-785.02"/>
<polygon fill="none" stroke="#36f68d" points="401.09,-781.5 401.09,-810.5 310.83,-822 192.75,-822 102.48,-810.5 102.48,-781.5 192.75,-770 310.83,-770 401.09,-781.5"/>
<text text-anchor="middle" x="251.79" y="-792.3" font-family="Roboto" font-size="14.00" fill="#000000">wesnoth&#45;1.14.11 (571.35 MiB)</text>
</g>
<!-- N25&#45;&gt;N29 -->
<g id="edge2" class="edge">
<title>N25&#45;&gt;N29</title>
<path fill="none" stroke="black" d="M401.29,-809.58C444.58,-813.54 490.95,-817.78 530.91,-821.44"/>
<polygon fill="black" stroke="black" points="530.65,-824.93 540.93,-822.35 531.29,-817.96 530.65,-824.93"/>
</g>
<!-- N32 -->
<g id="node4" class="node">
<title>N32</title>
<polygon fill="#407fe2" stroke="#407fe2" points="371.9,-648.54 371.9,-663.46 301.54,-674 202.04,-674 131.68,-663.46 131.68,-648.54 202.04,-638 301.54,-638 371.9,-648.54"/>
<polygon fill="none" stroke="#407fe2" points="375.89,-645.1 375.89,-666.9 301.84,-678 201.74,-678 127.69,-666.9 127.69,-645.1 201.74,-634 301.84,-634 375.89,-645.1"/>
<polygon fill="none" stroke="#407fe2" points="379.88,-641.65 379.88,-670.35 302.13,-682 201.44,-682 123.69,-670.35 123.69,-641.65 201.44,-630 302.13,-630 379.88,-641.65"/>
<text text-anchor="middle" x="251.79" y="-652.3" font-family="Roboto" font-size="14.00" fill="#ffffff">polybar&#45;3.4.3 (35.54 MiB)</text>
</g>
<!-- N27 -->
<g id="node42" class="node">
<title>N27</title>
<polygon fill="#3fafe6" stroke="#3fafe6" points="713.96,-534 558.96,-534 558.96,-498 713.96,-498 713.96,-534"/>
<text text-anchor="middle" x="636.46" y="-512.3" font-family="Roboto" font-size="14.00" fill="#ffffff">gcc&#45;9.3.0 (136.80 MiB)</text>
</g>
<!-- N32&#45;&gt;N27 -->
<g id="edge3" class="edge">
<title>N32&#45;&gt;N27</title>
<path fill="none" stroke="black" d="M380.08,-645.7C412.25,-640.51 446.23,-632.71 476.46,-621 526.09,-601.78 576.14,-565.25 606.47,-540.76"/>
<polygon fill="black" stroke="black" points="608.97,-543.24 614.49,-534.19 604.54,-537.82 608.97,-543.24"/>
</g>
<!-- N24 -->
<g id="node5" class="node">
<title>N24</title>
<polygon fill="#3ed0e9" stroke="#3ed0e9" points="435.51,-1278.54 435.51,-1293.46 327.89,-1304 175.69,-1304 68.07,-1293.46 68.07,-1278.54 175.69,-1268 327.89,-1268 435.51,-1278.54"/>
<polygon fill="none" stroke="#3ed0e9" points="439.51,-1274.92 439.51,-1297.08 328.08,-1308 175.49,-1308 64.07,-1297.08 64.07,-1274.92 175.49,-1264 328.08,-1264 439.51,-1274.92"/>
<polygon fill="none" stroke="#3ed0e9" points="443.51,-1271.29 443.51,-1300.71 328.28,-1312 175.3,-1312 60.07,-1300.71 60.07,-1271.29 175.3,-1260 328.28,-1260 443.51,-1271.29"/>
<text text-anchor="middle" x="251.79" y="-1282.3" font-family="Roboto" font-size="14.00" fill="#000000">tor&#45;browser&#45;bundle&#45;bin&#45;9.5 (222.12 MiB)</text>
</g>
<!-- N22 -->
<g id="node9" class="node">
<title>N22</title>
<polygon fill="#3ecbe9" stroke="#3ecbe9" points="398.85,-1138.54 398.85,-1153.46 312.7,-1164 190.87,-1164 104.73,-1153.46 104.73,-1138.54 190.87,-1128 312.7,-1128 398.85,-1138.54"/>
<polygon fill="none" stroke="#3ecbe9" points="402.85,-1135 402.85,-1157 312.95,-1168 190.63,-1168 100.73,-1157 100.73,-1135 190.63,-1124 312.95,-1124 402.85,-1135"/>
<polygon fill="none" stroke="#3ecbe9" points="406.85,-1131.46 406.85,-1160.54 313.19,-1172 190.39,-1172 96.73,-1160.54 96.73,-1131.46 190.39,-1120 313.19,-1120 406.85,-1131.46"/>
<text text-anchor="middle" x="251.79" y="-1142.3" font-family="Roboto" font-size="14.00" fill="#000000">glibc&#45;locales&#45;2.30 (209.50 MiB)</text>
</g>
<!-- N24&#45;&gt;N22 -->
<g id="edge4" class="edge">
<title>N24&#45;&gt;N22</title>
<path fill="none" stroke="black" d="M94.43,-1267.84C71.58,-1263.38 48.55,-1257.84 27.11,-1251 18.59,-1248.28 13.81,-1249.61 9.11,-1242 -3.04,-1222.34 -3.04,-1209.66 9.11,-1190 26.35,-1162.11 54.99,-1146.97 86.67,-1139.44"/>
<polygon fill="black" stroke="black" points="87.53,-1142.84 96.59,-1137.34 86.08,-1135.99 87.53,-1142.84"/>
</g>
<!-- N33 -->
<g id="node6" class="node">
<title>N33</title>
<polygon fill="#4085e2" stroke="#4085e2" points="426.22,-1068.54 426.22,-1083.46 324.04,-1094 179.54,-1094 77.35,-1083.46 77.35,-1068.54 179.54,-1058 324.04,-1058 426.22,-1068.54"/>
<polygon fill="none" stroke="#4085e2" points="430.22,-1064.94 430.22,-1087.06 324.25,-1098 179.33,-1098 73.36,-1087.06 73.36,-1064.94 179.33,-1054 324.25,-1054 430.22,-1064.94"/>
<polygon fill="none" stroke="#4085e2" points="434.22,-1061.33 434.22,-1090.67 324.45,-1102 179.12,-1102 69.36,-1090.67 69.36,-1061.33 179.12,-1050 324.45,-1050 434.22,-1061.33"/>
<text text-anchor="middle" x="251.79" y="-1072.3" font-family="Roboto" font-size="14.00" fill="#ffffff">openra&#45;release&#45;20190314 (47.51 MiB)</text>
</g>
<!-- N28 -->
<g id="node43" class="node">
<title>N28</title>
<polygon fill="#3beee2" stroke="#3beee2" points="733.96,-1164 538.96,-1164 538.96,-1128 733.96,-1128 733.96,-1164"/>
<text text-anchor="middle" x="636.46" y="-1142.3" font-family="Roboto" font-size="14.00" fill="#000000">mono&#45;5.20.1.27 (349.63 MiB)</text>
</g>
<!-- N33&#45;&gt;N28 -->
<g id="edge5" class="edge">
<title>N33&#45;&gt;N28</title>
<path fill="none" stroke="black" d="M386.97,-1095.62C416.51,-1100.32 447.59,-1105.57 476.46,-1111 499.8,-1115.39 524.94,-1120.67 548.19,-1125.78"/>
<polygon fill="black" stroke="black" points="547.5,-1129.21 558.02,-1127.95 549.01,-1122.38 547.5,-1129.21"/>
</g>
<!-- N23 -->
<g id="node7" class="node">
<title>N23</title>
<polygon fill="#38f4ab" stroke="#38f4ab" points="378.54,-1348.54 378.54,-1363.46 304.29,-1374 199.29,-1374 125.04,-1363.46 125.04,-1348.54 199.29,-1338 304.29,-1338 378.54,-1348.54"/>
<polygon fill="none" stroke="#38f4ab" points="382.54,-1345.07 382.54,-1366.93 304.57,-1378 199,-1378 121.03,-1366.93 121.03,-1345.07 199,-1334 304.57,-1334 382.54,-1345.07"/>
<polygon fill="none" stroke="#38f4ab" points="386.55,-1341.6 386.55,-1370.4 304.86,-1382 198.72,-1382 117.03,-1370.4 117.03,-1341.6 198.72,-1330 304.86,-1330 386.55,-1341.6"/>
<text text-anchor="middle" x="251.79" y="-1352.3" font-family="Roboto" font-size="14.00" fill="#000000">arduino&#45;1.8.9 (511.63 MiB)</text>
</g>
<!-- N34 -->
<g id="node8" class="node">
<title>N34</title>
<polygon fill="#406ce1" stroke="#406ce1" points="369.26,-578.54 369.26,-593.46 300.45,-604 203.13,-604 134.32,-593.46 134.32,-578.54 203.13,-568 300.45,-568 369.26,-578.54"/>
<polygon fill="none" stroke="#406ce1" points="373.26,-575.11 373.26,-596.89 300.75,-608 202.83,-608 130.32,-596.89 130.32,-575.11 202.83,-564 300.75,-564 373.26,-575.11"/>
<polygon fill="none" stroke="#406ce1" points="377.25,-571.68 377.25,-600.32 301.05,-612 202.52,-612 126.32,-600.32 126.32,-571.68 202.52,-560 301.05,-560 377.25,-571.68"/>
<text text-anchor="middle" x="251.79" y="-582.3" font-family="Roboto" font-size="14.00" fill="#ffffff">nethack&#45;3.6.6 (4.58 MiB)</text>
</g>
<!-- N34&#45;&gt;N27 -->
<g id="edge6" class="edge">
<title>N34&#45;&gt;N27</title>
<path fill="none" stroke="black" d="M365.09,-569.81C400.78,-564.29 440.35,-557.79 476.46,-551 500.04,-546.56 525.46,-541.22 548.91,-536.06"/>
<polygon fill="black" stroke="black" points="549.82,-539.45 558.83,-533.87 548.31,-532.61 549.82,-539.45"/>
</g>
<!-- N21 -->
<g id="node10" class="node">
<title>N21</title>
<polygon fill="#3ecbe9" stroke="#3ecbe9" points="389.56,-158.54 389.56,-173.46 308.86,-184 194.72,-184 114.01,-173.46 114.01,-158.54 194.72,-148 308.86,-148 389.56,-158.54"/>
<polygon fill="none" stroke="#3ecbe9" points="393.56,-155.03 393.56,-176.97 309.12,-188 194.46,-188 110.02,-176.97 110.02,-155.03 194.46,-144 309.12,-144 393.56,-155.03"/>
<polygon fill="none" stroke="#3ecbe9" points="397.56,-151.52 397.56,-180.48 309.38,-192 194.2,-192 106.02,-180.48 106.02,-151.52 194.2,-140 309.38,-140 397.56,-151.52"/>
<text text-anchor="middle" x="251.79" y="-162.3" font-family="Roboto" font-size="14.00" fill="#000000">inkscape&#45;0.92.5 (210.71 MiB)</text>
</g>
<!-- N30 -->
<g id="node44" class="node">
<title>N30</title>
<polygon fill="#3fb2e6" stroke="#3fb2e6" points="711.96,-184 560.96,-184 560.96,-148 711.96,-148 711.96,-184"/>
<text text-anchor="middle" x="636.46" y="-162.3" font-family="Roboto" font-size="14.00" fill="#ffffff">lapack&#45;3 (143.49 MiB)</text>
</g>
<!-- N21&#45;&gt;N30 -->
<g id="edge7" class="edge">
<title>N21&#45;&gt;N30</title>
<path fill="none" stroke="black" d="M397.73,-166C449.35,-166 505.76,-166 550.67,-166"/>
<polygon fill="black" stroke="black" points="550.95,-169.5 560.95,-166 550.95,-162.5 550.95,-169.5"/>
</g>
<!-- N20 -->
<g id="node11" class="node">
<title>N20</title>
<polygon fill="#3fa5e5" stroke="#3fa5e5" points="422.69,-1418.54 422.69,-1433.46 322.58,-1444 181,-1444 80.89,-1433.46 80.89,-1418.54 181,-1408 322.58,-1408 422.69,-1418.54"/>
<polygon fill="none" stroke="#3fa5e5" points="426.69,-1414.94 426.69,-1437.06 322.79,-1448 180.79,-1448 76.89,-1437.06 76.89,-1414.94 180.79,-1404 322.79,-1404 426.69,-1414.94"/>
<polygon fill="none" stroke="#3fa5e5" points="430.69,-1411.34 430.69,-1440.66 323,-1452 180.58,-1452 72.89,-1440.66 72.89,-1411.34 180.58,-1400 323,-1400 430.69,-1411.34"/>
<text text-anchor="middle" x="251.79" y="-1422.3" font-family="Roboto" font-size="14.00" fill="#ffffff">mpv&#45;with&#45;scripts&#45;0.32.0 (112.96 MiB)</text>
</g>
<!-- N35 -->
<g id="node12" class="node">
<title>N35</title>
<polygon fill="#408ce3" stroke="#408ce3" points="412.98,-718.54 412.98,-733.46 318.56,-744 185.02,-744 90.59,-733.46 90.59,-718.54 185.02,-708 318.56,-708 412.98,-718.54"/>
<polygon fill="none" stroke="#408ce3" points="416.99,-714.97 416.99,-737.03 318.78,-748 184.8,-748 86.59,-737.03 86.59,-714.97 184.8,-704 318.78,-704 416.99,-714.97"/>
<polygon fill="none" stroke="#408ce3" points="420.99,-711.39 420.99,-740.61 319,-752 184.57,-752 82.59,-740.61 82.59,-711.39 184.57,-700 319,-700 420.99,-711.39"/>
<text text-anchor="middle" x="251.79" y="-722.3" font-family="Roboto" font-size="14.00" fill="#ffffff">dwarf&#45;fortress&#45;0.47.04 (59.14 MiB)</text>
</g>
<!-- N35&#45;&gt;N29 -->
<g id="edge9" class="edge">
<title>N35&#45;&gt;N29</title>
<path fill="none" stroke="black" d="M398.39,-743.17C424.64,-747.85 451.57,-753.71 476.46,-761 516.99,-772.87 560.75,-792.7 592.08,-808.22"/>
<polygon fill="black" stroke="black" points="590.88,-811.54 601.39,-812.89 594.02,-805.28 590.88,-811.54"/>
</g>
<!-- N35&#45;&gt;N27 -->
<g id="edge8" class="edge">
<title>N35&#45;&gt;N27</title>
<path fill="none" stroke="black" d="M421.18,-712.44C440.47,-707.2 459.34,-700.23 476.46,-691 542.04,-655.67 594.53,-582.5 619.55,-542.89"/>
<polygon fill="black" stroke="black" points="622.74,-544.39 625.03,-534.04 616.79,-540.7 622.74,-544.39"/>
</g>
<!-- N19 -->
<g id="node13" class="node">
<title>N19</title>
<polygon fill="#3ce9ec" stroke="#3ce9ec" points="380.75,-1488.54 380.75,-1503.46 305.21,-1514 198.37,-1514 122.82,-1503.46 122.82,-1488.54 198.37,-1478 305.21,-1478 380.75,-1488.54"/>
<polygon fill="none" stroke="#3ce9ec" points="384.76,-1485.06 384.76,-1506.94 305.49,-1518 198.09,-1518 118.82,-1506.94 118.82,-1485.06 198.09,-1474 305.49,-1474 384.76,-1485.06"/>
<polygon fill="none" stroke="#3ce9ec" points="388.77,-1481.58 388.77,-1510.42 305.76,-1522 197.81,-1522 114.81,-1510.42 114.81,-1481.58 197.81,-1470 305.76,-1470 388.77,-1481.58"/>
<text text-anchor="middle" x="251.79" y="-1492.3" font-family="Roboto" font-size="14.00" fill="#000000">fritzing&#45;0.9.3b (296.38 MiB)</text>
</g>
<!-- N18 -->
<g id="node14" class="node">
<title>N18</title>
<polygon fill="#3ddeeb" stroke="#3ddeeb" points="431.97,-1558.54 431.97,-1573.46 326.42,-1584 177.15,-1584 71.6,-1573.46 71.6,-1558.54 177.15,-1548 326.42,-1548 431.97,-1558.54"/>
<polygon fill="none" stroke="#3ddeeb" points="435.97,-1554.92 435.97,-1577.08 326.62,-1588 176.95,-1588 67.6,-1577.08 67.6,-1554.92 176.95,-1544 326.62,-1544 435.97,-1554.92"/>
<polygon fill="none" stroke="#3ddeeb" points="439.98,-1551.3 439.98,-1580.7 326.82,-1592 176.75,-1592 63.6,-1580.7 63.6,-1551.3 176.75,-1540 326.82,-1540 439.98,-1551.3"/>
<text text-anchor="middle" x="251.79" y="-1562.3" font-family="Roboto" font-size="14.00" fill="#000000">qemu&#45;host&#45;cpu&#45;only&#45;4.2.0 (263.68 MiB)</text>
</g>
<!-- N36 -->
<g id="node15" class="node">
<title>N36</title>
<polygon fill="#4169e1" stroke="#4169e1" points="436.82,-1768.54 436.82,-1783.46 328.43,-1794 175.14,-1794 66.75,-1783.46 66.75,-1768.54 175.14,-1758 328.43,-1758 436.82,-1768.54"/>
<polygon fill="none" stroke="#4169e1" points="440.83,-1764.91 440.83,-1787.09 328.63,-1798 174.95,-1798 62.75,-1787.09 62.75,-1764.91 174.95,-1754 328.63,-1754 440.83,-1764.91"/>
<polygon fill="none" stroke="#4169e1" points="444.83,-1761.28 444.83,-1790.72 328.82,-1802 174.76,-1802 58.75,-1790.72 58.75,-1761.28 174.76,-1750 328.82,-1750 444.83,-1761.28"/>
<text text-anchor="middle" x="251.79" y="-1772.3" font-family="Roboto" font-size="14.00" fill="#ffffff">nvidia&#45;persistenced&#45;440.82 (115.81 KiB)</text>
</g>
<!-- N26 -->
<g id="node45" class="node">
<title>N26</title>
<polygon fill="#3ceced" stroke="#3ceced" points="760.46,-1724 512.46,-1724 512.46,-1688 760.46,-1688 760.46,-1724"/>
<text text-anchor="middle" x="636.46" y="-1702.3" font-family="Roboto" font-size="14.00" fill="#000000">nvidia&#45;x11&#45;440.82&#45;5.6.16 (308.03 MiB)</text>
</g>
<!-- N36&#45;&gt;N26 -->
<g id="edge10" class="edge">
<title>N36&#45;&gt;N26</title>
<path fill="none" stroke="black" d="M389.94,-1755.9C418.58,-1751.32 448.56,-1746.25 476.46,-1741 499.8,-1736.61 524.94,-1731.33 548.19,-1726.22"/>
<polygon fill="black" stroke="black" points="549.01,-1729.62 558.02,-1724.05 547.5,-1722.79 549.01,-1729.62"/>
</g>
<!-- N37 -->
<g id="node16" class="node">
<title>N37</title>
<polygon fill="#3f9ce4" stroke="#3f9ce4" points="398.85,-508.54 398.85,-523.46 312.7,-534 190.87,-534 104.73,-523.46 104.73,-508.54 190.87,-498 312.7,-498 398.85,-508.54"/>
<polygon fill="none" stroke="#3f9ce4" points="402.85,-505 402.85,-527 312.95,-538 190.63,-538 100.73,-527 100.73,-505 190.63,-494 312.95,-494 402.85,-505"/>
<polygon fill="none" stroke="#3f9ce4" points="406.85,-501.46 406.85,-530.54 313.19,-542 190.39,-542 96.73,-530.54 96.73,-501.46 190.39,-490 313.19,-490 406.85,-501.46"/>
<text text-anchor="middle" x="251.79" y="-512.3" font-family="Roboto" font-size="14.00" fill="#ffffff">stepmania&#45;5.1.0&#45;b2 (93.53 MiB)</text>
</g>
<!-- N37&#45;&gt;N27 -->
<g id="edge11" class="edge">
<title>N37&#45;&gt;N27</title>
<path fill="none" stroke="black" d="M407.06,-516C455.28,-516 506.78,-516 548.64,-516"/>
<polygon fill="black" stroke="black" points="548.79,-519.5 558.79,-516 548.79,-512.5 548.79,-519.5"/>
</g>
<!-- N38 -->
<g id="node17" class="node">
<title>N38</title>
<polygon fill="#4087e3" stroke="#4087e3" points="371.9,-438.54 371.9,-453.46 301.54,-464 202.04,-464 131.68,-453.46 131.68,-438.54 202.04,-428 301.54,-428 371.9,-438.54"/>
<polygon fill="none" stroke="#4087e3" points="375.89,-435.1 375.89,-456.9 301.84,-468 201.74,-468 127.69,-456.9 127.69,-435.1 201.74,-424 301.84,-424 375.89,-435.1"/>
<polygon fill="none" stroke="#4087e3" points="379.88,-431.65 379.88,-460.35 302.13,-472 201.44,-472 123.69,-460.35 123.69,-431.65 201.44,-420 302.13,-420 379.88,-431.65"/>
<text text-anchor="middle" x="251.79" y="-442.3" font-family="Roboto" font-size="14.00" fill="#ffffff">neovim&#45;0.4.3 (51.22 MiB)</text>
</g>
<!-- N38&#45;&gt;N27 -->
<g id="edge12" class="edge">
<title>N38&#45;&gt;N27</title>
<path fill="none" stroke="black" d="M366.52,-462.41C401.83,-467.88 440.83,-474.3 476.46,-481 500.04,-485.44 525.46,-490.78 548.91,-495.94"/>
<polygon fill="black" stroke="black" points="548.31,-499.39 558.83,-498.13 549.82,-492.55 548.31,-499.39"/>
</g>
<!-- N17 -->
<g id="node18" class="node">
<title>N17</title>
<polygon fill="#3ecee9" stroke="#3ecee9" points="468.63,-1838.54 468.63,-1853.46 341.61,-1864 161.97,-1864 34.94,-1853.46 34.94,-1838.54 161.97,-1828 341.61,-1828 468.63,-1838.54"/>
<polygon fill="none" stroke="#3ecee9" points="472.64,-1834.86 472.64,-1857.14 341.77,-1868 161.8,-1868 30.94,-1857.14 30.94,-1834.86 161.8,-1824 341.77,-1824 472.64,-1834.86"/>
<polygon fill="none" stroke="#3ecee9" points="476.64,-1831.18 476.64,-1860.82 341.94,-1872 161.64,-1872 26.94,-1860.82 26.94,-1831.18 161.64,-1820 341.94,-1820 476.64,-1831.18"/>
<text text-anchor="middle" x="251.79" y="-1842.3" font-family="Roboto" font-size="14.00" fill="#000000">firefox&#45;beta&#45;bin&#45;unwrapped&#45;77.0b7 (217.24 MiB)</text>
</g>
<!-- N16 -->
<g id="node19" class="node">
<title>N16</title>
<polygon fill="#3de1eb" stroke="#3de1eb" points="458.03,-1978.54 458.03,-1993.46 337.22,-2004 166.36,-2004 45.55,-1993.46 45.55,-1978.54 166.36,-1968 337.22,-1968 458.03,-1978.54"/>
<polygon fill="none" stroke="#3de1eb" points="462.03,-1974.88 462.03,-1997.12 337.39,-2008 166.19,-2008 41.54,-1997.12 41.54,-1974.88 166.19,-1964 337.39,-1964 462.03,-1974.88"/>
<polygon fill="none" stroke="#3de1eb" points="466.04,-1971.21 466.04,-2000.79 337.57,-2012 166.01,-2012 37.54,-2000.79 37.54,-1971.21 166.01,-1960 337.57,-1960 466.04,-1971.21"/>
<text text-anchor="middle" x="251.79" y="-1982.3" font-family="Roboto" font-size="14.00" fill="#000000">spotifywm&#45;unstable&#45;2016&#45;11&#45;28 (272.34 MiB)</text>
</g>
<!-- N15 -->
<g id="node20" class="node">
<title>N15</title>
<polygon fill="#3ddeeb" stroke="#3ddeeb" points="380.75,-88.54 380.75,-103.46 305.21,-114 198.37,-114 122.82,-103.46 122.82,-88.54 198.37,-78 305.21,-78 380.75,-88.54"/>
<polygon fill="none" stroke="#3ddeeb" points="384.76,-85.06 384.76,-106.94 305.49,-118 198.09,-118 118.82,-106.94 118.82,-85.06 198.09,-74 305.49,-74 384.76,-85.06"/>
<polygon fill="none" stroke="#3ddeeb" points="388.77,-81.58 388.77,-110.42 305.76,-122 197.81,-122 114.81,-110.42 114.81,-81.58 197.81,-70 305.76,-70 388.77,-81.58"/>
<text text-anchor="middle" x="251.79" y="-92.3" font-family="Roboto" font-size="14.00" fill="#000000">blender&#45;2.82a (264.92 MiB)</text>
</g>
<!-- N15&#45;&gt;N30 -->
<g id="edge13" class="edge">
<title>N15&#45;&gt;N30</title>
<path fill="none" stroke="black" d="M370.56,-113.04C404.79,-118.37 442.18,-124.55 476.46,-131 500.76,-135.57 527.01,-141.1 551.04,-146.41"/>
<polygon fill="black" stroke="black" points="550.32,-149.83 560.84,-148.58 551.84,-143 550.32,-149.83"/>
</g>
<!-- N40 -->
<g id="node21" class="node">
<title>N40</title>
<polygon fill="#406ae1" stroke="#406ae1" points="407.23,-1698.54 407.23,-1713.46 316.18,-1724 187.4,-1724 96.34,-1713.46 96.34,-1698.54 187.4,-1688 316.18,-1688 407.23,-1698.54"/>
<polygon fill="none" stroke="#406ae1" points="411.23,-1694.98 411.23,-1717.02 316.41,-1728 187.17,-1728 92.34,-1717.02 92.34,-1694.98 187.17,-1684 316.41,-1684 411.23,-1694.98"/>
<polygon fill="none" stroke="#406ae1" points="415.23,-1691.42 415.23,-1720.58 316.64,-1732 186.94,-1732 88.34,-1720.58 88.34,-1691.42 186.94,-1680 316.64,-1680 415.23,-1691.42"/>
<text text-anchor="middle" x="251.79" y="-1702.3" font-family="Roboto" font-size="14.00" fill="#ffffff">nvidia&#45;settings&#45;440.82 (1.70 MiB)</text>
</g>
<!-- N39 -->
<g id="node39" class="node">
<title>N39</title>
<polygon fill="#4087e3" stroke="#4087e3" points="436.82,-1628.54 436.82,-1643.46 328.43,-1654 175.14,-1654 66.75,-1643.46 66.75,-1628.54 175.14,-1618 328.43,-1618 436.82,-1628.54"/>
<polygon fill="none" stroke="#4087e3" points="440.83,-1624.91 440.83,-1647.09 328.63,-1658 174.95,-1658 62.75,-1647.09 62.75,-1624.91 174.95,-1614 328.63,-1614 440.83,-1624.91"/>
<polygon fill="none" stroke="#4087e3" points="444.83,-1621.28 444.83,-1650.72 328.82,-1662 174.76,-1662 58.75,-1650.72 58.75,-1621.28 174.76,-1610 328.82,-1610 444.83,-1621.28"/>
<text text-anchor="middle" x="251.79" y="-1632.3" font-family="Roboto" font-size="14.00" fill="#ffffff">nvidia&#45;x11&#45;440.82&#45;5.6.16&#45;bin (50.73 MiB)</text>
</g>
<!-- N40&#45;&gt;N39 -->
<g id="edge14" class="edge">
<title>N40&#45;&gt;N39</title>
<path fill="none" stroke="black" d="M251.79,-1679.68C251.79,-1677.23 251.79,-1674.78 251.79,-1672.33"/>
<polygon fill="black" stroke="black" points="255.29,-1672.25 251.79,-1662.25 248.29,-1672.25 255.29,-1672.25"/>
</g>
<!-- N14 -->
<g id="node22" class="node">
<title>N14</title>
<polygon fill="#3ec9e9" stroke="#3ec9e9" points="373.68,-2048.54 373.68,-2063.46 302.28,-2074 201.3,-2074 129.89,-2063.46 129.89,-2048.54 201.3,-2038 302.28,-2038 373.68,-2048.54"/>
<polygon fill="none" stroke="#3ec9e9" points="377.69,-2045.09 377.69,-2066.91 302.57,-2078 201,-2078 125.89,-2066.91 125.89,-2045.09 201,-2034 302.57,-2034 377.69,-2045.09"/>
<polygon fill="none" stroke="#3ec9e9" points="381.7,-2041.64 381.7,-2070.36 302.87,-2082 200.71,-2082 121.88,-2070.36 121.88,-2041.64 200.71,-2030 302.87,-2030 381.7,-2041.64"/>
<text text-anchor="middle" x="251.79" y="-2052.3" font-family="Roboto" font-size="14.00" fill="#000000">astroid&#45;0.15 (202.72 MiB)</text>
</g>
<!-- N13 -->
<g id="node23" class="node">
<title>N13</title>
<polygon fill="#38f3b9" stroke="#38f3b9" points="364.4,-2118.54 364.4,-2133.46 298.43,-2144 205.14,-2144 139.17,-2133.46 139.17,-2118.54 205.14,-2108 298.43,-2108 364.4,-2118.54"/>
<polygon fill="none" stroke="#38f3b9" points="368.4,-2115.13 368.4,-2136.87 298.75,-2148 204.82,-2148 135.17,-2136.87 135.17,-2115.13 204.82,-2104 298.75,-2104 368.4,-2115.13"/>
<polygon fill="none" stroke="#38f3b9" points="372.41,-2111.72 372.41,-2140.28 299.07,-2152 204.51,-2152 131.17,-2140.28 131.17,-2111.72 204.51,-2100 299.07,-2100 372.41,-2111.72"/>
<text text-anchor="middle" x="251.79" y="-2122.3" font-family="Roboto" font-size="14.00" fill="#000000">cura&#45;4.4.0 (477.62 MiB)</text>
</g>
<!-- N12 -->
<g id="node24" class="node">
<title>N12</title>
<polygon fill="#3dd9ea" stroke="#3dd9ea" points="363.51,-2188.54 363.51,-2203.46 298.06,-2214 205.51,-2214 140.07,-2203.46 140.07,-2188.54 205.51,-2178 298.06,-2178 363.51,-2188.54"/>
<polygon fill="none" stroke="#3dd9ea" points="367.5,-2185.14 367.5,-2206.86 298.38,-2218 205.19,-2218 136.07,-2206.86 136.07,-2185.14 205.19,-2174 298.38,-2174 367.5,-2185.14"/>
<polygon fill="none" stroke="#3dd9ea" points="371.5,-2181.73 371.5,-2210.27 298.7,-2222 204.87,-2222 132.08,-2210.27 132.08,-2181.73 204.87,-2170 298.7,-2170 371.5,-2181.73"/>
<text text-anchor="middle" x="251.79" y="-2192.3" font-family="Roboto" font-size="14.00" fill="#000000">X11&#45;fonts (250.60 MiB)</text>
</g>
<!-- N11 -->
<g id="node25" class="node">
<title>N11</title>
<polygon fill="#fe0000" stroke="#fe0000" points="382.5,-2258.54 382.5,-2273.46 305.93,-2284 197.65,-2284 121.08,-2273.46 121.08,-2258.54 197.65,-2248 305.93,-2248 382.5,-2258.54"/>
<polygon fill="none" stroke="#fe0000" points="386.49,-2255.06 386.49,-2276.94 306.2,-2288 197.37,-2288 117.08,-2276.94 117.08,-2255.06 197.37,-2244 306.2,-2244 386.49,-2255.06"/>
<polygon fill="none" stroke="#fe0000" points="390.49,-2251.57 390.49,-2280.43 306.48,-2292 197.1,-2292 113.09,-2280.43 113.09,-2251.57 197.1,-2240 306.48,-2240 390.49,-2251.57"/>
<text text-anchor="middle" x="251.79" y="-2262.3" font-family="Roboto" font-size="14.00" fill="#000000">playonlinux&#45;4.3.4 (2.36 GiB)</text>
</g>
<!-- N10 -->
<g id="node26" class="node">
<title>N10</title>
<polygon fill="#fef715" stroke="#fef715" points="337.02,-1208.54 337.02,-1223.46 287.09,-1234 216.48,-1234 166.55,-1223.46 166.55,-1208.54 216.48,-1198 287.09,-1198 337.02,-1208.54"/>
<polygon fill="none" stroke="#fef715" points="341.03,-1205.3 341.03,-1226.7 287.51,-1238 216.06,-1238 162.55,-1226.7 162.55,-1205.3 216.06,-1194 287.51,-1194 341.03,-1205.3"/>
<polygon fill="none" stroke="#fef715" points="345.03,-1202.06 345.03,-1229.94 287.93,-1242 215.65,-1242 158.54,-1229.94 158.54,-1202.06 215.65,-1190 287.93,-1190 345.03,-1202.06"/>
<text text-anchor="middle" x="251.79" y="-1212.3" font-family="Roboto" font-size="14.00" fill="#000000">steam (1.35 GiB)</text>
</g>
<!-- N10&#45;&gt;N22 -->
<g id="edge15" class="edge">
<title>N10&#45;&gt;N22</title>
<path fill="none" stroke="black" d="M251.79,-1189.68C251.79,-1187.23 251.79,-1184.78 251.79,-1182.33"/>
<polygon fill="black" stroke="black" points="255.29,-1182.25 251.79,-1172.25 248.29,-1182.25 255.29,-1182.25"/>
</g>
<!-- N10&#45;&gt;N28 -->
<g id="edge16" class="edge">
<title>N10&#45;&gt;N28</title>
<path fill="none" stroke="black" d="M344.96,-1202.88C385.41,-1196.79 433.39,-1189.1 476.46,-1181 499.8,-1176.61 524.94,-1171.33 548.19,-1166.22"/>
<polygon fill="black" stroke="black" points="549.01,-1169.62 558.02,-1164.05 547.5,-1162.79 549.01,-1169.62"/>
</g>
<!-- N41 -->
<g id="node27" class="node">
<title>N41</title>
<polygon fill="#4069e1" stroke="#4069e1" points="376.32,-998.54 376.32,-1013.46 303.37,-1024 200.2,-1024 127.25,-1013.46 127.25,-998.54 200.2,-988 303.37,-988 376.32,-998.54"/>
<polygon fill="none" stroke="#4069e1" points="380.32,-995.08 380.32,-1016.92 303.66,-1028 199.92,-1028 123.25,-1016.92 123.25,-995.08 199.92,-984 303.66,-984 380.32,-995.08"/>
<polygon fill="none" stroke="#4069e1" points="384.32,-991.62 384.32,-1020.38 303.95,-1032 199.63,-1032 119.25,-1020.38 119.25,-991.62 199.63,-980 303.95,-980 384.32,-991.62"/>
<text text-anchor="middle" x="251.79" y="-1002.3" font-family="Roboto" font-size="14.00" fill="#ffffff">arandr&#45;0.1.10 (203.91 KiB)</text>
</g>
<!-- N41&#45;&gt;N29 -->
<g id="edge17" class="edge">
<title>N41&#45;&gt;N29</title>
<path fill="none" stroke="black" d="M384.51,-998C415.68,-992.73 448.08,-984.31 476.46,-971 534.18,-943.93 586.62,-889.35 614.48,-856.91"/>
<polygon fill="black" stroke="black" points="617.24,-859.07 621.02,-849.17 611.89,-854.55 617.24,-859.07"/>
</g>
<!-- N9 -->
<g id="node28" class="node">
<title>N9</title>
<polygon fill="#3fb1e6" stroke="#3fb1e6" points="377.64,-228.54 377.64,-243.46 303.92,-254 199.66,-254 125.93,-243.46 125.93,-228.54 199.66,-218 303.92,-218 377.64,-228.54"/>
<polygon fill="none" stroke="#3fb1e6" points="381.64,-225.08 381.64,-246.92 304.2,-258 199.37,-258 121.94,-246.92 121.94,-225.08 199.37,-214 304.2,-214 381.64,-225.08"/>
<polygon fill="none" stroke="#3fb1e6" points="385.64,-221.61 385.64,-250.39 304.49,-262 199.09,-262 117.94,-250.39 117.94,-221.61 199.09,-210 304.49,-210 385.64,-221.61"/>
<text text-anchor="middle" x="251.79" y="-232.3" font-family="Roboto" font-size="14.00" fill="#ffffff">gimp&#45;2.10.18 (140.30 MiB)</text>
</g>
<!-- N9&#45;&gt;N29 -->
<g id="edge18" class="edge">
<title>N9&#45;&gt;N29</title>
<path fill="none" stroke="black" d="M385.87,-229.72C419.47,-234.79 452.71,-246.68 476.46,-271 519.07,-314.62 496.34,-484.2 512.46,-543 539.88,-643 594.71,-753.84 620.89,-803.87"/>
<polygon fill="black" stroke="black" points="617.82,-805.55 625.58,-812.77 624.02,-802.29 617.82,-805.55"/>
</g>
<!-- N9&#45;&gt;N30 -->
<g id="edge19" class="edge">
<title>N9&#45;&gt;N30</title>
<path fill="none" stroke="black" d="M369.11,-219.19C403.73,-213.81 441.7,-207.54 476.46,-201 500.76,-196.43 527.01,-190.9 551.04,-185.59"/>
<polygon fill="black" stroke="black" points="551.84,-189 560.84,-183.42 550.32,-182.17 551.84,-189"/>
</g>
<!-- N8 -->
<g id="node29" class="node">
<title>N8</title>
<polygon fill="#3cedec" stroke="#3cedec" points="358.65,-2328.54 358.65,-2343.46 296.05,-2354 207.52,-2354 144.92,-2343.46 144.92,-2328.54 207.52,-2318 296.05,-2318 358.65,-2328.54"/>
<polygon fill="none" stroke="#3cedec" points="362.65,-2325.16 362.65,-2346.84 296.39,-2358 207.19,-2358 140.92,-2346.84 140.92,-2325.16 207.19,-2314 296.39,-2314 362.65,-2325.16"/>
<polygon fill="none" stroke="#3cedec" points="366.65,-2321.78 366.65,-2350.22 296.72,-2362 206.85,-2362 136.93,-2350.22 136.93,-2321.78 206.85,-2310 296.72,-2310 366.65,-2321.78"/>
<text text-anchor="middle" x="251.79" y="-2332.3" font-family="Roboto" font-size="14.00" fill="#000000">ino&#45;0.3.6 (310.71 MiB)</text>
</g>
<!-- N7 -->
<g id="node30" class="node">
<title>N7</title>
<polygon fill="#3ecfe9" stroke="#3ecfe9" points="450.06,-2398.54 450.06,-2413.46 333.92,-2424 169.66,-2424 53.51,-2413.46 53.51,-2398.54 169.66,-2388 333.92,-2388 450.06,-2398.54"/>
<polygon fill="none" stroke="#3ecfe9" points="454.06,-2394.89 454.06,-2417.11 334.1,-2428 169.48,-2428 49.52,-2417.11 49.52,-2394.89 169.48,-2384 334.1,-2384 454.06,-2394.89"/>
<polygon fill="none" stroke="#3ecfe9" points="458.06,-2391.24 458.06,-2420.76 334.28,-2432 169.3,-2432 45.52,-2420.76 45.52,-2391.24 169.3,-2380 334.28,-2380 458.06,-2391.24"/>
<text text-anchor="middle" x="251.79" y="-2402.3" font-family="Roboto" font-size="14.00" fill="#000000">papirus&#45;icon&#45;theme&#45;20200430 (221.53 MiB)</text>
</g>
<!-- N6 -->
<g id="node31" class="node">
<title>N6</title>
<polygon fill="#3eb9e7" stroke="#3eb9e7" points="395.31,-2468.54 395.31,-2483.46 311.24,-2494 192.34,-2494 108.26,-2483.46 108.26,-2468.54 192.34,-2458 311.24,-2458 395.31,-2468.54"/>
<polygon fill="none" stroke="#3eb9e7" points="399.31,-2465.01 399.31,-2486.99 311.49,-2498 192.09,-2498 104.26,-2486.99 104.26,-2465.01 192.09,-2454 311.49,-2454 399.31,-2465.01"/>
<polygon fill="none" stroke="#3eb9e7" points="403.31,-2461.48 403.31,-2490.52 311.74,-2502 191.84,-2502 100.26,-2490.52 100.26,-2461.48 191.84,-2450 311.74,-2450 403.31,-2461.48"/>
<text text-anchor="middle" x="251.79" y="-2472.3" font-family="Roboto" font-size="14.00" fill="#000000">upwork&#45;5.3.3&#45;883 (161.57 MiB)</text>
</g>
<!-- N5 -->
<g id="node32" class="node">
<title>N5</title>
<polygon fill="#befe2c" stroke="#befe2c" points="394.42,-2538.54 394.42,-2553.46 310.87,-2564 192.71,-2564 109.16,-2553.46 109.16,-2538.54 192.71,-2528 310.87,-2528 394.42,-2538.54"/>
<polygon fill="none" stroke="#befe2c" points="398.41,-2535.02 398.41,-2556.98 311.12,-2568 192.46,-2568 105.17,-2556.98 105.17,-2535.02 192.46,-2524 311.12,-2524 398.41,-2535.02"/>
<polygon fill="none" stroke="#befe2c" points="402.41,-2531.49 402.41,-2560.51 311.37,-2572 192.21,-2572 101.17,-2560.51 101.17,-2531.49 192.21,-2520 311.37,-2520 402.41,-2531.49"/>
<text text-anchor="middle" x="251.79" y="-2542.3" font-family="Roboto" font-size="14.00" fill="#000000">xonotic&#45;sdl&#45;0.8.2 (895.35 MiB)</text>
</g>
<!-- N42 -->
<g id="node33" class="node">
<title>N42</title>
<polygon fill="#406be1" stroke="#406be1" points="383.82,-368.54 383.82,-383.46 306.48,-394 197.1,-394 119.76,-383.46 119.76,-368.54 197.1,-358 306.48,-358 383.82,-368.54"/>
<polygon fill="none" stroke="#406be1" points="387.81,-365.05 387.81,-386.95 306.75,-398 196.83,-398 115.77,-386.95 115.77,-365.05 196.83,-354 306.75,-354 387.81,-365.05"/>
<polygon fill="none" stroke="#406be1" points="391.8,-361.56 391.8,-390.44 307.02,-402 196.56,-402 111.77,-390.44 111.77,-361.56 196.56,-350 307.02,-350 391.8,-361.56"/>
<text text-anchor="middle" x="251.79" y="-372.3" font-family="Roboto" font-size="14.00" fill="#ffffff">neovim&#45;qt&#45;0.2.15 (3.81 MiB)</text>
</g>
<!-- N42&#45;&gt;N27 -->
<g id="edge20" class="edge">
<title>N42&#45;&gt;N27</title>
<path fill="none" stroke="black" d="M391.85,-388.31C420.43,-393.44 449.89,-400.71 476.46,-411 526.09,-430.22 576.14,-466.75 606.47,-491.24"/>
<polygon fill="black" stroke="black" points="604.54,-494.18 614.49,-497.81 608.97,-488.76 604.54,-494.18"/>
</g>
<!-- N4 -->
<g id="node34" class="node">
<title>N4</title>
<polygon fill="#3fa3e5" stroke="#3fa3e5" points="386.03,-2608.54 386.03,-2623.46 307.39,-2634 196.18,-2634 117.55,-2623.46 117.55,-2608.54 196.18,-2598 307.39,-2598 386.03,-2608.54"/>
<polygon fill="none" stroke="#3fa3e5" points="390.03,-2605.04 390.03,-2626.96 307.66,-2638 195.92,-2638 113.55,-2626.96 113.55,-2605.04 195.92,-2594 307.66,-2594 390.03,-2605.04"/>
<polygon fill="none" stroke="#3fa3e5" points="394.02,-2601.54 394.02,-2630.46 307.93,-2642 195.65,-2642 109.55,-2630.46 109.55,-2601.54 195.65,-2590 307.93,-2590 394.02,-2601.54"/>
<text text-anchor="middle" x="251.79" y="-2612.3" font-family="Roboto" font-size="14.00" fill="#ffffff">nomacs&#45;3.14.2 (108.73 MiB)</text>
</g>
<!-- N3 -->
<g id="node35" class="node">
<title>N3</title>
<polygon fill="#fe6f00" stroke="#fe6f00" points="434.19,-298.54 434.19,-313.46 327.34,-324 176.24,-324 69.39,-313.46 69.39,-298.54 176.24,-288 327.34,-288 434.19,-298.54"/>
<polygon fill="none" stroke="#fe6f00" points="438.19,-294.92 438.19,-317.08 327.54,-328 176.04,-328 65.38,-317.08 65.38,-294.92 176.04,-284 327.54,-284 438.19,-294.92"/>
<polygon fill="none" stroke="#fe6f00" points="442.2,-291.3 442.2,-320.7 327.74,-332 175.84,-332 61.38,-320.7 61.38,-291.3 175.84,-280 327.74,-280 442.2,-291.3"/>
<text text-anchor="middle" x="251.79" y="-302.3" font-family="Roboto" font-size="14.00" fill="#000000">xmonad&#45;with&#45;packages&#45;8.8.3 (2.17 GiB)</text>
</g>
<!-- N3&#45;&gt;N27 -->
<g id="edge21" class="edge">
<title>N3&#45;&gt;N27</title>
<path fill="none" stroke="black" d="M429.62,-321.98C445.96,-326.89 461.84,-333.12 476.46,-341 542.04,-376.33 594.53,-449.5 619.55,-489.11"/>
<polygon fill="black" stroke="black" points="616.79,-491.3 625.03,-497.96 622.74,-487.61 616.79,-491.3"/>
</g>
<!-- N2 -->
<g id="node36" class="node">
<title>N2</title>
<polygon fill="#3ebae7" stroke="#3ebae7" points="381.18,-2678.54 381.18,-2693.46 305.38,-2704 198.19,-2704 122.4,-2693.46 122.4,-2678.54 198.19,-2668 305.38,-2668 381.18,-2678.54"/>
<polygon fill="none" stroke="#3ebae7" points="385.18,-2675.06 385.18,-2696.94 305.66,-2708 197.92,-2708 118.4,-2696.94 118.4,-2675.06 197.92,-2664 305.66,-2664 385.18,-2675.06"/>
<polygon fill="none" stroke="#3ebae7" points="389.17,-2671.58 389.17,-2700.42 305.94,-2712 197.64,-2712 114.4,-2700.42 114.4,-2671.58 197.64,-2660 305.94,-2660 389.17,-2671.58"/>
<text text-anchor="middle" x="251.79" y="-2682.3" font-family="Roboto" font-size="14.00" fill="#000000">gzdoom&#45;4.3.3 (163.52 MiB)</text>
</g>
<!-- N43 -->
<g id="node37" class="node">
<title>N43</title>
<polygon fill="#406be1" stroke="#406be1" points="407.23,-1908.54 407.23,-1923.46 316.18,-1934 187.4,-1934 96.34,-1923.46 96.34,-1908.54 187.4,-1898 316.18,-1898 407.23,-1908.54"/>
<polygon fill="none" stroke="#406be1" points="411.23,-1904.98 411.23,-1927.02 316.41,-1938 187.17,-1938 92.34,-1927.02 92.34,-1904.98 187.17,-1894 316.41,-1894 411.23,-1904.98"/>
<polygon fill="none" stroke="#406be1" points="415.23,-1901.42 415.23,-1930.58 316.64,-1942 186.94,-1942 88.34,-1930.58 88.34,-1901.42 186.94,-1890 316.64,-1890 415.23,-1901.42"/>
<text text-anchor="middle" x="251.79" y="-1912.3" font-family="Roboto" font-size="14.00" fill="#ffffff">firefox&#45;beta&#45;bin&#45;77.0b7 (3.25 MiB)</text>
</g>
<!-- N43&#45;&gt;N17 -->
<g id="edge22" class="edge">
<title>N43&#45;&gt;N17</title>
<path fill="none" stroke="black" d="M251.79,-1889.68C251.79,-1887.23 251.79,-1884.78 251.79,-1882.33"/>
<polygon fill="black" stroke="black" points="255.29,-1882.25 251.79,-1872.25 248.29,-1882.25 255.29,-1882.25"/>
</g>
<!-- N1 -->
<g id="node38" class="node">
<title>N1</title>
<polygon fill="#3cedec" stroke="#3cedec" points="371.47,-2748.54 371.47,-2763.46 301.36,-2774 202.21,-2774 132.11,-2763.46 132.11,-2748.54 202.21,-2738 301.36,-2738 371.47,-2748.54"/>
<polygon fill="none" stroke="#3cedec" points="375.47,-2745.1 375.47,-2766.9 301.66,-2778 201.92,-2778 128.1,-2766.9 128.1,-2745.1 201.92,-2734 301.66,-2734 375.47,-2745.1"/>
<polygon fill="none" stroke="#3cedec" points="379.48,-2741.66 379.48,-2770.34 301.96,-2782 201.62,-2782 124.1,-2770.34 124.1,-2741.66 201.62,-2730 301.96,-2730 379.48,-2741.66"/>
<text text-anchor="middle" x="251.79" y="-2752.3" font-family="Roboto" font-size="14.00" fill="#000000">elixir&#45;1.10.3 (309.97 MiB)</text>
</g>
<!-- N39&#45;&gt;N26 -->
<g id="edge23" class="edge">
<title>N39&#45;&gt;N26</title>
<path fill="none" stroke="black" d="M389.94,-1656.1C418.58,-1660.68 448.56,-1665.75 476.46,-1671 499.8,-1675.39 524.94,-1680.67 548.19,-1685.78"/>
<polygon fill="black" stroke="black" points="547.5,-1689.21 558.02,-1687.95 549.01,-1682.38 547.5,-1689.21"/>
</g>
<!-- N44 -->
<g id="node40" class="node">
<title>N44</title>
<polygon fill="#4071e1" stroke="#4071e1" points="353.8,-928.54 353.8,-943.46 294.04,-954 209.53,-954 149.78,-943.46 149.78,-928.54 209.53,-918 294.04,-918 353.8,-928.54"/>
<polygon fill="none" stroke="#4071e1" points="357.8,-925.19 357.8,-946.81 294.39,-958 209.18,-958 145.78,-946.81 145.78,-925.19 209.18,-914 294.39,-914 357.8,-925.19"/>
<polygon fill="none" stroke="#4071e1" points="361.8,-921.83 361.8,-950.17 294.74,-962 208.83,-962 141.78,-950.17 141.78,-921.83 208.83,-910 294.74,-910 361.8,-921.83"/>
<text text-anchor="middle" x="251.79" y="-932.3" font-family="Roboto" font-size="14.00" fill="#ffffff">piper&#45;0.4 (12.98 MiB)</text>
</g>
<!-- N44&#45;&gt;N29 -->
<g id="edge24" class="edge">
<title>N44&#45;&gt;N29</title>
<path fill="none" stroke="black" d="M361.83,-924.71C398.69,-919.38 439.78,-911.75 476.46,-901 516.99,-889.13 560.75,-869.3 592.08,-853.78"/>
<polygon fill="black" stroke="black" points="594.02,-856.72 601.39,-849.11 590.88,-850.46 594.02,-856.72"/>
</g>
</g>
</svg>
