<?xml version="1.0" encoding="UTF-8" standalone="no"?>
<!DOCTYPE svg PUBLIC "-//W3C//DTD SVG 1.1//EN"
 "http://www.w3.org/Graphics/SVG/1.1/DTD/svg11.dtd">
<!-- Generated by graphviz version 2.43.0 (0)
 -->
<!-- Title: nixstore Pages: 1 -->
<svg width="723pt" height="3210pt"
 viewBox="0.00 0.00 722.80 3210.00" xmlns="http://www.w3.org/2000/svg" xmlns:xlink="http://www.w3.org/1999/xlink">
<g id="graph0" class="graph" transform="scale(1 1) rotate(0) translate(4 3206)">
<title>nixstore</title>
<polygon fill="white" stroke="transparent" points="-4,4 -4,-3206 718.8,-3206 718.8,4 -4,4"/>
<!-- N54 -->
<g id="node1" class="node">
<title>N54</title>
<polygon fill="#fe4800" stroke="#fe4800" points="356.75,-18.54 356.75,-33.46 291.56,-44 199.36,-44 134.16,-33.46 134.16,-18.54 199.36,-8 291.56,-8 356.75,-18.54"/>
<polygon fill="none" stroke="#fe4800" points="360.76,-15.14 360.76,-36.86 291.88,-48 199.04,-48 130.16,-36.86 130.16,-15.14 199.04,-4 291.88,-4 360.76,-15.14"/>
<polygon fill="none" stroke="#fe4800" points="364.76,-11.74 364.76,-40.26 292.2,-52 198.71,-52 126.15,-40.26 126.15,-11.74 198.71,0 292.2,0 364.76,-11.74"/>
<text text-anchor="middle" x="245.46" y="-22.3" font-family="Times-Roman" font-size="14.00" fill="#000000">{filtered out} (2.10 GiB)</text>
</g>
<!-- N40 -->
<g id="node2" class="node">
<title>N40</title>
<polygon fill="#3dd7ea" stroke="#3dd7ea" points="393.83,-1348.54 393.83,-1363.46 306.92,-1374 184,-1374 97.08,-1363.46 97.08,-1348.54 184,-1338 306.92,-1338 393.83,-1348.54"/>
<polygon fill="none" stroke="#3dd7ea" points="397.83,-1345 397.83,-1367 307.16,-1378 183.76,-1378 93.08,-1367 93.08,-1345 183.76,-1334 307.16,-1334 397.83,-1345"/>
<polygon fill="none" stroke="#3dd7ea" points="401.83,-1341.46 401.83,-1370.54 307.4,-1382 183.51,-1382 89.08,-1370.54 89.08,-1341.46 183.51,-1330 307.4,-1330 401.83,-1341.46"/>
<text text-anchor="middle" x="245.46" y="-1352.3" font-family="Times-Roman" font-size="14.00" fill="#000000">virt&#45;manager&#45;2.2.1 (224.77 MiB)</text>
</g>
<!-- N35 -->
<g id="node47" class="node">
<title>N35</title>
<polygon fill="#37f5a0" stroke="#37f5a0" points="702.8,-1199 511.8,-1199 511.8,-1163 702.8,-1163 702.8,-1199"/>
<text text-anchor="middle" x="607.3" y="-1177.3" font-family="Times-Roman" font-size="14.00" fill="#000000">libGL&#45;1.3.1&#45;dev (493.23 MiB)</text>
</g>
<!-- N40&#45;&gt;N35 -->
<g id="edge1" class="edge">
<title>N40&#45;&gt;N35</title>
<path fill="none" stroke="black" d="M401.89,-1343.04C423.37,-1337.83 444.62,-1330.7 463.8,-1321 517.22,-1293.99 563.37,-1239.78 587.78,-1207.31"/>
<polygon fill="black" stroke="black" points="590.67,-1209.28 593.8,-1199.16 585.04,-1205.13 590.67,-1209.28"/>
</g>
<!-- N31 -->
<g id="node3" class="node">
<title>N31</title>
<polygon fill="#39f2c1" stroke="#39f2c1" points="373.53,-1768.54 373.53,-1783.46 298.5,-1794 192.41,-1794 117.39,-1783.46 117.39,-1768.54 192.41,-1758 298.5,-1758 373.53,-1768.54"/>
<polygon fill="none" stroke="#39f2c1" points="377.53,-1765.07 377.53,-1786.93 298.78,-1798 192.13,-1798 113.39,-1786.93 113.39,-1765.07 192.13,-1754 298.78,-1754 377.53,-1765.07"/>
<polygon fill="none" stroke="#39f2c1" points="381.53,-1761.59 381.53,-1790.41 299.06,-1802 191.85,-1802 109.39,-1790.41 109.39,-1761.59 191.85,-1750 299.06,-1750 381.53,-1761.59"/>
<text text-anchor="middle" x="245.46" y="-1772.3" font-family="Times-Roman" font-size="14.00" fill="#000000">calibre&#45;4.15.0 (421.82 MiB)</text>
</g>
<!-- N30 -->
<g id="node4" class="node">
<title>N30</title>
<polygon fill="#35f86b" stroke="#35f86b" points="386.77,-1278.54 386.77,-1293.46 303.99,-1304 186.92,-1304 104.15,-1293.46 104.15,-1278.54 186.92,-1268 303.99,-1268 386.77,-1278.54"/>
<polygon fill="none" stroke="#35f86b" points="390.76,-1275.02 390.76,-1296.98 304.24,-1308 186.67,-1308 100.15,-1296.98 100.15,-1275.02 186.67,-1264 304.24,-1264 390.76,-1275.02"/>
<polygon fill="none" stroke="#35f86b" points="394.76,-1271.5 394.76,-1300.5 304.5,-1312 186.42,-1312 96.15,-1300.5 96.15,-1271.5 186.42,-1260 304.5,-1260 394.76,-1271.5"/>
<text text-anchor="middle" x="245.46" y="-1282.3" font-family="Times-Roman" font-size="14.00" fill="#000000">wesnoth&#45;1.14.11 (569.75 MiB)</text>
</g>
<!-- N30&#45;&gt;N35 -->
<g id="edge2" class="edge">
<title>N30&#45;&gt;N35</title>
<path fill="none" stroke="black" d="M384.43,-1270.11C411.1,-1265.27 438.58,-1259.03 463.8,-1251 500.38,-1239.36 539.33,-1219.67 567.25,-1204.13"/>
<polygon fill="black" stroke="black" points="569.28,-1207 576.27,-1199.04 565.84,-1200.91 569.28,-1207"/>
</g>
<!-- N41 -->
<g id="node5" class="node">
<title>N41</title>
<polygon fill="#408ce3" stroke="#408ce3" points="365.56,-1908.54 365.56,-1923.46 295.21,-1934 195.71,-1934 125.35,-1923.46 125.35,-1908.54 195.71,-1898 295.21,-1898 365.56,-1908.54"/>
<polygon fill="none" stroke="#408ce3" points="369.56,-1905.1 369.56,-1926.9 295.5,-1938 195.41,-1938 121.36,-1926.9 121.36,-1905.1 195.41,-1894 295.5,-1894 369.56,-1905.1"/>
<polygon fill="none" stroke="#408ce3" points="373.55,-1901.65 373.55,-1930.35 295.8,-1942 195.11,-1942 117.36,-1930.35 117.36,-1901.65 195.11,-1890 295.8,-1890 373.55,-1901.65"/>
<text text-anchor="middle" x="245.46" y="-1912.3" font-family="Times-Roman" font-size="14.00" fill="#ffffff">firefox&#45;76.0.1 (54.75 MiB)</text>
</g>
<!-- N9 -->
<g id="node36" class="node">
<title>N9</title>
<polygon fill="#3ec6e8" stroke="#3ec6e8" points="422.11,-1838.54 422.11,-1853.46 318.63,-1864 172.29,-1864 68.81,-1853.46 68.81,-1838.54 172.29,-1828 318.63,-1828 422.11,-1838.54"/>
<polygon fill="none" stroke="#3ec6e8" points="426.11,-1834.93 426.11,-1857.07 318.83,-1868 172.08,-1868 64.81,-1857.07 64.81,-1834.93 172.08,-1824 318.83,-1824 426.11,-1834.93"/>
<polygon fill="none" stroke="#3ec6e8" points="430.11,-1831.32 430.11,-1860.68 319.03,-1872 171.88,-1872 60.8,-1860.68 60.8,-1831.32 171.88,-1820 319.03,-1820 430.11,-1831.32"/>
<text text-anchor="middle" x="245.46" y="-1842.3" font-family="Times-Roman" font-size="14.00" fill="#000000">firefox&#45;unwrapped&#45;76.0.1 (179.24 MiB)</text>
</g>
<!-- N41&#45;&gt;N9 -->
<g id="edge3" class="edge">
<title>N41&#45;&gt;N9</title>
<path fill="none" stroke="black" d="M245.46,-1889.68C245.46,-1887.23 245.46,-1884.78 245.46,-1882.33"/>
<polygon fill="black" stroke="black" points="248.96,-1882.25 245.46,-1872.25 241.96,-1882.25 248.96,-1882.25"/>
</g>
<!-- N42 -->
<g id="node6" class="node">
<title>N42</title>
<polygon fill="#4080e2" stroke="#4080e2" points="365.56,-228.54 365.56,-243.46 295.21,-254 195.71,-254 125.35,-243.46 125.35,-228.54 195.71,-218 295.21,-218 365.56,-228.54"/>
<polygon fill="none" stroke="#4080e2" points="369.56,-225.1 369.56,-246.9 295.5,-258 195.41,-258 121.36,-246.9 121.36,-225.1 195.41,-214 295.5,-214 369.56,-225.1"/>
<polygon fill="none" stroke="#4080e2" points="373.55,-221.65 373.55,-250.35 295.8,-262 195.11,-262 117.36,-250.35 117.36,-221.65 195.11,-210 295.8,-210 373.55,-221.65"/>
<text text-anchor="middle" x="245.46" y="-232.3" font-family="Times-Roman" font-size="14.00" fill="#ffffff">polybar&#45;3.4.3 (35.38 MiB)</text>
</g>
<!-- N36 -->
<g id="node48" class="node">
<title>N36</title>
<polygon fill="#3fb4e6" stroke="#3fb4e6" points="684.8,-569 529.8,-569 529.8,-533 684.8,-533 684.8,-569"/>
<text text-anchor="middle" x="607.3" y="-547.3" font-family="Times-Roman" font-size="14.00" fill="#ffffff">gcc&#45;9.3.0 (136.80 MiB)</text>
</g>
<!-- N42&#45;&gt;N36 -->
<g id="edge4" class="edge">
<title>N42&#45;&gt;N36</title>
<path fill="none" stroke="black" d="M373.82,-236.56C405.54,-241.82 437.86,-252.09 463.8,-271 550.53,-334.21 588.12,-465.65 600.87,-523.11"/>
<polygon fill="black" stroke="black" points="597.46,-523.89 602.97,-532.94 604.31,-522.43 597.46,-523.89"/>
</g>
<!-- N43 -->
<g id="node7" class="node">
<title>N43</title>
<polygon fill="#4088e3" stroke="#4088e3" points="419.89,-1698.54 419.89,-1713.46 317.71,-1724 173.2,-1724 71.02,-1713.46 71.02,-1698.54 173.2,-1688 317.71,-1688 419.89,-1698.54"/>
<polygon fill="none" stroke="#4088e3" points="423.89,-1694.94 423.89,-1717.06 317.92,-1728 173,-1728 67.02,-1717.06 67.02,-1694.94 173,-1684 317.92,-1684 423.89,-1694.94"/>
<polygon fill="none" stroke="#4088e3" points="427.89,-1691.33 427.89,-1720.67 318.12,-1732 172.79,-1732 63.02,-1720.67 63.02,-1691.33 172.79,-1680 318.12,-1680 427.89,-1691.33"/>
<text text-anchor="middle" x="245.46" y="-1702.3" font-family="Times-Roman" font-size="14.00" fill="#ffffff">openra&#45;release&#45;20190314 (47.51 MiB)</text>
</g>
<!-- N38 -->
<g id="node49" class="node">
<title>N38</title>
<polygon fill="#3cede7" stroke="#3cede7" points="704.8,-1689 509.8,-1689 509.8,-1653 704.8,-1653 704.8,-1689"/>
<text text-anchor="middle" x="607.3" y="-1667.3" font-family="Times-Roman" font-size="14.00" fill="#000000">mono&#45;5.20.1.27 (304.81 MiB)</text>
</g>
<!-- N43&#45;&gt;N38 -->
<g id="edge5" class="edge">
<title>N43&#45;&gt;N38</title>
<path fill="none" stroke="black" d="M413.21,-1689.78C442.56,-1686.93 472.37,-1684.03 499.51,-1681.39"/>
<polygon fill="black" stroke="black" points="500.16,-1684.84 509.77,-1680.39 499.48,-1677.87 500.16,-1684.84"/>
</g>
<!-- N29 -->
<g id="node8" class="node">
<title>N29</title>
<polygon fill="#3ceee7" stroke="#3ceee7" points="372.21,-2118.54 372.21,-2133.46 297.96,-2144 192.96,-2144 118.71,-2133.46 118.71,-2118.54 192.96,-2108 297.96,-2108 372.21,-2118.54"/>
<polygon fill="none" stroke="#3ceee7" points="376.21,-2115.07 376.21,-2136.93 298.24,-2148 192.67,-2148 114.7,-2136.93 114.7,-2115.07 192.67,-2104 298.24,-2104 376.21,-2115.07"/>
<polygon fill="none" stroke="#3ceee7" points="380.21,-2111.6 380.21,-2140.4 298.52,-2152 192.39,-2152 110.7,-2140.4 110.7,-2111.6 192.39,-2100 298.52,-2100 380.21,-2111.6"/>
<text text-anchor="middle" x="245.46" y="-2122.3" font-family="Times-Roman" font-size="14.00" fill="#000000">arduino&#45;1.8.9 (306.72 MiB)</text>
</g>
<!-- N33 -->
<g id="node50" class="node">
<title>N33</title>
<polygon fill="#3ed0e9" stroke="#3ed0e9" points="714.8,-2074 499.8,-2074 499.8,-2038 714.8,-2038 714.8,-2074"/>
<text text-anchor="middle" x="607.3" y="-2052.3" font-family="Times-Roman" font-size="14.00" fill="#000000">openjdk&#45;8u242&#45;b08 (204.72 MiB)</text>
</g>
<!-- N29&#45;&gt;N33 -->
<g id="edge6" class="edge">
<title>N29&#45;&gt;N33</title>
<path fill="none" stroke="black" d="M362.67,-2109.07C395.47,-2103.81 431.12,-2097.63 463.8,-2091 484.71,-2086.76 507.18,-2081.54 527.97,-2076.45"/>
<polygon fill="black" stroke="black" points="528.83,-2079.84 537.7,-2074.04 527.15,-2073.05 528.83,-2079.84"/>
</g>
<!-- N44 -->
<g id="node9" class="node">
<title>N44</title>
<polygon fill="#406ce1" stroke="#406ce1" points="362.92,-788.54 362.92,-803.46 294.11,-814 196.8,-814 127.99,-803.46 127.99,-788.54 196.8,-778 294.11,-778 362.92,-788.54"/>
<polygon fill="none" stroke="#406ce1" points="366.92,-785.11 366.92,-806.89 294.42,-818 196.5,-818 123.99,-806.89 123.99,-785.11 196.5,-774 294.42,-774 366.92,-785.11"/>
<polygon fill="none" stroke="#406ce1" points="370.92,-781.68 370.92,-810.32 294.72,-822 196.19,-822 119.99,-810.32 119.99,-781.68 196.19,-770 294.72,-770 370.92,-781.68"/>
<text text-anchor="middle" x="245.46" y="-792.3" font-family="Times-Roman" font-size="14.00" fill="#ffffff">nethack&#45;3.6.6 (4.58 MiB)</text>
</g>
<!-- N44&#45;&gt;N36 -->
<g id="edge7" class="edge">
<title>N44&#45;&gt;N36</title>
<path fill="none" stroke="black" d="M371.15,-793.37C403.23,-788.17 436.4,-778.45 463.8,-761 533.56,-716.57 577.64,-624.38 596.19,-578.36"/>
<polygon fill="black" stroke="black" points="599.46,-579.6 599.86,-569.02 592.94,-577.04 599.46,-579.6"/>
</g>
<!-- N28 -->
<g id="node10" class="node">
<title>N28</title>
<polygon fill="#3ce8ec" stroke="#3ce8ec" points="455.65,-2188.54 455.65,-2203.46 332.52,-2214 158.39,-2214 35.26,-2203.46 35.26,-2188.54 158.39,-2178 332.52,-2178 455.65,-2188.54"/>
<polygon fill="none" stroke="#3ce8ec" points="459.65,-2184.87 459.65,-2207.13 332.69,-2218 158.22,-2218 31.27,-2207.13 31.27,-2184.87 158.22,-2174 332.69,-2174 459.65,-2184.87"/>
<polygon fill="none" stroke="#3ce8ec" points="463.65,-2181.2 463.65,-2210.8 332.86,-2222 158.05,-2222 27.27,-2210.8 27.27,-2181.2 158.05,-2170 332.86,-2170 463.65,-2181.2"/>
<text text-anchor="middle" x="245.46" y="-2192.3" font-family="Times-Roman" font-size="14.00" fill="#000000">spotify&#45;1.1.26.501.gbe11e53b&#45;15 (272.32 MiB)</text>
</g>
<!-- N27 -->
<g id="node11" class="node">
<title>N27</title>
<polygon fill="#3dd1e9" stroke="#3dd1e9" points="392.52,-1488.54 392.52,-1503.46 306.37,-1514 184.54,-1514 98.4,-1503.46 98.4,-1488.54 184.54,-1478 306.37,-1478 392.52,-1488.54"/>
<polygon fill="none" stroke="#3dd1e9" points="396.52,-1485 396.52,-1507 306.61,-1518 184.3,-1518 94.4,-1507 94.4,-1485 184.3,-1474 306.61,-1474 396.52,-1485"/>
<polygon fill="none" stroke="#3dd1e9" points="400.52,-1481.46 400.52,-1510.54 306.86,-1522 184.06,-1522 90.4,-1510.54 90.4,-1481.46 184.06,-1470 306.86,-1470 400.52,-1481.46"/>
<text text-anchor="middle" x="245.46" y="-1492.3" font-family="Times-Roman" font-size="14.00" fill="#000000">glibc&#45;locales&#45;2.30 (209.50 MiB)</text>
</g>
<!-- N26 -->
<g id="node12" class="node">
<title>N26</title>
<polygon fill="#fec800" stroke="#fec800" points="362.92,-1418.54 362.92,-1433.46 294.11,-1444 196.8,-1444 127.99,-1433.46 127.99,-1418.54 196.8,-1408 294.11,-1408 362.92,-1418.54"/>
<polygon fill="none" stroke="#fec800" points="366.92,-1415.11 366.92,-1436.89 294.42,-1448 196.5,-1448 123.99,-1436.89 123.99,-1415.11 196.5,-1404 294.42,-1404 366.92,-1415.11"/>
<polygon fill="none" stroke="#fec800" points="370.92,-1411.68 370.92,-1440.32 294.72,-1452 196.19,-1452 119.99,-1440.32 119.99,-1411.68 196.19,-1400 294.72,-1400 370.92,-1411.68"/>
<text text-anchor="middle" x="245.46" y="-1422.3" font-family="Times-Roman" font-size="14.00" fill="#000000">wine&#45;wow&#45;5.0 (1.55 GiB)</text>
</g>
<!-- N26&#45;&gt;N35 -->
<g id="edge8" class="edge">
<title>N26&#45;&gt;N35</title>
<path fill="none" stroke="black" d="M371.15,-1423.37C403.23,-1418.17 436.4,-1408.45 463.8,-1391 533.56,-1346.57 577.64,-1254.38 596.19,-1208.36"/>
<polygon fill="black" stroke="black" points="599.46,-1209.6 599.86,-1199.02 592.94,-1207.04 599.46,-1209.6"/>
</g>
<!-- N37 -->
<g id="node51" class="node">
<title>N37</title>
<polygon fill="#3fb3e6" stroke="#3fb3e6" points="683.3,-1522 531.3,-1522 531.3,-1486 683.3,-1486 683.3,-1522"/>
<text text-anchor="middle" x="607.3" y="-1500.3" font-family="Times-Roman" font-size="14.00" fill="#ffffff">glu&#45;9.0.1 (135.38 MiB)</text>
</g>
<!-- N26&#45;&gt;N37 -->
<g id="edge9" class="edge">
<title>N26&#45;&gt;N37</title>
<path fill="none" stroke="black" d="M362.07,-1441.68C395.1,-1446.96 431.03,-1453.45 463.8,-1461 490.03,-1467.04 518.51,-1475.29 543.07,-1482.94"/>
<polygon fill="black" stroke="black" points="542.03,-1486.29 552.62,-1485.95 544.14,-1479.61 542.03,-1486.29"/>
</g>
<!-- N25 -->
<g id="node13" class="node">
<title>N25</title>
<polygon fill="#3ecde9" stroke="#3ecde9" points="383.23,-158.54 383.23,-173.46 302.53,-184 188.39,-184 107.68,-173.46 107.68,-158.54 188.39,-148 302.53,-148 383.23,-158.54"/>
<polygon fill="none" stroke="#3ecde9" points="387.23,-155.03 387.23,-176.97 302.79,-188 188.13,-188 103.68,-176.97 103.68,-155.03 188.13,-144 302.79,-144 387.23,-155.03"/>
<polygon fill="none" stroke="#3ecde9" points="391.23,-151.52 391.23,-180.48 303.04,-192 187.87,-192 99.69,-180.48 99.69,-151.52 187.87,-140 303.04,-140 391.23,-151.52"/>
<text text-anchor="middle" x="245.46" y="-162.3" font-family="Times-Roman" font-size="14.00" fill="#000000">inkscape&#45;0.92.5 (198.90 MiB)</text>
</g>
<!-- N39 -->
<g id="node52" class="node">
<title>N39</title>
<polygon fill="#3fb7e7" stroke="#3fb7e7" points="682.8,-184 531.8,-184 531.8,-148 682.8,-148 682.8,-184"/>
<text text-anchor="middle" x="607.3" y="-162.3" font-family="Times-Roman" font-size="14.00" fill="#000000">lapack&#45;3 (143.49 MiB)</text>
</g>
<!-- N25&#45;&gt;N39 -->
<g id="edge10" class="edge">
<title>N25&#45;&gt;N39</title>
<path fill="none" stroke="black" d="M391.26,-166C435.37,-166 482.4,-166 521.19,-166"/>
<polygon fill="black" stroke="black" points="521.39,-169.5 531.39,-166 521.39,-162.5 521.39,-169.5"/>
</g>
<!-- N24 -->
<g id="node14" class="node">
<title>N24</title>
<polygon fill="#3fade6" stroke="#3fade6" points="394.73,-2258.54 394.73,-2273.46 307.29,-2284 183.63,-2284 96.18,-2273.46 96.18,-2258.54 183.63,-2248 307.29,-2248 394.73,-2258.54"/>
<polygon fill="none" stroke="#3fade6" points="398.73,-2255 398.73,-2277 307.53,-2288 183.38,-2288 92.18,-2277 92.18,-2255 183.38,-2244 307.53,-2244 398.73,-2255"/>
<polygon fill="none" stroke="#3fade6" points="402.74,-2251.45 402.74,-2280.55 307.77,-2292 183.14,-2292 88.18,-2280.55 88.18,-2251.45 183.14,-2240 307.77,-2240 402.74,-2251.45"/>
<text text-anchor="middle" x="245.46" y="-2262.3" font-family="Times-Roman" font-size="14.00" fill="#ffffff">wireshark&#45;cli&#45;3.2.4 (120.45 MiB)</text>
</g>
<!-- N45 -->
<g id="node15" class="node">
<title>N45</title>
<polygon fill="#408ce3" stroke="#408ce3" points="406.65,-928.54 406.65,-943.46 312.23,-954 178.69,-954 84.26,-943.46 84.26,-928.54 178.69,-918 312.23,-918 406.65,-928.54"/>
<polygon fill="none" stroke="#408ce3" points="410.65,-924.97 410.65,-947.03 312.45,-958 178.46,-958 80.26,-947.03 80.26,-924.97 178.46,-914 312.45,-914 410.65,-924.97"/>
<polygon fill="none" stroke="#408ce3" points="414.66,-921.39 414.66,-950.61 312.67,-962 178.24,-962 76.26,-950.61 76.26,-921.39 178.24,-910 312.67,-910 414.66,-921.39"/>
<text text-anchor="middle" x="245.46" y="-932.3" font-family="Times-Roman" font-size="14.00" fill="#ffffff">dwarf&#45;fortress&#45;0.47.04 (55.65 MiB)</text>
</g>
<!-- N45&#45;&gt;N35 -->
<g id="edge11" class="edge">
<title>N45&#45;&gt;N35</title>
<path fill="none" stroke="black" d="M414.78,-948.77C432.1,-954.22 448.81,-961.45 463.8,-971 533.56,-1015.43 577.64,-1107.62 596.19,-1153.64"/>
<polygon fill="black" stroke="black" points="592.94,-1154.96 599.86,-1162.98 599.46,-1152.4 592.94,-1154.96"/>
</g>
<!-- N45&#45;&gt;N36 -->
<g id="edge12" class="edge">
<title>N45&#45;&gt;N36</title>
<path fill="none" stroke="black" d="M414.76,-927.03C432.48,-920.96 449.29,-912.54 463.8,-901 567.89,-818.21 596.48,-647.07 603.88,-579.42"/>
<polygon fill="black" stroke="black" points="607.4,-579.42 604.93,-569.11 600.43,-578.71 607.4,-579.42"/>
</g>
<!-- N46 -->
<g id="node16" class="node">
<title>N46</title>
<polygon fill="#3dd7ea" stroke="#3dd7ea" points="372.63,-858.54 372.63,-873.46 298.13,-884 192.78,-884 118.28,-873.46 118.28,-858.54 192.78,-848 298.13,-848 372.63,-858.54"/>
<polygon fill="none" stroke="#3dd7ea" points="376.63,-855.07 376.63,-876.93 298.42,-888 192.5,-888 114.29,-876.93 114.29,-855.07 192.5,-844 298.42,-844 376.63,-855.07"/>
<polygon fill="none" stroke="#3dd7ea" points="380.62,-851.6 380.62,-880.4 298.7,-892 192.22,-892 110.29,-880.4 110.29,-851.6 192.22,-840 298.7,-840 380.62,-851.6"/>
<text text-anchor="middle" x="245.46" y="-862.3" font-family="Times-Roman" font-size="14.00" fill="#000000">evince&#45;3.36.1 (225.45 MiB)</text>
</g>
<!-- N46&#45;&gt;N36 -->
<g id="edge14" class="edge">
<title>N46&#45;&gt;N36</title>
<path fill="none" stroke="black" d="M380.62,-864.24C410.12,-858.67 439.71,-848.56 463.8,-831 550.53,-767.79 588.12,-636.35 600.87,-578.89"/>
<polygon fill="black" stroke="black" points="604.31,-579.57 602.97,-569.06 597.46,-578.11 604.31,-579.57"/>
</g>
<!-- N34 -->
<g id="node53" class="node">
<title>N34</title>
<polygon fill="#3fa2e5" stroke="#3fa2e5" points="692.3,-954 522.3,-954 522.3,-918 692.3,-918 692.3,-954"/>
<text text-anchor="middle" x="607.3" y="-932.3" font-family="Times-Roman" font-size="14.00" fill="#ffffff">opencv&#45;4.3.0 (98.60 MiB)</text>
</g>
<!-- N46&#45;&gt;N34 -->
<g id="edge13" class="edge">
<title>N46&#45;&gt;N34</title>
<path fill="none" stroke="black" d="M362.95,-882.97C395.67,-888.22 431.21,-894.39 463.8,-901 484.71,-905.24 507.18,-910.46 527.97,-915.55"/>
<polygon fill="black" stroke="black" points="527.15,-918.95 537.7,-917.96 528.83,-912.16 527.15,-918.95"/>
</g>
<!-- N47 -->
<g id="node17" class="node">
<title>N47</title>
<polygon fill="#3fa0e5" stroke="#3fa0e5" points="392.52,-648.54 392.52,-663.46 306.37,-674 184.54,-674 98.4,-663.46 98.4,-648.54 184.54,-638 306.37,-638 392.52,-648.54"/>
<polygon fill="none" stroke="#3fa0e5" points="396.52,-645 396.52,-667 306.61,-678 184.3,-678 94.4,-667 94.4,-645 184.3,-634 306.61,-634 396.52,-645"/>
<polygon fill="none" stroke="#3fa0e5" points="400.52,-641.46 400.52,-670.54 306.86,-682 184.06,-682 90.4,-670.54 90.4,-641.46 184.06,-630 306.86,-630 400.52,-641.46"/>
<text text-anchor="middle" x="245.46" y="-652.3" font-family="Times-Roman" font-size="14.00" fill="#ffffff">stepmania&#45;5.1.0&#45;b2 (93.37 MiB)</text>
</g>
<!-- N47&#45;&gt;N36 -->
<g id="edge15" class="edge">
<title>N47&#45;&gt;N36</title>
<path fill="none" stroke="black" d="M386.74,-639.69C412.69,-634.91 439.31,-628.8 463.8,-621 500.38,-609.36 539.33,-589.67 567.25,-574.13"/>
<polygon fill="black" stroke="black" points="569.28,-577 576.27,-569.04 565.84,-570.91 569.28,-577"/>
</g>
<!-- N23 -->
<g id="node18" class="node">
<title>N23</title>
<polygon fill="#36f693" stroke="#36f693" points="358.07,-2468.54 358.07,-2483.46 292.1,-2494 198.81,-2494 132.84,-2483.46 132.84,-2468.54 198.81,-2458 292.1,-2458 358.07,-2468.54"/>
<polygon fill="none" stroke="#36f693" points="362.07,-2465.13 362.07,-2486.87 292.42,-2498 198.49,-2498 128.84,-2486.87 128.84,-2465.13 198.49,-2454 292.42,-2454 362.07,-2465.13"/>
<polygon fill="none" stroke="#36f693" points="366.07,-2461.72 366.07,-2490.28 292.74,-2502 198.17,-2502 124.84,-2490.28 124.84,-2461.72 198.17,-2450 292.74,-2450 366.07,-2461.72"/>
<text text-anchor="middle" x="245.46" y="-2472.3" font-family="Times-Roman" font-size="14.00" fill="#000000">cura&#45;4.4.0 (517.29 MiB)</text>
</g>
<!-- N32 -->
<g id="node54" class="node">
<title>N32</title>
<polygon fill="#3fb4e6" stroke="#3fb4e6" points="696.3,-2424 518.3,-2424 518.3,-2388 696.3,-2388 696.3,-2424"/>
<text text-anchor="middle" x="607.3" y="-2402.3" font-family="Times-Roman" font-size="14.00" fill="#ffffff">bash&#45;4.4&#45;p23 (136.81 MiB)</text>
</g>
<!-- N23&#45;&gt;N32 -->
<g id="edge16" class="edge">
<title>N23&#45;&gt;N32</title>
<path fill="none" stroke="black" d="M356.22,-2460.1C390.76,-2454.62 428.97,-2448.07 463.8,-2441 484.71,-2436.76 507.18,-2431.54 527.97,-2426.45"/>
<polygon fill="black" stroke="black" points="528.83,-2429.84 537.7,-2424.04 527.15,-2423.05 528.83,-2429.84"/>
</g>
<!-- N22 -->
<g id="node19" class="node">
<title>N22</title>
<polygon fill="#3af0d8" stroke="#3af0d8" points="355.43,-578.54 355.43,-593.46 291.01,-604 199.9,-604 135.48,-593.46 135.48,-578.54 199.9,-568 291.01,-568 355.43,-578.54"/>
<polygon fill="none" stroke="#3af0d8" points="359.44,-575.15 359.44,-596.85 291.34,-608 199.58,-608 131.48,-596.85 131.48,-575.15 199.58,-564 291.34,-564 359.44,-575.15"/>
<polygon fill="none" stroke="#3af0d8" points="363.45,-571.75 363.45,-600.25 291.66,-612 199.25,-612 127.47,-600.25 127.47,-571.75 199.25,-560 291.66,-560 363.45,-571.75"/>
<text text-anchor="middle" x="245.46" y="-582.3" font-family="Times-Roman" font-size="14.00" fill="#000000">go&#45;1.14.2 (357.45 MiB)</text>
</g>
<!-- N22&#45;&gt;N36 -->
<g id="edge17" class="edge">
<title>N22&#45;&gt;N36</title>
<path fill="none" stroke="black" d="M363.29,-574.64C414.14,-569.69 472.7,-563.99 519.59,-559.43"/>
<polygon fill="black" stroke="black" points="520.1,-562.9 529.72,-558.45 519.42,-555.93 520.1,-562.9"/>
</g>
<!-- N21 -->
<g id="node20" class="node">
<title>N21</title>
<polygon fill="#3ce6ec" stroke="#3ce6ec" points="374.42,-88.54 374.42,-103.46 298.88,-114 192.04,-114 116.49,-103.46 116.49,-88.54 192.04,-78 298.88,-78 374.42,-88.54"/>
<polygon fill="none" stroke="#3ce6ec" points="378.43,-85.06 378.43,-106.94 299.15,-118 191.76,-118 112.49,-106.94 112.49,-85.06 191.76,-74 299.15,-74 378.43,-85.06"/>
<polygon fill="none" stroke="#3ce6ec" points="382.44,-81.58 382.44,-110.42 299.43,-122 191.48,-122 108.48,-110.42 108.48,-81.58 191.48,-70 299.43,-70 382.44,-81.58"/>
<text text-anchor="middle" x="245.46" y="-92.3" font-family="Times-Roman" font-size="14.00" fill="#000000">blender&#45;2.82a (264.92 MiB)</text>
</g>
<!-- N21&#45;&gt;N39 -->
<g id="edge18" class="edge">
<title>N21&#45;&gt;N39</title>
<path fill="none" stroke="black" d="M363.52,-113.06C396.08,-118.3 431.4,-124.42 463.8,-131 484.71,-135.24 507.18,-140.46 527.97,-145.55"/>
<polygon fill="black" stroke="black" points="527.15,-148.95 537.7,-147.96 528.83,-142.16 527.15,-148.95"/>
</g>
<!-- N20 -->
<g id="node21" class="node">
<title>N20</title>
<polygon fill="#3ecce9" stroke="#3ecce9" points="410.19,-2538.54 410.19,-2553.46 313.69,-2564 177.22,-2564 80.73,-2553.46 80.73,-2538.54 177.22,-2528 313.69,-2528 410.19,-2538.54"/>
<polygon fill="none" stroke="#3ecce9" points="414.19,-2534.96 414.19,-2557.04 313.91,-2568 177.01,-2568 76.73,-2557.04 76.73,-2534.96 177.01,-2524 313.91,-2524 414.19,-2534.96"/>
<polygon fill="none" stroke="#3ecce9" points="418.19,-2531.37 418.19,-2560.63 314.13,-2572 176.79,-2572 72.72,-2560.63 72.72,-2531.37 176.79,-2520 314.13,-2520 418.19,-2531.37"/>
<text text-anchor="middle" x="245.46" y="-2542.3" font-family="Times-Roman" font-size="14.00" fill="#000000">thunderbird&#45;bin&#45;68.8.1 (195.38 MiB)</text>
</g>
<!-- N19 -->
<g id="node22" class="node">
<title>N19</title>
<polygon fill="#3ec1e8" stroke="#3ec1e8" points="388.98,-508.54 388.98,-523.46 304.91,-534 186.01,-534 101.93,-523.46 101.93,-508.54 186.01,-498 304.91,-498 388.98,-508.54"/>
<polygon fill="none" stroke="#3ec1e8" points="392.98,-505.01 392.98,-526.99 305.16,-538 185.76,-538 97.93,-526.99 97.93,-505.01 185.76,-494 305.16,-494 392.98,-505.01"/>
<polygon fill="none" stroke="#3ec1e8" points="396.98,-501.48 396.98,-530.52 305.41,-542 185.51,-542 93.93,-530.52 93.93,-501.48 185.51,-490 305.41,-490 396.98,-501.48"/>
<text text-anchor="middle" x="245.46" y="-512.3" font-family="Times-Roman" font-size="14.00" fill="#000000">upwork&#45;5.3.3.862 (168.58 MiB)</text>
</g>
<!-- N19&#45;&gt;N36 -->
<g id="edge19" class="edge">
<title>N19&#45;&gt;N36</title>
<path fill="none" stroke="black" d="M396.46,-530.59C438.41,-534.67 482.6,-538.97 519.54,-542.56"/>
<polygon fill="black" stroke="black" points="519.47,-546.07 529.77,-543.56 520.15,-539.1 519.47,-546.07"/>
</g>
<!-- N18 -->
<g id="node23" class="node">
<title>N18</title>
<polygon fill="#3ce5ec" stroke="#3ce5ec" points="425.64,-2608.54 425.64,-2623.46 320.09,-2634 170.82,-2634 65.27,-2623.46 65.27,-2608.54 170.82,-2598 320.09,-2598 425.64,-2608.54"/>
<polygon fill="none" stroke="#3ce5ec" points="429.64,-2604.92 429.64,-2627.08 320.29,-2638 170.62,-2638 61.27,-2627.08 61.27,-2604.92 170.62,-2594 320.29,-2594 429.64,-2604.92"/>
<polygon fill="none" stroke="#3ce5ec" points="433.65,-2601.3 433.65,-2630.7 320.49,-2642 170.42,-2642 57.27,-2630.7 57.27,-2601.3 170.42,-2590 320.49,-2590 433.65,-2601.3"/>
<text text-anchor="middle" x="245.46" y="-2612.3" font-family="Times-Roman" font-size="14.00" fill="#000000">qemu&#45;host&#45;cpu&#45;only&#45;4.2.0 (263.24 MiB)</text>
</g>
<!-- N17 -->
<g id="node24" class="node">
<title>N17</title>
<polygon fill="#3ecfe9" stroke="#3ecfe9" points="367.35,-2678.54 367.35,-2693.46 295.95,-2704 194.97,-2704 123.56,-2693.46 123.56,-2678.54 194.97,-2668 295.95,-2668 367.35,-2678.54"/>
<polygon fill="none" stroke="#3ecfe9" points="371.36,-2675.09 371.36,-2696.91 296.24,-2708 194.67,-2708 119.55,-2696.91 119.55,-2675.09 194.67,-2664 296.24,-2664 371.36,-2675.09"/>
<polygon fill="none" stroke="#3ecfe9" points="375.37,-2671.64 375.37,-2700.36 296.54,-2712 194.38,-2712 115.55,-2700.36 115.55,-2671.64 194.38,-2660 296.54,-2660 375.37,-2671.64"/>
<text text-anchor="middle" x="245.46" y="-2682.3" font-family="Times-Roman" font-size="14.00" fill="#000000">astroid&#45;0.15 (202.66 MiB)</text>
</g>
<!-- N16 -->
<g id="node25" class="node">
<title>N16</title>
<polygon fill="#3ecde9" stroke="#3ecde9" points="436.66,-1558.54 436.66,-1573.46 324.66,-1584 166.26,-1584 54.25,-1573.46 54.25,-1558.54 166.26,-1548 324.66,-1548 436.66,-1558.54"/>
<polygon fill="none" stroke="#3ecde9" points="440.66,-1554.9 440.66,-1577.1 324.84,-1588 166.07,-1588 50.25,-1577.1 50.25,-1554.9 166.07,-1544 324.84,-1544 440.66,-1554.9"/>
<polygon fill="none" stroke="#3ecde9" points="444.66,-1551.26 444.66,-1580.74 325.03,-1592 165.88,-1592 46.26,-1580.74 46.26,-1551.26 165.88,-1540 325.03,-1540 444.66,-1551.26"/>
<text text-anchor="middle" x="245.46" y="-1562.3" font-family="Times-Roman" font-size="14.00" fill="#000000">tor&#45;browser&#45;bundle&#45;bin&#45;9.0.9 (199.27 MiB)</text>
</g>
<!-- N16&#45;&gt;N27 -->
<g id="edge20" class="edge">
<title>N16&#45;&gt;N27</title>
<path fill="none" stroke="black" d="M245.46,-1539.68C245.46,-1537.23 245.46,-1534.78 245.46,-1532.33"/>
<polygon fill="black" stroke="black" points="248.96,-1532.25 245.46,-1522.25 241.96,-1532.25 248.96,-1532.25"/>
</g>
<!-- N48 -->
<g id="node26" class="node">
<title>N48</title>
<polygon fill="#4074e1" stroke="#4074e1" points="373.53,-1068.54 373.53,-1083.46 298.5,-1094 192.41,-1094 117.39,-1083.46 117.39,-1068.54 192.41,-1058 298.5,-1058 373.53,-1068.54"/>
<polygon fill="none" stroke="#4074e1" points="377.53,-1065.07 377.53,-1086.93 298.78,-1098 192.13,-1098 113.39,-1086.93 113.39,-1065.07 192.13,-1054 298.78,-1054 377.53,-1065.07"/>
<polygon fill="none" stroke="#4074e1" points="381.53,-1061.59 381.53,-1090.41 299.06,-1102 191.85,-1102 109.39,-1090.41 109.39,-1061.59 191.85,-1050 299.06,-1050 381.53,-1061.59"/>
<text text-anchor="middle" x="245.46" y="-1072.3" font-family="Times-Roman" font-size="14.00" fill="#ffffff">tigervnc&#45;1.10.1 (15.56 MiB)</text>
</g>
<!-- N48&#45;&gt;N35 -->
<g id="edge21" class="edge">
<title>N48&#45;&gt;N35</title>
<path fill="none" stroke="black" d="M378.67,-1090.86C407.12,-1095.84 436.76,-1102.39 463.8,-1111 500.38,-1122.64 539.33,-1142.33 567.25,-1157.87"/>
<polygon fill="black" stroke="black" points="565.84,-1161.09 576.27,-1162.96 569.28,-1155 565.84,-1161.09"/>
</g>
<!-- N49 -->
<g id="node27" class="node">
<title>N49</title>
<polygon fill="#4169e1" stroke="#4169e1" points="377.48,-2048.54 377.48,-2063.46 300.14,-2074 190.77,-2074 113.43,-2063.46 113.43,-2048.54 190.77,-2038 300.14,-2038 377.48,-2048.54"/>
<polygon fill="none" stroke="#4169e1" points="381.48,-2045.05 381.48,-2066.95 300.41,-2078 190.5,-2078 109.44,-2066.95 109.44,-2045.05 190.5,-2034 300.41,-2034 381.48,-2045.05"/>
<polygon fill="none" stroke="#4169e1" points="385.47,-2041.56 385.47,-2070.44 300.69,-2082 190.23,-2082 105.44,-2070.44 105.44,-2041.56 190.23,-2030 300.69,-2030 385.47,-2041.56"/>
<text text-anchor="middle" x="245.46" y="-2052.3" font-family="Times-Roman" font-size="14.00" fill="#ffffff">libreoffice&#45;6.4.3.2 (3.55 KiB)</text>
</g>
<!-- N3 -->
<g id="node43" class="node">
<title>N3</title>
<polygon fill="#36f691" stroke="#36f691" points="390.3,-1978.54 390.3,-1993.46 305.45,-2004 185.46,-2004 100.61,-1993.46 100.61,-1978.54 185.46,-1968 305.45,-1968 390.3,-1978.54"/>
<polygon fill="none" stroke="#36f691" points="394.3,-1975.01 394.3,-1996.99 305.7,-2008 185.21,-2008 96.62,-1996.99 96.62,-1975.01 185.21,-1964 305.7,-1964 394.3,-1975.01"/>
<polygon fill="none" stroke="#36f691" points="398.3,-1971.48 398.3,-2000.52 305.95,-2012 184.97,-2012 92.62,-2000.52 92.62,-1971.48 184.97,-1960 305.95,-1960 398.3,-1971.48"/>
<text text-anchor="middle" x="245.46" y="-1982.3" font-family="Times-Roman" font-size="14.00" fill="#000000">libreoffice&#45;6.4.3.2 (520.29 MiB)</text>
</g>
<!-- N49&#45;&gt;N3 -->
<g id="edge22" class="edge">
<title>N49&#45;&gt;N3</title>
<path fill="none" stroke="black" d="M245.46,-2029.68C245.46,-2027.23 245.46,-2024.78 245.46,-2022.33"/>
<polygon fill="black" stroke="black" points="248.96,-2022.25 245.46,-2012.25 241.96,-2022.25 248.96,-2022.25"/>
</g>
<!-- N15 -->
<g id="node28" class="node">
<title>N15</title>
<polygon fill="#3ddfeb" stroke="#3ddfeb" points="438.88,-2748.54 438.88,-2763.46 325.58,-2774 165.34,-2774 52.03,-2763.46 52.03,-2748.54 165.34,-2738 325.58,-2738 438.88,-2748.54"/>
<polygon fill="none" stroke="#3ddfeb" points="442.88,-2744.9 442.88,-2767.1 325.76,-2778 165.15,-2778 48.04,-2767.1 48.04,-2744.9 165.15,-2734 325.76,-2734 442.88,-2744.9"/>
<polygon fill="none" stroke="#3ddfeb" points="446.88,-2741.25 446.88,-2770.75 325.95,-2782 164.97,-2782 44.04,-2770.75 44.04,-2741.25 164.97,-2730 325.95,-2730 446.88,-2741.25"/>
<text text-anchor="middle" x="245.46" y="-2752.3" font-family="Times-Roman" font-size="14.00" fill="#000000">google&#45;chrome&#45;83.0.4103.61 (244.91 MiB)</text>
</g>
<!-- N50 -->
<g id="node29" class="node">
<title>N50</title>
<polygon fill="#408ae3" stroke="#408ae3" points="365.56,-438.54 365.56,-453.46 295.21,-464 195.71,-464 125.35,-453.46 125.35,-438.54 195.71,-428 295.21,-428 365.56,-438.54"/>
<polygon fill="none" stroke="#408ae3" points="369.56,-435.1 369.56,-456.9 295.5,-468 195.41,-468 121.36,-456.9 121.36,-435.1 195.41,-424 295.5,-424 369.56,-435.1"/>
<polygon fill="none" stroke="#408ae3" points="373.55,-431.65 373.55,-460.35 295.8,-472 195.11,-472 117.36,-460.35 117.36,-431.65 195.11,-420 295.8,-420 373.55,-431.65"/>
<text text-anchor="middle" x="245.46" y="-442.3" font-family="Times-Roman" font-size="14.00" fill="#ffffff">neovim&#45;0.4.3 (51.42 MiB)</text>
</g>
<!-- N50&#45;&gt;N36 -->
<g id="edge23" class="edge">
<title>N50&#45;&gt;N36</title>
<path fill="none" stroke="black" d="M373.79,-460.02C403.72,-465.09 435.21,-471.9 463.8,-481 500.38,-492.64 539.33,-512.33 567.25,-527.87"/>
<polygon fill="black" stroke="black" points="565.84,-531.09 576.27,-532.96 569.28,-525 565.84,-531.09"/>
</g>
<!-- N14 -->
<g id="node30" class="node">
<title>N14</title>
<polygon fill="#3ebae7" stroke="#3ebae7" points="374.42,-2398.54 374.42,-2413.46 298.88,-2424 192.04,-2424 116.49,-2413.46 116.49,-2398.54 192.04,-2388 298.88,-2388 374.42,-2398.54"/>
<polygon fill="none" stroke="#3ebae7" points="378.43,-2395.06 378.43,-2416.94 299.15,-2428 191.76,-2428 112.49,-2416.94 112.49,-2395.06 191.76,-2384 299.15,-2384 378.43,-2395.06"/>
<polygon fill="none" stroke="#3ebae7" points="382.44,-2391.58 382.44,-2420.42 299.43,-2432 191.48,-2432 108.48,-2420.42 108.48,-2391.58 191.48,-2380 299.43,-2380 382.44,-2391.58"/>
<text text-anchor="middle" x="245.46" y="-2402.3" font-family="Times-Roman" font-size="14.00" fill="#000000">fritzing&#45;0.9.3b (151.31 MiB)</text>
</g>
<!-- N14&#45;&gt;N32 -->
<g id="edge24" class="edge">
<title>N14&#45;&gt;N32</title>
<path fill="none" stroke="black" d="M382.24,-2406C424.01,-2406 469.16,-2406 507.91,-2406"/>
<polygon fill="black" stroke="black" points="508.14,-2409.5 518.14,-2406 508.14,-2402.5 508.14,-2409.5"/>
</g>
<!-- N13 -->
<g id="node31" class="node">
<title>N13</title>
<polygon fill="#fefb17" stroke="#fefb17" points="330.69,-1628.54 330.69,-1643.46 280.76,-1654 210.15,-1654 160.22,-1643.46 160.22,-1628.54 210.15,-1618 280.76,-1618 330.69,-1628.54"/>
<polygon fill="none" stroke="#fefb17" points="334.7,-1625.3 334.7,-1646.7 281.18,-1658 209.73,-1658 156.22,-1646.7 156.22,-1625.3 209.73,-1614 281.18,-1614 334.7,-1625.3"/>
<polygon fill="none" stroke="#fefb17" points="338.7,-1622.06 338.7,-1649.94 281.6,-1662 209.31,-1662 152.21,-1649.94 152.21,-1622.06 209.31,-1610 281.6,-1610 338.7,-1622.06"/>
<text text-anchor="middle" x="245.46" y="-1632.3" font-family="Times-Roman" font-size="14.00" fill="#000000">steam (1.22 GiB)</text>
</g>
<!-- N13&#45;&gt;N27 -->
<g id="edge25" class="edge">
<title>N13&#45;&gt;N27</title>
<path fill="none" stroke="black" d="M152.1,-1627.38C112.86,-1622.14 67.13,-1613.88 27.11,-1601 18.6,-1598.26 13.81,-1599.61 9.11,-1592 -3.04,-1572.34 -3.04,-1559.66 9.11,-1540 25.13,-1514.08 51.23,-1499.37 80.36,-1491.58"/>
<polygon fill="black" stroke="black" points="81.43,-1494.92 90.34,-1489.19 79.81,-1488.11 81.43,-1494.92"/>
</g>
<!-- N13&#45;&gt;N38 -->
<g id="edge27" class="edge">
<title>N13&#45;&gt;N38</title>
<path fill="none" stroke="black" d="M338.66,-1644.97C387.76,-1649.74 448.39,-1655.64 499.53,-1660.61"/>
<polygon fill="black" stroke="black" points="499.33,-1664.11 509.62,-1661.6 500.01,-1657.14 499.33,-1664.11"/>
</g>
<!-- N13&#45;&gt;N37 -->
<g id="edge26" class="edge">
<title>N13&#45;&gt;N37</title>
<path fill="none" stroke="black" d="M338.71,-1630.13C378.29,-1625.35 424.38,-1616.68 463.8,-1601 507.15,-1583.75 550.54,-1551.55 577.85,-1528.99"/>
<polygon fill="black" stroke="black" points="580.38,-1531.44 585.79,-1522.33 575.88,-1526.08 580.38,-1531.44"/>
</g>
<!-- N51 -->
<g id="node32" class="node">
<title>N51</title>
<polygon fill="#4069e1" stroke="#4069e1" points="369.99,-1208.54 369.99,-1223.46 297.04,-1234 193.87,-1234 120.92,-1223.46 120.92,-1208.54 193.87,-1198 297.04,-1198 369.99,-1208.54"/>
<polygon fill="none" stroke="#4069e1" points="373.99,-1205.08 373.99,-1226.92 297.33,-1238 193.59,-1238 116.92,-1226.92 116.92,-1205.08 193.59,-1194 297.33,-1194 373.99,-1205.08"/>
<polygon fill="none" stroke="#4069e1" points="377.99,-1201.62 377.99,-1230.38 297.62,-1242 193.3,-1242 112.92,-1230.38 112.92,-1201.62 193.3,-1190 297.62,-1190 377.99,-1201.62"/>
<text text-anchor="middle" x="245.46" y="-1212.3" font-family="Times-Roman" font-size="14.00" fill="#ffffff">arandr&#45;0.1.10 (203.91 KiB)</text>
</g>
<!-- N51&#45;&gt;N35 -->
<g id="edge28" class="edge">
<title>N51&#45;&gt;N35</title>
<path fill="none" stroke="black" d="M378.15,-1203.19C418.77,-1199.24 462.93,-1194.94 501.48,-1191.19"/>
<polygon fill="black" stroke="black" points="502.07,-1194.66 511.68,-1190.2 501.39,-1187.69 502.07,-1194.66"/>
</g>
<!-- N12 -->
<g id="node33" class="node">
<title>N12</title>
<polygon fill="#3fb5e7" stroke="#3fb5e7" points="371.31,-718.54 371.31,-733.46 297.59,-744 193.33,-744 119.6,-733.46 119.6,-718.54 193.33,-708 297.59,-708 371.31,-718.54"/>
<polygon fill="none" stroke="#3fb5e7" points="375.31,-715.08 375.31,-736.92 297.87,-748 193.04,-748 115.6,-736.92 115.6,-715.08 193.04,-704 297.87,-704 375.31,-715.08"/>
<polygon fill="none" stroke="#3fb5e7" points="379.31,-711.61 379.31,-740.39 298.16,-752 192.76,-752 111.61,-740.39 111.61,-711.61 192.76,-700 298.16,-700 379.31,-711.61"/>
<text text-anchor="middle" x="245.46" y="-722.3" font-family="Times-Roman" font-size="14.00" fill="#ffffff">gimp&#45;2.10.18 (140.30 MiB)</text>
</g>
<!-- N12&#45;&gt;N35 -->
<g id="edge29" class="edge">
<title>N12&#45;&gt;N35</title>
<path fill="none" stroke="black" d="M379.37,-721.92C410.57,-727.33 441.25,-738.82 463.8,-761 528.82,-824.94 471.51,-876.31 499.8,-963 523.38,-1035.26 566.63,-1113.96 590.11,-1154.12"/>
<polygon fill="black" stroke="black" points="587.12,-1155.95 595.22,-1162.79 593.15,-1152.39 587.12,-1155.95"/>
</g>
<!-- N12&#45;&gt;N39 -->
<g id="edge30" class="edge">
<title>N12&#45;&gt;N39</title>
<path fill="none" stroke="black" d="M379.39,-729.42C410.41,-723.98 441,-712.64 463.8,-691 518.88,-638.74 480.96,-597.55 499.8,-524 531.6,-399.85 577.77,-254.02 597.18,-193.98"/>
<polygon fill="black" stroke="black" points="600.62,-194.71 600.37,-184.12 593.96,-192.55 600.62,-194.71"/>
</g>
<!-- N11 -->
<g id="node34" class="node">
<title>N11</title>
<polygon fill="#3beee6" stroke="#3beee6" points="352.32,-2818.54 352.32,-2833.46 289.72,-2844 201.19,-2844 138.59,-2833.46 138.59,-2818.54 201.19,-2808 289.72,-2808 352.32,-2818.54"/>
<polygon fill="none" stroke="#3beee6" points="356.32,-2815.16 356.32,-2836.84 290.06,-2848 200.86,-2848 134.59,-2836.84 134.59,-2815.16 200.86,-2804 290.06,-2804 356.32,-2815.16"/>
<polygon fill="none" stroke="#3beee6" points="360.32,-2811.78 360.32,-2840.22 290.39,-2852 200.52,-2852 130.6,-2840.22 130.6,-2811.78 200.52,-2800 290.39,-2800 360.32,-2811.78"/>
<text text-anchor="middle" x="245.46" y="-2822.3" font-family="Times-Roman" font-size="14.00" fill="#000000">ino&#45;0.3.6 (310.71 MiB)</text>
</g>
<!-- N10 -->
<g id="node35" class="node">
<title>N10</title>
<polygon fill="#dcfe25" stroke="#dcfe25" points="362.92,-368.54 362.92,-383.46 294.11,-394 196.8,-394 127.99,-383.46 127.99,-368.54 196.8,-358 294.11,-358 362.92,-368.54"/>
<polygon fill="none" stroke="#dcfe25" points="366.92,-365.11 366.92,-386.89 294.42,-398 196.5,-398 123.99,-386.89 123.99,-365.11 196.5,-354 294.42,-354 366.92,-365.11"/>
<polygon fill="none" stroke="#dcfe25" points="370.92,-361.68 370.92,-390.32 294.72,-402 196.19,-402 119.99,-390.32 119.99,-361.68 196.19,-350 294.72,-350 370.92,-361.68"/>
<text text-anchor="middle" x="245.46" y="-372.3" font-family="Times-Roman" font-size="14.00" fill="#000000">unar&#45;1.10.7 (991.39 MiB)</text>
</g>
<!-- N10&#45;&gt;N36 -->
<g id="edge31" class="edge">
<title>N10&#45;&gt;N36</title>
<path fill="none" stroke="black" d="M371.01,-382.69C402.49,-387.92 435.41,-396.64 463.8,-411 517.22,-438.01 563.37,-492.22 587.78,-524.69"/>
<polygon fill="black" stroke="black" points="585.04,-526.87 593.8,-532.84 590.67,-522.72 585.04,-526.87"/>
</g>
<!-- N8 -->
<g id="node37" class="node">
<title>N8</title>
<polygon fill="#3dd6ea" stroke="#3dd6ea" points="443.73,-2888.54 443.73,-2903.46 327.58,-2914 163.33,-2914 47.18,-2903.46 47.18,-2888.54 163.33,-2878 327.58,-2878 443.73,-2888.54"/>
<polygon fill="none" stroke="#3dd6ea" points="447.73,-2884.89 447.73,-2907.11 327.77,-2918 163.15,-2918 43.18,-2907.11 43.18,-2884.89 163.15,-2874 327.77,-2874 447.73,-2884.89"/>
<polygon fill="none" stroke="#3dd6ea" points="451.73,-2881.24 451.73,-2910.76 327.95,-2922 162.97,-2922 39.19,-2910.76 39.19,-2881.24 162.97,-2870 327.95,-2870 451.73,-2881.24"/>
<text text-anchor="middle" x="245.46" y="-2892.3" font-family="Times-Roman" font-size="14.00" fill="#000000">papirus&#45;icon&#45;theme&#45;20200430 (221.53 MiB)</text>
</g>
<!-- N7 -->
<g id="node38" class="node">
<title>N7</title>
<polygon fill="#fe0000" stroke="#fe0000" points="427.86,-298.54 427.86,-313.46 321.01,-324 169.9,-324 63.06,-313.46 63.06,-298.54 169.9,-288 321.01,-288 427.86,-298.54"/>
<polygon fill="none" stroke="#fe0000" points="431.86,-294.92 431.86,-317.08 321.21,-328 169.71,-328 59.05,-317.08 59.05,-294.92 169.71,-284 321.21,-284 431.86,-294.92"/>
<polygon fill="none" stroke="#fe0000" points="435.87,-291.3 435.87,-320.7 321.4,-332 169.51,-332 55.05,-320.7 55.05,-291.3 169.51,-280 321.4,-280 435.87,-291.3"/>
<text text-anchor="middle" x="245.46" y="-302.3" font-family="Times-Roman" font-size="14.00" fill="#000000">xmonad&#45;with&#45;packages&#45;8.8.3 (2.17 GiB)</text>
</g>
<!-- N7&#45;&gt;N36 -->
<g id="edge32" class="edge">
<title>N7&#45;&gt;N36</title>
<path fill="none" stroke="black" d="M424.21,-321.94C438.15,-326.94 451.55,-333.2 463.8,-341 533.56,-385.43 577.64,-477.62 596.19,-523.64"/>
<polygon fill="black" stroke="black" points="592.94,-524.96 599.86,-532.98 599.46,-522.4 592.94,-524.96"/>
</g>
<!-- N6 -->
<g id="node39" class="node">
<title>N6</title>
<polygon fill="#cbfe29" stroke="#cbfe29" points="388.09,-2958.54 388.09,-2973.46 304.54,-2984 186.38,-2984 102.83,-2973.46 102.83,-2958.54 186.38,-2948 304.54,-2948 388.09,-2958.54"/>
<polygon fill="none" stroke="#cbfe29" points="392.08,-2955.02 392.08,-2976.98 304.79,-2988 186.13,-2988 98.83,-2976.98 98.83,-2955.02 186.13,-2944 304.79,-2944 392.08,-2955.02"/>
<polygon fill="none" stroke="#cbfe29" points="396.08,-2951.49 396.08,-2980.51 305.04,-2992 185.88,-2992 94.84,-2980.51 94.84,-2951.49 185.88,-2940 305.04,-2940 396.08,-2951.49"/>
<text text-anchor="middle" x="245.46" y="-2962.3" font-family="Times-Roman" font-size="14.00" fill="#000000">xonotic&#45;sdl&#45;0.8.2 (895.35 MiB)</text>
</g>
<!-- N52 -->
<g id="node40" class="node">
<title>N52</title>
<polygon fill="#4070e1" stroke="#4070e1" points="374.42,-998.54 374.42,-1013.46 298.88,-1024 192.04,-1024 116.49,-1013.46 116.49,-998.54 192.04,-988 298.88,-988 374.42,-998.54"/>
<polygon fill="none" stroke="#4070e1" points="378.43,-995.06 378.43,-1016.94 299.15,-1028 191.76,-1028 112.49,-1016.94 112.49,-995.06 191.76,-984 299.15,-984 378.43,-995.06"/>
<polygon fill="none" stroke="#4070e1" points="382.44,-991.58 382.44,-1020.42 299.43,-1032 191.48,-1032 108.48,-1020.42 108.48,-991.58 191.48,-980 299.43,-980 382.44,-991.58"/>
<text text-anchor="middle" x="245.46" y="-1002.3" font-family="Times-Roman" font-size="14.00" fill="#ffffff">nomacs&#45;3.14.2 (10.14 MiB)</text>
</g>
<!-- N52&#45;&gt;N34 -->
<g id="edge33" class="edge">
<title>N52&#45;&gt;N34</title>
<path fill="none" stroke="black" d="M363.52,-988.94C396.08,-983.7 431.4,-977.58 463.8,-971 484.71,-966.76 507.18,-961.54 527.97,-956.45"/>
<polygon fill="black" stroke="black" points="528.83,-959.84 537.7,-954.04 527.15,-953.05 528.83,-959.84"/>
</g>
<!-- N5 -->
<g id="node41" class="node">
<title>N5</title>
<polygon fill="#3ebae7" stroke="#3ebae7" points="365.56,-3028.54 365.56,-3043.46 295.21,-3054 195.71,-3054 125.35,-3043.46 125.35,-3028.54 195.71,-3018 295.21,-3018 365.56,-3028.54"/>
<polygon fill="none" stroke="#3ebae7" points="369.56,-3025.1 369.56,-3046.9 295.5,-3058 195.41,-3058 121.36,-3046.9 121.36,-3025.1 195.41,-3014 295.5,-3014 369.56,-3025.1"/>
<polygon fill="none" stroke="#3ebae7" points="373.55,-3021.65 373.55,-3050.35 295.8,-3062 195.11,-3062 117.36,-3050.35 117.36,-3021.65 195.11,-3010 295.8,-3010 373.55,-3021.65"/>
<text text-anchor="middle" x="245.46" y="-3032.3" font-family="Times-Roman" font-size="14.00" fill="#000000">emacs&#45;26.3 (151.74 MiB)</text>
</g>
<!-- N4 -->
<g id="node42" class="node">
<title>N4</title>
<polygon fill="#3ebfe8" stroke="#3ebfe8" points="374.85,-3098.54 374.85,-3113.46 299.05,-3124 191.86,-3124 116.07,-3113.46 116.07,-3098.54 191.86,-3088 299.05,-3088 374.85,-3098.54"/>
<polygon fill="none" stroke="#3ebfe8" points="378.84,-3095.06 378.84,-3116.94 299.33,-3128 191.59,-3128 112.07,-3116.94 112.07,-3095.06 191.59,-3084 299.33,-3084 378.84,-3095.06"/>
<polygon fill="none" stroke="#3ebfe8" points="382.84,-3091.58 382.84,-3120.42 299.6,-3132 191.31,-3132 108.07,-3120.42 108.07,-3091.58 191.31,-3080 299.6,-3080 382.84,-3091.58"/>
<text text-anchor="middle" x="245.46" y="-3102.3" font-family="Times-Roman" font-size="14.00" fill="#000000">gzdoom&#45;4.3.3 (163.52 MiB)</text>
</g>
<!-- N3&#45;&gt;N33 -->
<g id="edge34" class="edge">
<title>N3&#45;&gt;N33</title>
<path fill="none" stroke="black" d="M369.76,-2004.07C400.56,-2009.08 433.46,-2014.84 463.8,-2021 484.71,-2025.24 507.18,-2030.46 527.97,-2035.55"/>
<polygon fill="black" stroke="black" points="527.15,-2038.95 537.7,-2037.96 528.83,-2032.16 527.15,-2038.95"/>
</g>
<!-- N2 -->
<g id="node44" class="node">
<title>N2</title>
<polygon fill="#3ce8ec" stroke="#3ce8ec" points="365.14,-3168.54 365.14,-3183.46 295.03,-3194 195.88,-3194 125.78,-3183.46 125.78,-3168.54 195.88,-3158 295.03,-3158 365.14,-3168.54"/>
<polygon fill="none" stroke="#3ce8ec" points="369.14,-3165.1 369.14,-3186.9 295.33,-3198 195.58,-3198 121.77,-3186.9 121.77,-3165.1 195.58,-3154 295.33,-3154 369.14,-3165.1"/>
<polygon fill="none" stroke="#3ce8ec" points="373.14,-3161.66 373.14,-3190.34 295.63,-3202 195.28,-3202 117.77,-3190.34 117.77,-3161.66 195.28,-3150 295.63,-3150 373.14,-3161.66"/>
<text text-anchor="middle" x="245.46" y="-3172.3" font-family="Times-Roman" font-size="14.00" fill="#000000">elixir&#45;1.10.3 (271.33 MiB)</text>
</g>
<!-- N1 -->
<g id="node45" class="node">
<title>N1</title>
<polygon fill="#34f94f" stroke="#34f94f" points="410.61,-2328.54 410.61,-2343.46 313.86,-2354 177.05,-2354 80.31,-2343.46 80.31,-2328.54 177.05,-2318 313.86,-2318 410.61,-2328.54"/>
<polygon fill="none" stroke="#34f94f" points="414.6,-2324.96 414.6,-2347.04 314.08,-2358 176.83,-2358 76.31,-2347.04 76.31,-2324.96 176.83,-2314 314.08,-2314 414.6,-2324.96"/>
<polygon fill="none" stroke="#34f94f" points="418.6,-2321.37 418.6,-2350.63 314.3,-2362 176.62,-2362 72.32,-2350.63 72.32,-2321.37 176.62,-2310 314.3,-2310 418.6,-2321.37"/>
<text text-anchor="middle" x="245.46" y="-2332.3" font-family="Times-Roman" font-size="14.00" fill="#000000">kodi&#45;with&#45;plugins&#45;18.5 (594.74 MiB)</text>
</g>
<!-- N1&#45;&gt;N32 -->
<g id="edge35" class="edge">
<title>N1&#45;&gt;N32</title>
<path fill="none" stroke="black" d="M376.93,-2355.24C405.62,-2359.97 435.8,-2365.32 463.8,-2371 484.71,-2375.24 507.18,-2380.46 527.97,-2385.55"/>
<polygon fill="black" stroke="black" points="527.15,-2388.95 537.7,-2387.96 528.83,-2382.16 527.15,-2388.95"/>
</g>
<!-- N53 -->
<g id="node46" class="node">
<title>N53</title>
<polygon fill="#4072e1" stroke="#4072e1" points="347.47,-1138.54 347.47,-1153.46 287.71,-1164 203.2,-1164 143.44,-1153.46 143.44,-1138.54 203.2,-1128 287.71,-1128 347.47,-1138.54"/>
<polygon fill="none" stroke="#4072e1" points="351.47,-1135.19 351.47,-1156.81 288.06,-1168 202.85,-1168 139.44,-1156.81 139.44,-1135.19 202.85,-1124 288.06,-1124 351.47,-1135.19"/>
<polygon fill="none" stroke="#4072e1" points="355.47,-1131.83 355.47,-1160.17 288.41,-1172 202.5,-1172 135.44,-1160.17 135.44,-1131.83 202.5,-1120 288.41,-1120 355.47,-1131.83"/>
<text text-anchor="middle" x="245.46" y="-1142.3" font-family="Times-Roman" font-size="14.00" fill="#ffffff">piper&#45;0.4 (12.98 MiB)</text>
</g>
<!-- N53&#45;&gt;N35 -->
<g id="edge36" class="edge">
<title>N53&#45;&gt;N35</title>
<path fill="none" stroke="black" d="M355.89,-1156.64C402.12,-1161.14 455.73,-1166.35 501.45,-1170.8"/>
<polygon fill="black" stroke="black" points="501.4,-1174.31 511.69,-1171.8 502.07,-1167.35 501.4,-1174.31"/>
</g>
</g>
</svg>
