#define date_width 7
#define date_height 9
static unsigned char date_bits[] = {
   0x22, 0x7f, 0x7f, 0x41, 0x55, 0x41, 0x55, 0x41, 0x7f };
