#define mem_width 7
#define mem_height 8
static unsigned char mem_bits[] = {
   0x55, 0x00, 0x7f, 0x7f, 0x7f, 0x7f, 0x00, 0x55 };
