#define mpd_width 16
#define mpd_height 16
static unsigned char mpd_bits[] = {
   0x00, 0x00, 0x00, 0x00, 0x00, 0x00, 0x00, 0x00, 0xc0, 0x1f, 0x40, 0x10,
   0x40, 0x10, 0x40, 0x10, 0x40, 0x10, 0x40, 0x10, 0x70, 0x1c, 0x78, 0x1e,
   0x30, 0x0c, 0x00, 0x00, 0x00, 0x00, 0x00, 0x00 };
