#define wired_width 16
#define wired_height 16

static unsigned char wired_bits[] = {
  0x00, 0x00, 0x00, 0x00, 0x00, 0x00, 0xc0, 0x07, 0x40, 0x04, 0x40, 0x04, 
  0xc0, 0x07, 0x00, 0x01, 0x80, 0x03, 0x00, 0x00, 0x00, 0x01, 0x00, 0x00, 
  0x40, 0x05, 0x00, 0x00, 0x00, 0x00, 0x00, 0x00 };
